<svg width="39" height="22" viewBox="0 0 39 22" fill="none" xmlns="http://www.w3.org/2000/svg">
<path d="M27.8697 15.6354C28.2292 16.4427 28.1434 17.3541 28.0396 17.9463C28.0053 18.1357 27.9602 18.0324 27.9329 18.1605C27.8786 18.4085 27.8692 18.6395 27.8018 18.8721C27.7792 18.9485 27.7088 18.837 27.6871 18.9173C27.6004 19.2393 27.5436 19.546 27.4777 19.8574C27.476 19.8658 27.4741 19.8741 27.472 19.8824C27.444 19.9989 27.3917 20.1065 27.3364 20.1995C27.2909 20.275 27.2464 20.3439 27.2189 20.378C27.1857 20.4183 27.2018 20.3747 27.109 20.2454C27.1006 20.2351 27.092 20.2257 27.083 20.2169C27.1729 20.5794 28.2515 19.9597 28.9027 19.3413C29.6246 18.7032 30.3105 17.9866 31.0122 17.2651C31.5201 16.7389 32.184 16.1494 32.6852 15.5776C32.7437 15.5105 32.6493 15.4907 32.6562 15.4737C32.768 15.2073 32.8218 15.3907 32.9577 15.2826C33.4492 14.8912 33.9474 14.4162 34.3768 13.97C34.4203 13.9251 34.4619 13.882 34.5038 13.8388C34.5083 13.8341 34.5126 13.8296 34.5166 13.8252C34.6935 13.634 34.3821 13.695 34.6595 13.5734C34.6791 13.5649 34.6855 13.684 34.7519 13.6384C34.9013 13.5344 35.1543 13.3028 35.2693 13.2226C35.4903 13.0682 35.5252 13.0413 35.7296 12.8924C36.0079 12.6908 36.3724 12.5033 36.6244 12.2845C36.677 12.2378 36.5461 12.2171 36.6216 12.1369C36.6972 12.0601 36.8792 11.9049 36.9495 11.8506C36.9518 11.8496 36.9539 11.8488 36.9559 11.8482C36.9942 11.8366 37.0475 11.8917 37.0659 11.8965C37.0835 11.9003 37.0987 11.8993 37.1108 11.8953C37.2187 11.851 37.0599 11.6882 37.0477 11.6745C36.8743 11.1922 36.4127 10.491 35.8984 9.89604C35.491 9.4319 34.9986 8.96339 34.6141 8.45766C34.5795 8.41197 34.5461 8.3666 34.5141 8.3215C34.4492 8.2302 34.3872 8.14083 34.3266 8.05219C34.0363 7.62794 33.7798 7.22576 33.4588 6.80988C33.4145 6.75246 33.3608 6.89641 33.3064 6.82675C32.8081 6.18866 32.3274 5.55805 31.8735 4.90262C31.8267 4.83473 31.7798 4.76668 31.7326 4.69836C31.709 4.66413 31.6853 4.62984 31.6617 4.5955C31.6099 4.52039 31.7766 4.53193 31.7298 4.45188C31.4465 3.96136 30.9779 3.14593 30.3835 3.24774C30.131 2.95004 29.8168 2.58295 29.6497 2.24973C29.5424 2.03521 29.7794 2.12203 29.5546 1.9448C29.5041 1.90425 29.4808 2.03688 29.4109 1.97001C29.3688 1.92951 29.3271 1.88681 29.2864 1.84297C29.3197 1.89355 29.4253 1.93657 29.4621 1.93227C29.5616 1.90747 29.3388 1.96341 29.2854 2.05491C29.2527 2.09609 29.2246 2.13926 29.2019 2.18564C29.2001 2.18944 29.1987 2.19314 29.1978 2.19673C29.1841 2.24898 29.2536 2.27611 29.2564 2.29737C29.2806 2.47529 29.0036 2.61633 28.9686 2.67406C28.7128 3.06257 28.7007 3.43955 28.6574 3.89721C28.6481 4.00483 28.7686 3.88685 28.764 3.99016C28.7384 4.52552 28.7373 5.10909 28.6244 5.70028C28.5976 5.83217 28.5174 5.69818 28.4995 5.76003C28.417 6.02801 28.5871 6.12639 28.4649 6.40683C28.4642 6.40825 28.4636 6.4096 28.4629 6.41088C28.4385 6.45048 28.3719 6.40139 28.3608 6.40725C28.2593 6.46126 28.2661 6.54428 28.2903 6.61086C28.3085 6.66144 28.3366 6.70305 28.3342 6.71889C28.2706 7.18525 28.004 7.43281 27.9479 7.89562C27.9422 7.95085 28.0721 7.8505 28.0504 8.00456C27.977 8.5123 27.9233 9.02627 27.7732 9.59258C27.7408 9.71043 27.6891 9.82283 27.6225 9.92209C27.0709 10.6088 26.4527 10.5546 25.9653 10.5929C25.7855 10.5946 25.9053 10.4846 25.8927 10.4739C25.7086 10.3009 25.6131 10.5576 25.5536 10.5704C25.114 10.6597 24.7322 10.4239 24.4183 10.7225C22.6207 10.5086 20.8559 10.415 19.1809 9.85031C19.1594 9.84333 19.2219 9.70105 19.179 9.68768C18.6653 9.52564 18.7286 9.77116 18.3417 10.0097C18.2445 10.0701 18.0269 9.68799 18.0075 9.65922C17.9353 9.5539 18.0549 9.34034 18.0289 9.31829C17.8091 9.1424 17.7448 9.89435 17.4293 9.85719C17.4194 9.85473 17.4792 9.72145 17.4538 9.70445C17.3748 9.65107 17.2853 9.69649 17.2103 9.6396C17.0417 9.50899 17.0064 9.13151 16.7005 9.31848C16.6622 9.34336 16.6714 9.77741 16.3967 9.73471C16.3414 9.72578 16.1669 9.7127 16.0111 9.70153C15.8566 9.69058 15.7087 9.67717 15.6428 9.6603C15.5029 9.62442 15.6078 9.4899 15.598 9.48329C15.5748 9.47015 15.5519 9.45746 15.5317 9.44529C15.2361 9.26694 15.359 9.18999 15.194 8.92358C15.0142 8.63976 15.0312 9.29332 14.9478 9.3614C14.865 9.42932 14.5899 9.26037 14.523 9.20327C14.4567 9.14619 14.5484 9.06238 14.4885 9.02878C14.0909 8.80888 14.2892 9.34103 14.148 9.43631C13.8175 9.66202 13.5946 9.16502 13.3061 9.10078C13.2286 9.08344 13.2863 9.19693 13.2157 9.20309C12.933 9.22582 12.7754 9.06586 12.4511 9.1856C12.3973 9.20508 12.1268 9.47998 11.9725 9.25866C11.9508 9.22679 12.0236 9.11048 11.907 9.07725C11.7316 9.02731 11.4138 8.98465 11.2217 9.01553C11.0797 9.03836 11.2313 9.24343 11.0575 9.17366C10.9803 9.14258 11.1313 9.034 10.9856 8.9853C10.8406 8.93652 10.4647 8.92545 10.3213 8.92401C10.1779 8.9225 10.2508 9.07505 10.2387 9.08466C10.1677 9.13957 9.89046 9.20162 9.86722 9.20074C8.65111 9.1765 7.53014 8.91374 6.33952 9.00011C6.24563 9.00668 6.30882 9.16279 6.29451 9.16541C5.97211 9.23205 6.22447 8.81552 6.00118 8.67772C6.03522 8.99454 5.90425 8.93774 5.67655 8.97424C5.56998 8.99209 5.62916 9.11424 5.61954 9.12687C5.46271 9.31431 5.34661 9.07493 5.31681 9.02608C5.20412 8.84633 5.0965 9.06124 5.02168 8.94126C4.94762 8.82226 5.11285 8.64234 4.89587 8.64743C4.83623 8.76137 5.00196 9.05505 4.83705 9.10504C4.53097 9.19882 4.09693 9.19328 3.66416 9.16359C3.57002 9.15634 3.48012 9.15038 3.39385 9.14743C3.1103 9.13389 2.88107 9.1553 2.79206 9.21179C2.63769 9.29706 2.62314 9.46638 2.59238 9.62731C2.57868 9.70829 2.56387 9.78476 2.54359 9.87619C2.54058 9.88972 2.5378 9.90276 2.53527 9.91531C2.44149 10.3817 2.62786 10.2263 2.67397 10.5487C2.72117 10.8809 2.30636 10.6808 2.20906 10.7183C2.11206 10.7545 2.20233 10.8146 2.14591 10.8663C2.08955 10.9179 2.03861 10.7891 2.00655 10.9205C1.97469 11.0519 2.10272 11.4336 2.19406 11.4907C2.38792 11.6111 2.61925 11.4686 2.50693 11.8152C2.50034 11.835 2.39475 11.7575 2.37523 11.834C2.22371 12.4446 2.14511 13.0885 1.97915 13.6938C1.95615 13.777 1.84418 13.6832 1.82942 13.7312C1.72027 14.0819 1.80206 14.1107 1.9255 14.2091C1.97772 14.2485 2.03707 14.2982 2.09834 14.377C1.95422 14.3367 1.83202 14.3385 1.74154 14.4068C1.64414 14.4799 1.58189 14.635 1.61523 14.8617C1.66364 15.1215 1.78965 15.0489 1.92596 15.1564C1.96373 15.1853 1.96551 15.3743 2.03696 15.3642C2.0494 15.3622 2.06137 15.3594 2.07292 15.3559C2.23829 15.2997 2.32642 15.1533 2.42348 15.2772C2.43958 15.2959 2.45737 15.3214 2.48067 15.3556C2.4893 15.3683 2.38254 15.4215 2.41867 15.46C2.67386 15.6987 2.81924 15.5306 3.17503 15.6341C3.45527 15.714 3.98761 15.9455 4.35894 16.0048C4.3118 16.3386 4.684 16.3001 4.84143 16.0769C5.08607 16.1042 5.34823 16.1025 5.58353 16.1406C5.66524 16.1536 5.60892 16.2503 5.61897 16.2611C5.77573 16.4311 5.88533 16.2049 5.93883 16.1964C6.51405 16.1135 6.98912 16.2743 7.53381 16.0808C7.55319 16.0738 7.57391 15.8341 7.72847 16.0011C7.73868 16.0126 7.56139 16.13 7.82128 16.1258C8.08037 16.1216 8.57852 16.2219 8.93176 16.0856C9.01739 16.053 9.22409 15.8414 9.4117 15.9814C9.43676 16.0005 9.41594 16.0717 9.45275 16.1078C9.57205 16.2227 9.6143 15.9735 9.75911 16.1717C9.90397 16.3699 10.1864 16.5066 10.5399 16.3341C10.5512 16.3291 10.6214 16.1271 10.7368 16.121C10.9197 16.1115 11.1838 16.1315 11.373 16.1153C11.4649 16.1074 11.3964 15.99 11.4122 15.9865C11.6575 15.9393 11.8772 15.9231 12.0921 15.9211C12.1617 15.9205 12.2323 15.9218 12.3038 15.9244C12.5603 15.9341 12.8227 15.9611 13.133 15.9789C13.253 15.9859 13.603 15.8148 13.8373 15.9506C14.0928 16.0997 13.8235 16.7053 14.4116 16.5704C14.6489 16.5173 14.9676 15.7461 15.3875 16.1587C16.2201 16.076 16.9905 16.3006 17.8265 16.1351C17.8643 16.1278 17.9753 15.9038 18.063 15.9033C18.1926 15.9031 18.2693 16.0028 18.3628 16.0048C18.7549 16.0151 19.1057 15.8967 19.4772 15.8601C19.495 15.8583 19.51 15.8585 19.5229 15.8603C19.5772 15.8655 19.5975 15.9019 19.6425 15.9222C19.6673 15.9338 19.7004 15.9402 19.7544 15.9333C19.9219 15.9124 20.0164 15.754 20.2549 15.794C20.4359 15.8249 20.6393 16.1003 20.8695 16.1167C20.8504 15.8238 21.0103 15.8149 21.2857 15.715C21.3385 15.6956 21.2727 15.5967 21.2973 15.5822C21.3987 15.5202 21.5013 15.5991 21.5974 15.5333C21.6205 15.5174 21.6148 15.4147 21.6335 15.3958C21.7934 15.2304 22.086 15.444 22.1358 15.483C22.3268 15.6281 22.4052 15.4872 22.5482 15.5419C22.6908 15.5974 22.4853 15.6848 22.6504 15.7154C22.9912 15.7795 23.4244 15.7497 23.7671 15.7466C23.904 15.7448 23.8068 15.5999 23.8263 15.5963C24.1093 15.5511 24.3982 15.704 24.551 15.4051C24.727 16.0485 24.7262 15.5522 24.9676 15.4693C24.9757 15.4665 24.9841 15.4642 24.9926 15.4625C25.0318 15.4543 25.0773 15.457 25.1292 15.4762C25.1615 15.4882 25.2066 15.8506 25.0846 15.9055C25.0578 15.9173 25.0296 15.9214 24.9979 15.9214C24.9898 15.9214 24.9814 15.9212 24.9728 15.9207C24.8624 15.9144 24.7301 15.8719 24.6072 15.9342C24.5676 15.9543 24.3439 16.2961 24.3137 16.3166C24.0729 16.4785 24.026 15.9414 24.0121 15.9123C23.8575 15.5971 23.5845 15.9655 23.5126 15.991C23.179 16.111 22.8894 16.044 22.6114 16.1316C22.4303 16.1882 22.4288 16.5242 22.2848 16.5168C21.8093 16.4919 21.6079 16.0486 21.1908 16.4646C21.103 16.5536 21.2261 16.8952 20.8645 16.6428C20.8413 16.6263 20.5644 16.3981 20.4383 16.5691C20.4224 16.5905 20.4346 16.6901 20.412 16.7008C20.2615 16.7705 20.1476 16.703 19.9873 16.7636C19.928 16.7861 19.8667 16.812 19.8054 16.836C19.7751 16.8478 19.7446 16.8591 19.7155 16.8691C19.7056 16.8709 19.6761 16.8761 19.6662 16.8774C19.5662 16.9026 19.4587 16.9188 19.3564 16.9143C19.2179 16.909 19.0308 16.7405 18.964 16.7007C18.7774 16.586 18.6033 16.809 18.4842 16.6584C18.3672 16.507 18.5632 16.258 18.2785 16.1706C18.2803 16.426 18.2683 16.6887 18.2624 16.9456C17.6261 16.9611 17.0133 16.8768 16.3949 16.8781C16.3183 16.8785 16.395 17.0155 16.3126 17.0192C15.9651 17.0342 15.6658 16.9301 15.3097 16.9592C15.034 16.9823 14.7308 17.1166 14.4467 17.1458C14.2786 16.8557 13.8561 16.9448 13.5552 16.9175C13.4494 16.9081 13.4565 16.8322 13.3815 16.8075C13.0966 16.7169 13.2333 16.9676 13.1565 17.0075C12.8334 17.1799 12.7896 16.6119 12.4007 16.6437C12.3954 16.6442 12.3756 16.6658 12.3492 16.6981C12.2955 16.762 12.2163 16.8676 12.1678 16.9308C12.1452 16.958 12.1278 16.9772 12.1203 16.9819C11.904 17.1194 12.0753 16.8801 11.9316 16.8681C11.6685 16.8462 11.4821 16.7885 11.1841 16.8983C11.0958 16.931 10.8986 17.1317 10.7124 17.0011C10.688 16.9841 10.6928 16.885 10.6741 16.8806C10.3352 16.8093 10.3488 17.1177 10.1668 17.2348C9.98355 17.3518 9.67236 17.1596 9.60776 17.1028C9.43895 16.9559 9.72343 17.0276 9.73069 17.0115C9.81692 16.8206 9.60427 16.8672 9.43885 16.8625C9.3937 16.5646 9.16588 16.5981 9.26744 16.8588C9.27896 16.8873 9.40493 16.8511 9.43885 16.8625C9.31595 17.1661 9.0631 17.2186 8.76575 16.9615C8.62671 16.8408 8.74102 16.6853 8.34743 16.7616C8.16815 16.7957 8.24921 16.9966 8.09206 17.0598C7.73143 17.2039 7.24688 17.0307 6.8673 17.0673C6.73014 17.0804 6.86689 17.189 6.77229 17.2016C6.52009 17.2351 6.29633 17.153 6.04387 17.1927C6.02049 17.1964 6.07699 17.3125 5.99666 17.3129C5.39059 17.3164 4.86522 17.2221 4.21532 17.1438C3.90518 17.1088 3.3163 17.0711 2.9691 16.9522C2.53994 16.8098 2.02916 16.5225 1.62607 16.0743C1.55418 15.9939 1.48464 15.9069 1.4238 15.821C1.3504 15.7177 1.29087 15.6165 1.23924 15.5225C1.03506 15.1014 0.979831 15.2246 0.850714 15.044C0.725007 14.8521 0.745168 14.5571 0.824179 14.3464C0.870735 14.2165 0.93244 14.1122 0.973614 14.0515C0.989096 14.0347 1.00117 14.0226 1.00806 14.0161C1.00852 14.0157 1.00808 14.0335 1.00875 14.0573C1.00564 14.1472 1.01762 14.2927 1.07637 14.1682C1.13197 14.1334 1.13231 14.1021 1.1129 14.0745C1.08249 14.0429 1.00813 14.0178 1.00806 14.0161C1.04235 13.985 1.1405 13.5048 1.12999 13.4045C1.12478 13.3503 1.00945 13.3642 1.00878 13.3363C0.994914 12.675 1.03228 12.0139 1.14932 11.3432C1.15274 11.3316 1.27762 11.3623 1.28409 11.3346C1.37777 10.9482 1.24572 10.6811 1.18273 10.3461C1.14084 10.1235 1.15059 9.936 1.23202 9.78464C1.27293 9.70869 1.3278 9.64139 1.40339 9.58397C1.40111 9.559 1.39983 9.53296 1.39938 9.50608C1.40057 9.37407 1.41592 9.14553 1.53788 8.86517C1.6554 8.58244 1.90825 8.33207 2.08399 8.23002C2.46999 8.01794 2.39695 7.7754 2.43105 7.74168C2.76089 7.5184 3.01005 7.4511 3.2334 7.42773C3.37478 7.41473 3.50236 7.41843 3.63104 7.4291C3.82939 7.45043 4.02544 7.48511 4.27441 7.49212C4.55438 7.50031 5.09709 7.44636 5.40044 7.40858C5.63643 7.37811 5.781 7.44937 5.99925 7.4007C6.0286 7.3942 5.99806 7.25596 6.007 7.25054C6.24732 7.08254 6.13337 7.42237 6.18417 7.48244C6.37307 7.70111 6.47626 7.8177 6.79459 7.71319C6.86671 7.68931 7.07555 7.20021 7.21002 7.17159C7.38228 7.13537 7.31402 7.31059 7.49548 7.26856C7.51098 7.26514 7.50885 7.15688 7.62031 7.16206C8.13613 7.18467 8.69846 7.25446 9.23538 7.25562C9.30836 7.25618 9.2188 7.08179 9.32508 7.0798C9.82478 7.07063 10.3719 7.0948 10.8519 7.19559C10.9701 7.22095 10.8901 7.33882 10.9143 7.3758C11.0625 7.59971 11.3015 7.29412 11.3389 7.2898C12.2308 7.17886 12.8829 7.5036 13.7796 7.41794C13.8278 7.41268 14.2192 7.09425 14.3687 7.39516C14.3802 7.41526 14.5245 7.7227 14.6815 7.52713C14.6914 7.51489 14.5974 7.35552 14.7759 7.38139C14.952 7.4071 15.2476 7.32099 15.4792 7.50318C15.512 7.5285 15.5628 7.60239 15.6312 7.65802C15.7181 7.7287 15.8263 7.76958 15.9641 7.64441C15.9708 7.63786 16.0423 7.54405 16.1325 7.46479C16.2666 7.35454 16.4464 7.27653 16.5133 7.49851C16.5325 7.56171 16.4744 7.9474 16.7872 7.77669C16.8479 7.74393 16.7518 7.64615 16.9084 7.60806C17.1411 7.54892 17.4274 7.68966 17.7221 7.55754C17.7748 7.53388 18.0071 7.30328 18.1436 7.52653C18.1648 7.56139 18.0993 7.68143 18.1828 7.70914C18.571 7.8401 19.001 7.82872 19.3833 7.98772C19.5198 8.04382 19.417 8.23215 19.5542 8.3121C19.6914 8.39211 19.9777 8.49619 20.1434 8.43348C20.3098 8.37121 20.1938 8.02415 20.4252 8.0432C21.4282 8.1283 22.3584 8.50649 23.3118 8.68713C23.4521 8.71385 23.3458 8.59071 23.5552 8.62269C24.3174 8.74529 25.6158 8.79567 26.0681 8.91725C26.4355 9.01917 26.0395 9.21653 26.3216 9.22556C26.4781 9.21504 26.3733 8.92101 26.3415 8.93439C26.3174 8.93094 26.2704 8.96198 26.2331 9.01845C26.2041 9.06134 26.1844 9.11577 26.1784 9.16167C26.2506 8.98245 26.3522 8.76412 26.399 8.4973C26.4146 8.40897 26.2785 8.47225 26.2935 8.39766C26.3449 8.14156 26.4713 7.87566 26.5348 7.62092C26.5633 7.50641 26.4769 7.51078 26.5142 7.40652C26.6024 7.15779 26.7029 6.93943 26.8481 6.70867C26.8612 6.6878 26.9109 6.86419 26.9696 6.6773C27.0099 6.54903 27.0661 6.41022 27.1205 6.26464C27.1516 6.18168 27.1828 6.09654 27.2111 6.00968C27.233 5.94396 27.2449 5.86102 27.2367 5.77147C27.2285 5.68932 27.0562 5.66878 27.1989 5.50458C27.2279 5.46838 27.4348 5.54159 27.273 5.29859C27.2474 5.2589 27.0265 4.85116 27.1932 4.64245C27.2373 4.58883 27.4152 4.45296 27.395 4.32489C27.3916 4.30743 27.2943 4.37204 27.2909 4.26612C27.2815 3.89082 27.3227 3.47938 27.3723 3.0471C27.3862 2.93076 27.258 3.08568 27.2835 2.91011C27.3497 2.43439 27.5913 1.79704 27.9335 1.35281C27.9379 1.34686 27.9423 1.34092 27.9467 1.33499C28.0682 1.16869 28.0555 1.33489 28.0711 1.32687C28.143 1.29289 28.1856 1.25002 28.2124 1.20274C28.3089 1.05086 28.3173 0.892841 28.3679 0.826224C28.5911 0.570376 28.8151 0.306625 29.4995 0.288719C29.8146 0.282875 30.2872 0.48006 30.5177 0.774614C30.5695 0.83959 30.6259 0.903544 30.6952 0.962806C30.7588 1.01737 30.7945 0.905559 30.813 0.911142C31.001 0.971182 30.7724 1.00676 30.8346 1.0983C31.0091 1.35564 31.2705 1.59474 31.5175 1.81101C31.6085 1.89048 31.6003 1.70955 31.6812 1.78176C32.1621 2.20647 32.66 2.70153 33.052 3.26014C33.1254 3.36544 32.9962 3.37048 32.9962 3.40551C32.9954 3.47779 33.0244 3.53369 33.0674 3.57832C33.1413 3.65497 33.2567 3.69835 33.3288 3.72678C33.3546 3.73624 33.3746 3.74364 33.3846 3.74994C33.6262 3.90159 33.6204 4.0404 33.7764 4.21945C34.499 5.04703 35.1714 6.17818 35.729 7.03834C35.7633 7.09153 35.7968 7.14342 35.8302 7.19485C35.8554 7.2338 35.8806 7.2727 35.9057 7.31155C36.5331 8.29084 37.2722 9.04526 38.0907 10.3025C38.1439 10.391 38.1897 10.2412 38.2373 10.319C38.3822 10.5652 38.5266 10.8431 38.617 11.2278C38.7099 11.596 38.7076 12.1909 38.4139 12.6619C38.3444 12.7776 38.2719 12.8723 38.1886 12.9641C37.745 13.434 37.3355 13.6753 36.9969 13.9379C36.9364 13.9831 37.0859 14.0081 36.9922 14.0828C36.8003 14.2364 36.5593 14.403 36.3553 14.5175C36.2553 14.5741 36.3196 14.4097 36.2205 14.4681C35.9885 14.6054 35.7647 14.7817 35.5702 14.9758C35.5693 14.9767 35.5684 14.9776 35.5675 14.9785C35.485 15.0616 35.6884 15.0241 35.5771 15.1246C35.5575 15.1425 35.5378 15.1605 35.518 15.1788C34.7228 15.9152 33.9416 16.6393 33.0433 17.3079C32.9798 17.3549 32.792 17.2655 32.6992 17.4043C32.7279 17.4506 32.773 17.4942 32.8095 17.5381C31.6115 18.6705 30.4412 19.7762 28.9997 20.8289C28.9357 20.873 29.0941 20.862 28.9697 20.9473C28.648 21.1607 28.3225 21.3758 27.8497 21.5203C27.4196 21.6896 26.5579 21.5902 26.1818 21.1031C26.1574 21.0774 26.1346 21.0506 26.1129 21.0217C25.8911 20.7141 25.9047 20.445 25.8936 20.3004C25.8904 20.1694 26.0404 20.2233 26.0059 19.9456C26.0021 19.91 25.978 19.7152 25.9766 19.593C25.9766 19.5843 25.9767 19.5757 25.9768 19.5673C25.9777 19.5196 25.976 19.4792 25.9704 19.455C25.9668 19.442 25.8736 19.4884 25.8911 19.3781C25.9933 18.7379 26.1221 18.0883 26.2047 17.5137C26.2178 17.4214 26.3042 17.5256 26.3141 17.4595C26.3863 16.9789 26.2673 16.5207 26.1978 16.2189C26.1428 16.0089 26.3167 15.9915 26.3534 15.7814C26.3556 15.7628 26.3157 15.707 26.2918 15.6515C26.2914 15.6506 26.291 15.6497 26.2907 15.6489C26.2918 15.6387 26.2964 15.6342 26.3273 15.6374C26.3524 15.643 26.4425 15.6359 26.4542 15.6102C26.497 15.5365 26.43 15.4962 26.4165 15.438C26.3976 15.3783 26.4452 15.3156 26.4963 15.2733C26.5942 15.1826 26.7345 15.132 26.7153 14.9714C26.6901 14.9701 26.7396 14.8754 26.3385 14.8716C26.0931 14.89 25.9053 15.1363 25.883 15.2171C25.8418 15.3155 25.8387 15.3609 25.8316 15.3994C25.8149 15.5356 25.8172 15.5538 25.7929 15.5588C25.7929 15.5588 25.7929 15.5588 25.7929 15.5588C25.7797 15.5562 25.759 15.555 25.7312 15.4813C25.7358 15.4583 25.6987 15.4782 25.7558 15.2259C25.7846 15.1593 25.8021 15.007 26.0645 14.8334C26.3583 14.664 26.6214 14.7574 26.7048 14.7909C26.8921 14.8756 26.9159 14.9147 26.9656 14.9475C26.9669 14.9483 26.9682 14.9491 26.9695 14.9498C27.0203 14.9802 27.0668 15.0077 27.095 15.0162C27.1523 15.0347 27.1562 14.8998 27.2589 14.9571C27.3621 15.0179 27.3777 15.1606 27.5115 15.29C27.6405 15.424 27.7084 15.2996 27.8697 15.6354ZM3.46356 8.07239C3.68144 8.21167 3.70819 7.66683 3.46456 7.80661C3.45248 7.81419 3.45184 8.06575 3.46356 8.07239ZM17.0188 16.5338C16.7709 16.3348 16.5993 16.6242 16.7741 16.7792C16.9505 16.934 17.0951 16.5942 17.0188 16.5338ZM19.6245 16.244C19.6132 16.2399 19.6025 16.2369 19.5924 16.235C19.5891 16.2355 19.5794 16.2373 19.5761 16.2377C19.305 16.1775 19.3365 16.7626 19.6286 16.6109C19.6358 16.61 19.6571 16.6063 19.6642 16.605C19.6661 16.6037 19.6679 16.6024 19.6698 16.601C19.6833 16.5909 19.6417 16.2502 19.6245 16.244ZM26.7058 16.3928C26.7102 16.3888 26.6761 16.2588 26.6699 16.2574C26.5524 16.2249 26.6181 16.4714 26.7058 16.3928ZM22.0899 15.8439C21.9949 15.7547 21.7444 15.8768 21.8624 15.9862C21.9578 16.0748 22.2074 15.9556 22.0899 15.8439ZM13.3141 8.82972C13.3165 8.83814 13.4245 8.85192 13.4251 8.80509C13.4263 8.65423 13.2733 8.68792 13.3141 8.82972ZM26.4342 15.6022C25.7041 15.7895 25.3877 15.1064 25.9887 15.1434C26.1018 15.1409 25.7752 15.3638 25.9248 15.4011C26.0699 15.4345 26.1749 15.3406 26.252 15.2546C26.3327 15.1662 26.3818 15.0964 26.5447 15.1011C26.6238 15.0962 26.5038 15.5893 26.4333 15.6035C26.4336 15.603 26.4339 15.6026 26.4342 15.6022ZM3.60699 8.72048C3.60845 8.72304 3.62911 8.72496 3.65581 8.72632C3.70277 8.72871 3.76611 8.72867 3.76835 8.72407C3.81702 8.61746 3.72078 8.57302 3.65331 8.59546C3.60905 8.60976 3.57995 8.65148 3.60699 8.72048ZM19.6022 9.76594C19.6087 9.78207 19.9519 9.84825 19.9656 9.83652C20.1889 9.59501 19.4938 9.45562 19.6022 9.76594ZM4.36379 16.0144C4.53665 15.9012 4.72694 15.9017 4.84071 16.0767C4.6845 16.0566 4.52041 16.0405 4.36379 16.0144Z" fill="black"/>
</svg>
