<svg width="37" height="51" viewBox="0 0 37 51" fill="none" xmlns="http://www.w3.org/2000/svg">
<path d="M8.76173 21.4431C7.91902 21.4429 6.81249 21.3553 5.97386 21.2322C5.71113 21.1939 5.84933 21.1678 5.66852 21.1383C5.53528 21.1163 5.40496 21.0988 5.27553 21.0814C5.2574 21.079 5.23928 21.0765 5.22117 21.0741C5.03515 21.0495 4.8499 21.0306 4.65911 21.0011C4.54763 20.9838 4.69515 20.9313 4.5782 20.9147C3.93609 20.823 3.31894 20.8158 2.63314 20.7331C2.08948 20.6297 1.58063 20.6962 0.830406 20.1239C0.801117 20.0964 0.772611 20.0671 0.745256 20.0358C0.654217 19.943 0.532314 19.7147 0.530699 19.5188C0.523576 19.327 0.569473 19.2047 0.603393 19.1158C0.679227 18.935 0.750526 18.8386 0.82144 18.7373C0.95993 18.5475 1.09858 18.3916 1.23543 18.241C1.51123 17.9403 1.78908 17.6638 2.06588 17.3918C2.6223 16.8469 3.18741 16.3151 3.75077 15.7838C3.77159 15.7641 3.79255 15.7444 3.81364 15.7245C4.65692 14.931 5.5112 14.1388 6.37384 13.3437C7.17919 12.6012 8.19619 11.7452 9.00277 10.9526C9.09659 10.8602 8.99335 10.8644 9.00789 10.8433C9.23772 10.513 9.23488 10.7015 9.43518 10.5398C10.2301 9.89777 11.0659 9.13189 11.7686 8.44664C12.0666 8.15579 11.668 8.34046 12.0287 8.11022C12.0536 8.09416 12.0247 8.21916 12.114 8.14708C12.3156 7.98446 12.6693 7.64059 12.8213 7.50834C13.1145 7.25368 13.1611 7.20974 13.4313 6.96223C13.8021 6.62338 14.2652 6.2471 14.6494 5.87261C14.7327 5.79119 14.569 5.83995 14.6968 5.70564C14.823 5.57266 15.1856 5.24929 15.3173 5.15288C15.4513 5.05424 15.4388 5.14544 15.4695 5.13568C15.5732 5.10369 15.6811 5.00697 15.7844 4.89256C15.8486 4.82116 15.9066 4.7464 15.9536 4.68266C16.0182 4.59677 16.0638 4.52992 16.0807 4.51265C17.003 3.57695 17.8914 2.87094 18.8037 2.03806C19.2681 1.61697 19.7283 1.16761 20.2443 0.748231C20.3379 0.673351 20.4373 0.598419 20.5353 0.529598C20.7609 0.361236 21.1544 0.236154 21.4946 0.336416C22.3695 0.676105 22.5085 1.24011 22.7794 1.6803C23.0149 2.14163 23.2019 2.59992 23.4105 3.07684C23.4544 3.17767 23.5107 3.01581 23.5647 3.13861C23.8406 3.76391 24.0957 4.39333 24.3802 4.93256C24.3823 4.93646 24.3844 4.94037 24.3865 4.94429C24.7121 5.55234 25.078 6.16222 25.4422 6.77229C25.5135 6.89168 25.3172 6.80695 25.3829 6.93061C25.7855 7.68397 26.3986 8.92805 27.1376 9.01305C27.4746 9.4854 27.8943 10.0532 28.1284 10.5313C28.2791 10.8395 27.966 10.6674 28.2689 10.957C28.3372 11.0222 28.3596 10.8518 28.4547 10.9549C28.856 11.3891 29.2247 11.9184 29.6396 12.3369C29.724 12.4215 29.7947 12.3259 29.8319 12.3395C30.1424 12.4596 30.2152 13.0007 30.2609 13.0938C30.6229 13.8061 31.0197 14.2262 31.4509 14.8276C31.5517 14.9693 31.563 14.7096 31.6645 14.8424C31.8667 15.1093 32.0643 15.3879 32.2517 15.6856C32.2723 15.7185 32.2925 15.7511 32.3123 15.7835C32.5483 16.1708 32.7999 16.5588 33.0431 16.9448C33.1383 17.096 32.9276 17.0508 32.9677 17.1277C33.1489 17.4672 33.4088 17.3685 33.5937 17.6873C33.6332 17.7544 33.5127 17.7963 33.5114 17.8155C33.4907 18.1175 33.8404 18.0805 33.8816 18.1201C34.4101 18.6196 34.4767 19.1719 34.9541 19.6972C35.0116 19.7603 35.0106 19.5147 35.1651 19.6986C35.3667 19.939 35.5659 20.1884 35.7592 20.4476C35.794 20.4942 35.8284 20.5412 35.8625 20.5885C36.2358 21.154 36.6523 21.6939 36.6904 22.6639C36.687 22.7633 36.6741 22.8697 36.6443 22.98C36.5034 23.7302 35.6201 24.3112 34.9992 24.2896C34.7086 24.3022 34.9059 24.1748 34.885 24.164C34.5981 23.9834 34.4355 24.2437 34.3429 24.2498C33.6419 24.2742 33.1216 23.8982 32.6174 24.0898C30.6124 23.4374 28.7048 22.5672 26.854 22.2178C26.7013 22.1956 26.5457 22.1762 26.3894 22.1582C25.988 22.1123 25.5796 22.0747 25.1695 22.0364C25.1366 22.0337 25.1943 21.9098 25.1286 21.9049C24.3355 21.8515 24.4894 22.0422 23.9878 22.3042C23.8629 22.37 23.4489 22.1189 23.4098 22.1026C23.2753 22.0382 23.3906 21.8425 23.3464 21.8317C22.9983 21.7571 23.0805 22.2754 22.7242 22.3958C22.6999 22.4043 22.6741 22.411 22.6468 22.4157C22.6329 22.417 22.6719 22.2966 22.6332 22.2917C22.516 22.2777 22.4164 22.3378 22.3086 22.3349C22.3034 22.3348 22.2982 22.3345 22.293 22.334C22.0558 22.3169 21.7699 22.0632 21.6075 22.4617C21.6029 22.5165 21.8823 22.6801 21.8015 22.8781C21.7896 22.9106 21.7689 22.9889 21.7491 23.1098C21.7293 23.2267 21.7083 23.3607 21.6882 23.487C21.6606 23.659 21.6385 23.8173 21.6209 23.8958C21.5767 24.0974 21.4692 23.946 21.4625 23.9598C21.2556 24.5068 21.208 24.2905 20.9541 24.5683C20.7055 24.8533 21.2763 24.7888 21.337 24.9053C21.3965 25.0212 21.266 25.4374 21.2238 25.5429C21.1802 25.6474 21.0991 25.5203 21.0754 25.6134C20.9269 26.2348 21.368 25.87 21.4676 26.0643C21.708 26.5156 21.3202 26.9124 21.3251 27.3528C21.3267 27.4711 21.4121 27.3652 21.4326 27.4682C21.5135 27.8759 21.4136 28.1408 21.5967 28.5945C21.6265 28.669 21.9316 29.0133 21.7801 29.2853C21.7582 29.3238 21.6395 29.2392 21.6404 29.4188C21.6417 29.6871 21.6841 30.1654 21.756 30.4452C21.8091 30.6519 21.9517 30.3886 21.9316 30.6605C21.9223 30.7813 21.7935 30.5759 21.7843 30.8015C21.7758 31.0222 21.8412 31.5707 21.8647 31.7924C21.865 31.7959 21.8654 31.7993 21.8658 31.8027C21.8897 32.0193 22.0108 31.8883 22.0214 31.9051C22.0444 31.9435 22.0733 32.0261 22.0998 32.1148C22.1434 32.2588 22.1811 32.4304 22.1826 32.4519C22.3367 34.304 22.08 36.0274 21.8953 37.8134C21.8807 37.9543 22.0274 37.8797 22.0266 37.9014C22.0108 38.3898 21.7136 37.9599 21.5451 38.2738C21.8217 38.2673 21.743 38.4565 21.7167 38.7954C21.7041 38.9587 21.8223 38.8882 21.8305 38.9046C21.947 39.17 21.7157 39.3013 21.6672 39.3369C21.4883 39.4689 21.6392 39.6698 21.52 39.76C21.4019 39.8506 21.2924 39.5793 21.2428 39.8996C21.3235 40.0041 21.6097 39.8079 21.6113 40.055C21.6135 40.3093 21.5831 40.6158 21.5443 40.9426C21.5337 41.0321 21.5222 41.1215 21.5098 41.2122C21.397 42.0323 21.2212 42.9268 21.1624 43.4114C21.0728 44.1498 21.069 44.392 20.9933 44.8208C20.8548 45.5971 21.0668 45.3277 21.0982 45.8252C21.126 46.3248 20.7026 46.0338 20.5979 46.0924C20.4931 46.149 20.5835 46.2357 20.5198 46.3139C20.456 46.3914 20.4134 46.2009 20.3683 46.3963C20.3287 46.5714 20.3998 47.0435 20.4763 47.2024C20.4852 47.2201 20.4944 47.2338 20.5036 47.2424C20.6497 47.3752 20.8309 47.2901 20.8505 47.448C20.8572 47.4992 20.848 47.5755 20.8185 47.6982C20.8115 47.7275 20.7008 47.6222 20.68 47.7355C20.5851 48.2461 20.5659 48.7939 20.3913 49.3439C20.3695 49.4077 20.3447 49.4712 20.3155 49.5337C20.1743 49.9025 19.7453 50.1517 19.3873 50.1319C19.2537 50.1314 19.3625 49.9983 19.2892 49.9949C19.1711 49.9874 19.0791 49.9768 19.0044 49.9723C18.9405 49.9683 18.8898 49.9691 18.8481 49.9742C18.6208 50.0005 18.663 50.1622 18.3356 50.2939C18.4678 49.9919 18.2555 49.785 17.6877 49.6859C17.3451 49.6225 17.3796 49.7674 17.135 49.8161C17.0612 49.8309 16.8386 49.6835 16.7795 49.7355C16.5838 49.9044 16.7593 50.1984 16.1811 49.9485C16.1563 49.937 16.2699 49.8478 16.1819 49.8164C15.6156 49.6067 15.4811 49.798 14.8494 49.6055C14.3526 49.4542 13.5626 48.9785 13.049 48.7107C13.2101 48.3903 12.6907 48.2348 12.3803 48.3571C12.0488 48.182 11.6832 48.0099 11.3805 47.813C11.2751 47.7447 11.3966 47.6898 11.3878 47.6725C11.2586 47.4042 11.0017 47.5436 10.927 47.5153C10.1306 47.2049 9.58023 46.6984 8.78857 46.5908C8.77688 46.5893 8.76518 46.5879 8.75345 46.5866C8.73555 46.5847 8.68094 46.6685 8.61019 46.6786C8.56577 46.6852 8.51283 46.6617 8.45643 46.5688C8.44579 46.5523 8.73615 46.5198 8.37546 46.4003C8.01884 46.2802 7.33445 45.9897 6.78445 46.0416C6.65137 46.0516 6.30362 46.2245 6.05816 46.0311C6.02522 46.0048 6.07237 45.9342 6.02606 45.8869C5.87694 45.7355 5.75475 45.9904 5.58799 45.7409C5.459 45.5419 5.19886 45.3729 4.87056 45.2925C4.83417 45.2831 4.7969 45.2744 4.75853 45.2659C4.7033 45.2537 4.64576 45.2425 4.58453 45.2295C4.57487 45.2278 4.3461 45.3471 4.22043 45.2008C4.0823 45.0442 4.00504 44.7811 3.99561 44.5472C3.99331 44.5079 3.99115 44.4692 3.98901 44.4315C3.98606 44.3797 3.98313 44.3297 3.97979 44.2826C3.97069 44.1458 3.85643 44.24 3.85279 44.2163C3.7463 43.2761 3.94538 42.6061 4.22803 41.6609C4.27873 41.4893 4.27161 40.9356 4.51151 40.6435C4.77479 40.3285 5.17828 40.8907 5.36116 40.0419C5.43726 39.7048 4.94401 38.9873 5.5656 38.5676C6.01516 37.4053 6.74209 36.485 7.18778 35.3093C7.20754 35.2572 7.10644 35.0054 7.16634 34.8904C7.25719 34.7166 7.38857 34.663 7.45478 34.5388C7.60518 34.259 7.71634 33.9726 7.81603 33.6906C7.82921 33.6505 7.84266 33.6096 7.85612 33.5688C7.92198 33.3694 7.99015 33.1691 8.07072 32.9724C8.15188 32.7731 8.21719 32.8777 8.31265 32.6417C8.40878 32.4029 8.34756 32.1986 8.52595 31.8963C8.6615 31.6665 8.99923 31.5126 9.14606 31.1932C8.90476 31.0931 8.99099 30.8702 9.06484 30.4468C9.07879 30.3656 8.96455 30.4183 8.96671 30.3784C8.97297 30.217 9.09198 30.1012 9.0907 29.9458C9.09076 29.9074 9.00693 29.8773 9.00214 29.8444C8.95795 29.5658 9.27588 29.2361 9.33082 29.1781C9.53999 28.9594 9.46741 28.8032 9.57913 28.6179C9.68998 28.4341 9.66123 28.7509 9.76255 28.5275C9.97378 28.0602 10.1384 27.4274 10.2692 26.9289C10.3212 26.7286 10.1712 26.8363 10.176 26.807C10.2509 26.3891 10.4684 25.9961 10.2847 25.7172C10.9424 25.5527 10.2828 25.4556 10.507 24.8859C10.5245 24.8408 10.8207 24.8267 10.8312 25.0178C10.8415 25.2086 10.7011 25.4681 10.7135 25.7337C10.7173 25.7953 10.9079 26.196 10.9123 26.2482C10.9532 26.6456 10.5182 26.5953 10.491 26.6088C10.1904 26.7636 10.3665 27.247 10.3564 27.3602C10.3122 27.881 10.1309 28.2825 10.0688 28.7115C10.0269 28.9928 10.2893 29.1021 10.2135 29.3125C9.96115 30.0048 9.50482 30.1186 9.60232 30.8822C9.62244 31.0449 9.96379 31.0115 9.55622 31.4297C9.53035 31.4569 9.18728 31.7518 9.24155 32.0118C9.24837 32.0448 9.33341 32.0751 9.32746 32.1132C9.28603 32.3673 9.15948 32.5011 9.09529 32.7693C9.03015 33.0398 8.96095 33.365 8.81845 33.6481C8.7791 33.7263 8.70565 33.8033 8.6307 33.871C8.5921 33.9058 8.55314 33.9381 8.51838 33.9665C8.51721 33.9695 8.51361 33.9784 8.51237 33.9813C8.46765 34.0169 8.42957 34.0461 8.40734 34.0669C8.19495 34.2632 8.25516 34.5979 8.05682 34.682C7.85726 34.766 7.79342 34.3902 7.5289 34.7275C7.73364 34.8433 7.93495 34.9803 8.13617 35.1063C7.71985 35.9445 7.22733 36.7011 6.82319 37.5117C6.77329 37.6123 6.93825 37.5683 6.88798 37.6773C6.67592 38.1369 6.39834 38.4892 6.21058 38.9725C6.06585 39.3469 6.01231 39.7985 5.8913 40.1876C5.54432 40.315 5.41238 40.9187 5.26355 41.3231C5.2106 41.4657 5.14412 41.4349 5.09091 41.532C4.89576 41.9024 5.18139 41.781 5.18958 41.8968C5.23826 42.3859 4.69007 42.3056 4.61796 42.8724C4.61183 42.9059 4.86436 43.2915 4.8817 43.3368C4.98115 43.645 4.77566 43.3796 4.74459 43.5696C4.70181 43.8555 4.6525 44.0754 4.70847 44.3668C4.7149 44.3994 4.72327 44.4329 4.73383 44.4671C4.74204 44.4863 4.75217 44.5039 4.76427 44.5197C4.7851 44.5483 4.85717 44.5787 4.90482 44.5728C4.95488 44.5709 4.96066 44.5326 4.92667 44.593C4.91868 44.6091 4.84946 44.6898 4.85219 44.6977C4.87089 44.7403 4.92529 44.757 4.97497 44.7455C5.00613 44.7389 5.03741 44.7223 5.06753 44.7004C5.15695 44.6392 5.22981 44.5367 5.34435 44.5017C5.55549 44.4344 5.94417 44.7148 6.02692 44.7915C6.23737 44.9898 5.84298 44.8427 5.83202 44.8576C5.66611 45.0382 5.97393 45.0431 6.21832 45.0889C6.21726 45.4161 6.5623 45.4382 6.47197 45.1363C6.46184 45.1031 6.26531 45.1094 6.21832 45.0889C6.46586 44.7973 6.86865 44.8075 7.25707 45.1734C7.4357 45.3473 7.21897 45.4611 7.83267 45.5303C8.11132 45.5674 8.05523 45.3287 8.3165 45.3348C8.5379 45.3416 8.77205 45.4073 9.00336 45.4998C9.05187 45.5191 9.10069 45.5399 9.1497 45.5616C9.51056 45.721 9.82572 45.9262 10.1221 46.05C10.3165 46.1321 10.1833 45.935 10.3191 45.9886C10.6767 46.1304 10.9264 46.3624 11.2753 46.4955C11.3071 46.5076 11.2914 46.3596 11.3948 46.4127C12.1719 46.809 12.7863 47.2266 13.5815 47.6034C13.9652 47.7876 14.6821 48.0244 15.0806 48.1877C15.7671 48.4792 16.6025 48.9126 17.2366 49.0044C17.649 49.0648 17.5817 48.9254 17.7684 48.878C18.1224 48.7862 18.6716 49.1394 18.7521 49.1886C18.7553 49.1914 18.3986 49.1791 18.5806 49.2618C18.6783 49.4015 18.7482 49.1887 18.7521 49.1886C18.7655 49.1976 18.8261 49.2113 18.9108 49.2253C18.9541 49.2324 19.0037 49.2396 19.0565 49.2463C19.2487 49.2755 19.3942 49.2542 19.3966 49.2362C19.4079 49.22 19.3625 49.116 19.3621 49.1119C19.3354 49.0851 19.2408 49.1815 19.2714 49.0982C19.275 49.0791 19.28 49.0523 19.2849 49.0199C19.3412 48.6724 19.273 48.0162 19.3712 47.2854C19.3828 47.2046 19.3966 47.1208 19.4144 47.0319C19.4162 47.0235 19.418 47.015 19.4199 47.0066C19.4249 46.99 19.5529 47.0366 19.5631 46.9971C19.7084 46.4434 19.5888 46.0552 19.5439 45.5721C19.498 45.0882 19.5654 44.7103 19.8212 44.4459C19.8262 44.0785 19.9753 43.5603 20.0652 43.2625C20.1552 42.9644 19.8993 42.8958 19.8966 42.8691C19.8248 42.1464 19.9574 41.6948 20.0739 41.0469C20.0895 40.9601 20.1048 40.8703 20.1196 40.7738C20.1248 40.7399 20.1299 40.7056 20.135 40.6707C20.1953 40.2386 20.2888 39.4025 20.3304 38.9616C20.3623 38.6111 20.4561 38.4161 20.4618 38.0975C20.4626 38.0543 20.3388 38.079 20.3361 38.0653C20.2433 37.6985 20.5083 37.9075 20.5698 37.8432C20.7917 37.6118 20.9163 37.4603 20.8743 37.0053C20.8653 36.8988 20.47 36.5588 20.457 36.3773C20.4416 36.1354 20.5885 36.2396 20.5658 35.985C20.5638 35.9634 20.4696 35.9627 20.4808 35.8087C20.5311 35.0974 20.582 34.3115 20.5363 33.5586C20.5303 33.4551 20.3841 33.5927 20.3728 33.446C20.3432 33.0655 20.3126 32.6696 20.2897 32.2698C20.2835 32.1626 20.2778 32.054 20.2727 31.9445C20.2629 31.7272 20.2556 31.5111 20.2533 31.3006C20.2518 31.1301 20.3706 31.2231 20.398 31.1827C20.5631 30.9339 20.2439 30.6457 20.2318 30.5936C19.9352 29.3387 20.0223 28.3058 19.7807 26.9293C19.7659 26.8571 19.4255 26.2835 19.6708 26.0009C19.6869 25.9806 19.936 25.71 19.7545 25.4805C19.7433 25.4657 19.6111 25.6356 19.6213 25.344C19.6316 25.0543 19.5506 24.5736 19.727 24.1739C19.7827 24.0453 20.0616 23.7726 19.9087 23.3653C19.9057 23.3578 19.8736 23.3016 19.8378 23.2195C19.7811 23.0907 19.7212 22.8968 19.7488 22.7382C19.7697 22.6152 19.8341 22.4887 19.9497 22.4228C19.9834 22.4039 20.075 22.4307 20.1678 22.3737C20.2709 22.315 20.3216 22.1804 20.5289 21.7569C20.6238 21.5985 20.3277 21.8027 20.6454 21.4111C21.0279 20.9937 21.5402 20.8623 21.8975 20.7426C22.0564 20.69 22.204 20.6392 22.3417 20.5743C22.3602 20.5653 22.3922 20.5437 22.4354 20.5177C22.5658 20.4344 22.7948 20.3101 23.0037 20.4125C23.0462 20.4335 22.9819 20.5443 23.1166 20.5427C23.7532 20.5378 24.3922 20.4391 25.0225 20.5021C25.245 20.525 25.1334 20.693 25.3635 20.7373C25.5936 20.7811 26.0556 20.833 26.3036 20.7694C26.4863 20.7223 26.3987 20.5602 26.4849 20.4757C26.5174 20.445 26.5718 20.4245 26.6754 20.4259C26.7914 20.4273 26.912 20.4318 27.0315 20.4392C28.7937 20.615 29.9969 21.2935 31.3191 21.7318C31.5262 21.8035 31.3872 21.6543 31.6923 21.7509C32.7649 22.1521 34.942 22.4315 34.8537 22.4538C34.848 22.5547 34.9203 22.6086 34.9656 22.6563C35.0123 22.7048 35.0287 22.7637 35.0765 22.7634C35.12 22.7526 34.9466 22.6013 34.8585 22.5453C34.8278 22.5679 34.8088 22.5844 34.8049 22.5944C34.7952 22.619 34.7888 22.6377 34.7838 22.6514C34.7508 22.7577 34.7152 22.5597 34.6352 22.4009C34.5571 22.2292 34.4505 22.0315 34.2777 21.837C34.2071 21.7578 34.1547 21.9051 34.0971 21.8665C34.0926 21.8633 34.0881 21.859 34.0834 21.8536C34.0536 21.819 34.0249 21.7832 33.9969 21.7463C33.8018 21.4894 33.6329 21.1913 33.427 20.9501C33.321 20.8266 33.2514 20.9212 33.1639 20.7987C32.9528 20.5063 32.783 20.2258 32.6336 19.8777C32.6199 19.846 32.8705 19.9284 32.6989 19.7122C32.4205 19.3617 32.1432 18.8613 31.73 18.5055C31.6074 18.3997 31.3989 18.5532 31.3311 18.167C31.317 18.0849 31.619 17.9791 31.1658 17.8075C31.0914 17.7846 30.3939 17.4068 30.4038 16.9733C30.4038 16.9732 30.4038 16.973 30.4039 16.9728C30.4085 16.944 30.4229 16.8959 30.436 16.8387C30.4648 16.7123 30.4865 16.5419 30.3997 16.4584C30.3817 16.4423 30.3196 16.5967 30.2301 16.4841C29.9179 16.0893 29.6194 15.6393 29.2722 15.2266C29.1793 15.1167 29.1931 15.3739 29.058 15.2067C28.6869 14.7478 28.2785 14.1276 27.965 13.628C27.8499 13.444 28.0259 13.4967 28.0262 13.4766C28.0301 13.1514 27.7335 13.1941 27.6715 13.1349C27.2902 12.7681 27.1502 12.3688 26.8399 11.9958C26.7545 11.8922 26.714 12.0435 26.6897 12.0284C26.444 11.8675 26.7374 11.9025 26.6538 11.7458C26.4196 11.3058 26.0917 10.866 25.792 10.4656C25.682 10.3186 25.6923 10.5687 25.5951 10.4355C25.0176 9.64688 24.4568 8.78715 23.9988 7.92524C23.9124 7.76202 24.0537 7.80674 24.0517 7.76213C24.0409 7.45812 23.6654 7.24102 23.6041 7.17379C23.321 6.86999 23.3132 6.68834 23.1243 6.37738C23.0133 6.19318 22.901 5.99596 22.7945 5.79549C22.7922 5.79108 22.7898 5.78666 22.7875 5.78225C22.0114 4.24548 21.5869 2.34756 21.0791 1.75137C21.0384 1.69949 21.0519 1.72833 21.1657 1.73716C21.2833 1.74434 21.3563 1.68382 21.3196 1.69626C21.2374 1.74472 21.1591 1.79424 21.0789 1.84835C19.9896 2.62884 18.952 3.5051 17.8303 4.49611C17.7379 4.57841 17.8916 4.5617 17.8122 4.63386C17.4632 4.94886 17.1138 5.25943 16.7636 5.57333C16.6987 5.63146 16.6328 5.69067 16.5659 5.75093C15.9486 6.30685 15.338 6.85472 14.7288 7.43108C14.6463 7.50892 14.8225 7.45885 14.6917 7.5861C14.4213 7.84981 14.0644 8.16993 13.7669 8.40703C13.6207 8.52391 13.7581 8.30316 13.6118 8.42204C13.2734 8.69651 12.9241 9.00914 12.6032 9.32164C12.4669 9.45468 12.7349 9.32127 12.5531 9.48955C11.3154 10.6379 10.1074 11.7719 8.7862 12.8561C8.69546 12.9305 8.50782 12.8772 8.34671 13.0712C8.3646 13.1178 8.40252 13.1569 8.43031 13.1986C7.19948 14.3719 5.95316 15.5103 4.72318 16.6686C4.70225 16.6883 4.68147 16.7079 4.66082 16.7274C4.13473 17.2244 3.61618 17.7248 3.11107 18.2378C3.03878 18.3115 3.22531 18.2472 3.08785 18.3884C2.8252 18.6591 2.56662 18.9351 2.33268 19.2037C2.21831 19.3354 2.10451 19.4729 2.02941 19.5785C1.99249 19.6282 1.96483 19.683 1.97759 19.6521C1.98145 19.6346 2.00956 19.5841 2.00426 19.4396C2.00501 19.2917 1.89302 19.0919 1.84581 19.0531C1.83939 19.0466 1.83379 19.0418 1.82947 19.0386C1.76425 19.0273 2.11692 19.1994 2.42572 19.2834C2.52881 19.3137 2.44454 19.4562 2.77572 19.492C2.83222 19.4992 3.3405 19.5598 3.47849 19.548C3.49704 19.5461 3.41085 19.4645 3.57607 19.4882C4.16467 19.5722 4.78389 19.6642 5.40237 19.7631C5.41942 19.7659 5.43648 19.7686 5.45353 19.7712C5.81343 19.8278 6.17428 19.8789 6.52967 19.926C6.68379 19.9464 6.51306 19.9973 6.62284 20.0123C7.40245 20.1177 8.26281 20.1091 9.01591 20.1849C9.52085 20.2349 9.33253 20.3454 9.60116 20.461C9.64011 20.4775 9.95445 20.4815 9.97147 20.5468C10.0134 20.7115 9.85912 20.8914 9.92131 21.0671C9.93228 21.0964 10.1897 21.079 10.1877 21.1114C10.1877 21.1115 10.1877 21.1115 10.1877 21.1115C10.1874 21.1211 10.1677 21.135 10.1082 21.1558C10.0922 21.162 9.78166 21.1917 9.70452 21.222C9.6514 21.243 9.74717 21.3103 9.63761 21.3369C9.52902 21.3635 9.40879 21.3065 9.22748 21.3358C9.04651 21.3651 9.12325 21.4432 8.76173 21.4431ZM20.4749 41.9196C20.6297 41.6511 20.176 41.56 20.2535 41.8773C20.2578 41.8928 20.4673 41.9335 20.4749 41.9196ZM6.95489 36.5484C6.62063 36.7902 6.74635 37.1378 6.99219 36.9739C7.23752 36.8107 7.05647 36.4744 6.95489 36.5484ZM8.45471 32.9938C8.16501 33.3442 8.69236 33.6209 8.74671 33.1456C8.7501 33.1178 8.47162 32.9732 8.45471 32.9938ZM8.34625 20.4645C8.34947 20.4679 8.57568 20.4788 8.58192 20.4758C8.70476 20.406 8.25259 20.3844 8.34625 20.4645ZM9.59024 29.3655C9.47318 29.4687 9.43868 29.8667 9.58595 29.7384C9.70507 29.6344 9.7367 29.236 9.59024 29.3655ZM21.0899 27.39C21.0966 27.3848 21.086 27.2214 21.0456 27.2288C20.9151 27.2533 20.9764 27.477 21.0899 27.39ZM11.4277 23.2652C10.936 24.0641 10.2376 24.3895 10.7838 23.4678C10.8839 23.3071 10.7243 23.9018 10.879 23.7117C11.1627 23.3679 11.035 22.9635 11.395 22.6561C11.4621 22.602 11.4588 23.2186 11.4274 23.267C11.4275 23.2664 11.4276 23.2658 11.4277 23.2652ZM21.0422 41.8163C21.0487 41.8119 21.0791 41.5865 21.0736 41.5813C20.9414 41.4434 20.8805 41.8957 21.0422 41.8163ZM25.7673 21.9183C25.7793 21.9291 26.2967 21.9577 26.3137 21.9492C26.5988 21.7308 25.539 21.6699 25.7673 21.9183ZM13.0448 48.6982C12.76 48.7221 12.48 48.6057 12.3813 48.3578C12.5994 48.4762 12.8238 48.5858 13.0448 48.6982Z" fill="black"/>
</svg>
