<svg width="34" height="47" viewBox="0 0 34 47" fill="none" xmlns="http://www.w3.org/2000/svg">
<path d="M13.0757 25.4852C12.3692 25.6796 11.3892 25.9762 10.6412 26.1911C10.4057 26.2591 10.51 26.178 10.3466 26.2233C10.0278 26.3118 9.74195 26.4308 9.42405 26.5157C9.31862 26.5436 9.425 26.4345 9.31492 26.4653C8.87142 26.5897 8.45192 26.7326 8.01667 26.8698C8.00252 26.8743 7.98837 26.8788 7.97421 26.8832C7.82965 26.9288 7.6843 26.9737 7.53545 27.0175C5.92303 27.4962 4.30619 27.9269 2.66863 28.1804C2.63237 28.1861 2.59612 28.1914 2.55988 28.1964C2.28405 28.2348 2.01415 28.2334 1.72551 28.1933C1.43992 28.1379 1.1169 28.1166 0.737455 27.7551C0.680596 27.6947 0.627607 27.6228 0.585482 27.5423C0.44669 27.2479 0.471885 27.0771 0.470379 26.9208C0.476553 26.7648 0.496813 26.6246 0.518627 26.4987C0.565161 26.2358 0.625993 25.9988 0.692311 25.7598C0.824551 25.2889 0.976679 24.8345 1.13467 24.3802C1.483 23.3821 1.98583 22.2304 2.3316 21.206C2.37177 21.0869 2.28051 21.1332 2.28342 21.1088C2.33003 20.7312 2.41878 20.8952 2.52198 20.6708C2.92869 19.7875 3.30866 18.7834 3.60407 17.8992C3.72978 17.5221 3.46341 17.8491 3.6737 17.4992C3.688 17.4752 3.72313 17.5938 3.76735 17.4956C3.86715 17.274 4.01644 16.8242 4.08543 16.6501C4.22099 16.3087 4.24207 16.2479 4.35917 15.9233C4.52179 15.4741 4.74532 14.9524 4.89683 14.4679C4.92916 14.3638 4.81038 14.4752 4.85551 14.3068C4.90145 14.1365 5.05682 13.7072 5.12416 13.5656C5.19151 13.4243 5.2261 13.5061 5.2479 13.4845C5.4309 13.3054 5.44999 12.755 5.46859 12.6871C5.54314 12.4204 5.61923 12.1709 5.69977 11.9219C5.71871 11.8633 5.7378 11.805 5.75704 11.747C6.02623 10.9337 6.30788 10.198 6.54792 9.3763C6.79596 8.52729 7.01011 7.60643 7.20841 6.78897C7.44916 5.81618 7.6411 4.99403 7.87407 4.0164C7.90002 3.91303 7.78253 4.01241 7.81496 3.88455C7.84934 3.75063 7.88718 3.61414 7.92898 3.47908C7.95659 3.38985 7.98532 3.30034 8.01554 3.21135C8.26656 2.49672 8.53171 1.73842 9.18169 1.12467C9.26896 1.04524 9.36313 0.96971 9.46494 0.900723C9.75864 0.701078 10.1121 0.544725 10.4879 0.491375C10.656 0.470307 10.4585 0.596192 10.6217 0.584493C11.7125 0.491512 12.7082 1.51745 13.3574 1.48756C13.8089 1.86115 14.2983 2.3344 14.61 2.71643C14.8121 2.96189 14.5093 2.84935 14.8344 3.05892C14.9072 3.10449 14.8801 2.96134 14.9852 3.03482C15.1571 3.1537 15.3293 3.27604 15.5 3.37459C15.508 3.37922 15.516 3.38385 15.5239 3.38847C15.8194 3.55938 16.1188 3.72852 16.4163 3.85953C16.5189 3.90446 16.533 3.81518 16.5679 3.81691C16.8582 3.8356 17.1513 4.22237 17.2309 4.28036C17.8322 4.71948 18.3373 4.92078 18.9547 5.23466C19.0982 5.30766 18.9791 5.12083 19.1189 5.18747C19.4233 5.33342 19.7305 5.48712 20.0344 5.64891C20.0439 5.65395 20.0533 5.659 20.0628 5.66406C20.4665 5.87992 20.8646 6.09941 21.2479 6.31946C21.3981 6.40583 21.2138 6.42147 21.2834 6.46704C21.5926 6.66649 21.7428 6.5397 22.0418 6.72385C22.1049 6.76229 22.0334 6.81805 22.0418 6.83182C22.1745 7.04785 22.4232 6.94464 22.474 6.96328C23.12 7.19341 23.4413 7.55485 24.0655 7.78426C24.1402 7.81142 24.013 7.65008 24.2206 7.73213C24.7625 7.94549 25.317 8.16445 25.8734 8.38741C25.9074 8.40103 25.9415 8.41472 25.9758 8.42848C26.8184 8.76679 27.6394 9.13871 28.4157 9.54347C28.6183 9.64966 28.4396 9.64719 28.4493 9.66144C28.6111 9.88919 28.8212 9.78277 28.896 9.81077C29.4605 10.0245 29.8806 10.4186 30.3428 10.4262C31.2345 10.971 32.1421 11.5236 32.8716 12.363C32.9118 12.4101 32.9526 12.4597 32.9895 12.5056C33.1994 12.7704 33.1802 13.0788 33.1343 13.2879C33.0843 13.5068 32.9975 13.6884 32.8906 13.8592C32.8534 13.9179 32.8132 13.975 32.7684 14.031C32.0292 14.9185 31.0453 15.3726 30.0984 15.7672C30.0689 15.7793 30.0802 15.6741 30.0216 15.6986C29.3147 15.9879 29.5054 16.0462 29.1231 16.4142C29.0267 16.5061 28.593 16.4867 28.556 16.4883C28.4208 16.4924 28.4792 16.3181 28.4373 16.3265C28.2703 16.3623 28.24 16.4669 28.2075 16.5877C28.1859 16.6682 28.1629 16.756 28.0987 16.8363C28.0594 16.8853 28.0055 16.9314 27.9287 16.9719C27.916 16.9777 27.9305 16.8797 27.8937 16.8901C27.7778 16.9228 27.6911 17.0065 27.5774 17.0398C27.3209 17.1157 27.1196 16.9869 26.8494 17.3189C26.8174 17.3624 27.0159 17.5146 26.6925 17.7409C26.5586 17.8263 26.0342 18.2866 25.8909 18.421C25.7425 18.5495 25.7802 18.3991 25.7682 18.4064C25.324 18.7256 25.4331 18.5503 25.1356 18.6583C24.8399 18.7752 25.1721 18.9466 25.135 19.0575C25.0971 19.1675 24.7916 19.4345 24.7106 19.4994C24.6294 19.5624 24.6602 19.4335 24.5957 19.4953C24.1709 19.9127 24.5975 19.808 24.5363 19.9983C24.4238 20.3567 24.1334 20.5249 23.8862 20.7426C23.826 20.7956 23.7683 20.8516 23.7161 20.9142C23.7143 20.9164 23.7125 20.9185 23.7108 20.9207C23.6468 21.003 23.743 20.9668 23.7029 21.0439C23.5672 21.3439 23.4652 21.5775 23.6258 21.9747C23.6504 22.0463 23.9047 22.302 23.8919 22.5506C23.8897 22.5869 23.7875 22.5336 23.8437 22.6871C23.9274 22.9193 24.1443 23.3168 24.3129 23.5283C24.4369 23.6848 24.4092 23.4309 24.5174 23.6579C24.5663 23.7591 24.393 23.6266 24.4897 23.8138C24.5852 24.001 24.8984 24.4352 25.02 24.5993C25.1411 24.7634 25.1513 24.6189 25.166 24.6287C25.2533 24.6881 25.5204 24.9817 25.54 25.0103C25.8822 25.4891 26.205 25.9768 26.4265 26.5393C26.4285 26.5446 26.4306 26.55 26.4326 26.5553C26.8278 27.5911 27.2071 28.6095 27.6637 29.6405C27.7176 29.7627 27.7832 29.6406 27.7925 29.6588C28.0048 30.0676 27.6071 29.8372 27.6356 30.1685C27.8207 30.0464 27.854 30.2358 27.9917 30.5282C28.0581 30.6693 28.1069 30.5603 28.12 30.5705C28.3226 30.741 28.2231 30.9504 28.2054 31.0007C28.1409 31.187 28.3365 31.2927 28.2926 31.4188C28.2489 31.5443 28.0534 31.3614 28.1574 31.651C28.2603 31.7067 28.3778 31.4218 28.4873 31.6328C28.6614 31.9686 28.8267 32.4538 28.9625 32.9564C28.9681 32.977 28.9737 32.9977 28.9792 33.0185C29.1517 33.6755 29.3382 34.3387 29.4758 34.7071C29.7228 35.3642 29.8336 35.5613 29.9805 35.9449C30.2548 36.6327 30.2755 36.3226 30.5443 36.6954C30.8188 37.067 30.3846 37.0468 30.3444 37.1437C30.3048 37.2404 30.412 37.2643 30.4119 37.3565C30.4119 37.4486 30.2795 37.3213 30.3566 37.4963C30.4353 37.676 30.8183 38.0574 30.9264 38.0745C31.1526 38.1081 31.1954 37.8111 31.3926 38.278C31.4039 38.3049 31.2712 38.2735 31.3194 38.375C31.6906 39.1772 32.2217 39.9572 32.4218 40.8519C32.4447 40.9753 32.3111 40.8953 32.3217 40.9648C32.3609 41.2595 32.3643 41.3843 32.4054 41.4644C32.4085 41.471 32.4117 41.4773 32.4151 41.4833C32.4643 41.5868 32.5923 41.6083 32.612 41.91C32.3726 41.721 32.2202 41.922 31.8373 42.2185C31.5889 42.3943 31.6883 42.461 31.5331 42.6368C31.4849 42.6905 31.2319 42.7091 31.2131 42.7742C31.1416 42.9911 31.4308 43.1188 30.829 43.2236C30.8032 43.2273 30.8533 43.1088 30.7665 43.1282C30.201 43.2456 30.1788 43.4397 29.5802 43.5945C29.1116 43.7132 28.2612 43.7679 27.7404 43.889C27.7105 43.7529 27.5914 43.7216 27.4596 43.7548C27.4072 43.768 27.3526 43.7909 27.3003 43.8208C27.198 43.8792 27.1046 43.9641 27.0532 44.0555C26.7107 44.1434 26.3463 44.2584 26.0097 44.3232C25.8938 44.3456 25.9446 44.2405 25.9277 44.2354C25.6689 44.1542 25.5755 44.3908 25.5043 44.4191C24.7291 44.7172 24.0386 44.7497 23.3191 45.1077C23.2936 45.1204 23.3071 45.3368 23.0621 45.2445C23.0461 45.2379 23.2709 45.075 22.912 45.1673C22.5521 45.2601 21.847 45.3375 21.3775 45.5706C21.2627 45.6272 21.0067 45.8786 20.7257 45.8159C20.6885 45.8072 20.7074 45.7382 20.6517 45.7182C20.4701 45.6556 20.4465 45.8869 20.2183 45.7594C19.9903 45.6318 19.5842 45.601 19.1163 45.8634C19.1103 45.8666 19.0954 45.9 19.07 45.9415C19.056 45.9637 19.0393 45.9882 19.0189 46.0118C18.9817 46.055 18.9329 46.095 18.8707 46.1104C18.6302 46.1708 18.2417 46.2246 18.0092 46.0697C18.0015 46.0651 17.9939 46.0606 17.9864 46.0561C17.9742 46.0488 17.9637 46.0437 17.9544 46.0404C17.8783 46.0128 17.8853 46.1186 17.8671 46.1086C17.0536 45.5594 17.0256 44.767 16.941 43.8596C16.9267 43.6883 16.7474 43.1993 16.8527 42.8596C16.9685 42.4885 17.485 42.8549 17.3568 42.0266C17.3067 41.6919 16.6622 41.2551 17.0031 40.6477C16.9645 40.0578 16.9827 39.4893 16.9655 38.919C16.9639 38.864 16.962 38.8087 16.96 38.7528C16.9406 38.2328 16.9043 37.7169 16.8021 37.1838C16.7921 37.1314 16.5964 36.9803 16.587 36.8549C16.5737 36.6706 16.648 36.5589 16.6407 36.4271C16.612 35.8702 16.4872 35.3698 16.442 34.8352C16.4246 34.6324 16.5193 34.6929 16.4986 34.4513C16.4776 34.2088 16.3452 34.06 16.3656 33.7267C16.3814 33.4743 16.5903 33.2022 16.5829 32.8709C16.349 32.8831 16.3296 32.6573 16.2257 32.2631C16.2057 32.1872 16.1334 32.2785 16.1197 32.243C16.0622 32.0989 16.1149 31.9548 16.0547 31.8185C16.0401 31.7853 15.9604 31.792 15.944 31.7654C15.8016 31.5392 15.9405 31.1277 15.965 31.0571C16.0574 30.7866 15.9417 30.6761 15.9689 30.4732C15.9963 30.2708 16.0837 30.5609 16.0896 30.3269C16.1016 29.8421 16.0322 29.2277 15.9953 28.7405C15.9802 28.5466 15.884 28.6877 15.8794 28.6602C15.8615 28.5418 15.8561 28.4221 15.8516 28.3074C15.851 28.2932 15.8504 28.2792 15.8497 28.2655C15.8375 28.0078 15.8088 27.7739 15.6374 27.6523C16.1609 27.2785 15.5298 27.4279 15.5612 26.8307C15.5653 26.7828 15.8422 26.6981 15.903 26.8586C15.9626 27.0181 15.9181 27.2855 16.0173 27.5193C16.0426 27.5712 16.3316 27.8758 16.349 27.925C16.4047 28.0569 16.3872 28.1542 16.3426 28.2229C16.3312 28.2403 16.3179 28.2562 16.3036 28.2706C16.2203 28.3488 16.1023 28.3775 16.0915 28.3884C15.8768 28.6166 16.1743 28.9947 16.2016 29.0971C16.3267 29.5699 16.3104 29.9828 16.4085 30.3786C16.4724 30.6373 16.729 30.6379 16.7415 30.8444C16.7839 31.5313 16.4561 31.8081 16.8299 32.4216C16.9098 32.5533 17.1714 32.3861 17.0066 32.9058C16.9962 32.9384 16.8369 33.3286 16.9851 33.5281C17.0037 33.5532 17.084 33.5437 17.0945 33.5784C17.1633 33.8102 17.1161 33.9752 17.1739 34.2299C17.2318 34.4847 17.31 34.7901 17.3134 35.0885C17.3155 35.2683 17.1894 35.5113 17.1616 35.6009C17.0808 35.852 17.279 36.0927 17.1661 36.2548C17.0527 36.4177 16.8296 36.144 16.785 36.5444C16.9945 36.539 17.2113 36.5522 17.4229 36.5558C17.4849 37.2738 17.5 37.9905 17.5369 38.715C17.5397 38.7715 17.5427 38.8275 17.5457 38.8832C17.5511 38.9795 17.5563 39.0766 17.5616 39.1736C17.5677 39.2848 17.6752 39.166 17.6843 39.2859C17.7211 39.7931 17.6418 40.2286 17.6714 40.7384C17.6946 41.1331 17.8089 41.5624 17.8395 41.9632C17.599 42.2081 17.6847 42.8011 17.6887 43.2152C17.69 43.3616 17.6252 43.3537 17.6121 43.4598C17.5685 43.8527 17.766 43.6515 17.8097 43.7507C18.0092 44.156 17.5255 44.2766 17.6783 44.7638C17.6858 44.7988 18.0352 44.9759 18.0642 44.9843C18.2571 45.1152 18.0004 45.061 18.0552 45.1856C18.1249 45.3294 18.183 45.4358 18.2956 45.5079C18.3055 45.5141 18.3158 45.52 18.3267 45.5254C18.33 45.5218 18.3185 45.5103 18.3486 45.4907C18.3716 45.474 18.5216 45.2847 18.7942 45.3356C18.8267 45.3425 18.8343 45.4194 18.8563 45.4281C18.8579 45.4288 18.8596 45.4291 18.8614 45.4289C18.8836 45.4268 18.9044 45.4243 18.9249 45.4211C19.3345 45.3587 19.2898 45.1111 19.5155 44.9578C19.7518 44.7972 20.2058 44.8663 20.3015 44.8957C20.5543 44.9706 20.1529 44.9984 20.1453 45.0147C20.0518 45.2094 20.339 45.101 20.5667 45.0525C20.6707 45.299 20.9796 45.1971 20.803 45.001C20.7832 44.9797 20.6154 45.0516 20.5667 45.0525C20.6944 44.7472 21.031 44.6208 21.4768 44.7497C21.6855 44.8102 21.5524 44.9841 22.0812 44.788C22.3223 44.6989 22.1773 44.5505 22.3818 44.443C22.8474 44.1983 23.5368 44.1838 24.0408 44.0169C24.2238 43.9564 24.0167 43.9113 24.1406 43.8668C24.4699 43.7483 24.7862 43.7374 25.1136 43.6073C25.1432 43.5954 25.0407 43.5172 25.1454 43.4868C25.8046 43.2937 26.4069 43.1709 27.0683 43.0005C27.1231 42.9864 27.1782 42.972 27.2338 42.9572C27.3187 42.9345 27.4053 42.9117 27.4923 42.889C27.9172 42.775 28.6514 42.5597 29.0726 42.4817C29.8015 42.3469 30.7138 42.2927 31.1758 42.0303C31.4607 41.8622 31.333 41.8017 31.3839 41.6851C31.4238 41.5716 31.484 41.5415 31.5426 41.5334C31.6025 41.5287 31.6821 41.4867 31.702 41.4701C31.7073 41.4711 31.7011 41.5963 31.7696 41.5449C31.8892 41.5208 31.7025 41.4679 31.702 41.4701C31.7055 41.4677 31.7094 41.4609 31.7131 41.4493C31.7139 41.4469 31.7146 41.4443 31.7153 41.4415C31.7535 41.3493 31.6803 40.972 31.62 40.8801C31.5883 40.8252 31.508 40.8924 31.4931 40.8636C31.1226 40.1709 30.5496 39.3584 30.1023 38.4813C30.0952 38.4651 30.2043 38.4326 30.1865 38.3953C29.9421 37.8727 29.6466 37.616 29.3521 37.2251C29.0582 36.8333 28.9173 36.4742 28.9706 36.1339C28.7957 35.8136 28.6707 35.3027 28.6085 35.0034C28.5482 34.7106 28.3318 34.7449 28.3182 34.7218C28.0324 34.2254 27.9318 33.832 27.8252 33.3687C27.8207 33.3486 27.8162 33.3284 27.8116 33.3081C27.7706 33.1262 27.7243 32.9313 27.6593 32.7126C27.5523 32.3454 27.2753 31.638 27.1096 31.2567C26.9794 30.9553 26.9563 30.7518 26.8182 30.4799C26.7996 30.4432 26.7261 30.5165 26.7182 30.5062C26.4917 30.2321 26.7651 30.2987 26.7783 30.2181C26.8256 29.9257 26.8411 29.7484 26.6126 29.3696C26.5595 29.2817 26.1454 29.1365 26.0587 28.9735C25.9462 28.7612 26.0886 28.7996 25.9672 28.5781C25.9569 28.5591 25.8922 28.5916 25.8363 28.4466C25.6621 27.9968 25.4857 27.5131 25.3014 27.0307C25.2993 27.0253 25.2972 27.0199 25.2952 27.0145C25.2343 26.8483 25.1408 26.6611 25.0321 26.4764C24.9855 26.3973 24.9492 26.5554 24.8814 26.4445C24.5555 25.9163 24.1201 25.2915 23.7763 24.677C23.6919 24.5253 23.8113 24.5744 23.8086 24.5308C23.7897 24.2655 23.457 24.0896 23.4246 24.0406C23.0989 23.5722 22.8435 23.0897 22.6775 22.505C22.5177 21.9508 22.4407 21.0848 22.96 20.3694C23.002 20.3095 23.0438 20.2474 23.0853 20.1831C23.1341 20.1075 23.1827 20.0289 23.2314 19.9469C23.2651 19.891 23.401 19.3464 23.6753 19.2339C23.6938 19.226 23.9662 19.1223 24.001 18.8795C24.0034 18.8643 23.8428 18.9394 24.0086 18.7258C24.174 18.513 24.4045 18.1217 24.7338 17.8978C24.8388 17.8253 25.1472 17.7328 25.3186 17.3885C25.3223 17.367 25.5546 16.7555 25.8493 16.7959C25.8973 16.804 26.0008 16.9935 26.2802 16.6507C26.3345 16.5855 26.183 16.6311 26.3445 16.4809C26.594 16.2501 27.0007 16.0701 27.3127 15.7934C27.339 15.7698 27.3989 15.6926 27.488 15.6186C27.5405 15.5736 27.6034 15.5303 27.6737 15.5034C27.7197 15.4858 27.769 15.4752 27.821 15.4756C27.861 15.476 27.8327 15.5727 27.9443 15.5274C28.4748 15.3126 28.9827 15.0211 29.499 14.822C29.6818 14.751 29.6464 14.9048 29.8426 14.8416C30.0388 14.7791 30.4123 14.6146 30.5613 14.4616C30.7088 14.3095 30.4228 14.2554 30.6678 14.0872C31.0893 13.7927 31.4707 13.4981 31.7177 13.2041C31.7299 13.1909 31.7453 13.1717 31.7598 13.1513C31.8032 13.0927 31.839 13.017 31.8474 13.0033C31.8633 12.9746 31.8162 13.1122 31.9786 13.3185C31.9483 13.2772 31.9185 13.2376 31.8896 13.2006C31.6949 12.9497 31.4522 12.715 31.17 12.4929C31.0228 12.3793 31.1048 12.5248 30.8782 12.3637C30.0396 11.7513 28.2755 10.976 27.4394 10.4637C26.768 10.0461 27.7075 10.343 27.1796 10.0658C26.916 9.92887 26.5427 10.0312 26.4713 10.0108C26.0968 9.90721 25.8039 9.77787 25.5058 9.64858C25.4715 9.63377 25.4375 9.619 25.4034 9.60431C25.2115 9.52151 25.0164 9.44008 24.7968 9.36825C24.6728 9.3277 24.7566 9.46332 24.6515 9.42788C24.2904 9.30689 23.9346 9.12117 23.5931 8.99263C23.4402 8.93529 23.439 9.01523 23.3017 8.95347C22.9723 8.80585 22.6891 8.65415 22.3939 8.45073C22.3671 8.43217 22.6033 8.43158 22.3597 8.32296C21.9651 8.14713 21.5059 7.86407 21.0253 7.71897C20.8825 7.67597 20.8003 7.83191 20.5671 7.586C20.5182 7.53419 20.6878 7.38255 20.2756 7.38456C20.2069 7.38511 19.5453 7.33077 19.3439 7.05259C19.3429 7.0512 19.3419 7.04981 19.341 7.04841C19.336 7.04112 19.3305 7.0321 19.3245 7.02173C19.2712 6.92861 19.1775 6.72533 19.0277 6.67727C19.0048 6.67065 19.0452 6.79767 18.9135 6.74169C18.4502 6.54324 17.9779 6.29959 17.4931 6.09085C17.3635 6.03519 17.5066 6.21762 17.3146 6.13168C16.7865 5.89589 16.1469 5.53774 15.6574 5.23198C15.4772 5.1193 15.6457 5.11804 15.6365 5.10273C15.4907 4.85533 15.2673 4.95451 15.1892 4.92328C15.025 4.85666 14.8828 4.77932 14.7505 4.69755C14.7422 4.69245 14.734 4.68734 14.7258 4.6822C14.4101 4.48428 14.1934 4.27329 13.9351 4.08046C13.8241 3.99611 13.8399 4.13154 13.8133 4.12013C13.544 3.99795 13.8135 4.00702 13.691 3.87668C13.3564 3.5149 12.9795 3.17062 12.6395 2.89337C12.5151 2.79241 12.5828 2.99128 12.4728 2.90083C11.8278 2.36143 11.1774 1.97035 10.819 1.96099C10.745 1.95587 10.7793 1.87473 10.7609 1.85839C10.6124 1.74577 10.4751 1.98557 10.4502 2.02061C10.4081 2.0652 10.3719 2.09831 10.3328 2.12829C10.2939 2.15921 10.2524 2.18266 10.2068 2.21462C10.1657 2.24359 10.1205 2.27875 10.071 2.33568C9.80991 2.63532 9.4863 3.11071 9.26741 3.66167C9.23983 3.73033 9.21419 3.80175 9.19081 3.8754C8.92596 4.74377 8.72526 5.80247 8.50576 6.65851C8.02525 8.59587 7.52756 10.0635 6.95818 11.8665C6.92153 11.9813 7.04258 11.8929 7.01187 11.9926C6.99596 12.0437 6.97981 12.095 6.96345 12.1465C6.9447 12.2056 6.92587 12.2645 6.90696 12.3232C6.53404 13.481 6.11723 14.6083 5.73215 15.7646C5.69763 15.8678 5.82815 15.7479 5.7754 15.9141C5.66551 16.2617 5.50922 16.6851 5.35958 17.0219C5.28741 17.1844 5.30111 16.9366 5.22989 17.1004C5.06373 17.4821 4.90681 17.8962 4.77091 18.3061C4.71398 18.4786 4.8878 18.2508 4.80769 18.4724C4.26185 19.9882 3.71946 21.4704 3.06196 22.9504C3.01705 23.0518 2.8225 23.0805 2.77245 23.3168C2.81156 23.3498 2.86498 23.3681 2.9106 23.3927C2.67425 24.0752 2.43817 24.7436 2.22175 25.4167C2.11564 25.7486 2.01526 26.0784 1.93707 26.3962C1.89773 26.557 1.86578 26.7105 1.84857 26.8395C1.81697 26.9457 1.8811 27.1405 1.79337 26.9018C1.77362 26.8653 1.74964 26.8347 1.72865 26.8133C1.58318 26.7017 1.7082 26.783 1.84119 26.7622C1.97973 26.7561 2.15036 26.7276 2.30294 26.6981C2.33826 26.6915 2.37368 26.6853 2.40924 26.6796C2.76067 26.6226 3.11227 26.5697 3.46354 26.516C3.55968 26.5014 3.37502 26.4291 3.56088 26.4009C4.6357 26.2363 5.66984 26.065 6.76501 25.8685C6.87347 25.8482 6.85981 26.0031 7.16654 25.8938C7.2035 25.8806 7.43055 25.8045 7.60556 25.7319C7.6194 25.7262 7.63293 25.7205 7.64604 25.715C7.71108 25.6873 7.76576 25.662 7.7956 25.6437C7.81068 25.6339 7.70447 25.5988 7.85553 25.5478C8.73338 25.2524 9.6634 24.9486 10.5683 24.6938C10.715 24.6527 10.5829 24.7702 10.6876 24.7416C11.4279 24.5402 12.2082 24.2331 12.972 24.1256C13.4908 24.0619 13.3255 24.221 13.6138 24.2995C13.6517 24.3072 13.9832 24.2908 14.0013 24.368C14.03 24.544 13.8936 24.7339 13.9467 24.9216C13.9634 24.9493 14.104 24.9478 14.0735 24.9808C14.0735 24.9808 14.0735 24.9808 14.0735 24.9808C14.0699 24.9906 14.0668 25.0043 14.0435 25.0226C14.0548 25.0247 13.8582 25.0518 13.7967 25.0948C13.7587 25.1214 13.8374 25.1849 13.7588 25.2223C13.685 25.2599 13.5785 25.2147 13.4368 25.277C13.2923 25.3422 13.3775 25.4037 13.0757 25.4852ZM28.3702 33.6683C28.3862 33.3792 28.0108 33.4536 28.1882 33.7087C28.1972 33.7208 28.3697 33.6831 28.3702 33.6683ZM17.2166 38.3037C17.1353 38.5202 17.1912 38.6843 17.2736 38.7323C17.307 38.7513 17.3447 38.7507 17.3792 38.7254C17.4033 38.7077 17.4258 38.678 17.4441 38.6344C17.5535 38.377 17.2581 38.1928 17.2166 38.3037ZM16.7559 34.6906C16.6698 35.1108 17.202 35.1203 17.0501 34.695C17.0415 34.6702 16.7608 34.6659 16.7559 34.6906ZM12.4177 24.5943C12.4208 24.5965 12.6355 24.5422 12.6387 24.5384C12.732 24.4318 12.305 24.5394 12.4177 24.5943ZM16.2471 31.1227C16.1882 31.257 16.3086 31.6142 16.3813 31.4472C16.4399 31.3128 16.3202 30.9556 16.2471 31.1227ZM23.5808 20.8429C23.5822 20.8427 23.5876 20.8366 23.5952 20.8271C23.6222 20.794 23.6761 20.715 23.6579 20.7051C23.6127 20.681 23.5564 20.7407 23.5418 20.7886C23.5302 20.8229 23.5393 20.8496 23.5808 20.8429ZM15.7101 25.0451C15.6913 25.9419 15.2343 26.5163 15.2646 25.5172C15.2718 25.3377 15.4243 25.9018 15.4639 25.6727C15.5361 25.2557 15.2346 24.98 15.3964 24.5557C15.426 24.479 15.712 24.9939 15.7108 25.0467C15.7105 25.0462 15.7103 25.0456 15.7101 25.0451ZM28.7578 33.3811C28.7608 33.3749 28.7012 33.1677 28.695 33.1638C28.5446 33.0869 28.6654 33.5073 28.7578 33.3811ZM30.575 15.425C30.5906 15.4293 31.0367 15.1917 31.0453 15.174C31.1884 14.9038 30.3003 15.3798 30.575 15.425ZM27.7303 43.8833C27.6698 43.9379 27.6032 43.9839 27.5343 44.0188C27.4819 44.0449 27.4276 44.0648 27.3728 44.0773C27.2646 44.1019 27.1547 44.0976 27.0543 44.0554C27.1514 44.0315 27.2484 44.0063 27.3455 43.9808C27.4008 43.9663 27.456 43.9518 27.5113 43.9373C27.5835 43.9185 27.6567 43.9003 27.7303 43.8833Z" fill="black"/>
</svg>
