<svg width="35" height="56" viewBox="0 0 35 56" fill="none" xmlns="http://www.w3.org/2000/svg">
<path d="M17.3356 20.6064C16.4605 20.3278 15.3672 19.8646 14.5511 19.4763C14.2961 19.3551 14.4492 19.3576 14.2747 19.2712C13.9326 19.1012 13.5959 18.9847 13.2625 18.8062C13.1521 18.7467 13.3311 18.728 13.2148 18.6675C12.5953 18.3453 11.9887 18.0819 11.3634 17.7483C11.3459 17.739 11.3284 17.7295 11.3109 17.7199C11.2875 17.7071 11.2642 17.6941 11.2409 17.6811C10.6213 17.3099 9.86871 17.0916 8.91607 16.4924C8.85091 16.4429 8.78157 16.3846 8.71039 16.304C8.55784 16.1275 8.40666 15.903 8.35127 15.5916C8.2955 15.2804 8.38015 14.9766 8.4959 14.7592C8.72752 14.3379 9.01221 14.1023 9.28515 13.8711C9.83366 13.4282 10.395 13.0836 10.9561 12.7408C12.0836 12.062 13.2145 11.4338 14.3647 10.7786C15.3812 10.2019 16.6499 9.53679 17.6735 8.88533C17.7948 8.80815 17.6874 8.7958 17.708 8.77703C18.0247 8.48879 17.9721 8.67607 18.217 8.54844C19.1884 8.04146 20.2275 7.40415 21.105 6.81656C21.4742 6.56874 21.0273 6.69708 21.4442 6.51903C21.4731 6.50646 21.4157 6.62674 21.5228 6.56724C21.6648 6.48829 21.8748 6.35348 22.0641 6.23059C22.1158 6.19703 22.1654 6.16492 22.2112 6.13556C22.2859 6.08764 22.3487 6.04808 22.3982 6.01849C22.7614 5.80306 22.8178 5.76741 23.1611 5.55997C23.6274 5.27976 24.2089 4.98645 24.7179 4.69722C24.8264 4.63533 24.6452 4.64723 24.8172 4.54175C24.9873 4.436 25.465 4.20102 25.6338 4.14053C25.803 4.07852 25.7592 4.16599 25.7935 4.16461C26.0743 4.15632 26.5676 3.76025 26.6394 3.72584C27.2847 3.40693 27.912 3.17698 28.4986 2.94724C28.5168 2.94005 28.535 2.93285 28.5533 2.92564C29.1271 2.69862 29.6914 2.466 30.2655 2.18911C31.0236 1.82358 31.8056 1.3928 32.5335 0.992455C32.5388 0.98952 32.5442 0.98657 32.5495 0.983604C32.7009 0.900316 32.8533 0.813235 33.0468 0.74806C33.2346 0.694012 33.5435 0.595017 33.8981 0.855131C33.9164 0.869827 33.9338 0.885216 33.9506 0.901463C34.8777 2.00424 34.4475 3.02675 34.3595 3.96768C34.3401 4.08609 34.4704 3.96546 34.4464 4.11162C34.1777 5.64755 33.8203 7.08396 33.5502 8.54874C33.5225 8.69575 33.4504 8.49095 33.4169 8.63769C33.2681 9.28641 33.0633 10.2199 33.1478 10.9026C33.1524 10.9411 33.1578 10.9789 33.1641 11.0158C33.1996 11.2254 33.2622 11.4104 33.3617 11.5413C33.3283 12.1665 33.2992 12.9248 33.2047 13.4868C33.1439 13.8478 33.0363 13.4943 33.0797 13.9415C33.0895 14.0424 33.1875 13.9127 33.1949 14.0627C33.2263 14.6966 33.1937 15.3886 33.2457 16.0164C33.2565 16.1439 33.3441 16.109 33.36 16.1451C33.4889 16.4484 33.28 16.9551 33.2652 17.0654C33.1551 17.9061 33.2055 18.5202 33.2103 19.3027C33.2114 19.4853 33.3283 19.2686 33.3337 19.4441C33.36 20.3511 33.3611 21.2921 33.316 22.18C33.3056 22.3777 33.2016 22.1959 33.1914 22.2915C33.1473 22.7121 33.3418 22.8014 33.3025 23.2013C33.2944 23.2845 33.2062 23.238 33.1966 23.2532C33.0461 23.4962 33.2619 23.7055 33.2669 23.7651C33.3334 24.5468 33.1087 25.057 33.1205 25.8147C33.1217 25.9053 33.241 25.6988 33.2369 25.9636C33.2264 26.2837 33.2365 26.5629 33.156 26.9876C33.1427 27.0294 33.1364 27.1195 33.037 27.2629C32.891 27.4707 32.6191 27.674 32.3291 27.7271C32.0405 27.7848 31.7891 27.7349 31.5798 27.6714C31.1607 27.5362 30.8438 27.3316 30.5394 27.124C29.9408 26.7041 29.427 26.2397 28.9352 25.7869C28.7442 25.61 28.9494 25.6543 28.9442 25.635C28.8572 25.3229 28.5651 25.4038 28.4935 25.3583C28.1028 25.1009 27.813 24.7561 27.4865 24.571C27.4597 24.5557 27.4328 24.5417 27.4058 24.529C27.292 24.4758 27.1719 24.4436 27.0441 24.4442C26.169 23.7836 25.0222 23.1722 24.1265 23.1665C24.1182 23.1673 24.1101 23.1683 24.1021 23.1693C22.9744 23.3463 22.7905 25.4421 22.485 26.9197C22.4786 26.9549 22.3746 26.8803 22.3625 26.9506C22.2169 27.8002 22.4073 27.6496 22.5577 28.2427C22.5957 28.3951 22.2906 28.8049 22.2659 28.8408C22.1788 28.9741 22.0353 28.8047 22.0158 28.8504C21.8559 29.2202 22.4141 29.2365 22.3007 29.7881C22.2961 29.8048 22.214 29.7118 22.1942 29.7552C22.1332 29.8856 22.1356 30.0387 22.0594 30.169C22.0288 30.221 21.9941 30.2633 21.9579 30.3C21.8558 30.4012 21.7448 30.4681 21.6696 30.5967C21.6196 30.6827 21.5873 30.7893 21.5819 30.9532C21.5802 31.0165 21.9028 31.0341 21.728 31.4732C21.6585 31.6484 21.3761 32.429 21.2751 32.6395C21.1745 32.8504 21.1365 32.665 21.1266 32.6791C20.7815 33.2161 20.8132 32.9751 20.5165 33.1958C20.2194 33.4161 20.6913 33.5052 20.6953 33.6432C20.6992 33.7813 20.4323 34.1687 20.3557 34.2598C20.2793 34.3508 20.2684 34.1966 20.2121 34.2819C19.8404 34.8487 20.3307 34.6385 20.3251 34.8694C20.3152 35.4139 19.8416 35.6621 19.6481 36.0926C19.5962 36.2092 19.709 36.1395 19.6783 36.2488C19.5573 36.6804 19.3606 36.8977 19.2998 37.4152C19.2895 37.4994 19.3739 37.9594 19.1394 38.1625C19.1072 38.1902 19.0551 38.0726 18.9834 38.2147C18.9798 38.2219 18.9762 38.2297 18.9724 38.2382C18.9478 38.2945 18.9192 38.3624 18.8893 38.434C18.7778 38.7042 18.6329 39.0514 18.5594 39.2866C18.4904 39.5065 18.7357 39.3249 18.5761 39.5729C18.5046 39.682 18.5192 39.4279 18.3914 39.6351C18.2657 39.8415 18.0046 40.3928 17.9015 40.6007C17.8 40.8087 17.9613 40.7487 17.96 40.769C17.9495 40.8911 17.7938 41.3135 17.7749 41.348C17.2741 42.318 16.7106 43.1907 16.2023 44.0805C16.1809 44.1181 16.1594 44.1558 16.1379 44.1937C15.7413 44.8935 15.3591 45.5997 15.0195 46.3471C14.9571 46.4841 15.1121 46.4487 15.1037 46.4702C14.9218 46.954 14.8078 46.4459 14.5512 46.7217C14.798 46.7841 14.6636 46.955 14.5304 47.2934C14.4664 47.4567 14.5943 47.4123 14.5962 47.4309C14.6149 47.7265 14.3681 47.8084 14.3135 47.8343C14.1127 47.9292 14.1838 48.1688 14.0494 48.2352C13.9159 48.3021 13.9037 47.9996 13.7592 48.3173C13.7979 48.4424 14.1141 48.3041 14.0372 48.5586C13.8734 49.1013 13.5094 49.8535 13.1898 50.5459C13.1886 50.5484 13.1875 50.5509 13.1864 50.5534C12.9374 51.093 12.6831 51.5833 12.5322 51.8987C12.1822 52.6256 12.0774 52.8654 11.8395 53.2722C11.4017 54.0023 11.6879 53.7992 11.4979 54.3008C11.3005 54.8016 11.0851 54.381 10.9742 54.4062C10.8642 54.4291 10.8994 54.5426 10.8134 54.5985C10.7273 54.6549 10.7772 54.4546 10.6544 54.6317C10.6021 54.707 10.5421 54.8534 10.4904 55.0064C10.4814 55.033 10.4728 55.0596 10.4647 55.0858C10.4246 55.2572 10.3216 55.3806 10.2705 55.4229C10.1803 55.5197 10.1889 55.6087 10.1365 55.6658C10.0964 55.7259 9.83321 55.6994 9.61947 55.4177C9.5956 55.3867 9.75425 55.4073 9.66109 55.2928C9.04766 54.4009 8.66474 53.4663 8.20397 52.5715C8.14302 52.4482 8.2978 52.5001 8.26302 52.4276C7.89298 51.6752 7.88905 52.023 7.48021 51.7522C7.75488 51.6938 7.76536 51.3854 7.37935 50.8686C7.14242 50.562 7.09169 50.686 6.87246 50.5523C6.82901 50.5262 6.76257 50.4093 6.69961 50.3338C6.66667 50.294 6.63435 50.2648 6.60925 50.2657C6.40071 50.275 6.40688 50.5134 6.145 50.2477C6.10706 50.2101 6.06151 50.161 6.00945 50.1016C5.9911 50.0804 6.12143 50.0675 6.05302 49.9991C5.60112 49.5605 5.42266 49.659 4.86529 49.2709C4.42616 48.9678 3.70263 48.3266 3.20923 47.9517C3.39945 47.7083 2.88811 47.4249 2.56718 47.4571C2.24795 47.2111 1.89292 46.9553 1.6091 46.6821C1.51169 46.5881 1.63968 46.5731 1.63296 46.5546C1.536 46.2685 1.26465 46.316 1.19269 46.2634C0.984783 46.1077 0.802617 45.9401 0.637219 45.7657C0.544023 45.6674 0.459821 45.5629 0.384296 45.4527C0.216853 45.2062 0.0923803 44.9317 0.0314142 44.6231C0.00309014 44.4734 0.0164436 44.3249 0.0369111 44.1913C0.0567775 44.0678 0.0823892 43.9569 0.11547 43.8336C0.122724 43.8061 -0.0463531 43.6505 0.213106 43.4957C0.230555 43.4876 0.164016 43.8032 0.387303 43.4209C0.609972 43.0453 1.18171 42.4733 1.48482 41.9629C1.55836 41.8372 1.66246 41.4526 1.95388 41.3231C1.99308 41.3059 2.01003 41.3773 2.07215 41.3573C2.26954 41.2943 2.17648 41.0814 2.45138 41.044C2.72324 41.0101 3.11537 40.7765 3.4256 40.2646C3.43635 40.2479 3.40848 40.0342 3.53806 39.9006C3.7443 39.688 4.05743 39.4086 4.27038 39.1839C4.37199 39.0766 4.23239 39.0741 4.24874 39.0543C4.89311 38.2968 5.45105 37.8516 6.21044 37.1063C6.35043 36.9692 6.63255 36.4669 6.96878 36.2642C7.33735 36.04 7.41793 36.6952 7.97459 35.9029C8.02605 35.8292 8.05773 35.7312 8.08386 35.6207C8.10786 35.5166 8.12801 35.4001 8.15716 35.2804C8.23206 34.9759 8.35537 34.6622 8.73847 34.491C9.54379 33.4167 10.4553 32.5586 11.2063 31.4386C11.2399 31.3885 11.2224 31.128 11.3126 31.0191C11.4471 30.8574 11.584 30.8184 11.6824 30.704C12.0953 30.2269 12.3998 29.7305 12.7868 29.2618C12.9338 29.0834 12.9506 29.1996 13.1258 28.9872C13.3 28.7759 13.3279 28.56 13.6018 28.3036C13.8111 28.1077 14.1652 28.0331 14.4205 27.7573C14.2517 27.6048 14.4168 27.4057 14.6551 27.014C14.7006 26.939 14.5805 26.962 14.5989 26.9239C14.6737 26.7661 14.8237 26.6846 14.8892 26.5331C14.9053 26.4963 14.8461 26.446 14.8558 26.4132C14.9401 26.1273 15.356 25.8939 15.4296 25.8522C15.7043 25.6992 15.7156 25.5268 15.894 25.3827C16.0714 25.2403 15.9026 25.5325 16.0896 25.3506C16.4831 24.9665 16.925 24.4258 17.2948 24.0161C17.4436 23.8508 17.2653 23.8948 17.2847 23.8696C17.5678 23.5126 17.9664 23.2533 18.0038 22.9278C18.3683 23.031 18.3506 22.9164 18.404 22.7381C18.4083 22.7222 18.411 22.7079 18.4141 22.6932C18.4379 22.5795 18.4896 22.4455 18.6428 22.2852C18.6772 22.249 18.9272 22.3285 18.8412 22.521C18.7943 22.6236 18.6991 22.7303 18.598 22.8423C18.5892 22.8522 18.5803 22.862 18.5713 22.872C18.5666 22.8777 18.5515 22.8934 18.546 22.8983C18.4686 22.9599 18.373 23.05 18.3162 23.139C18.2792 23.1917 18.195 23.6149 18.1712 23.6622C17.991 24.0151 17.6705 23.8107 17.6432 23.8088C17.3199 23.8298 17.2088 24.3417 17.1438 24.444C16.8464 24.9093 16.5132 25.224 16.2635 25.6145C16.1039 25.8652 16.2711 26.0512 16.1199 26.2231C15.6076 26.8087 15.1686 26.8044 14.9404 27.5641C14.8918 27.7264 15.1977 27.776 14.681 28.0813C14.6482 28.1008 14.2347 28.307 14.1792 28.5734C14.1722 28.6069 14.2343 28.6552 14.2143 28.6908C14.0796 28.9281 13.9194 29.0286 13.7595 29.2775C13.6008 29.5248 13.4153 29.8295 13.1858 30.0749C13.0473 30.2233 12.7715 30.3347 12.6831 30.3881C12.4322 30.5373 12.3815 30.8721 12.1784 30.9262C11.9738 30.9812 12.0332 30.6014 11.6902 30.9007C11.8392 31.041 11.9789 31.2014 12.1224 31.3504C11.5029 32.1129 10.8462 32.8233 10.2245 33.5936C10.1476 33.6891 10.3118 33.662 10.2316 33.766C9.8914 34.2058 9.52265 34.5264 9.17056 34.9877C9.00098 35.2106 8.84251 35.4747 8.6735 35.7335C8.6161 35.8214 8.55851 35.9076 8.49985 35.9903C8.45873 36.0481 8.41648 36.105 8.37285 36.1603C8.00699 36.2207 7.59954 36.7851 7.24048 37.1382C7.11474 37.2622 7.07721 37.211 6.97716 37.2881C6.59985 37.5801 6.90089 37.561 6.83607 37.6774C6.55657 38.1763 6.18444 37.8883 5.74375 38.3676C5.72038 38.3927 5.61003 38.8711 5.5815 38.9237C5.40084 39.2608 5.47646 38.9075 5.30385 39.0618C4.98995 39.3421 4.74331 39.5134 4.45904 39.921C4.37516 40.0413 4.25483 40.3981 3.97594 40.5185C3.93944 40.5343 3.89233 40.4624 3.86875 40.4805C3.44518 40.8152 3.62947 41.0041 3.49074 41.2878C3.35287 41.5706 2.90828 41.7961 2.80725 41.8319C2.5436 41.9255 2.88805 41.6523 2.88866 41.6322C2.87613 41.4082 2.66952 41.6794 2.48771 41.868C2.26717 41.7256 2.04112 42.0119 2.30273 42.0623C2.33239 42.0662 2.44355 41.9004 2.48771 41.868C2.53053 42.2062 2.29899 42.5256 1.84351 42.713C1.6307 42.8041 1.64064 42.5666 1.30711 43.0919C1.16143 43.3314 1.37003 43.3475 1.27778 43.5716C1.16088 43.8666 0.946959 44.1755 0.862904 44.3922C0.838089 44.4513 0.835421 44.4946 0.832957 44.4836C0.844415 44.5656 0.879489 44.6555 0.932187 44.7345C1.01667 44.8558 1.03476 44.6857 1.09565 44.7612C1.12624 44.7977 1.15484 44.8354 1.18249 44.8747C1.23157 44.9445 1.28152 45.0167 1.33891 45.087C1.44427 45.212 1.55901 45.3365 1.70281 45.4445C1.72984 45.4645 1.74476 45.3281 1.82944 45.4051C2.47649 45.9846 3.06562 46.5235 3.83993 47.102C4.21393 47.3811 4.93098 47.8333 5.32318 48.1431C5.81355 48.5291 6.35141 49.0434 6.82093 49.5206C6.94345 49.6451 7.06338 49.7694 7.1748 49.8856C7.22686 49.9398 7.27745 49.9925 7.32669 50.0429C7.68039 50.4152 7.67991 50.2695 7.87259 50.3998C8.249 50.6572 8.45797 51.4035 8.47366 51.5025C8.47519 51.5052 8.22181 51.1635 8.3027 51.3809C8.28317 51.549 8.47042 51.4985 8.47366 51.5025C8.49258 51.5686 8.90761 52.2948 9.00368 52.4278C9.05779 52.4995 9.11773 52.4083 9.14433 52.4465C9.46124 52.904 9.75139 53.3716 10.0275 53.8101C10.1646 54.0267 10.3023 54.2416 10.4238 54.4032C10.4811 54.4809 10.5443 54.5492 10.5503 54.555C10.5502 54.5582 10.5385 54.5397 10.4447 54.505C10.3643 54.4703 10.1443 54.4517 9.99477 54.5212C9.95915 54.5386 10.0494 54.6225 9.9859 54.6573C9.85541 54.7463 9.88405 54.7609 9.89133 54.7358C9.90476 54.713 9.91779 54.6901 9.93045 54.6671C10.1363 54.2921 10.21 53.9514 10.3406 53.5653C10.5048 53.0779 10.7054 52.7324 11.0192 52.5488C11.1648 52.191 11.4759 51.7255 11.6547 51.4527C11.8336 51.1808 11.6364 51.0464 11.6433 51.0188C11.7334 50.6395 11.8403 50.3447 11.9623 50.062C11.9634 50.0596 11.9644 50.0571 11.9655 50.0547C12.1285 49.6766 12.3238 49.3236 12.5429 48.8421C12.7293 48.4302 13.0618 47.6022 13.2429 47.1502C13.3849 46.7925 13.5348 46.6083 13.6537 46.2735C13.6699 46.2283 13.5513 46.2241 13.5538 46.2091C13.6065 45.7957 13.7643 46.0842 13.8422 46.0318C14.1257 45.8429 14.288 45.7213 14.4377 45.2343C14.4725 45.1222 14.2772 44.6456 14.3523 44.4455C14.4505 44.1863 14.5273 44.3427 14.6279 44.0702C14.6366 44.0471 14.5577 44.0125 14.642 43.8557C14.702 43.7439 14.7637 43.631 14.827 43.5167C14.8482 43.4784 14.8695 43.4402 14.8908 43.402C15.2294 42.7939 15.6007 42.1902 15.9181 41.5982C15.9729 41.4966 15.7824 41.5612 15.8596 41.4135C16.2217 40.7215 16.6233 39.9868 16.992 39.3589C17.0828 39.2047 17.1203 39.3452 17.1622 39.322C17.419 39.1752 17.3289 38.7682 17.3447 38.7179C17.4288 38.4575 17.5123 38.2177 17.5906 37.9907C17.6129 37.9259 17.6354 37.8604 17.6568 37.7978C17.9625 36.8922 18.3463 36.0998 18.6588 35.084C18.6807 35.0077 18.6683 34.3522 18.9702 34.1788C18.9908 34.1666 19.2939 33.9976 19.2415 33.7255C19.2382 33.7088 19.0715 33.8216 19.1897 33.5581C19.3078 33.2941 19.4116 32.8379 19.6702 32.5155C19.7517 32.4144 20.06 32.2146 20.0339 31.8085C20.0312 31.7823 19.8768 31.1147 20.1951 31.0152C20.2475 30.9984 20.4979 31.1289 20.5157 30.6642C20.5186 30.5755 20.4076 30.6989 20.4473 30.4758C20.4636 30.3835 20.4907 30.2893 20.5235 30.1881C20.5601 30.075 20.6015 29.9599 20.6402 29.8362C20.673 29.7242 20.6961 29.5746 20.6757 29.4208C20.6687 29.3553 20.5331 29.0679 20.7074 28.8629C20.7349 28.8304 20.8173 28.9116 20.8447 28.7934C20.9759 28.2186 20.9679 27.5609 21.0947 26.9189C21.1397 26.6909 21.278 26.8237 21.3426 26.5875C21.4067 26.3509 21.5016 25.8662 21.4714 25.598C21.4417 25.3267 21.1584 25.5801 21.2028 25.1775C21.2791 24.5671 21.4003 23.9396 21.7247 23.2483C22.0046 22.5979 22.8057 21.6532 23.892 21.5676C23.9131 21.5653 23.9342 21.5632 23.9552 21.5613C24.9027 21.5383 25.3259 21.7423 25.8967 21.9144C26.1608 22.0087 25.9776 21.8451 26.3649 21.9874C26.9868 22.2224 27.7674 22.5917 28.4551 23.0925C28.483 23.1127 28.5109 23.1332 28.5389 23.154C29.3679 23.7736 30.0342 24.4525 30.4145 24.9317C30.9704 25.6317 30.0684 24.9981 30.534 25.4859C30.7629 25.7203 31.199 25.697 31.2568 25.7309C31.5581 25.9091 31.7823 26.0683 31.9447 26.163C32.0241 26.2109 32.0875 26.2368 32.0859 26.2437C32.0916 26.2487 31.9767 26.2576 31.8906 26.3139C31.8318 26.3528 31.8129 26.2217 31.7622 26.263C31.7487 26.2747 31.7393 26.285 31.7339 26.2917C31.5481 26.5711 31.5888 26.5975 31.5764 26.6089C31.5779 26.622 31.6117 26.4204 31.6274 26.2759C31.6455 26.1183 31.659 25.9603 31.6615 25.7942C31.6633 25.6251 31.5786 25.6544 31.5899 25.4864C31.6147 25.1043 31.6545 24.749 31.7357 24.3637C31.7431 24.3277 31.8449 24.571 31.8509 24.2709C31.8601 23.7972 31.9367 23.204 31.8561 22.6511C31.8318 22.4896 31.6431 22.4809 31.7722 22.1293C31.7992 22.0551 32.026 22.1505 31.8285 21.7384C31.7956 21.67 31.5294 20.9831 31.697 20.6431C31.7411 20.5516 31.924 20.3241 31.8939 20.1267C31.8891 20.0999 31.7891 20.2084 31.7784 20.0444C31.7425 19.4686 31.7501 18.8626 31.7168 18.2703C31.7078 18.1119 31.605 18.3488 31.5949 18.1124C31.567 17.4634 31.5932 16.6508 31.6276 16.0149C31.6405 15.7803 31.7249 15.9425 31.7342 15.9254C31.8856 15.6507 31.6834 15.4886 31.6722 15.3975C31.6048 14.83 31.7039 14.398 31.6858 13.8755C31.6811 13.7304 31.5836 13.8323 31.5754 13.8033C31.4962 13.5035 31.6653 13.7278 31.6873 13.5394C31.7493 13.0112 31.7538 12.4205 31.7573 11.8842C31.7585 11.6863 31.6414 11.9057 31.6439 11.7284C31.6471 11.4787 31.6533 11.2183 31.6626 10.9646C31.664 10.9263 31.6654 10.8881 31.667 10.85C31.6989 10.0473 31.7965 9.24772 31.9462 8.50083C31.9859 8.30512 32.0507 8.44063 32.0755 8.40222C32.247 8.14187 32.1352 7.70789 32.1354 7.60964C32.1327 7.17058 32.2366 7.01971 32.2974 6.64329C32.4438 5.72891 32.6837 4.73007 32.8709 3.79907C33.0845 2.8886 33.057 1.95456 32.9429 1.95331C32.9425 1.95276 32.942 1.9522 32.9416 1.95164C32.9569 1.96602 32.9728 1.97973 32.9895 1.99279C33.1485 2.11732 33.3122 2.12641 33.3648 2.11559C33.4241 2.10457 33.421 2.0851 33.4018 2.07723C33.3593 2.05978 33.255 2.0742 33.1632 2.11894C33.1577 2.1217 33.1521 2.12449 33.1466 2.12732C31.7297 2.85057 30.4708 3.43908 29.0233 4.04385C29.0046 4.05164 28.9858 4.05943 28.967 4.06722C28.7756 4.1464 28.5842 4.22233 28.3922 4.2985C28.2662 4.3483 28.4273 4.38329 28.3185 4.42739C26.9312 4.96943 25.6309 5.50575 24.3578 6.25014C24.255 6.30981 24.4449 6.29552 24.2807 6.39422C23.9422 6.59835 23.508 6.85091 23.1536 7.0424C22.9793 7.13695 23.1685 6.93807 22.9931 7.03514C22.9428 7.06299 22.8918 7.0918 22.8402 7.12153C22.7917 7.14954 22.7426 7.17834 22.6931 7.20789C22.3726 7.39961 22.0552 7.60091 21.7559 7.80164C21.5815 7.91848 21.8923 7.81801 21.6626 7.96423C20.119 8.94816 18.5877 9.89388 16.9532 10.7352C16.8383 10.7946 16.6572 10.7113 16.4425 10.8736C16.4482 10.9229 16.4762 10.9684 16.4932 11.0147C14.2692 12.3943 11.7148 13.5622 9.90157 15.0516C9.83823 15.1145 10.0025 15.0702 9.88994 15.1857C9.76749 15.3087 9.71092 15.4387 9.72697 15.405C9.74652 15.3505 9.68126 15.2666 9.75869 15.3677C9.74214 15.3498 9.74195 15.3524 9.75234 15.3601C10.0359 15.5611 10.8684 15.6897 11.5832 16.0011C11.71 16.0605 11.5838 16.1767 11.9296 16.3282C11.9432 16.3344 11.9577 16.3406 11.9731 16.3468C11.9849 16.3516 12.0136 16.3638 12.0532 16.3811C12.2173 16.4532 12.5691 16.6013 12.6873 16.6223C12.7074 16.6253 12.6537 16.5041 12.8158 16.5794C13.7554 17.0169 14.7468 17.475 15.6902 17.9192C15.8425 17.991 15.6423 18.0078 15.7503 18.0596C16.5186 18.4261 17.4084 18.6943 18.1406 19.0353C18.6327 19.2618 18.3933 19.3472 18.6191 19.5834C18.6506 19.6175 18.9707 19.716 18.9601 19.8054C18.9438 20.0373 18.7173 20.2331 18.7178 20.4854C18.7112 20.5272 19.0184 20.5811 19.0083 20.6225C19.0083 20.6225 19.0083 20.6226 19.0083 20.6226C19.0051 20.6354 18.9767 20.6493 18.8985 20.6598C18.8719 20.6643 18.5162 20.6089 18.4205 20.6228C18.3562 20.634 18.4306 20.7533 18.304 20.754C18.1714 20.7525 18.072 20.6397 17.868 20.6184C17.6671 20.5979 17.7131 20.7258 17.3356 20.6064ZM12.4397 50.2097C12.6589 49.9668 12.2927 49.7667 12.2601 50.1155C12.2591 50.1325 12.4288 50.2223 12.4397 50.2097ZM10.6337 32.6463C10.26 32.8528 10.2686 33.2133 10.5421 33.0736C10.817 32.9318 10.747 32.5836 10.6337 32.6463ZM13.1145 29.362C12.7272 29.6458 13.0848 30.0232 13.3122 29.5705C13.3256 29.5442 13.1371 29.3453 13.1145 29.362ZM17.3348 19.1871C17.3356 19.1922 17.5658 19.2805 17.5714 19.2778C17.7278 19.2258 17.2739 19.0518 17.3348 19.1871ZM15.5675 26.1029C15.4199 26.1728 15.2228 26.5429 15.4027 26.4593C15.5468 26.3924 15.7491 26.0179 15.5675 26.1029ZM19.452 36.0354C19.4595 36.0329 19.5245 35.87 19.4905 35.8611C19.3799 35.8339 19.3263 36.0747 19.452 36.0354ZM18.6416 20.8376C18.8381 20.8053 19.0398 20.7691 19.2259 20.8934C19.2293 20.8961 19.2326 20.8989 19.2358 20.9018C19.2496 20.9103 19.2642 20.9381 19.267 20.9541C19.2399 21.319 19.0414 21.4789 18.9713 21.4813C18.8808 21.4862 18.9365 21.3047 18.945 20.9927L19.0491 21.167C19.0502 21.1675 19.0512 21.168 19.0521 21.1684C19.0524 21.1685 19.0527 21.1687 19.053 21.1688C19.0625 21.1699 19.0628 21.1556 19.0703 21.1395C19.0705 21.1384 19.0708 21.1372 19.0709 21.1359L18.9827 20.9882C19.0362 21.0555 19.0677 21.2782 19.1095 21.1225C19.1213 21.0705 19.124 21.0195 19.1183 20.9719L19.1496 21.0242C19.1481 21.0232 19.1466 21.0222 19.1451 21.0213C18.8564 20.9398 18.5679 21.1953 18.147 21.1752C18.0589 21.1813 18.577 20.8518 18.6433 20.8367C18.6428 20.837 18.6422 20.8373 18.6416 20.8376ZM12.9662 50.2331C12.9731 50.2301 13.0711 50.0063 13.0683 49.9994C12.997 49.8265 12.8 50.2772 12.9662 50.2331ZM22.4467 26.2647C22.4578 26.252 22.5405 25.7003 22.5352 25.6803C22.37 25.3579 22.1982 26.4878 22.4467 26.2647ZM3.20611 47.9394C2.91781 47.8843 2.647 47.7096 2.56807 47.4579C2.77728 47.6222 2.99346 47.779 3.20611 47.9394Z" fill="black"/>
</svg>
