<svg width="55" height="78" viewBox="0 0 55 78" fill="none" xmlns="http://www.w3.org/2000/svg">
<path d="M17.0612 27.6707C16.8647 27.7369 16.7025 27.8784 16.6104 28.0641C16.5183 28.2498 16.5037 28.4645 16.5698 28.661C16.636 28.8575 16.7775 29.0196 16.9632 29.1118C17.1489 29.2039 17.3636 29.2185 17.5601 29.1524C19.0654 28.9073 21.1456 28.773 22.9584 28.6534C24.8817 28.5326 26.83 28.4389 28.7636 28.3593C28.7787 28.3587 28.7939 28.358 28.8091 28.3574C31.7605 28.2685 34.9098 28.3894 37.5308 29.0624C37.551 29.0686 37.5709 29.0748 37.5903 29.0811C38.0585 29.2234 38.4039 29.4525 38.4785 29.6062C38.572 29.7379 38.593 30.0687 38.5068 30.6923C38.5067 30.6935 38.5065 30.6947 38.5064 30.6959C38.286 32.6911 38.2439 34.6041 38.1121 36.5147C38.1115 36.5238 38.1109 36.5328 38.1103 36.5419C37.8543 40.3798 37.8508 44.2304 37.502 47.9308C37.4996 47.9541 37.4972 47.9773 37.4948 48.0004C37.0019 51.6336 37.6294 55.8444 37.6007 58.7758C37.5995 58.7843 37.5983 58.7926 37.5971 58.8009C37.5111 59.3804 37.4634 59.9316 37.2252 60.3553C37.2196 60.3653 37.2139 60.3752 37.2082 60.3851C37.2844 60.2478 37.4152 60.1724 37.4351 60.1669C37.4616 60.157 37.4152 60.1743 37.3443 60.1817C37.1953 60.1999 36.9607 60.1966 36.716 60.1778C36.2199 60.1397 35.6699 60.0554 35.1136 59.97C33.9977 59.7957 32.8377 59.6108 31.6532 59.5083C31.6194 59.5053 31.5858 59.5024 31.5522 59.4996C28.5224 59.217 25.4301 59.3171 22.5674 59.1922C22.5445 59.1909 22.5216 59.1895 22.4987 59.1882C19.1368 58.9271 15.3172 59.3185 12.3787 59.4698C12.3876 59.4717 12.4061 59.4749 12.4393 59.4852C12.5646 59.4904 12.8549 59.79 12.8486 59.8713C12.8749 59.9608 12.8555 59.9285 12.8531 59.8864C12.8425 59.7917 12.8446 59.628 12.8517 59.467C12.8664 59.1403 12.8964 58.7841 12.9273 58.4321C12.9907 57.7252 13.0642 57.0105 13.1582 56.2946C13.163 56.2582 13.1679 56.2215 13.1729 56.1845C13.8233 51.3123 14.4863 46.4538 15.0402 41.5612L15.0424 41.5379C15.0438 41.5209 15.0452 41.5039 15.0466 41.4869C15.2407 39.1684 15.4377 36.8521 15.7156 34.5684C15.8716 33.3192 16.0516 32.0763 16.3416 30.9034L16.3392 30.9132C16.3397 30.9114 16.3401 30.9097 16.3406 30.9079C16.406 30.6159 16.5546 30.3573 16.6023 29.7875C16.6469 29.1648 16.3171 28.5865 16.1078 28.2926C15.9441 28.0437 15.6942 27.8813 15.3989 27.8528C15.1045 27.8237 14.7889 27.9307 14.5357 28.1388C14.2824 28.3469 14.1163 28.6358 14.0878 28.9303C14.0586 29.2254 14.1694 29.5021 14.3819 29.711C14.4586 29.7788 14.5157 29.8325 14.5425 29.843C14.5689 29.8573 14.5774 29.8052 14.5998 29.8204C14.6484 29.8509 14.6105 30.1701 14.5384 30.458C14.538 30.4598 14.5375 30.4616 14.5371 30.4635L14.5347 30.4733C14.2374 31.7833 14.0777 33.0812 13.9398 34.365C13.6969 36.7076 13.5375 39.0294 13.3676 41.3572C13.3663 41.3742 13.3651 41.3912 13.3639 41.4083L13.366 41.385C12.8687 46.2455 12.2788 51.1193 11.6303 55.9761C11.6253 56.013 11.6203 56.0496 11.6153 56.0858C11.5165 56.7984 11.3905 57.5001 11.2648 58.2119C11.2026 58.5692 11.1389 58.927 11.0896 59.3118C11.0661 59.5087 11.042 59.703 11.0455 59.9667C11.0517 60.1019 11.0495 60.2517 11.1373 60.5097C11.1832 60.6367 11.2671 60.8068 11.424 60.9611C11.5787 61.1157 11.7772 61.21 11.9188 61.2511C12.001 61.2758 12.0682 61.2884 12.1292 61.2975C15.9578 61.3336 18.9317 61.1718 22.3542 61.4701C22.3764 61.4717 22.3987 61.4732 22.421 61.4748C25.5258 61.6461 28.4258 61.5677 31.352 61.8409C31.3843 61.8437 31.4166 61.8464 31.449 61.8493C32.5349 61.9429 33.6267 62.111 34.7605 62.2836C35.3312 62.3682 35.9043 62.4573 36.5458 62.5058C36.871 62.5271 37.2017 62.5448 37.6233 62.497C37.9972 62.436 38.7187 62.3648 39.227 61.5509C39.2374 61.5329 39.2477 61.5148 39.2579 61.4967C39.6856 60.7348 39.9893 59.9525 40.113 59.1954C40.1159 59.1778 40.1186 59.1603 40.1211 59.1427C40.1733 54.8457 39.4111 51.8295 39.8228 48.2227C39.825 48.198 39.8271 48.1733 39.8292 48.1485C40.1323 44.2411 40.0882 40.4476 40.2874 36.6657C40.2878 36.6565 40.2883 36.6473 40.2887 36.6381C40.3933 34.7007 40.4076 32.7569 40.5819 30.9168C40.582 30.9157 40.5821 30.9146 40.5822 30.9135C40.6288 30.3713 40.7942 29.4172 40.2278 28.5126C39.6523 27.6378 38.834 27.3408 38.1691 27.14C38.1413 27.1322 38.1133 27.1244 38.0851 27.1168C34.7993 26.4065 31.8205 26.7171 28.7451 26.7954C28.7299 26.796 28.7146 26.7966 28.6994 26.7972C26.7577 26.8772 24.7999 26.9713 22.8601 27.0931C20.938 27.2362 19.2396 27.2747 17.0612 27.6707Z" fill="black"/>
<path d="M25.2792 9.06187C25.3912 9.06187 25.4987 9.01736 25.5779 8.93813C25.6571 8.8589 25.7016 8.75143 25.7016 8.63938C25.7016 8.52733 25.6571 8.41986 25.5779 8.34063C25.4987 8.2614 25.3912 8.21688 25.2792 8.21688C23.9573 8.55385 23.2688 9.07432 22.3326 9.58951C22.3286 9.59184 22.3247 9.59417 22.3208 9.59651C20.9532 10.3949 20.2091 11.8693 19.8427 13.2742C19.1906 15.8775 19.3485 18.527 19.6852 21.0953C19.6917 21.1401 19.6989 21.1847 19.7068 21.229C20.123 23.4154 21.8831 24.783 23.3129 25.7258C23.3517 25.7508 23.3907 25.7753 23.43 25.7995C28.1133 28.4177 33.4752 28.5211 38.4093 26.4904C38.454 26.4671 38.4984 26.4435 38.5424 26.4194C42.4933 24.1337 43.5424 19.6765 44.1096 15.9159C44.1181 15.8543 44.1255 15.793 44.132 15.7318C44.3177 13.9428 43.6135 12.3727 43.0624 11.0251C43.0389 10.9678 43.0143 10.9111 42.9885 10.855C41.8624 8.69409 39.8723 8.06088 38.2652 7.24176C38.2254 7.22351 38.1857 7.20537 38.1461 7.18734C35.029 5.83123 31.8792 4.64087 28.1957 4.6239C28.1662 4.62565 28.1366 4.62758 28.1071 4.62969C25.9436 4.80467 24.1846 5.88415 22.565 6.8878C22.5481 6.89847 22.5312 6.90921 22.5143 6.92002C20.3697 8.30559 19.406 10.7297 19.0109 12.956C19.0095 12.9636 19.0082 12.9713 19.0069 12.979C18.1244 17.6344 20.4694 22.2057 23.3697 25.4346C23.3727 25.4381 23.3757 25.4415 23.3787 25.4449C27.1131 29.0994 31.7905 27.0682 35.4254 26.418C35.4514 26.412 35.4774 26.4059 35.5034 26.3998C39.3716 25.5412 42.4989 22.7784 44.9212 20.1385C44.9531 20.1069 44.9846 20.075 45.0157 20.0429C46.5028 18.5148 46.9321 16.3881 46.9901 14.5312C46.9914 14.4937 46.9923 14.4564 46.9928 14.4191C47.0151 12.1284 45.7879 10.1998 44.4356 8.7351C44.4146 8.71247 44.3933 8.69005 44.3718 8.66786C41.776 6.42393 38.9533 6.20043 36.3143 5.39L36.2343 5.37129C36.2138 5.36779 36.1932 5.36432 36.1727 5.36087C34.9218 5.15067 33.6341 5.09466 32.363 5.18784C31.2653 5.26687 30.1838 5.45601 29.1304 5.71039L29.0733 5.72486C29.0664 5.72737 29.0594 5.72989 29.0525 5.73242C27.6763 6.24478 26.5538 7.0288 25.391 7.72358C25.3095 7.77355 25.2505 7.85551 25.226 7.94964C25.2016 8.04388 25.2136 8.14258 25.2605 8.22582C25.3073 8.30906 25.3855 8.37053 25.4787 8.39851C25.5719 8.42639 25.6726 8.41848 25.7575 8.37474C26.9702 7.76195 28.1519 7.05611 29.3694 6.73081C29.3756 6.72917 29.3818 6.72754 29.388 6.72592L29.331 6.74039C30.3465 6.59073 31.3689 6.55453 32.3793 6.61039C33.5513 6.67407 34.7058 6.85951 35.8573 7.08877C35.8762 7.09253 35.8952 7.09632 35.9141 7.10014L35.8342 7.08143C38.4169 7.89989 41.3844 8.52306 42.9955 10.0014C43.0079 10.0143 43.0201 10.0271 43.032 10.0399C44.2251 11.3176 45.1847 12.844 45.1793 14.4037C45.1793 14.4295 45.1791 14.4553 45.1786 14.4811C45.152 16.1432 44.7817 17.7625 43.7519 18.8329C43.7301 18.8559 43.708 18.8788 43.6855 18.9016C41.2089 21.6472 38.5369 24.0235 35.1271 24.8002C35.1044 24.8056 35.0816 24.8108 35.0587 24.8161C31.4299 25.6081 26.9971 26.4812 24.9104 24.0975C24.9084 24.0952 24.9064 24.093 24.9044 24.0907C22.1816 21.039 20.0871 17.2308 20.7287 13.2578C20.7297 13.2512 20.7307 13.2446 20.7317 13.238C21.0249 11.2477 21.7798 9.23881 23.3579 8.23392C23.3704 8.22592 23.3829 8.21798 23.3955 8.21011C24.9417 7.24275 26.606 6.46267 28.2245 6.361C28.2468 6.3596 28.269 6.35834 28.2913 6.35723C31.2547 6.38145 34.4925 7.52848 37.4027 8.82251C37.4405 8.83967 37.4783 8.85693 37.5161 8.87427C39.1034 9.61803 40.8581 10.3902 41.4005 11.5866C41.4152 11.6185 41.4291 11.6508 41.4423 11.6836C42.0033 13.0428 42.4186 14.3426 42.2706 15.5281C42.2659 15.5694 42.2604 15.6107 42.2543 15.6521C41.7223 19.228 40.5412 23.1114 37.6073 24.6889C37.5743 24.7064 37.5411 24.7237 37.5077 24.7406C33.5928 26.3608 28.2536 26.1401 24.5632 23.9615C24.5315 23.942 24.5 23.9224 24.4685 23.9028C23.0285 23.0108 21.4891 22.2925 21.1451 20.933C21.1382 20.9052 21.1317 20.8771 21.1256 20.8487C20.6415 18.4178 20.3015 15.8831 20.7774 13.4986C21.0446 12.2074 21.6574 10.9593 22.7515 10.3235C22.7553 10.3212 22.7591 10.3189 22.763 10.3167C23.5811 9.83085 24.6476 9.26147 25.2792 9.06187Z" fill="black"/>
<path d="M16.4258 2.4236C16.2644 2.4236 16.1096 2.48772 15.9954 2.60186C15.8813 2.716 15.8172 2.87081 15.8172 3.03223C15.8172 3.19364 15.8813 3.34845 15.9954 3.46259C16.1096 3.57673 16.2644 3.64085 16.4258 3.64085C16.4918 3.64143 16.4484 3.64092 16.4498 3.63904C16.4471 3.6379 16.469 3.64573 16.5 3.66327C16.71 3.78373 17.0128 4.05461 17.2776 4.30319C17.2791 4.30457 17.2805 4.30596 17.282 4.30736C18.6483 5.62675 20.0316 7.02616 21.4768 8.33464C21.5734 8.42277 21.6691 8.50941 21.7664 8.59726C21.8363 8.66021 21.927 8.6981 22.0221 8.6992C22.1172 8.70033 22.2084 8.66508 22.2763 8.60052C22.3443 8.53595 22.3842 8.44669 22.3879 8.35168C22.3917 8.25664 22.3586 8.16413 22.2993 8.09112C22.2166 7.98949 22.1351 7.88951 22.0521 7.78846C20.8063 6.28022 19.552 4.80813 18.1167 3.42132C18.1151 3.41982 18.1135 3.41832 18.1119 3.41683C17.809 3.14078 17.549 2.87379 17.0928 2.60012C17.01 2.55441 16.9143 2.50661 16.7868 2.46936C16.6635 2.43016 16.4892 2.4214 16.4258 2.4236Z" fill="black"/>
<path d="M23.5181 1.08168C23.4703 0.922517 23.3613 0.78884 23.215 0.710058C23.0687 0.631276 22.8971 0.613842 22.7379 0.661591C22.5788 0.70934 22.4451 0.818361 22.3663 0.964671C22.2875 1.11098 22.2701 1.28259 22.3178 1.44176C22.3492 1.54632 22.3806 1.65102 22.4121 1.75583C22.659 2.5728 22.905 3.39485 23.2118 4.22223C23.2119 4.22234 23.2119 4.22245 23.2119 4.22256C23.4544 4.8732 23.6574 5.56059 24.0017 6.17929C24.0018 6.17946 24.0019 6.17963 24.002 6.1798C24.1824 6.60058 24.8731 7.13708 25.4047 7.08303C25.5392 7.08416 25.6714 7.07003 25.8022 7.04439C25.8446 7.03503 25.8864 7.02285 25.9219 7.00184C25.9573 6.98079 25.9836 6.95218 25.9969 6.91743C26.0101 6.88268 26.0095 6.84383 25.997 6.80453C25.9845 6.76527 25.9613 6.72835 25.9359 6.6932C25.8626 6.58982 25.7925 6.49158 25.7297 6.39907C25.4403 5.99164 25.4811 5.85462 25.269 5.47726C25.269 5.47711 25.2689 5.47695 25.2688 5.4768C24.9618 4.92516 24.6115 4.38874 24.3858 3.784C24.3858 3.7839 24.3857 3.7838 24.3857 3.78369C24.1006 3.01586 23.8571 2.20656 23.6122 1.39499C23.5808 1.29069 23.5495 1.18624 23.5181 1.08168Z" fill="black"/>
<path d="M27.9877 1.32526C27.9263 1.23321 27.8309 1.16931 27.7224 1.14761C27.6139 1.12591 27.5013 1.1482 27.4092 1.20957C27.3172 1.27093 27.2533 1.36635 27.2316 1.47483C27.2099 1.58332 27.2322 1.69597 27.2935 1.78802C27.3328 1.84684 27.3692 1.90159 27.4018 1.9543C27.5792 2.23155 27.6655 2.53136 27.7178 2.88744C27.7178 2.88788 27.7179 2.88831 27.718 2.88875C27.8242 3.70255 27.8092 4.59834 27.8137 5.47626C27.8137 5.54679 27.8137 5.61744 27.8137 5.68817C27.8137 5.7988 27.8577 5.9049 27.9359 5.98312C28.0141 6.06135 28.1202 6.1053 28.2308 6.1053C28.3415 6.1053 28.4476 6.06135 28.5258 5.98312C28.604 5.9049 28.648 5.7988 28.648 5.68817C28.648 5.61744 28.648 5.54669 28.6479 5.47595C28.6418 4.58731 28.6643 3.70953 28.5435 2.76829C28.5434 2.76777 28.5433 2.76725 28.5432 2.76673C28.4863 2.35613 28.3553 1.892 28.1107 1.51436C28.0689 1.44701 28.0269 1.38402 27.9877 1.32526Z" fill="black"/>
<path d="M37.0832 1.6475C37.2638 1.6475 37.437 1.57576 37.5647 1.44806C37.6924 1.32036 37.7641 1.14715 37.7641 0.966553C37.7641 0.785953 37.6924 0.61275 37.5647 0.485047C37.437 0.357344 37.2638 0.285601 37.0832 0.285601C37.0412 0.274699 36.6965 0.314379 36.5395 0.445732C36.3737 0.564943 36.3086 0.665756 36.2513 0.747045C36.2002 0.823612 36.1649 0.88894 36.133 0.951726C36.1321 0.95355 36.1312 0.955376 36.1302 0.957205C35.7937 1.69623 35.6274 2.28842 35.4539 2.94283C35.4536 2.94388 35.4534 2.94494 35.4531 2.946C35.1406 4.20205 34.9721 5.47294 34.908 6.75691C34.9026 6.86744 34.898 6.9783 34.8942 7.08976C34.8907 7.19571 34.9194 7.30298 34.9834 7.38965C35.0474 7.47632 35.1401 7.53507 35.2435 7.55338C35.3469 7.57169 35.4542 7.54836 35.544 7.48892C35.6339 7.42949 35.6977 7.3386 35.7308 7.23793C35.7653 7.13295 35.7993 7.02847 35.8328 6.92424C36.222 5.71422 36.55 4.49948 36.8495 3.29601C36.8498 3.29499 36.85 3.29398 36.8503 3.29297C37.0037 2.69078 37.1407 2.01214 37.3474 1.56818C37.3478 1.56734 37.3482 1.56652 37.3487 1.5657C37.3631 1.53697 37.3769 1.5136 37.3825 1.5054C37.3862 1.49634 37.3903 1.50939 37.3144 1.56563C37.2467 1.6313 37.0166 1.65511 37.0832 1.6475Z" fill="black"/>
<path d="M42.5679 1.85181C42.5679 1.64975 42.4876 1.45597 42.3447 1.31309C42.2018 1.17021 42.0081 1.08995 41.806 1.08995C41.6039 1.08995 41.4102 1.17021 41.2673 1.31309C41.1244 1.45597 41.0441 1.64975 41.0441 1.85181C41.051 1.75255 41.0405 1.85967 41.0219 1.9119C40.8948 2.33684 40.6609 2.8551 40.4333 3.33653L40.452 3.29998C40.4518 3.30032 40.4516 3.30066 40.4514 3.301C40.1836 3.79499 39.95 4.3614 39.7066 4.97008C39.7064 4.97065 39.7062 4.97122 39.706 4.97179C39.4859 5.46464 39.4612 6.08722 39.5083 6.5613C39.5153 6.65656 39.5232 6.75085 39.5309 6.84509C39.5349 6.89168 39.5602 6.93876 39.5956 6.97537C39.6314 7.01202 39.6746 7.0352 39.7209 7.04042C39.7672 7.04563 39.8144 7.03262 39.8575 7.00485C39.9002 6.97704 39.9353 6.93675 39.9496 6.89223C39.9778 6.80412 40.0074 6.7171 40.0383 6.63129C40.2012 6.16395 40.3908 5.83501 40.667 5.50752C40.6674 5.50711 40.6677 5.50669 40.668 5.50628C41.025 5.05349 41.475 4.60661 41.7901 4.02878C41.7903 4.02838 41.7905 4.02798 41.7907 4.02757L41.8093 3.99102C42.0547 3.46478 42.2921 2.96982 42.4877 2.32814C42.5175 2.20419 42.556 2.13391 42.5679 1.85181Z" fill="black"/>
<path d="M47.7163 5.41042C47.8774 5.32987 47.9999 5.18862 48.0569 5.01774C48.1138 4.84687 48.1006 4.66036 48.02 4.49926C47.9395 4.33815 47.7982 4.21565 47.6274 4.15869C47.4565 4.10173 47.27 4.11498 47.1089 4.19553C47.0304 4.23477 46.9503 4.2748 46.8688 4.31637C46.5628 4.47445 46.2341 4.64477 45.9027 4.91551C45.9027 4.91551 45.9027 4.91551 45.9027 4.91551C45.4485 5.30421 45.1577 5.61617 44.8798 5.91451C44.8795 5.91486 44.8792 5.9152 44.8789 5.91555C44.3745 6.47749 43.8476 7.10739 43.3968 7.79255C43.3474 7.86717 43.299 7.94206 43.2504 8.0185C43.1907 8.11327 43.1538 8.22462 43.1584 8.33843C43.1629 8.45218 43.2074 8.55804 43.2849 8.63554C43.3624 8.71304 43.4683 8.75753 43.582 8.76204C43.6958 8.76661 43.8072 8.7298 43.902 8.67008C43.9784 8.62149 44.0533 8.57307 44.128 8.5235C44.8142 8.06457 45.4452 7.5654 46.0194 6.92703C46.0197 6.92663 46.0201 6.92624 46.0204 6.92584C46.3376 6.57308 46.5432 6.14273 46.7682 5.96237L46.7682 5.96237C46.9479 5.81323 47.2057 5.66906 47.4862 5.52624C47.561 5.48807 47.6379 5.44965 47.7163 5.41042Z" fill="black"/>
<path d="M45.3811 10.8059C45.173 10.8753 45.001 11.0244 44.9029 11.2206C44.8048 11.4168 44.7887 11.6439 44.8581 11.8519C44.9274 12.06 45.0766 12.232 45.2727 12.3301C45.4689 12.4282 45.696 12.4443 45.9041 12.3749C45.9816 12.3491 46.0595 12.3232 46.1376 12.297C46.6568 12.1233 47.1905 11.939 47.7216 11.7181C47.7216 11.7181 47.7216 11.7181 47.7216 11.7181C48.3153 11.4703 48.7192 10.8823 49.2595 10.5839C49.2595 10.5839 49.2596 10.5839 49.2596 10.5839C49.5546 10.4209 49.8481 10.2416 50.1265 10.0575C50.1962 10.0115 50.265 9.96569 50.333 9.92036C50.438 9.85039 50.5108 9.74161 50.5356 9.61793C50.5603 9.49425 50.5349 9.3658 50.4649 9.26086C50.3949 9.15591 50.2862 9.08306 50.1625 9.05832C50.0388 9.03359 49.9104 9.05899 49.8054 9.12896C49.7374 9.1743 49.6702 9.21906 49.6035 9.26301C49.3378 9.43863 49.0745 9.59933 48.7983 9.75208C48.7983 9.75208 48.7983 9.75208 48.7983 9.75209C48.285 10.0355 47.6047 9.97522 47.0871 10.1908C47.0871 10.1908 47.0871 10.1908 47.0871 10.1908C46.6156 10.3869 46.1228 10.558 45.6126 10.7286C45.5358 10.7543 45.4586 10.7801 45.3811 10.8059Z" fill="black"/>
<path d="M5.18499 21.0615C5.27054 21.147 5.38657 21.1951 5.50755 21.1951C5.62854 21.1951 5.74457 21.147 5.83011 21.0615C5.91566 20.9759 5.96372 20.8599 5.96372 20.7389C5.96372 20.6179 5.91566 20.5019 5.83011 20.4163C5.70124 20.285 5.53713 19.972 5.45137 19.718C5.45056 19.7156 5.44975 19.7132 5.44896 19.7108C5.44675 19.7041 5.4449 19.6986 5.44343 19.6941C5.4426 19.6916 5.4424 19.691 5.44093 19.6865C5.44039 19.6849 5.43998 19.6836 5.43971 19.6828C5.43958 19.6824 5.43949 19.6822 5.43946 19.6821C5.43945 19.682 5.43945 19.682 5.43948 19.6821C5.43952 19.6822 5.43941 19.6819 5.4399 19.6834C5.44022 19.6844 5.44032 19.6846 5.44205 19.6902C5.44431 19.7011 5.44011 19.6718 5.45619 19.7507C5.4571 19.7715 5.46826 19.7758 5.45782 19.8864C5.43941 19.9262 5.46735 20.126 5.13702 20.261C4.79517 20.3272 4.71882 20.1633 4.67888 20.1422C4.56645 20.0057 4.60455 20.0304 4.58936 20.0102C4.58086 19.9908 4.58064 19.9892 4.57902 19.9851C4.57103 19.9634 4.58221 19.9954 4.58398 20.0012C4.9761 21.1864 5.19644 22.4244 5.57378 23.6163C5.59285 23.6765 5.61279 23.7372 5.63362 23.7986C7.05064 27.79 8.77288 31.564 10.5333 35.3296L10.5282 35.3186C10.5365 35.3367 10.5446 35.3546 10.5528 35.3724C10.9766 36.2628 11.509 36.9925 12.1934 37.9253C12.2015 37.9351 12.2096 37.9449 12.2178 37.9546C12.2476 37.9898 12.2794 38.025 12.3141 38.0603C12.4013 38.1469 12.4994 38.2388 12.6618 38.3225C12.8083 38.4125 13.1426 38.4476 13.3176 38.3126C13.6346 38.061 13.6166 37.8425 13.6704 37.6458C13.6778 37.601 13.6652 37.5494 13.6413 37.505C13.6171 37.4604 13.5836 37.4266 13.5422 37.4084C13.5008 37.3902 13.4533 37.3884 13.404 37.4007C13.3551 37.4131 13.3086 37.4387 13.2806 37.4744C13.185 37.6005 13.0031 37.7364 12.9984 37.6633C13.011 37.6154 13.1423 37.6131 13.1421 37.5994C13.1544 37.582 13.1327 37.5333 13.1134 37.4754C13.1051 37.4518 13.096 37.4266 13.0864 37.4002C13.0838 37.3929 13.0811 37.3855 13.0784 37.3779C12.8411 36.5823 12.7022 35.4585 12.2869 34.58C12.2786 34.5618 12.2702 34.5435 12.2618 34.525L12.2567 34.5141C10.4967 30.7588 8.51112 27.0849 6.97211 23.3102C6.94964 23.2529 6.92728 23.1965 6.90507 23.141C6.44638 21.9893 5.85391 20.8841 5.44896 19.7096C5.44348 19.6939 5.44771 19.7052 5.43271 19.6629C5.43109 19.6588 5.43086 19.6571 5.42236 19.6377C5.40717 19.6176 5.44527 19.6423 5.33284 19.5058C5.2929 19.4847 5.21655 19.3207 4.8747 19.387C4.54437 19.522 4.57231 19.7217 4.5539 19.7616C4.54345 19.8721 4.55462 19.8765 4.55553 19.8972C4.57161 19.9762 4.56741 19.9468 4.56969 19.9578C4.57144 19.9635 4.57158 19.9638 4.57196 19.965C4.5726 19.967 4.57264 19.9671 4.57269 19.9673C4.57281 19.9676 4.57292 19.9679 4.57303 19.9683C4.57323 19.9689 4.57343 19.9695 4.57365 19.9701C4.57407 19.9714 4.57457 19.9728 4.57516 19.9746C4.57676 19.9794 4.57695 19.9799 4.57781 19.9825C4.57934 19.9871 4.5812 19.9926 4.58343 19.9993C4.58462 20.0028 4.58581 20.0064 4.58701 20.01C4.72694 20.3864 4.85454 20.6987 5.18499 21.0615Z" fill="black"/>
<path d="M5.45527 21.2946C5.52438 21.4648 5.65828 21.6006 5.8275 21.672C5.99673 21.7435 6.18742 21.7449 6.35762 21.6757C6.52783 21.6066 6.66361 21.4727 6.73509 21.3035C6.80657 21.1343 6.8079 20.9436 6.73879 20.7734C6.79065 20.9492 6.75376 20.8397 6.76614 20.7881C6.77044 20.7251 6.78176 20.6385 6.79509 20.557C6.82293 20.3865 6.86194 20.2035 6.90451 20.0196C7.26715 18.5172 7.7622 16.9784 8.17788 15.4179C8.18249 15.4007 8.18724 15.3836 8.19212 15.3665C8.34631 14.8438 8.35674 14.2721 8.25229 13.8454C8.24633 13.82 8.24007 13.7951 8.23358 13.7705C8.11245 13.3369 7.84371 12.7163 7.1191 12.4345C7.06976 12.4164 7.01984 12.4013 6.9695 12.3889C6.08722 12.2426 5.61279 12.5507 5.09826 12.8286C5.06378 12.8496 5.02957 12.8713 4.99571 12.8936C3.92148 13.6277 3.44164 14.6878 2.97204 15.5769C2.95207 15.6161 2.93213 15.6552 2.9123 15.694C2.43594 16.6061 2.53024 17.6687 2.75605 18.4672C2.76928 18.517 2.78405 18.5676 2.7985 18.614C2.78478 18.5577 2.76374 18.4636 2.79614 18.3186C2.82719 18.1656 2.94714 18.0142 3.03049 17.9576C3.20484 17.8414 3.23855 17.8684 3.25443 17.8622C3.27581 17.8658 3.21727 17.8763 3.1617 17.881C3.04287 17.8916 2.88818 17.8968 2.72966 17.9059C2.40687 17.93 2.0616 17.9329 1.61964 18.0893C1.61962 18.0893 1.6196 18.0893 1.61958 18.0893C1.3428 18.193 1.17447 18.4197 1.09359 18.5847C1.00866 18.7566 0.973195 18.9053 0.947027 19.0449C0.898822 19.3231 0.895868 19.5675 0.91582 19.821L0.992459 20.0527C0.993363 20.0545 0.994267 20.0562 0.995173 20.0579C1.66075 21.2902 2.55058 22.357 3.79507 23.1107C3.81027 23.1195 3.82548 23.128 3.84068 23.1363L4.02141 23.2101C4.08555 23.2233 4.13834 23.2489 4.33065 23.2393C4.4336 23.2257 4.61315 23.2173 4.83781 23.0078C5.06466 22.7836 5.08396 22.4978 5.07117 22.3739C5.01413 22.0187 4.94988 22.0216 4.91388 21.946C4.87389 21.8888 4.84356 21.8547 4.8131 21.8216C4.7544 21.7591 4.70285 21.7149 4.6513 21.6741C4.55036 21.5955 4.4506 21.5349 4.34937 21.4831C4.14654 21.3798 3.9354 21.3112 3.71143 21.2655C3.60877 21.2469 3.50224 21.2398 3.40237 21.2628C3.30249 21.2859 3.21752 21.3371 3.16052 21.4128C3.10351 21.4884 3.07765 21.5842 3.083 21.6865C3.08834 21.7889 3.12452 21.8894 3.17066 21.9829C3.26449 22.177 3.36406 22.3531 3.46135 22.5091C3.50918 22.5864 3.55794 22.6604 3.59522 22.721C3.61382 22.7511 3.6303 22.7793 3.63446 22.7929C3.6362 22.799 3.63519 22.8028 3.62283 22.7878C3.613 22.7536 3.57625 22.8008 3.52479 22.4941C3.51332 22.3866 3.52955 22.117 3.74497 21.904C3.95815 21.7056 4.12242 21.7011 4.20869 21.689C4.3695 21.6814 4.39241 21.7007 4.42476 21.7057L4.60549 21.7795C4.59506 21.7733 4.58442 21.7671 4.57358 21.7608C3.63953 21.2024 2.67505 20.4118 2.05578 19.4489C2.05493 19.4475 2.05407 19.4462 2.05322 19.4448L2.12986 19.6766C2.10275 19.5208 2.09078 19.349 2.10213 19.2187C2.10005 19.0766 2.19863 19.049 2.02517 19.1537C2.02517 19.1537 2.02518 19.1537 2.02518 19.1536C2.14054 19.1064 2.40159 19.1257 2.66452 19.176C2.80018 19.1999 2.93998 19.2302 3.11579 19.2515C3.20736 19.2606 3.29763 19.2736 3.46382 19.2565C3.55278 19.2387 3.66133 19.2493 3.89519 19.0891C4.00739 19.0109 4.15038 18.8282 4.18948 18.6384C4.22983 18.4582 4.20508 18.3279 4.18098 18.2335C4.16989 18.1871 4.15814 18.1408 4.14666 18.0976C3.95777 17.4161 3.93052 16.8166 4.17342 16.3255C4.19287 16.2859 4.21226 16.2463 4.23154 16.207C4.67061 15.3062 5.09997 14.4354 5.73756 14.0175C5.75787 14.0041 5.77867 13.9908 5.7998 13.978C6.08608 13.7869 6.5558 13.6971 6.61156 13.7491C6.61314 13.7503 6.61392 13.7515 6.61433 13.7525C6.59805 13.7428 6.66646 13.8835 6.71679 14.144C6.72133 14.1642 6.72589 14.1841 6.73049 14.2036C6.80959 14.5355 6.90841 14.7701 6.85269 15.0092C6.84854 15.026 6.84423 15.0428 6.83974 15.0595C6.43273 16.5901 5.94423 18.0984 5.55501 19.7067C5.50833 19.9089 5.46404 20.1133 5.42772 20.3348C5.4104 20.4419 5.39334 20.5629 5.38423 20.6912C5.38521 20.8392 5.3367 20.9354 5.45527 21.2946Z" fill="black"/>
<path d="M40.3078 37.5164C40.4528 37.4439 40.563 37.3168 40.6142 37.1631C40.6655 37.0093 40.6536 36.8415 40.5811 36.6965C40.5086 36.5516 40.3815 36.4413 40.2278 36.3901C40.074 36.3388 39.9062 36.3508 39.7612 36.4233C39.7 36.4539 39.6402 36.4836 39.6053 36.4985C39.5992 36.5049 39.5466 36.5095 39.6721 36.4863C39.7188 36.4933 39.7656 36.4328 40.0371 36.5664C40.1819 36.6397 40.3111 36.8646 40.3185 36.9827C40.3365 37.1114 40.3178 37.1711 40.3097 37.2119C40.2657 37.3575 40.2566 37.3381 40.2511 37.3541C40.2561 37.3464 40.2613 37.3385 40.2665 37.3307C40.3178 37.2532 40.3782 37.1686 40.4368 37.0911C43.005 34.0723 46.7153 31.7868 49.3489 28.3221L49.4219 28.2086C49.4231 28.2063 49.4243 28.2041 49.4255 28.2019C49.6916 27.733 49.2799 26.9598 49.4861 26.661C49.4865 26.6604 49.4869 26.6599 49.4874 26.6593C49.5074 26.634 49.5293 26.6104 49.5533 26.5881C49.6877 26.4608 49.9046 26.382 50.1516 26.301C50.218 26.2788 50.2728 26.2313 50.3041 26.1687C50.3354 26.1062 50.3405 26.0337 50.3184 25.9674C50.2963 25.901 50.2487 25.8462 50.1862 25.8149C50.1236 25.7836 50.0512 25.7785 49.9848 25.8006C49.7416 25.8838 49.4462 25.9707 49.1947 26.2014C49.1515 26.2414 49.1109 26.2852 49.074 26.3317C49.0732 26.3327 49.0724 26.3338 49.0716 26.3348C48.7379 26.8273 48.0653 26.9933 47.852 27.3522C47.851 27.354 47.8501 27.3558 47.8491 27.3576L47.9221 27.2441C45.5114 30.4422 42.2753 33.0226 39.458 36.3575C39.3885 36.4506 39.3142 36.5551 39.2478 36.6554C39.2411 36.6656 39.2344 36.6757 39.2278 36.6859C39.2032 36.7317 39.1759 36.7412 39.1225 36.9214C39.1124 36.9703 39.0924 37.0389 39.1118 37.1763C39.1203 37.3026 39.2544 37.5359 39.4069 37.6136C39.6936 37.7558 39.7592 37.6941 39.8229 37.6991C40.017 37.6654 40.0292 37.642 40.0874 37.6215C40.1802 37.5812 40.2444 37.5478 40.3078 37.5164Z" fill="black"/>
<path d="M49.4928 26.3761C49.5792 26.5289 49.7226 26.6412 49.8917 26.6882C50.0608 26.7352 50.2416 26.7131 50.3944 26.6268C50.5472 26.5404 50.6594 26.397 50.7064 26.2279C50.7534 26.0588 50.7313 25.878 50.645 25.7252C50.4778 25.4303 50.3785 25.0435 50.3329 24.6356C50.1668 22.7818 50.7367 20.7448 51.4458 18.8813C51.4519 18.8658 51.4579 18.8504 51.464 18.8349C51.553 18.6054 51.6666 18.3867 51.7679 18.2689C51.8149 18.21 51.8598 18.1923 51.8214 18.2091C51.7828 18.2318 51.6575 18.2055 51.6571 18.1944C51.6553 18.1932 51.6555 18.1932 51.657 18.1945C53.3442 19.6314 52.0861 22.4851 51.3193 24.9168C51.3166 24.9254 51.3139 24.934 51.3111 24.9427C51.1964 25.3003 51.1529 25.7918 50.93 26.1482C50.93 26.1484 50.9303 26.1478 50.9328 26.1443C50.9353 26.1409 50.9388 26.1358 50.9499 26.1224C50.9545 26.1168 50.9654 26.1039 50.9814 26.0879C50.9886 26.0807 51.0059 26.0637 51.0286 26.0457C51.0505 26.0316 51.08 25.9928 51.22 25.9423C51.2557 25.9317 51.4768 25.8531 51.7271 25.9982C51.9804 26.1722 51.9806 26.2945 52.0137 26.3881C52.0459 26.5772 52.0255 26.5591 52.0244 26.6101C52.0155 26.6692 52.0086 26.6857 52.0045 26.7007C51.9956 26.7288 51.9919 26.7364 51.9889 26.744C51.9792 26.7662 51.9832 26.757 51.9868 26.7524C51.9954 26.7396 52.0113 26.7185 52.0287 26.6991C52.0639 26.6595 52.1069 26.6219 52.1505 26.5927C52.1631 26.5843 52.1769 26.5757 52.1915 26.5672C52.404 26.4388 52.7571 26.3704 52.9691 26.4314C52.981 26.4347 52.9925 26.4384 53.0035 26.4424C53.0887 26.4712 53.1358 26.5679 53.0837 26.6144C53.0366 26.6696 52.8872 26.5998 52.8602 26.5167C52.8566 26.5077 52.8542 26.4996 52.8529 26.4927C52.8464 26.4073 52.8652 26.5127 52.8241 26.6243C52.7874 26.7411 52.7153 26.8831 52.6158 27.0183L52.7538 26.902C52.743 26.9113 52.7323 26.9205 52.7216 26.9297C52.0374 27.5124 51.2781 28.0897 50.4836 28.3606C50.3711 28.3973 50.2594 28.4252 50.1574 28.4406L50.1949 28.4444C50.1919 28.4445 50.1889 28.4447 50.1858 28.4448C49.9133 28.4565 49.6027 28.4722 49.2716 28.4427C49.212 28.4379 49.146 28.46 49.0907 28.4963C49.0352 28.5331 48.9949 28.581 48.9761 28.6375C48.9573 28.6939 48.9607 28.7565 48.983 28.8192C49.0055 28.8814 49.0451 28.9387 49.0956 28.9706C49.3721 29.1455 49.6761 29.3576 50.0401 29.4584C50.0441 29.4595 50.0481 29.4606 50.0521 29.4617L50.0896 29.4656C50.2752 29.4997 50.4548 29.5114 50.6292 29.512C51.8249 29.4903 52.8814 29.0912 53.8436 28.5538C53.8585 28.5453 53.8734 28.5368 53.8883 28.5281L54.0262 28.4119C54.5416 27.9128 55.1071 27.3131 54.9784 26.1133C54.97 26.0659 54.9587 26.0169 54.9446 25.9682C54.826 25.5213 54.4278 25.1365 54.0594 25.0016C53.6862 24.8546 53.3578 24.864 53.0708 24.8766C53.033 24.8785 52.9958 24.8813 52.9588 24.885C52.3432 24.961 51.8771 25.1762 51.4199 25.5327C51.3882 25.5587 51.3563 25.5862 51.325 25.6149C51.2196 25.7116 51.1264 25.8157 51.0417 25.9296C50.999 25.9874 50.9589 26.0463 50.9176 26.1172C50.8965 26.1544 50.8765 26.1887 50.8477 26.2551C50.8397 26.2744 50.8317 26.293 50.8191 26.3327C50.8134 26.353 50.8046 26.376 50.7949 26.441C50.7934 26.4957 50.7728 26.4792 50.8056 26.6722C50.8392 26.7675 50.8397 26.8907 51.0944 27.0657C51.3459 27.2116 51.5692 27.1326 51.6059 27.1217C51.7483 27.0704 51.7812 27.0292 51.805 27.0137C51.8296 26.9939 51.8501 26.9741 51.8591 26.965C51.8786 26.9456 51.8949 26.9266 51.9027 26.9171C51.9214 26.8946 51.9322 26.8797 51.9419 26.8663C51.9526 26.8512 51.9591 26.8417 51.9671 26.8297C52.2631 26.374 52.6606 25.9964 52.846 25.4359C52.8503 25.4228 52.8545 25.4095 52.8586 25.3962C53.4817 23.0633 55.1356 19.7022 52.5031 17.1801C52.4652 17.1484 52.4247 17.1181 52.3804 17.089C52.1418 16.9158 51.703 16.8371 51.3914 16.9598C51.0799 17.0716 50.9005 17.253 50.7617 17.4113C50.4917 17.7364 50.3555 18.0461 50.232 18.3516C50.2256 18.3681 50.2192 18.3845 50.2128 18.401C49.4664 20.4006 48.8277 22.4744 49.018 24.7839C49.0787 25.3049 49.199 25.8502 49.4928 26.3761Z" fill="black"/>
<path d="M21.683 63.0721C21.7964 62.8521 21.8178 62.5959 21.7425 62.3601C21.6671 62.1243 21.5011 61.9281 21.2811 61.8146C21.061 61.7011 20.8049 61.6797 20.5691 61.7551C20.3333 61.8305 20.137 61.9964 20.0236 62.2165C19.9273 62.4207 19.9372 62.469 19.9266 62.499C19.9196 62.5335 19.9137 62.5693 19.9102 62.5922C19.904 62.6328 19.8975 62.6852 19.894 62.7164C19.8856 62.7903 19.8795 62.8562 19.8735 62.9258C19.8625 63.0555 19.8536 63.1846 19.8456 63.3118C19.8299 63.5645 19.8175 63.8148 19.8068 64.0606C19.6879 67.077 19.7012 70.0619 19.772 73.059C19.7722 73.0652 19.7723 73.0713 19.7725 73.0775C19.7743 73.1429 19.7729 73.2039 19.7703 73.2326C19.7695 73.2456 19.7669 73.2515 19.774 73.221C19.7961 73.1887 19.7504 73.1195 20.0058 72.8589C20.1358 72.7268 20.4471 72.6211 20.6323 72.6477C20.8214 72.6652 20.9019 72.7151 20.9533 72.7408C21.047 72.7958 21.0453 72.8063 21.0462 72.8049C21.0387 72.7989 20.9922 72.7477 20.9426 72.6881C20.9397 72.6846 20.9367 72.681 20.9337 72.6774C20.6024 72.2221 19.8533 71.755 19.2716 71.6477C19.265 71.6461 19.2583 71.6445 19.2515 71.6429C16.7274 71.2112 14.7928 72.2532 12.9816 73.2484C12.9773 73.2509 12.9731 73.2535 12.9688 73.256C12.6749 73.4367 12.3344 73.6516 12.0565 74.1159C11.7587 74.5788 11.786 75.3149 12.0012 75.7199C12.0062 75.7307 12.0113 75.7414 12.0164 75.7521C12.7229 77.1501 14.1219 77.5487 15.2179 77.6931C15.2211 77.6935 15.2243 77.6939 15.2275 77.6942L15.4255 77.6965C17.3782 77.4024 18.6406 76.5392 19.9817 75.6451C20.1272 75.5423 20.2706 75.4376 20.4127 75.3303C20.4171 75.3269 20.4215 75.3236 20.426 75.3203L20.5271 75.2327C20.6087 75.151 20.6957 75.0606 20.7968 74.9172C20.8794 74.7648 21.0856 74.5872 21.0502 73.992C21.0209 73.6982 20.8381 73.4151 20.693 73.2856C20.5438 73.1465 20.4308 73.0911 20.3417 73.0471C20.1653 72.966 20.0632 72.9438 19.9849 72.9222C19.7395 72.8593 19.4761 72.8835 19.2486 73.001C19.0212 73.1183 18.8489 73.3175 18.7691 73.5572C18.6892 73.7968 18.7074 74.0595 18.8189 74.2899C18.9305 74.5203 19.1267 74.6977 19.3607 74.7947C19.4318 74.8232 19.4804 74.8494 19.4456 74.8385C19.427 74.8299 19.3818 74.8153 19.2899 74.7313C19.2016 74.656 19.061 74.4449 19.0402 74.23C19.0207 73.7947 19.1407 73.7642 19.135 73.7392C19.145 73.7237 19.1231 73.7507 19.093 73.7797L19.1941 73.6921C19.1902 73.6951 19.1863 73.698 19.1824 73.701C19.0564 73.7961 18.9294 73.8894 18.8008 73.9811C17.6783 74.7768 16.2957 75.5769 15.2499 75.7248L15.4479 75.7271C15.4457 75.7268 15.4435 75.7266 15.4413 75.7264C14.6427 75.6506 13.9368 75.3169 13.7513 74.9041C13.7507 74.903 13.7501 74.902 13.7496 74.9011C13.7376 74.8459 13.7426 75.0094 13.7064 75.0219C13.6814 75.0325 13.7622 74.9215 13.9084 74.8386C13.9122 74.8364 13.916 74.8342 13.9197 74.8319C15.4795 73.9141 17.4043 73.1268 18.831 73.4239C18.8346 73.4247 18.8381 73.4256 18.8416 73.4264C19.1755 73.5198 19.2606 73.5798 19.5009 73.8678C19.5043 73.8719 19.5077 73.8761 19.5111 73.8802C19.5728 73.9537 19.6377 74.0355 19.7551 74.1501C19.8186 74.2084 19.8834 74.277 20.0525 74.3741C20.1422 74.4208 20.2633 74.4874 20.4957 74.5083C20.7241 74.5388 21.08 74.418 21.242 74.2566C21.561 73.9375 21.5437 73.7793 21.5868 73.6646C21.6142 73.5507 21.6229 73.47 21.6298 73.3962C21.6421 73.2514 21.6413 73.1404 21.6389 73.031C21.6388 73.0248 21.6386 73.0187 21.6385 73.0126C21.5682 70.0521 21.5559 67.0804 21.6721 64.1416C21.6824 63.9042 21.6943 63.6632 21.709 63.4284C21.7163 63.3107 21.7246 63.1925 21.7338 63.0843C21.7387 63.0269 21.7437 62.9742 21.7489 62.9284C21.7511 62.9089 21.7546 62.8815 21.756 62.873C21.7568 62.8674 21.7576 62.8641 21.7558 62.8731C21.7489 62.8839 21.7708 62.8819 21.683 63.0721Z" fill="black"/>
<path d="M28.5833 61.4639C28.5833 61.2139 28.484 60.9741 28.3072 60.7973C28.1304 60.6205 27.8906 60.5212 27.6406 60.5212C27.3906 60.5212 27.1509 60.6205 26.9741 60.7973C26.7973 60.9741 26.698 61.2139 26.698 61.4639C26.7068 62.0246 26.7323 62.4908 26.7549 63.0009C26.8977 65.9672 27.0836 68.9203 27.2882 71.8787C27.2884 71.8826 27.2887 71.8866 27.2889 71.8906C27.2955 71.9902 27.2946 72.0866 27.3037 72.2234C27.3099 72.2922 27.3114 72.3641 27.3522 72.5116C27.3895 72.597 27.3649 72.6726 27.6106 72.9522C27.6799 73.022 27.7886 73.1134 27.9516 73.1804C28.1231 73.253 28.3407 73.2737 28.514 73.2416C28.8644 73.1682 28.9731 73.0395 29.0622 72.9675C29.3206 72.7006 29.3054 72.655 29.363 72.5735C29.4043 72.5024 29.433 72.4486 29.4592 72.3974C29.5103 72.2974 29.5479 72.2119 29.577 72.1285C29.5817 72.1149 29.5864 72.1014 29.591 72.088C29.738 71.6565 29.87 71.416 30.0666 71.242C30.0717 71.2374 30.077 71.2329 30.0822 71.2284C30.6708 70.7028 31.8324 70.5585 32.9297 70.7247C32.9379 70.7259 32.9462 70.7271 32.9544 70.7284C33.1727 70.746 33.4722 71.1686 33.7769 71.9985C33.7772 71.9991 33.7774 71.9998 33.7776 72.0004C33.9029 72.3741 33.8439 72.7842 33.6971 73.341C33.6971 73.341 33.6971 73.341 33.6971 73.3409C33.7178 73.296 33.4268 73.7421 33.1506 73.9641L33.6494 73.6724C33.6488 73.6726 33.6482 73.6728 33.6475 73.673C32.6514 74.0231 31.6213 74.2657 30.4131 74.0237L30.427 74.0287C30.4263 74.0285 30.4257 74.0284 30.425 74.0282C30.2542 73.9895 30.0916 73.9619 29.931 73.9354C29.4921 73.8661 29.0285 73.7806 28.5628 73.6201C28.4333 73.5749 28.2755 73.5855 28.1331 73.6352C27.9903 73.6856 27.8746 73.7709 27.8024 73.8869C27.7302 74.003 27.7048 74.1445 27.7226 74.2949C27.741 74.4445 27.8011 74.5908 27.8989 74.687C28.2797 75.0539 28.6917 75.4498 29.1748 75.7596C29.3471 75.8712 29.5214 75.9699 29.6892 76.054C29.6898 76.0544 29.6905 76.0547 29.6911 76.055L29.705 76.06C31.1037 76.7582 33.0038 77.0825 34.6256 76.492C34.6265 76.4916 34.6275 76.4913 34.6285 76.4909L35.1272 76.1992C35.7057 75.639 36.2272 75.159 36.5401 73.9695C36.5402 73.9692 36.5403 73.9689 36.5403 73.9686C36.7229 73.0688 36.6875 71.8888 36.1589 70.8922C36.1581 70.8906 36.1573 70.889 36.1565 70.8874C35.7205 70.0957 34.9529 68.6262 33.2282 68.4274C33.2171 68.4264 33.206 68.4253 33.1948 68.4243C31.7414 68.3138 30.0436 68.3809 28.6311 69.6154C28.6167 69.6287 28.6024 69.642 28.5883 69.6554C28.0306 70.1714 27.7174 70.8832 27.5554 71.4117C27.5514 71.4242 27.5474 71.4365 27.5436 71.4486C27.5203 71.5217 27.5047 71.5928 27.4971 71.6461C27.4937 71.6723 27.4914 71.695 27.4978 71.6986C27.5199 71.6907 27.4679 71.722 27.6691 71.5133C27.7423 71.4562 27.8345 71.3398 28.1644 71.2703C28.3275 71.24 28.535 71.2598 28.6966 71.3284C28.8503 71.3917 28.9504 71.4767 29.0124 71.5392C29.2291 71.7885 29.1898 71.826 29.2131 71.8722C29.2278 71.9427 29.2133 71.9295 29.2068 71.9197C29.1899 71.8908 29.175 71.8264 29.1698 71.7597C29.1695 71.7558 29.1692 71.7518 29.1689 71.7479C28.9651 68.8014 28.7797 65.8529 28.6382 62.9126C28.616 62.423 28.5902 61.8995 28.5833 61.4639Z" fill="black"/>
<path d="M27.4948 12.0352C27.2997 12.2303 27.1901 12.4949 27.1901 12.7708C27.1901 13.0467 27.2997 13.3114 27.4948 13.5065C27.6899 13.7016 27.9545 13.8112 28.2305 13.8112C28.5064 13.8112 28.771 13.7016 28.9661 13.5065C28.9809 13.4917 28.9956 13.477 29.0104 13.4622C29.276 13.1966 29.5416 12.931 29.8072 12.6654C29.8219 12.6507 29.8367 12.6359 29.8514 12.6211C30.0466 12.426 30.1562 12.1614 30.1562 11.8855C30.1562 11.6096 30.0466 11.345 29.8514 11.1498C29.6563 10.9547 29.3917 10.8451 29.1158 10.8451C28.8399 10.8451 28.5753 10.9547 28.3801 11.1498C28.3654 11.1646 28.3506 11.1794 28.3359 11.1941C28.0703 11.4597 27.8047 11.7253 27.5391 11.9909C27.5243 12.0057 27.5096 12.0204 27.4948 12.0352Z" fill="black"/>
<path d="M33.8379 11.3597C33.5419 11.3597 33.258 11.4773 33.0486 11.6866C32.8393 11.8959 32.7217 12.1798 32.7217 12.4758C32.7217 12.7719 32.8393 13.0558 33.0486 13.2651C33.258 13.4744 33.5419 13.592 33.8379 13.592C33.8428 13.592 33.8477 13.592 33.8526 13.592C33.9412 13.592 34.0297 13.592 34.1182 13.592C34.1232 13.592 34.1281 13.592 34.133 13.592C34.429 13.592 34.7129 13.4744 34.9222 13.2651C35.1316 13.0558 35.2492 12.7719 35.2492 12.4758C35.2492 12.1798 35.1316 11.8959 34.9222 11.6866C34.7129 11.4773 34.429 11.3597 34.133 11.3597C34.1281 11.3597 34.1232 11.3597 34.1182 11.3597C34.0297 11.3597 33.9412 11.3597 33.8526 11.3597C33.8477 11.3597 33.8428 11.3597 33.8379 11.3597Z" fill="black"/>
<path d="M26.1648 17.0679C26.2869 17.0679 26.4041 17.0194 26.4904 16.933C26.5768 16.8466 26.6253 16.7295 26.6253 16.6074C26.6253 16.4853 26.5768 16.3681 26.4904 16.2818C26.4041 16.1954 26.2869 16.1469 26.1648 16.1469C26.0626 16.1488 25.8932 16.1384 25.6873 16.2174C25.4788 16.2956 25.3169 16.4687 25.2335 16.6104C25.2321 16.6127 25.2307 16.615 25.2293 16.6173C25.144 16.7611 25.0944 16.8879 25.0499 17.015C24.9153 17.416 24.8567 17.819 24.91 18.2242C24.9102 18.2258 24.9104 18.2274 24.9106 18.229C25.2136 19.9315 26.4649 20.9396 27.5417 21.8259C27.5441 21.8277 27.5464 21.8295 27.5487 21.8313C29.0262 22.9858 31.0263 22.955 32.5555 22.4394L32.8399 22.2876C32.842 22.286 32.8441 22.2843 32.8462 22.2827C34.7849 20.7303 36.3699 18.9705 37.6125 16.6378L37.6206 16.6198C37.6209 16.6188 37.6213 16.6179 37.6217 16.6169C37.6648 16.5016 37.6931 16.3723 37.7063 16.2379C37.7447 15.8631 37.6515 15.5004 37.6061 15.1701C37.5992 15.1237 37.5699 15.0753 37.5328 15.0371C37.4952 14.9988 37.4529 14.9737 37.4069 14.966C37.3609 14.9582 37.3126 14.9681 37.2646 14.992C37.217 15.0159 37.1735 15.052 37.1518 15.0936C37.0017 15.3824 36.782 15.6364 36.6113 15.8538C36.549 15.9349 36.492 16.0171 36.4449 16.1117C36.4446 16.1124 36.4442 16.1132 36.4438 16.114L36.4519 16.0959C35.2857 17.8152 33.4122 19.4009 31.6716 20.7676C31.6697 20.7691 31.6678 20.7705 31.6659 20.772L31.9503 20.6202C30.7185 21.0334 29.4009 21.2565 28.4137 20.6259C28.4121 20.6249 28.4105 20.6239 28.4089 20.6229C27.3453 19.924 26.3005 19.0521 26.0422 18.0273C26.0419 18.0263 26.0417 18.0253 26.0415 18.0243C25.9816 17.7792 25.9271 17.5051 25.9641 17.2667C25.9749 17.1949 25.9972 17.1266 26.0181 17.0928C26.0184 17.0923 26.0187 17.0917 26.019 17.0913C26.0861 17.0379 25.9257 17.0837 26.1648 17.0679Z" fill="black"/>
</svg>
