<svg width="19" height="29" viewBox="0 0 19 29" fill="none" xmlns="http://www.w3.org/2000/svg">
<path d="M17.9084 23.5427C18.0839 23.4509 18.2158 23.2932 18.275 23.1041C18.3342 22.9151 18.3158 22.7103 18.224 22.5348C18.1322 22.3592 17.9744 22.2274 17.7854 22.1682C17.5964 22.109 17.3916 22.1273 17.2161 22.2191C17.4368 22.1178 17.4935 22.1506 17.5296 22.1455C17.5612 22.1475 17.5647 22.1495 17.5636 22.149C17.5596 22.1484 17.5316 22.1413 17.4997 22.1308C17.438 22.1109 17.354 22.0785 17.2752 22.0457C17.1114 21.9776 16.9384 21.8973 16.7648 21.8136C16.417 21.6455 16.0681 21.4648 15.7171 21.2791C14.3959 20.5767 13.0819 19.83 11.7675 19.084C11.7262 19.0605 11.6848 19.0369 11.6433 19.0132C9.65411 17.8699 7.76776 16.5283 5.86499 15.2338C5.77382 15.1717 5.68216 15.1078 5.59215 15.0442C5.57989 15.0329 5.58516 15.0238 5.63428 15.0685C5.67312 15.1082 5.81621 15.2502 5.8298 15.5638C5.83525 15.8829 5.6753 16.0738 5.62708 16.1276C5.56823 16.1906 5.55891 16.1928 5.56809 16.1939C5.62421 16.1777 5.87328 16.1144 6.10372 16.0774C6.20439 16.06 6.30985 16.0446 6.41849 16.0311C7.58966 15.8906 8.84047 15.8425 10.2324 15.6761C10.4214 15.6481 10.6056 15.6249 10.88 15.5415C11.0031 15.5018 11.1186 15.4572 11.26 15.3749C11.4312 15.2661 11.6091 15.1541 11.7877 14.8216C11.9533 14.5129 11.9376 14.106 11.8668 13.895C11.8028 13.6779 11.707 13.5289 11.6386 13.4302C11.3414 13.0324 11.107 12.8793 10.8806 12.7017C10.4193 12.3625 9.99362 12.1112 9.55545 11.8568C8.69075 11.3605 7.8228 10.9107 6.96567 10.4639C5.26232 9.56983 3.50194 8.70351 2.04001 7.70031C2.14112 7.75484 2.41364 8.05779 2.40442 8.4131C2.39465 8.74447 2.28798 8.84471 2.25671 8.89924C2.14405 9.02669 2.24664 8.94795 2.319 8.9596C2.39707 8.95701 2.49533 8.973 2.50504 9.00511C2.54696 9.02138 2.59862 9.03525 2.68197 9.04246C3.51351 9.1379 4.69479 9.30876 5.71135 9.34769C5.80575 9.35207 5.90801 9.35597 6.00278 9.35889C8.80032 9.44063 11.5795 9.37503 14.3601 9.18858C15.1742 9.13339 15.9868 9.06701 16.8007 8.98845C17.1751 8.95232 17.5197 8.76887 17.7584 8.47809C17.9972 8.18733 18.1106 7.81306 18.0738 7.43798C18.0369 7.0629 17.8528 6.71785 17.5621 6.47911C17.2713 6.24034 16.8977 6.12744 16.5233 6.16487C15.7377 6.24341 14.9521 6.31012 14.1645 6.36598C11.4761 6.55495 8.76927 6.626 6.08271 6.55921C5.99193 6.55683 5.89409 6.55458 5.80388 6.55284C4.77205 6.5393 3.91573 6.52449 2.70385 6.521C2.54086 6.52602 2.34703 6.54997 2.14573 6.60283C1.81177 6.6878 1.577 6.81993 1.34263 6.96948C1.10571 7.13659 0.90139 7.24375 0.573306 7.64643C0.477342 7.78865 0.316125 7.99 0.306535 8.43232C0.296275 8.8994 0.641365 9.29935 0.832756 9.41556C2.55565 10.5847 4.29438 11.4124 6.00894 12.31C6.86209 12.7513 7.71909 13.1936 8.52304 13.6531C8.92563 13.8846 9.31848 14.1211 9.64616 14.3626C9.79644 14.4691 9.96115 14.6291 9.94612 14.6196C9.94209 14.6117 9.91383 14.581 9.88057 14.4725C9.84419 14.3742 9.82777 14.0984 9.93868 13.8946C10.1912 13.4962 10.2805 13.5861 10.2545 13.5702C10.2228 13.5816 10.0809 13.6101 9.95047 13.6272C8.81882 13.7663 7.52094 13.6987 6.16805 13.8323C6.02216 13.8479 5.87535 13.8676 5.72555 13.8935C5.36547 13.9627 5.02 14.0324 4.54112 14.2956C4.41874 14.3683 4.28206 14.4533 4.11645 14.6227C3.96288 14.7813 3.71728 15.1106 3.72506 15.5822C3.73941 16.0474 3.96727 16.3282 4.10646 16.4762C4.25774 16.6312 4.38472 16.7122 4.50068 16.7817C4.59806 16.8358 4.69642 16.8912 4.79314 16.9466C6.81262 18.1018 8.87877 19.163 10.9045 20.3119C10.9462 20.3354 10.9877 20.359 11.0292 20.3825C12.3483 21.1311 13.6643 21.8794 15.0181 22.5992C15.3792 22.7902 15.7392 22.977 16.1158 23.159C16.305 23.25 16.4954 23.339 16.7023 23.4252C16.8034 23.4671 16.9153 23.5115 17.0394 23.5518C17.1056 23.5731 17.1758 23.5942 17.2648 23.6126C17.317 23.6228 17.3662 23.6321 17.4489 23.6371C17.5371 23.6345 17.6467 23.6651 17.9084 23.5427Z" fill="black"/>
<path d="M10.8105 14.2021C10.6577 14.2021 10.5112 14.2628 10.4031 14.3709C10.2951 14.479 10.2344 14.6255 10.2344 14.7783C10.2344 14.9311 10.2951 15.0777 10.4031 15.1857C10.5112 15.2938 10.6577 15.3545 10.8105 15.3545C10.8256 15.3545 10.8406 15.3545 10.8556 15.3545C11.1256 15.3545 11.3957 15.3545 11.6658 15.3545C11.6808 15.3545 11.6958 15.3545 11.7108 15.3545C11.8636 15.3545 12.0102 15.2938 12.1182 15.1857C12.2263 15.0777 12.287 14.9311 12.287 14.7783C12.287 14.6255 12.2263 14.479 12.1182 14.3709C12.0102 14.2628 11.8636 14.2021 11.7108 14.2021C11.6958 14.2021 11.6808 14.2021 11.6658 14.2021C11.3957 14.2021 11.1256 14.2021 10.8556 14.2021C10.8406 14.2021 10.8256 14.2021 10.8105 14.2021Z" fill="black"/>
<path d="M12.214 14.0771C12.1473 13.9436 12.0303 13.8422 11.8888 13.795C11.7473 13.7478 11.5928 13.7588 11.4594 13.8255C11.326 13.8922 11.2245 14.0092 11.1773 14.1507C11.1302 14.2923 11.1411 14.4467 11.2079 14.5802C11.2154 14.5952 11.2229 14.6102 11.2304 14.6252C11.3654 14.8952 11.5004 15.1653 11.6355 15.4354C11.643 15.4504 11.6505 15.4654 11.658 15.4804C11.7247 15.6138 11.8417 15.7153 11.9832 15.7625C12.1247 15.8096 12.2792 15.7987 12.4126 15.7319C12.546 15.6652 12.6475 15.5482 12.6947 15.4067C12.7418 15.2652 12.7309 15.1107 12.6641 14.9773C12.6566 14.9623 12.6491 14.9473 12.6416 14.9323C12.5066 14.6622 12.3716 14.3922 12.2365 14.1221C12.229 14.1071 12.2215 14.0921 12.214 14.0771Z" fill="black"/>
<path d="M11.1894 11.8172C11.1202 11.9555 11.1088 12.1157 11.1577 12.2624C11.2066 12.4091 11.3118 12.5304 11.4501 12.5996C11.5885 12.6687 11.7486 12.6801 11.8953 12.6312C12.0421 12.5823 12.1634 12.4771 12.2325 12.3388C12.24 12.3238 12.2475 12.3088 12.255 12.2938C12.3901 12.0237 12.5251 11.7536 12.6601 11.4835C12.6676 11.4685 12.6751 11.4535 12.6826 11.4385C12.7518 11.3002 12.7632 11.1401 12.7143 10.9933C12.6654 10.8466 12.5602 10.7253 12.4219 10.6562C12.2835 10.587 12.1234 10.5756 11.9767 10.6245C11.8299 10.6734 11.7087 10.7786 11.6395 10.9169C11.632 10.9319 11.6245 10.947 11.617 10.962C11.4819 11.232 11.3469 11.5021 11.2119 11.7722C11.2044 11.7872 11.1969 11.8022 11.1894 11.8172Z" fill="black"/>
<path d="M12.047 11.3741C11.9798 11.6431 12.0221 11.9277 12.1647 12.1654C12.3074 12.4032 12.5386 12.5745 12.8075 12.6417C13.0765 12.7089 13.3611 12.6666 13.5988 12.524C13.8365 12.3813 14.0079 12.1501 14.0751 11.8812C14.1356 11.6378 14.1709 11.4118 14.197 11.1926C14.3952 8.86574 14.0723 6.84062 13.7987 4.75025L13.8027 4.78172C13.8027 4.78127 13.8026 4.78081 13.8026 4.78036C13.7014 3.8533 12.9223 2.9517 13.0207 1.99775C13.0207 1.99773 13.0207 1.99772 13.0207 1.99771C13.0571 1.66005 13.1202 1.33335 13.2142 1.00795C13.2637 0.834742 13.3214 0.660646 13.3812 0.481239C13.4095 0.396322 13.4029 0.303639 13.3629 0.223578C13.3229 0.143517 13.2527 0.0826378 13.1678 0.054332C13.0829 0.0260262 12.9902 0.0326128 12.9101 0.072643C12.8301 0.112673 12.7692 0.182868 12.7409 0.267785C12.6811 0.447022 12.6197 0.631816 12.5652 0.822145C12.4616 1.1805 12.3893 1.55427 12.3497 1.92462C12.3497 1.92463 12.3497 1.92465 12.3497 1.92466C12.2423 2.92398 11.6141 3.99259 11.7251 5.01338C11.7251 5.01386 11.7252 5.01435 11.7252 5.01484L11.7292 5.04631C12.0016 7.04455 12.2842 9.14837 12.1209 10.9477C12.1025 11.1038 12.0775 11.2522 12.047 11.3741Z" fill="black"/>
<path d="M14.8613 12.4269C15.0733 12.4269 15.2766 12.3427 15.4264 12.1928C15.5763 12.0429 15.6605 11.8397 15.6605 11.6277C15.6605 11.4158 15.5763 11.2125 15.4264 11.0626C15.2766 10.9128 15.0733 10.8286 14.8613 10.8286C15.1171 10.8371 15.2074 10.932 15.2453 10.9572C15.2836 10.9899 15.2835 10.9953 15.2811 10.9912C15.2729 10.9811 15.2432 10.9334 15.2165 10.8787C14.9151 10.2278 14.734 9.26373 14.6036 8.37875L14.6117 8.48919C14.6117 8.48273 14.6117 8.47627 14.6117 8.4698C14.6096 7.5233 14.9453 6.4641 15.0914 5.29909C15.0922 5.29332 15.0929 5.28755 15.0936 5.28178C15.2581 3.93872 15.154 2.64924 14.9768 1.38043C14.9503 1.19515 14.9217 1.01003 14.8911 0.824707C14.8716 0.707507 14.8181 0.595108 14.7301 0.512235C14.6422 0.429362 14.5286 0.382805 14.4112 0.382805C14.2939 0.382805 14.1802 0.429362 14.0923 0.512235C14.0044 0.595108 13.9508 0.707507 13.9313 0.824707C13.9007 1.01003 13.8721 1.19488 13.8453 1.37934C13.6583 2.64415 13.5727 3.8968 13.4268 5.07204C13.4262 5.07712 13.4256 5.08219 13.4249 5.08727C13.306 6.11242 13.0238 7.20062 13.0133 8.47013C13.0133 8.47875 13.0134 8.48737 13.0134 8.49601L13.0215 8.60645C13.178 9.58597 13.3025 10.5146 13.7852 11.5901C13.841 11.7008 13.9022 11.8155 14.0044 11.9528C14.0591 12.0239 14.1172 12.0969 14.2283 12.1902C14.3372 12.2737 14.5123 12.418 14.8613 12.4269Z" fill="black"/>
<path d="M15.3707 11.5123C15.5789 11.6164 15.8198 11.6335 16.0406 11.5599C16.2613 11.4864 16.4438 11.3281 16.5479 11.1199C16.652 10.9118 16.6691 10.6708 16.5955 10.4501C16.5219 10.2293 16.3636 10.0468 16.1555 9.94275C16.1801 9.95332 16.1959 9.98065 16.1768 9.95122C15.9795 9.62801 16.0678 8.43196 16.2478 7.52702L16.2455 7.5391C16.2461 7.53607 16.2467 7.53303 16.2473 7.52999C16.4726 6.3962 16.5282 5.20675 16.6264 4.00504C16.6265 4.00363 16.6266 4.00222 16.6267 4.00081C16.6904 3.25616 16.682 2.48478 16.6307 1.7633C16.6202 1.59956 16.6088 1.4376 16.5972 1.2749C16.5904 1.18006 16.5439 1.0891 16.472 1.02204C16.3999 0.954977 16.3082 0.917302 16.2132 0.917302C16.1183 0.917302 16.0266 0.954977 15.9545 1.02204C15.8826 1.0891 15.8361 1.18006 15.8292 1.2749C15.8177 1.43759 15.8064 1.59874 15.7945 1.75965C15.7454 2.4774 15.6625 3.14761 15.4949 3.82539C15.4946 3.82667 15.4943 3.82795 15.494 3.82924C15.2229 4.9356 14.7571 6.02763 14.5264 7.18626C14.5258 7.18937 14.5252 7.19249 14.5246 7.19561L14.5222 7.20769C14.3911 8.29594 13.9835 9.25998 14.6616 10.8363C14.8042 11.0867 15.0541 11.3577 15.3707 11.5123Z" fill="black"/>
<path d="M13.2686 16.579C13.2686 16.8822 13.389 17.173 13.6034 17.3874C13.8178 17.6018 14.1086 17.7223 14.4118 17.7223C14.7151 17.7223 15.0058 17.6018 15.2202 17.3874C15.4346 17.173 15.5551 16.8822 15.5551 16.579C15.5546 16.5343 15.5552 16.5042 15.5464 16.4193C15.5406 16.3736 15.5377 16.3415 15.5164 16.2535C15.5046 16.2072 15.4885 16.153 15.4611 16.0866C15.4353 16.0291 15.3955 15.9238 15.2655 15.7702C15.1415 15.6278 14.9233 15.4444 14.577 15.3865C14.4159 15.3602 14.2601 15.3722 14.1353 15.4013C14.0006 15.4347 13.961 15.4553 13.8925 15.4864C13.7707 15.5457 13.6934 15.6055 13.6348 15.6555C13.5947 15.6902 13.5647 15.7203 13.539 15.7478C13.432 15.868 13.4229 15.8942 13.3888 15.9449C13.3007 16.091 13.2841 16.1417 13.2548 16.2054C13.2038 16.324 13.1708 16.415 13.1381 16.5063C12.8905 17.2246 12.7258 17.8696 12.5557 18.5382L12.5255 18.7191C12.5222 18.7573 12.519 18.7956 12.5157 18.8339C12.3609 20.656 12.5044 22.469 12.3669 24.2524L12.3709 24.2307C12.3699 24.2394 12.369 24.248 12.368 24.2567C12.3259 24.6401 12.2797 25.0143 12.2076 25.3932C12.1785 25.5474 12.1452 25.7039 12.1094 25.8643C12.0819 25.9886 12.1074 26.1251 12.173 26.2413C12.2391 26.3577 12.3398 26.4443 12.4604 26.4845C12.5809 26.5247 12.7135 26.5158 12.8362 26.4624C12.9584 26.4087 13.0606 26.3149 13.1132 26.199C13.1809 26.0494 13.2507 25.8955 13.3184 25.7377C13.4861 25.3482 13.6331 24.9394 13.7487 24.5337C13.7513 24.5246 13.7539 24.5154 13.7565 24.5062L13.7605 24.4844C14.218 22.6677 14.6398 20.8387 14.7941 19.0272C14.7973 18.9891 14.8005 18.9511 14.8038 18.9132L14.7736 19.0941C14.9317 18.4676 15.1038 17.8166 15.2927 17.2717C15.3147 17.2096 15.3386 17.147 15.3526 17.1151C15.3556 17.105 15.373 17.0804 15.3273 17.1576C15.306 17.1882 15.305 17.2019 15.214 17.3043C15.1917 17.3282 15.1651 17.355 15.1282 17.3869C15.0743 17.4328 15.0016 17.4896 14.884 17.5468C14.8177 17.5769 14.7794 17.597 14.6477 17.6296C14.5256 17.6581 14.3725 17.6699 14.2139 17.644C13.8728 17.587 13.6582 17.4062 13.5376 17.2676C13.4111 17.118 13.374 17.0181 13.3497 16.9644C13.324 16.9023 13.3096 16.8531 13.2992 16.8123C13.2807 16.7355 13.2788 16.7107 13.2744 16.6763C13.2679 16.6143 13.269 16.5998 13.2686 16.579Z" fill="black"/>
<path d="M15.9865 15.6787C15.9865 15.3803 15.868 15.0941 15.6569 14.8831C15.4459 14.6721 15.1597 14.5535 14.8613 14.5535C14.5629 14.5535 14.2767 14.6721 14.0657 14.8831C13.8547 15.0941 13.7362 15.3803 13.7362 15.6787C13.7362 15.8438 13.7362 16.0088 13.7362 16.1738C13.7362 16.6633 13.7362 17.1528 13.7362 17.6423C13.7362 19.1884 14.3785 20.7345 14.3785 22.2806C14.3785 23.2158 14.3785 24.1511 14.3785 25.0863C14.3785 25.2514 14.3785 25.4164 14.3785 25.5815C14.3785 25.7095 14.4294 25.8323 14.5199 25.9229C14.6105 26.0134 14.7333 26.0643 14.8613 26.0643C14.9894 26.0643 15.1122 26.0134 15.2027 25.9229C15.2933 25.8323 15.3442 25.7095 15.3442 25.5815C15.3442 25.4164 15.3442 25.2514 15.3442 25.0863C15.3442 24.1511 15.3442 23.2158 15.3442 22.2806C15.3442 20.7345 15.9865 19.1884 15.9865 17.6423C15.9865 17.1528 15.9865 16.6633 15.9865 16.1738C15.9865 16.0088 15.9865 15.8438 15.9865 15.6787Z" fill="black"/>
<path d="M16.9288 17.7466C17.119 17.5563 17.2259 17.2983 17.2259 17.0293C17.2259 16.7603 17.119 16.5023 16.9288 16.312C16.7385 16.1218 16.4805 16.0149 16.2115 16.0149C15.9425 16.0149 15.6844 16.1218 15.4942 16.312C15.1429 16.6964 15.0955 16.9204 14.9971 17.1516C14.5747 18.4236 14.5025 19.4742 14.3781 20.5885L14.3748 20.6322C14.3748 20.6335 14.3747 20.6348 14.3746 20.6361C14.2969 22.2366 14.7981 23.7917 14.8788 25.3632C14.8788 25.3636 14.8788 25.3639 14.8789 25.3642C14.9178 26.0379 14.9864 26.7278 15.138 27.408C15.179 27.595 15.2247 27.7783 15.269 27.9554C15.3016 28.086 15.3848 28.1983 15.5002 28.2675C15.6157 28.3368 15.7539 28.3573 15.8845 28.3247C16.015 28.292 16.1273 28.2089 16.1966 28.0934C16.2658 27.978 16.2864 27.8398 16.2537 27.7092C16.2093 27.5319 16.1667 27.3603 16.1295 27.1903C15.9934 26.5803 15.9296 25.9523 15.8922 25.3059C15.8922 25.3056 15.8922 25.3053 15.8922 25.305C15.8141 23.7848 16.3273 22.2367 16.4005 20.7446C16.4005 20.7434 16.4006 20.7422 16.4007 20.741L16.3974 20.7847C16.5014 19.7583 16.6313 18.6357 16.8986 17.8587C16.9303 17.7505 17.0263 17.6284 16.9288 17.7466Z" fill="black"/>
<path d="M13.9624 14.994C14.2584 14.994 14.5422 14.8764 14.7515 14.6671C14.9608 14.4578 15.0783 14.174 15.0783 13.878C15.0783 13.5821 14.9608 13.2982 14.7515 13.0889C14.5422 12.8797 14.2584 12.7621 13.9624 12.7621C14.0056 12.7661 14.0579 12.7506 14.2632 12.8174C14.3574 12.8519 14.5359 12.928 14.7041 13.1234C14.8801 13.3209 14.9569 13.609 14.9573 13.771C14.9537 14.107 14.888 14.1576 14.8716 14.214C14.8491 14.261 14.8399 14.2732 14.8368 14.2784C14.8543 14.2466 15.0859 13.9807 15.2552 13.7855C15.2781 13.759 15.3008 13.7304 15.323 13.6996C15.44 13.5454 15.5717 13.2421 15.5497 12.9302C15.5313 12.6206 15.4087 12.4061 15.3158 12.2757C15.1242 12.0233 14.9931 11.9533 14.8847 11.8778C14.6712 11.7441 14.5205 11.6827 14.3566 11.6253C14.0315 11.5323 13.7044 11.4201 13.11 11.669C13.0782 11.6839 13.0472 11.6998 13.0171 11.7165C12.0507 12.3651 11.8839 13.2053 12.2542 14.2163C12.2591 14.2271 12.2642 14.2379 12.2693 14.2486C12.5054 14.7231 12.8524 14.9827 13.2099 15.1474C13.5763 15.2922 13.9866 15.4377 14.6533 15.1703C14.7165 15.1415 14.7809 15.1071 14.8443 15.0666C15.3305 14.7405 15.4753 14.3417 15.5515 14.0233C15.5867 13.8559 15.6029 13.6944 15.5862 13.4897C15.5763 13.386 15.5601 13.2719 15.5082 13.1177C15.4485 12.967 15.3846 12.7499 15.0587 12.4801C14.8812 12.3358 14.589 12.2129 14.3198 12.2027C13.8788 12.1945 13.7138 12.3094 13.5833 12.3605C13.4583 12.4203 13.382 12.4657 13.3149 12.5028C13.1839 12.5769 13.0931 12.6258 13.0074 12.6721C12.8394 12.7636 12.7076 12.8391 12.6225 12.9583C12.6039 12.9846 12.5917 13.003 12.5659 13.0438C12.5658 13.044 12.5659 13.0439 12.5639 13.0469C12.5624 13.0491 12.5621 13.0494 12.5539 13.0622C12.541 13.0856 12.57 13.0255 12.4776 13.1947C12.4596 13.2358 12.4385 13.253 12.3745 13.4541C12.3588 13.51 12.3381 13.5809 12.3228 13.7136C12.3158 13.8478 12.2746 14.0489 12.429 14.4518C12.5444 14.8624 13.2315 15.3882 13.704 15.3717C14.1703 15.3918 14.3626 15.2698 14.4935 15.2128C14.7365 15.0813 14.7772 15.0219 14.8314 14.9776C14.8778 14.9346 14.9004 14.9098 14.9188 14.89C14.9538 14.8516 14.9675 14.8342 14.9793 14.8198C15.0195 14.7695 15.0204 14.7663 15.0281 14.7562C15.0663 14.7023 15.0452 14.7318 15.0497 14.7256C15.049 14.7266 15.046 14.731 15.0453 14.7318C15.0445 14.733 15.0436 14.7342 15.0427 14.7354C15.041 14.7379 15.0392 14.7403 15.0374 14.7428C15.0332 14.7485 15.0319 14.7502 15.0296 14.7532C15.0254 14.7587 15.0209 14.7645 15.0182 14.7678C15.0116 14.7758 15.006 14.7824 15.0008 14.7882C14.9902 14.8001 14.9809 14.8096 14.9714 14.8187C14.9526 14.8368 14.9325 14.8537 14.9099 14.8706C14.8639 14.9049 14.8061 14.9423 14.7179 14.9824C14.5598 15.0627 14.1729 15.1476 13.8544 15.0194C13.409 14.8274 13.4178 14.598 13.4651 14.5354C13.7253 14.5988 13.9816 14.655 14.2213 14.6611C14.4617 14.6668 14.6725 14.6174 14.8433 14.4989C15.0142 14.3803 15.1341 14.2002 15.213 13.973C15.2911 13.7463 15.3282 13.4866 15.3599 13.2206C15.2905 12.9915 15.151 12.6034 14.5043 12.3604C14.0442 12.1959 13.5058 12.3183 13.2244 12.4734C13.0738 12.5508 12.9591 12.6332 12.8603 12.7176C12.812 12.7591 12.7661 12.803 12.7236 12.8481C12.7023 12.8706 12.6813 12.894 12.6592 12.9203C12.6484 12.9332 12.6372 12.947 12.6252 12.9622C12.6203 12.9684 12.6122 12.9789 12.6056 12.9878C12.602 12.9926 12.5999 12.9954 12.5938 13.0037C12.5913 13.0072 12.5889 13.0106 12.5866 13.0138C12.5855 13.0153 12.5844 13.0169 12.5833 13.0184C12.5825 13.0195 12.5789 13.0247 12.578 13.0259C12.5824 13.0198 12.5613 13.0494 12.5995 12.9955C12.6072 12.9854 12.6081 12.9822 12.6483 12.9319C12.6601 12.9175 12.6738 12.9001 12.7088 12.8617C12.7272 12.8419 12.7498 12.8171 12.7962 12.7741C12.8504 12.7298 12.8911 12.6704 13.1341 12.5389C13.265 12.4819 13.4573 12.3599 13.9236 12.3801C14.3961 12.3635 15.0832 12.8893 15.1986 13.2999C15.353 13.7028 15.3118 13.9039 15.3048 14.0381C15.2895 14.1708 15.2688 14.2417 15.2531 14.2977C15.1891 14.4987 15.168 14.5159 15.15 14.557C15.0576 14.7262 15.0866 14.6661 15.0737 14.6895C15.0655 14.7023 15.0652 14.7026 15.0638 14.7048C15.0618 14.7078 15.0619 14.7077 15.0618 14.7077C15.0584 14.7151 15.0687 14.7011 15.0736 14.6944C15.1023 14.6535 15.0895 14.5741 15.0526 14.5199C15.0325 14.4938 15.0104 14.4723 14.9546 14.484C14.925 14.4901 14.8886 14.5059 14.8062 14.5417C14.7181 14.5692 14.6001 14.6641 14.2082 14.6576C13.9696 14.6487 13.7066 14.5373 13.5528 14.4118C13.2703 14.1763 13.2322 14.0101 13.1904 13.9107C13.1561 13.8083 13.1494 13.7486 13.1442 13.6994C13.1366 13.6039 13.1432 13.5526 13.155 13.4922C13.1838 13.3854 13.2219 13.1975 13.5216 12.9911C13.5599 12.9666 13.5977 12.9465 13.6337 12.9301C14.0146 12.7872 14.0943 12.8802 14.1813 12.9058C14.2582 12.9484 14.3524 13.0007 14.4536 13.1969C14.4557 13.2012 14.4577 13.2054 14.4596 13.2097C14.545 13.4131 14.5374 13.515 14.5305 13.6109C14.5161 13.7021 14.4831 13.8355 14.2652 13.9648C14.2524 13.9719 14.239 13.9787 14.2251 13.985C13.9075 14.1064 13.8998 14.0033 13.8687 13.9686C13.8526 13.9425 13.8478 13.9273 13.7666 13.8671C13.7237 13.8287 13.6566 13.8032 13.5102 13.6109C13.44 13.5111 13.3342 13.332 13.318 13.0602C13.2985 12.7863 13.416 12.5206 13.5111 12.3964C13.5292 12.3713 13.5474 12.3484 13.5653 12.3276C13.3893 12.5401 13.2491 12.6584 12.9622 13.0672C12.9322 13.1141 12.8957 13.172 12.8519 13.2643C12.8146 13.3661 12.7295 13.4659 12.727 13.8538C12.7282 14.041 12.813 14.3548 13.0059 14.5717C13.1902 14.7863 13.3932 14.8759 13.5101 14.9184C13.7637 15.0019 13.867 14.9897 13.9624 14.994Z" fill="black"/>
</svg>
