<svg width="24" height="27" viewBox="0 0 24 27" fill="none" xmlns="http://www.w3.org/2000/svg">
<path d="M8.88215 18.1144C8.95972 18.0799 9.02041 18.016 9.05086 17.9367C9.08131 17.8575 9.07904 17.7694 9.04453 17.6918C9.01003 17.6143 8.94612 17.5536 8.86688 17.5231C8.78763 17.4927 8.69953 17.4949 8.62196 17.5294C7.60664 17.979 6.5778 18.4318 5.57737 18.9499C5.02641 19.2354 4.48229 19.5394 3.95539 19.8813C3.84257 19.9546 3.72992 20.0296 3.61893 20.1059C9.36775 21.7693 15.9237 20.1028 21.8837 19.6932C21.9886 19.6806 22.0911 19.6683 22.191 19.6563C22.3289 19.6363 22.4002 19.6366 22.6638 19.5484C22.728 19.5252 22.798 19.496 22.8753 19.4559C22.9139 19.4358 22.9542 19.4129 22.9963 19.3863C23.0539 19.3498 23.1208 19.3021 23.1867 19.2451C23.3188 19.1314 23.4611 18.968 23.5647 18.7573C23.6766 18.5381 23.7354 18.2465 23.7216 18.0098C23.7164 17.8901 23.6973 17.7795 23.6723 17.6845C23.6533 17.6118 23.6306 17.5463 23.6064 17.4872C23.558 17.369 23.5047 17.2765 23.4539 17.1997C23.3475 17.0446 23.3021 17.0021 23.234 16.9302C23.0942 16.792 23.0402 16.7555 22.951 16.6877C22.6592 16.4794 22.4719 16.3887 22.2619 16.2804C21.8652 16.0828 21.4935 15.9277 21.1211 15.7789C20.3766 15.4839 19.6463 15.2311 18.9114 14.986C17.4432 14.4984 15.9755 14.0546 14.5162 13.5856C14.4506 13.5645 14.3853 13.5436 14.3204 13.5227C13.3408 13.2065 12.3502 12.9544 11.4876 12.6668C11.368 12.6263 11.2337 12.5742 11.2016 12.5571C11.2051 12.5622 11.2031 12.5446 11.3218 12.6443C11.354 12.6735 11.3938 12.7133 11.4383 12.7721C11.4806 12.8321 11.5346 12.8987 11.5933 13.0762C11.6463 13.239 11.6566 13.4577 11.6075 13.6404C11.5624 13.8126 11.4927 13.9255 11.4268 14.0121C11.2816 14.1878 11.2253 14.2024 11.183 14.2334C11.1414 14.2586 11.1172 14.2684 11.1121 14.2709C11.0948 14.2781 11.1132 14.2711 11.1325 14.2662C11.2353 14.2383 11.4138 14.2075 11.6004 14.1825C11.9678 14.1334 12.3714 14.0991 12.7752 14.0695C13.5788 14.0116 14.4077 13.9721 15.2375 13.9287C16.9095 13.8293 18.5352 13.7931 20.3634 13.4335C20.4145 13.4224 20.4649 13.4108 20.5146 13.3989C20.6357 13.3699 20.7542 13.3354 20.8751 13.2899C20.9944 13.2455 21.1914 13.158 21.3644 13.0283C21.5887 12.8583 21.895 12.5606 21.971 12.0128C22.027 11.4926 21.8311 11.1656 21.7258 10.9935C21.2463 10.346 20.9525 10.2649 20.6487 10.0582C20.0418 9.70436 19.4928 9.46695 18.9244 9.22966C17.8049 8.77031 16.68 8.38799 15.5531 8.03283C13.2895 7.33471 11.0476 6.7126 8.64603 6.2992L8.69212 6.30796C8.56307 6.28195 8.43342 6.25507 8.30331 6.22758C7.67727 6.09507 7.03961 5.95106 6.39632 5.81403C5.93532 5.71566 5.47198 5.62054 5.00518 5.53154L5.0165 5.53399C4.97224 5.52508 4.92814 5.51615 4.88403 5.50717C4.31047 5.39064 3.67504 5.4996 3.05881 5.48496C2.91675 5.48211 2.76446 5.54358 2.63986 5.63815C2.51501 5.73375 2.42807 5.85466 2.39373 5.99199C2.3594 6.12932 2.37922 6.27692 2.4444 6.42002C2.50983 6.5621 2.61528 6.68801 2.74197 6.75234C3.29061 7.02929 3.82054 7.42785 4.4187 7.57452C4.4645 7.58578 4.51033 7.59694 4.55636 7.60807L4.56768 7.61051C5.01618 7.71409 5.46393 7.82102 5.91471 7.93021C6.54403 8.08237 7.17716 8.23953 7.82493 8.38942C7.95962 8.42052 8.09504 8.45132 8.23133 8.48156L8.27742 8.49032C10.4305 8.90241 12.6664 9.5763 14.8176 10.2928C15.8933 10.6568 16.9687 11.0467 17.9797 11.4784C18.4856 11.696 18.9836 11.9264 19.389 12.1689C19.4894 12.2295 19.5761 12.2873 19.6387 12.3354C19.6953 12.3722 19.7418 12.4461 19.6523 12.3236C19.6207 12.2656 19.4881 12.0857 19.5254 11.7096C19.5799 11.3137 19.8025 11.1191 19.8964 11.0481C20.0602 10.94 20.014 10.9902 19.9415 11.0008C19.9079 11.0088 19.8726 11.0169 19.8356 11.025C18.4021 11.312 16.7045 11.4358 15.0729 11.588C14.2477 11.6617 13.416 11.7322 12.5767 11.8179C12.1522 11.862 11.727 11.9081 11.2782 11.977C11.0393 12.0158 10.8323 12.0469 10.5233 12.1331C10.4615 12.1509 10.3483 12.1867 10.2509 12.2286C10.2105 12.2455 10.1187 12.2872 10.0371 12.3373C9.95314 12.3941 9.85681 12.4356 9.67557 12.6563C9.59363 12.7638 9.51343 12.8963 9.46215 13.092C9.40672 13.2996 9.4177 13.5439 9.47885 13.7327C9.54681 13.9388 9.61296 14.0237 9.66866 14.102C9.72703 14.1794 9.78437 14.238 9.83774 14.2863C10.0461 14.4628 10.1081 14.4795 10.2276 14.5434C10.4633 14.6548 10.6086 14.7009 10.7693 14.7577C11.7771 15.0921 12.6912 15.349 13.5727 15.6798C13.6359 15.7034 13.6995 15.7272 13.7632 15.7511C15.1822 16.284 16.5828 16.8666 17.9603 17.4678C18.6479 17.7688 19.33 18.0737 19.9883 18.3864C20.3141 18.5418 20.6398 18.7018 20.9136 18.8539C21.0483 18.9279 21.186 19.0155 21.2034 19.0335C21.2015 19.0318 21.1998 19.0363 21.1406 18.9785C21.1086 18.9441 21.0848 18.9254 21.0101 18.8168C20.9739 18.762 20.9321 18.6907 20.8919 18.5929C20.8719 18.544 20.8526 18.4885 20.8361 18.4255C20.8145 18.3433 20.7974 18.2454 20.7926 18.1379C20.7801 17.9254 20.8338 17.6575 20.9356 17.4584C21.0298 17.2669 21.1578 17.1213 21.2707 17.0243C21.3914 16.9218 21.4688 16.8818 21.5232 16.8524C21.5815 16.8221 21.6302 16.8021 21.6705 16.7875C21.8291 16.7346 21.8347 16.7448 21.8572 16.7393C21.7512 16.7509 21.6431 16.7633 21.533 16.7765C15.5161 17.603 8.80808 19.7404 3.98687 20.6334C4.09046 20.5599 4.19677 20.488 4.30424 20.4181C4.80628 20.0923 5.3338 19.7971 5.87163 19.5185C6.8494 19.0121 7.8628 18.5656 8.88215 18.1144Z" fill="black"/>
<path d="M2 19.6659C1.65329 19.6659 1.32078 19.8036 1.07562 20.0488C0.830454 20.2939 0.692724 20.6264 0.692724 20.9731C0.692724 21.3199 0.830454 21.6524 1.07562 21.8975C1.32078 22.1427 1.65329 22.2804 2 22.2804C2.10553 22.2804 2.21105 22.2804 2.31658 22.2804C2.35359 22.2804 2.39061 22.2803 2.42762 22.2802C3.13169 22.2768 3.83576 22.2422 4.53983 22.2071C6.40149 22.1143 8.26315 21.9813 10.1248 21.8641C10.2674 21.8551 10.4099 21.8462 10.5524 21.8375C10.768 21.824 10.9748 21.7212 11.1272 21.5593C11.2796 21.397 11.3653 21.1889 11.3653 20.9731C11.3653 20.7573 11.2796 20.5493 11.1272 20.387C10.9748 20.2251 10.768 20.1223 10.5524 20.1088C10.4099 20.1001 10.2674 20.0912 10.1248 20.0822C8.26315 19.965 6.40149 19.8319 4.53983 19.7392C3.83576 19.7041 3.13169 19.6695 2.42762 19.6661C2.39061 19.666 2.35359 19.6659 2.31658 19.6659C2.21105 19.6659 2.10553 19.6659 2 19.6659Z" fill="black"/>
<path d="M6.31476 17.8217C6.31476 18.229 6.47656 18.6197 6.76457 18.9077C7.05258 19.1957 7.44321 19.3575 7.85052 19.3575C8.25783 19.3575 8.64845 19.1957 8.93646 18.9077C9.22447 18.6197 9.38628 18.229 9.38628 17.8217C9.38613 17.7877 9.38681 17.7507 9.38447 17.6729C9.37988 17.6196 9.3916 17.6201 9.35499 17.3924C9.34846 17.3579 9.33842 17.3089 9.31978 17.2441C9.28158 17.1448 9.30484 17.1013 9.0939 16.775C9.02971 16.6909 9.00313 16.6403 8.82538 16.4846C8.66762 16.3512 8.42017 16.2074 8.12009 16.1527C7.51299 16.0214 6.95299 16.3865 6.87992 16.4623C6.57023 16.7312 6.56655 16.8111 6.50829 16.8915C6.37365 17.1394 6.38988 17.1505 6.36669 17.2059C6.28754 17.4672 6.29607 17.4792 6.27411 17.5738C6.27297 17.5794 6.27182 17.5851 6.27068 17.5908C6.26917 17.5983 6.26766 17.6059 6.26614 17.6137C6.08765 18.5657 6.09657 19.4433 6.10971 20.3384C6.10977 20.3417 6.10983 20.345 6.10989 20.3482C6.15265 22.13 6.35413 23.8045 6.51182 25.5008C6.5254 25.6417 6.5389 25.7817 6.55227 25.924C6.57194 26.1286 6.67854 26.3248 6.83727 26.4695C6.99665 26.6142 7.19513 26.6955 7.40039 26.6955C7.60565 26.6955 7.80413 26.6142 7.96351 26.4695C8.12224 26.3248 8.22884 26.1286 8.24851 25.924C8.26188 25.7817 8.27538 25.6417 8.28899 25.5009C8.45671 23.8157 8.61552 22.1065 8.84394 20.5122C8.84437 20.5093 8.8448 20.5064 8.84523 20.5034C8.96295 19.7167 9.14128 18.9157 9.27879 18.2116C9.27983 18.2065 9.28084 18.2015 9.28182 18.1967C9.28258 18.193 9.28331 18.1894 9.28402 18.1859C9.28838 18.1544 9.32159 18.0388 9.28112 18.1756C9.26301 18.2159 9.28469 18.2112 9.15797 18.445C9.10186 18.5219 9.10034 18.5985 8.79372 18.8648C8.72175 18.9396 8.16443 19.3034 7.55899 19.1726C7.25985 19.1181 7.01329 18.9747 6.85639 18.842C6.67963 18.6872 6.65339 18.637 6.58981 18.5537C6.38138 18.2312 6.40561 18.1908 6.3688 18.0961C6.35115 18.0347 6.34208 17.99 6.3363 17.9596C6.30521 17.7637 6.31802 17.7967 6.31468 17.7759C6.31441 17.7629 6.31486 17.7909 6.31476 17.8217Z" fill="black"/>
<path d="M10.3071 16.9219C10.3071 16.5094 10.1432 16.1139 9.85158 15.8223C9.55994 15.5306 9.16439 15.3668 8.75195 15.3668C8.33951 15.3668 7.94397 15.5306 7.65233 15.8223C7.36069 16.1139 7.19685 16.5094 7.19685 16.9219C7.19685 17.0719 7.19685 17.222 7.19685 17.372C7.19685 18.1909 7.19685 19.0098 7.19685 19.8287C7.19685 21.1696 7.33097 22.5105 7.45172 23.8514C7.50043 24.3924 7.89099 24.9333 8.22197 25.4743C8.31377 25.6243 8.40099 25.7743 8.47506 25.9244C8.49791 25.97 8.5471 26.0138 8.59864 26.0461C8.65095 26.0784 8.70136 26.0965 8.75195 26.0965C8.80254 26.0965 8.85296 26.0784 8.90527 26.0461C8.95681 26.0138 9.006 25.97 9.02885 25.9244C9.10292 25.7743 9.19014 25.6243 9.28194 25.4743C9.61292 24.9333 10.0035 24.3924 10.0522 23.8514C10.1729 22.5105 10.3071 21.1696 10.3071 19.8287C10.3071 19.0098 10.3071 18.1909 10.3071 17.372C10.3071 17.222 10.3071 17.0719 10.3071 16.9219Z" fill="black"/>
<path d="M8.53917 17.3981C8.18802 17.5737 7.921 17.8815 7.79685 18.254C7.6727 18.6264 7.70159 19.033 7.87716 19.3841C8.05274 19.7352 8.36061 20.0023 8.73306 20.1264C9.10551 20.2506 9.51202 20.2217 9.86317 20.0461C9.98198 19.9854 10.0798 19.9429 10.0583 19.9524C10.0425 19.9553 10.0017 19.9803 9.82547 19.9907C9.67137 20.0084 9.21707 19.9364 8.92554 19.6414L8.48134 18.7689C8.48194 18.7733 8.48255 18.7778 8.48315 18.7823C8.77079 20.8244 9.2525 22.7325 9.85501 24.8352L9.83737 24.751C9.83751 24.7515 9.83766 24.7521 9.8378 24.7526C9.89943 24.9763 10.0634 25.2274 10.2102 25.5242C10.2741 25.6524 10.3351 25.7868 10.3841 25.9241C10.4259 26.0395 10.5276 26.1502 10.6428 26.2318C10.7593 26.3134 10.8797 26.3592 11.0017 26.3592C11.1237 26.3592 11.2441 26.3134 11.3606 26.2318C11.4757 26.1502 11.5774 26.0395 11.6192 25.9241C11.6683 25.7867 11.7293 25.6464 11.789 25.4999C11.9263 25.166 12.057 24.7847 12.0133 24.3858C12.0132 24.3848 12.0131 24.3839 12.013 24.383L11.9953 24.2988C11.7508 22.4512 11.6901 20.3459 11.4172 18.3868C11.4166 18.3824 11.416 18.3781 11.4154 18.3737L11.3462 17.8597L10.9712 17.5012C10.5851 17.1132 9.99335 17.0082 9.70944 17.0324C9.40248 17.0484 9.23407 17.1079 9.0947 17.153C8.8137 17.2531 8.66622 17.3366 8.53917 17.3981Z" fill="black"/>
<path d="M7.85147 11.8545C8.29824 11.8545 8.7267 11.6771 9.04262 11.3611C9.35853 11.0452 9.536 10.6168 9.536 10.17C9.536 9.72323 9.35853 9.29476 9.04262 8.97885C8.7267 8.66294 8.29824 8.48546 7.85147 8.48546C8.26405 8.47598 8.67285 8.69048 8.84471 8.85044C9.02895 9.01308 9.08938 9.12223 9.13395 9.19456C9.21085 9.33365 9.20723 9.35737 9.21103 9.36289C9.19354 9.3238 9.14928 8.93569 9.14519 8.61614C9.1368 8.27983 9.14364 7.91846 9.15871 7.55235L9.14733 7.69014C9.14859 7.68001 9.14984 7.66988 9.1511 7.65975C9.35003 6.04227 9.13458 4.38104 8.97461 2.73544L8.96838 2.80556C8.96826 2.80363 8.96813 2.8017 8.96801 2.79978C8.9474 2.49646 8.84032 2.17121 8.77978 1.79471C8.75371 1.63731 8.73462 1.47348 8.72682 1.30922C8.72224 1.22184 8.67556 1.12395 8.61454 1.0429C8.5525 0.961515 8.48115 0.903628 8.39871 0.876147C8.31627 0.848667 8.22446 0.852168 8.12599 0.880052C8.02854 0.908275 7.93246 0.958584 7.87637 1.02574C7.77159 1.15239 7.65562 1.27942 7.53984 1.41527C7.2643 1.73457 6.99371 2.12194 6.88516 2.54182C6.88447 2.54446 6.88378 2.5471 6.8831 2.54974L6.87687 2.61987C6.53686 4.1673 5.99902 5.68935 5.80752 7.24604C5.80631 7.25581 5.8051 7.26558 5.80389 7.27535L5.79251 7.41314C5.78226 8.29179 5.67492 8.96581 5.97157 10.2884C6.01774 10.4409 6.06542 10.6111 6.21809 10.8823C6.30186 11.022 6.40694 11.1931 6.64912 11.4058C6.87882 11.6163 7.36152 11.8647 7.85147 11.8545Z" fill="black"/>
<path d="M10.1783 10.6202C10.1783 10.2419 10.0281 9.87908 9.76056 9.61158C9.49306 9.34408 9.13025 9.1938 8.75195 9.1938C8.37365 9.1938 8.01084 9.34408 7.74334 9.61158C7.47584 9.87908 7.32557 10.2419 7.32557 10.6202C7.32566 10.7042 7.3252 10.7923 7.32793 10.9059C7.32983 10.9654 7.33044 11.022 7.34112 11.1356C7.3547 11.2112 7.33035 11.2172 7.42508 11.5266C7.44175 11.5728 7.45857 11.6207 7.5039 11.7109C7.54756 11.7903 7.60441 11.9138 7.79312 12.0998C7.9423 12.2781 8.52817 12.5894 9.02444 12.4775C9.27836 12.4312 9.41554 12.3553 9.52658 12.2908C9.63408 12.2269 9.72978 12.1445 9.76794 12.108C10.1054 11.7483 10.0479 11.7243 10.1024 11.6419C10.1483 11.5409 10.1604 11.5012 10.1766 11.4555L10.2381 11.1988C10.2408 11.1805 10.2434 11.1622 10.246 11.1439C10.5873 8.78645 10.6183 6.39999 10.8145 4.19959L10.8196 4.15623C10.82 4.15104 10.8204 4.14586 10.8207 4.14068C10.8718 3.44211 10.5658 2.74859 10.3086 2.11787C10.2413 1.94979 10.1773 1.78456 10.1234 1.61768C10.0936 1.52682 10.0177 1.43969 9.92987 1.37545C9.84099 1.31121 9.74731 1.27512 9.65221 1.27512C9.55711 1.27512 9.46343 1.31121 9.37455 1.37545C9.28668 1.43969 9.21086 1.52682 9.18099 1.61768C9.1271 1.78453 9.0632 1.94935 8.99511 2.1148C8.73552 2.75158 8.41346 3.3282 8.33351 3.89149C8.33292 3.89581 8.33232 3.90014 8.33173 3.90447L8.33688 3.86111C7.96357 6.25841 7.74611 8.51041 7.42168 10.7418C7.41924 10.759 7.41678 10.7761 7.41432 10.7933L7.47584 10.5366C7.481 10.523 7.483 10.5111 7.515 10.4404C7.5605 10.3769 7.49407 10.3716 7.81678 10.0268C7.85351 9.99164 7.94638 9.91152 8.05184 9.84879C8.16074 9.78562 8.29578 9.71072 8.54694 9.66492C9.03812 9.55399 9.61869 9.8628 9.76435 10.0376C9.94947 10.2202 10.0034 10.3389 10.0448 10.4139C10.0876 10.4991 10.1027 10.5426 10.1176 10.5839C10.1992 10.8531 10.1707 10.8182 10.1798 10.8524C10.1824 10.883 10.1801 10.8566 10.1798 10.8331C10.1784 10.7802 10.1783 10.7025 10.1783 10.6202Z" fill="black"/>
<path d="M11.6951 9.02555C11.3916 8.72206 10.98 8.55156 10.5508 8.55156C10.1216 8.55156 9.70996 8.72206 9.40647 9.02555C9.10298 9.32904 8.93249 9.74066 8.93249 10.1699C8.93249 10.5991 9.10299 11.0107 9.40648 11.3142C9.57166 11.4691 9.86279 11.7556 10.4763 11.8397C11.1093 11.9168 11.6138 11.6094 11.8155 11.4335C12.2331 11.056 12.2762 10.8741 12.3744 10.7073C12.9113 9.4429 12.9343 8.79117 13.1162 7.92001L13.1116 7.94432C13.1157 7.92361 13.1197 7.90293 13.1237 7.88229C13.4905 5.89839 13.2968 3.83713 13.0293 1.70074C13.0286 1.69669 13.0279 1.69264 13.0272 1.68859C12.9764 1.38771 12.901 1.08669 12.8245 0.78579C12.7805 0.612891 12.7361 0.439993 12.6958 0.26709C12.6786 0.194579 12.6273 0.125038 12.563 0.0737645C12.4981 0.0224914 12.4255 -0.0063135 12.3513 -0.0063135C12.2771 -0.0063135 12.2045 0.0224914 12.1396 0.0737645C12.0753 0.125038 12.024 0.194579 12.0068 0.26709C11.9665 0.439993 11.9221 0.612891 11.8781 0.78579C11.8016 1.08669 11.7262 1.38771 11.6753 1.68859C11.6747 1.69264 11.674 1.69669 11.6733 1.70074C11.2812 3.52422 10.3014 5.36321 9.94615 7.2668C9.94227 7.28682 9.93838 7.30688 9.93447 7.32698L9.92994 7.35129C9.86138 7.73473 9.7892 8.1092 9.7085 8.46363C9.63661 8.79669 9.50827 9.21716 9.4838 9.25141C9.5035 9.23742 9.45939 9.20977 9.74545 8.94549C9.88146 8.82502 10.302 8.55821 10.8476 8.62444C11.3744 8.69829 11.5912 8.93183 11.6951 9.02555Z" fill="black"/>
<path d="M6.52093 15.5528C6.75461 15.7864 7.07154 15.9177 7.40201 15.9177C7.73248 15.9177 8.04941 15.7864 8.28308 15.5527C8.51676 15.3191 8.64804 15.0021 8.64804 14.6717C8.64804 14.3412 8.51676 14.0243 8.28308 13.7906C8.26622 13.7737 8.2541 13.7616 8.24691 13.7541C8.21377 13.7225 8.28552 13.7771 8.34984 13.9373C8.41598 14.098 8.40833 14.2817 8.39336 14.3436C8.39165 14.3526 8.3901 14.36 8.3886 14.3668C8.37303 14.4252 8.39981 14.3647 8.4234 14.3536C8.42647 14.3558 8.47229 14.3185 8.38466 14.4468C8.3665 14.4697 8.35106 14.491 8.30006 14.5417C8.27526 14.5656 8.24748 14.5929 8.18498 14.64C8.1245 14.6811 8.05164 14.7476 7.82012 14.8271C7.7225 14.8575 7.52605 14.9125 7.25287 14.8763C6.98331 14.8444 6.68758 14.691 6.51204 14.5079C6.42177 14.4174 6.3554 14.3243 6.30682 14.24C6.26833 14.1729 6.24569 14.1226 6.22486 14.0708C6.18482 13.9695 6.16578 13.8878 6.15364 13.8208C6.12235 13.6281 6.13473 13.559 6.13509 13.5104C6.14821 13.3426 6.14797 13.364 6.14312 13.3474C6.13893 13.3422 6.13185 13.3463 6.12306 13.3538C5.92657 13.665 5.9459 14.0313 6.11507 14.352C6.28486 14.6728 6.60149 14.9253 6.98439 15.0504C7.36729 15.1754 7.77192 15.1584 8.09835 14.9996C8.42415 14.8405 8.65592 14.5562 8.68095 14.189C8.6878 14.1486 8.69441 14.1083 8.70276 14.058C8.71328 13.9849 8.72706 13.953 8.74578 13.7276C8.74727 13.6656 8.76008 13.5804 8.72663 13.3755C8.71377 13.3043 8.69375 13.219 8.6525 13.1146C8.63105 13.0612 8.6078 13.0097 8.5685 12.9411C8.51889 12.8551 8.45138 12.7604 8.35984 12.6687C8.1818 12.4831 7.88309 12.3281 7.61002 12.2958C7.33337 12.259 7.13284 12.3148 7.03237 12.3461C6.79419 12.4278 6.71495 12.4983 6.64898 12.5434C6.58031 12.595 6.54746 12.6268 6.5176 12.6555C6.4554 12.7168 6.43182 12.7472 6.40359 12.7821C6.24412 12.9987 6.23354 13.0607 6.18244 13.1636C6.10044 13.3538 6.03583 13.5044 5.96529 13.7837C5.95808 13.8143 5.95169 13.844 5.94542 13.8768C5.89423 14.1238 5.89154 14.5052 6.02806 14.8427C6.16121 15.1808 6.35812 15.3837 6.45648 15.4875C6.48246 15.5144 6.50408 15.5359 6.52093 15.5528Z" fill="black"/>
</svg>
