<svg width="37" height="47" viewBox="0 0 37 47" fill="none" xmlns="http://www.w3.org/2000/svg">
<path d="M2.59918 42.3339C2.59918 42.5049 2.66713 42.669 2.78809 42.7899C2.90904 42.9109 3.07309 42.9788 3.24414 42.9788C3.41519 42.9788 3.57924 42.9109 3.7002 42.7899C3.82115 42.669 3.8891 42.5049 3.8891 42.3339C3.88914 41.0855 3.89002 39.8161 3.89136 38.5568C3.89881 32.8622 3.90985 27.1622 3.95801 21.4683C3.96099 21.1364 4.14179 20.7814 4.20557 20.4523C4.21835 20.4115 4.2282 20.3726 4.23244 20.3351C4.24205 20.2404 4.27073 20.1517 4.28348 20.1297C4.28764 20.1194 4.28943 20.1301 4.24193 20.1749C4.20008 20.2167 4.06265 20.3026 3.89759 20.3039C4.78262 20.1396 5.48347 22.103 6.27501 23.7826C6.44442 24.1167 6.63578 24.466 6.90425 24.814C7.08143 25.063 7.47453 25.3025 7.80567 25.3323C8.13749 25.3717 8.36747 25.3096 8.55359 25.2546C8.91818 25.1362 9.15921 24.9939 9.39226 24.8616C9.84956 24.5932 10.2334 24.3337 10.6109 24.1209C10.8633 23.9778 11.1087 23.8559 11.3292 23.7791C12.6573 23.2939 13.9002 23.5817 15.1487 24.5732C15.4293 24.7592 15.5788 24.9714 16.2133 25.2147C16.609 25.3281 17.1486 25.4358 17.7444 25.1503C18.3333 24.8537 18.5835 24.3137 18.7072 23.9288C18.9449 23.1228 18.9212 22.4552 18.9119 21.79C18.8846 20.5199 18.6584 19.0847 18.8034 18.25C18.8123 18.2119 18.8252 18.1965 18.8037 18.233C18.8679 18.1303 18.9333 18.0581 18.9374 18.0576C18.9352 18.0561 18.9116 18.0957 18.7703 18.1285C18.6227 18.1671 18.4079 18.0949 18.3439 18.0353C18.2275 17.9276 18.3088 17.9992 18.3305 18.0774C18.3675 18.1708 18.3992 18.2774 18.4314 18.4075C18.5514 18.9048 18.6195 19.4978 18.6711 20.0772C18.7716 21.2485 18.8069 22.4456 18.835 23.649C18.891 26.0515 18.8789 28.4698 19.0439 30.9242L19.0482 30.9687C19.0728 31.1812 19.0973 31.3944 19.1217 31.6081C19.4771 34.7362 19.7399 37.8839 19.9464 41.0379C19.9754 41.4822 20.0032 41.9268 20.0298 42.3718L20.0315 42.3962C20.035 42.4369 20.0384 42.4757 20.0423 42.5163C20.1151 43.3771 20.3744 44.1681 20.5119 44.8725C20.5575 45.1 20.6943 45.3024 20.8881 45.436C21.0822 45.5696 21.3173 45.6234 21.546 45.585C21.7746 45.5465 21.9792 45.4186 22.1188 45.2289C22.2582 45.0392 22.3212 44.8031 22.2899 44.5733C22.1767 43.7456 22.0308 43.0297 21.9807 42.3396C21.9777 42.3054 21.975 42.2727 21.9723 42.2381L21.974 42.2625C21.9504 41.8142 21.9259 41.3661 21.9002 40.9182C21.7171 37.7383 21.4821 34.5573 21.1211 31.3803C21.0964 31.1632 21.0708 30.9466 21.0443 30.7308L21.0486 30.7752C20.8739 28.4196 20.7827 25.9921 20.6271 23.5721C20.5487 22.3551 20.4646 21.1426 20.3202 19.9062C20.244 19.2872 20.1634 18.6662 19.9921 18.0049C19.9435 17.8255 19.8975 17.6703 19.8133 17.4657C19.7287 17.2895 19.6583 17.05 19.3132 16.765C19.121 16.6071 18.7628 16.4939 18.4623 16.563C18.1723 16.6256 18.017 16.7519 17.9022 16.8461C17.6809 17.043 17.58 17.1978 17.4616 17.3781C17.3493 17.5573 17.2999 17.714 17.2632 17.8518C17.0091 19.5046 17.3077 20.5907 17.296 21.8261C17.3054 22.4142 17.2794 23.0209 17.1458 23.4211C17.0808 23.623 16.9964 23.6835 17.0122 23.6649C17.0307 23.6622 16.908 23.6869 16.7026 23.6174C16.7469 23.6361 16.6234 23.5742 16.5219 23.4975C16.413 23.4197 16.2896 23.3242 16.1604 23.2258C14.899 22.0927 12.575 21.3143 10.7453 22.0332C10.3503 22.163 10.0109 22.3344 9.69867 22.5105C9.23827 22.7714 8.82894 23.055 8.45781 23.279C8.27805 23.3883 8.09331 23.4842 8.00184 23.5136C7.95904 23.5306 7.94776 23.5173 8.03916 23.5266C8.13047 23.529 8.30209 23.6366 8.33271 23.6932C8.17963 23.5022 8.02847 23.2449 7.88925 22.9686C7.5169 22.233 7.21168 21.368 6.72475 20.4847C6.29586 19.6629 5.30599 18.4269 3.85688 18.4989C3.10972 18.5445 2.81734 19.0488 2.67458 19.3111C2.52629 19.6087 2.47 19.8733 2.43888 20.1331C2.4275 20.2343 2.42908 20.335 2.44038 20.4338C2.49723 20.7651 2.67113 21.1242 2.66814 21.4567C2.61992 27.1586 2.6089 32.8587 2.60144 38.5554C2.6001 39.8151 2.59923 41.0848 2.59918 42.3339Z" fill="black"/>
<path d="M11.631 27.646C11.631 27.3134 11.4988 26.9945 11.2637 26.7593C11.0285 26.5241 10.7095 26.392 10.377 26.392C10.0444 26.392 9.72541 26.5241 9.49024 26.7593C9.25507 26.9945 9.12295 27.3134 9.12295 27.646C9.12295 27.648 9.12295 27.6499 9.12295 27.6519C9.12295 27.6873 9.12295 27.7227 9.12295 27.758C9.12295 27.76 9.12295 27.762 9.12295 27.7639C9.12295 28.0965 9.25507 28.4155 9.49024 28.6507C9.72541 28.8858 10.0444 29.0179 10.377 29.0179C10.7095 29.0179 11.0285 28.8858 11.2637 28.6507C11.4988 28.4155 11.631 28.0965 11.631 27.7639C11.631 27.762 11.631 27.76 11.631 27.758C11.631 27.7227 11.631 27.6873 11.631 27.6519C11.631 27.6499 11.631 27.648 11.631 27.646Z" fill="black"/>
<path d="M14.3875 27.3344C14.4299 27.3344 14.4707 27.3175 14.5007 27.2875C14.5307 27.2575 14.5476 27.2168 14.5476 27.1743C14.5476 27.1319 14.5307 27.0911 14.5007 27.0611C14.4707 27.0311 14.4299 27.0142 14.3875 27.0142C14.3855 27.0142 14.3835 27.0142 14.3816 27.0142C14.3462 27.0142 14.3108 27.0142 14.2754 27.0142C14.2735 27.0142 14.2715 27.0142 14.2695 27.0142C14.2271 27.0142 14.1864 27.0311 14.1563 27.0611C14.1263 27.0911 14.1094 27.1319 14.1094 27.1743C14.1094 27.2168 14.1263 27.2575 14.1563 27.2875C14.1864 27.3175 14.2271 27.3344 14.2695 27.3344C14.2715 27.3344 14.2735 27.3344 14.2754 27.3344C14.3108 27.3344 14.3462 27.3344 14.3816 27.3344C14.3835 27.3344 14.3855 27.3344 14.3875 27.3344Z" fill="black"/>
<path d="M15.2088 27.4102C15.2088 27.1294 15.0973 26.8602 14.8988 26.6617C14.7003 26.4633 14.4311 26.3517 14.1504 26.3517C13.8697 26.3517 13.6005 26.4633 13.402 26.6617C13.2035 26.8602 13.092 27.1294 13.092 27.4102C13.092 27.4121 13.092 27.4141 13.092 27.4161C13.092 27.4514 13.092 27.4868 13.092 27.5222C13.092 27.5242 13.092 27.5261 13.092 27.5281C13.092 27.8088 13.2035 28.078 13.402 28.2765C13.6005 28.475 13.8697 28.5865 14.1504 28.5865C14.4311 28.5865 14.7003 28.475 14.8988 28.2765C15.0973 28.078 15.2088 27.8088 15.2088 27.5281C15.2088 27.5261 15.2088 27.5242 15.2088 27.5222C15.2088 27.4868 15.2088 27.4514 15.2088 27.4161C15.2088 27.4141 15.2088 27.4121 15.2088 27.4102Z" fill="black"/>
<path d="M1.17764 32.4401C1.29166 32.4401 1.40101 32.3948 1.48163 32.3142C1.56226 32.2336 1.60755 32.1242 1.60755 32.0102C1.60755 31.8962 1.56226 31.7868 1.48163 31.7062C1.40101 31.6256 1.29166 31.5803 1.17764 31.5803C1.1678 31.5803 1.15648 31.5804 1.13905 31.5817C1.13348 31.5823 1.11315 31.5832 1.07884 31.5905C1.06109 31.5945 1.03879 31.5997 1.0047 31.6136C0.994089 31.6215 0.957004 31.6206 0.861154 31.7104C0.762307 31.7848 0.699103 32.0534 0.771571 32.1783C0.846095 32.3228 0.844762 32.2896 0.869458 32.3214C0.888967 32.3402 0.905101 32.3527 0.918765 32.3625C0.946023 32.3818 0.964055 32.391 0.978538 32.3984C1.00752 32.4123 1.00667 32.4111 1.01756 32.4155C1.03383 32.4218 1.0466 32.4257 1.05158 32.4272C1.07908 32.4354 1.0889 32.4373 1.10128 32.4402C1.12383 32.4453 1.14073 32.4486 1.15683 32.4517C1.18946 32.4578 1.21944 32.4628 1.24882 32.4675C1.30741 32.4768 1.36353 32.4848 1.41985 32.4925C1.53251 32.5077 1.64304 32.5208 1.75308 32.5329C1.97449 32.5572 2.19297 32.5774 2.41264 32.5955C2.42983 32.5969 2.44711 32.5982 2.46449 32.5994C2.48565 32.6009 2.50696 32.6022 2.52841 32.6034C4.45712 32.6112 6.17617 32.2782 7.93758 32.0759C7.94122 32.0754 7.94486 32.075 7.94849 32.0745C8.5716 31.9894 9.38672 31.9248 9.71802 32.0141C9.7179 32.014 9.71778 32.0139 9.71764 32.0138C9.6744 31.9777 9.60298 31.9986 9.48491 31.7468C9.39095 31.4775 9.55576 31.2806 9.57756 31.2603C9.66564 31.1727 9.6651 31.1913 9.67345 31.1836C9.68147 31.1812 9.66045 31.1927 9.63793 31.2024C9.5922 31.2226 9.53307 31.2447 9.47122 31.2665C9.3488 31.3095 9.21604 31.3517 9.08356 31.393C8.81773 31.4756 8.54548 31.556 8.27282 31.635C7.72658 31.7927 7.17757 31.9441 6.62265 32.0787C6.58478 32.0879 6.54703 32.097 6.50943 32.1059C4.75811 32.5518 3.04298 32.8025 1.2419 33.5031C1.21759 33.5164 1.19336 33.5301 1.16917 33.5443C1.0969 33.5869 1.02993 33.641 0.962192 33.7088C0.92832 33.7433 0.894047 33.7803 0.856586 33.8316C0.827884 33.8861 0.746763 33.9411 0.773569 34.1414L0.831132 34.3332L0.993859 34.3253C1.01985 34.3241 1.04615 34.3236 1.0728 34.3241C2.9579 34.3048 4.79172 34.1173 6.61317 33.8289L6.59779 33.8312C6.60873 33.8298 6.61971 33.8284 6.63074 33.8271C7.53133 33.7165 8.44681 33.6397 9.36166 33.5632C9.82735 33.5247 10.2935 33.4874 10.7602 33.4497C10.8603 33.4417 10.9532 33.3944 11.0185 33.3181C11.0838 33.2418 11.1162 33.1427 11.1085 33.0427C11.1008 32.9426 11.0537 32.8496 10.9774 32.7842C10.9012 32.7188 10.8022 32.6863 10.7021 32.6936C10.2351 32.7278 9.76796 32.7623 9.30032 32.7986C8.38084 32.8711 7.46124 32.9456 6.53502 33.0592C6.52366 33.0606 6.51234 33.0621 6.50106 33.0635L6.48568 33.0658C4.6816 33.3567 2.87876 33.847 1.08148 33.8648C1.05675 33.8643 1.0325 33.8625 1.00877 33.8597L1.22906 34.0436C1.24208 34.1679 1.2115 34.1546 1.22928 34.1537C1.24078 34.1487 1.2634 34.1363 1.28797 34.1249C1.33806 34.1009 1.39781 34.0756 1.45514 34.0438C1.47444 34.0331 1.49423 34.0225 1.5144 34.012C3.06635 33.4547 4.9286 33.1607 6.65924 32.7833C6.69713 32.7756 6.73519 32.7678 6.77342 32.7602C7.33308 32.648 7.89496 32.5558 8.46122 32.4599C8.74432 32.4118 9.02789 32.3631 9.31423 32.3065C9.45763 32.278 9.60214 32.2477 9.75134 32.2103C9.82807 32.1908 9.90235 32.1711 9.98997 32.1417C10.0378 32.1248 10.0792 32.1113 10.1519 32.0747C10.1895 32.051 10.2212 32.0516 10.3346 31.9368C10.3669 31.9055 10.543 31.6884 10.4424 31.4034C10.3163 31.1333 10.2326 31.1471 10.1701 31.1007C10.1685 31.0999 10.1669 31.0991 10.1653 31.0983C9.16613 30.7528 8.5504 30.9008 7.80447 30.964C7.80052 30.9645 7.79657 30.965 7.79262 30.9655C6.00724 31.1775 4.22749 31.7525 2.57402 31.7447C2.55687 31.7438 2.54 31.7428 2.52343 31.7416C2.50981 31.7407 2.49639 31.7397 2.48317 31.7386C2.26969 31.721 2.0581 31.7014 1.84716 31.6782C1.74247 31.6667 1.6379 31.6543 1.53495 31.6404C1.48367 31.6335 1.43309 31.6262 1.38457 31.6185C1.36049 31.6146 1.33638 31.6105 1.31598 31.6067C1.30633 31.6049 1.29619 31.6028 1.29216 31.6019C1.29109 31.6017 1.28801 31.6006 1.30247 31.6048C1.30516 31.6057 1.31313 31.608 1.32666 31.6132C1.33588 31.617 1.33456 31.6156 1.36128 31.6284C1.37476 31.6353 1.39199 31.6441 1.41863 31.6629C1.43199 31.6725 1.44786 31.6848 1.46716 31.7033C1.49163 31.735 1.4902 31.7017 1.56442 31.8456C1.6367 31.9701 1.57358 32.2383 1.4751 32.3123C1.37962 32.4017 1.34317 32.4006 1.33271 32.4084C1.29916 32.4221 1.27753 32.4271 1.2606 32.4309C1.22777 32.4378 1.21036 32.4385 1.20574 32.439C1.19114 32.4401 1.18332 32.4401 1.17764 32.4401Z" fill="black"/>
<path d="M13.8001 30.1039C13.6387 30.1031 13.4836 30.1664 13.3689 30.28C13.2542 30.3935 13.1893 30.5479 13.1885 30.7093C13.1877 30.8706 13.251 31.0257 13.3645 31.1404C13.478 31.2551 13.6325 31.32 13.7938 31.3208C14.5386 31.2531 14.9747 31.1551 15.5553 31.0701C16.3516 30.9445 17.1441 30.8225 17.9385 30.7101C17.9433 30.7094 17.9482 30.7087 17.9531 30.708C19.6793 30.4626 21.3877 30.1189 23.098 29.8266C23.1094 29.8247 23.1207 29.8227 23.1319 29.8207C23.3874 29.7747 23.6352 29.6978 23.8847 29.6244C24.0087 29.5878 24.1337 29.5519 24.2568 29.5227C24.3182 29.5081 24.3801 29.4951 24.4391 29.4854C24.4828 29.4732 24.6051 29.4775 24.5359 29.4635C24.5228 29.4584 24.504 29.4562 24.4579 29.4222C24.3973 29.403 24.323 29.1865 24.3766 29.1155C24.4259 29.0625 24.3458 29.1453 24.2432 29.1734C24.1405 29.2102 24.0213 29.2417 23.9022 29.2718C23.6628 29.3316 23.4143 29.3875 23.1683 29.4456C22.6738 29.5613 22.1804 29.6843 21.6884 29.8112C21.6852 29.8121 21.682 29.8129 21.6787 29.8137C19.6437 30.3431 17.6056 30.8559 15.574 31.4009C15.5694 31.4021 15.5649 31.4034 15.5603 31.4046C14.8905 31.6048 14.35 31.5947 13.5214 31.9826C13.506 31.9941 13.488 32.0088 13.4701 32.0259C13.435 32.062 13.3676 32.1312 13.3526 32.2732C13.3362 32.4182 13.4261 32.5543 13.4839 32.5991C13.5396 32.6466 13.5775 32.6606 13.605 32.6719C13.6603 32.692 13.6823 32.6928 13.692 32.695C13.7161 32.699 13.7371 32.7006 13.7485 32.7014C13.7698 32.7031 13.7945 32.7037 13.8078 32.7041C13.8421 32.7048 13.8685 32.7048 13.8992 32.7044C13.9531 32.7039 14.0078 32.7023 14.0601 32.7005C14.1654 32.6968 14.2678 32.6919 14.3696 32.6867C14.5748 32.676 14.7779 32.6636 14.9804 32.6506C15.3862 32.6242 15.7888 32.5951 16.1919 32.5633C16.9985 32.4994 17.804 32.4248 18.6067 32.3317C18.6184 32.3303 18.6266 32.3293 18.6349 32.3282C20.2242 32.1321 21.7815 31.7116 23.3627 31.5C23.4077 31.494 23.456 31.4878 23.5006 31.4823C23.5026 31.4821 23.5045 31.4818 23.5065 31.4816C24.01 31.4236 24.5293 31.3461 25.0017 31.344C25.0754 31.344 25.146 31.3148 25.1981 31.2627C25.2502 31.2106 25.2795 31.1399 25.2795 31.0662C25.2795 30.9925 25.2502 30.9219 25.1981 30.8698C25.146 30.8177 25.0754 30.7884 25.0017 30.7884C24.4499 30.7929 23.9514 30.8719 23.4386 30.9301C23.4366 30.9304 23.4347 30.9306 23.4327 30.9308C23.3878 30.9364 23.3391 30.9422 23.2939 30.9475C21.7043 31.1353 20.0946 31.142 18.5125 31.3373C18.5043 31.3383 18.496 31.3393 18.4878 31.3403C17.6908 31.4335 16.8916 31.5411 16.0942 31.6489C15.6957 31.7026 15.2982 31.7565 14.8995 31.8074C14.7009 31.8328 14.5018 31.8574 14.3036 31.8799C14.2055 31.8909 14.1072 31.9015 14.0104 31.9106C13.9626 31.9151 13.9132 31.9193 13.8704 31.9224C13.8465 31.924 13.8265 31.9252 13.8092 31.9259C13.8025 31.9262 13.793 31.9263 13.7941 31.9267C13.7941 31.9269 13.7979 31.927 13.8123 31.9294C13.8181 31.931 13.8304 31.9301 13.8801 31.9479C13.9048 31.9581 13.9405 31.971 13.9948 32.0173C14.0511 32.0607 14.1402 32.1953 14.124 32.3388C14.1091 32.4792 14.0427 32.5467 14.0094 32.581C14.001 32.589 13.9937 32.5946 13.9892 32.5978C14.3546 32.4173 15.1136 32.1149 15.7111 31.9297C15.7156 31.9284 15.72 31.927 15.7245 31.9256C17.7313 31.321 19.7478 30.7189 21.7759 30.1913C21.7791 30.1904 21.7824 30.1896 21.7856 30.1888C22.2713 30.0637 22.7617 29.9625 23.2565 29.8764C23.5034 29.8331 23.7517 29.7943 24.0046 29.7495C24.1317 29.7264 24.2598 29.7029 24.398 29.6646C24.5262 29.614 24.7209 29.613 24.8778 29.3206C24.9348 29.2423 24.8578 29.018 24.7908 28.9941C24.7392 28.9559 24.7134 28.951 24.6927 28.9436C23.9595 28.9007 23.5602 28.8626 23.0077 28.8984C22.9962 28.8995 22.9846 28.9006 22.973 28.9017C21.2337 29.0817 19.5011 29.2598 17.7826 29.5031C17.7777 29.5038 17.7728 29.5045 17.7679 29.5052C16.9642 29.619 16.1646 29.742 15.3659 29.868C14.8381 29.95 14.1678 30.062 13.8001 30.1039Z" fill="black"/>
<path d="M1.30975 35.2472C1.16723 35.2743 1.04133 35.357 0.95975 35.477C0.878169 35.5969 0.847587 35.7444 0.874734 35.8869C0.901881 36.0295 0.984532 36.1554 1.10451 36.2369C1.22448 36.3185 1.37195 36.3491 1.51447 36.3219C1.65881 36.2945 1.80357 36.2669 1.94853 36.239C2.77636 36.0808 3.60693 35.9046 4.42924 35.7116C4.42927 35.7116 4.42929 35.7116 4.42931 35.7116C5.76326 35.3988 7.03107 34.8536 8.3494 34.545C8.34945 34.545 8.34949 34.545 8.34953 34.545C8.78119 34.4458 9.21172 34.3501 9.63464 34.286C9.77458 34.2649 9.91308 34.2486 10.0593 34.2325C10.1482 34.2227 10.2295 34.1779 10.2853 34.1081C10.3412 34.0383 10.367 33.9491 10.3571 33.8602C10.3473 33.7714 10.3025 33.6901 10.2327 33.6342C10.1629 33.5783 10.0737 33.5525 9.98483 33.5624C9.83886 33.5784 9.68591 33.5963 9.53469 33.6192C9.07583 33.689 8.63688 33.7872 8.19753 33.888C8.19749 33.888 8.19744 33.8881 8.1974 33.8881C6.86532 34.1999 5.49646 34.3377 4.18009 34.6463C4.18007 34.6463 4.18005 34.6463 4.18002 34.6463C3.36899 34.8366 2.56061 35.0081 1.74171 35.1646C1.59812 35.1923 1.4541 35.2197 1.30975 35.2472Z" fill="black"/>
<path d="M15.4777 32.6995C15.379 32.5977 15.2438 32.5392 15.102 32.537C14.9601 32.5349 14.8233 32.5891 14.7214 32.6879C14.6196 32.7866 14.5612 32.9218 14.559 33.0636C14.5568 33.2054 14.611 33.3423 14.7098 33.4442C14.8903 33.6001 14.8844 33.5571 14.9184 33.5793C14.9467 33.5898 14.9541 33.5918 14.9693 33.5965C14.9953 33.6042 15.012 33.6083 15.0286 33.6124C15.0607 33.6202 15.0875 33.6258 15.1137 33.631C15.1669 33.6416 15.2112 33.6493 15.2599 33.6573C15.3527 33.6726 15.443 33.6856 15.5332 33.6978C16.3999 33.8103 17.2465 33.8695 18.1007 33.9201C18.1018 33.9202 18.1028 33.9202 18.1039 33.9203C19.0288 33.9627 19.885 34.0513 20.7246 33.9871C20.7254 33.987 20.7262 33.9869 20.7269 33.9869C21.9164 33.884 23.0464 33.2847 24.2221 33.1756C24.2223 33.1756 24.2225 33.1756 24.2227 33.1756C24.4734 33.1528 24.7227 33.131 24.9697 33.1143C25.1413 33.1029 25.3028 33.0953 25.4729 33.0965C25.542 33.0965 25.6082 33.069 25.6571 33.0202C25.706 32.9713 25.7334 32.905 25.7334 32.8359C25.7334 32.7668 25.706 32.7006 25.6571 32.6517C25.6082 32.6028 25.542 32.5754 25.4729 32.5754C25.2958 32.5741 25.1098 32.5826 24.9351 32.5944C24.6795 32.6116 24.4283 32.6337 24.1754 32.6566C24.1752 32.6566 24.175 32.6567 24.1748 32.6567C22.9943 32.7659 21.7687 32.4116 20.6003 32.5126C20.5995 32.5127 20.5988 32.5127 20.598 32.5128C19.7548 32.5802 18.9293 32.8898 18.1647 32.8523C18.1639 32.8523 18.163 32.8522 18.1621 32.8522C17.3253 32.8029 16.4849 32.743 15.6761 32.6377C15.5933 32.6265 15.5114 32.6146 15.4339 32.6019C15.3936 32.5952 15.3577 32.5889 15.323 32.582C15.3063 32.5787 15.2905 32.5753 15.2809 32.5729C15.2764 32.5718 15.2726 32.5707 15.2769 32.572C15.2803 32.5731 15.2812 32.5731 15.2969 32.5788C15.3208 32.5972 15.3034 32.5495 15.4777 32.6995Z" fill="black"/>
<path d="M11.5554 30.3705C11.3709 30.3705 11.1939 30.4438 11.0634 30.5743C10.9328 30.7048 10.8595 30.8818 10.8595 31.0664C10.8595 31.251 10.9328 31.428 11.0634 31.5585C11.1939 31.689 11.3709 31.7623 11.5554 31.7623C11.6407 31.7623 11.7296 31.7635 11.8172 31.7656C12.121 31.7731 12.4354 31.7897 12.6896 31.8297C12.6921 31.8301 12.6946 31.8305 12.6971 31.8309C12.6281 31.8223 12.4892 31.7705 12.3964 31.6675C12.3029 31.566 12.2789 31.4737 12.2691 31.4325C12.2541 31.3487 12.2635 31.3726 12.2546 31.4182C12.2546 31.4183 12.2546 31.4184 12.2545 31.4185C12.2183 31.7283 11.8046 32.5206 11.7681 33.2597L12.5471 32.6349C12.5716 32.638 12.5947 32.6424 12.6162 32.6476C12.8526 32.72 12.8588 32.7768 12.8894 32.797C12.9107 32.8199 12.9115 32.8247 12.9105 32.8249C12.9066 32.8239 12.8889 32.8025 12.8709 32.7779C12.8336 32.7271 12.7887 32.6582 12.7452 32.5873C12.6572 32.4434 12.5697 32.284 12.5006 32.1158L12.4912 32.094C12.49 32.0912 12.4887 32.0884 12.4874 32.0857C12.4001 31.8756 12.235 31.6114 12.1303 31.4405C12.0758 31.3499 12.0266 31.2633 11.9801 31.1746C11.8901 30.9973 11.7144 30.9064 11.519 30.8979C11.3233 30.8897 11.1191 30.9687 10.9559 31.1135C10.7928 31.2582 10.6901 31.4516 10.675 31.6469C10.6602 31.842 10.7295 32.0272 10.8949 32.1377C10.9722 32.1885 11.0446 32.2407 11.1091 32.2927C11.2483 32.4099 11.3048 32.4577 11.3671 32.5958C11.368 32.5978 11.3689 32.5998 11.3698 32.6018L11.3604 32.58C11.4324 32.7578 11.4886 32.943 11.5574 33.1382C11.5923 33.236 11.6295 33.3359 11.6837 33.4477C11.7116 33.5043 11.742 33.5628 11.7932 33.6378C11.8197 33.6756 11.8494 33.7168 11.9037 33.7732C11.9674 33.826 12.0094 33.9145 12.2921 33.9992C12.3176 34.0053 12.3446 34.0104 12.373 34.014L13.0797 34.1083L13.1521 33.3892C13.1832 32.8583 13.4518 32.5365 13.6481 31.6142C13.6481 31.614 13.6481 31.6138 13.6482 31.6136C13.6594 31.5122 13.6844 31.3854 13.641 31.1547C13.6165 31.0409 13.5643 30.8765 13.4198 30.7202C13.2766 30.5618 13.0662 30.4779 12.9237 30.4576C12.9197 30.4569 12.9157 30.4563 12.9117 30.4556C12.5261 30.3965 12.1927 30.3837 11.8498 30.3741C11.752 30.3718 11.6541 30.3705 11.5554 30.3705Z" fill="black"/>
<path d="M24.6878 42.2332C24.5873 42.2494 24.4973 42.305 24.4376 42.3876C24.378 42.4702 24.3537 42.5731 24.3699 42.6737C24.3862 42.7743 24.4417 42.8643 24.5243 42.9239C24.6069 42.9835 24.7098 43.0079 24.8104 42.9916C26.6265 41.9602 27.4849 40.7248 28.6582 39.4577C29.3521 38.6509 30.0122 37.8128 30.6234 36.9364C30.6244 36.9349 30.6255 36.9333 30.6266 36.9317C33.0216 32.9858 32.0805 28.5003 32.238 24.3579C32.238 24.3543 32.238 24.3506 32.238 24.347C32.2214 20.6642 31.0025 17.1265 29.4913 13.8836C29.4856 13.8713 29.4799 13.859 29.4743 13.8467C28.028 10.3178 24.7814 7.6046 24.3189 4.20196C24.3167 4.17706 24.3154 4.15295 24.315 4.12892C24.2745 3.48071 25.0421 2.86195 25.8252 2.19721C25.8571 2.16824 25.8903 2.14042 25.9247 2.11364C26.4052 1.73684 27.1161 1.58413 27.854 1.46787C27.8957 1.46117 27.9378 1.45612 27.9801 1.45274C29.8699 1.48158 31.5409 3.51844 33.049 5.05911C33.0836 5.09646 33.1175 5.13403 33.1507 5.17184C34.3215 6.47693 34.7036 8.27014 35.0407 10.1084C35.051 10.1605 35.061 10.2135 35.0708 10.2673C35.6269 13.7653 35.3158 17.4517 35.0704 21.0692C35.0674 21.1094 35.0642 21.1498 35.0609 21.1903C34.7872 24.3179 34.0657 27.4363 33.3904 30.5741C33.384 30.6038 33.3777 30.6332 33.3715 30.6624C33.0026 32.5896 32.4095 34.2214 31.3814 35.8661C31.3714 35.8831 31.3613 35.9002 31.3512 35.9174C30.1583 37.9218 28.8653 39.8967 27.5501 41.8401C27.2156 42.3318 26.8797 42.8189 26.5376 43.2993C26.5327 43.3063 26.5278 43.3131 26.5229 43.32C26.2195 43.743 25.9327 44.1798 25.6517 44.5687C25.332 44.9802 25.247 45.1605 24.7046 45.3006C24.6103 45.3283 24.5231 45.383 24.4632 45.463C24.4034 45.543 24.3757 45.6406 24.3865 45.7369C24.3974 45.8333 24.4461 45.9223 24.5222 45.9869C24.5984 46.0517 24.6956 46.0856 24.7937 46.0916C25.0561 46.1084 25.4241 46.1057 25.7687 45.9422C26.1051 45.7851 26.344 45.5728 26.5559 45.3723C26.9758 44.9633 27.3054 44.5402 27.6199 44.1028C27.625 44.0957 27.63 44.0886 27.6351 44.0815C27.9863 43.5883 28.3261 43.095 28.6643 42.5973C29.9941 40.6296 31.2853 38.6526 32.5049 36.5961C32.5153 36.5784 32.5256 36.5608 32.5359 36.5432C33.5829 34.8958 34.2796 32.8113 34.6097 30.9235C34.6159 30.8939 34.622 30.8641 34.6282 30.8341C35.2779 27.7048 36.0104 24.5539 36.2697 21.2831C36.2728 21.2405 36.2757 21.198 36.2786 21.1556C36.4893 17.4907 36.7235 13.8072 36.074 10.0754C36.0624 10.0174 36.0506 9.96002 36.0385 9.90341C35.676 8.10861 35.2324 6.0613 33.8528 4.54917C33.8139 4.50556 33.7741 4.46222 33.7335 4.41917C32.1093 2.88608 30.7212 0.724456 27.9089 0.560806C27.8439 0.565992 27.7787 0.573657 27.7141 0.583784C26.9637 0.707085 26.1124 0.819638 25.3597 1.36534C25.3069 1.40447 25.2552 1.44558 25.2047 1.48882C24.5495 2.07662 23.3235 2.6803 23.2831 4.14568C23.2838 4.1945 23.2863 4.24294 23.2906 4.2921C23.9588 8.46475 27.1736 10.8747 28.5248 14.2855C28.5304 14.2976 28.536 14.3097 28.5416 14.3218C30.0303 17.5164 31.2539 20.8707 31.3118 24.3588C31.3119 24.3624 31.3119 24.3661 31.312 24.3697C31.2367 28.5002 32.1405 33.0599 29.9962 36.4927C29.9951 36.4942 29.9941 36.4957 29.993 36.4972C29.3996 37.3482 28.7546 38.1675 28.0759 38.9565C27.0391 40.1494 25.7166 41.5614 24.6878 42.2332Z" fill="black"/>
</svg>
