<svg width="38" height="33" viewBox="0 0 38 33" fill="none" xmlns="http://www.w3.org/2000/svg">
<path d="M5.06914 31.0077C5.06914 31.1132 5.11103 31.2143 5.18561 31.2889C5.26018 31.3635 5.36133 31.4054 5.4668 31.4054C5.57226 31.4054 5.67341 31.3635 5.74799 31.2889C5.82256 31.2143 5.86446 31.1132 5.86446 31.0077C5.94011 29.4128 6.14096 27.7181 6.31853 26.071C6.59453 23.6038 6.90198 21.1418 7.22244 18.6879C7.23664 18.5793 7.251 18.4699 7.26552 18.3597C7.82158 14.1983 8.76918 10.0883 9.59553 5.9389C9.63866 5.71818 9.68169 5.4967 9.72312 5.2795C9.93068 4.18797 10.1361 3.09304 10.2973 1.9851C10.316 1.85707 10.3337 1.73186 10.3523 1.60611C10.3673 1.49614 10.4002 1.32186 10.3985 1.34363C10.4156 1.26041 10.5151 1.23864 10.3276 1.34633C10.2246 1.39176 10.0943 1.3526 10.0841 1.34248C10.0604 1.3296 10.0789 1.34004 10.0978 1.36182C10.1887 1.45883 10.3154 1.675 10.4145 1.87623C10.6227 2.29873 10.7977 2.75655 10.9639 3.22228C11.2921 4.15053 11.5777 5.11635 11.8453 6.08137C12.3743 8.01283 12.8544 9.98162 13.2367 11.9267C13.2434 11.9618 13.2496 11.9966 13.2556 12.032C13.2884 12.2263 13.3214 12.425 13.3505 12.6361C13.3653 12.7428 13.3786 12.8502 13.3951 12.9738C13.4038 13.0364 13.4122 13.1016 13.4297 13.1891C13.4394 13.2347 13.4487 13.2821 13.4771 13.3615C13.5181 13.4288 13.5128 13.5963 13.8565 13.769C13.9498 13.8063 14.0591 13.8318 14.1745 13.8334C14.4938 13.8358 14.7084 13.6775 14.8307 13.5714C14.9582 13.4575 15.0377 13.3544 15.1101 13.2579C15.2511 13.0656 15.3548 12.8927 15.4587 12.7315C15.6577 12.4142 15.8752 12.1256 16.0298 12.0366C16.079 12.0057 16.1298 11.9774 16.1824 11.9514C16.9209 11.5842 17.9979 11.7431 18.9661 12.0722C19.0104 12.0873 19.0541 12.1033 19.0973 12.1204C20.0039 12.4658 20.8191 13.3895 21.2246 14.2439C21.2571 14.3221 21.2734 14.3695 21.3464 14.4837C21.3714 14.5211 21.4014 14.561 21.4425 14.6039C21.4795 14.6406 21.5413 14.7073 21.6769 14.7698C21.9554 14.9176 22.3557 14.7591 22.4576 14.633C22.6354 14.4511 22.6497 14.3643 22.6922 14.2805C22.7557 14.1292 22.7869 14.018 22.8213 13.8972C22.8825 13.6763 22.9314 13.4596 22.9773 13.2537C23.0698 12.834 23.1535 12.4264 23.2411 12.0209C23.4154 11.2103 23.602 10.4074 23.8198 9.61685C24.2551 8.04189 24.8044 6.49922 25.599 5.14385C25.7348 4.91339 25.8786 4.6879 26.0301 4.46792C26.6727 3.52587 27.4475 2.74906 28.3416 1.89388C28.2956 1.95025 28.1048 2.06942 27.9145 2.05612C27.7303 2.045 27.6643 1.98455 27.6408 1.97098C27.6001 1.93657 27.6541 1.98463 27.6904 2.04496C27.7447 2.1278 27.8071 2.24165 27.8634 2.36216C27.9538 2.55643 28.0372 2.76371 28.1067 2.98019C28.8225 5.42519 29.0511 8.19828 29.3662 10.8783C29.3842 11.0438 29.4017 11.2147 29.4181 11.3827C29.7557 15.0573 29.8567 18.7962 29.8313 22.5014L29.8327 22.4612C29.8282 22.5336 29.8237 22.6057 29.8192 22.6772C29.7194 24.2586 29.6172 25.8389 29.5041 27.4192C29.4086 28.9275 29.2484 30.2752 29.2005 31.9623C29.2013 31.9766 29.2025 31.9911 29.204 32.0061L29.2687 32.2506C29.295 32.3023 29.3219 32.367 29.4253 32.4727C29.5127 32.5834 29.849 32.7388 30.0918 32.6691C30.5168 32.5311 30.4797 32.4238 30.5414 32.3765C30.6139 32.2722 30.6228 32.235 30.6411 32.1917C30.6705 32.1125 30.6807 32.0583 30.6905 32.0044C30.7085 31.8988 30.7148 31.8066 30.7278 31.7188C30.7478 31.5796 30.7066 31.426 30.627 31.2964C30.5467 31.1665 30.4345 31.0712 30.3015 31.0268C30.1685 30.9825 30.0216 30.9915 29.8794 31.0472C29.738 31.1031 29.6129 31.2013 29.5453 31.3246C29.5033 31.4016 29.4552 31.4743 29.413 31.5318C29.3926 31.5591 29.3714 31.5864 29.3638 31.5857C29.3632 31.5817 29.3528 31.5828 29.3991 31.5141C29.4477 31.4834 29.3957 31.3947 29.7995 31.262C30.0315 31.1948 30.3568 31.3456 30.4365 31.4485C30.5324 31.5466 30.5539 31.6022 30.5753 31.6433L30.64 31.8879C30.6403 31.8882 30.6404 31.8871 30.6404 31.8848C30.7018 30.6021 30.8906 28.9931 31.0082 27.538C31.1455 25.9516 31.2671 24.3638 31.3673 22.7749C31.3719 22.703 31.3764 22.6306 31.3809 22.5578L31.3824 22.5176C31.4072 18.7506 31.2986 15.0045 30.9527 11.2331C30.9359 11.06 30.9178 10.8836 30.8993 10.7121C30.5743 7.99347 30.3934 5.29953 29.5904 2.50552C29.5091 2.25072 29.4236 1.99201 29.3183 1.73325C29.2427 1.54953 29.1559 1.36464 29.0295 1.1699C28.9287 1.02259 28.8285 0.867326 28.5874 0.682738C28.4638 0.595827 28.2817 0.47554 27.9714 0.459605C27.6546 0.440114 27.3442 0.621641 27.2108 0.767604C26.3726 1.58198 25.4567 2.54661 24.7635 3.615C24.5966 3.86785 24.4383 4.12714 24.2897 4.39177C23.4227 5.9466 22.886 7.60473 22.4659 9.26063C22.2569 10.0908 22.0822 10.925 21.9222 11.7508C21.8419 12.1631 21.7654 12.5758 21.6842 12.9796C21.6444 13.1762 21.6011 13.3819 21.5562 13.5556C21.5328 13.6467 21.5063 13.7329 21.4906 13.7717C21.4907 13.7866 21.4557 13.8009 21.5669 13.683C21.6233 13.5996 21.9765 13.4555 22.2058 13.5813C22.4285 13.704 22.3914 13.7276 22.4257 13.7598C22.4476 13.7951 22.4374 13.7833 22.4298 13.7632C21.79 12.4818 20.892 11.4889 19.5535 10.9451C19.4912 10.9212 19.4281 10.8987 19.3638 10.8776C18.2483 10.5318 16.9388 10.2288 15.6289 10.8564C15.5384 10.9027 15.45 10.9542 15.3642 11.0109C14.8632 11.3625 14.6623 11.7688 14.4492 12.1101C14.3474 12.2817 14.2523 12.4472 14.1647 12.5719C14.0949 12.7102 13.9354 12.7233 14.1925 12.6728C14.2333 12.6732 14.27 12.6827 14.292 12.6911C14.5836 12.8416 14.5528 12.952 14.5751 12.9687C14.5847 12.9951 14.5825 12.9895 14.5821 12.9801C14.5801 12.9587 14.5769 12.9123 14.5752 12.8647C14.5716 12.7671 14.5706 12.6541 14.5675 12.5388C14.5616 12.308 14.5475 12.064 14.5065 11.8212C14.499 11.777 14.4911 11.7332 14.4826 11.6887C14.0848 9.67448 13.5649 7.70867 12.9781 5.75312C12.6815 4.77691 12.3646 3.80091 11.9958 2.83994C11.8075 2.35525 11.6139 1.88051 11.3576 1.39102C11.2251 1.14955 11.0997 0.905835 10.845 0.635886C10.7779 0.569413 10.6983 0.493819 10.5635 0.422703C10.4537 0.357129 10.1757 0.288343 9.96089 0.380962C9.727 0.481234 9.65592 0.593238 9.57444 0.708032C9.51538 0.80035 9.47773 0.88378 9.44187 0.978651C9.35864 1.24072 9.36892 1.32897 9.34633 1.46815C9.32973 1.60001 9.31499 1.72312 9.29911 1.84988C9.16368 2.93826 8.998 4.02697 8.81185 5.11442C8.77504 5.32914 8.7358 5.54879 8.6954 5.76797C7.91869 9.90287 7.0357 14.0479 6.47683 18.2561C6.46239 18.3665 6.44805 18.476 6.43383 18.5848C6.11291 21.0422 5.80496 23.5081 5.52811 25.9828C5.34949 27.6521 5.14998 29.2798 5.06914 31.0077Z" fill="black"/>
<path d="M15.231 17.8798C15.4296 17.8798 15.6201 17.8009 15.7606 17.6605C15.9011 17.52 15.98 17.3295 15.98 17.1309C15.98 16.9322 15.9011 16.7417 15.7606 16.6012C15.6201 16.4608 15.4296 16.3819 15.231 16.3819C15.2094 16.3826 15.1645 16.3791 15.067 16.3916C14.9773 16.406 14.7766 16.4361 14.5784 16.6334C14.3412 16.8875 14.3457 17.1284 14.3429 17.2347C14.3454 17.3537 14.3613 17.4184 14.3746 17.4769C14.3754 17.4804 14.3763 17.4839 14.3772 17.4874C14.4614 17.7776 14.5382 17.8504 14.6149 17.9841C14.69 18.1045 14.7569 18.2192 14.7836 18.3354C14.7838 18.3363 14.784 18.3372 14.7842 18.3381C14.8465 18.6134 14.855 18.9536 14.8553 19.3212C14.8554 19.3617 14.8554 19.4025 14.8554 19.4437C14.8554 19.6114 14.922 19.7723 15.0407 19.8909C15.1593 20.0096 15.3202 20.0762 15.488 20.0762C15.6557 20.0762 15.8166 20.0096 15.9353 19.8909C16.0539 19.7723 16.1205 19.6114 16.1205 19.4437C16.1205 19.4025 16.1205 19.3609 16.1205 19.319C16.1181 18.9372 16.1194 18.5205 16.0186 18.0612C16.0183 18.0597 16.018 18.0581 16.0176 18.0566C15.9752 17.867 15.9457 17.6829 15.913 17.5091C15.8846 17.3479 15.8308 17.1342 15.83 17.1225C15.8301 17.1229 15.8303 17.1234 15.8304 17.124C15.832 17.1338 15.839 17.1499 15.8407 17.2186C15.8374 17.2759 15.8503 17.4636 15.6487 17.6814C15.4796 17.8488 15.3209 17.8666 15.2717 17.8755C15.215 17.8824 15.2114 17.8792 15.231 17.8798Z" fill="black"/>
<path d="M19.085 17.1703C19.2998 17.1703 19.5058 17.085 19.6577 16.9331C19.8096 16.7812 19.8949 16.5752 19.8949 16.3604C19.8949 16.1455 19.8096 15.9395 19.6577 15.7876C19.5058 15.6357 19.2998 15.5504 19.085 15.5504C19.0507 15.5563 18.9434 15.5272 18.6868 15.6195C18.409 15.7096 18.1789 16.054 18.1496 16.2103C18.1066 16.3593 18.106 16.4481 18.1041 16.5238C18.1041 16.5278 18.1041 16.5317 18.1041 16.5356C18.1256 16.9367 18.162 17.0207 18.1842 17.2254C18.2082 17.4076 18.228 17.5883 18.2457 17.7732C18.2459 17.7745 18.246 17.7759 18.2461 17.7773C18.3109 18.4895 18.5816 19.2558 18.7603 20.0164C18.7757 20.0822 18.7904 20.1491 18.8042 20.215C18.8169 20.2756 18.8577 20.3337 18.9101 20.3766C18.963 20.4195 19.0232 20.4435 19.085 20.4435C19.1467 20.4435 19.2069 20.4195 19.2598 20.3766C19.3123 20.3337 19.353 20.2756 19.3658 20.215C19.3795 20.1491 19.3942 20.0821 19.4096 20.0161C19.5851 19.2499 19.861 18.4884 19.837 17.6762C19.8369 17.6746 19.8369 17.6731 19.8368 17.6715C19.8291 17.4577 19.8127 17.243 19.7883 17.0293C19.767 16.838 19.7211 16.5303 19.724 16.5334C19.724 16.5342 19.724 16.5351 19.724 16.5361C19.7227 16.5541 19.7268 16.5857 19.7001 16.6796C19.6886 16.7727 19.5014 17.0574 19.2868 17.1243C19.0925 17.1923 19.0533 17.1647 19.085 17.1703Z" fill="black"/>
<path d="M16.002 21.9548C15.8501 21.9548 15.7045 22.0151 15.5971 22.1225C15.4897 22.2298 15.4294 22.3755 15.4294 22.5273C15.4294 22.6792 15.4897 22.8248 15.5971 22.9322C15.7045 23.0396 15.8501 23.0999 16.002 23.0999C16.1251 23.1 16.2555 23.1018 16.3817 23.1043C17.0314 23.1192 17.6892 23.1516 18.3019 23.2413C18.3432 23.2475 18.3856 23.2543 18.4259 23.2612C18.4948 23.2623 18.509 23.327 18.3853 23.188C18.2705 22.9967 18.3549 22.917 18.3226 22.975C18.2802 23.0715 18.1289 23.2592 17.976 23.4166C17.819 23.5801 17.644 23.7421 17.4619 23.9048C17.3704 23.9866 17.2776 24.0678 17.1814 24.153C17.1328 24.1962 17.0851 24.2385 17.0317 24.288C16.9744 24.3468 16.9464 24.3494 16.815 24.5258L17.7568 24.5192C17.7407 24.4957 17.7224 24.4669 17.7037 24.4363C17.4983 24.0931 17.3058 23.6616 17.0866 23.2521L17.1049 23.2857C17.0999 23.2744 17.0949 23.263 17.0901 23.2515C17.0478 23.1524 17.0156 23.0459 16.9865 22.932C16.9576 22.8188 16.9317 22.6979 16.9008 22.5704C16.8585 22.3953 16.7491 22.2504 16.5884 22.1703C16.4281 22.0899 16.2297 22.0809 16.045 22.1425C15.8603 22.2041 15.707 22.3303 15.627 22.4907C15.5465 22.6513 15.5459 22.8329 15.6171 22.9983C15.6688 23.1187 15.7256 23.2459 15.7878 23.3777C15.8503 23.5103 15.9185 23.6472 15.9912 23.7848C15.9997 23.8007 16.0082 23.8166 16.0169 23.8325L16.0351 23.8661C16.271 24.2301 16.4819 24.6021 16.7362 25.0291C16.7616 25.0704 16.7883 25.1127 16.8194 25.1585L17.2949 25.8562L17.7612 25.1519C17.6998 25.2312 17.7726 25.1445 17.8026 25.1208C17.8434 25.0832 17.8874 25.0441 17.9334 25.0035C18.0251 24.9227 18.1209 24.8394 18.2174 24.7538C18.4102 24.5826 18.6046 24.4056 18.7965 24.2078C18.9871 24.0033 19.1809 23.8133 19.359 23.4574C19.4016 23.3636 19.4456 23.257 19.4639 23.095C19.4838 22.9416 19.4489 22.7032 19.3211 22.5291C19.042 22.1814 18.7989 22.1776 18.6199 22.1327C18.5713 22.1243 18.5211 22.1162 18.4729 22.1089C17.7654 22.0061 17.0884 21.9757 16.4052 21.9594C16.2724 21.9567 16.1377 21.9548 16.002 21.9548Z" fill="black"/>
<path d="M23.4269 22.4998C23.5558 22.3709 23.6282 22.196 23.6282 22.0137C23.6282 21.8314 23.5558 21.6565 23.4269 21.5276C23.298 21.3986 23.1231 21.3262 22.9408 21.3262C22.7584 21.3262 22.5836 21.3986 22.4546 21.5276C22.4296 21.5532 22.399 21.5841 22.357 21.6473C22.3324 21.6901 22.3246 21.6849 22.277 21.8136C22.2211 21.9388 22.2192 22.2926 22.4229 22.497C22.6252 22.6895 22.669 22.6651 22.7548 22.6995C22.8281 22.719 22.8781 22.7223 22.9177 22.724C23.0004 22.725 22.9972 22.7221 23.0278 22.7197C23.1265 22.7067 23.137 22.7001 23.1752 22.6911C23.2291 22.6766 23.2696 22.6633 23.3059 22.6512C23.38 22.6262 23.4409 22.6037 23.5071 22.5788C23.633 22.5311 23.7489 22.4849 23.8686 22.4365C25.483 21.7712 27.0447 21.0767 28.6274 20.3858C28.6528 20.3751 28.6866 20.3609 28.7203 20.3467C30.4036 19.6393 32.1293 19.0153 33.8341 18.4048C33.847 18.4002 33.8598 18.3957 33.8725 18.3912C34.6812 18.101 35.495 17.8422 36.3359 17.5359C36.5746 17.4484 36.8108 17.358 37.0475 17.2634C37.2132 17.197 37.3499 17.0707 37.4258 16.9079C37.5018 16.745 37.511 16.5597 37.4512 16.3916C37.3914 16.2236 37.2671 16.0858 37.1054 16.0075C36.9436 15.9293 36.7579 15.9178 36.5875 15.971C36.3531 16.0441 36.121 16.1148 35.8861 16.185C35.0675 16.4281 34.2072 16.6737 33.37 16.974C33.3568 16.9787 33.3436 16.9834 33.3303 16.9882C31.577 17.6182 29.8905 18.3636 28.1862 19.0797C28.152 19.0941 28.1179 19.1085 28.0837 19.1229C26.4988 19.8149 24.9196 20.5163 23.3528 21.1619C23.2392 21.2079 23.1297 21.2514 23.0212 21.2925C22.9651 21.3137 22.9139 21.3324 22.8687 21.3476C22.8477 21.3547 22.8251 21.3616 22.8223 21.3622C22.8257 21.3621 22.8136 21.3615 22.877 21.353C22.8993 21.3514 22.8939 21.3489 22.9649 21.3498C22.9996 21.3513 23.0454 21.3541 23.1154 21.3727C23.1977 21.406 23.2398 21.3812 23.4389 21.5706C23.64 21.7721 23.6375 22.1221 23.5833 22.2424C23.5375 22.3663 23.5305 22.3601 23.5078 22.3997C23.4695 22.4573 23.4445 22.4817 23.4269 22.4998Z" fill="black"/>
<path d="M24.3021 23.6756C24.1294 23.7912 24.0098 23.9708 23.9695 24.1747C23.9293 24.3785 23.9716 24.5901 24.0873 24.7627C24.203 24.9354 24.3825 25.055 24.5864 25.0953C24.7903 25.1356 25.0018 25.0932 25.1745 24.9775C25.2286 24.9415 25.4521 24.8321 25.6232 24.7558C27.9906 23.7346 30.5271 22.8877 33.0424 22.1258L32.9852 22.1406C32.9855 22.1406 32.9858 22.1405 32.9861 22.1404C33.7481 21.9733 34.4975 21.6532 35.2973 21.4913C35.2975 21.4912 35.2976 21.4912 35.2978 21.4912C35.5955 21.4303 35.8887 21.3785 36.1894 21.337C36.3956 21.3082 36.6055 21.2827 36.8162 21.2566C36.8797 21.2487 36.9405 21.2132 36.9854 21.1625C37.0303 21.1116 37.0555 21.0497 37.0555 20.9858C37.0555 20.922 37.0303 20.8601 36.9854 20.8092C36.9405 20.7585 36.8797 20.723 36.8162 20.7151C36.6054 20.6891 36.3941 20.663 36.1793 20.6403C35.866 20.6067 35.5464 20.584 35.2313 20.5678C35.2311 20.5678 35.231 20.5678 35.2308 20.5678C34.3874 20.5219 33.4992 20.4234 32.6511 20.6095C32.6507 20.6095 32.6504 20.6096 32.6501 20.6097L32.5928 20.6245C30.0182 21.4062 27.4996 22.2408 24.9786 23.3273C24.7652 23.4276 24.6031 23.488 24.3021 23.6756Z" fill="black"/>
<path d="M25.7701 25.0927C25.6325 25.0236 25.4732 25.012 25.3271 25.0605C25.1809 25.109 25.0601 25.2135 24.991 25.3511C24.922 25.4886 24.9104 25.648 24.9589 25.7941C25.0073 25.9402 25.1118 26.0611 25.2494 26.1301C25.5123 26.2554 25.7051 26.2971 25.9087 26.3473C28.3559 26.8166 30.6983 26.7509 33.0712 26.6211L33.1467 26.6112C33.1476 26.611 33.1486 26.6108 33.1495 26.6107C33.9051 26.4605 34.6159 26.1297 35.3076 25.7855C35.3078 25.7854 35.3081 25.7853 35.3084 25.7851C35.5891 25.6459 35.8645 25.483 36.1209 25.306C36.2846 25.1935 36.44 25.0771 36.5891 24.9653C36.6904 24.8893 36.7573 24.7763 36.7752 24.651C36.7931 24.5257 36.7605 24.3984 36.6846 24.2972C36.6086 24.1959 36.4956 24.129 36.3703 24.1111C36.245 24.0932 36.1177 24.1258 36.0165 24.2017C35.8672 24.3137 35.7239 24.4208 35.5802 24.5195C35.3554 24.6745 35.1264 24.8099 34.8831 24.9307C34.8829 24.9308 34.8827 24.9309 34.8824 24.931C34.2751 25.2325 33.5897 25.3401 32.9238 25.472C32.923 25.4722 32.9222 25.4723 32.9214 25.4725L32.9969 25.4626C30.7086 25.5945 28.3276 25.6342 26.1714 25.2167C26.0139 25.1809 25.8389 25.1281 25.7701 25.0927Z" fill="black"/>
<path d="M1.09795 17.1965C1.25158 17.1965 1.39893 17.1355 1.50757 17.0268C1.61621 16.9182 1.67724 16.7708 1.67724 16.6172C1.67724 16.4635 1.61621 16.3162 1.50757 16.2076C1.39893 16.0989 1.25158 16.0379 1.09795 16.0379C1.05587 16.039 1.00206 16.0374 0.901111 16.0699C0.882998 16.0761 0.703371 16.133 0.591637 16.3143C0.535251 16.4026 0.504975 16.5138 0.503032 16.6055C0.50135 16.6806 0.510344 16.7263 0.521772 16.7723C0.572339 16.9447 0.63806 16.995 0.649019 17.0132C0.6711 17.0387 0.688975 17.056 0.704688 17.0704C0.753879 17.1144 0.779897 17.1308 0.79983 17.145C0.845365 17.1761 0.875716 17.1941 0.904662 17.2113C0.966186 17.2476 1.01831 17.2761 1.07357 17.3058C1.18009 17.3628 1.2852 17.4162 1.38817 17.4677C2.42171 17.9775 3.44749 18.4333 4.4842 18.8943L4.50485 18.903C4.53217 18.9138 4.55945 18.9247 4.5867 18.9355C6.76556 19.7925 8.91861 20.7322 11.2283 21.3399L11.2419 21.3432C11.249 21.3449 11.2561 21.3466 11.2632 21.3483C11.8249 21.479 12.3418 21.558 12.8663 21.6578C13.0794 21.6972 13.2941 21.7375 13.5124 21.7777C13.651 21.8036 13.7977 21.7868 13.9241 21.7194C14.0505 21.6521 14.1457 21.5413 14.1897 21.4086C14.2337 21.2759 14.2236 21.1301 14.1625 21.0006C14.1014 20.8711 13.9938 20.7699 13.8673 20.7078C13.8673 20.7078 13.8673 20.7078 13.8673 20.7078C13.6575 20.6061 13.4443 20.5115 13.2256 20.4251C12.6856 20.2087 12.1133 20.063 11.5939 19.9418C11.5872 19.9402 11.5805 19.9387 11.5738 19.9371L11.5874 19.9404C9.39537 19.3665 7.16287 18.7047 5.01347 17.8583C4.98657 17.8477 4.95963 17.837 4.93265 17.8263L4.9533 17.8349C3.92591 17.3782 2.89492 16.9192 1.90613 16.4314C1.80937 16.383 1.71134 16.333 1.62098 16.2846C1.57475 16.2598 1.5317 16.2361 1.49462 16.2142C1.47835 16.2046 1.4603 16.1932 1.45682 16.1907C1.45653 16.191 1.45576 16.1882 1.48578 16.2147C1.49551 16.2236 1.50842 16.2358 1.52655 16.2567C1.53468 16.2719 1.59324 16.3127 1.64282 16.4798C1.65387 16.5243 1.66268 16.5688 1.66104 16.6424C1.65915 16.7323 1.62936 16.8419 1.57389 16.9287C1.46353 17.1071 1.28949 17.1614 1.27305 17.1671C1.17732 17.1978 1.13076 17.1953 1.09795 17.1965Z" fill="black"/>
<path d="M2.05983 22.9209C2.16417 22.9383 2.27115 22.9135 2.35723 22.852C2.44331 22.7906 2.50144 22.6974 2.51883 22.593C2.53622 22.4887 2.51145 22.3817 2.44996 22.2956C2.38848 22.2096 2.29532 22.1514 2.19097 22.134C1.95826 22.095 1.72733 22.0577 1.52683 22.0067C1.4617 21.99 1.39929 21.9708 1.35522 21.9526C1.31271 21.9444 1.28423 21.8835 1.36602 21.9971C1.36869 22.002 1.37127 22.0072 1.37372 22.0125C1.4438 22.2312 1.34508 22.2606 1.38859 22.2425C1.41342 22.2297 1.46632 22.2042 1.52342 22.1841C1.63976 22.1419 1.77715 22.1086 1.90867 22.0644L1.76659 22.0945C1.77468 22.0942 1.78277 22.0938 1.79088 22.0934C4.79976 22.013 7.87247 22.9769 10.7618 24.0511L10.7733 24.0554C10.776 24.0564 10.7788 24.0574 10.7816 24.0584C11.3538 24.2654 12.0193 24.4011 12.6758 24.3287C12.9297 24.3024 13.1767 24.2516 13.4217 24.1861C13.4483 24.1788 13.4743 24.1667 13.4944 24.1477C13.5145 24.1286 13.5271 24.1043 13.5295 24.0783C13.5319 24.0523 13.5239 24.026 13.5076 24.0036C13.4913 23.9812 13.468 23.9646 13.4431 23.9526C13.2161 23.8436 12.9905 23.7446 12.7762 23.6492C12.2319 23.4104 11.7439 23.1611 11.1784 22.958C11.1757 22.9571 11.1731 22.9561 11.1704 22.9552L11.1818 22.9594C8.17852 21.8521 5.05754 20.9407 1.72768 21.0798C1.71858 21.0804 1.7095 21.0811 1.70043 21.0819L1.55834 21.112C1.37754 21.1834 1.20973 21.2878 1.04367 21.4223C0.960146 21.4912 0.877334 21.5641 0.786761 21.6718C0.741915 21.7273 0.692628 21.7898 0.647593 21.8946C0.602802 21.9917 0.570433 22.1856 0.649162 22.3462C0.653973 22.3567 0.659098 22.3669 0.664498 22.3769C0.827696 22.6284 0.951909 22.6371 1.05139 22.6902C1.15237 22.7313 1.2414 22.7566 1.32782 22.7792C1.58707 22.8446 1.82522 22.8811 2.05983 22.9209Z" fill="black"/>
<path d="M1.98868 28.5585C2.08881 28.4584 2.14506 28.3226 2.14506 28.181C2.14506 28.0394 2.08881 27.9036 1.98868 27.8034C1.88856 27.7033 1.75276 27.6471 1.61116 27.6471C1.46956 27.6471 1.33376 27.7033 1.23363 27.8034C1.14878 27.8892 1.05437 27.9792 0.947882 28.1122C0.894852 28.181 0.835993 28.2577 0.779441 28.3892C0.724658 28.5092 0.67044 28.7672 0.783908 28.9967C0.86094 29.1564 0.966838 29.2443 1.04899 29.3022L1.17858 29.3919L1.33612 29.3969C1.34584 29.3972 1.35557 29.3975 1.3653 29.3978C4.54137 29.437 7.65743 28.7088 10.4569 27.2143L10.4838 27.1987C10.4872 27.1967 10.4905 27.1946 10.4939 27.1926C11.5622 26.5445 12.5716 25.8375 13.5646 25.1314C13.7602 24.9922 13.955 24.853 14.1496 24.7141C14.3206 24.5919 14.436 24.4069 14.4706 24.1996C14.5051 23.9923 14.4559 23.7798 14.3338 23.6088C14.2116 23.4378 14.0266 23.3224 13.8193 23.2878C13.6121 23.2533 13.3996 23.3025 13.2286 23.4246C13.034 23.5636 12.8399 23.7022 12.6459 23.8402C11.661 24.5406 10.6801 25.2263 9.67244 25.8374C9.66929 25.8393 9.66613 25.8412 9.66297 25.8431L9.68986 25.8275C7.16436 27.188 4.30256 28.3702 1.396 28.3304C1.38722 28.3301 1.37844 28.3299 1.36967 28.3296L1.6568 28.4243C1.66772 28.4328 1.70953 28.4594 1.74921 28.5402C1.80913 28.6608 1.77307 28.789 1.76489 28.8004C1.75494 28.8215 1.76494 28.7994 1.78575 28.7742C1.82826 28.7199 1.90488 28.642 1.98868 28.5585Z" fill="black"/>
</svg>
