<svg width="34" height="43" viewBox="0 0 34 43" fill="none" xmlns="http://www.w3.org/2000/svg">
<path d="M14.3033 41.9405C14.5504 41.9405 14.7873 41.8424 14.9619 41.6677C15.1366 41.4931 15.2347 41.2561 15.2347 41.0091C15.2347 40.7621 15.1366 40.5252 14.9619 40.3505C14.7873 40.1758 14.5504 40.0777 14.3033 40.0777C14.4 40.0763 14.5825 40.1015 14.7488 40.2087C14.9152 40.315 14.9995 40.4445 15.0428 40.5283C15.116 40.6828 15.1054 40.7186 15.1107 40.7343C15.1129 40.7618 15.1097 40.7131 15.1125 40.6667C15.1169 40.568 15.1319 40.427 15.1484 40.2979C15.1837 40.0229 15.2295 39.7385 15.2777 39.4515C15.3739 38.8834 15.4838 38.2916 15.5927 37.7143C15.9464 35.8495 16.3215 33.9663 16.6915 32.0987C16.6974 32.0693 16.7032 32.0398 16.7091 32.0101C17.9081 26.1398 19.2919 19.8977 20.5283 14.4802C20.5358 14.4619 20.5429 14.4547 20.5236 14.4953C20.496 14.5335 20.474 14.65 20.1875 14.8616C20.1098 14.9157 19.9723 14.9923 19.7696 15.0227C19.5631 15.0561 19.336 15.0124 19.2007 14.9526C18.9309 14.8253 18.9299 14.7647 18.924 14.7743C18.9363 14.7935 19.0292 14.9626 19.1006 15.1387C19.2536 15.5051 19.4005 15.957 19.5453 16.4178C19.8405 17.3482 20.1038 18.3207 20.5525 19.3822C20.5648 19.4106 20.5774 19.4388 20.5902 19.4668C20.7236 19.7485 21.0151 20.3099 21.7968 20.5509C22.5758 20.7487 23.042 20.4669 23.2998 20.3237C23.8181 19.9883 24.0133 19.7052 24.2552 19.4352C24.266 19.4225 24.2766 19.4099 24.2871 19.3974C25.9674 17.3229 26.5687 15.0766 27.7904 13.7353C27.8077 13.7154 27.8251 13.6958 27.8427 13.6763C27.8131 13.7008 27.791 13.7761 27.5034 13.9156C27.346 13.9858 27.0867 14.0519 26.7889 14.0004C26.5029 13.954 26.2781 13.8036 26.1787 13.7146C25.9585 13.5082 25.9647 13.451 25.9439 13.4276C25.9318 13.4046 25.9387 13.4229 25.9451 13.4509C25.9778 13.5772 26.019 13.8463 26.0435 14.1033C26.095 14.6304 26.1169 15.2184 26.1329 15.8024C26.1645 16.9808 26.1676 18.1896 26.2408 19.4309C26.2485 19.5616 26.2567 19.6934 26.2652 19.8263C26.5967 25.0018 26.8926 30.1794 27.0701 35.3523L27.084 35.5132C27.0885 35.5483 27.093 35.583 27.0975 35.6174C27.1886 36.3225 27.2832 37.0322 27.3653 37.7117C27.4147 38.1241 27.4568 38.5192 27.4814 38.8965L27.4986 39.0363C27.5014 39.0547 27.5043 39.0728 27.5072 39.0907C27.6829 39.9967 27.7478 40.4642 27.8149 41.211C27.8583 41.6876 28.0897 42.1233 28.4639 42.4217C28.8378 42.7201 29.324 42.8566 29.8095 42.802C30.2951 42.7473 30.7387 42.5061 31.0369 42.132C31.3355 41.7579 31.4642 41.2816 31.4005 40.8073C31.3105 40.0605 31.1035 39.0512 30.9696 38.4906C30.968 38.4825 30.9665 38.4747 30.9651 38.4672L30.9823 38.607C30.9366 38.1328 30.8721 37.6789 30.8069 37.2453C30.6986 36.5312 30.5892 35.8486 30.4935 35.1598C30.4889 35.1263 30.4842 35.0925 30.4794 35.0583L30.4933 35.2192C30.2651 30.0005 29.9463 24.7925 29.5533 19.5964C29.5433 19.463 29.5328 19.3308 29.5221 19.1997C29.4273 18.0377 29.3416 16.8358 29.2224 15.6078C29.1616 14.9935 29.0967 14.3711 28.9907 13.7071C28.9333 13.3691 28.8794 13.0334 28.7383 12.5861C28.6995 12.4692 28.6597 12.3543 28.5795 12.1855C28.4967 12.0326 28.4276 11.8393 28.0915 11.5293C27.9397 11.3935 27.6426 11.2012 27.2843 11.1432C26.9104 11.0788 26.58 11.158 26.3498 11.2595C26.128 11.359 26.0047 11.4554 25.8922 11.5501C25.8009 11.6291 25.7264 11.707 25.6606 11.7836C25.6353 11.8135 25.6102 11.8435 25.5854 11.8736C23.9051 13.9663 23.3576 16.2432 22.1627 17.6218C22.1572 17.6283 22.1517 17.6349 22.1461 17.6414C22.0386 17.7767 21.8562 17.8883 21.9073 17.8215C21.9343 17.8064 22.1241 17.6229 22.6408 17.7424C22.8805 17.8067 23.0735 17.9575 23.1646 18.0598C23.2602 18.1655 23.2902 18.2301 23.3073 18.2636C23.299 18.2439 23.2905 18.2238 23.2818 18.2035C22.9473 17.4206 22.6543 16.4653 22.3162 15.4983C22.1432 15.0075 21.9688 14.5147 21.7136 13.9644C21.578 13.6851 21.4491 13.4047 21.1526 13.0239C20.993 12.84 20.8142 12.5926 20.3131 12.3635C19.8067 12.0955 18.9218 12.275 18.6145 12.5429C18.2277 12.8238 18.1378 13.0452 18.0524 13.1914C17.9777 13.3371 17.9373 13.4486 17.9048 13.5419C16.6698 19.9529 16.1132 25.6321 14.8819 31.6475C14.876 31.6771 14.8702 31.7067 14.8643 31.7361C14.494 33.6056 14.119 35.4878 13.7623 37.3685C13.6522 37.9517 13.541 38.55 13.4409 39.1416C13.3905 39.4421 13.342 39.7396 13.3005 40.063C13.2811 40.2182 13.261 40.3877 13.2516 40.582C13.2482 40.6837 13.2421 40.7843 13.2616 40.96C13.275 41.0422 13.2796 41.161 13.3852 41.3783C13.4468 41.4975 13.5533 41.6553 13.7513 41.7819C13.9491 41.9091 14.1683 41.942 14.3033 41.9405Z" fill="black"/>
<path d="M22.4454 22.5537C22.4454 22.4237 22.3938 22.2989 22.3018 22.207C22.2099 22.115 22.0851 22.0634 21.9551 22.0634C21.825 22.0634 21.7003 22.115 21.6083 22.207C21.5164 22.2989 21.4647 22.4237 21.4647 22.5537C21.4647 22.5612 21.4647 22.5687 21.4647 22.5762C21.4647 22.7113 21.4647 22.8463 21.4647 22.9813C21.4647 22.9888 21.4647 22.9963 21.4647 23.0038C21.4647 23.1339 21.5164 23.2586 21.6083 23.3506C21.7003 23.4425 21.825 23.4942 21.9551 23.4942C22.0851 23.4942 22.2099 23.4425 22.3018 23.3506C22.3938 23.2586 22.4454 23.1339 22.4454 23.0038C22.4454 22.9963 22.4454 22.9888 22.4454 22.9813C22.4454 22.8463 22.4454 22.7113 22.4454 22.5762C22.4454 22.5687 22.4454 22.5612 22.4454 22.5537Z" fill="black"/>
<path d="M20.259 23.0038C20.7895 23.0038 21.3199 23.0038 21.8503 23.0038C21.8503 22.9793 21.8503 22.9548 21.8503 22.9302C21.8503 22.8973 21.8503 22.8644 21.8503 22.8315C21.8503 22.8235 21.8503 22.815 21.8503 22.8069C21.8503 22.8027 21.8503 22.7987 21.8503 22.7946C21.8503 22.7943 21.8503 22.794 21.8503 22.7937C21.8503 22.7936 21.8503 22.7935 21.8503 22.7934C21.8503 22.7934 21.8503 22.7933 21.8503 22.7933C21.8503 22.7932 21.8503 22.7931 21.8503 22.793C21.8503 22.793 21.8503 22.793 21.8503 22.793C21.8503 22.793 21.8503 22.793 21.8503 22.793C21.8503 22.793 21.8503 22.793 21.8503 22.793C21.8503 22.793 21.8503 22.793 21.8503 22.793C21.8503 22.793 21.8503 22.793 21.8503 22.793C21.8503 22.793 21.8503 22.793 21.8503 22.793C21.8503 22.793 21.8503 22.793 21.8503 22.793C21.8503 22.793 21.8503 22.793 21.8503 22.793C21.8503 22.793 21.8503 22.793 21.8503 22.793C18.491 22.793 20.7895 22.793 20.259 22.793C20.259 22.793 20.259 22.793 20.259 22.793C20.259 22.793 20.259 22.793 20.259 22.793C20.259 22.793 20.259 22.793 20.259 22.793C20.259 22.7931 20.259 22.7942 20.259 22.7944C20.259 22.7952 20.259 22.7966 20.259 22.7974C20.259 22.7996 20.259 22.8014 20.259 22.8036C20.259 22.8198 20.259 22.8366 20.259 22.853C20.259 22.8549 20.259 22.8569 20.259 22.8589C20.2591 22.9631 20.217 23.0748 20.1807 23.2015C20.1628 23.2661 20.1457 23.3335 20.1406 23.4221C20.1385 23.4672 20.1385 23.5165 20.1504 23.59C20.1571 23.6287 20.1655 23.6711 20.1878 23.7376C20.2172 23.8048 20.2214 23.887 20.4031 24.0995C20.4884 24.1934 20.7043 24.3842 21.0414 24.4149C21.6521 24.4175 21.7466 24.1808 21.8422 24.1198C21.9278 24.032 21.9629 23.9764 21.9957 23.9256C22.0555 23.8288 22.0837 23.7608 22.1091 23.6947C22.1571 23.5642 22.184 23.4474 22.1957 23.3019C22.204 23.1571 22.2058 22.9811 22.1096 22.7374C22.0242 22.4955 21.7408 22.2024 21.47 22.1137C21.319 22.057 21.1909 22.0417 21.084 22.0381C21.0644 22.6819 21.0449 23.3257 21.0254 23.9696C20.9686 23.9676 20.8888 23.9599 20.7836 23.9205C20.5938 23.8612 20.3748 23.6337 20.3208 23.4713C20.2568 23.307 20.2649 23.2184 20.267 23.1585C20.2722 23.0981 20.2801 23.0654 20.2983 23.0147C20.3088 22.9883 20.3191 22.9597 20.3563 22.8989C20.3776 22.8665 20.4003 22.8281 20.4708 22.7556C20.552 22.7088 20.6276 22.4875 21.2165 22.4885C21.5414 22.5183 21.7463 22.7013 21.8237 22.7865C21.989 22.981 21.9829 23.0387 22.0042 23.0837C22.0181 23.1269 22.0202 23.1459 22.0212 23.1599C22.0221 23.1855 22.0145 23.1858 22.0061 23.1822C21.9886 23.1731 21.9643 23.142 21.9411 23.108C21.8944 23.0378 21.8502 22.9519 21.8503 22.8588C21.8503 22.8568 21.8503 22.8549 21.8503 22.853C21.8503 22.8366 21.8503 22.8198 21.8503 22.8036C21.8503 22.8014 21.8503 22.7996 21.8503 22.7974C21.8503 22.7966 21.8503 22.7952 21.8503 22.7944C21.8503 22.7942 21.8503 22.7931 21.8503 22.793C21.8503 22.793 21.8503 22.793 21.8503 22.793C21.8503 22.793 21.8503 22.793 21.8503 22.793C21.8503 22.793 21.8503 22.793 21.8503 22.793C21.3199 22.793 23.6184 22.793 20.259 22.793C20.259 22.793 20.259 22.793 20.259 22.793C20.259 22.793 20.259 22.793 20.259 22.793C20.259 22.793 20.259 22.793 20.259 22.793C20.259 22.793 20.259 22.793 20.259 22.793C20.259 22.793 20.259 22.793 20.259 22.793C20.259 22.793 20.259 22.793 20.259 22.793C20.259 22.793 20.259 22.793 20.259 22.793C20.259 22.793 20.259 22.793 20.259 22.793C20.259 22.793 20.259 22.793 20.259 22.793C20.259 22.7931 20.259 22.7932 20.259 22.7933C20.259 22.7933 20.259 22.7934 20.259 22.7934C20.259 22.7935 20.259 22.7936 20.259 22.7937C20.259 22.794 20.259 22.7943 20.259 22.7946C20.259 22.7987 20.259 22.8027 20.259 22.8069C20.259 22.815 20.259 22.8235 20.259 22.8315C20.259 22.8644 20.259 22.8973 20.259 22.9302C20.259 22.9548 20.259 22.9793 20.259 23.0038Z" fill="black"/>
<path d="M25.2871 22.7345C25.4544 22.5672 25.5484 22.3402 25.5484 22.1036C25.5484 21.8669 25.4544 21.64 25.2871 21.4727C25.1198 21.3053 24.8928 21.2113 24.6562 21.2113C24.4195 21.2113 24.1926 21.3053 24.0252 21.4727C23.8806 21.6181 23.7808 21.765 23.7003 21.9082C23.4337 22.4116 23.3415 22.8744 23.379 23.4307C23.3838 23.4846 23.3901 23.5401 23.3984 23.5965C23.4111 23.6604 23.4055 23.6899 23.4685 23.8567C23.4834 23.8903 23.5062 23.9528 23.5801 24.0559C23.6165 24.1054 23.6649 24.1623 23.7355 24.2211C23.7936 24.2742 23.9806 24.3928 24.1685 24.4186C24.6097 24.4698 24.7886 24.2997 24.9039 24.2169C25.0263 24.1087 25.0359 24.0809 25.0719 24.035C25.2439 23.7607 25.2146 23.7511 25.2514 23.6714C25.2971 23.5442 25.3257 23.455 25.3568 23.362C25.4173 23.1794 25.4741 23.0098 25.5306 22.837C25.5867 22.6643 25.6417 22.4914 25.6902 22.3049C25.7142 22.2117 25.7369 22.1139 25.7552 22.0026C25.7692 21.8787 25.8017 21.8036 25.7646 21.4977C25.7516 21.4339 25.7344 21.3523 25.6791 21.2271C25.665 21.1958 25.648 21.1616 25.6268 21.1245C25.6059 21.0894 25.5836 21.0462 25.51 20.955C25.3833 20.794 25.1107 20.5818 24.7726 20.5302C24.0944 20.4666 23.9102 20.726 23.7682 20.822C23.6622 20.9197 23.6441 20.9496 23.6062 20.9964C23.4912 21.1548 23.4915 21.1772 23.4685 21.216C23.3508 21.457 23.348 21.4686 23.3036 21.5578C23.2674 21.6314 23.2341 21.6982 23.2022 21.766C23.1703 21.834 23.1405 21.9007 23.1127 21.9743C23.099 22.0108 23.0857 22.049 23.0724 22.0945C23.0658 22.1169 23.0592 22.1411 23.0513 22.1754C23.0435 22.2297 23.0354 22.1831 23.0182 22.4388C23.018 22.4946 23.0128 22.5394 23.0338 22.6887C23.0625 22.8065 23.0528 22.9604 23.3011 23.3074C23.4846 23.6127 24.1724 23.9246 24.6007 23.803C24.847 23.7495 24.8658 23.7244 24.9598 23.683C25.0367 23.6444 25.0961 23.606 25.1447 23.571C25.3386 23.4244 25.3752 23.3563 25.4084 23.3205C25.4421 23.2784 25.4644 23.2462 25.4824 23.2191C25.5131 23.1725 25.525 23.151 25.539 23.1263C25.5825 23.0471 25.5918 23.0227 25.6045 22.9953C25.7099 22.7431 25.7173 22.6739 25.7522 22.5215C25.75 22.5278 25.7596 22.5009 25.74 22.5565C25.7374 22.5636 25.7345 22.5717 25.726 22.5932C25.7213 22.6046 25.7159 22.6185 25.7022 22.649C25.6769 22.691 25.7032 22.6921 25.5341 22.9237C25.4772 22.9879 25.42 23.0832 25.1748 23.2368C25.0498 23.309 24.8546 23.4056 24.5544 23.4191C24.2579 23.439 23.88 23.3069 23.6639 23.1154C23.2296 22.7125 23.2475 22.4511 23.2088 22.3205C23.1873 22.1827 23.191 22.1164 23.1918 22.0636C23.2023 21.8781 23.2145 21.8693 23.2197 21.8332C23.2311 21.7807 23.2344 21.7718 23.2376 21.7594C23.2476 21.7233 23.2471 21.7265 23.2487 21.7208C23.2508 21.7141 23.2509 21.7139 23.2512 21.713C23.2516 21.7116 23.2504 21.7155 23.2496 21.7182C23.2474 21.7256 23.2482 21.7229 23.2475 21.7253C23.2467 21.7281 23.2459 21.7311 23.245 21.7342C23.2435 21.7398 23.2409 21.7491 23.2404 21.7513C23.2385 21.7589 23.2366 21.7668 23.2346 21.775C23.2314 21.7888 23.2292 21.7995 23.2265 21.8124C23.2226 21.8321 23.2188 21.8536 23.2162 21.8704C23.2106 21.9069 23.2072 21.937 23.2044 21.9671C23.1692 22.6477 23.3693 23.0341 23.5566 23.4256C23.6151 23.5397 23.6761 23.6484 23.7378 23.754C23.849 23.9262 24.0482 24.0611 24.2631 24.1383C24.4797 24.2149 24.6943 24.2276 24.8882 24.1643C25.0822 24.1009 25.2479 23.9639 25.3774 23.7742C25.5053 23.585 25.5865 23.3585 25.5745 23.1539C25.5742 23.0696 25.5792 22.9873 25.5885 22.9085C25.6166 22.6601 25.7113 22.3746 25.7731 22.3963C25.7747 22.4004 25.7759 22.4057 25.7758 22.4162C25.7758 22.421 25.7752 22.4283 25.7741 22.4368C25.7732 22.4424 25.7724 22.4475 25.7709 22.4551C25.7699 22.4597 25.7688 22.4645 25.7676 22.4694C25.7674 22.4708 25.7656 22.4772 25.7645 22.4814C25.7639 22.4838 25.7632 22.4861 25.7626 22.4884C25.762 22.4904 25.7628 22.4881 25.7609 22.4943C25.7602 22.4966 25.7591 22.5001 25.7596 22.4986C25.7599 22.4977 25.76 22.4975 25.762 22.4908C25.7637 22.485 25.7632 22.4882 25.7732 22.4521C25.7764 22.4397 25.7796 22.4308 25.7911 22.3783C25.7963 22.3422 25.8085 22.3335 25.819 22.1479C25.8197 22.0952 25.8235 22.0289 25.802 21.891C25.7633 21.7605 25.7812 21.499 25.3469 21.0962C25.1307 20.9046 24.7529 20.7725 24.4564 20.7924C24.1561 20.806 23.961 20.9025 23.836 20.9747C23.5908 21.1283 23.5336 21.2236 23.4766 21.2878C23.3076 21.5194 23.3339 21.5205 23.3086 21.5625C23.2948 21.5931 23.2895 21.6069 23.2848 21.6183C23.2763 21.6399 23.2734 21.6479 23.2708 21.655C23.2511 21.7106 23.2608 21.6838 23.2585 21.6902C23.2149 21.7687 23.1454 21.932 23.1558 21.9052C23.1614 21.8938 23.1631 21.8858 23.1983 21.8216C23.2099 21.8011 23.22 21.7828 23.2481 21.74C23.2648 21.715 23.2858 21.6846 23.3182 21.6441C23.3503 21.6096 23.3851 21.5437 23.5772 21.3983C23.6254 21.3636 23.6843 21.3255 23.7609 21.2871C23.8544 21.2459 23.8731 21.2209 24.1187 21.1676C24.5457 21.0462 25.2325 21.3577 25.4152 21.6619C25.6625 22.0076 25.6522 22.1596 25.6804 22.2745C25.7008 22.4199 25.6955 22.4609 25.6955 22.5111C25.6798 22.7361 25.6781 22.6581 25.676 22.6814C25.6744 22.6839 25.6743 22.677 25.6744 22.6695C25.6748 22.6532 25.6763 22.6292 25.6775 22.6049C25.6801 22.555 25.6821 22.5001 25.6837 22.4458C25.6852 22.3915 25.6866 22.337 25.6876 22.2894C25.6811 22.2579 25.7145 22.1482 25.6493 22.2735C25.6318 22.3011 25.6385 22.3105 25.5321 22.4572C25.4965 22.5011 25.4798 22.5292 25.3766 22.6243C25.2379 22.7175 25.0562 22.9755 24.3812 22.9122C24.0447 22.861 23.7736 22.6497 23.6482 22.4903C23.5754 22.4 23.5534 22.3574 23.5328 22.3229C23.5119 22.2863 23.4953 22.2528 23.4815 22.2221C23.4274 22.0996 23.4113 22.0216 23.3992 21.9623C23.3898 21.8115 23.4197 21.9021 23.4303 21.9385C23.4441 21.9881 23.4561 22.0535 23.4669 22.1199C23.4884 22.2547 23.5052 22.4028 23.5159 22.5495C23.5266 22.6958 23.5307 22.8452 23.5253 22.9785C23.5232 23.043 23.5164 23.11 23.5148 23.1388C23.5274 23.135 23.4739 23.2059 23.602 22.999C23.632 22.9615 23.6377 22.9392 23.7504 22.8395C23.8572 22.7635 24.0289 22.5975 24.4593 22.6474C24.6425 22.6726 24.8234 22.7877 24.8787 22.8383C24.9461 22.8945 24.9915 22.9481 25.0249 22.9935C25.0925 23.0882 25.1101 23.1394 25.122 23.1659C25.1694 23.2931 25.1575 23.2896 25.1622 23.3069C25.1597 23.2973 25.1576 23.2856 25.1565 23.2726C25.1398 23.1349 25.1927 22.8865 25.2586 22.7778C25.2753 22.7473 25.2911 22.73 25.2871 22.7345Z" fill="black"/>
<path d="M20.5709 22.5537C20.5709 22.8014 20.6693 23.0389 20.8444 23.214C21.0196 23.3892 21.2571 23.4876 21.5048 23.4876C21.7525 23.4876 21.9901 23.3892 22.1652 23.214C22.3404 23.0389 22.4387 22.8014 22.4387 22.5537C22.4373 22.4952 22.4418 22.445 22.4166 22.2997C22.3828 22.2163 22.4425 22.1398 22.158 21.7921C22.0768 21.706 21.9369 21.6003 21.7643 21.5456C21.5883 21.4873 21.4071 21.4926 21.2873 21.5173C21.0349 21.5747 20.9559 21.6514 20.8898 21.6951C20.6697 21.8777 20.6785 21.9133 20.6304 21.9708C20.5956 22.0215 20.5735 22.0582 20.5529 22.0928C20.4376 22.2924 20.374 22.4289 20.2997 22.5761C20.2982 22.5792 20.2966 22.5824 20.295 22.5855C20.3369 22.5156 20.3452 22.453 20.5382 22.2821C20.6554 22.1832 20.8774 22.0702 21.1292 22.0739C21.3861 22.0744 21.5884 22.1845 21.6962 22.2703C21.9879 22.5376 21.9335 22.5723 21.9739 22.6285C22.0056 22.7049 22.0069 22.7204 22.012 22.7353C22.0191 22.7604 22.0189 22.7571 22.0197 22.7536C22.0207 22.7438 22.0206 22.7188 22.0215 22.6924C22.0224 22.6657 22.0239 22.6357 22.0257 22.6035C22.0265 22.587 22.0275 22.5704 22.0281 22.5506C22.0283 22.54 22.0286 22.53 22.0279 22.5137C22.0274 22.5046 22.0272 22.4962 22.024 22.4717C22.0236 22.4676 22.0213 22.4528 22.0179 22.4345C22.016 22.4248 22.0137 22.413 22.0097 22.396C22.0097 22.3967 22.0015 22.3571 21.9815 22.2998C21.9699 22.2681 21.9565 22.2281 21.9165 22.1535C21.8662 22.082 21.8358 21.9507 21.5231 21.7613C21.3693 21.6717 21.085 21.6043 20.8343 21.6677C20.5807 21.7268 20.4158 21.8672 20.3264 21.9665C20.1515 22.1742 20.1421 22.2715 20.1156 22.3396C20.0792 22.4685 20.082 22.5013 20.0772 22.5355C20.074 22.572 20.0744 22.5729 20.0736 22.5864C20.0726 22.6076 20.0723 22.6198 20.0721 22.6302C20.0687 22.6487 20.0652 22.6687 20.0617 22.6878C20.0466 22.7723 20.0211 22.8567 19.9938 22.9411C19.9802 22.9833 19.9662 23.0257 19.9528 23.0677C19.9461 23.0889 19.9395 23.1101 19.9333 23.1312C19.9302 23.141 19.9271 23.1527 19.9242 23.1627C19.9234 23.1661 19.9227 23.1673 19.922 23.1709C19.9218 23.1716 19.9216 23.1721 19.9214 23.1726C19.9214 23.1726 19.9213 23.173 19.9213 23.1734C19.9213 23.1734 19.9213 23.1735 19.9213 23.1735C19.9213 23.1735 19.9213 23.1735 19.9213 23.1735C18.6619 23.1735 23.4475 23.1735 22.1881 23.1735C22.1881 23.1735 22.1881 23.1735 22.1881 23.1735H22.1881C22.1881 23.1735 22.1881 23.1735 22.1881 23.1735C22.1881 23.1735 22.1881 23.1735 22.1881 23.1735C22.1881 23.1735 22.1881 23.1735 22.1881 23.1735C22.1881 23.1735 22.1881 23.1735 22.1881 23.1735C22.1881 23.1735 22.1881 23.1735 22.1881 23.1735C22.1881 23.1734 22.1881 23.1734 22.1881 23.1734C22.1882 23.1732 22.1882 23.1732 22.1882 23.1732C22.1883 23.173 22.1884 23.1728 22.1885 23.1725C22.1888 23.1712 22.1892 23.1695 22.1896 23.1686C22.191 23.1626 22.1924 23.1588 22.1938 23.1523C22.2029 23.1192 22.211 23.0857 22.2173 23.0529C22.2522 22.8701 22.2981 22.6872 22.3397 22.518C22.3605 22.4339 22.3803 22.3522 22.3971 22.2851C22.4075 22.2375 22.4491 22.1018 22.4025 22.2855C22.395 22.3091 22.3856 22.3366 22.3726 22.3692C22.3578 22.406 22.3387 22.4494 22.3104 22.5014C22.2704 22.5739 22.2095 22.6729 22.0997 22.7858C22.0227 22.8711 21.7463 23.1024 21.393 23.1595C21.0239 23.2237 20.7361 23.128 20.5478 23.0298C20.2179 22.8393 20.1803 22.7322 20.1232 22.6711C20.0785 22.6119 20.0505 22.563 20.0384 22.5411C19.9839 22.4375 19.9935 22.4407 19.9916 22.4344C19.9955 22.4337 20.0143 22.475 20.032 22.5162C20.069 22.6029 20.1128 22.7123 20.1562 22.8211C20.2415 23.0192 20.34 23.3434 20.3807 23.3774H22.6289C22.6257 23.3576 22.6226 23.3363 22.6196 23.3162C22.5858 23.0882 22.4677 22.8601 22.466 22.6324C22.4659 22.6303 22.4659 22.6286 22.4659 22.6272C22.4659 22.6264 22.4659 22.6239 22.4659 22.6231C22.4659 22.6229 22.4659 22.6233 22.4659 22.6225C22.4659 22.6224 22.4659 22.6223 22.4659 22.6223C22.4659 22.6223 22.4659 22.6223 22.4659 22.6223C22.4659 22.6223 22.4659 22.6223 22.4659 22.6223C18.4079 22.6223 21.1844 22.6223 20.5437 22.6223C20.5437 22.6223 20.5437 22.6223 20.5437 22.6223C20.5437 22.6223 20.5437 22.6223 20.5437 22.6223C20.5437 22.6223 20.5437 22.6223 20.5437 22.6224C20.5437 22.6224 20.5437 22.6224 20.5437 22.6225C20.5437 22.6226 20.5437 22.6226 20.5437 22.6226C20.5437 22.6228 20.5437 22.6231 20.5437 22.6234C20.5437 22.6241 20.5437 22.6253 20.5437 22.6256C20.5437 22.628 20.5437 22.6313 20.5437 22.6337C20.5437 22.6399 20.5437 22.6444 20.5437 22.6502C20.5437 22.6609 20.5437 22.6723 20.5437 22.6827C20.5437 22.7045 20.5437 22.7266 20.5437 22.7481C20.5437 22.792 20.5437 22.8352 20.5437 22.8788C20.5437 22.9659 20.5437 23.0531 20.5437 23.1402C20.5437 23.2447 20.5437 23.3493 20.5437 23.4539C20.5437 23.7088 20.645 23.9533 20.8252 24.1335C21.0054 24.3138 21.2499 24.415 21.5048 24.415C21.7597 24.415 22.0042 24.3138 22.1844 24.1335C22.3647 23.9533 22.4659 23.7088 22.4659 23.4539C22.4659 23.3493 22.4659 23.2447 22.4659 23.1402C22.4659 23.0531 22.4659 22.9659 22.4659 22.8788C22.4659 22.8352 22.4659 22.792 22.4659 22.7481C22.4659 22.7266 22.4659 22.7045 22.4659 22.6827C22.4659 22.6723 22.4659 22.6609 22.4659 22.6502C22.4659 22.6444 22.4659 22.6399 22.4659 22.6337C22.4659 22.6313 22.4659 22.628 22.4659 22.6256C22.4659 22.6253 22.4659 22.6241 22.4659 22.6234C22.4659 22.6231 22.4659 22.6228 22.4659 22.6226C22.4659 22.6226 22.4659 22.6226 22.4659 22.6225C22.4659 22.6224 22.4659 22.6224 22.4659 22.6224C22.4659 22.6223 22.4659 22.6223 22.4659 22.6223C22.4659 22.6223 22.4659 22.6223 22.4659 22.6223C22.4659 22.6223 22.4659 22.6223 22.4659 22.6223C21.8252 22.6223 24.6018 22.6223 20.5437 22.6223C20.5437 22.6223 20.5437 22.6223 20.5437 22.6223C20.5437 22.6223 20.5437 22.6223 20.5437 22.6223C20.5437 22.6223 20.5437 22.6224 20.5437 22.6225C20.5437 22.6233 20.5437 22.6229 20.5437 22.6231C20.5437 22.6239 20.5437 22.6264 20.5437 22.6272C20.5437 22.6286 20.5437 22.6303 20.5437 22.6324C20.542 22.8601 20.4238 23.0882 20.39 23.3162C20.387 23.3363 20.3839 23.3576 20.3807 23.3774H22.6289C22.6506 22.8705 22.6461 22.6568 22.6284 22.3224C22.618 22.1652 22.6026 22.009 22.5694 21.8337C22.5519 21.7447 22.5326 21.6548 22.4906 21.5268C22.4641 21.4537 22.451 21.3983 22.3624 21.2328C22.3435 21.1985 22.3037 21.1308 22.2501 21.06C22.2269 21.0291 22.1794 20.9689 22.1144 20.905C22.0356 20.8336 22.0054 20.7885 21.7887 20.6666C21.5922 20.5642 21.2972 20.4668 20.9196 20.5324C20.5585 20.5906 20.273 20.8284 20.1917 20.9184C20.0765 21.0368 20.0103 21.1433 19.9656 21.2245C19.9339 21.2828 19.9115 21.3332 19.8935 21.378C19.8777 21.4176 19.8655 21.4528 19.8555 21.485C19.7555 21.8544 19.781 21.9149 19.7733 22.0607C19.7736 22.1873 19.7828 22.2997 19.7952 22.4099C19.8205 22.6291 19.8597 22.8355 19.8926 23.0417C19.8985 23.0783 19.9064 23.1175 19.9156 23.1523C19.917 23.1588 19.9184 23.1626 19.9198 23.1686C19.9202 23.1695 19.9205 23.1712 19.9209 23.1725C19.921 23.1728 19.9211 23.173 19.9212 23.1732C19.9212 23.1732 19.9212 23.1732 19.9212 23.1734C19.9212 23.1734 19.9212 23.1734 19.9212 23.1735C19.9212 23.1735 19.9212 23.1735 19.9213 23.1735C19.9213 23.1735 19.9213 23.1735 19.9213 23.1735C19.9213 23.1735 19.9213 23.1735 19.9213 23.1735C19.9213 23.1735 19.9213 23.1735 19.9213 23.1735C19.9213 23.1735 19.9213 23.1735 19.9213 23.1735H19.9213C19.9213 23.1735 19.9213 23.1735 19.9213 23.1735C18.6619 23.1735 23.4475 23.1735 22.1881 23.1735C22.1881 23.1735 22.1881 23.1735 22.1881 23.1735C22.1881 23.1735 22.1881 23.1734 22.1881 23.1734C22.188 23.173 22.188 23.1726 22.1879 23.1726C22.1878 23.1721 22.1876 23.1716 22.1874 23.1709C22.1867 23.1673 22.1859 23.1661 22.1852 23.1627C22.1823 23.1527 22.1792 23.141 22.1761 23.1312C22.1699 23.1101 22.1633 23.0889 22.1566 23.0677C22.1432 23.0257 22.1292 22.9833 22.1156 22.9411C22.0883 22.8567 22.0628 22.7723 22.0477 22.6878C22.0442 22.6687 22.0407 22.6487 22.0372 22.6302C22.037 22.6376 22.0369 22.6476 22.0359 22.6668C22.0352 22.6793 22.0355 22.6798 22.0324 22.715C22.0278 22.7483 22.0307 22.7804 21.9944 22.9089C21.9679 22.9767 21.9587 23.0739 21.7838 23.2815C21.6944 23.3808 21.5296 23.5212 21.2761 23.5802C21.0254 23.6437 20.7411 23.5763 20.5873 23.4867C20.2748 23.2973 20.2444 23.1661 20.1943 23.0948C20.1543 23.0204 20.141 22.9806 20.1295 22.9493C20.1097 22.8924 20.1019 22.8543 20.1019 22.8551C20.0981 22.8388 20.0959 22.8279 20.0943 22.8192C20.0912 22.8026 20.0896 22.7915 20.0893 22.7887C20.0874 22.7719 20.0884 22.7724 20.089 22.7718C20.0907 22.7724 20.093 22.779 20.0953 22.7859C20.1 22.7998 20.105 22.8169 20.11 22.8347C20.1199 22.8698 20.1298 22.908 20.1399 22.9488C20.1501 22.9903 20.1598 23.0321 20.1729 23.09C20.1799 23.1197 20.1863 23.1503 20.2021 23.2085C20.2113 23.2393 20.2177 23.2724 20.2557 23.3635C20.2999 23.4283 20.2492 23.4708 20.547 23.7433C20.6568 23.8306 20.861 23.9415 21.12 23.942C21.3737 23.9457 21.5976 23.832 21.7167 23.7316C21.913 23.5578 21.923 23.4923 21.9674 23.4176C21.9689 23.4144 21.9705 23.4113 21.972 23.4083C22.0406 23.2704 22.1158 23.1197 22.161 23.0431C22.167 23.0327 22.1721 23.0253 22.1672 23.0326C22.1495 23.0472 22.1882 23.0403 22.0099 23.1898C21.9538 23.226 21.8863 23.2956 21.647 23.3502C21.5335 23.3737 21.359 23.379 21.1892 23.3228C21.0227 23.27 20.8885 23.1682 20.8117 23.0869C20.5448 22.7587 20.6106 22.7092 20.582 22.6507C20.5662 22.5568 20.5722 22.5586 20.5709 22.5537Z" fill="black"/>
<path d="M21.393 26.6047C21.393 26.8734 21.4997 27.1311 21.6898 27.3212C21.8798 27.5112 22.1375 27.6179 22.4062 27.6179C22.675 27.6179 22.9327 27.5112 23.1227 27.3212C23.3128 27.1311 23.4195 26.8734 23.4195 26.6047C23.4195 26.5828 23.4195 26.5632 23.4196 26.5468C23.4196 26.5396 23.4197 26.5319 23.4197 26.5352C23.4195 26.5382 23.42 26.5383 23.418 26.5683C23.414 26.593 23.4244 26.5794 23.3921 26.7294C23.386 26.7525 23.3851 26.7595 23.3681 26.8113C23.3347 26.8873 23.3202 27.0079 23.0929 27.2323C22.979 27.3393 22.7673 27.4692 22.5085 27.4928C22.244 27.5158 22.0598 27.4461 21.9229 27.3731C21.659 27.2171 21.6038 27.0946 21.552 27.0235C21.5037 26.9445 21.4957 26.9197 21.4883 26.905C21.4805 26.8877 21.4745 26.8733 21.4695 26.8607C21.4595 26.8356 21.4535 26.8177 21.4487 26.8033C21.41 26.6692 21.4304 26.7342 21.4274 26.7273C21.429 26.7351 21.4314 26.747 21.4339 26.7595C21.439 26.7848 21.4448 26.8135 21.4509 26.842C21.463 26.8992 21.4765 26.9579 21.491 27.0166C21.5201 27.134 21.5535 27.2512 21.5921 27.3687C21.603 27.4018 21.6163 27.4371 21.6332 27.4744C21.688 27.6061 21.8611 27.8705 22.1584 27.9985C22.4624 28.1299 22.6996 28.0873 22.8204 28.0616C23.0803 27.9921 23.1306 27.9359 23.2034 27.8943C23.3211 27.8148 23.3667 27.7715 23.4151 27.7316C23.5055 27.6543 23.5655 27.6012 23.625 27.5487C23.7454 27.4394 23.8255 27.3755 23.933 27.2257C23.9335 27.2251 23.9318 27.2275 23.9351 27.2226C23.9355 27.2219 23.936 27.2213 23.9377 27.2186C23.9387 27.217 23.9396 27.2157 23.9436 27.2095C23.9461 27.2056 23.9477 27.2033 23.9586 27.1856C23.9667 27.1705 23.9657 27.1793 24.0113 27.088C24.0247 27.0562 24.0425 27.0344 24.083 26.8936C24.0937 26.8096 24.1616 26.7286 24.0888 26.3431C24.0498 26.158 23.8857 25.813 23.5422 25.6293C23.2019 25.4451 22.894 25.4857 22.7393 25.5235C22.4231 25.6154 22.3765 25.6918 22.3121 25.7326C22.258 25.776 22.2335 25.801 22.2135 25.8208C22.1759 25.8591 22.1623 25.876 22.1503 25.89C22.0569 26.0087 22.0989 25.9582 22.0859 25.9747C22.0835 25.9782 22.0827 25.9794 22.0819 25.9806C22.0806 25.9825 22.0801 25.9832 22.0797 25.9838C22.0785 25.9857 22.0785 25.9856 22.0783 25.986C22.078 25.9864 22.078 25.9864 22.0779 25.9865C22.0778 25.9866 22.0779 25.9865 22.0779 25.9865C22.0778 25.9866 22.0778 25.9866 22.0778 25.9866C22.0777 25.9867 22.0776 25.9868 22.0775 25.987C22.0773 25.9873 22.0768 25.988 22.0766 25.9883C22.076 25.989 22.0753 25.99 22.0744 25.9913C22.0732 25.993 22.0714 25.9956 22.0699 25.9978C22.0288 26.0583 21.9827 26.1247 21.9452 26.1753C21.9269 26.2002 21.909 26.2229 21.904 26.2292C21.9022 26.2317 21.9021 26.231 21.921 26.2126C21.9314 26.2028 21.945 26.1892 21.9821 26.1597C22.0317 26.132 22.0358 26.0817 22.3433 25.9799C22.3972 25.9651 22.4614 25.9516 22.5386 25.9449C22.7712 25.9132 23.1606 26.0153 23.3798 26.2355C23.587 26.4352 23.6407 26.6015 23.6765 26.7046C23.7339 26.9021 23.7235 26.97 23.7268 27.0271C23.726 27.1312 23.7198 27.1603 23.7191 27.1883C23.7163 27.2385 23.723 27.2516 23.7327 27.2716C23.7467 27.3119 23.8045 27.3367 23.7464 27.511C23.7241 27.5645 23.6905 27.6348 23.5891 27.7347C23.4895 27.8285 23.2978 27.9808 22.9402 28.0301C23.3437 28.4391 23.7001 28.3139 23.9495 27.9924C24.1986 27.6678 24.317 27.1187 24.2819 26.5208C24.2467 25.9229 24.0647 25.3915 23.7792 25.0983C23.4939 24.8083 23.1252 24.7257 22.7725 25.1792C21.9638 25.3349 21.8727 25.687 21.7596 25.8306C21.6103 26.1147 21.6037 26.2682 21.5662 26.4406C21.5505 26.5271 21.5355 26.6079 21.518 26.7278C21.5102 26.7899 21.4982 26.8551 21.4967 26.9946C21.4999 27.0692 21.4904 27.1556 21.5529 27.3697C21.5914 27.4815 21.6492 27.6561 21.8626 27.8616C22.0886 28.0881 22.4863 28.1927 22.7285 28.1602C22.8089 28.1532 22.8765 28.1391 22.9339 28.1233C23.2634 28.0151 23.2879 27.95 23.355 27.9087C23.4106 27.8647 23.4411 27.8356 23.4684 27.8095C23.5206 27.7588 23.5518 27.7238 23.5808 27.6911C23.6366 27.6274 23.6766 27.577 23.7148 27.528C23.7902 27.4308 23.8521 27.3452 23.9155 27.2522C23.9179 27.2486 23.9209 27.2442 23.9232 27.2408C23.9247 27.2384 23.9261 27.2363 23.9273 27.2344C23.9277 27.2338 23.929 27.2319 23.9297 27.2308C23.9301 27.2302 23.9304 27.2297 23.9307 27.2292C23.931 27.2288 23.9308 27.2291 23.9314 27.2281C23.9317 27.2277 23.932 27.2273 23.932 27.2273C23.9319 27.2273 23.9319 27.2273 23.9317 27.2277C23.9314 27.2281 23.9315 27.228 23.9302 27.2299C23.9298 27.2305 23.9294 27.2311 23.928 27.2331C23.9273 27.2342 23.9265 27.2355 23.924 27.239C23.911 27.2555 23.9531 27.205 23.8596 27.3237C23.8476 27.3377 23.8341 27.3546 23.7964 27.3929C23.7764 27.4127 23.752 27.4377 23.6978 27.481C23.6335 27.5219 23.5868 27.5983 23.2707 27.6902C23.1159 27.728 22.808 27.7686 22.4678 27.5844C22.1242 27.4007 21.9601 27.0556 21.9211 26.8706C21.8483 26.4851 21.9163 26.4041 21.927 26.3201C21.9675 26.1793 21.9853 26.1575 21.9986 26.1257C22.0443 26.0344 22.0432 26.0431 22.0514 26.0281C22.0622 26.0104 22.0638 26.0081 22.0663 26.0042C22.0703 25.998 22.0712 25.9967 22.0722 25.9951C22.074 25.9924 22.0744 25.9918 22.0749 25.9911C22.0781 25.9862 22.0764 25.9887 22.0768 25.9882C22.0574 26.021 22.0036 26.1381 21.9825 26.2018C21.9711 26.2357 21.9579 26.2677 21.9689 26.2692C21.9777 26.2683 21.9819 26.2633 22.0537 26.2155C22.1023 26.1903 22.1297 26.1479 22.3615 26.0855C22.4693 26.0628 22.6916 26.021 22.9825 26.1465C23.2672 26.2692 23.4309 26.5214 23.4804 26.641C23.4958 26.6751 23.5078 26.707 23.5175 26.7364C23.4954 26.6692 23.4756 26.6001 23.458 26.5292C23.4492 26.4936 23.441 26.4578 23.4331 26.4204C23.429 26.4015 23.4251 26.3823 23.4207 26.3602C23.4184 26.349 23.4162 26.3377 23.4128 26.321C23.4049 26.2909 23.4209 26.3318 23.3752 26.1743C23.3699 26.1584 23.3634 26.1393 23.3531 26.1131C23.3478 26.1 23.3416 26.085 23.3335 26.0672C23.326 26.0522 23.3176 26.0267 23.2688 25.9468C23.2166 25.875 23.1609 25.752 22.8967 25.5958C22.7596 25.5227 22.5752 25.4529 22.3105 25.476C22.0515 25.4996 21.8395 25.6296 21.7254 25.7368C21.4977 25.9615 21.4829 26.0829 21.4491 26.1598C21.4318 26.2124 21.4309 26.2196 21.4247 26.2433C21.3913 26.3982 21.4013 26.3899 21.3969 26.4198C21.3941 26.4608 21.3942 26.4717 21.3938 26.4845C21.3932 26.5091 21.3932 26.5225 21.3931 26.5359C21.393 26.5629 21.393 26.5824 21.393 26.6047Z" fill="black"/>
<path d="M25.8728 26.9207C26.0759 26.7176 26.19 26.4421 26.19 26.1549C26.19 25.8676 26.0759 25.5921 25.8728 25.389C25.6697 25.1859 25.3942 25.0718 25.107 25.0718C24.8197 25.0718 24.5442 25.1859 24.3411 25.389C24.226 25.5043 24.109 25.6204 23.9801 25.7557C23.9359 25.8024 23.891 25.8503 23.836 25.9136C23.8076 25.9468 23.7781 25.9807 23.7324 26.042C23.7071 26.0775 23.6835 26.1059 23.6298 26.2015C23.6036 26.2574 23.563 26.3033 23.5118 26.5219C23.498 26.5903 23.4858 26.6761 23.4901 26.7887C23.4934 26.9078 23.5295 27.1206 23.6487 27.3128C23.7666 27.5177 23.9973 27.6886 24.1529 27.7488C24.2973 27.8098 24.4187 27.8279 24.5128 27.8343C24.5222 27.8349 24.5316 27.8355 24.5409 27.836C27.5458 27.6656 29.0308 25.746 30.3256 25.5786L30.2666 25.5897C30.295 25.5851 30.3233 25.5803 30.3513 25.5752C30.9437 25.465 31.1259 24.4626 31.528 24.2846C31.5383 24.2801 31.5487 24.276 31.5592 24.2725C31.8473 24.1765 32.1353 24.0805 32.4234 23.9845C32.5771 23.9332 32.7309 23.882 32.8847 23.8307C32.9845 23.7974 33.0671 23.7258 33.1142 23.6316C33.1613 23.5375 33.169 23.4284 33.1357 23.3286C33.1024 23.2287 33.0308 23.1461 32.9367 23.099C32.8425 23.052 32.7335 23.0442 32.6336 23.0775C32.4798 23.1288 32.3261 23.18 32.1723 23.2313C31.8843 23.3273 31.5962 23.4233 31.3082 23.5193C31.2976 23.5228 31.2869 23.5258 31.276 23.5283C30.8331 23.6316 30.1674 22.9145 29.8816 22.9626C29.8665 22.9654 29.8515 22.968 29.8366 22.9705L29.7776 22.9815C27.1059 23.7623 25.8673 25.76 24.6613 25.6733C24.6583 25.6731 24.6553 25.6729 24.6523 25.6727C24.7425 25.6789 24.8604 25.6963 25.0021 25.7561C25.1546 25.815 25.3823 25.9836 25.4985 26.1856C25.6161 26.3752 25.6512 26.5842 25.6544 26.6999C25.6586 26.8094 25.6468 26.8919 25.6338 26.9565C25.5853 27.1623 25.5509 27.1954 25.5312 27.2392C25.4912 27.3101 25.4824 27.3175 25.4739 27.3301C25.4606 27.3477 25.4664 27.3395 25.4739 27.3311C25.4902 27.3122 25.52 27.2797 25.5512 27.2469C25.6457 27.1475 25.7588 27.0347 25.8728 26.9207Z" fill="black"/>
<path d="M25.1078 30.0892C25.435 30.0892 25.7487 29.9592 25.9801 29.7279C26.2114 29.4965 26.3414 29.1828 26.3414 28.8556C26.3414 28.5284 26.2114 28.2147 25.9801 27.9833C25.7487 27.752 25.435 27.622 25.1078 27.622C25.1153 27.6222 25.1277 27.6217 25.1681 27.6251C25.192 27.6276 25.216 27.6294 25.2756 27.6411C25.3362 27.6607 25.387 27.6408 25.6588 27.7947C25.7529 27.8547 26.0523 28.05 26.1831 28.4883C26.3116 28.9692 26.155 29.2803 26.0677 29.4393C25.902 29.7016 25.8297 29.7248 25.7784 29.7735C25.6864 29.8432 25.6661 29.8489 25.6481 29.8599C25.5961 29.8861 25.6504 29.8594 25.6879 29.8462C25.9009 29.7663 26.2034 29.6756 26.4891 29.5937L26.4181 29.6118C26.4376 29.6074 26.4572 29.603 26.4768 29.5986C27.9763 29.2581 29.4154 28.788 30.831 28.2384L30.7972 28.2503C30.8031 28.2482 30.809 28.2461 30.8149 28.244C31.377 28.0401 31.862 27.6585 32.4654 27.3562C32.5891 27.2933 32.7151 27.234 32.843 27.181C32.9579 27.1336 33.0597 27.0299 33.1286 26.9103C33.1973 26.7896 33.2274 26.6627 33.2097 26.5402C33.1921 26.4177 33.1274 26.3045 33.0274 26.2081C32.9276 26.1127 32.8006 26.042 32.677 26.0289C32.5337 26.015 32.3887 25.9968 32.2419 25.9777C31.5502 25.8811 30.7515 25.792 30.0713 26.0109C30.0643 26.0131 30.0574 26.0153 30.0505 26.0175L30.0166 26.0294C28.6757 26.492 27.3 26.8822 25.9349 27.1917C25.9171 27.1958 25.8994 27.1997 25.8816 27.2037L25.8106 27.2217C25.4898 27.3149 25.189 27.4001 24.8122 27.5397C24.7228 27.5752 24.6481 27.5992 24.4754 27.6894C24.4283 27.7161 24.3774 27.7396 24.2586 27.8301C24.1934 27.8898 24.108 27.9247 23.934 28.2008C23.842 28.3682 23.6831 28.687 23.8139 29.1766C23.9467 29.6227 24.2541 29.8251 24.3543 29.8888C24.4963 29.975 24.5776 29.9996 24.6401 30.0211C24.7073 30.0425 24.7498 30.0516 24.7858 30.0591C24.8632 30.0743 24.9023 30.078 24.9445 30.0821C25.0184 30.0886 25.0644 30.089 25.1078 30.0892Z" fill="black"/>
<path d="M27.7029 29.7559C27.7029 29.4254 27.5716 29.1086 27.338 28.8749C27.1043 28.6413 26.7875 28.51 26.457 28.51C26.1266 28.51 25.8097 28.6413 25.5761 28.8749C25.3424 29.1086 25.2112 29.4254 25.2112 29.7559C25.198 30.1479 25.4226 30.5837 25.6304 30.7792C25.8381 30.9881 26.0113 31.0735 26.1499 31.1394C26.7851 31.3944 27.0838 31.3625 27.4399 31.3908C27.7784 31.403 28.0893 31.393 28.3955 31.3754L28.4586 31.3701C28.4651 31.3694 28.4716 31.3687 28.478 31.368C29.2532 31.2795 29.9194 31.049 30.5418 30.8905C30.5448 30.8897 30.5478 30.8889 30.5509 30.8881C31.2404 30.7064 32.0541 30.5239 32.8621 30.3528C32.9787 30.3289 33.0918 30.3057 33.209 30.2834C33.3245 30.2609 33.4353 30.1855 33.5169 30.0869C33.5986 29.9876 33.6445 29.8732 33.6445 29.7559C33.6445 29.6385 33.5986 29.5241 33.5169 29.4248C33.4353 29.3262 33.3245 29.2509 33.209 29.2283C33.0918 29.206 32.9786 29.1828 32.8617 29.159C32.0503 28.9973 31.2378 28.7758 30.315 28.7743C30.3112 28.7743 30.3074 28.7743 30.3035 28.7743C29.532 28.7743 28.8213 28.8232 28.2024 28.8916C28.1973 28.8922 28.1921 28.8927 28.187 28.8933L28.2502 28.888C27.9987 28.9026 27.7523 28.909 27.5341 28.9008C27.3347 28.9021 27.0658 28.8361 27.1847 28.8727C27.2186 28.8906 27.2898 28.916 27.417 29.0425C27.5435 29.1562 27.7146 29.4804 27.7029 29.7559Z" fill="black"/>
<path d="M15.6538 23.8251C15.991 23.8251 16.3144 23.6912 16.5529 23.4527C16.7913 23.2143 16.9252 22.8909 16.9252 22.5537C16.9252 22.2165 16.7913 21.8931 16.5529 21.6547C16.3144 21.4162 15.991 21.2823 15.6538 21.2823C15.5924 21.2834 15.5382 21.2806 15.3932 21.3008C15.2968 21.3278 15.2579 21.2843 14.8862 21.4841C14.8134 21.5283 14.6393 21.6464 14.5 21.8491C14.3493 22.0384 14.2319 22.4702 14.2811 22.7362C14.3862 23.2986 14.5646 23.3779 14.6431 23.4853C14.9435 23.7594 14.9694 23.7228 15.049 23.7739C15.1104 23.804 15.1577 23.8238 15.1974 23.8399C15.694 24.0252 15.9782 24.0786 16.3349 24.166L16.535 24.1958C16.5486 24.1967 16.5622 24.1976 16.5758 24.1986C17.5369 24.2672 18.513 24.1809 19.4645 24.254C19.4691 24.2544 19.4737 24.2547 19.4783 24.2549L19.5474 24.2694C19.9187 24.2711 20.1168 24.04 20.2405 23.8624C20.2958 23.812 20.3884 23.8345 20.447 23.9073C20.4623 23.93 20.4924 23.9516 20.5222 23.9673C20.5524 23.983 20.5799 23.9916 20.607 23.9911C20.6341 23.9905 20.6612 23.9808 20.6908 23.9639C20.7199 23.947 20.7491 23.9243 20.7635 23.9009C20.8191 23.7891 20.8673 23.6229 20.8083 23.4257C20.7044 23.1028 20.4465 22.9048 20.2811 22.7657C20.1045 22.626 19.9594 22.5317 19.8491 22.4855L19.9181 22.5C19.9132 22.4978 19.9082 22.4957 19.9033 22.4937C18.8763 22.0785 17.8229 21.7385 16.7534 21.662C16.7383 21.6609 16.7233 21.6599 16.7082 21.6588L16.9083 21.6886C16.6243 21.6239 16.2695 21.5296 16.1489 21.4817C16.1469 21.481 16.1495 21.4816 16.1713 21.4921C16.2088 21.522 16.1928 21.4642 16.4604 21.7067C16.5306 21.8054 16.7016 21.8756 16.805 22.4265C16.8534 22.6871 16.7377 23.1125 16.5902 23.2974C16.4536 23.4959 16.2855 23.6092 16.2167 23.6511C15.8659 23.839 15.8483 23.7917 15.776 23.8147C15.6767 23.8283 15.6674 23.8242 15.6538 23.8251Z" fill="black"/>
<path d="M14.7539 27.2446C15.1623 27.2446 15.554 27.0823 15.8428 26.7935C16.1317 26.5047 16.2939 26.113 16.2939 25.7046C16.2939 25.2962 16.1317 24.9044 15.8428 24.6156C15.554 24.3268 15.1623 24.1646 14.7539 24.1646C14.7111 24.1649 14.6733 24.1644 14.5851 24.1712C14.5438 24.1755 14.4821 24.1778 14.3436 24.2088C14.2981 24.2194 14.2443 24.2336 14.1754 24.2577C14.0924 24.2926 14.0737 24.2793 13.8293 24.4303C13.6292 24.5838 13.2647 24.8049 13.1486 25.551C13.075 26.2755 13.5041 26.7094 13.5348 26.7484C13.7479 26.9773 13.8769 27.0309 13.9203 27.0607C13.9801 27.0951 14.0282 27.1181 14.0623 27.1336C14.1164 27.1582 14.1621 27.1755 14.1906 27.186C14.2476 27.2066 14.2856 27.2181 14.3177 27.2278C14.441 27.2637 14.5062 27.2778 14.578 27.2943C15.258 27.4392 15.8057 27.5152 16.399 27.6026L16.549 27.6167C16.5801 27.6181 16.611 27.6194 16.6419 27.6208C17.8262 27.6599 18.986 26.9949 20.2191 26.4821L20.5979 26.2794L20.5586 26.1173C20.5633 26.0588 20.5539 26.0011 20.5406 25.9594C20.4597 25.7616 20.4032 25.7678 20.3697 25.7362C20.3346 25.7146 20.3088 25.7044 20.2855 25.6959C20.2398 25.68 20.2031 25.6731 20.1683 25.6677C20.0993 25.6574 20.0366 25.6542 19.9754 25.6528C19.8531 25.6502 19.7354 25.655 19.618 25.6605C19.4991 25.6663 19.3811 25.6734 19.2637 25.6789C19.2585 25.6792 19.2525 25.682 19.2476 25.6857C19.2427 25.6894 19.2392 25.6937 19.2376 25.6987C19.2359 25.7037 19.2361 25.7093 19.2378 25.7152C19.2395 25.7211 19.2426 25.7269 19.2466 25.7303C19.3372 25.8051 19.4274 25.8815 19.5159 25.9584C19.6029 26.0342 19.6894 26.1106 19.7685 26.1859C19.8073 26.2234 19.846 26.2614 19.8744 26.2965C19.8881 26.3138 19.9006 26.3313 19.9011 26.3429C19.901 26.3483 19.8983 26.353 19.884 26.3478C19.8709 26.3329 19.8367 26.3582 19.7641 26.186C19.7523 26.1493 19.7435 26.0971 19.7478 26.0436L20.0872 25.6788C19.0311 25.385 17.8855 24.5835 16.775 24.5436C16.7454 24.5423 16.7157 24.541 16.6859 24.5397L16.8358 24.5538C16.2903 24.4749 15.7019 24.3859 15.2549 24.2896C15.2207 24.2821 15.18 24.2713 15.1963 24.2758C15.2023 24.2776 15.2131 24.2805 15.2458 24.2923C15.2621 24.2983 15.2926 24.3096 15.3363 24.3295C15.3637 24.342 15.4048 24.3614 15.4593 24.3927C15.4984 24.4202 15.6188 24.4681 15.8286 24.693C15.8578 24.7307 16.2838 25.1597 16.2108 25.8813C16.0952 26.624 15.7325 26.8433 15.5357 26.9945C15.2954 27.143 15.2785 27.1292 15.1986 27.1628C15.1327 27.1859 15.0824 27.1991 15.0408 27.2088C14.9143 27.2369 14.869 27.2374 14.8397 27.2407C14.779 27.2453 14.7666 27.2443 14.7539 27.2446Z" fill="black"/>
<path d="M15.1268 28.3293C15.3453 28.1108 15.4681 27.8144 15.4681 27.5054C15.4681 27.1963 15.3453 26.8999 15.1268 26.6814C14.9083 26.4629 14.6119 26.3401 14.3028 26.3401C13.9938 26.3401 13.6974 26.4629 13.4788 26.6814C13.4402 26.7213 13.3778 26.7776 13.2775 26.9025C13.1961 27.0283 12.965 27.2428 12.967 27.8245C12.9885 28.2982 13.2635 28.6158 13.4077 28.7435C13.5643 28.8829 13.6759 28.9408 13.77 28.9907L13.9776 29.0729C13.9828 29.0744 13.988 29.0759 13.9933 29.0774C15.4037 29.4531 16.7112 29.3962 18.0383 29.1186L17.9793 29.1288C17.9808 29.1285 17.9824 29.1282 17.984 29.128C18.4859 29.0342 19.1643 28.721 19.8305 28.4788C19.9398 28.4403 20.0449 28.4043 20.1545 28.3723C20.237 28.3475 20.3161 28.2818 20.3745 28.2041C20.4328 28.1255 20.4656 28.0412 20.4656 27.9555C20.4656 27.8698 20.4328 27.7855 20.3745 27.7069C20.3161 27.6292 20.237 27.5635 20.1545 27.5387C20.0449 27.5067 19.9397 27.4707 19.8301 27.4323C19.1589 27.202 18.4943 26.8384 17.6686 26.9344C17.6663 26.9347 17.6641 26.935 17.6619 26.9352L17.6028 26.9454C16.6185 27.1077 15.503 27.0788 14.6331 26.8364C14.6299 26.8355 14.6267 26.8345 14.6236 26.8336L14.8312 26.9158C14.8477 26.9258 14.8834 26.9381 14.9759 27.0195C15.0558 27.0893 15.2769 27.3298 15.295 27.7151C15.2926 28.1868 15.124 28.3032 15.1078 28.3452C15.0747 28.3855 15.0893 28.3657 15.1268 28.3293Z" fill="black"/>
<path d="M13.5244 36.1794C13.6761 36.0277 13.7613 35.8219 13.7613 35.6074C13.7613 35.3928 13.6761 35.187 13.5244 35.0353C13.3727 34.8836 13.1669 34.7984 12.9523 34.7984C12.7378 34.7984 12.532 34.8836 12.3803 35.0353C12.4785 34.9507 12.4681 34.996 12.3761 34.9945C12.2878 34.9986 12.1512 34.9827 12.0083 34.9486C11.7178 34.88 11.3959 34.7495 11.0794 34.5924C11.0768 34.5911 11.0741 34.5897 11.0714 34.5884C10.5523 34.3309 10.1141 33.9391 9.76558 33.4502C8.46282 31.5516 8.40309 28.8434 8.32053 26.2633C8.32003 26.2445 8.3196 26.2258 8.31922 26.2072C8.10099 22.9983 10.7001 20.7274 12.9098 17.7546C12.9361 17.719 12.9623 17.6834 12.9887 17.6478C14.504 15.5616 16.1522 13.4703 17.2307 10.7921C17.2419 10.7633 17.2529 10.7345 17.2637 10.7057C18.0963 8.49034 18.2283 6.13456 17.9336 3.89756C17.9308 3.87693 17.9277 3.85638 17.9245 3.83591C17.8041 3.07166 17.4717 2.42349 17.0867 1.93481C17.0772 1.9228 17.0676 1.91084 17.0579 1.89893C16.5159 1.21193 15.6263 0.75554 14.7964 0.661135C14.7893 0.660209 14.7822 0.659295 14.7751 0.658393C10.1411 0.421032 7.46071 3.60118 5.41568 6.48828C5.394 6.52261 5.37278 6.55715 5.35201 6.59189C3.53137 10.5142 4.489 13.642 4.677 16.8381C4.67879 16.8554 4.68054 16.8726 4.68225 16.8897C5.04037 20.0657 4.06477 22.985 2.23244 25.8363C2.22669 25.8459 2.22095 25.8554 2.21522 25.865C0.768915 28.3104 0.349149 31.0339 0.300494 33.6183C0.300363 33.627 0.300236 33.6357 0.300112 33.6445C0.706064 37.8877 3.98448 39.179 6.30583 40.4084L6.33955 40.4232C6.34489 40.4255 6.35029 40.4278 6.35574 40.4301C6.40613 40.4519 6.46212 40.4769 6.52505 40.5055C6.91809 40.692 7.68996 41.0346 8.41298 41.1136C8.42165 41.1147 8.43033 41.1158 8.43903 41.1169C9.7786 41.2781 11.003 40.6295 11.9084 39.9377C12.0353 39.8338 12.1262 39.6609 12.1715 39.4818C12.2162 39.3012 12.2117 39.1292 12.1485 38.9787C12.0853 38.8283 11.9656 38.7046 11.8053 38.6102C11.6456 38.5172 11.4585 38.4611 11.2955 38.479C10.4197 38.5374 9.63922 38.1128 9.08072 37.9014C9.07705 37.9 9.0734 37.8987 9.06977 37.8973C8.75019 37.7772 8.55896 37.6564 8.00536 37.3791C7.92039 37.3377 7.82774 37.2944 7.72791 37.2513C7.71711 37.2467 7.70621 37.242 7.69522 37.2373L7.72894 37.2521C5.64119 36.3548 3.34264 34.8531 3.39521 33.6496C3.39511 33.6421 3.39502 33.6345 3.39494 33.627C3.36929 31.3864 3.73038 29.1378 4.7636 27.3805C4.76767 27.3736 4.77174 27.3667 4.77582 27.3598C6.69103 24.4088 8.06129 20.3787 7.57705 16.601C7.57499 16.5804 7.57289 16.5597 7.57076 16.539C7.28153 13.5525 7.03838 10.0373 8.01805 8.18617C8.02635 8.17228 8.03465 8.15877 8.04293 8.14561C9.57931 5.76241 12.1683 3.20271 14.415 3.48794C14.4186 3.4884 14.4221 3.48886 14.4257 3.48932C14.6258 3.52032 14.7145 3.59184 14.8217 3.71684C14.8236 3.71908 14.8254 3.72132 14.8272 3.72357C15.0153 3.95744 15.1415 4.14803 15.1749 4.30055C15.1758 4.30473 15.1767 4.30889 15.1776 4.31303C15.4973 6.17608 15.4652 8.11115 14.8471 9.80737C14.839 9.82945 14.8309 9.8515 14.8227 9.87352C14.001 12.0207 12.4437 14.0724 10.9524 16.1668C10.9265 16.2029 10.9006 16.239 10.8748 16.2752C9.04413 18.894 5.73791 22.0532 6.1733 26.3C6.17474 26.3233 6.17626 26.3467 6.17787 26.3702C6.40393 29.0203 6.60812 31.9444 8.43547 34.4497C8.93626 35.0972 9.59332 35.6633 10.35 36.0366C10.3533 36.0383 10.3566 36.0399 10.3599 36.0416C10.7511 36.2341 11.1594 36.4087 11.6379 36.5236C12.1086 36.5896 12.6979 36.8494 13.5244 36.1794Z" fill="black"/>
</svg>
