<svg width="38" height="48" viewBox="0 0 38 48" fill="none" xmlns="http://www.w3.org/2000/svg">
<path d="M20.8597 45.9446C20.8597 45.5985 20.7222 45.2666 20.4775 45.0218C20.2327 44.7771 19.9008 44.6396 19.5547 44.6396C19.2086 44.6396 18.8766 44.7771 18.6319 45.0218C18.3872 45.2666 18.2497 45.5985 18.2497 45.9446C18.2497 45.9868 18.2497 46.0237 18.2498 46.0684C18.2499 46.0896 18.2497 46.1068 18.2504 46.1501C18.2505 46.1536 18.2507 46.165 18.2514 46.1828C18.2518 46.1921 18.2522 46.2032 18.2535 46.2222C18.2538 46.2271 18.2542 46.2325 18.2547 46.2387C18.2549 46.2419 18.2552 46.2453 18.2555 46.2489C18.2601 46.2738 18.241 46.1776 18.2772 46.3988C18.3048 46.4726 18.2611 46.519 18.484 46.8823C18.551 46.9758 18.65 47.1068 18.8605 47.2423C19.0627 47.3778 19.4299 47.4866 19.762 47.4267C20.4511 47.2763 20.5859 46.9224 20.6776 46.8051C20.8273 46.5294 20.8096 46.4822 20.8301 46.4204C20.8417 46.3675 20.8452 46.3412 20.8484 46.3199C20.8501 46.3075 20.85 46.3077 20.8507 46.3023C20.8518 46.2937 20.8527 46.2865 20.8534 46.2802C20.8618 46.1954 20.8596 46.1991 20.8607 46.1871C20.8617 46.1668 20.8622 46.1534 20.8626 46.1421C20.8661 46.0468 20.8681 45.9727 20.8706 45.8927C20.8754 45.7308 20.88 45.5718 20.8847 45.4144C20.8941 45.0977 20.9036 44.779 20.9134 44.4606C20.9328 43.8279 20.9533 43.1848 20.9737 42.5548C20.985 42.2072 20.9959 41.8762 21.0075 41.5272C21.0079 41.5156 21.0083 41.504 21.0087 41.4923C21.2928 35.1426 21.4088 28.4003 22.641 22.6686C22.6933 22.4973 22.7518 22.3309 22.8244 22.1257C22.8278 22.1178 22.8283 22.1281 22.8022 22.1828C22.745 22.2545 22.7773 22.3683 22.319 22.6788C22.1406 22.8044 21.6477 22.933 21.3164 22.8487C21.0028 22.7833 20.8374 22.6658 20.7237 22.5794C20.5536 22.4401 20.5244 22.3755 20.5086 22.3596C20.4718 22.3025 20.57 22.5154 20.6187 22.6824C20.7372 23.0539 20.8452 23.4912 20.9458 23.9342C21.146 24.8232 21.32 25.7529 21.4913 26.6804C21.8355 28.5456 22.1613 30.4294 22.611 32.332C22.6189 32.3654 22.6268 32.3981 22.6347 32.431C22.6995 32.6955 22.828 32.9459 23.0058 33.2681C23.1011 33.4351 23.1882 33.6079 23.3944 33.9121C23.5076 34.0641 23.6393 34.2772 24.0091 34.5346C24.3661 34.8089 25.0801 34.9135 25.4482 34.7971C25.4834 34.7881 25.5186 34.779 25.5537 34.7701C28.8115 33.6521 29.0827 30.8268 29.5829 28.9957C29.9994 27.0588 30.1261 24.9098 30.5269 23.5861C30.5424 23.5425 30.5586 23.4991 30.5755 23.4555C30.8096 22.852 31.2988 22.3167 31.7453 21.8263C31.7396 21.835 31.7286 21.8494 31.7101 21.8695C31.6561 21.9109 31.5836 22.0573 31.1245 22.1994C30.9105 22.2636 30.5469 22.2691 30.2833 22.1777C30.0061 22.0882 29.8356 21.9537 29.7341 21.8613C29.535 21.6675 29.5227 21.6016 29.5002 21.5733C29.4843 21.5459 29.4895 21.5605 29.4951 21.5858C29.5258 21.7035 29.5751 21.9817 29.6061 22.2504C29.6719 22.8035 29.7096 23.4272 29.7416 24.052C29.806 25.3112 29.8375 26.6012 29.953 27.9576C29.97 28.1522 29.9872 28.3381 30.0065 28.5323C30.2693 31.464 30.8724 34.5045 31.2081 37.1428L31.2234 37.2545C31.2362 37.3308 31.2487 37.4077 31.261 37.4847C31.419 38.4765 31.5385 39.502 31.6564 40.5543C31.7527 41.3756 31.8204 42.1635 31.9957 43.1393L31.9779 43.0263C31.9794 43.0378 31.9809 43.0493 31.9823 43.061C32.0227 43.3826 32.6083 43.7344 32.8923 44.1441C32.9934 44.2978 33.1942 44.4452 33.3926 44.5539C33.5943 44.6626 33.777 44.7237 33.9588 44.7237C34.1406 44.7237 34.3233 44.6626 34.525 44.5539C34.7233 44.4452 34.9242 44.2978 35.0253 44.1441C35.3096 43.6778 35.857 43.1507 35.7937 42.6014C35.7914 42.582 35.7891 42.5626 35.7866 42.5431L35.7689 42.4301C35.6569 41.7941 35.578 40.9444 35.4918 40.1378C35.3803 39.0748 35.261 37.9847 35.0845 36.8754C35.0708 36.7891 35.0566 36.7026 35.0422 36.6162L35.0575 36.7279C34.6563 33.6224 34.0964 30.9768 33.8184 28.1395C33.7986 27.9548 33.7798 27.778 33.7604 27.5929C33.6342 26.3738 33.537 25.0767 33.3908 23.7549C33.3162 23.0904 33.2357 22.4209 33.1019 21.6966C33.03 21.3283 32.9609 20.9624 32.7881 20.4683C32.6659 20.2014 32.6701 19.9503 32.0917 19.346C31.8572 19.0558 30.9006 18.648 30.2609 18.8769C29.6448 19.0603 29.4361 19.3208 29.2771 19.468C29.2169 19.5304 29.1634 19.5921 29.1143 19.6534C28.4946 20.4621 28.0887 21.3789 27.711 22.3441C27.6837 22.4143 27.6574 22.4851 27.6319 22.5568C26.962 24.8853 26.9661 26.5791 26.5534 28.3533C26.2338 30.0563 25.4193 31.7118 24.7829 31.7275C24.7745 31.7296 24.7658 31.7311 24.7568 31.732C25.0002 31.6462 25.5779 31.7278 25.831 31.9265C26.0955 32.1095 26.1508 32.2169 26.1989 32.2595C26.2772 32.343 26.2772 32.2732 26.2925 32.1977C26.3137 32.0336 26.3214 31.7877 26.2654 31.555C26.2582 31.5256 26.2511 31.4957 26.2437 31.4649C25.8106 29.6508 25.3668 27.7932 24.8805 25.9267C24.637 24.9946 24.3863 24.0564 24.0996 23.0987C23.9529 22.6147 23.8067 22.1419 23.6007 21.6054C23.4872 21.3318 23.4093 21.0804 23.1155 20.6246C23.0438 20.5233 22.9233 20.3412 22.672 20.139C22.5043 20.01 22.2901 19.8662 21.9206 19.7893C21.5309 19.6916 20.9693 19.8374 20.7482 19.9896C20.1832 20.3682 20.1613 20.5702 20.0394 20.7627C19.9619 20.9182 19.9219 21.0304 19.8815 21.1545C19.821 21.3508 19.7475 21.5857 19.6836 21.822C18.4275 28.7188 18.7167 34.892 18.4001 41.4055C18.3997 41.4172 18.3993 41.4288 18.3989 41.4405C18.3873 41.7901 18.3764 42.1218 18.3651 42.47C18.3446 43.1013 18.3241 43.746 18.3046 44.3806C18.2948 44.6999 18.2852 45.0198 18.2758 45.3373C18.2711 45.495 18.2665 45.6547 18.2617 45.8147C18.2594 45.8913 18.257 45.9735 18.2545 46.0424C18.2542 46.049 18.2538 46.0579 18.2539 46.0564C18.2546 46.0507 18.2516 46.0711 18.2593 45.9921C18.26 45.9862 18.2607 45.9794 18.2618 45.9711C18.2625 45.9658 18.2624 45.9661 18.2641 45.9541C18.2672 45.9332 18.2706 45.9074 18.2821 45.8549C18.3026 45.7934 18.2848 45.7464 18.4344 45.4708C18.5261 45.3536 18.6609 44.9998 19.3499 44.8494C19.682 44.7894 20.0492 44.8983 20.2513 45.0337C20.4619 45.1692 20.5608 45.3002 20.6278 45.3937C20.8506 45.7569 20.8069 45.8031 20.8344 45.8766C20.8703 46.0957 20.8512 45.9992 20.8558 46.024C20.8561 46.0275 20.8564 46.0307 20.8566 46.0336C20.8571 46.0395 20.8574 46.0445 20.8577 46.0489C20.8589 46.0663 20.8592 46.0752 20.8595 46.0819C20.86 46.095 20.8599 46.0977 20.86 46.0985C20.86 46.1023 20.8598 46.0762 20.8598 46.0616C20.8597 46.0238 20.8597 45.9864 20.8597 45.9446Z" fill="black"/>
<path d="M23.6841 36.0416C24.2313 36.0416 24.7785 36.0416 25.3257 36.0416C25.3255 36.0023 25.3253 35.9637 25.3187 35.898C25.3153 35.8666 25.3101 35.8241 25.2965 35.7663C25.2737 35.6969 25.2794 35.6274 25.1326 35.4228C25.0689 35.3361 24.8927 35.1713 24.6584 35.1215C24.4175 35.0683 24.2395 35.1275 24.1448 35.1662C23.9439 35.2591 23.9134 35.3122 23.8636 35.3545C23.7834 35.4354 23.7592 35.474 23.7311 35.5122C23.5404 35.8055 23.4954 35.9335 23.4015 36.1136C23.3998 36.117 23.398 36.1204 23.3961 36.1237C23.4125 36.0909 23.4345 36.0505 23.4729 35.999C23.5137 35.9523 23.5509 35.8767 23.7492 35.7654C23.9298 35.6583 24.2637 35.6455 24.4563 35.7439C24.6629 35.8439 24.7056 35.9184 24.7514 35.9656C24.9027 36.1693 24.8716 36.1724 24.8933 36.2097C24.9145 36.2674 24.9165 36.2744 24.9226 36.2855C24.9322 36.3016 24.9397 36.2966 24.9495 36.2916C24.9685 36.2798 24.9934 36.2579 25.0197 36.2425C25.0457 36.2277 25.0737 36.2135 25.0937 36.2322C25.1029 36.2436 25.1128 36.2585 25.1062 36.3221C25.1004 36.358 25.0975 36.3988 25.0508 36.5074C25.0268 36.5593 24.9882 36.6414 24.8919 36.751C24.7903 36.8681 24.5585 37.0563 24.2238 37.0864C23.8454 37.1122 23.6556 36.9746 23.5698 36.9241C23.3278 36.7437 23.3619 36.7256 23.3335 36.6989C23.3202 36.6783 23.322 36.6774 23.3263 36.6815C23.3362 36.6912 23.3593 36.7226 23.3915 36.7673C23.4277 36.8152 23.4566 36.8655 23.5677 36.993C23.6476 37.056 23.65 37.1666 24.0938 37.3345C24.3118 37.4249 24.7949 37.357 24.9928 37.1849C25.2073 37.0238 25.2616 36.9061 25.3132 36.8184C25.4025 36.6395 25.4042 36.5876 25.4231 36.5238C25.4888 36.2226 25.5114 36.1179 25.5553 35.9572C25.5751 35.8828 25.594 35.8106 25.6094 35.7386C25.617 35.703 25.6238 35.6667 25.6292 35.6307C25.6319 35.613 25.6342 35.5941 25.6362 35.5766C25.6372 35.5664 25.6381 35.5588 25.6389 35.5484C25.6393 35.5443 25.6396 35.5387 25.64 35.5343C25.6401 35.5327 25.6403 35.529 25.6404 35.5277C25.6405 35.5273 25.6405 35.5271 25.6405 35.5272C25.6405 35.5273 25.6406 35.5273 25.6405 35.5303C25.6405 35.5326 25.6406 35.5328 25.6403 35.5454C25.6401 35.5491 25.6401 35.5534 25.6396 35.5643C25.6366 35.588 25.6467 35.5514 25.6235 35.712C25.6181 35.7406 25.6136 35.7717 25.5912 35.8471C25.5496 35.9191 25.5992 36.0345 25.2311 36.3889C25.0975 36.4973 24.9504 36.5822 24.7276 36.6293C24.608 36.6503 24.533 36.661 24.3577 36.6418C24.2457 36.6273 24.1394 36.5955 24.0511 36.5568C23.6968 36.3923 23.5873 36.1844 23.5273 36.0937C23.411 35.8818 23.417 35.8314 23.3991 35.7747C23.3647 35.6056 23.3758 35.6186 23.3716 35.5906C23.3695 35.5561 23.3698 35.5518 23.3695 35.5441C23.3688 35.498 23.3692 35.5264 23.3691 35.5188C23.369 35.5163 23.369 35.5179 23.3689 35.5194C23.3678 35.5365 23.3672 35.5564 23.3672 35.5743C23.3672 35.941 24.0778 36.3074 24.0778 36.6743C24.0778 36.6855 24.0778 36.6991 24.0778 36.71C24.0778 36.7228 24.0778 36.7344 24.0778 36.7457C24.0778 36.7526 24.0778 36.7567 24.0778 36.7639C24.0778 36.7665 24.0778 36.77 24.0778 36.7726C24.0778 36.773 24.0778 36.7743 24.0778 36.775C24.0778 36.7751 24.0778 36.7752 24.0778 36.7753C24.0778 36.7754 24.0778 36.7754 24.0778 36.7754C24.0778 36.7754 24.0778 36.7754 24.0778 36.7754V36.7754C24.3625 36.7754 23.1288 36.7754 24.932 36.7754C24.932 36.7754 24.932 36.7754 24.932 36.7754C24.932 36.7754 24.932 36.7754 24.932 36.7754C24.932 36.7754 24.932 36.7754 24.932 36.7754C24.932 36.7754 24.932 36.7754 24.932 36.7754C24.932 36.7754 24.932 36.7754 24.932 36.7754C24.932 36.7754 24.932 36.7744 24.932 36.7741C24.932 36.7731 24.932 36.7714 24.932 36.7696C24.932 36.7457 24.932 36.7225 24.932 36.6986C24.932 36.6505 24.932 36.6038 24.932 36.5559C24.932 36.4607 24.932 36.3659 24.932 36.2709C24.932 36.1943 24.932 36.1181 24.932 36.0416C24.6473 36.0416 24.3625 36.0416 24.0778 36.0416C24.0778 36.1181 24.0778 36.1943 24.0778 36.2709C24.0778 36.3659 24.0778 36.4607 24.0778 36.5559C24.0778 36.6038 24.0778 36.6505 24.0778 36.6986C24.0778 36.7225 24.0778 36.7457 24.0778 36.7696C24.0778 36.7714 24.0778 36.7731 24.0778 36.7741C24.0778 36.7744 24.0778 36.7754 24.0778 36.7754C24.0778 36.7754 24.0778 36.7754 24.0778 36.7754C24.0778 36.7754 24.0778 36.7754 24.0778 36.7754C24.0778 36.7754 24.0778 36.7754 24.0778 36.7754C24.0778 36.7754 24.0778 36.7754 24.0778 36.7754C24.0778 36.7754 24.0778 36.7754 24.0778 36.7754C25.881 36.7754 24.6473 36.7754 24.932 36.7754V36.7754C24.932 36.7754 24.932 36.7754 24.932 36.7754C24.932 36.7754 24.932 36.7754 24.932 36.7753C24.932 36.7752 24.932 36.7751 24.932 36.775C24.932 36.7743 24.932 36.773 24.932 36.7726C24.932 36.77 24.932 36.7665 24.932 36.7639C24.932 36.7567 24.932 36.7526 24.932 36.7457C24.932 36.7344 24.932 36.7228 24.932 36.71C24.932 36.6991 24.932 36.6855 24.932 36.6743C24.932 36.3074 25.6426 35.941 25.6426 35.5743C25.6426 35.5564 25.642 35.5365 25.6409 35.5194C25.6408 35.5176 25.6408 35.517 25.6407 35.5133C25.6406 35.5054 25.641 35.5339 25.6403 35.4872C25.64 35.4795 25.6403 35.4751 25.6382 35.4407C25.634 35.4127 25.6451 35.4257 25.6107 35.2566C25.5928 35.1999 25.5988 35.1495 25.4825 34.9375C25.4225 34.8468 25.313 34.6389 24.9587 34.4745C24.8704 34.4358 24.7641 34.4039 24.6521 34.3894C24.4768 34.3702 24.4018 34.381 24.2822 34.4019C24.0594 34.4491 23.9123 34.5339 23.7787 34.6424C23.4106 34.9967 23.4602 35.1122 23.4186 35.1842C23.3962 35.2596 23.3917 35.2907 23.3863 35.3192C23.3631 35.4799 23.3732 35.4433 23.3702 35.4669C23.3697 35.4778 23.3697 35.4822 23.3695 35.4859C23.3692 35.4986 23.3693 35.499 23.3693 35.5014C23.3692 35.5048 23.3692 35.506 23.3692 35.5062C23.3693 35.5069 23.3693 35.5075 23.3693 35.508C23.3694 35.51 23.3696 35.5123 23.3697 35.5135C23.37 35.5165 23.3702 35.5204 23.3705 35.5234C23.3711 35.5308 23.3718 35.5366 23.3726 35.5443C23.3741 35.5576 23.3759 35.5723 23.378 35.5862C23.3821 35.6145 23.3872 35.6434 23.3929 35.6714C23.4043 35.7283 23.4181 35.7847 23.4307 35.8387C23.4586 35.9346 23.4668 36.0887 23.4753 36.0387C23.4836 36.0167 23.474 36.0045 23.5435 35.8634C23.5854 35.7936 23.6291 35.691 23.828 35.5411C24.011 35.3803 24.4729 35.3155 24.6731 35.4C25.0799 35.5556 25.0554 35.637 25.1104 35.6716C25.1724 35.741 25.1613 35.7258 25.1582 35.7086C25.1513 35.688 25.1368 35.6529 25.1072 35.5976C25.0916 35.569 25.0731 35.5359 25.0378 35.4843C24.9872 35.4272 24.9981 35.3775 24.7246 35.1752C24.6285 35.1179 24.4255 34.9741 24.0343 35.0012C23.6894 35.0322 23.4492 35.226 23.3405 35.3509C23.2379 35.4674 23.1939 35.5589 23.1657 35.6195C23.1105 35.7466 23.1023 35.8061 23.0919 35.862C23.0764 35.9647 23.0817 36.0192 23.0876 36.0706C23.1013 36.1693 23.129 36.2351 23.1575 36.3004C23.1863 36.3652 23.2166 36.4227 23.2449 36.4909C23.2594 36.5258 23.2724 36.5601 23.2899 36.6155C23.3001 36.6471 23.3063 36.6725 23.3341 36.7498C23.3589 36.7958 23.3313 36.8087 23.4892 37.0207C23.5365 37.0696 23.5808 37.1459 23.7899 37.247C23.9849 37.3465 24.321 37.3336 24.5039 37.2253C24.7046 37.1128 24.7434 37.0352 24.7855 36.9868C24.8253 36.9335 24.8487 36.8908 24.8665 36.8552C24.868 36.8517 24.8695 36.8483 24.8712 36.845C24.9467 36.6913 25.0581 36.4766 25.0734 36.4574C25.0679 36.4637 25.0665 36.4722 25.0135 36.5261C24.9776 36.555 24.9607 36.596 24.7782 36.6808C24.692 36.7159 24.5238 36.7729 24.2924 36.7219C24.0673 36.674 23.8995 36.5161 23.8411 36.4363C23.7061 36.2475 23.7171 36.1954 23.6992 36.1456C23.6898 36.1051 23.6876 36.0831 23.686 36.0699C23.6834 36.0429 23.6842 36.0407 23.6841 36.0416Z" fill="black"/>
<path d="M26.3955 35.5915C26.3955 35.8065 26.4809 36.0127 26.6329 36.1647C26.785 36.3167 26.9911 36.4021 27.2061 36.4021C27.4211 36.4021 27.6273 36.3167 27.7793 36.1647C27.9313 36.0127 28.0167 35.8065 28.0167 35.5915C28.0166 35.5559 28.016 35.5191 28.0113 35.4655C28.0012 35.4055 28.0152 35.3595 27.9322 35.1539C27.9111 35.1073 27.8668 35.0186 27.7841 34.9285C27.6886 34.8205 27.5019 34.691 27.274 34.6651C26.8152 34.6435 26.7214 34.8057 26.6374 34.8525C26.5039 34.9684 26.4853 35.0129 26.4513 35.0568C26.2538 35.3724 26.2327 35.4831 26.1539 35.6648C26.1675 35.6387 26.1586 35.6267 26.2495 35.4919C26.2734 35.4626 26.2441 35.4891 26.3347 35.3927C26.398 35.3367 26.4935 35.2283 26.7583 35.1717C27.0272 35.1001 27.4169 35.2834 27.5269 35.4496C27.7565 35.7763 27.6922 35.8468 27.713 35.9124C27.7149 35.9441 27.7144 35.9402 27.7147 35.9522C27.7153 35.9873 27.714 36.007 27.713 36.0226C27.7077 36.0835 27.7072 36.0742 27.7059 36.0854C27.7095 36.0708 27.832 35.9143 27.9419 35.8459C27.9981 35.8053 28.0556 35.7672 28.1013 35.7412C28.1238 35.729 28.144 35.7187 28.1545 35.7247C28.1594 35.7282 28.1625 35.7354 28.1557 35.7594C28.1345 35.797 28.1756 35.7893 27.9924 36.0131C27.9524 36.0569 27.9002 36.1082 27.8251 36.1632C27.7295 36.2302 27.6136 36.3059 27.3925 36.357C27.1698 36.4097 26.8825 36.3798 26.6765 36.2837C26.4674 36.1876 26.3678 36.087 26.2905 36.0048C26.1211 35.8063 26.1088 35.7248 26.0837 35.6686C26.0629 35.6098 26.0583 35.5793 26.056 35.556C26.0521 35.5093 26.0616 35.493 26.0736 35.4815C26.0986 35.4609 26.1379 35.4674 26.1793 35.4778C26.2624 35.499 26.3565 35.5532 26.4003 35.5893C26.4003 35.5897 26.4004 35.588 26.4004 35.5918C26.4004 35.5933 26.4004 35.5919 26.4005 35.6011C26.4006 35.6051 26.4003 35.6043 26.4013 35.6273C26.4017 35.6346 26.4018 35.6416 26.4043 35.6685C26.4062 35.684 26.4063 35.6986 26.418 35.7568C26.427 35.7899 26.427 35.8243 26.4839 35.9464C26.5195 36.0076 26.5539 36.1092 26.7498 36.2533C26.9284 36.4189 27.4474 36.4342 27.6422 36.2668C28.0156 35.9655 27.9344 35.8831 27.977 35.8235C27.9936 35.7674 27.9969 35.7434 28.0006 35.7235C28.0066 35.6862 28.0074 35.6732 28.0086 35.6614C28.0104 35.6401 28.0106 35.6334 28.0109 35.627C28.0122 35.5934 28.0116 35.6027 28.0117 35.5979C28.0118 35.5919 28.0118 35.5932 28.0118 35.5923C28.0117 35.5915 28.0117 35.5915 28.0117 35.5914C28.0117 35.5911 28.0116 35.5914 28.0115 35.5914C28.0114 35.5915 28.0113 35.5914 28.0112 35.5914C28.0109 35.5914 28.0107 35.5913 28.0104 35.5912C28.0099 35.5911 28.0094 35.5904 28.009 35.5903C28.008 35.5897 28.0071 35.5888 28.0062 35.5878C28.0044 35.5861 28.0027 35.5842 28.0012 35.582C27.998 35.5782 27.9954 35.5736 27.9933 35.5693C27.989 35.5605 27.9868 35.5514 27.9871 35.5425C27.9885 35.4925 28.0526 35.4428 28.1255 35.4238C28.1614 35.416 28.2013 35.4118 28.2276 35.4489C28.2394 35.4698 28.2521 35.4961 28.2344 35.5794C28.2233 35.6222 28.2089 35.6811 28.1376 35.7924C28.064 35.8887 27.8972 36.1662 27.3799 36.2379C27.0097 36.2716 26.7678 36.1268 26.6599 36.0557C26.5425 35.9745 26.4963 35.9217 26.4553 35.8776C26.3853 35.7982 26.3649 35.7613 26.3479 35.732C26.2873 35.6105 26.3201 35.6636 26.3273 35.6852C26.3402 35.7159 26.3573 35.7603 26.3758 35.8074C26.413 35.9028 26.4572 36.0129 26.5071 36.1238C26.6073 36.3481 26.7324 36.5838 26.885 36.8214C26.9261 36.8856 26.9689 36.9485 27.014 37.0142C27.0995 37.1372 27.1986 37.2532 27.3208 37.3332C27.443 37.4132 27.5784 37.4506 27.7118 37.4356C27.8452 37.4206 27.9689 37.354 28.0703 37.2488C28.1716 37.1436 28.2425 37.0085 28.2984 36.8696C28.3275 36.7923 28.3543 36.7176 28.3784 36.6412C28.4679 36.3577 28.523 36.0742 28.536 35.781C28.5424 35.6346 28.5384 35.4853 28.5182 35.3252C28.5079 35.2447 28.4938 35.1618 28.4703 35.0661C28.4404 34.9621 28.4345 34.889 28.3127 34.6519C28.2836 34.6007 28.2504 34.5433 28.1653 34.4457C28.116 34.3918 28.0618 34.3308 27.9344 34.2425C27.8169 34.1646 27.563 34.0145 27.1809 34.0493C26.6466 34.1227 26.4674 34.4123 26.3839 34.522C26.3033 34.6463 26.2815 34.7205 26.2643 34.7782C26.2342 34.8921 26.2385 34.9503 26.2431 35.0029C26.2551 35.1045 26.2861 35.1648 26.3146 35.2224C26.3732 35.3339 26.4303 35.415 26.4277 35.4964C26.4272 35.5108 26.4245 35.5252 26.4198 35.5397C26.4175 35.5469 26.4146 35.5546 26.4114 35.5617C26.4097 35.5658 26.408 35.5696 26.4061 35.5734C26.4052 35.5758 26.4043 35.5779 26.4033 35.5797C26.4028 35.5803 26.4023 35.5825 26.4018 35.5835C26.4016 35.5841 26.4013 35.5847 26.4011 35.5852C26.4009 35.5856 26.4008 35.5851 26.4007 35.5864C26.4006 35.5868 26.4006 35.5873 26.4005 35.5872C26.4005 35.5871 26.4005 35.5871 26.4005 35.5864C26.4005 35.5855 26.4004 35.5868 26.4005 35.5808C26.4006 35.5759 26.4 35.5852 26.4013 35.5516C26.4016 35.5453 26.4018 35.5386 26.4036 35.5172C26.4048 35.5055 26.4056 35.4925 26.4117 35.4552C26.4153 35.4352 26.4186 35.4113 26.4352 35.3552C26.4778 35.2956 26.3966 35.2132 26.77 34.9119C26.9649 34.7445 27.4838 34.7598 27.6624 34.9253C27.8583 35.0694 27.8927 35.171 27.9283 35.2322C27.9852 35.3544 27.9852 35.3888 27.9942 35.4219C28.0059 35.4801 28.006 35.4947 28.0079 35.5102C28.0104 35.537 28.0105 35.544 28.0109 35.5514C28.0119 35.5744 28.0116 35.5735 28.0117 35.5776C28.0118 35.5868 28.0118 35.5854 28.0118 35.5868C28.0118 35.5906 28.0119 35.5889 28.0119 35.5893C28.0551 35.4998 28.145 35.4268 28.2187 35.3224C28.2552 35.2698 28.2884 35.2135 28.3036 35.1303C28.3107 35.0877 28.3145 35.0403 28.3025 34.9629C28.2963 34.925 28.287 34.8791 28.2603 34.8052C28.2297 34.7352 28.2101 34.6381 28.0304 34.4282C27.9487 34.3413 27.8448 34.2371 27.6301 34.1384C27.4184 34.0397 27.1252 34.0092 26.8965 34.0632C26.6693 34.1157 26.5486 34.1939 26.4475 34.2649C26.368 34.3231 26.3114 34.3783 26.2667 34.4272C26.062 34.6759 26.0898 34.6956 26.0539 34.7634C26.0336 34.816 26.024 34.8534 26.0171 34.8871C26.0041 34.9534 26.0033 35.0039 26.0056 35.053C26.0109 35.1503 26.0322 35.2354 26.0537 35.3194C26.0951 35.5004 26.1515 35.5922 26.1046 35.8326C26.1026 35.8487 26.1014 35.8431 26.0957 35.9099C26.0946 35.9267 26.0933 35.9474 26.0939 35.9832C26.0942 35.9955 26.0937 35.9916 26.0956 36.0237C26.1165 36.0902 26.0523 36.1613 26.2821 36.4882C26.3922 36.6544 26.7821 36.8378 27.0511 36.7662C27.316 36.7095 27.4117 36.6011 27.4752 36.5449C27.566 36.4482 27.5367 36.4748 27.5607 36.4453C27.6524 36.3093 27.6446 36.295 27.6597 36.2654C27.7056 36.1428 27.8022 35.9449 27.7825 35.982C27.7685 35.9975 27.7715 36.0131 27.6648 36.1065C27.5951 36.1419 27.5167 36.2941 27.0759 36.2741C26.857 36.2494 26.6776 36.1244 26.5886 36.0234C26.5112 35.9388 26.4721 35.8594 26.4541 35.8198C26.385 35.6463 26.4035 35.6369 26.3968 35.6114C26.3952 35.5926 26.3956 35.5902 26.3955 35.5915Z" fill="black"/>
<path d="M25.4053 40.5593C25.6484 40.5593 25.8816 40.4627 26.0535 40.2907C26.2255 40.1188 26.3221 39.8856 26.3221 39.6425C26.3221 39.3994 26.2255 39.1662 26.0535 38.9943C25.8816 38.8223 25.6484 38.7258 25.4053 38.7258C25.4062 38.7259 25.4115 38.7254 25.4359 38.7275C25.4683 38.7355 25.4853 38.7152 25.6847 38.7962C25.7561 38.8324 26.0595 38.9638 26.1755 39.3919C26.258 39.8191 26.1126 39.9793 26.0765 40.0616C25.9782 40.2121 25.956 40.2111 25.9387 40.2316C25.8914 40.2704 25.9548 40.2206 25.9982 40.1935C26.1016 40.1255 26.2312 40.0439 26.3591 39.9592C26.4668 39.8839 26.6507 39.7499 26.7505 39.4301C26.835 39.1491 26.7577 38.8805 26.6948 38.7557C26.6271 38.6174 26.5648 38.5504 26.5212 38.5019C26.4257 38.4022 26.3701 38.3662 26.3176 38.3288C26.2191 38.2621 26.1527 38.228 26.0883 38.1946C25.9629 38.1313 25.8551 38.0853 25.7345 38.0453C25.4877 37.9922 25.238 37.8301 24.6161 38.1493C24.5205 38.2076 24.4344 38.2781 24.3619 38.3539C23.9183 38.8595 23.9722 39.2992 24.0261 39.6201C24.0972 39.9496 24.2405 40.2214 24.4363 40.4812C24.4575 40.509 24.4792 40.5361 24.5011 40.5625C24.7335 40.8339 25.0064 41.044 25.4164 41.1559C25.7989 41.2891 26.5283 41.1364 26.8442 40.693C26.8595 40.6742 26.8739 40.6553 26.8877 40.6365C27.2228 40.1272 27.2351 39.8179 27.2721 39.4616C27.2817 39.2859 27.277 39.1097 27.2398 38.9063C27.1913 38.7013 27.164 38.4735 26.8671 38.1208C26.86 38.113 26.8527 38.1052 26.8453 38.0974C26.5757 37.7833 26.0268 37.6392 25.7132 37.7008C25.384 37.748 25.1834 37.865 25.0157 37.9776C24.6904 38.2114 24.4857 38.471 24.326 38.8243C24.3197 38.839 24.3134 38.8539 24.3074 38.869C24.1773 39.1964 24.1426 39.5252 24.1933 39.8649C24.2212 40.0367 24.2672 40.2129 24.3782 40.4188C24.4935 40.6102 24.6694 40.9171 25.1891 41.0674C25.2719 41.0882 25.3592 41.1006 25.447 41.1029C25.8467 41.1021 26.0326 40.9725 26.1687 40.8943C26.3017 40.8088 26.3852 40.7326 26.4585 40.6615C26.6018 40.5191 26.6948 40.3973 26.7876 40.2608C26.8009 40.2411 26.8089 40.225 26.8253 40.1923C26.8253 40.1923 26.8253 40.1923 26.825 40.1926C26.8249 40.1929 26.8247 40.193 26.824 40.1942C26.8235 40.1949 26.8232 40.1953 26.8208 40.1988C26.8186 40.2021 26.8207 40.1993 26.8063 40.2197C26.7999 40.2281 26.8012 40.2285 26.7649 40.2734C26.7535 40.2868 26.742 40.302 26.7011 40.3435C26.6783 40.3653 26.6532 40.3929 26.5762 40.4489C26.5354 40.4769 26.4834 40.5147 26.3709 40.561C26.2611 40.5992 26.0594 40.6857 25.7106 40.5871C25.3487 40.4914 25.09 40.1061 25.0531 39.9091C24.9992 39.6991 25.0183 39.5945 25.025 39.5195C25.046 39.3766 25.0673 39.3362 25.0802 39.2973C25.1067 39.2287 25.1175 39.2114 25.1264 39.1931C25.176 39.1019 25.163 39.1296 25.1701 39.1167C25.1907 39.0848 25.1779 39.1047 25.1808 39.1002C25.1807 39.1005 25.1802 39.1013 25.1798 39.1021C25.1796 39.1025 25.1794 39.1029 25.1793 39.1033C25.1789 39.1042 25.1785 39.1052 25.178 39.1062C25.1769 39.1086 25.1762 39.1102 25.1757 39.1117C25.1747 39.1146 25.1726 39.1192 25.172 39.1217C25.1701 39.1276 25.1678 39.1345 25.1664 39.1403C25.1627 39.1532 25.1603 39.1654 25.1586 39.1776C25.1545 39.2029 25.1529 39.2284 25.1527 39.2555C25.1522 39.3648 25.1783 39.4871 25.208 39.6308C25.2231 39.705 25.2378 39.777 25.2536 39.8961C25.265 39.9599 25.2609 40.0262 25.3149 40.1896C25.3427 40.2681 25.4106 40.3934 25.5296 40.4726C25.6466 40.5511 25.7555 40.5611 25.8264 40.5579C25.8827 40.5103 25.9396 40.4198 25.9825 40.3358C26.0256 40.25 26.0514 40.1776 26.0559 40.1052C26.0604 40.0327 26.0439 39.9577 26.0118 39.8672C25.9796 39.7785 25.9345 39.6817 25.8845 39.6274C25.9371 39.623 26.0295 39.6284 26.1329 39.6963C26.2381 39.765 26.2976 39.8742 26.3212 39.9362C26.3673 40.0657 26.3677 40.0972 26.3858 40.1272C26.4159 40.1786 26.4559 40.1863 26.4985 40.1973C26.584 40.2148 26.6772 40.2164 26.7472 40.2072C26.7646 40.2048 26.7805 40.2017 26.7946 40.1977C26.8015 40.1959 26.8081 40.1939 26.8141 40.1916C26.8169 40.1908 26.8198 40.1895 26.8222 40.1889C26.8233 40.1887 26.8247 40.188 26.8256 40.188C26.826 40.188 26.8265 40.188 26.8268 40.1881C26.827 40.1881 26.8271 40.1883 26.8272 40.1885C26.8273 40.1885 26.8273 40.1887 26.8273 40.1888C26.8273 40.1889 26.8271 40.1893 26.8271 40.1893C26.8301 40.1847 26.8173 40.2046 26.8379 40.1727C26.8451 40.1598 26.8321 40.1875 26.8817 40.0963C26.8906 40.078 26.9013 40.0607 26.9279 39.9921C26.9407 39.9531 26.9621 39.9128 26.9831 39.7699C26.9898 39.6948 27.0089 39.5903 26.955 39.3803C26.918 39.1833 26.6594 38.798 26.2975 38.7023C25.9486 38.6037 25.7469 38.6901 25.6372 38.7284C25.5247 38.7747 25.4727 38.8124 25.4318 38.8404C25.3548 38.8965 25.3298 38.9241 25.307 38.9459C25.266 38.9873 25.2546 39.0026 25.2431 39.016C25.2068 39.0609 25.2082 39.0613 25.2018 39.0697C25.1874 39.0901 25.1895 39.0873 25.1872 39.0905C25.1849 39.0941 25.1846 39.0944 25.1841 39.0952C25.1833 39.0963 25.1832 39.0965 25.183 39.0968C25.1827 39.0972 25.1827 39.0972 25.1827 39.0972C25.1833 39.088 25.1738 39.097 25.1699 39.1012C25.1327 39.1449 25.084 39.1956 25.0672 39.2072C25.0602 39.2128 25.0583 39.2087 25.0974 39.1822C25.1395 39.1623 25.2202 39.0812 25.5077 39.0779C25.5699 39.0794 25.6321 39.0882 25.6903 39.1028C26.0585 39.2134 26.126 39.3916 26.1689 39.4497C26.2069 39.5197 26.2098 39.5459 26.215 39.5655C26.2213 39.6008 26.2234 39.6126 26.2107 39.6554C26.2101 39.657 26.2096 39.6585 26.2092 39.66C26.1937 39.693 26.2214 39.6718 26.1859 39.7066C26.1634 39.7215 26.1259 39.7603 25.9716 39.7851C25.8314 39.8219 25.4699 39.7319 25.3202 39.5492C25.3161 39.5449 25.3122 39.5406 25.3084 39.5364C25.1568 39.3487 25.1993 39.3366 25.1977 39.3431C25.2057 39.3535 25.2184 39.3957 25.2257 39.4382C25.2527 39.5146 25.2004 39.6574 25.2924 39.5153C25.297 39.5095 25.3021 39.5033 25.3078 39.4968C25.3633 39.4291 25.4833 39.3457 25.5964 39.3208C25.7099 39.2934 25.7913 39.3104 25.8329 39.3254C25.9157 39.361 25.8965 39.3732 25.9143 39.3882C25.9157 39.3899 25.9175 39.3916 25.9197 39.3934C25.9359 39.4075 25.9673 39.3854 26.006 39.4124C26.0298 39.435 26.1271 39.5429 25.8948 39.8222C25.8561 39.8626 25.8077 39.9018 25.7534 39.9339C25.3514 40.1228 25.373 39.9803 25.3699 39.97C25.3726 39.9535 25.3869 39.9421 25.3775 39.9261C25.3712 39.9167 25.362 39.9098 25.3161 39.877C25.2907 39.8572 25.2596 39.8393 25.1864 39.7628C25.1528 39.725 25.101 39.6712 25.0401 39.5471C24.9839 39.436 24.91 39.184 24.9899 38.9182C25.0845 38.6158 25.2557 38.4946 25.3473 38.4301C25.2363 38.5038 25.1245 38.5738 24.9883 38.6632C24.9165 38.713 24.8654 38.7373 24.7133 38.8677C24.6711 38.9107 24.6231 38.9345 24.5067 39.1142C24.4618 39.2113 24.3092 39.3882 24.3957 39.8326C24.5154 40.2775 24.8359 40.4208 24.9215 40.4633C25.1524 40.5581 25.2044 40.5422 25.2711 40.5536C25.3292 40.5586 25.3683 40.5591 25.4053 40.5593Z" fill="black"/>
<path d="M28.564 37.5274C28.2417 37.5254 27.9319 37.6516 27.7026 37.8781C27.4733 38.1046 27.3434 38.4129 27.3414 38.7352C27.3395 39.0575 27.4656 39.3674 27.6922 39.5966C27.9187 39.8259 28.227 39.9558 28.5493 39.9578C29.0293 39.9417 29.1879 39.8512 29.3899 39.7876C31.5185 38.8493 32.9356 37.7539 34.591 36.7042C34.5997 36.6985 34.6084 36.6928 34.6171 36.6871L34.497 36.7563C34.8242 36.5892 35.1899 36.4261 35.6214 36.2443C35.6351 36.2384 35.6485 36.2314 35.6616 36.2232C35.8008 36.1355 35.8916 35.9176 35.9484 35.6919C35.9592 35.6421 35.9713 35.5921 35.9606 35.547C35.9486 35.5229 35.9592 35.509 35.8556 35.4772C35.8274 35.4661 35.7793 35.4592 35.6858 35.4009C35.5793 35.3563 35.4272 35.0958 35.4654 34.9497C35.5176 34.7171 35.5687 34.7491 35.5866 34.7279C35.7055 34.7372 35.6561 34.8945 35.65 34.9802C35.6442 35.0101 35.6492 35.0543 35.6567 35.0928C35.6647 35.1319 35.6747 35.162 35.6914 35.1869C35.7082 35.2117 35.7323 35.2323 35.7655 35.2544C35.7983 35.2759 35.8375 35.297 35.8674 35.303C35.9801 35.3064 36.0526 35.3862 36.2689 35.2898C36.2976 35.2553 36.3609 35.2713 36.4149 35.0216C36.4541 34.8659 36.2971 34.5975 36.1825 34.5484C36.0818 34.4859 36.024 34.4767 35.9874 34.4645C35.848 34.4289 35.8226 34.4203 35.7749 34.4017C35.6932 34.3683 35.6359 34.3357 35.5773 34.3044C35.3238 34.1635 35.1088 34.0509 34.942 34.0645C34.9267 34.0657 34.9116 34.0682 34.8969 34.0718C34.4395 34.1852 33.9163 34.3289 33.4058 34.5847L33.2858 34.6538C33.277 34.6595 33.2682 34.6653 33.2594 34.671C31.6762 35.6941 29.9625 36.8929 28.5549 37.505C28.4885 37.5371 28.3664 37.5397 28.564 37.5274Z" fill="black"/>
<path d="M30.1638 40.0929C30.1638 39.7858 30.0418 39.4913 29.8247 39.2741C29.6075 39.0569 29.313 38.9349 29.0059 38.9349C28.6987 38.9349 28.4042 39.0569 28.187 39.2741C27.9699 39.4913 27.8479 39.7858 27.8479 40.0929C27.8513 40.1529 27.8338 40.305 27.9055 40.5808C27.9678 40.8573 28.2259 41.2172 28.4599 41.364C28.6118 41.4693 28.7427 41.5234 28.8525 41.5617L29.2816 41.6233C29.2839 41.6232 29.2862 41.6231 29.2884 41.623C30.8862 41.5525 32.5139 41.2232 33.8618 40.3946L33.8233 40.4175C33.8241 40.417 33.8249 40.4165 33.8257 40.4161C34.4234 40.0863 35.0354 39.3789 35.2922 38.4539C35.3366 38.3029 35.3745 38.1453 35.4064 37.981C35.4134 37.9419 35.4197 37.9038 35.4196 37.869C35.4194 37.8342 35.412 37.8043 35.3949 37.7802C35.3777 37.7561 35.3519 37.7393 35.319 37.7277C35.2862 37.7163 35.2482 37.7098 35.2089 37.7035C35.0445 37.679 34.8864 37.6588 34.734 37.6433C33.7819 37.5618 33.1184 37.5915 32.4286 37.9752C32.4277 37.9758 32.4267 37.9763 32.4257 37.9769L32.3872 37.9997C31.3927 38.6146 30.3448 39.2542 29.1806 39.3095C29.179 39.3096 29.1773 39.3097 29.1757 39.3098L29.6048 39.3713C29.64 39.384 29.699 39.4053 29.7866 39.4657C29.9215 39.5452 30.1054 39.8016 30.1373 39.962C30.1772 40.1218 30.1606 40.1524 30.1638 40.0929Z" fill="black"/>
<path d="M31.2625 41.8932C31.2625 41.534 31.1198 41.1895 30.8658 40.9356C30.6119 40.6816 30.2674 40.5389 29.9082 40.5389C29.549 40.5389 29.2045 40.6816 28.9506 40.9356C28.6966 41.1895 28.5539 41.534 28.5539 41.8932C28.5083 42.3326 28.9185 43.0213 29.2701 43.1906C29.6082 43.3944 29.8225 43.416 29.9894 43.4437C30.6223 43.5023 30.8846 43.4079 31.2076 43.347C31.5128 43.2772 31.7863 43.1946 32.0529 43.1063L32.265 43.0149C32.2723 43.0111 32.2795 43.0072 32.2867 43.0033C33.2349 42.4962 34.2211 42.0786 35.25 41.7509L35.3194 41.7272C35.3228 41.7259 35.3262 41.7246 35.3296 41.7233C35.9101 41.502 36.3894 41.1578 36.8454 40.8438C36.9495 40.772 37.0526 40.7016 37.1558 40.6339C37.3757 40.4891 37.5356 40.2482 37.6082 39.98C37.6804 39.711 37.6594 39.4368 37.5419 39.2017C37.4243 38.9666 37.2175 38.7853 36.959 38.6816C36.7009 38.5789 36.4122 38.5622 36.1645 38.6513C36.0484 38.6932 35.9323 38.7324 35.8167 38.7695C35.309 38.933 34.8167 39.0553 34.3893 39.2117C34.3868 39.2126 34.3843 39.2135 34.3818 39.2144L34.4512 39.1907C33.2677 39.5517 32.1056 40.0281 31.0109 40.614C31.0025 40.6185 30.9942 40.623 30.9858 40.6274L31.1979 40.5361C30.991 40.605 30.7873 40.6649 30.6072 40.7058C30.447 40.7501 30.2108 40.7545 30.3465 40.7588C30.3932 40.7701 30.4838 40.7627 30.7184 40.9017C30.8339 40.9738 30.9932 41.1098 31.107 41.3111C31.223 41.5108 31.2645 41.7398 31.2625 41.8932Z" fill="black"/>
<path d="M17.306 39.5241C17.6327 39.5241 17.9461 39.3942 18.1772 39.1632C18.4082 38.9321 18.538 38.6188 18.538 38.292C18.538 37.9652 18.4082 37.6518 18.1772 37.4208C17.9461 37.1897 17.6327 37.0599 17.306 37.0599C17.162 37.0621 17.0616 37.0524 16.7764 37.077C16.6936 37.0949 16.6934 37.0577 16.3467 37.1856C16.252 37.2542 16.0665 37.2181 15.7271 37.7586C15.5533 38.0545 15.5598 38.5385 15.6669 38.7735C15.7589 39.0071 15.8607 39.1149 15.9236 39.1856C16.1774 39.4325 16.2207 39.4152 16.2912 39.4613L16.5016 39.5463C16.5168 39.5509 16.532 39.5554 16.5472 39.56C18.2895 40.0852 20.129 40.3475 21.9108 40.7154C21.9223 40.7178 21.9334 40.72 21.9441 40.722L21.6752 40.5638C21.6404 40.5288 21.6059 40.5007 21.5433 40.3966C21.4844 40.3004 21.4108 40.0869 21.4668 39.8646C21.6044 39.4544 21.7589 39.4598 21.7901 39.4203C21.8869 39.3679 21.8878 39.3787 21.8982 39.3757C21.9087 39.3775 21.8868 39.3896 21.867 39.4006C21.8236 39.4237 21.7672 39.4511 21.7128 39.4799C21.6025 39.5377 21.4888 39.6038 21.3802 39.6742C21.1613 39.8152 20.9517 39.9752 20.7463 40.1317C20.6326 40.2185 20.5197 40.3043 20.405 40.3859C20.3776 40.4057 20.3566 40.4404 20.3446 40.4768C20.3328 40.5135 20.331 40.5489 20.3416 40.5808C20.3522 40.6127 20.3747 40.6401 20.4061 40.6625C20.4374 40.6845 20.475 40.6998 20.5088 40.6994C20.6476 40.697 20.7867 40.7019 20.9255 40.7105C21.1763 40.7257 21.4266 40.7529 21.6692 40.7725C21.7902 40.7824 21.9103 40.7902 22.0312 40.792C22.0923 40.7927 22.1526 40.7924 22.2251 40.7857C22.2624 40.7818 22.2986 40.7786 22.3657 40.7614C22.4048 40.7486 22.4335 40.7495 22.5563 40.6818C22.5984 40.6355 22.7681 40.6303 22.9091 40.206C22.9668 39.9762 22.8913 39.7555 22.8286 39.6527C22.7618 39.5416 22.7232 39.5091 22.682 39.4682L22.4132 39.31C22.4025 39.3049 22.3915 39.2997 22.38 39.2946C20.6777 38.5378 19.0178 37.7312 17.256 37.2C17.2407 37.1954 17.2254 37.1908 17.2101 37.1862L17.4205 37.2712C17.4677 37.3051 17.4892 37.2759 17.7251 37.5044C17.7838 37.5707 17.8816 37.6731 17.9714 37.9011C18.0762 38.1301 18.0828 38.6076 17.9121 38.8978C17.5787 39.4273 17.4056 39.3848 17.3221 39.4484C17.0224 39.5577 17.0733 39.515 17.0405 39.527C17.0196 39.5272 17.1849 39.5231 17.306 39.5241Z" fill="black"/>
<path d="M18.6115 42.7108C18.8283 42.6024 18.9932 42.4124 19.0698 42.1824C19.1465 41.9525 19.1286 41.7015 19.0202 41.4847C18.9118 41.2679 18.7218 41.103 18.4918 41.0264C18.2619 40.9497 18.0109 40.9676 17.7941 41.076C17.5868 41.1799 17.3464 41.2613 17.1425 41.2953C16.9898 41.3288 16.8267 41.2945 16.9095 41.3162C16.9181 41.32 16.9294 41.3254 16.9429 41.3333C16.9655 41.3513 17.0252 41.367 17.1396 41.5299C17.2036 41.6273 17.2647 41.7728 17.267 41.9527C17.2686 42.1318 17.2151 42.2629 17.168 42.3474C16.975 42.6237 16.9964 42.5267 17.0178 42.5358C17.0797 42.5061 17.2319 42.4544 17.3787 42.4176C17.6809 42.3404 18.0261 42.2843 18.3668 42.2439C19.0435 42.1657 19.7868 42.1309 20.3415 42.1837C20.3038 42.1794 20.2482 42.174 20.1505 42.1425C20.0956 42.1127 19.6258 42.0154 19.4727 41.354C19.415 41.0535 19.5252 40.7887 19.5625 40.7195C19.6052 40.6344 19.6453 40.5802 19.6777 40.5398C19.7493 40.4548 19.764 40.4483 19.7868 40.4271C18.8706 40.8668 16.964 41.7315 15.4863 42.3234C15.3979 42.3596 15.3072 42.3979 15.1759 42.4917C15.0557 42.5818 14.8566 42.7494 14.7634 43.0819C14.6466 43.5579 14.851 43.8698 14.9389 44.0116C15.0434 44.1668 15.1255 44.253 15.199 44.3353C15.3452 44.494 15.4612 44.6133 15.5789 44.7327C15.8144 44.967 16.0399 45.1819 16.3544 45.3292C16.4657 45.3861 16.5899 45.4317 16.7265 45.4562C17.6179 45.6235 18.4373 45.4441 19.0346 45.3115C19.1027 45.2959 19.1707 45.2798 19.2387 45.2634C20.2712 45.0097 21.2266 44.7217 22.1903 44.4363C22.4992 44.3442 22.8068 44.252 23.1139 44.1598C23.4763 44.0511 23.7806 43.8029 23.9599 43.4699C24.1393 43.1368 24.179 42.7461 24.0703 42.3838C23.9616 42.0215 23.7134 41.7172 23.3803 41.5378C23.0472 41.3585 22.6566 41.3188 22.2943 41.4275C21.9871 41.5196 21.681 41.6115 21.3754 41.7026C20.4279 41.9837 19.4723 42.2692 18.5691 42.4905C18.5107 42.5046 18.4533 42.5181 18.3974 42.531C17.8573 42.6545 17.4951 42.7058 17.2262 42.6496C17.1722 42.6401 17.1077 42.6434 17.0309 42.6528C16.9186 42.6905 16.7284 42.7493 16.5697 42.7849C16.4916 42.8041 16.4159 42.8123 16.3879 42.834C16.3751 42.8476 16.3751 42.8588 16.4136 42.9252C16.437 42.98 16.5901 43.1809 16.503 43.5476C16.4311 43.8003 16.2911 43.9052 16.2362 43.9479C16.1729 43.9927 16.1522 43.9974 16.1434 44.0021C17.7782 43.3344 19.0964 43.1643 21.1475 42.0197C21.1877 41.9833 21.2152 41.9656 21.305 41.8588C21.345 41.809 21.391 41.7459 21.4379 41.6524C21.4797 41.575 21.5945 41.2944 21.5344 40.984C21.3786 40.3018 20.883 40.1901 20.808 40.1541C20.6922 40.1166 20.6135 40.1068 20.5474 40.0997C19.6112 40.029 18.8476 40.1556 18.0471 40.3115C17.6508 40.394 17.2566 40.4901 16.8432 40.6249C16.6331 40.696 16.426 40.7651 16.1543 40.9096C16.0135 41.0083 15.8682 41.0051 15.5731 41.4456C15.4067 41.6609 15.3939 42.2763 15.607 42.5289C15.7707 42.7659 15.9041 42.8377 16.0148 42.9082C16.071 42.9412 16.1273 42.9693 16.1819 42.993C16.7374 43.2101 17.1022 43.1433 17.445 43.0979C17.8733 43.0235 18.2451 42.8918 18.6115 42.7108Z" fill="black"/>
<path d="M14.6875 47.2426C14.9124 47.3395 15.1666 47.3432 15.3941 47.2527C15.6217 47.1622 15.804 46.985 15.901 46.7601C15.9979 46.5352 16.0015 46.281 15.9111 46.0534C15.8206 45.8259 15.6434 45.6436 15.4185 45.5466C13.6484 44.8502 12.0987 44.1433 10.7361 43.0652C10.4115 42.8098 10.1018 42.5379 9.8103 42.2495C9.80199 42.2413 9.79369 42.2331 9.7854 42.2248C7.46876 40.0933 7.97126 36.8736 8.03103 33.3258C8.03064 33.3109 8.03043 33.2954 8.03041 33.2794C9.07405 28.0874 13.1731 22.682 16.5049 17.7423C16.5105 17.7343 16.5161 17.7264 16.5217 17.7185C19.1768 13.9358 21.2301 9.62874 21.8129 4.88636C21.8192 4.83025 21.8257 4.7745 21.8322 4.71909C21.9714 3.6032 21.2108 2.7021 20.6742 2.27221C20.0996 1.8001 19.5282 1.50395 18.9624 1.27563C18.9152 1.2569 18.8679 1.23842 18.8213 1.22041C13.9899 -0.33636 10.7408 3.53959 8.38926 5.80702C8.37886 5.8174 8.36851 5.82782 8.35823 5.83827C6.35139 8.10109 7.03363 10.5331 6.63912 12.0802C6.63291 12.1128 6.62692 12.1454 6.62114 12.1779C6.21278 16.0146 7.46891 18.4871 7.29604 21.4701C7.29607 21.5018 7.29565 21.5331 7.29479 21.5642C7.31186 23.2482 5.58921 24.5241 3.99426 26.709C3.95191 26.7721 3.91004 26.8355 3.86855 26.8993C2.4692 29.0079 1.68193 31.4497 1.16195 33.7649C1.15058 33.815 1.13953 33.8649 1.1288 33.9147C0.613745 36.4466 0.776024 39.0042 1.91764 41.549C1.93522 41.5836 1.95299 41.618 1.97095 41.6522C3.06232 43.7551 5.02658 45.1503 6.96061 46.0009C7.09669 46.0615 7.23349 46.12 7.36977 46.1763L7.45537 46.2084C7.4703 46.2133 7.48524 46.2182 7.50019 46.2231C8.3812 46.5115 9.28781 46.8135 10.2496 47.0465L10.3423 47.0659C10.3503 47.0672 10.3581 47.0685 10.366 47.0697C10.8421 47.1362 11.0787 47.0966 11.4469 47.1013C11.7969 47.1004 12.1749 47.1109 12.5478 47.1632C12.7291 47.1893 12.9288 47.136 13.0974 47.0324C13.2663 46.9278 13.3901 46.7816 13.4475 46.6082C13.5049 46.4349 13.4928 46.2437 13.4197 46.0589C13.3463 45.8753 13.2178 45.7132 13.0568 45.626C12.3897 45.2525 11.4682 44.7539 10.761 44.6724C10.7564 44.6716 10.752 44.6708 10.7476 44.67L10.8403 44.6894C10.0054 44.4713 9.15325 44.1873 8.27762 43.8906C8.26275 43.8856 8.24788 43.8806 8.23299 43.8755L8.31859 43.9076C8.2022 43.8582 8.08624 43.8073 7.97175 43.7551C6.32963 43.0142 4.92543 41.9383 4.20945 40.4954C4.19747 40.4716 4.18565 40.4477 4.17399 40.4237C3.44799 38.7456 3.43042 36.4589 3.86338 34.5041C3.87196 34.4643 3.88079 34.4244 3.88988 34.3844C4.38294 32.2017 5.04915 30.1765 6.20895 28.4183C6.24397 28.3642 6.27931 28.3102 6.31507 28.2562C7.29709 26.7008 9.8015 24.838 9.90699 21.6367C9.90854 21.5806 9.9093 21.5243 9.90925 21.4677C10.06 18.3322 8.83765 14.8897 9.2036 12.6388C9.20749 12.6171 9.21155 12.5954 9.21578 12.5735C9.57809 10.3949 9.50363 8.45426 10.3116 7.75896C10.3157 7.75482 10.3198 7.75068 10.324 7.74655C12.6897 5.27224 15.4792 2.71809 17.9061 3.65023C17.9456 3.66467 17.9851 3.67935 18.0241 3.69405C18.4894 3.86909 18.9417 4.02847 19.2692 4.20518C19.4314 4.29112 19.5534 4.38175 19.6097 4.43369C19.6657 4.4903 19.6732 4.47282 19.68 4.51327C19.6766 4.56223 19.6725 4.61152 19.6677 4.66112C19.2289 8.88856 17.419 13.0233 14.9121 16.5814C14.9065 16.5894 14.9008 16.5975 14.8951 16.6055C11.4978 21.8141 7.42145 26.3499 6.01753 33.2824C6.01758 33.3145 6.01802 33.3466 6.01887 33.3786C5.98845 36.3576 5.48425 40.832 8.4822 43.5334C8.49198 43.5432 8.50177 43.5529 8.51156 43.5626C8.85512 43.9024 9.21761 44.2204 9.59393 44.5165C11.1425 45.7523 13.0187 46.589 14.6875 47.2426Z" fill="black"/>
</svg>
