<svg width="28" height="31" viewBox="0 0 28 31" fill="none" xmlns="http://www.w3.org/2000/svg">
<path d="M2.71248 29.575C2.15281 29.4561 1.38518 29.1747 0.966872 29.0506C0.913267 29.0361 0.920574 29.0277 0.918641 29.016C0.926837 29.0038 0.891411 28.9976 0.968744 28.9877C0.978174 28.9861 0.989235 28.984 1.00213 28.9809C1.04528 28.9689 1.13644 28.9499 1.24852 28.8428C1.26478 28.8184 1.31522 28.8 1.36834 28.6195C1.39393 28.5239 1.38688 28.3788 1.33494 28.2696C1.28594 28.1633 1.22705 28.1103 1.19189 28.08C1.05543 27.9818 1.08471 28.0154 1.09617 28.0056C1.13665 28.0037 1.22578 28.0002 1.31358 27.9965C1.38016 27.9942 1.2915 28.0693 1.36263 28.066C1.76764 28.0459 2.18592 27.9093 2.63198 27.8315C2.93859 27.7793 3.24947 27.7405 3.56767 27.74C3.59424 27.7399 3.62121 27.7401 3.64861 27.7406C5.50947 27.7679 7.37639 27.7186 9.28307 27.7017C10.0265 27.6937 10.9276 27.7864 11.6939 27.7143C11.7837 27.7057 11.728 27.5894 11.7449 27.5793C12.0078 27.4238 11.9239 27.6638 12.0993 27.6912C12.4294 27.743 12.7791 27.7696 13.1244 27.7773C13.2023 27.779 13.2803 27.7798 13.3582 27.7796C13.6671 27.7787 13.9678 27.7687 14.2486 27.7527C14.5416 27.7368 14.2526 27.4973 14.5437 27.6343C14.5637 27.6436 14.488 27.7678 14.5668 27.7828C14.7463 27.8162 15.0864 27.805 15.2286 27.8216C15.4957 27.8535 15.5422 27.8548 15.7951 27.8716C16.1446 27.8964 16.5489 27.9919 16.9238 28.0024C17.0032 28.0042 16.9107 27.8651 17.0416 27.857C17.172 27.8484 17.5081 27.8992 17.6156 27.9441C17.7246 27.9888 17.6639 28.0828 17.6808 28.1084C17.8193 28.3229 18.2403 28.1111 18.2913 28.1128C19.217 28.1401 19.9613 28.4554 20.779 28.6392C21.0366 28.6964 21.3006 28.7473 21.549 28.7846C21.691 28.8057 21.8319 28.8228 21.9395 28.8276C21.8755 28.8188 21.7597 28.84 21.6865 28.8863C21.6105 28.9324 21.5847 28.9734 21.5766 28.9844C21.5626 29.0099 21.5911 28.9578 21.6085 28.8985C21.7473 28.395 21.8257 27.7253 21.8418 27.0496C21.8433 26.9767 21.7047 27.0619 21.7068 26.9726C21.728 26.0225 21.7701 25.057 21.8867 24.0918C21.8985 23.9947 21.9984 24.1229 22.0163 24.0262C22.0458 23.8644 22.0856 23.6758 22.1195 23.4816C22.1448 23.3356 22.1672 23.1879 22.1798 23.0421C22.2116 22.6717 22.1759 22.336 21.953 22.1367C21.9971 21.7403 22.0521 21.2532 22.1741 20.9077C22.2532 20.6814 22.3479 20.9147 22.324 20.6302C22.3188 20.5666 22.2114 20.6385 22.2111 20.544C22.211 20.134 22.2873 19.7026 22.2795 19.2989C22.2775 19.218 22.1845 19.2277 22.1708 19.2029C22.0598 18.9909 22.317 18.6979 22.342 18.6309C22.5277 18.1148 22.5353 17.7246 22.6148 17.2291C22.6337 17.1132 22.4883 17.2297 22.5019 17.1181C22.5721 16.5454 22.6927 15.9466 22.8451 15.4182C22.8792 15.2983 22.9676 15.4298 22.9893 15.3739C22.9967 15.3546 23.0022 15.3368 23.0061 15.3201C23.0503 15.1266 22.8961 15.0013 22.9389 14.8843C22.9473 14.8694 23.0425 14.8741 23.0527 14.8706C23.093 14.857 23.104 14.8499 23.1166 14.8817C23.0919 14.814 22.9725 14.8882 22.9787 14.9007C22.977 14.9435 23.1069 14.9805 23.1001 14.959C23.1031 14.9458 23.0397 14.9402 22.9728 14.951C22.8317 14.9736 22.651 15.0444 22.5022 15.2056C22.4668 15.2449 22.6363 15.2572 22.5336 15.3616C21.8588 16.0756 21.1765 16.9733 20.4635 17.748C20.3527 17.8701 20.3398 17.7145 20.3236 17.7153C20.0651 17.732 20.2129 17.9784 20.1896 18.0271C20.1362 18.1336 20.0645 18.226 19.9916 18.3116C19.8985 18.4208 19.802 18.5215 19.7373 18.6291C19.6391 18.7781 19.5972 18.8954 19.5104 19.106C19.3698 19.2039 19.1181 19.3287 18.8317 19.3032C18.5504 19.2803 18.3423 19.1354 18.215 19.0178C17.9559 18.7698 17.835 18.5229 17.7236 18.3007C17.5061 17.8416 17.3666 17.3989 17.2429 16.9514C17.0021 16.0575 16.8605 15.1704 16.8382 14.2627C16.8374 14.2397 16.966 14.2579 16.9639 14.2127C16.9402 13.6665 16.769 13.8003 16.4837 13.4814C16.4124 13.4002 16.6466 13.0822 16.6629 13.0554C16.7238 12.9559 16.9161 13.019 16.926 12.9874C17.001 12.7273 16.4184 12.8577 16.3713 12.5272C16.3708 12.5167 16.4848 12.5439 16.4916 12.5146C16.5128 12.4237 16.4579 12.3449 16.4831 12.2555C16.5418 12.0507 16.8137 11.9408 16.6088 11.6724C16.5825 11.6385 16.2612 11.7417 16.2377 11.4441C16.2286 11.3271 16.1553 10.8053 16.1584 10.6602C16.1607 10.5103 16.278 10.5974 16.2812 10.5863C16.3685 10.1746 16.4449 10.3169 16.6231 10.0962C16.7996 9.87149 16.3239 9.98978 16.2599 9.9165C16.1961 9.84364 16.273 9.54366 16.303 9.46671C16.3332 9.39118 16.41 9.4706 16.4241 9.40517C16.5163 8.97738 16.163 9.25487 16.0697 9.12743C15.8497 8.8279 16.1727 8.53387 16.1682 8.23201C16.1671 8.1506 16.0953 8.22632 16.0785 8.15663C16.0359 7.98064 16.0582 7.82054 16.0369 7.66564C16.0261 7.58744 16.0018 7.50413 15.9482 7.41385C15.9346 7.39107 15.8584 7.32865 15.801 7.25511C15.7472 7.18533 15.7098 7.10592 15.7549 7.0116C15.768 6.98315 15.8744 7.01078 15.8511 6.89863C15.8196 6.7313 15.6813 6.44613 15.5385 6.34962C15.4394 6.28507 15.4301 6.47194 15.3693 6.36332C15.3418 6.32158 15.4571 6.30443 15.4088 6.23243C15.4049 6.22793 15.4005 6.22327 15.3952 6.21851C15.3401 6.16548 15.211 6.11268 15.0841 6.12814C14.9979 6.1361 14.9165 6.16931 14.87 6.19262C14.7549 6.25438 14.8748 6.3197 14.8679 6.33126C14.8389 6.38985 14.694 6.57523 14.6809 6.59237C13.9278 7.38319 13.2789 8.41087 12.8409 9.51798C12.8072 9.60651 12.948 9.60059 12.944 9.61463C12.8627 9.9328 12.6577 9.56176 12.4629 9.72383C12.712 9.7975 12.6151 9.90192 12.5514 10.1228C12.5209 10.2295 12.6368 10.2142 12.6423 10.2275C12.7191 10.4381 12.4939 10.4648 12.445 10.476C12.2655 10.5171 12.3825 10.695 12.2619 10.724C12.1416 10.7532 12.0717 10.5392 11.9878 10.7427C12.0508 10.836 12.3401 10.7811 12.313 10.9504C12.2132 11.5895 11.5893 12.6051 11.3644 13.0648C11.2622 13.2772 11.1933 13.4289 11.1369 13.549C11.0715 13.6882 11.0202 13.7949 10.9405 13.9304C10.9086 13.9846 10.8846 14.0301 10.8659 14.0706C10.7282 14.3723 10.9192 14.3271 10.8808 14.6227C10.8387 14.9587 10.4607 14.6329 10.3486 14.6382C10.2366 14.6434 10.3146 14.7297 10.2409 14.7629C10.1671 14.7962 10.1502 14.653 10.0793 14.7727C10.0078 14.8922 10.0404 15.3076 10.1237 15.3903C10.299 15.5667 10.5797 15.4958 10.3759 15.8004C10.3641 15.8178 10.2701 15.7114 10.2308 15.7804C9.91972 16.3346 9.69931 16.9517 9.40557 17.5178C9.36509 17.5947 9.25932 17.4743 9.234 17.5192C9.16821 17.6348 9.13573 17.7166 9.12789 17.7771C9.11683 17.8634 9.15183 17.9135 9.19619 17.9875C9.21683 18.0647 9.36959 18.1466 9.13391 18.3976C9.16146 18.1769 8.92218 18.1166 8.94594 17.9924C8.95684 17.9257 8.9589 17.868 8.91755 17.7622C8.90594 17.7325 8.89209 17.7021 8.8762 17.6708C8.77733 17.4751 8.67821 17.5398 8.54279 17.4668C8.53268 17.4613 8.52239 17.455 8.51192 17.4478C8.467 17.4178 8.48713 17.2226 8.41638 17.2195C8.18374 17.2053 8.02282 17.4454 7.95717 17.0178C7.95467 16.9987 8.0834 17.013 8.06694 16.9503C7.96667 16.5501 7.74279 16.5791 7.5818 16.1545C7.45471 15.8209 7.43068 15.1775 7.37927 14.7853C7.72221 14.7255 7.57581 14.3818 7.31522 14.2729C7.2821 14.0194 7.22754 13.7534 7.21673 13.514C7.21276 13.4318 7.32118 13.4655 7.32995 13.4534C7.46672 13.2626 7.21429 13.2039 7.19385 13.1583C7.139 13.0265 7.09646 12.9032 7.05335 12.786C7.02401 12.706 6.98983 12.6317 6.94609 12.5634C6.82248 12.3647 6.59261 12.2145 6.30758 12.2347C6.28611 12.2361 6.21329 12.457 6.12488 12.2649C6.11607 12.2518 6.30174 12.1739 6.06732 12.1268C5.88858 12.0925 5.55249 12.0068 5.25831 12.072C5.17947 12.0895 5.11184 12.1232 5.05956 12.1721C5.05366 12.1776 5.04748 12.1854 5.04112 12.1947C4.97847 12.2779 4.96166 12.4532 4.7822 12.4568C4.7541 12.458 4.71966 12.3962 4.67137 12.3946C4.50921 12.4026 4.67121 12.5791 4.43555 12.579C4.2007 12.5751 3.91136 12.8021 3.9315 13.2127C3.93183 13.2251 4.08528 13.3686 4.05391 13.476C4.00118 13.6519 3.90627 13.9063 3.87447 14.0948C3.85891 14.1868 3.98727 14.1485 3.98663 14.1648C3.95251 14.7898 3.80664 15.2108 3.70621 15.8781C3.68678 16.003 3.83846 16.3652 3.68834 16.592C3.52223 16.8453 2.90372 16.5419 3.01441 17.1549C3.05613 17.4007 3.8729 17.7425 3.42276 18.1606C3.49686 19.0086 3.23452 19.7799 3.3518 20.6316C3.35695 20.6697 3.60019 20.8037 3.59236 20.8931C3.58009 21.0254 3.45896 21.0919 3.44581 21.1863C3.38867 21.5744 3.46211 21.9375 3.42256 22.313C3.42171 22.3206 3.42087 22.3275 3.42 22.3344C3.40243 22.473 3.29348 22.4228 3.26448 22.5696C3.26324 22.5758 3.26213 22.5824 3.26118 22.5895C3.23796 22.7609 3.38668 22.8931 3.28325 23.1187C3.20422 23.2892 2.85905 23.4261 2.79557 23.6532C3.11206 23.7022 3.0866 23.8616 3.13097 24.1578C3.13954 24.2147 3.25617 24.1707 3.26575 24.1984C3.30662 24.3117 3.20314 24.3971 3.24872 24.5059C3.25957 24.5323 3.36438 24.5483 3.379 24.5707C3.5063 24.7621 3.22704 25.0079 3.18067 25.0497C3.00081 25.211 3.11965 25.3162 3.03863 25.4481C2.95877 25.5799 2.91753 25.3587 2.85799 25.5175C2.73593 25.8465 2.68971 26.2861 2.63487 26.6311C2.61375 26.7689 2.74903 26.6936 2.74886 26.7138C2.73387 27.003 2.56792 27.2724 2.77199 27.4653C2.15288 27.5724 2.80202 27.6457 2.61972 28.0342C2.60515 28.0647 2.33403 28.0659 2.31067 27.9362C2.28684 27.8064 2.39719 27.6319 2.35655 27.4506C2.34815 27.4079 2.11146 27.134 2.09744 27.0993C1.99513 26.8296 2.43424 26.8618 2.46059 26.8525C2.74156 26.7438 2.48374 26.4141 2.46988 26.3356C2.41583 25.9783 2.51715 25.6978 2.47908 25.401C2.45442 25.2069 2.13514 25.1407 2.15913 24.9958C2.23633 24.5142 2.72955 24.4093 2.36759 23.8973C2.28978 23.7884 1.90447 23.836 2.23368 23.526C2.25388 23.5072 2.5538 23.2806 2.39522 23.1117C2.37514 23.0906 2.26372 23.0783 2.25673 23.0527C2.21193 22.8815 2.31146 22.7819 2.28577 22.5991C2.28011 22.5596 2.27365 22.5177 2.26753 22.4751C2.25539 22.3912 2.24459 22.3018 2.24438 22.214C2.24296 22.1504 2.24954 22.0769 2.26842 22.0055C2.30085 21.8827 2.52167 21.7373 2.57707 21.6799C2.73638 21.5192 2.50803 21.3234 2.69287 21.2283C2.87808 21.1319 3.1363 21.357 3.26816 21.0824C2.9795 21.0558 2.68419 21.0155 2.39466 20.9829C2.44779 20.3752 2.57825 19.7771 2.60446 19.1594C2.60753 19.0829 2.4527 19.155 2.4524 19.0729C2.45244 18.7265 2.57783 18.4259 2.5611 18.0648C2.54771 17.7825 2.41887 17.468 2.4062 17.1733C2.722 17.0051 2.65372 16.564 2.711 16.2451C2.73062 16.1328 2.80774 16.1455 2.84034 16.0679C2.96159 15.7755 2.69338 15.896 2.66165 15.8103C2.53075 15.4408 3.10393 15.4559 3.138 15.0369C3.13907 15.0155 2.87791 14.7095 2.86658 14.6663C2.7835 14.4084 2.9752 14.6386 3.01987 14.4919C3.10447 14.2159 3.20403 14.041 3.19295 13.6928C3.18834 13.5943 3.07132 13.3107 3.26406 13.1541C3.28935 13.133 3.37656 13.1737 3.3881 13.1547C3.59093 12.8211 3.31867 12.7139 3.32805 12.4385C3.33331 12.1636 3.75921 11.88 3.8633 11.8573C4.13043 11.7685 3.80437 12.035 3.81752 12.0546C3.89237 12.2661 4.01342 12.006 4.19231 11.8473C4.42082 12.0168 4.62809 11.8262 4.38691 11.6907C4.35699 11.6755 4.23104 11.8223 4.19231 11.8473C4.14784 11.6142 4.30614 11.3635 4.61364 11.2801C4.75414 11.2419 4.91608 11.2453 5.07083 11.3C5.09895 11.3099 5.12061 11.3219 5.13821 11.3347C5.24066 11.4338 5.19238 11.5317 5.58387 11.4596C5.78995 11.4299 5.70688 11.2304 5.90699 11.1806C6.37043 11.0699 7.01766 11.3885 7.467 11.7956C7.63074 11.9455 7.55919 11.7104 7.6762 11.8198C7.71692 11.8598 7.75439 11.9031 7.78771 11.9474C7.89819 12.0943 7.96848 12.2571 8.01979 12.4166C8.05869 12.5435 8.0928 12.6668 8.14575 12.7881C8.15688 12.8135 8.25268 12.7177 8.27886 12.8089C8.46504 13.4994 8.43201 13.9893 8.55048 14.5637C8.60354 14.8419 8.78394 15.3028 8.85492 15.5802C8.97107 16.0589 9.02606 16.6983 9.24049 17.0832C9.25415 17.1079 9.26745 17.1292 9.28039 17.1475C9.40533 17.3091 9.48943 17.2277 9.62278 17.2853C9.67449 17.3061 9.71867 17.3364 9.75475 17.3738C9.77066 17.3717 9.77597 17.3617 9.74231 17.3182C9.70131 17.279 9.64777 17.1724 9.33874 17.0512C9.10149 16.9503 8.69708 17.0078 8.54663 17.12C8.38003 17.2256 8.34612 17.3048 8.3231 17.352C8.28811 17.4464 8.3199 17.4631 8.3253 17.4754C8.32716 17.476 8.33645 17.4649 8.40265 17.414C8.47891 17.3584 8.55437 17.3306 8.46782 17.4555C8.51253 17.6217 8.33559 17.4642 8.3253 17.4754C8.33097 17.4844 8.33539 17.4993 8.34939 17.4856C8.4227 17.3421 8.52136 17.095 8.52822 17.023C8.5334 16.9672 8.40386 16.9534 8.40882 16.9251C8.52963 16.2491 8.73763 15.5736 9.05327 14.9322C9.06021 14.9214 9.18434 14.9895 9.199 14.9636C9.40771 14.6035 9.34886 14.2958 9.38949 13.9419C9.4106 13.7615 9.45778 13.6126 9.53907 13.497C9.61761 13.3855 9.728 13.3059 9.8762 13.263C9.90085 13.1867 9.94088 13.1081 9.99022 13.0284C10.0944 12.8648 10.2409 12.6959 10.3387 12.5847C10.4796 12.4236 10.2454 12.2935 10.248 12.2749C10.3199 11.6994 10.5897 11.4602 10.8468 10.9289C10.9691 10.677 11.1597 10.1506 11.2606 9.8596C11.3401 9.62893 11.4552 9.51982 11.5151 9.29977C11.5233 9.2701 11.4073 9.25261 11.4072 9.24243C11.3909 8.96006 11.5908 9.18094 11.6575 9.15372C11.9007 9.05472 12.0333 8.98986 12.0979 8.66425C12.1117 8.59082 11.8578 8.2254 11.9009 8.09273C11.9586 7.91763 12.0514 8.03955 12.1088 7.85746C12.1139 7.84183 12.0354 7.80747 12.0952 7.70343C12.3717 7.22453 12.712 6.72186 13.0905 6.20204C13.1429 6.13178 12.967 6.14548 13.0451 6.03891C13.3966 5.6388 13.7168 5.0009 14.9434 4.8145C15.1264 4.8016 15.3173 4.81803 15.4916 4.86158C15.8119 4.95615 15.5827 4.99295 15.6431 5.03646C15.7509 5.12551 15.8653 5.18847 15.9828 5.24597C16.2706 5.3963 16.465 5.47701 16.5055 5.5119C16.9808 5.99644 17.1155 6.4338 17.2235 6.85901C17.2727 7.07155 17.3019 7.27885 17.322 7.48684C17.347 7.78649 17.3843 8.11733 17.4685 8.44749C17.4813 8.49999 17.7821 8.83616 17.5916 9.03755C17.579 9.0504 17.3812 9.24055 17.5523 9.36912C17.563 9.37719 17.6618 9.25812 17.6758 9.44176C17.689 9.61976 17.8074 9.90458 17.7171 10.1623C17.6889 10.2442 17.4934 10.4621 17.7049 10.6675C17.7189 10.6807 18.1771 10.9847 17.9184 11.1487C17.8758 11.1758 17.5766 11.1946 17.7712 11.4508C17.8089 11.4995 17.8599 11.3948 17.9231 11.527C18.0205 11.7291 17.9863 12.023 18.1637 12.2621C18.1947 12.304 18.4321 12.465 18.3044 12.6425C18.2844 12.6704 18.1757 12.6402 18.1787 12.7233C18.1922 13.1183 18.3346 13.5115 18.34 13.9113C18.342 14.0521 18.1629 14.0122 18.1467 14.1646C18.1306 14.3174 18.1456 14.6134 18.2538 14.7493C18.3617 14.8828 18.5926 14.6697 18.6623 14.884C18.9685 15.806 19.0614 16.8346 19.3605 17.4969C19.3998 17.5777 19.456 17.4741 19.513 17.5652C19.5334 17.5964 19.5566 17.6182 19.5405 17.5939C19.5201 17.5755 19.4633 17.4676 19.1665 17.3711C18.8546 17.2627 18.4396 17.4012 18.3509 17.4771C18.2348 17.5555 18.2466 17.5649 18.2649 17.535C18.3435 17.4286 18.4257 17.3197 18.508 17.2149C18.7709 16.8796 19.0463 16.5816 19.2943 16.4043C19.7922 16.0491 19.4412 16.7036 19.7717 16.3961C19.9298 16.2478 19.8229 15.8686 19.8495 15.8216C20.0989 15.3624 20.4483 15.1754 20.747 14.7967C20.8106 14.7174 20.6479 14.706 20.7041 14.639C20.8956 14.4109 21.1652 14.2252 21.4018 14.0112C21.5104 13.9141 21.4253 13.8635 21.5445 13.779C21.8459 13.5897 22.087 13.3861 22.8091 13.3123C22.8741 13.3117 22.4622 13.485 23.0079 13.416C23.2577 13.3955 23.6718 13.4932 23.9331 13.7264C24.2045 13.9612 24.301 14.1901 24.3745 14.3845C24.5135 14.8396 24.4428 14.9261 24.4493 15.0693C24.4417 15.1966 24.4366 15.2925 24.4405 15.3882C24.4436 15.4677 24.5282 15.5072 24.5375 15.5881C24.5433 15.6278 24.5254 15.6862 24.4618 15.7539C24.424 15.7939 24.1973 15.6966 24.3515 15.9892C24.3776 16.038 24.5661 16.5123 24.3492 16.6834C24.2917 16.7299 24.0729 16.8317 24.0806 16.9591C24.0823 16.9764 24.1996 16.9291 24.1911 17.0309C24.1602 17.3846 24.0853 17.7484 24.0599 18.1139C24.0536 18.2093 24.1838 18.0846 24.1709 18.2267C24.1347 18.6232 24.0361 19.1103 23.9527 19.4958C23.922 19.6349 23.8467 19.5276 23.8358 19.5366C23.6593 19.6841 23.8567 19.8119 23.8622 19.8674C23.8937 20.2174 23.766 20.4743 23.7592 20.7961C23.7571 20.8844 23.8626 20.8314 23.8696 20.8496C23.9375 21.0394 23.7733 20.8874 23.7422 21.0019C23.6548 21.3211 23.6312 21.6816 23.6177 22.0141C23.6129 22.137 23.7376 22.009 23.7322 22.1167C23.7168 22.4466 23.6955 22.785 23.6659 23.1273C23.6536 23.2681 23.6406 23.407 23.6262 23.547C23.6094 23.7104 23.5926 23.874 23.5746 24.0337C23.5615 24.1505 23.474 24.0743 23.4536 24.0982C23.3104 24.2631 23.5058 24.5154 23.5261 24.572C23.6164 24.8323 23.541 24.9316 23.5653 25.1616C23.6753 26.3031 23.8311 27.6195 23.6726 28.9766C23.638 29.199 23.6059 29.4236 23.4665 29.7665C23.3865 29.9429 23.2994 30.1493 23.0188 30.4219C22.7572 30.6964 22.1825 30.9077 21.7864 30.853C21.5382 30.8278 21.3525 30.7871 21.1802 30.7474C20.3156 30.533 19.6516 30.3251 18.831 30.1948C18.7497 30.1816 18.8042 30.3428 18.7341 30.3334C17.8456 30.2086 16.9744 30.037 16.0738 30.0109C16.001 30.0086 16.0947 30.1575 15.9776 30.1588C15.7352 30.1622 15.4281 30.1365 15.188 30.081C15.0691 30.0541 15.2355 29.9397 15.1151 29.9151C14.8347 29.8579 14.5336 29.84 14.2403 29.8597C14.1174 29.8686 14.3004 30.0149 14.1421 30.0153C13.8942 30.0169 13.6487 30.0221 13.3986 30.0283C13.3205 30.0302 13.2427 30.032 13.1652 30.0335C12.3649 30.0489 11.5646 30.0261 10.746 29.8964C10.6669 29.8836 10.5912 29.5952 10.4232 29.6509C10.412 29.7308 10.4144 29.8248 10.4105 29.9101C8.74272 29.9511 7.08668 29.8281 5.40564 29.7849C5.33474 29.7829 5.45879 29.9211 5.32201 29.9176C4.76273 29.9034 4.2166 29.907 3.65125 29.8551C3.62303 29.8525 3.59517 29.8494 3.56767 29.8458C3.37022 29.8188 3.16459 29.7667 2.95295 29.6967C2.87264 29.6696 2.91148 29.4714 2.67434 29.4625C2.63265 29.4622 2.27268 29.4183 2.17759 29.4333C2.16467 29.4357 2.23234 29.5329 2.114 29.5062C1.86563 29.4494 1.61265 29.3865 1.34307 29.322C1.20662 29.2888 1.07255 29.2583 0.902868 29.211C0.813797 29.182 0.73657 29.173 0.551368 29.0709C0.495828 29.0359 0.445999 29.0076 0.361839 28.9119C0.289734 28.8349 0.199025 28.6448 0.210353 28.481C0.248811 28.1343 0.37077 28.0871 0.429796 28.0117C0.561306 27.8871 0.680797 27.8582 0.75483 27.8411C1.0804 27.7993 1.12805 27.8545 1.24673 27.8735C1.34876 27.8996 1.43568 27.9274 1.52092 27.9556C1.62925 27.9922 1.49764 28.0154 1.57253 28.0415C2.1004 28.2306 2.65571 28.3579 3.13431 28.5293C3.4547 28.6437 3.30946 28.7122 3.4649 28.8494C3.48708 28.8691 3.69397 28.9147 3.69387 28.9733C3.69362 29.1217 3.55859 29.257 3.57019 29.4176C3.57238 29.4447 3.74937 29.4635 3.74463 29.4915C3.74463 29.4916 3.74463 29.4916 3.74462 29.4916C3.74305 29.4999 3.72536 29.5091 3.68247 29.5196C3.66935 29.5229 3.45277 29.5066 3.39532 29.5218C3.35487 29.5325 3.4083 29.6042 3.32862 29.6118C3.24931 29.6193 3.1784 29.553 3.04981 29.5518C2.92101 29.5503 2.95836 29.6294 2.71248 29.575ZM10.9658 11.8513C11.1578 11.7245 10.7418 11.5197 10.7619 11.7522C10.7634 11.7636 10.9562 11.858 10.9658 11.8513ZM2.95722 19.7962C3.19183 19.5558 2.87658 19.3735 2.69621 19.541C2.51457 19.7084 2.88538 19.8694 2.95722 19.7962ZM2.95777 22.373C2.98419 22.3382 2.9951 22.3062 2.99434 22.2775C2.98791 22.1023 2.54936 22.0533 2.53929 22.2463C2.53857 22.2603 2.5427 22.2847 2.55349 22.3126C2.56033 22.3308 2.9458 22.3888 2.95777 22.373ZM2.63703 28.6724C2.63868 28.6759 2.78608 28.7186 2.79024 28.7167C2.88557 28.6748 2.59221 28.5899 2.63703 28.6724ZM2.84024 24.9324C2.94529 24.8556 2.87298 24.5805 2.74178 24.676C2.63749 24.7524 2.71117 25.0279 2.84024 24.9324ZM16.3654 8.19793C16.3597 8.20143 16.369 8.3146 16.403 8.30815C16.5122 8.28541 16.4605 8.13405 16.3654 8.19793ZM2.90989 28.9732C2.83631 29.0358 2.73294 29.1131 2.59562 29.0638C2.46633 28.9976 2.47098 28.8899 2.47369 28.8256C2.49023 28.6879 2.56304 28.6098 2.61818 28.5849C2.64035 28.5754 2.66151 28.5748 2.6803 28.5833C2.73173 28.5919 2.7797 28.7572 2.74583 28.7917C2.71439 28.7779 2.73689 28.835 2.69027 28.8116C2.65188 28.7928 2.60062 28.7413 2.59706 28.8146C2.60688 28.9622 2.68403 28.9219 2.76299 28.8525C2.84025 28.7826 2.93234 28.709 3.05947 28.6217C3.09944 28.5815 2.94661 28.9341 2.90918 28.9743C2.90942 28.9739 2.90965 28.9736 2.90989 28.9732ZM11.5228 11.9653C11.5301 11.9637 11.5945 11.8249 11.5903 11.8192C11.487 11.6862 11.3564 11.9659 11.5228 11.9653ZM17.03 14.6483C17.0185 14.6571 17.074 15.0149 17.0878 15.0232C17.3505 15.1613 17.2379 14.4478 17.03 14.6483ZM7.3872 14.7774C7.21938 14.6361 7.16788 14.4352 7.31518 14.2737C7.33429 14.4414 7.36264 14.608 7.3872 14.7774Z" fill="black"/>
<path d="M4.25674 8.90118C4.65397 9.06123 4.75109 9.23713 4.84406 9.37084C4.86898 9.41224 4.81321 9.43564 4.82821 9.46587C4.85616 9.52378 4.91427 9.54423 4.93428 9.60238C4.94075 9.6219 4.86113 9.66607 4.86925 9.68504C4.91329 9.78776 4.99365 9.84246 5.04653 9.92932C5.10042 10.0181 5.15377 10.1039 5.20763 10.1879C5.20701 10.1887 5.2064 10.1895 5.2058 10.1903C5.16961 10.2344 5.26842 10.1858 5.32697 10.1762C5.32744 10.1761 5.32793 10.1761 5.32842 10.1761C5.33055 10.1754 5.33273 10.1748 5.33496 10.1742C5.39782 10.1609 5.52415 10.1589 5.54432 10.0627C5.54639 10.0513 5.46805 10.0022 5.463 9.99617C5.38295 9.90725 5.53044 10.0216 5.56282 10.0174C5.69079 10.0005 5.75214 9.89015 5.75022 9.78145C5.7493 9.73481 5.56115 9.719 5.67214 9.71035C5.67972 9.70945 5.7702 9.74973 5.78385 9.74107C5.81483 9.72121 5.81244 9.66316 5.82527 9.64306C5.85075 9.60405 5.85143 9.59634 5.86123 9.55489C5.87524 9.49875 5.93545 9.43561 5.92178 9.36698C5.91854 9.35249 5.81606 9.35731 5.80169 9.33368C5.78742 9.31025 5.80194 9.25446 5.82734 9.23702C5.85285 9.21971 5.93127 9.23517 5.94974 9.23331C6.10585 9.2164 5.89826 9.12825 5.89325 9.12019C5.81247 8.95377 5.93317 8.81434 5.92585 8.65169C5.92456 8.62576 5.92111 8.59796 5.91654 8.57161C5.91518 8.565 5.91368 8.55854 5.91206 8.55225C5.89551 8.48613 5.85944 8.4381 5.84578 8.40851C5.82277 8.36127 5.85147 8.32665 5.80469 8.30951C5.80016 8.30831 5.72105 8.41106 5.71705 8.41147C5.71262 8.41207 5.70803 8.41204 5.70304 8.41116C5.702 8.4113 5.70086 8.4113 5.69962 8.41116C5.66821 8.40526 5.5932 8.35875 5.51158 8.27469C5.50143 8.26455 5.53198 8.14752 5.52135 8.13008C5.47158 8.02177 5.24963 7.79949 5.32499 8.32831C5.32069 8.32648 5.31635 8.32471 5.31205 8.32274C5.31007 8.3219 5.30805 8.32102 5.30599 8.3201C5.27973 8.30846 5.24798 8.28897 5.18508 8.22633C5.13258 8.17678 5.09145 8.04636 5.08714 8.1149C5.0866 8.13013 5.15356 8.22611 5.15011 8.24043C5.13851 8.29892 5.0768 8.30074 5.08369 8.38046C5.08558 8.39665 5.16066 8.47137 5.17223 8.48688C5.26941 8.60933 5.06412 8.45729 5.04162 8.45483C4.89115 8.41899 4.8946 8.50807 4.85123 8.57241C4.84084 8.58778 4.97351 8.64777 4.96851 8.66465C4.94195 8.75007 4.88863 8.82817 4.78922 8.8893C4.76674 8.90288 4.66284 8.83041 4.64619 8.8344C4.5734 8.85433 4.78331 8.96284 4.71913 8.98334C4.70579 8.98799 4.61003 8.93964 4.59858 8.93651C4.41811 8.88881 4.64833 9.01663 4.65117 9.0251C4.68992 9.13952 4.41361 9.09463 4.41641 9.19808C4.41715 9.21031 4.55334 9.23454 4.54777 9.26569C4.54038 9.3081 4.53009 9.35023 4.51693 9.39187C4.51564 9.39617 4.5143 9.40043 4.51294 9.40468C4.47647 9.51887 4.41387 9.62446 4.32523 9.74939C4.30762 9.77484 4.20589 9.75339 4.19322 9.75436C3.99518 9.77983 4.2595 9.80401 4.26951 9.81112C4.34112 9.87377 4.12717 9.96555 4.44543 9.9723C4.38347 10.2347 4.59401 10.4288 4.59421 10.7251C4.59152 10.7255 4.58882 10.7261 4.58615 10.7268C4.56603 10.7322 4.54745 10.7483 4.53655 10.7745C4.53569 10.778 4.45616 10.8806 4.45639 10.8882C4.47306 10.987 4.57407 10.8053 4.66633 10.5833C4.68226 10.5259 4.62892 10.8181 4.63312 10.8406C4.62869 10.921 4.57449 11.1025 4.57592 11.1186C4.60468 11.2466 4.70675 10.6305 4.73891 10.6387C4.74019 10.64 4.7217 10.7522 4.72411 10.7641C4.73247 10.8016 4.74902 10.7585 4.75864 10.799C4.77951 10.8927 4.78874 11.191 4.84777 11.019C4.85435 10.9966 4.8438 10.6511 4.88726 10.6684C4.90439 10.6758 4.97968 10.6674 5.00886 10.6825C5.00992 10.6832 5.0109 10.6839 5.01182 10.6847C5.01526 10.6877 5.01821 10.6927 5.02075 10.6991C5.03535 10.7351 5.03569 10.8159 5.03735 10.8198C5.12189 10.9548 5.10793 11.0179 5.18819 11.2226C5.27623 11.4241 5.15609 10.9249 5.15589 10.8663C5.15501 10.8081 5.23163 10.9122 5.25773 10.9477C5.28269 10.9839 5.28682 11.0559 5.30582 11.0748C5.43694 11.1949 5.25924 10.822 5.25366 10.7378C5.22847 10.5416 5.40814 10.8785 5.48129 10.8839C5.49939 10.8859 5.449 10.8143 5.45663 10.8012C5.48498 10.7511 5.57447 10.8367 5.56508 10.7127C5.56537 10.6913 5.46781 10.4801 5.58893 10.5996C5.60686 10.6165 5.65332 10.7007 5.68416 10.7042C5.7303 10.7097 5.79326 10.6852 5.80007 10.6364C5.80474 10.6006 5.6776 10.5037 5.73412 10.5183C5.75965 10.5245 5.80094 10.6114 5.8447 10.6163C5.88878 10.6213 5.94022 10.5647 5.95736 10.5415C5.97476 10.5183 5.87675 10.4481 5.87255 10.4408C5.8484 10.3994 5.83881 10.3236 5.84155 10.3204C5.93908 10.1915 6.11815 10.1208 6.23095 9.98704C6.23282 9.98489 6.23466 9.98272 6.23647 9.98053C6.2707 9.93922 6.29483 9.89022 6.29981 9.83395C6.30148 9.8163 6.1794 9.77664 6.17844 9.77343C6.14742 9.70378 6.44745 9.87365 6.57061 9.87214C6.32478 9.78488 6.37804 9.77832 6.36336 9.72927C6.35589 9.70576 6.25603 9.68484 6.24672 9.67981C6.10659 9.608 6.30137 9.64935 6.34263 9.65432C6.49299 9.67552 6.32548 9.6085 6.42635 9.62031C6.52739 9.62962 6.66411 9.69937 6.67319 9.65303C6.58282 9.62052 6.33477 9.59407 6.30082 9.55692C6.17083 9.42873 6.36913 9.26344 6.38266 9.16203C6.39621 9.07028 6.37261 9.04345 6.39997 8.98524C6.44722 8.87737 6.26094 8.94705 6.16159 8.91488C6.06187 8.88575 6.53564 8.79196 6.63416 8.75829C6.72033 8.72706 6.64849 8.73556 6.66532 8.72012C6.66581 8.71959 6.66638 8.71905 6.66703 8.71848C6.66935 8.71644 6.67274 8.71407 6.6775 8.71123C6.72717 8.67847 6.80714 8.69864 6.81347 8.64702C6.81698 8.58132 6.59497 8.57367 6.50779 8.64255C6.31586 8.76951 6.13613 8.93044 6.19412 8.8676C6.19658 8.86289 6.29186 8.77934 6.29576 8.76488C6.31524 8.64327 6.20126 8.56675 6.12137 8.44307C6.10975 8.42542 6.17675 8.30251 6.16999 8.29061C6.09542 8.16657 6.04851 8.40019 5.9131 8.62677C5.96078 8.50123 5.99655 8.3929 6.01653 8.30542C6.01825 8.29785 6.01985 8.29044 6.02132 8.28318C6.047 8.15897 6.03237 8.07922 5.97365 8.06443C5.91228 8.04989 5.8919 8.19938 5.84518 8.29844C5.83302 8.32839 5.80843 8.22292 5.79644 8.29253C5.76592 8.51997 5.76997 8.77621 5.74672 8.67231C5.74482 8.6675 5.74403 8.54296 5.73707 8.53552C5.68312 8.48956 5.72434 8.72552 5.72895 8.75125C5.73626 8.76734 5.6165 8.67396 5.55349 8.70049C5.55286 8.70071 5.55224 8.70094 5.55163 8.70117C5.55151 8.70123 5.55138 8.70129 5.55126 8.70135C5.29259 8.43254 5.29405 8.5529 5.46956 8.74309C5.43236 8.76882 5.41404 8.81437 5.35983 8.82771C5.34118 8.83251 5.26029 8.7602 5.24981 8.75472C5.08282 8.67246 5.27339 8.83714 5.27662 8.84986C5.2976 8.98866 5.08628 8.97756 5.2092 9.15468C5.2135 9.1614 5.44842 9.27503 5.26464 9.21964C5.25172 9.21636 5.1574 9.13562 5.12921 9.17714C5.10192 9.21633 4.93423 9.2603 5.02808 9.36751C5.05016 9.3942 5.24336 9.49369 5.07441 9.47899C5.05138 9.47719 4.98 9.4518 4.9377 9.447C4.80238 9.43354 5.05708 9.51319 4.83128 9.48203C4.60559 9.45067 4.42248 9.4792 4.56028 9.59189C4.56418 9.59565 4.76936 9.65355 4.76212 9.67601C4.75003 9.71275 4.69791 9.76075 4.69422 9.80175C4.69256 9.82119 4.82575 9.82487 4.82775 9.8285C4.88799 9.96005 4.76463 10.0358 4.71371 10.1769C4.70405 10.2048 4.88943 10.2649 4.74887 10.3222C4.5958 10.3898 3.92934 10.3851 4.10405 10.5319C4.1499 10.5706 4.51724 10.5615 4.66085 10.5796C4.66804 10.5806 4.67468 10.5817 4.68069 10.5829C4.74734 10.6039 4.7214 10.5941 4.668 10.7413C4.85851 10.8099 4.93838 10.7674 5.0476 10.7649C5.14914 10.7515 5.24882 10.7142 5.28211 10.5948C5.28619 10.5834 5.16507 10.3766 5.17882 10.3699C5.19284 10.3632 5.22908 10.3908 5.2599 10.4105C5.26896 10.4164 5.2775 10.4215 5.28476 10.425C5.29255 10.4287 5.29887 10.4305 5.30274 10.4291C5.38834 10.4 5.37663 10.2792 5.441 10.2344C5.4654 10.2166 5.53976 10.2989 5.56869 10.2748C5.5973 10.2496 5.506 10.1404 5.58933 10.1467C5.65272 10.1523 5.89222 10.2923 5.94419 10.2622C5.73395 10.099 5.75849 10.0735 5.73891 9.98451C5.7351 9.96753 5.65577 9.92576 5.65031 9.9152C5.62682 9.87202 5.69839 9.89791 5.67089 9.85371C5.66435 9.84313 5.59487 9.79501 5.58568 9.78393C5.50576 9.6897 5.69554 9.7508 5.72732 9.75837C5.85027 9.79229 5.77133 9.72076 5.82682 9.72115C5.88206 9.72013 5.90849 9.78846 5.95058 9.77277C5.97686 9.7627 5.99848 9.74704 6.01683 9.72863C6.01772 9.72773 6.01861 9.72681 6.01949 9.72589C6.06048 9.68331 6.085 9.62564 6.10972 9.57811C6.12373 9.54988 6.02106 9.52625 6.0209 9.52118C6.02154 9.45926 6.14739 9.4297 5.96019 9.34189C6.47913 9.44063 5.92309 9.29403 6.03432 9.24818C6.04313 9.24493 6.29224 9.24984 6.32483 9.2912C6.35692 9.33438 6.27114 9.37197 6.31395 9.43096C6.32527 9.44247 6.52694 9.58201 6.53574 9.59896C6.61188 9.71677 6.26166 9.57969 6.24203 9.57404C6.02498 9.51808 6.22767 9.68141 6.23388 9.70891C6.25255 9.76875 6.23767 9.80758 6.22335 9.84269C6.22284 9.84393 6.22233 9.84516 6.22183 9.8464C6.21005 9.87544 6.19922 9.90377 6.20794 9.94387C6.22028 10.0023 6.43457 10.1419 6.41332 10.1725C6.34528 10.2794 6.01562 10.0922 6.23979 10.3934C6.28773 10.459 6.54794 10.6223 6.31564 10.5641C6.30156 10.5621 6.09041 10.48 6.18778 10.6088C6.20016 10.6254 6.27462 10.6859 6.27794 10.6975C6.29861 10.7741 6.22522 10.7526 6.22878 10.8233C6.23238 10.8943 6.24159 10.9917 6.17928 11.0203C6.14178 11.0386 5.97406 10.9382 5.92946 10.9162C5.80281 10.8522 5.91695 11.0584 5.78144 10.9538C5.65564 10.8506 5.53366 10.6392 5.41754 10.5836C5.41131 10.5805 5.40512 10.5778 5.39897 10.5756C5.43949 10.6254 5.48007 10.6757 5.52063 10.7262C5.65394 10.8926 5.78649 11.0627 5.91678 11.2304C5.72432 11.3676 5.51904 11.403 5.21871 11.5104C5.17797 11.5237 5.26324 11.6528 5.21505 11.6715C5.10956 11.7095 4.97847 11.7166 4.78741 11.6892C4.60574 11.6603 4.27968 11.5866 3.99376 11.2925C3.83448 11.129 3.73268 10.9434 3.66837 10.7975C3.66413 10.7943 3.65985 10.7911 3.65554 10.7879C3.59061 10.739 3.5193 10.6878 3.48937 10.6318C3.78794 10.5283 3.67223 10.4136 3.69792 10.3164C3.70667 10.2833 3.78901 10.2821 3.81537 10.2586C3.91356 10.1734 3.64227 10.2179 3.59945 10.1945C3.41862 10.0888 4.03302 10.0857 4.02347 9.98224C4.02283 9.97837 3.7029 9.88613 3.68406 9.87294C3.55877 9.79648 3.79809 9.87074 3.82617 9.83272C3.878 9.76338 3.96073 9.72612 3.88012 9.62952C3.85585 9.60268 3.66797 9.50782 3.83133 9.48662C3.85268 9.48398 3.95699 9.50669 3.96413 9.50291C4.08455 9.43481 3.75723 9.36651 3.66053 9.28529C3.5642 9.20329 3.81226 9.17303 3.88064 9.17584C4.05849 9.17885 3.94198 9.22735 3.95776 9.23406C4.14464 9.31058 4.12628 9.24651 4.15525 9.20932C4.47106 9.29259 4.4681 9.23539 4.18406 9.17087C4.15287 9.16416 4.17203 9.20512 4.15525 9.20932C3.85759 9.0861 3.84504 8.9931 4.15333 9.0184C4.29765 9.03139 4.43868 9.11675 4.41908 9.00271C4.41109 8.95064 4.19663 8.88476 4.15776 8.82055C4.0712 8.66983 4.3204 8.63401 4.34308 8.52894C4.35215 8.48925 4.22703 8.46303 4.23018 8.43304C4.23962 8.35155 4.35198 8.34393 4.35519 8.25639C4.35553 8.24816 4.24029 8.19174 4.25292 8.17052C4.3484 8.00765 4.51641 7.92952 4.65769 7.79369C4.65848 7.79293 4.65927 7.79217 4.66006 7.79141C4.66053 7.79095 4.661 7.79049 4.66148 7.79003C4.74064 7.70851 4.89488 7.49331 5.06077 7.42634C5.34752 7.29306 5.75726 7.43484 5.94877 7.41985C6.08537 7.40688 6.07991 7.27623 6.15877 7.19957C6.2464 7.1167 6.32339 7.1954 6.35618 7.28671C6.35707 7.28905 6.35793 7.29141 6.35878 7.29377C6.37186 7.35815 6.3744 7.42931 6.37423 7.45063C6.37364 7.45198 6.29567 7.4596 6.30954 7.53516C6.2831 7.67494 6.373 7.4509 6.37423 7.45063C6.37366 7.48244 6.50383 7.56112 6.54478 7.55173C6.56651 7.54567 6.60787 7.42674 6.61871 7.42596C6.87064 7.41855 7.1896 7.49833 7.47357 7.96506C7.47687 7.97411 7.35301 8.0455 7.36122 8.06455C7.42249 8.21459 7.51693 8.32522 7.6157 8.45889C7.61654 8.46005 7.61739 8.4612 7.61824 8.46236C7.67427 8.49173 7.74116 8.51928 7.79509 8.55709C7.91889 8.64389 7.89677 8.74911 7.66247 8.84419C7.70154 8.92049 7.59997 9.04658 7.53542 9.11143C7.47124 9.1759 7.74175 9.1783 7.74699 9.18455C7.90972 9.3731 7.74032 9.48738 7.67868 9.67192C7.64918 9.7612 7.63625 9.9479 7.62672 10.0545C7.62032 10.1393 7.54514 10.1655 7.55144 10.2483C7.55213 10.2596 7.66267 10.2908 7.6655 10.2953C7.75577 10.4273 7.51499 10.2844 7.46198 10.2815C7.26901 10.2694 7.17035 10.2566 7.20083 10.3805C7.20913 10.4068 7.52527 10.656 7.5188 10.7123C7.51859 10.7145 7.51827 10.7166 7.51784 10.7185C7.51629 10.7254 7.51337 10.7303 7.50947 10.7336C7.48496 10.751 7.40399 10.6949 7.40625 10.7469C7.40631 10.7521 7.48196 10.7966 7.46144 10.8219C7.36665 10.9404 7.23067 11.0456 7.13692 11.1764C7.12366 11.1942 7.25052 11.2572 7.23247 11.2851C7.14783 11.4156 7.02185 11.5453 6.85997 11.6093C6.81991 11.6246 6.77148 11.5378 6.74558 11.5229C6.59122 11.4305 6.70725 11.6631 6.69934 11.6761C6.54259 11.9653 6.21516 11.9155 5.96156 12.1466C5.95208 12.1587 5.90705 12.4666 5.76493 12.2708C5.75372 12.2585 5.62439 12.054 5.6182 12.2231C5.61721 12.2338 5.69119 12.3388 5.61849 12.3465C5.54763 12.3538 5.44679 12.4602 5.32695 12.3447C5.30504 12.3235 5.26038 12.2394 5.21712 12.2111C5.20817 12.2053 5.19919 12.2019 5.19028 12.2019C5.17138 12.2016 5.15306 12.2224 5.13616 12.2802C5.13752 12.2932 5.03942 12.7308 4.97559 12.4423C4.96524 12.3947 4.96262 12.0843 4.87304 12.25C4.85468 12.2822 4.89024 12.3496 4.83955 12.3961C4.75866 12.4679 4.65692 12.3873 4.52656 12.5219C4.50639 12.546 4.37912 12.7546 4.3246 12.5816C4.31704 12.5546 4.36027 12.453 4.32188 12.4355C4.1467 12.3509 3.87397 12.3602 3.63347 12.1168C3.55247 12.0291 3.70352 11.9213 3.64685 11.8159C3.61237 11.7501 3.55093 11.6523 3.4843 11.5652C3.47296 11.5505 3.46136 11.5363 3.44947 11.5226C3.43409 11.51 3.41356 11.5025 3.38649 11.5034C3.29093 11.5055 3.08761 11.7099 3.02342 11.6521C2.7433 11.3928 2.7512 10.9995 2.68442 10.6643C2.67453 10.6134 2.58793 10.6817 2.56673 10.606C2.48108 10.3388 2.34468 9.79537 2.58979 9.55019C2.77968 9.36754 2.88545 9.62439 2.96965 9.48915C3.00966 9.43026 2.6982 9.30519 2.69159 9.2835C2.62006 9.08841 2.79306 9.00138 2.79866 8.84209C2.80014 8.8112 2.68636 8.79842 2.66937 8.7742C2.6678 8.77193 2.66707 8.76955 2.66736 8.76704C2.66835 8.7575 2.67009 8.74815 2.67246 8.73896C2.68448 8.68114 2.75072 8.63953 2.76214 8.58262C2.76756 8.55427 2.67085 8.52337 2.68797 8.50124C2.72788 8.44799 2.7897 8.40975 2.90252 8.3871C2.91272 8.38521 3.01409 8.46799 3.03706 8.42622C3.07439 8.3578 3.19893 8.30847 3.15251 8.18518C3.13839 8.14854 2.93131 8.04852 3.10264 8.06211C3.1387 8.06473 3.37752 8.20169 3.1977 8.03286C3.16612 8.00689 2.94561 7.7444 3.16098 7.78674C3.21734 7.7981 3.43337 7.87364 3.42188 7.82573C3.41976 7.81858 3.30354 7.77356 3.30993 7.74116C3.3351 7.6272 3.4151 7.53442 3.46318 7.41206C3.4763 7.37883 3.34316 7.34458 3.36721 7.29627C3.43373 7.16231 3.59616 7.03384 3.74774 6.95257C3.80373 6.92277 3.84118 7.02656 3.8523 7.03165C4.02451 7.12254 3.89474 6.91313 3.90625 6.88587C3.97473 6.72442 4.14631 6.74816 4.26258 6.65073C4.29612 6.62377 4.21329 6.53671 4.21582 6.52367C4.251 6.39225 4.28784 6.60666 4.34889 6.60192C4.51744 6.59093 4.67418 6.52499 4.82621 6.474C4.82775 6.47348 4.82929 6.47296 4.83084 6.47244C4.8817 6.45551 4.80769 6.36151 4.8309 6.33152C4.83356 6.32817 4.83746 6.32563 4.84291 6.3241C5.16546 6.23164 5.47264 6.25165 5.72162 6.36085C5.76836 6.38189 5.72533 6.4772 5.73236 6.50152C5.77482 6.67027 5.90145 6.47371 5.93102 6.45969C6.05427 6.39204 6.07542 6.49045 6.16979 6.50441C6.35086 6.53336 6.54803 6.60631 6.76037 6.75201C6.77571 6.76261 6.79099 6.77361 6.80621 6.785C7.11678 7.006 7.36259 7.43744 7.4289 7.74509C7.50165 8.04058 7.486 8.25953 7.47807 8.43998C7.47724 8.45535 7.47629 8.4706 7.47525 8.48574C7.45652 8.64789 7.44101 8.80692 7.44819 8.98829C7.44889 9.00984 7.56691 8.99064 7.56898 9.00946C7.58976 9.2556 7.52351 9.49934 7.50918 9.76965C7.50769 9.79208 7.62285 9.7795 7.62389 9.81694C7.62675 9.89401 7.59989 9.98952 7.54599 10.058C7.51996 10.0912 7.44033 10.0185 7.41614 10.0516C7.35958 10.1281 7.32529 10.2163 7.31116 10.3115C7.30514 10.3525 7.43278 10.3307 7.416 10.3823C7.30596 10.7297 7.10668 11.1407 6.67709 11.3579C6.64728 11.373 6.47119 11.225 6.45699 11.2965C6.4959 11.3469 6.54571 11.4027 6.5892 11.4549C6.49802 11.5447 6.39523 11.6244 6.28587 11.6917C6.27776 11.6967 6.2696 11.7016 6.26137 11.7064C5.7027 12.0271 5.04192 11.9339 4.51409 11.6221C4.48538 11.6048 4.49019 11.7289 4.43235 11.6939C4.26349 11.5902 4.10593 11.4666 3.97904 11.3195C3.96924 11.3082 3.95964 11.2966 3.95024 11.2849C3.90771 11.2249 3.87445 11.1578 3.86039 11.0727C3.85712 11.0541 3.99609 10.9406 3.94462 10.9238C3.93526 10.9207 3.87059 10.8847 3.82956 10.8976C3.82362 10.8998 3.77023 10.9654 3.75357 10.9507C3.658 10.8651 3.58378 10.7596 3.54731 10.6565C3.54155 10.6397 3.61407 10.5854 3.61027 10.5727C3.58899 10.4814 3.45547 10.4951 3.61183 10.4752C3.7488 10.453 3.74471 10.2868 3.77761 10.1344C3.78113 10.1155 3.83901 10.0868 3.78568 10.0131C3.65119 9.83523 3.5732 9.59952 3.43497 9.40634C3.40298 9.37297 3.28095 9.49912 3.25564 9.46955C3.25563 9.46955 3.25563 9.46954 3.25562 9.46953C3.24681 9.46035 3.24218 9.43705 3.25536 9.38831C3.2453 9.37334 3.44992 9.19416 3.5217 9.14416C3.56621 9.10295 3.44359 9.04018 3.55142 8.97717C3.66478 8.91701 3.79432 8.98714 3.93195 8.96733C4.06057 8.9504 4.05956 8.83681 4.25674 8.90118ZM7.23751 9.38028C7.10433 9.42273 7.57162 9.46764 7.46669 9.39688C7.46104 9.39341 7.24408 9.3779 7.23751 9.38028ZM5.31322 11.0666C5.15431 10.9056 5.21842 11.218 5.34622 11.3455C5.48552 11.4665 5.36705 11.1124 5.31322 11.0666ZM5.7559 10.5016C5.59327 10.4407 6.07307 10.9218 6.0232 10.7562C6.02037 10.7466 5.76537 10.5047 5.7559 10.5016ZM3.76677 10.1073C3.76823 10.1032 3.75502 10.0911 3.75298 10.0949C3.70186 10.1804 3.71762 10.1984 3.76677 10.1073ZM5.95353 9.92165C5.88178 9.89817 5.92354 9.99444 6.01347 10.025C6.08528 10.048 6.04227 9.94894 5.95353 9.92165ZM5.57953 11.074C5.57597 11.0685 5.55193 11.0739 5.5685 11.1069C5.6222 11.2131 5.63982 11.1667 5.57953 11.074ZM6.16561 8.93969C6.22527 9.13869 5.78842 9.20457 5.8279 9.13883C5.83144 9.11985 5.96471 9.13607 5.99561 9.10562C6.04293 9.02575 5.7966 9.11409 5.89484 9.00792C5.90836 8.98044 6.16032 8.92195 6.16626 8.9397C6.16604 8.9397 6.16582 8.93969 6.16561 8.93969ZM6.67067 9.37184C6.66446 9.37229 6.65613 9.40374 6.66212 9.40504C6.80875 9.43672 6.82707 9.36774 6.67067 9.37184ZM4.43479 10.8517C4.43799 10.8486 4.43917 10.8433 4.43958 10.8383C4.43973 10.8364 4.43975 10.8345 4.43965 10.8328C4.43275 10.8163 4.4225 10.8001 4.41652 10.8026C4.29834 10.8577 4.25949 10.9214 4.28019 10.9439C4.2832 10.947 4.28775 10.949 4.29359 10.9494C4.32026 10.9522 4.36646 10.9192 4.43479 10.8517ZM5.54354 8.695C5.62625 8.81957 5.62249 8.84891 5.46978 8.74312C5.49627 8.7282 5.51694 8.70857 5.54354 8.695Z" fill="black"/>
<path d="M15.3185 3.73004C15.3218 3.75396 15.2591 3.74945 15.1977 3.73989C15.1785 3.73692 15.1631 3.68856 15.1484 3.68483C15.1186 3.67812 15.1106 3.71027 15.0779 3.70197C15.0669 3.69908 15.0369 3.62481 15.026 3.62348C14.9656 3.61737 14.9342 3.66028 14.8809 3.67511C14.7877 3.70121 14.6969 3.73981 14.6097 3.78665C14.6088 3.7871 14.608 3.78755 14.6072 3.78801C14.7328 3.68976 14.7985 3.43456 14.793 3.35626C14.7952 3.26211 14.7956 3.18559 14.6597 3.13407C14.6595 3.13422 14.6593 3.13438 14.6591 3.13455C14.659 3.13468 14.6588 3.13481 14.6587 3.13494C14.638 3.1432 14.6461 3.24925 14.6903 3.1995C14.6946 3.1936 14.6845 3.09563 14.6847 3.08742C14.6834 2.96163 14.698 3.16061 14.7118 3.18515C14.7669 3.28228 14.8521 3.2699 14.9049 3.20883C14.9279 3.18251 14.8342 3.00625 14.8985 3.10052C14.9031 3.10681 14.9318 3.20931 14.9436 3.21685C14.9706 3.23376 14.9999 3.20124 15.018 3.20255C15.0532 3.20566 15.058 3.20235 15.0865 3.19077C15.1258 3.1757 15.1957 3.20094 15.229 3.1572C15.2359 3.14762 15.1758 3.05532 15.182 3.03126C15.1882 3.00729 15.2308 2.9957 15.2559 3.01172C15.2809 3.02782 15.3145 3.10756 15.3258 3.12392C15.4219 3.26205 15.3634 3.03149 15.3663 3.0233C15.4243 2.89294 15.5602 2.92869 15.6705 2.89284C15.6733 2.89259 15.6761 2.89209 15.6788 2.8913C15.6818 2.89041 15.6848 2.88913 15.6876 2.88749C15.7278 2.86356 15.7473 2.79462 15.7863 2.76679C15.833 2.73451 15.9133 2.73156 15.9302 2.68684C15.9318 2.68263 15.8195 2.62025 15.8204 2.61632C15.831 2.58004 15.8141 2.59738 15.8771 2.69014C15.8808 2.69567 15.8848 2.70081 15.889 2.70549C15.8987 2.71621 15.9094 2.72453 15.9206 2.7299C15.9311 2.7339 16.0352 2.69172 16.0509 2.69012C16.1614 2.69158 16.2417 2.42462 15.8835 2.77391C15.8809 2.74765 15.8637 2.71227 15.8904 2.61116C15.9068 2.54549 15.9967 2.45365 15.9397 2.48149C15.927 2.48783 15.8753 2.58461 15.8614 2.58772C15.8042 2.60166 15.7785 2.549 15.7119 2.58257C15.6983 2.58973 15.6558 2.68007 15.6456 2.69528C15.5642 2.81953 15.6383 2.59045 15.6369 2.5707C15.6362 2.48173 15.608 2.46052 15.5762 2.45332C15.57 2.45191 15.5638 2.45102 15.5575 2.45024C15.5447 2.4486 15.5318 2.44744 15.5194 2.44308C15.5081 2.43911 15.4782 2.57286 15.4667 2.57417C15.4078 2.57962 15.371 2.56402 15.3416 2.50161C15.3348 2.48737 15.357 2.36935 15.3537 2.35636C15.3352 2.29999 15.314 2.5252 15.3025 2.47757C15.2995 2.46778 15.3042 2.36504 15.3038 2.35381C15.2936 2.17706 15.2806 2.42893 15.2803 2.43489C15.258 2.51458 15.2063 2.2558 15.1646 2.30405C15.161 2.30998 15.1992 2.43602 15.1891 2.44457C15.1751 2.4567 15.1599 2.46658 15.1424 2.47458C15.1396 2.47595 15.1368 2.47722 15.1339 2.47841C15.0824 2.49987 15.0112 2.49451 14.8992 2.48021C14.8761 2.47754 14.8236 2.38981 14.8154 2.38042C14.6796 2.23901 14.8311 2.45315 14.8341 2.46371C14.8484 2.54511 14.6606 2.42047 14.8615 2.66467C14.6493 2.73339 14.6893 3.0075 14.3347 3.08671C14.3304 3.08803 14.2129 3.02449 14.2047 3.0275C14.1046 3.06422 14.2976 3.14144 14.5116 3.28776C14.566 3.32349 14.2706 3.23328 14.2481 3.22826C14.167 3.20686 13.9885 3.11645 13.9721 3.11399C13.8411 3.09857 14.4521 3.34937 14.4376 3.3883C14.436 3.38917 14.3252 3.33808 14.3127 3.33697C14.2732 3.33356 14.3141 3.36229 14.271 3.35751C14.1832 3.3474 13.935 3.26375 13.9889 3.31854C13.9962 3.32534 14.0088 3.33439 14.0279 3.34589C14.0316 3.34808 14.0453 3.35348 14.0652 3.36103C14.1611 3.39726 14.4011 3.48435 14.383 3.49484C14.3732 3.50099 14.3724 3.53587 14.3475 3.54026C14.322 3.54523 14.2027 3.51716 14.1975 3.51654C14.0328 3.52666 13.9684 3.50302 13.727 3.50368C13.4856 3.51457 14.0544 3.55623 14.1174 3.5679C14.1803 3.57865 14.0462 3.59958 13.9998 3.61018C13.9533 3.6191 13.875 3.6088 13.8488 3.61768C13.6785 3.68597 14.1336 3.6291 14.2251 3.63488C14.4417 3.6303 14.0221 3.70016 13.9915 3.75391C13.9829 3.76561 14.0752 3.73436 14.0858 3.73874C14.1258 3.7518 14.0075 3.81754 14.1331 3.79813C14.1553 3.79873 14.3903 3.69205 14.2301 3.79232C14.2076 3.80787 14.1113 3.85517 14.0972 3.87815C14.0755 3.91232 14.0793 3.95895 14.1213 3.95346C14.1517 3.94868 14.2776 3.8241 14.2454 3.87094C14.2318 3.89261 14.1432 3.94815 14.1261 3.98536C14.119 4.00172 14.1216 4.01697 14.1286 4.02977C14.1301 4.03264 14.1319 4.03538 14.1338 4.03797C14.1428 4.05011 14.155 4.0586 14.1624 4.06293C14.1784 4.07206 14.2579 3.96373 14.2651 3.95798C14.3045 3.92393 14.3636 3.88858 14.3651 3.88979C14.4522 3.93923 14.499 4.21078 14.6767 4.18807C14.69 4.18629 14.7213 4.05031 14.7237 4.04866C14.7767 4.00379 14.645 4.35065 14.6442 4.47883C14.7132 4.20518 14.7173 4.25954 14.754 4.23691C14.7716 4.22571 14.7891 4.11768 14.793 4.10715C14.8491 3.95061 14.8145 4.16202 14.8099 4.20573C14.7909 4.36616 14.8441 4.18324 14.8329 4.29046C14.8236 4.39711 14.7693 4.54769 14.8028 4.55175C14.8288 4.45434 14.8544 4.19194 14.8824 4.15388C14.9647 4.03647 15.0447 4.15917 15.1165 4.21651C15.1187 4.21841 15.1209 4.22025 15.1231 4.22202C15.1358 4.23239 15.1475 4.24011 15.157 4.24319C15.2185 4.26217 15.2361 4.24109 15.276 4.27253C15.3513 4.32738 15.2972 4.13928 15.3123 4.04612C15.3243 3.95282 15.4166 4.4205 15.4452 4.51915C15.4758 4.6172 15.459 4.51277 15.4813 4.56524C15.5043 4.61747 15.5008 4.6903 15.5287 4.70496C15.5588 4.71932 15.5677 4.52636 15.5391 4.4227C15.482 4.20251 15.3889 3.98274 15.4519 4.04958C15.4558 4.05344 15.4903 4.17419 15.5035 4.1829C15.61 4.24724 15.693 4.21557 15.8114 4.24531C15.8281 4.2494 15.8886 4.37538 15.8995 4.37886C16.0158 4.41295 15.8702 4.22604 15.7584 3.98792C15.941 4.28311 16.0779 4.44843 16.135 4.41044C16.1682 4.38814 16.0732 4.26963 16.0274 4.1705C16.0132 4.14093 16.0968 4.20792 16.0566 4.14882C15.9238 3.95671 15.7459 3.76533 15.8491 3.81531C15.854 3.81767 15.9294 3.9208 15.9406 3.92162C16.0142 3.92592 15.8596 3.73739 15.8767 3.68176C15.8896 3.6387 16.0472 3.69143 16.1006 3.66904C16.3851 3.93576 16.3586 3.83234 16.1691 3.64049C16.1997 3.62235 16.2115 3.58484 16.2612 3.58265C16.2783 3.58176 16.3612 3.65869 16.3715 3.66527C16.5353 3.76711 16.3412 3.59094 16.3374 3.57913C16.3081 3.45526 16.5087 3.51616 16.3941 3.34091C16.3901 3.33447 16.1684 3.17907 16.3434 3.2732C16.3555 3.27951 16.4432 3.36994 16.4717 3.34458C16.4836 3.33389 16.5186 3.33133 16.5496 3.32331C16.553 3.32307 16.5563 3.32273 16.5596 3.32224C16.5919 3.31787 16.6136 3.29583 16.56 3.25185C16.5373 3.22796 16.3345 3.14216 16.5017 3.18255C16.5247 3.18736 16.5983 3.21289 16.6408 3.22178C16.7774 3.24602 16.514 3.16945 16.744 3.20994C16.9741 3.25097 17.1612 3.21504 17.0076 3.12895C17.0032 3.12565 16.7872 3.09221 16.7915 3.07719C16.7988 3.05168 16.8449 3.01305 16.8424 2.98334C16.8411 2.96937 16.7053 2.98399 16.7028 2.98172C16.6218 2.90719 16.7346 2.83999 16.7609 2.72892C16.7652 2.70601 16.5732 2.7201 16.7018 2.64041C16.8393 2.54634 17.4913 2.34675 17.2874 2.2805C17.2328 2.2625 16.8697 2.39682 16.7365 2.43298C16.7253 2.4357 16.7157 2.43765 16.7078 2.43863C16.6657 2.44363 16.6757 2.42184 16.7707 2.33251C16.6106 2.28367 16.6503 2.03804 16.4408 2.08148C16.431 2.08345 16.3045 2.25275 16.2977 2.24355C16.2863 2.22943 16.3247 2.14043 16.3151 2.12815C16.2754 2.07493 16.1951 2.12319 16.1503 2.09145C16.1325 2.07992 16.1679 1.99972 16.1436 1.98745C16.118 1.97591 16.0723 2.07672 16.0527 2.0168C16.0385 1.97106 16.0536 1.75649 16.0119 1.73113C15.9933 1.83609 15.9774 1.88493 15.9599 1.91404C15.957 1.9187 15.9541 1.92287 15.9512 1.92669C15.9369 1.94516 15.9207 1.95553 15.9013 1.97478C15.8922 1.98406 15.8943 2.05368 15.8898 2.06155C15.8727 2.09459 15.8634 2.03667 15.848 2.07324C15.8444 2.08198 15.8418 2.14777 15.8391 2.15846C15.8192 2.25052 15.7881 2.10141 15.7774 2.07826C15.7453 1.9858 15.7408 2.06789 15.7173 2.03426C15.6912 2.00236 15.715 1.95307 15.6857 1.93688C15.6223 1.90478 15.5511 1.94292 15.4999 1.96873C15.4793 1.97951 15.526 2.03594 15.5238 2.039C15.4952 2.07237 15.4163 2.04027 15.4759 2.16164C15.2475 1.90416 15.4747 2.20225 15.3883 2.18347C15.3814 2.182 15.2739 2.07462 15.2738 2.04175C15.2738 2.00841 15.3285 2.02373 15.3292 1.97421C15.3284 1.96389 15.275 1.80535 15.2764 1.79094C15.2802 1.68796 15.4162 1.90615 15.4242 1.91788C15.5195 2.03831 15.4813 1.85832 15.4931 1.83641C15.5333 1.74889 15.6043 1.76293 15.6548 1.70235C15.6885 1.66301 15.6701 1.46637 15.7099 1.46163C15.8486 1.44693 15.8573 1.74511 15.9866 1.4793C16.0063 1.4416 16.0166 1.32601 16.0402 1.30309C16.0436 1.29973 16.0474 1.29837 16.0514 1.29957C16.0613 1.3026 16.0735 1.32182 16.0864 1.36726C16.0918 1.37795 16.1146 1.55362 16.1741 1.4415C16.1819 1.42722 16.1991 1.35456 16.2068 1.34831C16.2588 1.30766 16.2711 1.36611 16.3252 1.33872C16.3797 1.31125 16.4545 1.26944 16.5007 1.30009C16.5294 1.31808 16.5085 1.46899 16.5056 1.50759C16.4966 1.61818 16.623 1.45823 16.5833 1.59068C16.5373 1.7245 16.4002 1.90262 16.3998 2.00438C16.5162 1.79873 16.6398 1.58852 16.7621 1.38202C16.9259 1.43246 17.0368 1.57069 17.1889 1.67674C17.2084 1.69012 17.2931 1.57448 17.3182 1.58742C17.426 1.64586 17.4145 1.78476 17.5184 1.86002C17.5458 1.88002 17.5847 1.89488 17.6278 1.91029C17.6365 1.91339 17.6453 1.91649 17.6542 1.91965C17.7303 1.93988 17.8157 1.96183 17.8604 2.00223C17.5966 2.18575 17.7375 2.24816 17.7363 2.34277C17.7357 2.37462 17.6546 2.39812 17.6339 2.42557C17.5566 2.52652 17.8152 2.41631 17.8633 2.4265C18.0687 2.4801 17.4572 2.63348 17.4873 2.71887C17.4887 2.72099 17.8288 2.73826 17.8505 2.74901C17.992 2.7989 17.7363 2.77404 17.7153 2.81571C17.6761 2.89249 17.599 2.93929 17.6954 3.02329C17.7241 3.04551 17.9283 3.12159 17.7634 3.16517C17.7418 3.17045 17.6328 3.15806 17.6259 3.16272C17.5097 3.24339 17.85 3.28724 17.9527 3.37541C18.0547 3.46685 17.7945 3.52342 17.7236 3.52008C17.5392 3.52081 17.6622 3.46197 17.6457 3.45459C17.4532 3.37481 17.4724 3.44442 17.4406 3.4848C17.118 3.39042 17.1204 3.44328 17.4085 3.52642C17.4404 3.53473 17.4232 3.48904 17.4406 3.4848C17.7438 3.62105 17.7397 3.75294 17.4212 3.70069C17.2727 3.67282 17.144 3.56248 17.1434 3.68425C17.1434 3.6849 17.1434 3.68557 17.1435 3.68624C17.1438 3.69462 17.1484 3.70413 17.1561 3.71457C17.2058 3.76597 17.353 3.85557 17.3842 3.90489C17.4675 4.0402 17.2399 3.99085 17.2281 4.06471C17.2234 4.09216 17.3401 4.14683 17.3401 4.1685C17.3399 4.22693 17.2393 4.20269 17.2489 4.26958C17.2498 4.27583 17.3609 4.34874 17.3529 4.36179C17.2931 4.46301 17.1624 4.4868 17.0773 4.57563C17.0367 4.61849 17.0117 4.74846 16.9533 4.78321C16.8525 4.84552 16.6238 4.78684 16.577 4.8808C16.5445 4.94289 16.6338 5.04132 16.663 5.13193C16.7162 5.31017 16.4517 5.10873 16.4172 5.0726C16.4163 5.0714 16.4469 5.0142 16.3846 4.97354C16.2935 4.86348 16.4177 5.07156 16.4172 5.0726C16.3931 5.05142 16.2801 5.08459 16.2719 5.11748C16.2677 5.13573 16.3349 5.24215 16.3313 5.24974C16.2423 5.42822 16.08 5.53619 15.886 5.53603C15.8822 5.53458 15.8441 5.39902 15.836 5.39717C15.723 5.36688 15.707 5.54838 15.636 5.66777C15.5661 5.7865 15.477 5.76439 15.3993 5.53003C15.3369 5.56837 15.2352 5.46792 15.1849 5.40406C15.1347 5.34044 15.1285 5.61425 15.1233 5.61977C15.1233 5.61983 15.1232 5.61989 15.1232 5.61994C15.1181 5.62578 15.1131 5.63123 15.1081 5.63631C14.9674 5.78144 14.889 5.62885 14.7615 5.59075C14.6976 5.5717 14.5641 5.59123 14.4872 5.60609C14.426 5.61859 14.4087 5.54827 14.3478 5.57611C14.3394 5.57976 14.3143 5.70051 14.3109 5.70458C14.2121 5.832 14.3219 5.54862 14.325 5.49384C14.3372 5.29437 14.3485 5.18931 14.2542 5.25663C14.2342 5.27253 14.0417 5.66826 13.9978 5.68C13.9434 5.69518 14.0159 5.555 13.9588 5.5742C13.9539 5.57564 13.9186 5.66572 13.8922 5.65096C13.7693 5.58332 13.6539 5.46752 13.5087 5.39083C13.4886 5.37967 13.4324 5.52625 13.4006 5.51127C13.2672 5.44805 13.1205 5.33724 13.0208 5.16388C13.0149 5.15353 13.0092 5.143 13.0038 5.13232C12.9992 5.12308 12.9949 5.11374 12.9908 5.10433C12.9708 5.05642 13.0708 5.00471 13.0873 4.9753C13.1915 4.80261 12.9246 4.92183 12.9086 4.90975C12.5687 4.68591 12.6704 4.29106 12.4974 3.96632C12.4867 3.95458 12.1696 3.81708 12.4248 3.72804C12.4415 3.71944 12.7015 3.64989 12.5238 3.59693C12.5128 3.5928 12.3765 3.63471 12.3926 3.56141C12.4084 3.49126 12.3303 3.36245 12.4922 3.29063C12.5437 3.26497 12.809 3.25385 12.6254 3.13524C12.6098 3.13376 12.1956 2.87947 12.5203 2.92557C12.5738 2.93364 12.8946 3.0432 12.7588 2.90656C12.7373 2.88405 12.677 2.88296 12.6408 2.84959C12.6334 2.84265 12.627 2.83427 12.6223 2.82395C12.6189 2.81647 12.6166 2.80919 12.6151 2.80207C12.5888 2.74784 12.6697 2.72481 12.5612 2.62786C12.5399 2.60984 12.345 2.48406 12.5196 2.52133C12.5469 2.52732 12.6468 2.57991 12.6655 2.56952C12.7547 2.52089 12.7238 2.41341 12.8326 2.37274C12.8708 2.35871 13.0268 2.45119 13.0839 2.4468C13.141 2.4423 13.2098 2.41316 13.152 2.34782C13.0946 2.28178 12.8231 2.17722 12.8283 2.12246C12.8547 1.88065 13.1298 1.77338 13.3052 1.60328C13.3319 1.57752 13.2328 1.53742 13.2681 1.49398C13.3866 1.33697 13.6383 0.985169 13.9479 1.04301C14.1809 1.09505 14.0829 1.30963 14.2193 1.30505C14.28 1.30576 14.1723 0.997661 14.1832 0.980565C14.2703 0.818944 14.4343 0.903764 14.5516 0.81939C14.5521 0.819079 14.5525 0.81874 14.5529 0.818372C14.5747 0.797814 14.5069 0.688226 14.53 0.674577C14.5359 0.671019 14.542 0.667885 14.5483 0.665126C14.6192 0.63298 14.7142 0.659736 14.7896 0.635613C14.8264 0.62372 14.7994 0.528905 14.838 0.530287C14.93 0.532983 15.019 0.565493 15.1114 0.652568C15.119 0.660539 15.08 0.78349 15.1409 0.785287C15.2419 0.78837 15.3548 0.881828 15.4657 0.803244C15.4981 0.779602 15.5254 0.561132 15.5763 0.723153C15.587 0.757352 15.5317 1.01351 15.6391 0.80354C15.6534 0.766866 15.848 0.500096 15.8618 0.709606C15.8657 0.764471 15.8474 0.981327 15.8849 0.958541C15.8905 0.954808 15.9055 0.837433 15.934 0.835093C16.0069 0.830736 16.0713 0.854451 16.1356 0.867926C16.1485 0.870617 16.1615 0.87297 16.1747 0.8747C16.1859 0.87608 16.1974 0.876999 16.2091 0.877275C16.234 0.877809 16.2453 0.752515 16.2818 0.757376C16.3825 0.77081 16.4795 0.856304 16.546 0.938014C16.5704 0.968331 16.505 1.04196 16.5025 1.05273C16.4579 1.22492 16.5853 1.03269 16.6043 1.02876C16.7175 1.005 16.7204 1.13676 16.8044 1.16272C16.8278 1.17055 16.8739 1.06975 16.8831 1.0645C16.9775 1.01709 16.8382 1.15601 16.8517 1.19303C16.8887 1.29715 16.9724 1.35439 17.0589 1.41719C17.0909 1.44047 17.141 1.31639 17.1699 1.3397C17.3399 1.47778 17.5436 1.71514 17.6206 2.11479C17.6332 2.18973 17.528 2.17576 17.5125 2.19708C17.4452 2.28226 17.5006 2.34122 17.561 2.39714C17.5948 2.4277 17.6299 2.45511 17.6456 2.4719C17.6483 2.47466 17.6505 2.47708 17.6519 2.47915C17.7583 2.64075 17.6709 2.70883 17.675 2.83579C17.6647 3.48598 17.3116 3.80625 17.0846 4.00444C16.8925 4.16364 16.7043 4.25269 16.4919 4.34445C16.4806 4.34925 16.4692 4.35403 16.4578 4.35878C16.3973 4.37615 16.3363 4.40214 16.2745 4.44417C16.2633 4.45163 16.3356 4.55763 16.3266 4.56553C16.2072 4.66263 16.0392 4.69216 15.8849 4.79941C15.8719 4.80806 15.9425 4.90833 15.9228 4.92603C15.8828 4.96311 15.8161 4.98335 15.7489 4.96815C15.7163 4.96089 15.7117 4.85275 15.6801 4.84723C15.6069 4.83396 15.5399 4.84882 15.4793 4.8882C15.4533 4.90519 15.5362 5.00691 15.4984 5.02021C15.2452 5.11054 14.8912 5.21116 14.4816 5.01296C14.453 4.99893 14.4586 4.75441 14.399 4.79198C14.3845 4.85811 14.3724 4.9367 14.3591 5.00774C14.2217 4.99301 14.0783 4.95512 13.9435 4.89658C13.9389 4.89458 13.9343 4.89254 13.9297 4.89045C13.5252 4.70274 13.3623 4.3865 13.2879 4.05383C13.218 3.73464 13.243 3.24087 13.5534 2.88379C13.5857 2.84694 13.4545 2.85595 13.5214 2.78134C13.571 2.72804 13.6215 2.68169 13.6721 2.64026C13.6732 2.63939 13.6742 2.6385 13.6753 2.63761C13.7707 2.55636 13.8676 2.47351 14.0202 2.46542C14.0377 2.46441 14.1214 2.60258 14.1433 2.55881C14.1471 2.55084 14.1896 2.49775 14.1857 2.45907C14.1849 2.45334 14.1345 2.39588 14.1517 2.38259C14.253 2.30616 14.3816 2.25422 14.5235 2.23874C14.5463 2.2365 14.5592 2.31903 14.5757 2.3181C14.689 2.31284 14.7812 2.20951 14.9295 2.24561C15.0289 2.27175 15.0287 2.41508 15.0944 2.54153C15.1022 2.55926 15.1552 2.55572 15.1641 2.6353C15.1814 2.83442 15.1924 3.05315 15.215 3.26504C15.2198 3.30035 15.2018 3.2799 15.1994 3.3192C15.1994 3.31921 15.1994 3.31922 15.1994 3.31923C15.1994 3.33086 15.2021 3.34785 15.2094 3.37288C15.2145 3.38039 15.2382 3.41518 15.2449 3.45198C15.2511 3.47736 15.2581 3.55807 15.2692 3.59004C15.2812 3.6218 15.2725 3.5544 15.282 3.59233C15.2917 3.63075 15.3155 3.71958 15.3185 3.73004ZM14.9853 5.11102C14.9575 4.97721 14.9129 5.45816 14.9677 5.34583C14.9704 5.33982 14.9869 5.11759 14.9853 5.11102ZM16.8061 1.85047C16.7167 2.03488 16.9537 1.83549 17.0249 1.69149C17.0866 1.54461 16.8285 1.79315 16.8061 1.85047ZM16.2473 1.77874C16.2516 1.91395 16.4604 1.40931 16.3489 1.50388C16.3424 1.5093 16.2465 1.77106 16.2473 1.77874ZM14.9416 2.62105C14.9433 2.62439 14.9709 2.61933 14.9704 2.61567C14.9588 2.52506 14.9 2.5363 14.9416 2.62105ZM15.7742 1.8619C15.7919 1.91726 15.835 1.84838 15.8153 1.77712C15.7967 1.72065 15.7486 1.79424 15.7742 1.8619ZM13.7594 3.81362C13.7663 3.81128 13.7686 3.79252 13.7284 3.80199C13.5988 3.83285 13.6424 3.85319 13.7594 3.81362ZM15.1793 2.24968C15.2471 2.16675 15.4665 2.31104 15.3739 2.3505C15.3575 2.3596 15.3459 2.27491 15.3137 2.27619C15.2557 2.28411 15.3446 2.39226 15.258 2.37849C15.2429 2.37791 15.1752 2.25557 15.1791 2.24934C15.1792 2.24945 15.1792 2.24957 15.1793 2.24968ZM15.0053 4.53123C15.0051 4.52485 14.9829 4.51701 14.9818 4.52323C14.9551 4.67494 15.0043 4.69112 15.0053 4.53123ZM14.243 2.97802C14.2554 2.98288 14.2889 2.94478 14.2788 2.93768C14.0744 2.79729 14.0012 2.88121 14.243 2.97802ZM16.1087 3.67552C16.011 3.55507 16.0122 3.52666 16.1689 3.64044C16.1466 3.65033 16.1306 3.66579 16.1087 3.67552Z" fill="black"/>
<path d="M23.3598 10.976C23.3798 10.9945 23.3432 11.0521 23.3035 11.1109C23.2911 11.1293 23.241 11.1171 23.2302 11.1303C23.2093 11.1571 23.2335 11.1848 23.2099 11.214C23.2019 11.2238 23.1216 11.2112 23.1151 11.2219C23.0797 11.2816 23.1023 11.3402 23.0896 11.4055C23.0353 11.6919 23.0599 12.0004 23.111 12.3098C23.1112 12.3108 23.1113 12.3117 23.1115 12.3127C23.1101 12.3231 23.1135 12.3253 23.1151 12.3179C23.1194 12.2854 23.0514 12.2767 23.1123 12.2138C23.1182 12.2049 23.1363 12.1185 23.1389 12.1103C23.1727 11.9804 23.1309 12.168 23.1389 12.1858C23.1606 12.2329 23.2197 12.2495 23.285 12.2442C23.2852 12.2442 23.2853 12.2442 23.2855 12.2442C23.3078 12.2417 23.3297 12.2315 23.3494 12.2156C23.3748 12.1941 23.3287 11.997 23.3645 12.1054C23.3673 12.1126 23.3728 12.2218 23.3818 12.2319C23.4027 12.2546 23.4343 12.2276 23.4498 12.2323C23.4806 12.242 23.4854 12.2396 23.5122 12.2326C23.5483 12.2239 23.6113 12.2595 23.6442 12.218C23.6508 12.209 23.5992 12.1074 23.6048 12.0836C23.6102 12.06 23.6462 12.053 23.6689 12.0716C23.6914 12.0903 23.7241 12.1748 23.7348 12.1925C23.8279 12.3413 23.7682 12.099 23.7686 12.0912C23.8144 11.9463 23.9662 12.0087 24.06 11.9339C24.129 11.8777 24.1696 11.7774 24.2343 11.7216C24.3116 11.6555 24.4191 11.6343 24.478 11.5465C24.4842 11.5374 24.3697 11.4523 24.3767 11.4412C24.44 11.3407 24.5144 11.2529 24.6328 11.1903C24.6329 11.1902 24.6331 11.1901 24.6333 11.19C24.6507 11.1828 24.6687 11.1766 24.6877 11.1712C24.7014 11.1671 24.8013 11.2512 24.822 11.2508C24.94 11.2594 25.2464 11.2183 24.6975 10.9992C24.7193 10.9846 24.7373 10.9785 24.856 10.9708C24.9325 10.9635 25.0825 10.9936 25.0186 10.9625C25.0042 10.9561 24.8729 10.9551 24.861 10.948C24.8159 10.9242 24.8416 10.8965 24.7959 10.8703C24.7948 10.8697 24.7937 10.8691 24.7925 10.8686C24.7878 10.8669 24.7823 10.8655 24.776 10.8642C24.761 10.8611 24.6435 10.8821 24.6221 10.8846C24.4501 10.9107 24.7279 10.8367 24.7456 10.8216C24.8847 10.7383 24.8097 10.7106 24.7937 10.6674C24.7898 10.6569 24.6497 10.7361 24.6414 10.73C24.6008 10.6988 24.5932 10.6616 24.6299 10.5946C24.6381 10.5791 24.7471 10.4961 24.7557 10.4835C24.7883 10.4244 24.5974 10.5992 24.6338 10.557C24.6407 10.5478 24.7208 10.4622 24.7293 10.4526C24.8023 10.3661 24.7697 10.3908 24.7309 10.4344C24.7227 10.4435 24.7141 10.4533 24.7059 10.4629C24.6835 10.4891 24.6641 10.5134 24.6628 10.515C24.6219 10.5921 24.7708 10.3316 24.7323 10.3628C24.7309 10.3681 24.6908 10.5111 24.6936 10.5183C24.7233 10.5605 24.699 10.5238 24.5693 10.4902C24.5669 10.4895 24.5645 10.4888 24.5621 10.4881C24.541 10.4835 24.5193 10.478 24.4968 10.4718C24.4693 10.4646 24.435 10.3556 24.428 10.3435C24.3115 10.158 24.424 10.4282 24.4235 10.4409C24.4123 10.5361 24.2366 10.3548 24.3878 10.673C24.1207 10.7032 24.092 11.007 23.6849 11.0148C23.6798 11.0153 23.5676 10.9188 23.5578 10.9204C23.4386 10.9396 23.6301 11.068 23.8288 11.2757C23.8797 11.3267 23.5787 11.1635 23.5553 11.1533C23.4716 11.1125 23.298 10.9744 23.2806 10.9683C23.1404 10.9245 23.7494 11.3308 23.725 11.3704C23.7231 11.371 23.6137 11.2915 23.6003 11.2876C23.5579 11.2757 23.596 11.3161 23.55 11.3019C23.4443 11.2686 23.1333 11.0912 23.2852 11.2423C23.3054 11.2615 23.6667 11.4705 23.6286 11.4979C23.6127 11.509 23.5823 11.5804 23.5484 11.5871C23.5415 11.5884 23.5313 11.5863 23.5195 11.5819C23.486 11.5697 23.439 11.5404 23.4139 11.5246C23.4042 11.5186 23.3978 11.5145 23.3965 11.5142C23.3956 11.5141 23.3948 11.5139 23.3939 11.5138C23.3823 11.5118 23.3711 11.5098 23.3604 11.5077C23.2059 11.4697 23.1405 11.4187 22.9036 11.3394C22.6467 11.2624 23.2261 11.5163 23.287 11.5539C23.3479 11.5907 23.1978 11.568 23.1452 11.5613C23.093 11.5533 23.0162 11.5102 22.9851 11.5097C22.7798 11.5148 23.2749 11.64 23.3663 11.6878C23.5889 11.7879 23.1259 11.6873 23.0695 11.7293C23.055 11.7386 23.1637 11.7495 23.1723 11.7608C23.2059 11.8019 23.0536 11.8104 23.1892 11.8642C23.2109 11.8765 23.5027 11.9084 23.2895 11.9232C23.2587 11.9265 23.1372 11.9183 23.1106 11.9349C23.0704 11.9593 23.0479 12.0101 23.0923 12.0307C23.125 12.0448 23.3204 11.9959 23.262 12.0241C23.2362 12.0378 23.117 12.0391 23.0787 12.0661C23.0569 12.0819 23.053 12.1065 23.0562 12.1275C23.0568 12.1314 23.0576 12.1352 23.0585 12.1387C23.0613 12.1494 23.0656 12.1583 23.0689 12.164C23.0791 12.1814 23.2196 12.1208 23.2299 12.1193C23.2882 12.108 23.3637 12.0985 23.3639 12.0992C23.3935 12.1432 23.3108 12.4198 23.4609 12.3745C23.47 12.3699 23.4964 12.2124 23.4981 12.2101C23.5223 12.1469 23.4351 12.5625 23.4514 12.7077C23.4831 12.4061 23.4918 12.4403 23.513 12.4174C23.5143 12.4158 23.5158 12.414 23.5172 12.4119C23.5191 12.4089 23.5206 12.4027 23.5216 12.3944C23.5279 12.3547 23.5238 12.2674 23.5249 12.2569C23.5394 12.0674 23.5524 12.3123 23.5603 12.3622C23.5835 12.5458 23.585 12.3275 23.6042 12.4494C23.6275 12.5699 23.6154 12.7533 23.655 12.7467C23.6505 12.6312 23.5958 12.3342 23.6089 12.2837C23.6376 12.0992 23.8114 12.292 23.8986 12.276C23.9718 12.2674 23.9816 12.2367 24.0396 12.2497C24.1469 12.2692 24.0019 12.1018 23.9796 11.9969C23.9552 11.8929 24.2587 12.3339 24.3332 12.4223C24.409 12.5093 24.345 12.4092 24.3916 12.453C24.4387 12.4964 24.4675 12.5733 24.5028 12.5757C24.5394 12.5772 24.4646 12.3737 24.3921 12.2782C24.2406 12.074 24.0483 11.888 24.1488 11.926C24.1548 11.9282 24.2396 12.0397 24.2581 12.0424C24.4039 12.0587 24.4863 11.987 24.6274 11.9723C24.647 11.9703 24.7517 12.0833 24.7646 12.083C24.9 12.0784 24.6852 11.9305 24.499 11.7089C24.7809 11.9655 24.9763 12.0965 25.0249 12.0402C25.0538 12.0069 24.9204 11.908 24.8464 11.8138C24.824 11.7856 24.9313 11.8332 24.8736 11.7807C24.6845 11.6098 24.4445 11.4548 24.5747 11.4732C24.5808 11.4741 24.685 11.5664 24.698 11.5635C24.7828 11.5439 24.5759 11.3781 24.5917 11.304C24.6039 11.2462 24.7931 11.2589 24.8518 11.2195C25.1992 11.4595 25.1558 11.3515 24.9285 11.1681C24.9396 11.1586 24.9483 11.1471 24.957 11.1356C24.9577 11.1346 24.9584 11.1337 24.9592 11.1327C24.9734 11.1142 24.9872 11.096 25.0195 11.0902C25.0369 11.0869 25.1393 11.1557 25.1514 11.1611C25.3449 11.2423 25.1049 11.086 25.0971 11.0751C25.0294 10.9572 25.2606 10.9663 25.0547 10.84C25.0477 10.8346 24.739 10.7618 24.9644 10.7998C24.9806 10.8008 25.1196 10.8529 25.1335 10.8244C25.1459 10.803 25.3245 10.7415 25.1683 10.6972C25.1307 10.6833 24.8606 10.6942 25.0667 10.6533C25.0947 10.6469 25.1893 10.6368 25.241 10.6248C25.2795 10.6157 25.2907 10.6104 25.289 10.6075C25.2887 10.6071 25.2883 10.6068 25.2876 10.6065C25.2718 10.598 25.1478 10.6185 25.3498 10.5616C25.626 10.4888 25.8078 10.3401 25.5897 10.3307C25.5828 10.3292 25.3347 10.4201 25.3315 10.4041C25.3255 10.3755 25.3486 10.3083 25.3251 10.2813C25.3143 10.269 25.1948 10.378 25.1908 10.3777C25.0806 10.3857 25.1559 10.2515 25.0558 10.161C25.0413 10.1497 24.9983 10.2516 24.9768 10.2488C24.9762 10.2487 24.9755 10.2486 24.9748 10.2483C24.9662 10.2451 24.9571 10.2274 24.9453 10.1854C24.8885 10.0114 24.8655 9.25182 24.6957 9.47177C24.6155 9.56893 24.8545 10.4687 24.6224 10.044C24.5256 10.2096 24.2858 10.0761 24.2431 10.3025C24.2411 10.3128 24.3609 10.5264 24.3471 10.5312C24.3259 10.5386 24.2503 10.4533 24.2325 10.457C24.1562 10.4705 24.1644 10.5841 24.1049 10.6129C24.0893 10.6208 24.0533 10.5799 24.0234 10.5588C24.0207 10.5569 24.0181 10.5551 24.0155 10.5536C24.0052 10.5475 23.996 10.5449 23.9892 10.5488C23.9619 10.5654 24.0441 10.6864 23.9671 10.662C23.9088 10.6427 23.6834 10.4575 23.6295 10.4715C23.829 10.672 23.8046 10.6895 23.8234 10.7765C23.8271 10.7931 23.9043 10.8512 23.9097 10.8623C23.9331 10.9082 23.8634 10.8666 23.8907 10.9145C23.8972 10.9259 23.9656 10.9879 23.9748 11.0005C24.0552 11.1085 23.8675 11.0042 23.8357 10.9886C23.7134 10.9254 23.7912 11.0117 23.7356 10.9965C23.6804 10.9825 23.6555 10.9131 23.6134 10.9161C23.5273 10.923 23.4922 10.9959 23.4533 11.0425C23.4382 11.0616 23.5302 11.1146 23.53 11.1189C23.5181 11.1738 23.4042 11.1477 23.5409 11.2934C23.1216 11.0002 23.56 11.3478 23.433 11.3378C23.4228 11.337 23.2409 11.1985 23.2262 11.1588C23.2109 11.119 23.2866 11.1378 23.2602 11.0778C23.2549 11.0643 23.0962 10.8841 23.0869 10.8693C23.0187 10.7585 23.3161 10.9898 23.3339 11.0014C23.5248 11.1217 23.3523 10.9177 23.3435 10.8933C23.3096 10.787 23.3812 10.7773 23.3606 10.6908C23.3474 10.6344 23.1351 10.4494 23.1552 10.4278C23.2237 10.351 23.5488 10.6067 23.3401 10.2771C23.2962 10.2056 23.044 9.99126 23.2787 10.1051C23.2937 10.1109 23.4997 10.2386 23.4143 10.0991C23.4035 10.0813 23.3348 10.0084 23.3328 9.99745C23.3208 9.9247 23.3921 9.96287 23.3951 9.90005C23.3962 9.8785 23.3966 9.85449 23.3992 9.8315C23.3994 9.82985 23.3996 9.8282 23.3998 9.82657C23.4047 9.78454 23.4174 9.74723 23.4537 9.74117C23.4881 9.73476 23.636 9.86192 23.675 9.89121C23.7867 9.97593 23.6798 9.76529 23.7982 9.8864C23.9157 10.0108 24.0368 10.2456 24.1433 10.3039C23.9828 10.0754 23.8207 9.83856 23.6614 9.60636C23.7783 9.51568 23.9423 9.50654 24.0704 9.41169C24.0865 9.39943 23.9963 9.27145 24.0126 9.25411C24.0841 9.18036 24.2061 9.2409 24.2912 9.15155C24.357 9.08206 24.406 8.87731 24.5269 8.79691C24.6665 9.08533 24.7987 8.9787 24.9836 8.98217C24.9868 8.98224 24.99 8.98235 24.9931 8.9825C25.0066 8.98313 25.0199 8.98446 25.0327 8.9867C25.0968 8.99827 25.0865 9.09284 25.1264 9.12596C25.2727 9.25442 25.2484 8.93883 25.3102 8.897C25.6117 8.74064 25.4161 9.43151 25.5835 9.49633C25.5856 9.49435 25.9313 9.25178 25.9729 9.25376C26.1942 9.2216 25.9085 9.37358 25.9557 9.44794C26.0369 9.58678 26.0188 9.70589 26.2034 9.76222C26.255 9.77408 26.5378 9.75558 26.4036 9.91837C26.3857 9.93892 26.2629 9.98926 26.2595 9.99976C26.2 10.1766 26.587 10.0296 26.7564 10.0853C26.9266 10.1458 26.6749 10.3608 26.5944 10.3943C26.5931 10.395 26.5919 10.3957 26.5906 10.3963C26.5866 10.3983 26.5827 10.4003 26.579 10.4021C26.4991 10.438 26.4731 10.434 26.4675 10.4199C26.4671 10.4188 26.4668 10.4176 26.4665 10.4163C26.4627 10.3953 26.4838 10.3581 26.4726 10.3582C26.2917 10.3643 26.2697 10.405 26.2666 10.4486C26.2665 10.4497 26.2664 10.4508 26.2664 10.4519C26.2653 10.4677 26.2666 10.4845 26.2626 10.5005C25.8567 10.5631 25.8858 10.6175 26.2478 10.5607C26.2875 10.5535 26.2456 10.5139 26.2626 10.5005C26.6692 10.4926 26.7274 10.633 26.3459 10.7335C26.1669 10.7768 25.9705 10.7302 26.0292 10.8497C26.0535 10.9051 26.3319 10.9155 26.3931 10.9823C26.5279 11.1469 26.2186 11.2475 26.2051 11.3566C26.1982 11.3999 26.3513 11.4136 26.3501 11.4462C26.345 11.5352 26.2129 11.5504 26.2205 11.6375C26.2211 11.6457 26.36 11.6979 26.348 11.7196C26.2993 11.8098 26.2279 11.8717 26.1611 11.9305C26.1592 11.9321 26.1574 11.9337 26.1555 11.9354C26.1139 11.9636 26.0717 11.9934 26.041 12.0369C26.0083 12.0834 26.0133 12.2166 25.9644 12.2588C25.8804 12.3331 25.6347 12.3141 25.6178 12.42C25.6057 12.4897 25.7264 12.5704 25.7859 12.6552C25.9002 12.8214 25.5756 12.6764 25.5281 12.6495C25.5266 12.6485 25.5355 12.5833 25.4604 12.5572C25.332 12.4681 25.528 12.6484 25.5281 12.6495C25.4969 12.6335 25.4005 12.6963 25.4058 12.7322C25.4089 12.7518 25.5151 12.841 25.5147 12.8496C25.5025 13.0524 25.4053 13.2078 25.226 13.2807C25.2218 13.2807 25.1241 13.1571 25.1156 13.1583C24.9954 13.1712 25.0646 13.364 25.054 13.5173C25.0438 13.6698 24.9467 13.6896 24.7572 13.4862C24.7128 13.5562 24.5587 13.5048 24.4735 13.465C24.3888 13.4253 24.5097 13.713 24.5065 13.7215C24.4111 13.984 24.225 13.8637 24.0156 13.8855C23.9145 13.8973 23.713 13.9728 23.5923 14.01C23.5594 14.021 23.5304 14.0188 23.5034 14.0132C23.4879 14.0107 23.4729 14.0075 23.458 14.0044C23.4086 13.9939 23.3611 13.9844 23.2987 14.0016C23.2817 14.0061 23.2815 14.1483 23.2758 14.1531C23.1053 14.3019 23.2283 13.9686 23.2113 13.904C23.1533 13.6652 23.1488 13.5447 22.9781 13.5987C22.9458 13.6139 22.6478 14.0328 22.5535 14.0182C22.4417 14.0026 22.5624 13.8645 22.4511 13.8501C22.4417 13.8484 22.3853 13.9444 22.3309 13.9039C22.0771 13.7153 21.9045 13.444 21.7422 13.2168C21.7199 13.1847 21.6003 13.3236 21.5642 13.2756C21.4249 13.0892 21.3237 12.8558 21.3087 12.6227C21.3081 12.609 21.3079 12.5954 21.3079 12.5819C21.3081 12.5509 21.3101 12.5205 21.3139 12.4906C21.3225 12.4308 21.4505 12.4401 21.4839 12.4208C21.687 12.3121 21.3583 12.275 21.3502 12.2551C21.159 11.8646 21.4866 11.6106 21.4453 11.2694C21.4402 11.2546 21.1683 11.0143 21.4654 11.0411C21.4859 11.0409 21.7819 11.0841 21.6159 10.9667C21.6059 10.9587 21.4496 10.9419 21.4919 10.8838C21.533 10.8279 21.4937 10.6811 21.6855 10.6718C21.7115 10.6706 21.7804 10.6836 21.8364 10.6857C21.8521 10.6887 21.8665 10.6907 21.8783 10.691C21.9175 10.6917 21.9266 10.673 21.8514 10.6039C21.8377 10.595 21.435 10.2618 21.7609 10.4141C21.8145 10.4394 22.1366 10.6353 22.0048 10.4823C21.9796 10.4524 21.895 10.4285 21.8684 10.3729C21.828 10.2869 21.9511 10.284 21.8488 10.1389C21.83 10.1139 21.6484 9.93036 21.8322 10.0059C21.8609 10.018 21.9572 10.098 21.981 10.0892C22.0936 10.0487 22.0901 9.91711 22.2231 9.89112C22.2696 9.88223 22.416 10.0203 22.4808 10.0266C22.5455 10.0328 22.6302 10.0135 22.5853 9.92657C22.5412 9.83881 22.2704 9.66262 22.2926 9.60068C22.3949 9.32714 22.7355 9.2665 22.9764 9.12247C23.013 9.10072 22.9158 9.03207 22.9667 8.99296C23.1445 8.84807 23.4905 8.54116 23.7867 8.68277C23.7918 8.6852 23.7967 8.68769 23.8015 8.69024C23.8103 8.69421 23.8186 8.69837 23.8263 8.7027C24.0159 8.81448 23.8808 9.00752 24.0272 9.02885C24.0962 9.0418 24.0592 8.67624 24.0786 8.65896C24.2412 8.49378 24.4362 8.61659 24.6673 8.56378C24.718 8.55344 24.6656 8.40821 24.7118 8.40143C24.8747 8.37756 25.0525 8.46507 25.2178 8.49776C25.2927 8.5127 25.3109 8.40268 25.3795 8.43415C25.542 8.50967 25.6663 8.62384 25.7382 8.79099C25.7433 8.80537 25.5995 8.87712 25.6851 8.93739C25.7385 8.97591 25.7843 9.03119 25.828 9.08494C25.8316 9.08945 25.8352 9.09395 25.8388 9.09842C25.9009 9.17518 25.958 9.24206 26.0586 9.26244C26.1095 9.27168 26.3047 9.11026 26.2305 9.29399C26.2145 9.33268 25.963 9.50043 26.2289 9.41819C26.271 9.39958 26.6656 9.34917 26.513 9.53998C26.4734 9.59007 26.2835 9.75593 26.3362 9.77177C26.3444 9.77395 26.4522 9.68866 26.4807 9.71393C26.5794 9.80542 26.6196 9.93027 26.7038 10.0382C26.7267 10.0677 26.8401 9.96909 26.8706 10.0168C26.955 10.1491 26.9718 10.3544 26.9527 10.5285C26.9454 10.5929 26.8246 10.5663 26.8128 10.5729C26.7944 10.5823 26.7802 10.5906 26.7697 10.5982C26.7635 10.6022 26.7586 10.6059 26.7548 10.6094C26.6959 10.6622 26.8986 10.67 26.9138 10.6887C27.0201 10.8239 26.8884 10.9488 26.9062 11.0913C26.9103 11.1319 27.0438 11.1132 27.0544 11.1222C27.1551 11.2199 26.9315 11.1345 26.8978 11.1847C26.802 11.323 26.7696 11.4768 26.7335 11.6128C26.7203 11.6626 26.8829 11.6522 26.8683 11.6982C26.781 11.9751 26.6164 12.1868 26.4323 12.3006C26.3972 12.322 26.3209 12.2432 26.2956 12.2356C26.148 12.1877 26.2354 12.3137 26.2682 12.3718C26.2688 12.3726 26.2693 12.3733 26.2698 12.374C26.2757 12.3826 26.28 12.3891 26.2814 12.3924C26.3259 12.4993 26.2338 12.4609 26.2137 12.512C26.1151 12.7651 25.8342 12.9634 25.6165 13.1031C25.3295 13.2878 25.0622 13.3652 24.7815 13.5523C24.7632 13.5641 24.8519 13.6688 24.8364 13.6807C24.6303 13.8291 24.3679 13.8861 24.1056 13.9949C24.0834 14.0036 24.1535 14.1139 24.1178 14.1321C24.045 14.1701 23.9385 14.1852 23.847 14.1596C23.8029 14.1473 23.8357 14.0353 23.7931 14.0248C23.6944 13.9997 23.5966 14.0009 23.5014 14.0244C23.4603 14.0344 23.5342 14.1566 23.4782 14.1598C23.4127 14.1636 23.3464 14.1652 23.2798 14.1636C23.2792 14.1636 23.2785 14.1636 23.2778 14.1636C23.0458 14.1527 22.6673 14.0145 22.3246 13.5914C22.2965 13.5546 22.3794 13.3626 22.3037 13.3394C22.2667 13.3792 22.2281 13.431 22.1908 13.4758C21.9402 13.2312 21.8282 12.9008 21.7788 12.6745C21.7786 12.6733 21.7783 12.6721 21.7781 12.6709C21.7365 12.4717 21.7164 12.2685 21.6864 12.0631C21.6843 12.0491 21.5971 12.0893 21.5926 12.0619C21.5669 11.9035 21.5199 11.7465 21.598 11.5694C21.6057 11.552 21.7689 11.5474 21.7409 11.5013C21.7357 11.4936 21.7095 11.4212 21.6734 11.4037C21.668 11.4013 21.5925 11.4188 21.5891 11.3941C21.5714 11.2516 21.5893 11.0947 21.6489 10.942C21.6587 10.9176 21.7372 10.9511 21.7449 10.9342C21.7984 10.8172 21.7594 10.6622 21.8711 10.5412C21.9469 10.4627 22.0707 10.539 22.215 10.5452C22.2351 10.546 22.2575 10.5001 22.3321 10.5308C22.5178 10.6104 22.7146 10.7124 22.9139 10.7939C22.947 10.8076 22.9302 10.7926 22.9657 10.8109C22.9657 10.8109 22.9657 10.8109 22.9657 10.8109C22.9763 10.8161 22.9914 10.8241 23.0142 10.8355C23.021 10.8386 23.0534 10.8573 23.0884 10.8724C23.1127 10.8825 23.1887 10.9124 23.2202 10.9242C23.2519 10.9353 23.1872 10.9128 23.2237 10.9283C23.2609 10.9435 23.3505 10.9682 23.3598 10.976ZM24.1065 13.2652C24.0127 13.1385 24.1707 13.668 24.1908 13.5209C24.1915 13.5131 24.1115 13.2713 24.1065 13.2652ZM24.1429 9.84176C24.2998 10.0092 24.1685 9.69838 24.0484 9.56742C23.9251 9.4403 24.0937 9.79286 24.1429 9.84176ZM23.8245 10.301C23.9719 10.392 23.5485 9.85362 23.5873 10.011C23.5894 10.0201 23.8158 10.296 23.8245 10.301ZM22.2006 10.7357C22.2043 10.7358 22.2151 10.7056 22.2116 10.704C22.1274 10.6652 22.1051 10.7297 22.2006 10.7357ZM23.6113 10.7794C23.6825 10.8198 23.6415 10.7207 23.5523 10.6693C23.4808 10.6293 23.5231 10.7309 23.6113 10.7794ZM22.8052 11.6798C22.8134 11.6807 22.8246 11.6624 22.7793 11.6533C22.6328 11.6242 22.6675 11.664 22.8052 11.6798ZM23.1656 11.4052C23.2392 11.321 23.5814 11.5109 23.4582 11.5705C23.437 11.5822 23.4032 11.4627 23.3581 11.4627C23.2796 11.4656 23.4241 11.6291 23.2979 11.5943C23.2768 11.5888 23.1621 11.4102 23.1654 11.4047C23.1654 11.4049 23.1655 11.405 23.1656 11.4052ZM23.8719 12.645C23.869 12.6383 23.8416 12.6397 23.8431 12.6467C23.8781 12.8197 23.9412 12.8143 23.8719 12.645ZM23.6126 10.8737C23.625 10.8819 23.6717 10.8472 23.6626 10.8369C23.4764 10.6343 23.373 10.7123 23.6126 10.8737ZM24.8617 11.225C24.7406 11.1076 24.7422 11.0707 24.9282 11.1681C24.903 11.1856 24.8862 11.2073 24.8617 11.225Z" fill="black"/>
</svg>
