<svg width="8" height="8" viewBox="0 0 8 8" fill="none" xmlns="http://www.w3.org/2000/svg">
<path d="M3.28121 3.9035C3.34035 3.69959 3.31607 3.48054 3.2137 3.29453C3.11133 3.10852 2.93927 2.9708 2.73536 2.91166C2.53145 2.85252 2.31239 2.8768 2.12639 2.97916C1.94038 3.08153 1.80266 3.25359 1.74351 3.4575C1.59372 4.18949 1.73007 4.4995 1.81053 4.92771C1.91031 5.33063 2.03935 5.71247 2.23933 6.1083C2.32518 6.27439 2.42206 6.44281 2.56596 6.62332C2.56769 6.62547 2.56943 6.62763 2.57117 6.62978C3.00425 7.17453 3.67789 7.24768 4.00976 7.24592C4.01241 7.24594 4.01505 7.24595 4.01767 7.24596C5.22235 7.18431 5.74738 6.40341 6.23345 5.8616C6.23767 5.85651 6.24189 5.85142 6.2461 5.84632C7.05841 4.72817 6.92868 3.66733 6.91015 2.72425C6.90957 2.71469 6.90899 2.70514 6.90843 2.69559C6.87794 2.08316 6.45546 1.51556 6.09012 1.23245C5.71757 0.929557 5.35634 0.756196 5.05058 0.629341C5.0475 0.628082 5.04444 0.626829 5.04139 0.625581C4.28596 0.299503 3.33379 0.47711 2.7552 0.819657C2.1512 1.15513 1.72675 1.58846 1.36865 1.98831C1.35504 2.00376 1.34168 2.01935 1.32857 2.03508C0.353919 3.43024 0.832842 4.50107 0.867992 5.26461C0.872182 5.2964 0.877031 5.32755 0.882685 5.35904C1.02186 6.10693 1.50557 6.57443 1.88954 6.8536C1.90892 6.86761 1.92844 6.88129 1.94807 6.89463C2.88971 7.50423 3.78704 7.34324 4.39654 7.26408C4.41601 7.26137 4.4354 7.25844 4.45471 7.25528C5.83899 6.96835 6.34178 5.94136 6.74337 5.19101C6.74831 5.1811 6.75319 5.17118 6.75802 5.16126C7.16464 4.3413 7.16181 3.41466 7.00826 2.67174C7.00571 2.6589 7.003 2.64614 7.00012 2.63346C6.75411 1.78291 6.26685 1.52062 5.93765 1.31692C5.93214 1.31405 5.92662 1.31121 5.92109 1.3084C4.77641 0.760754 3.71286 1.12221 2.93893 1.52411C2.93886 1.52415 2.93878 1.52419 2.9387 1.52423C2.24426 1.8685 1.65208 2.65554 1.491 3.39578C1.30758 4.13282 1.38174 4.82345 1.49196 5.37692C1.50662 5.45117 1.5262 5.52322 1.54969 5.59195C1.87326 6.39091 2.35555 6.53571 2.64973 6.7088C2.68361 6.72631 2.71789 6.74327 2.75266 6.75976C3.15841 6.95407 3.65523 7.04327 4.14371 6.97927C4.18035 6.97462 4.2165 6.96929 4.25277 6.96322C5.26107 6.7877 5.86656 6.05173 6.20189 5.43983C6.21651 5.41302 6.23058 5.38609 6.24414 5.35904C6.6358 4.55602 6.69086 3.74795 6.51167 3.00767C6.49344 2.94114 6.47057 2.87625 6.44371 2.814C6.16873 2.22756 5.76879 2.05841 5.52213 1.94272C5.25815 1.83325 5.04336 1.78993 4.82985 1.76032C4.79812 1.75615 4.76641 1.75265 4.73462 1.7498C4.21534 1.7054 3.70771 1.85653 3.26096 2.15522C3.23541 2.17241 3.21034 2.19 3.18575 2.20794C2.26927 2.9487 2.22307 3.76903 2.11949 4.35542C2.11528 4.38757 2.11194 4.4196 2.10941 4.45223C2.06138 5.01238 2.34988 5.53812 2.69539 5.85916C2.71753 5.88056 2.74009 5.90135 2.76303 5.9215C3.20647 6.30405 3.69356 6.36814 4.05308 6.37119C4.07031 6.37123 4.08763 6.37109 4.10468 6.3708C4.55154 6.35635 4.95464 6.25924 5.38286 5.98719C5.39612 5.97847 5.40926 5.96961 5.42229 5.96061C5.83465 5.68401 6.22795 5.2884 6.4047 4.84857C6.40907 4.83793 6.41334 4.82724 6.41748 4.81651C6.55495 4.37655 6.74487 3.94669 6.36066 3.12052C6.35203 3.10478 6.34316 3.08917 6.33405 3.07372C6.32611 3.06023 6.31794 3.04677 6.30952 3.03333C5.84176 2.3113 5.11967 2.16217 4.6835 2.1587C4.67519 2.15864 4.66687 2.15864 4.65856 2.15869C4.12462 2.15789 3.64213 2.50584 3.36553 2.86848C3.36309 2.87154 3.36065 2.87461 3.35819 2.8777C3.15339 3.11783 2.95842 3.54312 2.97346 3.88294C2.97884 4.22484 3.09857 4.45747 3.21222 4.63946C3.28067 4.72111 3.4047 4.79017 3.52582 4.83639C3.64875 4.88232 3.75877 4.90163 3.86288 4.88514C3.96699 4.86865 4.06566 4.81627 4.16837 4.7346C4.26927 4.65321 4.36588 4.54919 4.40574 4.45038C4.47421 4.34443 4.5829 4.2787 4.66387 4.33761C4.75168 4.39329 4.73635 4.56977 4.7613 4.63053C4.76167 4.63136 4.76205 4.63218 4.76244 4.63299C4.82516 4.7247 4.77322 4.91648 4.67403 4.91491C4.67261 4.91492 4.6712 4.91491 4.66979 4.91489C4.63338 4.91333 4.57454 4.90626 4.46651 4.85512C4.36266 4.80725 4.19405 4.68375 4.09294 4.50701C4.08893 4.50019 4.08506 4.49338 4.08131 4.48658C4.07701 4.47879 4.07284 4.47095 4.06882 4.46308C3.91917 4.06495 4.07203 4.15495 4.08873 4.17409C4.08971 4.17487 4.09072 4.17565 4.09177 4.17644C4.13359 4.21128 4.2426 4.25552 4.24453 4.259C4.24467 4.25892 4.24478 4.25885 4.24487 4.25881C4.243 4.26594 4.13225 4.30521 4.06858 4.3027C4.06627 4.30274 4.06403 4.30273 4.06192 4.30269C4.00403 4.30462 4.0516 4.26729 4.17999 4.36292C4.18616 4.36783 4.19239 4.37293 4.19863 4.37819C4.24591 4.39963 4.35849 4.49766 4.34855 4.63357C4.34808 4.64077 4.34744 4.64769 4.34665 4.65446C4.3869 4.23866 4.57931 3.9429 4.51391 4.04494C4.5121 4.04641 4.51022 4.04798 4.50828 4.04963C4.49765 4.06184 4.52566 4.08785 4.52499 4.09009C4.52521 4.09011 4.5254 4.09012 4.52559 4.09012C4.5822 4.09641 4.63644 4.11264 4.62518 4.10701C4.62678 4.09501 4.47804 4.08157 4.31616 3.74904C4.30139 3.71432 4.2887 3.67765 4.2787 3.64019C4.38589 3.92615 4.4589 4.2643 4.37419 4.43264C4.37148 4.43842 4.36872 4.44407 4.3659 4.44959C4.1998 4.77365 3.99024 4.91726 3.91027 4.91856C3.90623 4.91923 3.90211 4.91968 3.89782 4.91992C3.85894 4.92056 3.81503 4.89055 3.75222 4.83932C3.74693 4.83496 3.74168 4.83023 3.73644 4.82517C3.58108 4.73339 3.58649 4.55945 3.72514 4.84878C3.73362 4.87359 3.74109 4.9009 3.7467 4.92959C3.65362 4.49263 3.61978 4.14556 3.6592 3.8856C3.70552 3.62933 3.76015 3.51698 3.96829 3.38183C3.96833 3.38181 3.96837 3.38179 3.96841 3.38176C4.39559 3.12017 4.85543 3.0833 4.99909 3.16659C5 3.16698 5.00092 3.16736 5.00184 3.16774C5.181 3.22797 5.25208 3.31357 5.1525 3.05188C5.15164 3.04809 5.15082 3.04426 5.15006 3.0404C5.25317 3.55187 5.22475 3.98542 5.05395 4.32904C5.05186 4.33331 5.04973 4.33758 5.04756 4.34184C4.79398 4.88168 4.28371 5.19431 4.15556 5.14118C4.1532 5.14108 4.15085 5.14095 4.14851 5.1408C3.6186 5.19158 3.25429 5.10268 3.20585 5.04318C3.20388 5.04184 3.20194 5.04049 3.20001 5.0391C3.05127 4.9354 3.05313 4.87287 3.07302 4.95767C3.07343 4.96054 3.07377 4.96339 3.07405 4.96625C2.91761 4.14658 2.95085 3.397 3.01334 3.42081C3.01364 3.42023 3.01394 3.41967 3.01424 3.41911C3.28989 3.08929 3.56358 2.82485 3.80534 2.67892C4.05926 2.53422 4.15512 2.52284 4.31405 2.5603C4.3171 2.56134 4.32015 2.56239 4.32319 2.56343C4.61986 2.66352 4.86663 2.72412 5.02937 2.78451C5.19676 2.85447 5.22094 2.83715 5.24988 2.87823C5.25126 2.88635 5.25261 2.89446 5.25393 2.90258C5.39173 3.68781 5.40225 4.57624 5.11047 4.90968C5.10725 4.91359 5.10403 4.91749 5.1008 4.92137C4.74375 5.37359 4.19403 5.62384 4.02386 5.58896C4.02208 5.58895 4.02032 5.58895 4.01856 5.58894C3.76154 5.59023 3.76674 5.56751 3.815 5.62166C3.81452 5.62106 3.81403 5.62046 3.81354 5.61985C3.77141 5.56802 3.715 5.47794 3.66441 5.37853C3.54135 5.13739 3.437 4.83977 3.36635 4.54978C3.33118 4.40506 3.30403 4.25899 3.29013 4.12791C3.27279 4.00667 3.28855 3.85145 3.28121 3.9035Z" fill="black"/>
</svg>
