<svg width="7" height="8" viewBox="0 0 7 8" fill="none" xmlns="http://www.w3.org/2000/svg">
<path d="M2.43096 3.28167C2.60307 3.28167 2.76813 3.2133 2.88983 3.0916C3.01153 2.9699 3.0799 2.80484 3.0799 2.63273C3.0799 2.46062 3.01153 2.29556 2.88983 2.17386C2.76813 2.05216 2.60307 1.98379 2.43096 1.98379C2.14951 1.99506 2.04897 2.10241 1.98967 2.1417C1.92313 2.19612 1.89687 2.2281 1.86792 2.2617C1.81777 2.3223 1.78884 2.3686 1.7652 2.40697C1.71722 2.48648 1.68555 2.55128 1.65602 2.61401C1.59853 2.73774 1.55393 2.85141 1.51198 2.96446C1.42918 3.18925 1.36034 3.40825 1.2965 3.62669C1.16951 4.06348 1.06418 4.49796 0.969937 4.93496C0.968379 4.9422 0.966861 4.94944 0.965385 4.95666C0.937761 5.09285 0.91596 5.24245 0.918826 5.41104C0.885283 5.90853 1.33668 6.46537 1.53115 6.60707C1.53974 6.61485 1.54836 6.62257 1.55713 6.63031C1.77978 6.82744 2.08305 7.05283 2.47134 7.16538C2.48479 7.16931 2.49836 7.17311 2.51201 7.17677C2.93022 7.29651 3.44105 7.2228 3.82259 7.02039C3.83286 7.01518 3.84308 7.00992 3.85326 7.00462C4.82915 6.44804 5.18145 5.61912 5.56146 4.94108C5.56641 4.93168 5.5713 4.92226 5.57614 4.91283C5.93936 4.21553 5.96209 3.43095 5.89112 2.7933C5.88947 2.7793 5.88761 2.76532 5.88555 2.75138C5.80084 2.15672 5.43379 1.71455 5.13162 1.50478C5.12501 1.50021 5.11836 1.49571 5.11168 1.49127C4.38392 1.00637 3.42033 0.823395 2.49748 1.15167C2.48897 1.15482 2.48051 1.15802 2.47209 1.16127C1.01594 1.92849 0.731889 2.88601 0.233711 3.81286C0.231719 3.81725 0.229741 3.82165 0.227777 3.82604C-0.0870328 4.41295 0.032903 5.37148 0.294065 5.81554C0.296579 5.82076 0.299109 5.82597 0.301655 5.83117C0.799689 6.80038 1.63237 7.16852 2.22375 7.44145C2.2283 7.44344 2.23284 7.44542 2.23739 7.44739C2.95752 7.77735 3.91012 7.72565 4.60413 7.34977C4.60675 7.34843 4.60937 7.34708 4.61199 7.34573C5.78416 6.60591 5.84273 5.76174 6.12287 5.12165C6.12389 5.11875 6.1249 5.11585 6.12591 5.11295C6.46793 4.13886 6.31629 3.08907 5.88255 2.27413C5.88253 2.27409 5.88251 2.27405 5.88249 2.27401C5.35464 1.30019 4.34696 1.17216 3.84357 1.09994C3.83828 1.09917 3.83299 1.09842 3.8277 1.0977C2.42408 1.0451 1.96369 1.78277 1.43605 2.19267C1.43085 2.19749 1.42567 2.20233 1.42053 2.20719C0.583741 3.06007 0.527328 3.97276 0.396311 4.64389C0.395047 4.65334 0.393847 4.6628 0.39271 4.67224C0.318589 5.23353 0.479113 5.79421 0.687784 6.1553C0.691263 6.16148 0.694778 6.16765 0.698329 6.1738C0.938541 6.59858 1.37221 6.99771 1.90244 7.19226C1.90792 7.19432 1.9134 7.19636 1.91889 7.19838C3.24997 7.6066 4.11096 7.06972 4.82405 6.73641C4.82881 6.73391 4.83356 6.7314 4.83831 6.72887C5.95752 6.12307 6.34141 4.98841 6.49099 4.13993C6.49191 4.1346 6.49281 4.12926 6.49371 4.12392C6.56093 3.73971 6.61597 3.12425 6.29325 2.55475C6.29057 2.54996 6.28787 2.54518 6.28515 2.54042C5.59115 1.42719 4.57185 1.27696 3.89177 1.13254C3.88543 1.13143 3.87909 1.13033 3.87274 1.12925C3.34961 1.0439 2.85096 1.12592 2.354 1.28824C2.34945 1.28975 2.3449 1.29127 2.34034 1.2928C1.63895 1.48971 1.06236 2.20819 0.876952 2.70455C0.876317 2.70601 0.875684 2.70748 0.875052 2.70894C0.557932 3.51467 0.440016 4.14981 0.463828 5.02602C0.463906 5.0273 0.463984 5.02857 0.464063 5.02985C0.460286 5.56691 0.825039 6.50073 1.48885 6.86651C1.49273 6.86898 1.4966 6.87143 1.50048 6.87386C2.01213 7.1894 2.56591 7.2989 3.12999 7.2477C3.13639 7.24707 3.14279 7.24642 3.14918 7.24574C4.27874 7.09269 4.90325 6.4695 5.42326 6.03502C5.42622 6.0324 5.4292 6.02982 5.4322 6.02727C5.88593 5.68858 6.25868 4.88286 6.16714 4.40236C6.16606 4.39307 6.16493 4.38382 6.16375 4.37464C6.06608 3.77329 5.87684 3.39708 5.48532 2.96056C5.47687 2.95172 5.46828 2.94292 5.45955 2.93416C5.10791 2.55949 4.48033 2.33924 3.99499 2.36174C3.98089 2.36192 3.96687 2.36224 3.95293 2.36269C3.47518 2.37488 3.00052 2.56122 2.65201 2.84837C2.64024 2.85794 2.62856 2.86763 2.61699 2.87744C1.69018 3.77949 1.74821 4.61355 1.78378 5.35624C1.78491 5.36699 1.78612 5.37773 1.78741 5.38845C1.80445 5.68375 1.95606 5.99597 2.13273 6.17794C2.30966 6.366 2.48898 6.46167 2.64741 6.52635C2.96964 6.64736 3.22297 6.67301 3.56169 6.64379C3.57315 6.64255 3.58467 6.64117 3.59627 6.63966C4.8582 6.37674 5.23684 5.54856 5.54022 4.86971C5.54056 4.86877 5.54091 4.86782 5.54125 4.86687C5.65954 4.46116 5.5512 4.04949 5.44017 3.82393C5.32613 3.58629 5.20914 3.44314 5.10134 3.32087C4.87926 3.08319 4.69707 2.9349 4.38213 2.80746C4.37274 2.80393 4.36331 2.80049 4.35385 2.79713C3.6269 2.52097 2.83176 2.83512 2.48118 3.13809C2.47688 3.14149 2.47259 3.14491 2.4683 3.14835C2.18611 3.37249 1.93989 3.72433 1.8245 4.12782C1.75291 4.37219 1.73143 4.62478 1.74383 4.85237C1.74404 4.85629 1.74425 4.86021 1.74447 4.86411C1.83906 5.56702 1.9425 6.01906 2.7207 6.59484C2.72471 6.5973 2.72873 6.59974 2.73275 6.60216C3.11606 6.84014 3.58837 6.85378 3.89107 6.76597C4.20508 6.68007 4.41914 6.53476 4.6054 6.37962C4.60759 6.37777 4.60978 6.37591 4.61198 6.37405C5.14717 5.92257 5.24141 5.37235 5.29509 5.03045C5.3131 4.86867 5.25902 4.68949 5.1636 4.53868C5.06709 4.3875 4.9371 4.27707 4.78336 4.22531C4.62963 4.17356 4.45932 4.18291 4.29103 4.24494C4.12383 4.30735 3.9724 4.41734 3.88891 4.55709C3.81422 4.67319 3.73572 4.77543 3.67187 4.81879C3.6036 4.86674 3.58676 4.8228 3.56373 4.79696C3.56346 4.79674 3.56319 4.79651 3.56291 4.79629C3.53699 4.78025 3.51294 4.73982 3.57523 4.69294C3.62792 4.64508 3.83099 4.61904 4.00308 4.71233C4.00485 4.71323 4.0066 4.71413 4.00836 4.71505C4.18342 4.81501 4.18394 4.83529 4.20971 4.83163C4.22804 4.83139 4.2476 4.80471 4.2714 4.8691C4.27163 4.86983 4.27186 4.87056 4.27208 4.87131C4.28571 4.9111 4.29646 4.97606 4.29048 5.04449C4.28175 5.15878 4.23172 5.25935 4.18933 5.29174C4.18867 5.29226 4.18802 5.29278 4.18737 5.29329C4.16102 5.31303 4.10114 5.35417 3.97567 5.3831C3.85398 5.41373 3.65783 5.40535 3.52288 5.34759C3.51912 5.34609 3.5154 5.34455 3.51173 5.34299C3.42932 5.29766 3.46425 5.27613 3.42755 5.20122C3.41153 5.16094 3.37866 5.1108 3.32421 4.98139C3.27277 4.86306 3.19522 4.58001 3.28185 4.29494C3.28188 4.29523 3.28192 4.29552 3.28195 4.29581C3.29432 4.41603 3.27777 4.57989 3.26104 4.6718C3.23948 4.77322 3.25747 4.76057 3.34673 4.74803C3.34958 4.74767 3.35227 4.74736 3.35483 4.74708C3.42584 4.7446 3.40432 4.72451 3.48184 4.73382C3.5186 4.74175 3.58335 4.76119 3.67199 4.84734C3.76008 4.92827 3.85501 5.11041 3.86545 5.27096C3.86585 5.26596 3.86624 5.26097 3.86661 5.25597C3.87909 5.08108 3.91746 4.90551 3.97129 4.7839C4.0199 4.66016 4.10526 4.61193 4.05156 4.68953C4.05128 4.6904 4.05097 4.69128 4.05061 4.69219C4.04111 4.72007 3.99149 4.76052 3.94093 4.7764C3.93967 4.77691 3.93832 4.77741 3.9369 4.77789C3.89345 4.80565 3.70214 4.77101 3.65745 4.71493C3.65639 4.71392 3.65543 4.71296 3.65456 4.71205C3.62633 4.66578 3.68616 4.7894 3.66856 4.71586C3.66864 4.71587 3.66872 4.71582 3.66878 4.7157C3.65026 4.71815 3.88408 4.44303 3.96143 4.43117C3.95895 4.43366 3.95644 4.43613 3.95392 4.43856C3.52992 4.86401 3.11038 5.14988 2.92724 5.15115C2.92614 5.15127 2.92504 5.15138 2.92393 5.15149C2.82323 5.16396 2.68814 5.12579 2.63317 5.08434C2.63267 5.084 2.63218 5.08367 2.6317 5.08334C2.5949 5.05412 2.62972 5.0814 2.6252 5.07557C2.62354 5.07018 2.60324 5.00598 2.59771 4.89913C2.59768 4.89865 2.59765 4.89817 2.59763 4.89768C2.57553 4.52886 2.68721 3.90689 2.83886 3.55889C2.83911 3.55831 2.83936 3.55773 2.83962 3.55715C2.88582 3.44965 2.9339 3.38223 2.95488 3.36199C2.97867 3.34156 2.96283 3.34842 3.01981 3.32751C3.02061 3.32726 3.02142 3.327 3.02225 3.32675C3.16463 3.28113 3.35596 3.31523 3.4956 3.34107C3.49731 3.34137 3.49902 3.34167 3.50072 3.34198C4.02922 3.41785 4.37078 3.6433 4.33407 3.65467C4.33415 3.65481 4.33424 3.65495 4.33432 3.65509C4.30652 3.59976 4.37269 3.6055 4.34922 3.79403C4.34894 3.7963 4.34866 3.79859 4.34836 3.8009C4.27739 4.37571 4.06548 4.77485 3.84881 4.87217C3.84775 4.87274 3.84669 4.8733 3.84562 4.87386C3.31652 5.17419 2.72436 5.27401 2.66462 5.20085C2.66421 5.20067 2.66381 5.20049 2.66342 5.20031C2.64665 5.18932 2.63488 5.16332 2.58771 5.08447C2.58707 5.08336 2.58643 5.08224 2.58577 5.08112C2.5003 4.92955 2.46413 4.89821 2.44993 4.86359C2.44974 4.86292 2.44955 4.86223 2.44936 4.86153C2.46798 4.22501 2.55912 3.68243 2.71011 3.57228C2.71098 3.57145 2.71186 3.57064 2.71273 3.56983C2.91824 3.37905 3.12542 3.21311 3.30338 3.11082C3.4815 3.0013 3.61113 3.0061 3.54788 3.0137C3.54751 3.0137 3.54714 3.01369 3.54677 3.01368C3.77172 3.05221 3.9422 3.10467 4.02928 3.15446C4.12058 3.20868 4.09335 3.21324 4.09894 3.2162C4.09895 3.21622 4.09896 3.21624 4.09897 3.21626C4.32527 3.64134 4.41457 4.10432 4.28329 4.47331C4.2829 4.47444 4.28251 4.47557 4.28211 4.47669C4.10595 5.05513 3.73325 5.61981 3.70891 5.55509C3.70893 5.55505 3.70895 5.55501 3.70898 5.55497C3.47736 5.654 3.2944 5.62533 3.06612 5.53003C3.06466 5.52939 3.0632 5.52876 3.06173 5.52812C2.54185 5.31096 2.18963 5.07417 2.11667 4.91797C2.11614 4.91705 2.1156 4.91612 2.11508 4.91519C1.99951 4.66226 2.01293 4.75179 2.0404 4.60841C2.04074 4.60747 2.04109 4.60651 2.04145 4.60555C2.20065 4.21786 2.38814 3.8441 2.59927 3.52098C2.79421 3.20519 3.09988 2.90819 3.16342 2.88692C3.16368 2.88669 3.16388 2.88649 3.16403 2.88632C3.43199 2.7659 3.85272 2.77995 4.19383 2.96893C4.19708 2.97066 4.20035 2.97237 4.20365 2.97406C4.36097 3.05272 4.4449 3.02057 4.44646 2.98563C4.44658 2.98514 4.44672 2.98471 4.44688 2.98432C4.53434 3.4933 4.52624 3.93448 4.34531 4.28201C4.34286 4.2868 4.34037 4.29159 4.33785 4.29637C4.00378 4.94318 3.5974 5.55277 3.20357 5.73399C3.19962 5.73591 3.19567 5.73776 3.19173 5.73955C3.08189 5.78517 3.00988 5.76337 2.89858 5.7359C2.89496 5.73493 2.8913 5.73392 2.88762 5.73288C2.78176 5.70377 2.6499 5.63821 2.47954 5.51056C2.47304 5.50572 2.46651 5.50086 2.45987 5.49592C2.22407 5.30976 2.27734 5.4074 2.2348 5.33892C2.22714 5.3141 2.22593 5.26992 2.23698 5.21657C2.23756 5.21375 2.23816 5.21088 2.23879 5.20796C2.32773 4.79527 2.42719 4.3864 2.54252 3.98992C2.60016 3.79243 2.66223 3.59646 2.72941 3.41434C2.76287 3.32375 2.79834 3.2353 2.83204 3.1631C2.84848 3.12764 2.86604 3.09439 2.87415 3.08131C2.87726 3.07571 2.8803 3.0737 2.86397 3.09381C2.8535 3.10551 2.84377 3.11959 2.79986 3.15566C2.75986 3.17947 2.68606 3.27028 2.43096 3.28167Z" fill="black"/>
</svg>
