<svg width="29" height="44" viewBox="0 0 29 44" fill="none" xmlns="http://www.w3.org/2000/svg">
<path d="M5.18885 28.3017C5.69439 27.7592 6.39768 27.1414 6.95289 26.6808C7.13183 26.5318 7.09494 26.6688 7.21666 26.5722C7.45792 26.3802 7.63433 26.1609 7.87457 25.9772C7.95328 25.9177 7.94553 26.0866 8.02649 26.022C8.47567 25.6621 8.84308 25.2677 9.27638 24.8852C11.4146 22.9981 13.4577 21.0852 15.5661 19.1193C16.2602 18.4717 17.1685 17.7474 17.8408 17.0271C17.9191 16.9429 17.7943 16.9122 17.8037 16.8905C17.9515 16.5552 18.0233 16.7923 18.2036 16.6583C18.4823 16.4504 18.7594 16.2221 19.0285 15.9839C19.1457 15.88 19.262 15.7737 19.3768 15.6659C19.6786 15.3824 19.9561 15.0973 20.2087 14.8184C20.4472 14.5536 20.0388 14.6517 20.3829 14.4808C20.4067 14.4688 20.4252 14.6172 20.504 14.5556C20.6813 14.4176 20.9648 14.0984 21.0912 13.9812C21.3331 13.7584 21.3775 13.7106 21.5927 13.4868C21.8953 13.173 22.2853 12.842 22.5782 12.479C22.6399 12.4018 22.4621 12.4154 22.5515 12.2854C22.6379 12.1592 22.9264 11.8506 23.0383 11.7664C23.1536 11.6789 23.1864 11.7886 23.2196 11.7844C23.4955 11.7556 23.6146 11.2164 23.646 11.168C24.2867 10.2353 24.9929 9.57714 25.5748 8.71094C25.8554 8.28887 26.1197 7.81417 26.3101 7.37595C26.4014 7.16644 26.4784 6.94823 26.5046 6.81385C26.5081 6.7962 26.5114 6.77906 26.5146 6.76181C26.5332 6.66155 26.5456 6.56788 26.5508 6.48446C26.5638 6.29909 26.5326 6.18142 26.5135 6.14476C26.4714 6.03303 26.0537 5.79477 25.6404 5.68227C25.5583 5.65824 25.6082 5.83415 25.508 5.80589C24.4301 5.51722 23.2173 5.34532 22.0329 5.07476C21.9139 5.04789 22.0887 4.93024 21.9706 4.89499C21.2438 4.68302 20.1038 4.2495 19.5727 4.80112C19.0686 4.70848 18.4536 4.59403 18.0189 4.39619C17.7387 4.26847 18.0488 4.16108 17.6786 4.16695C17.5953 4.16789 17.6773 4.32097 17.5538 4.31206C17.031 4.2738 16.4781 4.12304 15.9536 4.07795C15.8464 4.06897 15.8474 4.1955 15.8129 4.21042C15.7812 4.22346 15.7488 4.23035 15.7161 4.23223C15.4481 4.24728 15.1715 3.92919 15.0957 3.88816C15.0033 3.83911 14.9149 3.795 14.8293 3.75478C14.3314 3.51868 13.8979 3.43678 13.3873 3.29631C13.2494 3.25876 13.3715 3.45912 13.2386 3.42904C12.764 3.3212 12.2889 3.21067 11.8635 3.14875C11.6718 3.12095 11.4913 3.10403 11.3319 3.10202C11.2186 3.10188 11.3018 2.95067 11.2439 2.94465C11.1564 2.93768 11.0993 2.96817 11.06 3.00875C11.108 3.06102 11.2329 3.06288 11.1607 3.10864C11.1375 3.12878 11.0388 3.06141 11.0246 3.06073C10.7834 3.08938 11.0185 3.33381 11.018 3.36618C10.9919 3.88761 10.6661 4.26542 10.6755 4.8665C10.6779 4.93733 10.84 4.78691 10.8379 4.98615C10.832 6.32828 10.804 7.7815 10.6379 9.13361C10.6127 9.34497 10.4887 9.19009 10.4728 9.20297C10.2224 9.41676 10.5476 9.55993 10.5585 9.63077C10.6198 10.0731 10.4401 10.4779 10.567 10.824C10.5976 10.908 10.6461 10.984 10.72 11.0588C10.6903 11.361 10.666 11.6571 10.6442 11.962C10.5003 13.9513 10.5257 15.9563 10.0911 17.9095C10.0852 17.9378 9.92291 17.8762 9.91176 17.9327C9.77579 18.604 10.0398 18.5108 10.3251 18.985C10.3967 19.1059 9.99317 19.4227 9.96261 19.4579C9.85184 19.5669 9.61343 19.4294 9.59084 19.4669C9.41226 19.7745 10.2319 19.7827 10.2026 20.2C10.2003 20.2129 10.054 20.1476 10.0365 20.1813C9.98207 20.2834 10.0335 20.4019 9.9737 20.5086C9.83548 20.7512 9.4318 20.8114 9.63468 21.1959C9.66092 21.246 10.1302 21.2111 10.0783 21.5937C10.0577 21.7435 10.0111 22.4136 9.96474 22.5986C9.91896 22.7806 9.78024 22.641 9.77264 22.6537C9.53224 23.1298 9.46554 22.9449 9.15045 23.1689C8.83604 23.3926 9.53808 23.3858 9.60652 23.4938C9.67546 23.5952 9.47573 23.9669 9.41064 24.0457C9.34524 24.1292 9.26098 24.0091 9.22118 24.0848C8.95894 24.5943 9.5432 24.3547 9.63596 24.5424C9.85594 24.9782 9.30478 25.2527 9.2107 25.6276C9.18514 25.7297 9.31227 25.659 9.31266 25.7518C9.31314 26.1109 9.12634 26.3078 9.21816 26.7478C9.23433 26.8114 9.49693 27.1978 9.23833 27.379C9.20103 27.4053 9.08607 27.2989 9.03415 27.4508C8.9797 27.6058 8.917 27.857 8.88202 28.0879C8.86886 28.1759 8.85984 28.2638 8.85883 28.3384C8.85658 28.5253 9.1065 28.351 8.99627 28.5752C8.94709 28.6723 8.86169 28.4607 8.78013 28.6403C8.70087 28.821 8.59025 29.313 8.54339 29.4899C8.50667 29.6562 8.68931 29.5922 8.69528 29.6118C8.69899 29.6163 8.70284 29.6208 8.70704 29.6241C8.74142 29.773 8.76491 30.0544 8.76559 30.0677C8.76547 30.0697 8.76548 30.0704 8.76561 30.0695C8.75811 30.0439 8.7914 30.1566 8.7432 29.906C8.7266 29.8631 8.71076 29.7919 8.6021 29.6885C8.50189 29.5762 8.22206 29.5261 8.09177 29.5934C7.84238 29.7133 7.85538 29.8043 7.84561 29.797C7.82791 29.8262 7.82144 29.8414 7.81623 29.8528C7.80674 29.8747 7.80531 29.8805 7.8043 29.8831C7.80525 29.8797 7.81038 29.8611 7.8151 29.8426C7.82658 29.7979 7.83736 29.7534 7.84803 29.7098C7.87336 29.6048 7.89172 29.5309 7.91745 29.4261C7.96271 29.2446 8.01226 29.0524 8.0619 28.8667C8.16039 28.4991 8.26681 28.1212 8.36645 27.7601C8.56826 27.0255 8.7555 26.2917 8.85857 25.5213C8.87492 25.4007 8.69863 25.45 8.69946 25.4313C8.7113 25.0068 9.07728 25.4095 9.27385 25.1497C8.94059 25.1292 9.03051 24.9769 9.0497 24.6792C9.05878 24.5353 8.91897 24.5887 8.90853 24.5735C8.75832 24.3277 9.0298 24.2368 9.08693 24.2075C9.29655 24.1054 9.107 23.9155 9.2474 23.8433C9.38628 23.7719 9.52805 24.0178 9.57558 23.7423C9.47499 23.6447 9.13746 23.7935 9.1276 23.5768C9.09426 22.7501 9.59714 21.3138 9.73154 20.6754C9.86675 20.0452 9.88265 19.8321 9.98589 19.4685C10.1724 18.8052 9.91919 19.0203 9.89556 18.587C9.87223 18.1526 10.3493 18.4402 10.4696 18.3981C10.5893 18.3565 10.4866 18.2737 10.5589 18.2102C10.6311 18.1469 10.6802 18.3176 10.7305 18.149C10.7805 17.9806 10.6619 17.475 10.5582 17.3963C10.3383 17.2285 10.0509 17.4003 10.2149 16.959C10.2244 16.9336 10.343 17.0399 10.3727 16.9415C10.6043 16.1592 10.7401 15.3306 10.948 14.5443C10.9767 14.4362 11.1059 14.5558 11.1241 14.4932C11.3138 13.8409 11.0367 14.0423 10.8226 13.6387C11.0868 13.7412 11.2944 13.6644 11.4094 13.3948C11.4271 13.3532 11.4427 13.307 11.4559 13.2563C11.4686 13.2075 11.4792 13.1543 11.4876 13.0965C11.5323 12.7927 11.37 12.8228 11.2898 12.6101C11.2656 12.5465 11.4034 12.3465 11.3366 12.297C11.1188 12.1333 10.8226 12.2963 11.008 11.7897C11.0165 11.7675 11.1348 11.8601 11.1547 11.7821C11.2846 11.2786 11.0473 11.1793 11.1062 10.6214C11.1524 10.1836 11.4294 9.43771 11.5386 8.94967C11.9277 9.02583 11.9175 8.54928 11.6829 8.31177C11.7506 7.99426 11.7983 7.64661 11.8935 7.34512C11.9259 7.24241 12.0252 7.33265 12.0399 7.32167C12.2692 7.15181 12.0359 6.96428 12.0391 6.89383C12.0644 6.48339 12.1699 6.1311 12.2623 5.77496C12.2921 5.66071 12.3213 5.54269 12.3455 5.42763C12.3496 5.40908 12.3532 5.39296 12.3566 5.37836C12.3584 5.37104 12.36 5.3641 12.3618 5.35712C12.372 5.33631 12.3363 5.39233 12.4031 5.26513C12.4232 5.24799 12.4331 5.18498 12.5897 5.15772C12.7763 5.14888 12.8402 5.29909 12.8476 5.32345C12.8709 5.40608 12.8596 5.38207 12.8629 5.39599C12.8639 5.40982 12.8639 5.41808 12.8639 5.42553C12.8638 5.43999 12.8633 5.45036 12.8626 5.46179C12.8604 5.49044 12.8607 5.49399 12.8599 5.50777C12.857 5.56051 12.8536 5.61608 12.8526 5.6653C12.8474 5.78288 12.852 5.87353 12.8608 5.98701C12.8637 6.01102 13.1253 6.10049 12.894 6.259C12.8782 6.26922 12.7972 6.02056 12.7289 6.34252C12.6582 6.67675 12.3958 7.27824 12.4293 7.76739C12.4381 7.88195 12.598 8.21521 12.3848 8.40519C12.3558 8.43121 12.2859 8.38274 12.2347 8.41856C12.0707 8.53645 12.3248 8.6672 12.0637 8.78462C11.8017 8.90719 11.5638 9.21131 11.626 9.71782C11.6277 9.73321 11.8191 9.88304 11.7862 10.0288C11.7325 10.2656 11.6219 10.5833 11.5728 10.8304C11.5493 10.9491 11.6967 10.9002 11.6949 10.9212C11.6088 11.717 11.3723 12.2664 11.1466 13.0891C11.103 13.2498 11.1915 13.7158 10.985 13.9924C10.7602 14.2899 10.1902 13.8099 10.1829 14.5979C10.1788 14.9188 10.9117 15.4719 10.3717 15.9288C10.246 17.0136 9.8178 17.938 9.72989 19.0311C9.72587 19.0801 9.91753 19.2814 9.88912 19.3938C9.84637 19.5612 9.7209 19.6277 9.68756 19.7439C9.54489 20.2311 9.53094 20.7106 9.40833 21.1848C9.36167 21.3662 9.26788 21.2774 9.21195 21.4949C9.15629 21.7114 9.26666 21.8849 9.13024 22.1636C9.02692 22.373 8.6838 22.533 8.58311 22.8155C8.86723 22.893 8.81517 23.092 8.80691 23.4707C8.80544 23.5436 8.9224 23.4922 8.92684 23.5279C8.94702 23.6739 8.83563 23.7784 8.86235 23.9163C8.86864 23.9499 8.96598 23.9741 8.97661 24.003C9.07082 24.2487 8.76841 24.55 8.71596 24.6019C8.64961 24.6679 8.61646 24.7273 8.59812 24.7834C8.59334 24.798 8.58956 24.8124 8.58646 24.8265C8.56851 24.9221 8.58046 25.0087 8.52621 25.1037C8.43423 25.2668 8.41596 24.9895 8.34144 25.1911C8.18857 25.6115 8.12318 26.1781 8.06856 26.624C8.0477 26.804 8.14524 26.6935 8.1443 26.7196C8.10309 27.0816 8.01151 27.4579 8.10654 27.6622C7.96641 27.7868 7.98472 27.8441 8.01873 27.9362C8.03686 27.9772 8.06051 28.0339 8.08844 28.1004C8.11901 28.1632 8.14864 28.2756 8.27402 28.2371C8.29918 28.2239 8.43453 28.2889 8.21766 28.3533C8.0491 28.3636 7.98612 28.1766 7.96895 28.0727C7.94663 27.9533 7.9427 27.836 7.92344 27.7207C7.91783 27.6646 7.77658 27.346 7.76063 27.3001C7.66067 26.9546 7.92965 26.9406 7.94796 26.9274C8.13147 26.7543 7.9694 26.3612 7.94907 26.2556C7.89928 25.7953 7.99153 25.4262 7.98058 25.0416C7.97388 24.8625 7.80919 24.7646 7.73916 24.6501C7.73996 24.6457 7.743 24.6328 7.74392 24.6285C7.73406 24.6118 7.72632 24.5949 7.72157 24.5774C7.71455 24.5515 7.71389 24.5245 7.72231 24.4951C7.89761 23.8835 8.37932 23.7791 8.13793 23.1066C8.08617 22.9639 7.7177 23.0074 8.08699 22.6264C8.10998 22.6036 8.43114 22.3287 8.31983 22.1009C8.30575 22.0723 8.20617 22.0502 8.20504 22.0166C8.19936 21.7919 8.31065 21.6691 8.32457 21.4316C8.33903 21.1916 8.34574 20.8979 8.43851 20.6436C8.49432 20.4899 8.72549 20.3305 8.7886 20.2626C8.96858 20.0752 8.80491 19.7964 8.99352 19.6997C9.18325 19.6021 9.36764 19.9173 9.54929 19.5909C9.29237 19.5197 9.03229 19.4303 8.77556 19.351C8.95788 18.5744 9.2078 17.8407 9.3659 17.0596C9.38518 16.9629 9.22337 17.0306 9.24035 16.9263C9.31132 16.492 9.4956 16.125 9.55119 15.6715C9.59511 15.3138 9.52728 14.9004 9.56696 14.5274C9.91575 14.3634 9.92663 13.8083 10.0377 13.415C10.076 13.2796 10.1545 13.3059 10.201 13.2144C10.3749 12.8678 10.0731 12.9817 10.0523 12.8714C9.96503 12.3932 10.5735 12.4944 10.6667 11.9691C10.6721 11.9403 10.4171 11.5475 10.4067 11.4959C10.3365 11.1729 10.529 11.4696 10.5906 11.2903C10.7017 10.9685 10.8267 10.7494 10.8105 10.3424C10.8041 10.2296 10.6599 9.90395 10.8591 9.71883C10.8853 9.69426 10.9891 9.73166 10.9999 9.70988C11.1886 9.30965 10.856 9.22318 10.7885 8.96518C10.7236 8.69413 11.0269 8.37769 11.11 8.30885C11.3234 8.13851 11.1532 8.48191 11.1692 8.49027C11.3472 8.6552 11.3654 8.37837 11.4239 8.16929C11.7608 8.20224 11.796 7.91537 11.4815 7.9603C11.4472 7.96513 11.4472 8.12982 11.4239 8.16929C11.1341 7.92778 11.1549 7.59562 11.5263 7.29953C11.701 7.1567 11.8353 7.35845 11.8713 6.83342C11.8851 6.60771 11.6414 6.64574 11.6164 6.4319C11.5915 6.24479 11.6294 6.03889 11.6868 5.82214C11.7124 5.73082 11.747 5.61416 11.7771 5.51494C11.7926 5.46243 11.8063 5.4192 11.8184 5.37615C11.8212 5.36734 11.8233 5.36233 11.8252 5.35794C11.8262 5.35607 11.8265 5.35789 11.8261 5.37238C11.826 5.37992 11.8257 5.39051 11.8258 5.4105C11.8259 5.42061 11.8262 5.43315 11.8272 5.45085C11.8277 5.45973 11.8284 5.46994 11.8296 5.48223C11.8324 5.49908 11.8266 5.48872 11.8464 5.58569C11.8573 5.62936 11.8703 5.68763 11.9223 5.78512C11.9737 5.87569 12.0816 6.04669 12.342 6.14565C12.6056 6.24775 12.893 6.16076 13.0112 6.08241C13.141 6.0022 13.1891 5.93786 13.2259 5.8936C13.3445 5.72654 13.3259 5.71546 13.3417 5.68616C13.3555 5.64542 13.3479 5.66587 13.3504 5.65752C13.3514 5.65205 13.3512 5.65044 13.3505 5.65083C13.3491 5.65177 13.3456 5.66059 13.3413 5.67368C13.3114 5.76272 13.2869 5.85508 13.2728 5.94691C13.269 5.97224 13.2696 5.98983 13.273 6.00339C13.2923 6.08005 13.4068 5.99843 13.3961 6.09732C13.3633 6.40731 13.2149 6.65575 13.2022 6.97577C13.2012 7.00481 13.3461 6.96192 13.329 7.05897C13.2032 7.79112 13.0049 8.41849 12.8719 9.19121C12.8074 9.56479 12.7724 10.2452 12.6973 10.6308C12.5669 11.2988 12.2483 12.0978 12.2143 12.6815C12.1918 13.0618 12.3391 12.9986 12.4093 13.1729C12.4374 13.242 12.4431 13.3179 12.4341 13.3952C12.4286 13.442 12.4178 13.4895 12.4033 13.5366C12.3234 13.7959 12.1295 14.0421 12.0889 14.0876C12.0869 14.0896 12.1 13.7576 12.0059 13.9221C11.846 14.0024 12.0887 14.0838 12.0889 14.0876C12.0499 14.1332 11.9277 14.7795 11.9353 14.9137C11.9397 14.9863 12.0753 14.9664 12.0752 15.0039C12.0692 15.8942 11.9796 16.776 11.788 17.6496C11.7831 17.6647 11.637 17.6172 11.6271 17.6531C11.4841 18.1558 11.6189 18.5104 11.6664 18.9526C11.7142 19.3911 11.6279 19.7234 11.3258 19.927C11.3109 20.2471 11.1216 20.6898 11.0086 20.9354C10.8945 21.1869 11.1929 21.2761 11.1954 21.3003C11.2765 22.0494 11.0354 22.4404 10.8855 23.1813C10.8139 23.534 10.7424 24.2478 10.7129 24.6366C10.6907 24.9411 10.5832 25.1199 10.5845 25.4016C10.5845 25.4399 10.7333 25.429 10.7368 25.4413C10.8539 25.7882 10.5309 25.5721 10.4575 25.6255C10.1897 25.8207 10.0446 25.9305 10.0789 26.3576C10.0867 26.4543 10.547 26.8143 10.5465 26.9933C10.5455 27.2196 10.3779 27.1006 10.3816 27.3353C10.3817 27.356 10.495 27.3747 10.4642 27.5174C10.3249 28.1684 10.125 28.875 9.99959 29.5594C9.98055 29.6595 10.1873 29.5715 10.1634 29.7135C10.1314 29.9047 10.0929 30.1196 10.0301 30.3805C10.019 30.4243 10.0156 30.4404 9.994 30.5161C9.97042 30.5824 9.98419 30.5965 9.86017 30.8601C9.84125 30.8973 9.81756 30.9419 9.78025 31.0017C9.77651 31.0054 9.70988 31.1253 9.56773 31.2777C9.41874 31.4164 9.16991 31.7274 8.46129 31.8295C7.71543 31.945 6.97598 31.3833 6.80918 31.0788C6.59388 30.7557 6.56781 30.5822 6.53357 30.4586C6.48298 30.2206 6.4911 30.1455 6.4875 30.0746C6.48763 29.9341 6.49142 29.9385 6.49144 29.9243C6.49226 29.9117 6.49311 29.9003 6.49396 29.8898C6.50888 29.7279 6.51921 29.6825 6.52899 29.618C6.55424 29.4638 6.56789 29.4033 6.5953 29.2686C6.644 29.0248 6.66284 29.0013 6.68376 28.9313C6.70316 28.8744 6.71984 28.8295 6.73771 28.7805C6.77216 28.6877 6.80768 28.5934 6.84414 28.5018C6.8942 28.3736 7.00398 28.4849 7.04801 28.4644C7.31676 28.3301 7.02913 28.0076 7.03046 27.9622C7.03272 27.8932 7.03476 27.8339 7.03878 27.771C7.09848 26.7961 7.46055 26.0116 7.44038 24.9447C7.43931 24.8774 7.12546 24.3756 7.45905 24.1893C7.48157 24.1742 7.82156 23.998 7.62131 23.7936C7.6088 23.7805 7.43181 23.8958 7.47081 23.6689C7.51083 23.4302 7.43391 23.0729 7.64367 22.7614C7.7102 22.6586 8.04779 22.4677 7.82031 22.141C7.80472 22.1153 7.27007 21.6137 7.67873 21.4821C7.74601 21.4597 8.16203 21.5253 7.97679 21.1426C7.94071 21.0703 7.83768 21.1855 7.79355 21.0032C7.72473 20.7333 7.86583 20.3638 7.70471 20.015C7.67603 19.9552 7.41094 19.6887 7.64095 19.4996C7.67696 19.47 7.81198 19.5406 7.83539 19.4336C7.94707 18.9279 7.89061 18.3899 8.02072 17.8859C8.06645 17.708 8.28527 17.8148 8.35786 17.6288C8.43028 17.4459 8.51371 17.0449 8.42266 16.8521C8.33221 16.6497 7.96092 16.8436 7.95077 16.5462C7.9077 15.2365 8.18999 13.9639 8.28806 12.6688C8.30265 12.4766 8.16716 12.6308 8.17958 12.3452C8.18603 12.1945 8.19105 12.0268 8.19584 11.8461C8.2048 11.5009 8.21095 11.1193 8.22341 10.7342C8.249 9.93629 8.31791 9.12024 8.4966 8.60089C8.74312 7.88024 8.86026 8.80126 8.97115 8.24445C9.02271 7.97874 8.63813 7.67482 8.62957 7.61168C8.53689 6.97388 8.73472 6.53635 8.71747 5.9511C8.7143 5.82908 8.55153 5.94329 8.5509 5.83986C8.5479 5.48827 8.64353 5.12078 8.66176 4.7716C8.66968 4.61846 8.5521 4.63491 8.57528 4.49166C8.6309 4.1429 8.71537 3.82826 8.88396 3.46748C8.89918 3.43588 8.99971 3.68217 9.05295 3.40462C9.10103 3.17004 9.17927 2.90991 9.31568 2.57454C9.46465 2.27825 9.62121 1.67641 10.479 1.28717C10.4962 1.28014 10.5129 1.27331 10.529 1.26664C10.7033 1.17307 10.7069 0.921832 11.1611 1.03885C11.2553 1.07108 11.17 1.3649 11.6207 1.09767C11.6556 1.07804 11.8347 0.996263 12.0471 0.950078C12.3013 0.893442 12.5977 0.887898 12.7477 1.03993C12.822 1.11303 12.9796 1.3949 13.1569 1.39268C13.1815 1.3915 13.1173 1.23869 13.2626 1.25586C13.7745 1.32019 14.2625 1.46221 14.7452 1.54629C14.8734 1.56834 14.7258 1.38077 14.9164 1.41815C15.0905 1.45224 15.275 1.49808 15.4606 1.55055C15.7304 1.62682 16.0199 1.71655 16.2827 1.80137C16.3409 1.82022 16.3982 1.83886 16.4541 1.85708C16.6239 1.91237 16.4782 2.00246 16.4879 2.01798C16.6474 2.27028 16.8281 2.01558 16.8995 2.01347C17.3416 2.00287 17.645 2.19578 18.0513 2.23152C18.1634 2.24161 18.1076 2.09394 18.1316 2.08586C18.3791 2.0089 18.1689 2.21988 18.3098 2.27135C18.7028 2.41574 19.1637 2.47785 19.5839 2.52466C19.7383 2.54168 19.588 2.3606 19.7263 2.3777C20.5458 2.47594 21.4016 2.61409 22.209 2.82185C22.3606 2.86122 22.2476 2.96339 22.2759 2.99493C22.4688 3.21421 22.8322 3.01083 22.9101 2.99895C23.2702 2.94394 23.3885 3.06857 23.6947 3.10171C24.3071 3.16933 24.9928 3.2851 25.7049 3.47732C26.439 3.74384 27.1612 3.71423 28.208 4.90215C28.6493 5.54332 28.6588 6.13539 28.6439 6.54302C28.6438 6.54508 28.6437 6.54715 28.6436 6.54921C28.6294 6.803 28.5908 7.02175 28.5442 7.22259C28.4307 7.69119 28.2868 7.96466 28.1475 8.24217C27.4285 9.55476 26.6782 10.4167 25.8448 11.4957C25.7747 11.5842 25.9596 11.5863 25.9001 11.6642C25.1248 12.6641 24.2619 13.5322 23.4314 14.4609C23.3639 14.5359 23.5623 14.5227 23.4567 14.6465C23.2372 14.9044 22.9361 15.2019 22.6658 15.4139C22.5359 15.5157 22.6087 15.28 22.4796 15.3841C22.1751 15.6301 21.877 15.9128 21.608 16.2056C21.495 16.3291 21.771 16.2488 21.616 16.4021C21.3523 16.6637 21.0971 16.9145 20.8287 17.1719C20.7145 17.2813 20.6007 17.3898 20.4869 17.4972C19.8026 18.1434 19.0934 18.7748 18.3203 19.3556C18.238 19.4174 17.9865 19.2855 17.8663 19.471C17.9062 19.5359 17.9676 19.5985 18.0177 19.6607C16.4921 21.1663 14.8913 22.553 13.3218 24.0194C13.2554 24.0815 13.4645 24.073 13.3365 24.1934C12.5983 24.8883 11.9072 25.5925 11.0637 26.2053C10.9817 26.2648 10.852 26.0593 10.6564 26.2945C10.623 26.3353 10.313 26.6731 10.2628 26.7918C10.2566 26.8083 10.3931 26.8318 10.2895 26.9344C9.68452 27.5309 9.00971 28.1361 8.34907 28.6722C8.2397 28.7611 8.26667 28.5734 8.18855 28.6355C7.68218 29.0383 7.21082 29.5879 6.72349 29.957C6.71395 29.9641 6.70521 29.9704 6.69735 29.9757C6.69543 29.9773 6.69387 29.9785 6.69267 29.9794C6.69239 29.9795 6.69064 29.981 6.69032 29.9812C6.6902 29.9812 6.69013 29.9813 6.69004 29.9813C6.69004 29.9813 6.69001 29.9813 6.69006 29.9813C6.69014 29.9812 6.68987 29.9815 6.69043 29.9809C6.69069 29.9806 6.69033 29.981 6.69115 29.9802C6.69017 29.9812 6.69391 29.9774 6.69293 29.9784C4.05678 27.3321 5.86046 29.1427 5.44423 28.7249C5.44423 28.7249 5.44423 28.7249 5.44423 28.7249C5.44643 28.7227 5.43805 28.731 5.44025 28.7288C5.43923 28.7298 5.43929 28.7298 5.43913 28.7299C5.43901 28.73 5.43902 28.73 5.43898 28.7301C5.43894 28.7301 5.43893 28.7301 5.43893 28.7301C5.4389 28.7302 5.4389 28.7301 5.4389 28.7302C5.43889 28.7302 5.43889 28.7302 5.43889 28.7302C5.43889 28.7302 5.4389 28.7302 5.4389 28.7302C5.43891 28.7302 5.43894 28.7302 5.43897 28.7301C5.43904 28.7301 5.43914 28.73 5.43929 28.7299C5.44028 28.729 5.44006 28.7293 5.44048 28.729C5.44365 28.7265 5.44617 28.7247 5.44965 28.722C5.4553 28.7178 5.46175 28.7129 5.46768 28.7085C5.47993 28.6993 5.49169 28.6908 5.50443 28.6814C5.86942 28.4177 5.89657 28.6768 6.20445 28.6507C6.24804 28.6468 6.4461 28.4551 6.53816 28.527C6.77018 28.7072 6.90142 29.0274 7.15991 29.2083C7.20275 29.2386 7.33788 29.0593 7.37863 29.1C7.37864 29.1 7.37865 29.1 7.37866 29.1C7.39065 29.112 7.39446 29.1431 7.38531 29.2043C7.38216 29.2228 7.23089 29.45 7.22299 29.5354C7.21747 29.5946 7.3593 29.6195 7.32733 29.7201C7.29537 29.8207 7.15294 29.8234 7.08325 29.9738C7.0534 30.0391 7.06323 30.085 7.06744 30.1345C7.06908 30.1597 7.06967 30.1854 7.06288 30.2151C7.05937 30.23 7.05422 30.2458 7.04637 30.2631C7.0426 30.2716 7.03776 30.2808 7.03279 30.2899C7.02982 30.2949 7.0274 30.2993 7.02427 30.3043C7.0237 30.3053 7.02288 30.3066 7.02192 30.308C7.0215 30.3086 7.02115 30.3092 7.02089 30.3097C7.02072 30.31 7.0208 30.31 7.02019 30.3107C7.02001 30.311 7.01992 30.3111 7.01991 30.3112C7.01991 30.3112 7.01991 30.3112 7.0199 30.3112C7.0199 30.3112 7.0199 30.3112 7.01988 30.3112C7.01982 30.3113 7.02003 30.3111 7.01958 30.3115C7.01957 30.3116 7.01935 30.3118 7.01907 30.3121C7.01897 30.3122 7.01951 30.3116 7.01782 30.3133C7.02119 30.31 7.00839 30.3226 7.01176 30.3193C8.07132 31.3829 4.045 27.3411 5.10455 28.4047C5.11127 28.398 5.1078 28.4015 5.10869 28.4006C5.10884 28.4004 5.10885 28.4004 5.10888 28.4004C5.10893 28.4003 5.10893 28.4003 5.10894 28.4003C5.10898 28.4003 5.10897 28.4003 5.10897 28.4003C5.10898 28.4003 5.10898 28.4002 5.10899 28.4002C5.109 28.4002 5.109 28.4001 5.10901 28.4001C5.1109 28.3973 5.11156 28.3958 5.11407 28.3925C5.12119 28.3819 5.12954 28.3705 5.13953 28.358C5.15263 28.3416 5.1699 28.3219 5.18885 28.3017ZM10.4929 22.0604C10.3041 22.276 10.8413 22.4075 10.7543 22.1229C10.7494 22.1089 10.5022 22.0491 10.4929 22.0604ZM9.55687 17.9187C9.83017 17.652 9.57503 17.376 9.36931 17.5586C9.16373 17.7418 9.47393 18.0002 9.55687 17.9187ZM8.98143 21.1919C9.22469 20.8626 8.58396 20.6571 8.6277 21.0781C8.63001 21.1026 8.96727 21.2112 8.98143 21.1919ZM6.65711 29.2569C6.65336 29.2528 6.50336 29.3903 6.50623 29.3952C6.52219 29.562 6.81221 29.2964 6.65711 29.2569ZM8.40217 24.4398C8.51667 24.3459 8.49178 23.9951 8.34973 24.1108C8.2356 24.2037 8.25989 24.5565 8.40217 24.4398ZM8.91994 25.6048C8.92921 25.6023 8.95364 25.4586 8.90334 25.4555C8.74122 25.4481 8.76383 25.6524 8.91994 25.6048ZM9.53469 27.2207C8.93866 27.8 8.47116 28.0252 9.13873 27.4274C9.25852 27.3172 8.91482 27.7007 9.07366 27.5673C9.36499 27.3222 9.48175 27.0818 9.78891 26.8406C9.84463 26.797 9.56917 27.1881 9.53378 27.2219C9.53409 27.2215 9.53439 27.2211 9.53469 27.2207ZM9.8182 22.0847C9.81017 22.0884 9.76935 22.2794 9.77568 22.2851C9.9301 22.4198 10.0115 22.0348 9.8182 22.0847ZM9.96227 17.3712C9.97987 17.3578 10.0227 16.9052 10.0081 16.8914C9.7162 16.6362 9.6282 17.5519 9.96227 17.3712ZM11.5504 8.94367C11.4329 8.70566 11.4597 8.44784 11.6825 8.3127C11.6348 8.52214 11.5963 8.73356 11.5504 8.94367Z" fill="black"/>
<path d="M5.12809 39.776C5.13083 39.9176 5.06454 40.0542 5.003 40.1297C4.98375 40.1535 4.91305 40.1323 4.89668 40.1487C4.86494 40.1812 4.89896 40.2108 4.86498 40.2329C4.85338 40.2405 4.73831 40.2291 4.7288 40.2383C4.67764 40.2913 4.71263 40.3187 4.69062 40.3295C4.68048 40.3358 4.67023 40.3385 4.66003 40.3408C4.65967 40.3408 4.65932 40.3409 4.65897 40.3409C4.56052 40.3897 4.8662 40.4889 5.02959 40.4677C5.03031 40.4678 5.03103 40.4678 5.03175 40.4678C5.04099 40.468 5.05087 40.4679 5.06133 40.4675C5.13056 40.4681 5.31634 40.5285 5.40122 40.4036C5.41044 40.3893 5.33775 40.2867 5.33472 40.2762C5.28385 40.1179 5.40728 40.3416 5.45077 40.352C5.62212 40.3935 5.75344 40.2912 5.78955 40.167C5.80413 40.1144 5.58181 39.9835 5.71733 40.0421C5.72681 40.0456 5.82443 40.1437 5.84376 40.1423C5.88827 40.1386 5.90038 40.0767 5.91961 40.065C5.92197 40.0636 5.92418 40.0623 5.92626 40.061C5.92744 40.0603 5.92858 40.0596 5.92968 40.0589C5.95824 40.0411 5.96164 40.0327 5.97577 40.0051C5.99678 39.966 6.07687 39.942 6.0532 39.8879C6.0473 39.8773 5.90588 39.8482 5.88231 39.8314C5.85873 39.8152 5.86881 39.7942 5.90255 39.7881C5.93637 39.7824 6.05233 39.7998 6.07874 39.8008C6.30434 39.7992 5.98898 39.7203 5.979 39.721C5.85366 39.6345 5.93761 39.5188 5.93109 39.3616C5.93106 39.3607 5.93102 39.3598 5.93098 39.359C5.92978 39.3324 5.92565 39.3059 5.91704 39.2802C5.87276 39.1487 5.75795 39.0323 5.70823 38.9123C5.64967 38.7693 5.65563 38.6112 5.56071 38.4997C5.55101 38.4882 5.40974 38.6067 5.39828 38.594C5.33597 38.5254 5.28306 38.462 5.24804 38.3989C5.24796 38.3987 5.24788 38.3986 5.2478 38.3984C5.21596 38.3402 5.1972 38.2781 5.18285 38.1973C5.17939 38.1801 5.27868 38.0521 5.2783 38.0256C5.30061 37.8686 5.14422 37.4868 4.99376 38.1768C4.96605 38.144 4.93177 38.1126 4.87047 37.9774C4.83093 37.8961 4.83688 37.7346 4.80686 37.7825C4.80648 37.7831 4.8061 37.7837 4.80571 37.7844C4.80413 37.7871 4.80247 37.7904 4.80072 37.7943C4.79296 37.8124 4.83136 37.961 4.82034 37.9763C4.77839 38.04 4.70101 38.0117 4.67218 38.1091C4.66697 38.1291 4.72488 38.253 4.73192 38.2768C4.79449 38.4662 4.61161 38.1894 4.58528 38.1766C4.41629 38.0652 4.37915 38.1739 4.29616 38.2318C4.27637 38.2456 4.41092 38.373 4.39696 38.3908C4.32433 38.4803 4.22338 38.5503 4.07575 38.5847C4.04254 38.5922 3.94944 38.465 3.92758 38.4633C3.83063 38.4599 4.03599 38.6702 3.94939 38.6706C3.93134 38.6711 3.83737 38.5767 3.82497 38.5686C3.62907 38.4432 3.84982 38.6841 3.84955 38.6953C3.84661 38.8471 3.53515 38.6924 3.49567 38.8202C3.49156 38.8353 3.64402 38.9129 3.62471 38.9487C3.49708 39.1876 3.29628 39.3974 3.0324 39.5627C2.99159 39.5885 2.90223 39.4953 2.8877 39.4893C2.65885 39.3991 2.91735 39.5962 2.92025 39.6145C2.93069 39.7153 2.78844 39.7187 2.8101 39.8084C2.81181 39.8124 2.81401 39.8165 2.81677 39.821C2.83469 39.8497 2.87585 39.889 2.95541 39.9435C2.74727 40.117 2.86038 40.2597 2.83632 40.5619C2.83608 40.564 2.83584 40.5662 2.8356 40.5683C2.83041 40.6144 2.82431 40.6683 2.81839 40.7325C2.8183 40.7384 2.69443 40.8325 2.69545 40.8447C2.71278 40.9947 2.88105 40.8161 3.11158 40.6285C3.16444 40.5773 2.98283 40.8863 2.97576 40.913C2.93528 41.0021 2.78491 41.1774 2.77968 41.1965C2.75379 41.3561 3.16854 40.7183 3.20921 40.7431C3.21024 40.7452 3.13315 40.8621 3.13057 40.8767C3.12323 40.9231 3.16466 40.8826 3.15659 40.9328C3.13623 41.0479 3.00221 41.3935 3.15663 41.226C3.17513 41.2034 3.3298 40.8027 3.36998 40.8399C3.38654 40.8562 3.48045 40.8778 3.50192 40.9106C3.52315 40.9443 3.47314 41.0746 3.47343 41.0808C3.52016 41.2785 3.4731 41.3456 3.47836 41.6218C3.49322 41.8977 3.57652 41.2592 3.60468 41.1909C3.61144 41.1748 3.61897 41.1713 3.62691 41.176C3.6287 41.1771 3.63052 41.1785 3.63235 41.1804C3.65683 41.2051 3.68679 41.2958 3.69646 41.3341C3.70985 41.388 3.67899 41.4735 3.69315 41.5046C3.7938 41.7068 3.76399 41.1896 3.8024 41.0898C3.88193 40.8518 3.92824 41.3291 4.01267 41.3732C4.03389 41.385 4.01282 41.2771 4.03018 41.2662C4.09651 41.2241 4.15415 41.3689 4.21971 41.2239C4.23249 41.2001 4.25088 40.9084 4.32246 41.1098C4.33327 41.1388 4.33528 41.2591 4.37017 41.2802C4.42203 41.3122 4.51193 41.3208 4.55218 41.2705C4.58153 41.2334 4.49607 41.0522 4.55365 41.101C4.57967 41.1226 4.56995 41.2431 4.61781 41.2741C4.66591 41.3052 4.76305 41.273 4.79866 41.2576C4.83446 41.2424 4.77005 41.1066 4.77016 41.0961C4.77087 41.0359 4.81387 40.9463 4.81947 40.9445C5.09655 40.8312 5.47663 40.9277 5.71723 40.6938C5.73578 40.6758 5.64261 40.5481 5.64463 40.5439C5.68369 40.4448 5.83695 40.8394 5.9619 40.928C5.79113 40.6584 5.85168 40.6899 5.88541 40.6281C5.90142 40.5981 5.82284 40.5014 5.81851 40.4892C5.75537 40.3076 5.90849 40.4974 5.94206 40.5348C6.06448 40.6732 5.97461 40.4746 6.0573 40.5663C6.14027 40.6567 6.19884 40.8328 6.2489 40.7973C6.2 40.6927 5.9997 40.4671 6.00979 40.4024C6.0445 40.1617 6.42667 40.1727 6.55066 40.1056C6.67228 40.0415 6.69279 39.9971 6.78033 39.9789C6.93846 39.945 6.75631 39.8075 6.75678 39.6739C6.75681 39.6579 6.76139 39.6501 6.76963 39.649C6.77582 39.6485 6.78456 39.6524 6.79537 39.6598C6.88227 39.718 7.09977 39.9993 7.16747 40.0623C7.25494 40.1419 7.18567 40.0417 7.24103 40.0787C7.29696 40.1153 7.32277 40.1996 7.36951 40.1901C7.41839 40.1794 7.35221 39.9517 7.27055 39.8574C7.10052 39.656 6.87638 39.4951 6.99901 39.5016C7.00645 39.5018 7.10313 39.6116 7.12648 39.6071C7.31046 39.5661 7.40911 39.438 7.57051 39.3407C7.59328 39.3269 7.73418 39.42 7.74973 39.4118C7.91315 39.3186 7.63296 39.2449 7.35679 39.075C7.74703 39.2368 8.00904 39.2872 8.05008 39.1574C8.0722 39.0817 7.88674 39.0507 7.76613 38.9833C7.72943 38.9645 7.86416 38.9402 7.77808 38.9181C7.49564 38.8516 7.1727 38.8409 7.30632 38.784C7.31268 38.7809 7.46968 38.8057 7.48016 38.7935C7.50908 38.7594 7.47082 38.7336 7.4146 38.7135C7.40662 38.7108 7.39827 38.7082 7.3897 38.7056C7.31555 38.6833 7.22499 38.6683 7.20296 38.6361C7.17146 38.5933 7.33134 38.4515 7.33087 38.3601C7.79258 38.2089 7.64832 38.1393 7.32903 38.2465C7.31973 38.1908 7.27657 38.1477 7.28943 38.0779C7.29355 38.0538 7.42075 37.9931 7.43266 37.9834C7.61532 37.8245 7.32233 37.9708 7.30606 37.9692C7.13376 37.9318 7.24216 37.6802 6.97866 37.7611C6.96855 37.7636 6.7361 38.0072 6.87965 37.8054C6.88854 37.7906 7.02341 37.7054 6.98571 37.6561C6.96402 37.6279 6.96225 37.5436 6.9271 37.4914C6.92538 37.4888 6.92358 37.4863 6.9217 37.4839C6.89667 37.4516 6.85669 37.4368 6.79606 37.4706C6.75547 37.4896 6.583 37.7034 6.65011 37.4975C6.65873 37.4693 6.70897 37.3871 6.72621 37.3357C6.7776 37.1704 6.61561 37.4672 6.70907 37.1936C6.80311 36.92 6.79316 36.6833 6.61697 36.8315C6.61099 36.8356 6.50193 37.0776 6.47449 37.0642C6.42942 37.0423 6.37337 36.9704 6.31965 36.9604C6.29422 36.9556 6.27579 37.1167 6.27084 37.1186C6.09914 37.1719 6.01207 37.0149 5.82615 36.9532C5.78945 36.9423 5.70895 37.1511 5.63481 36.9929C5.5464 36.8228 5.55251 36.071 5.36315 36.2848C5.27571 36.3766 5.39101 37.2892 5.16158 36.8602C5.14883 36.8713 5.13591 36.8811 5.12278 36.8899C5.12063 36.8914 5.11847 36.8928 5.11631 36.8942C4.92756 37.0164 4.64404 36.936 4.52336 37.1888C4.51692 37.2013 4.62054 37.4249 4.59993 37.4342C4.56789 37.4485 4.4879 37.3655 4.46189 37.3747C4.35178 37.411 4.33379 37.5489 4.24711 37.6052C4.21421 37.6272 4.14676 37.5329 4.10683 37.5612C4.06652 37.5908 4.14887 37.7202 4.05215 37.7145C3.97931 37.7094 3.72123 37.538 3.64774 37.5689C3.86854 37.772 3.83262 37.8025 3.84083 37.9145C3.84251 37.9361 3.93229 37.9904 3.93722 38.004C3.95913 38.0604 3.8768 38.0252 3.90414 38.0831C3.91072 38.097 3.98915 38.1609 3.99906 38.1756C4.08668 38.3022 3.86336 38.2181 3.82334 38.2063C3.67419 38.1555 3.7641 38.2531 3.6939 38.2496C3.62391 38.2466 3.59883 38.1566 3.54333 38.1732C3.42712 38.21 3.37111 38.3236 3.31452 38.405C3.29243 38.4379 3.41694 38.4852 3.41633 38.4916C3.40194 38.5749 3.24169 38.5746 3.43997 38.744C2.84026 38.453 3.47071 38.8174 3.29944 38.8474C3.2857 38.8497 3.00911 38.7069 2.98675 38.6525C2.96464 38.5975 3.07472 38.6011 3.03822 38.5205C3.02951 38.5021 2.81085 38.2898 2.80037 38.2715C2.71872 38.1309 3.12621 38.3726 3.1501 38.3835C3.40986 38.4974 3.18312 38.2557 3.17653 38.2236C3.1453 38.0813 3.24951 38.0461 3.23825 37.9324C3.23168 37.858 2.97961 37.6631 3.01449 37.6296C3.13413 37.5139 3.51096 37.7634 3.30599 37.3936C3.26315 37.3141 2.97516 37.1037 3.26241 37.1951C3.28077 37.2001 3.52622 37.309 3.44264 37.159C3.43221 37.1399 3.35703 37.0671 3.3568 37.0543C3.35711 36.9692 3.44221 37.0003 3.46087 36.9235C3.47872 36.8475 3.49765 36.7441 3.57947 36.7176C3.62888 36.701 3.79944 36.8158 3.84574 36.8407C3.9771 36.9135 3.88993 36.6875 4.02062 36.8029C4.14936 36.9216 4.24975 37.1719 4.38199 37.2142C4.22474 36.9819 4.06777 36.7401 3.91358 36.5033C4.11173 36.368 4.3599 36.3271 4.5731 36.2169C4.59979 36.2028 4.51316 36.0716 4.54143 36.0523C4.63507 35.9897 4.74732 36.0116 4.84803 35.987C4.85132 35.9861 4.8546 35.9853 4.85787 35.9844C4.88487 35.9768 4.91126 35.9655 4.93706 35.9475C5.03245 35.8801 5.11904 35.6807 5.23724 35.6086C5.36547 35.9288 5.51606 35.782 5.65005 35.7981C5.69573 35.8038 5.69637 35.898 5.72822 35.9256C5.84626 36.0294 5.7882 35.722 5.82213 35.6699C5.97831 35.4483 5.96829 36.1606 6.11497 36.1486C6.11992 36.1482 6.26934 35.7692 6.29151 35.7465C6.4138 35.5973 6.289 35.8815 6.34404 35.9153C6.4449 35.9784 6.49268 36.0804 6.64493 35.9925C6.68718 35.966 6.85228 35.7479 6.86727 35.9523C6.86883 35.979 6.82195 36.1034 6.82676 36.1129C6.91233 36.2736 7.05987 35.8835 7.20027 35.7819C7.34364 35.6814 7.352 36.0033 7.33403 36.089C7.29638 36.3125 7.24547 36.15 7.23218 36.1681C7.08457 36.3805 7.18301 36.3759 7.23103 36.4249C7.04483 36.7963 7.12365 36.8111 7.28086 36.4744C7.29739 36.4372 7.23368 36.4474 7.23103 36.4249C7.47134 36.0888 7.62221 36.1101 7.50857 36.4943C7.46257 36.6421 7.34636 36.7667 7.39978 36.8173C7.40275 36.8202 7.40624 36.8228 7.4103 36.8252C7.42139 36.8318 7.43672 36.8367 7.45725 36.8401C7.53064 36.8527 7.68683 36.6097 7.78835 36.5907C8.02763 36.5541 7.99231 36.8934 8.11974 36.9785C8.16855 37.0119 8.25186 36.8669 8.29035 36.8877C8.39473 36.9459 8.35829 37.0935 8.46899 37.1486C8.47943 37.154 8.60162 37.0403 8.62355 37.0692C8.79253 37.2903 8.80897 37.5533 8.9004 37.8259C8.94609 37.9553 9.09773 38.1907 9.0984 38.356C9.10079 38.4641 9.06669 38.5867 9.02155 38.705C9.01874 38.7124 9.01588 38.7198 9.01299 38.7271C8.94258 38.8965 8.85253 39.0448 8.85912 39.1754C8.86376 39.3207 9.02849 39.3273 9.11812 39.419C9.28786 39.6097 8.833 39.7017 8.76974 39.6947C8.76835 39.6946 8.78041 39.5708 8.67784 39.5998C8.50313 39.5696 8.76997 39.6924 8.76974 39.6947C8.72809 39.7 8.58802 39.8902 8.58943 39.941C8.5912 39.97 8.73045 40.0303 8.72842 40.0446C8.6744 40.3861 8.47814 40.6571 8.22059 40.8078C8.21484 40.8092 8.10466 40.6904 8.09288 40.6949C7.96304 40.7407 7.97429 40.8751 7.97056 41.0183C7.9703 41.029 7.96997 41.0397 7.96951 41.0504C7.97165 41.0767 7.97305 41.1029 7.97255 41.1279C7.96909 41.2841 7.87781 41.3081 7.65591 41.1315C7.61772 41.2074 7.45377 41.1809 7.3583 41.1607C7.2631 41.1403 7.44651 41.3948 7.44564 41.4033C7.42224 41.6696 7.2285 41.5886 7.05902 41.6716C6.97788 41.711 6.85391 41.8471 6.78727 41.9286C6.73502 41.9937 6.65629 41.9557 6.61774 42.0332C6.61241 42.0436 6.69229 42.1583 6.69243 42.1644C6.70512 42.3504 6.56702 42.0363 6.52177 41.9923C6.35746 41.8317 6.27039 41.7461 6.232 41.8859C6.22408 41.9175 6.39427 42.3828 6.36481 42.4303C6.32771 42.4904 6.26755 42.3238 6.23109 42.39C6.22783 42.3955 6.27786 42.4918 6.24028 42.5051C6.06633 42.5681 5.85662 42.5929 5.67739 42.6738C5.65255 42.6845 5.74737 42.8321 5.7116 42.8505C5.54338 42.9367 5.33574 42.9979 5.12966 42.9692C5.0789 42.9616 5.07695 42.8378 5.05813 42.8058C4.94696 42.6119 4.93846 42.936 4.92345 42.9454C4.60226 43.1695 4.28684 42.9261 3.91205 43.0624C3.8955 43.0711 3.71076 43.4033 3.65039 43.1096C3.64468 43.09 3.59804 42.7915 3.51721 42.9859C3.51159 42.998 3.54352 43.154 3.46379 43.1302C3.44104 43.1232 3.4132 43.1252 3.38262 43.127C3.37881 43.1272 3.37496 43.1275 3.37107 43.1277C3.29323 43.1312 3.19849 43.1262 3.14037 42.9993C3.11025 42.9396 3.09827 42.6372 2.93313 42.8358C2.92995 42.8531 2.58636 43.3057 2.6385 42.9344C2.64752 42.8731 2.79167 42.5151 2.59574 42.6525C2.55655 42.6783 2.56995 42.7772 2.48205 42.7997C2.34334 42.8327 2.25575 42.6769 2.04135 42.7537C2.006 42.7693 1.76168 42.9321 1.79207 42.7108C1.79772 42.6767 1.8932 42.5844 1.86226 42.5458C1.71943 42.3643 1.47347 42.2687 1.37533 42.0236C1.34241 41.938 1.53113 41.834 1.52299 41.7354C1.51453 41.6402 1.472 41.4907 1.35628 41.4558C1.35155 41.4544 1.3467 41.4532 1.34171 41.4522C1.33743 41.4513 1.33304 41.4508 1.32852 41.4505C1.20003 41.4455 0.968455 41.678 0.879229 41.5729C0.467549 41.0855 0.499948 40.2757 0.668186 39.6446C0.692601 39.5489 0.553948 39.6031 0.58681 39.4564C0.640927 39.2209 0.732831 38.9205 0.875027 38.6723C0.878859 38.6655 0.88273 38.6588 0.886638 38.652C0.976306 38.4918 1.10114 38.3459 1.28769 38.3207C1.55981 38.2854 1.5746 38.5599 1.71848 38.4942C1.78685 38.4636 1.49091 38.1817 1.48959 38.1607C1.47016 37.9569 1.67981 37.9668 1.71963 37.817C1.72802 37.7858 1.57866 37.7136 1.5875 37.6878C1.61707 37.5981 1.73211 37.5655 1.77449 37.4883C1.79325 37.4533 1.69057 37.3818 1.72077 37.3586C1.79183 37.3025 1.88271 37.2732 2.0277 37.2822C2.04077 37.2832 2.12651 37.4235 2.17223 37.3777C2.24635 37.3028 2.4173 37.2829 2.4148 37.1103C2.41366 37.0589 2.20859 36.8582 2.4083 36.9362C2.4505 36.9522 2.67785 37.2113 2.53532 36.9329C2.50864 36.889 2.35755 36.4756 2.59846 36.6077C2.66164 36.6423 2.88873 36.8177 2.89618 36.753C2.89682 36.7432 2.77611 36.6434 2.79831 36.6047C2.87853 36.4704 3.01717 36.3831 3.13057 36.248C3.16149 36.2112 3.01487 36.117 3.06582 36.0654C3.20711 35.9221 3.46381 35.8249 3.68731 35.785C3.76942 35.7707 3.76799 35.9154 3.77928 35.9262C3.94962 36.1097 3.88593 35.796 3.91262 35.7667C4.07132 35.5938 4.27148 35.6954 4.45936 35.6239C4.46014 35.6237 4.46089 35.6233 4.46162 35.623C4.46328 35.6222 4.46482 35.6214 4.46625 35.6203C4.50756 35.5913 4.45156 35.4605 4.46033 35.4461C4.56418 35.2976 4.51076 35.5799 4.58827 35.6001C4.80308 35.6591 5.02929 35.6436 5.2458 35.6466C5.32553 35.6478 5.25572 35.4628 5.33027 35.4669C5.77783 35.4877 6.23201 35.6761 6.51313 35.9605C6.56598 36.0142 6.45503 36.1063 6.45144 36.1405C6.4171 36.3736 6.69315 36.2059 6.74007 36.206C6.93922 36.1943 6.90929 36.3271 7.0174 36.394C7.06883 36.4261 7.11889 36.4616 7.16718 36.4998C7.16767 36.5002 7.16816 36.5006 7.16864 36.501C7.61564 36.8558 7.82584 37.3508 7.95338 37.7164C8.07907 38.078 8.11502 38.3933 8.17144 38.7247C8.1717 38.7263 8.17196 38.7279 8.17222 38.7294C8.19777 38.8857 8.22674 39.0552 8.25769 39.2583C8.2635 39.2991 8.43412 39.2324 8.44127 39.2688C8.53119 39.7444 8.37918 40.3892 8.15452 40.916C8.13607 40.96 8.31246 40.9627 8.28568 41.038C8.23199 41.1912 8.11791 41.3537 7.99265 41.4429C7.99106 41.4441 7.98946 41.4452 7.98786 41.4463C7.98533 41.4482 7.9828 41.4496 7.98028 41.4508C7.92282 41.476 7.86816 41.3421 7.81337 41.3815C7.68056 41.4755 7.57509 41.581 7.49542 41.6995C7.46114 41.7503 7.64269 41.7896 7.58715 41.8489C7.21416 42.2452 6.78239 42.574 6.17733 42.6043C6.13489 42.6062 5.9879 42.3319 5.93878 42.4118C5.9636 42.4938 5.9993 42.5881 6.02891 42.6746C5.81589 42.761 5.5764 42.8179 5.31661 42.8336C5.31219 42.8339 5.30777 42.8341 5.30334 42.8344C4.63171 42.8652 4.03321 42.5796 3.54249 42.1821C3.51293 42.1577 3.48866 42.3175 3.42935 42.2687C3.14112 42.0282 2.84887 41.7338 2.71496 41.2993C2.71366 41.295 2.71238 41.2907 2.71112 41.2863C2.69099 41.2163 2.67744 41.1451 2.67107 41.074C2.66734 41.0237 2.89329 40.9683 2.82397 40.8597C2.80954 40.8402 2.73829 40.6678 2.68302 40.6294C2.67447 40.6239 2.57154 40.6754 2.55932 40.6152C2.49316 40.2635 2.54852 39.9579 2.65 39.728C2.6668 39.691 2.7756 39.7496 2.7885 39.724C2.87889 39.5461 2.83393 39.3448 2.97284 39.2193C3.06609 39.1368 3.25269 39.2217 3.45759 39.2183C3.48649 39.2178 3.50533 39.1605 3.61792 39.1855C3.90109 39.2481 4.20212 39.3529 4.50478 39.4162C4.5551 39.4269 4.53655 39.373 4.59215 39.3868C4.59216 39.3869 4.59217 39.3869 4.59218 39.3869C4.60856 39.391 4.63137 39.401 4.66428 39.4202C4.67389 39.4261 4.71184 39.4945 4.76151 39.5209C4.79581 39.5393 4.91374 39.5509 4.95592 39.5814C4.9981 39.6118 4.89758 39.6088 4.94528 39.6526C4.99383 39.6961 5.12635 39.7152 5.12809 39.776ZM6.93363 41.0647C6.79938 40.9761 7.11484 41.4284 7.08914 41.2842C7.08752 41.2767 6.94038 41.0689 6.93363 41.0647ZM4.53286 36.6799C4.70323 36.8443 4.61907 36.5184 4.48965 36.3879C4.35473 36.2618 4.47799 36.6324 4.53286 36.6799ZM3.94352 37.3004C4.12052 37.3697 3.67952 36.8292 3.69309 37.0098C3.69369 37.0202 3.93299 37.2968 3.94352 37.3004ZM3.45564 39.4691C3.4611 39.4695 3.47626 39.4272 3.47125 39.425C3.34975 39.3721 3.31921 39.4578 3.45564 39.4691ZM3.56176 37.983C3.64912 38.017 3.61245 37.8939 3.50421 37.8496C3.41658 37.8149 3.45242 37.9419 3.56176 37.983ZM4.02478 41.6409C4.02358 41.6328 3.99204 41.6264 3.99382 41.6726C3.99983 41.8215 4.045 41.7778 4.02478 41.6409ZM2.92356 39.0453C3.02725 38.8902 3.53707 39.0541 3.39332 39.1881C3.36733 39.2134 3.28326 39.0452 3.22082 39.0616C3.10652 39.0951 3.36933 39.2893 3.17674 39.2843C3.14168 39.2841 2.91675 39.0539 2.92307 39.0447C2.92323 39.0449 2.92339 39.0451 2.92356 39.0453ZM6.51826 40.5476C6.51312 40.5424 6.47464 40.5616 6.47801 40.568C6.56094 40.724 6.6401 40.6844 6.51826 40.5476ZM2.64815 40.7594C2.65668 40.7514 2.64212 40.7099 2.63017 40.6915C2.6287 40.6893 2.62723 40.6874 2.62579 40.686C2.62308 40.6832 2.6205 40.6819 2.61827 40.6827C2.53685 40.7153 2.48419 40.7512 2.45935 40.7841C2.45504 40.7897 2.45153 40.7951 2.44882 40.8003C2.41545 40.8679 2.5033 40.8941 2.64815 40.7594ZM7.34269 38.3547C7.15063 38.3839 7.12046 38.3692 7.32887 38.2468C7.33141 38.2845 7.34248 38.318 7.34269 38.3547Z" fill="black"/>
</svg>
