<svg width="14" height="46" viewBox="0 0 14 46" fill="none" xmlns="http://www.w3.org/2000/svg">
<path d="M2.92364 5.2176C2.78112 5.26023 2.66137 5.35773 2.59073 5.48866C2.52009 5.61958 2.50436 5.7732 2.54698 5.91572C2.58961 6.05825 2.68711 6.178 2.81804 6.24864C2.94896 6.31927 3.10258 6.33501 3.2451 6.29238C5.25058 5.60835 6.99809 4.69635 8.82192 3.841C9.61755 3.45958 10.4105 3.0769 11.2047 2.69882C11.2835 2.66135 11.363 2.62702 11.4429 2.59486C11.6352 2.51653 11.8239 2.44163 11.9954 2.37784C12.156 2.31503 12.3538 2.26296 12.3264 2.27842C12.319 2.28916 12.1367 2.2704 12.0473 2.17567C13.174 3.69907 11.9776 6.88128 11.3216 9.33223C10.5504 11.9244 9.72675 14.5375 9.08717 17.2174C9.05502 17.3516 9.02317 17.4862 8.99164 17.6213C8.09441 21.4539 7.47856 25.3615 7.09195 29.2569C7.06533 29.5036 7.03944 29.7801 7.01558 29.9638C7.0185 29.9614 7.00811 29.9776 7.04427 29.8772C7.07398 29.8292 7.05548 29.7601 7.29444 29.5303C7.38553 29.441 7.68092 29.2745 7.97705 29.303C8.2887 29.3354 8.3804 29.4246 8.46786 29.4792C8.6347 29.6109 8.63343 29.6427 8.66171 29.676C8.68298 29.7079 8.68662 29.7172 8.68955 29.7231C8.69436 29.7344 8.68746 29.7234 8.68037 29.7091C8.64795 29.6437 8.59975 29.5162 8.55769 29.3971C8.47037 29.1487 8.386 28.883 8.30144 28.6128C8.13354 28.0746 7.96704 27.5212 7.80297 26.9695C7.47465 25.8622 7.15507 24.7489 6.87542 23.622C6.84428 23.4965 6.81291 23.3707 6.78129 23.2445C5.3774 17.742 4.074 12.2979 2.32634 6.83125C2.21909 6.52898 2.1247 6.24492 1.96109 5.89973C1.91731 5.81302 1.89736 5.76451 1.8211 5.64105C1.81781 5.6364 1.78828 5.58765 1.73875 5.5316C1.71057 5.50118 1.67757 5.46191 1.59189 5.40346C1.57001 5.38896 1.54415 5.37336 1.512 5.35744C1.49592 5.34949 1.47825 5.34148 1.45864 5.33368C1.41881 5.31779 1.36307 5.30003 1.29792 5.29045C1.16969 5.26834 0.974664 5.29119 0.825096 5.38376C0.673688 5.47414 0.590483 5.59732 0.548059 5.68356C0.416556 6.02191 0.48876 6.05451 0.474547 6.06652C0.476068 6.08841 0.478074 6.10612 0.480147 6.12188C0.484338 6.1532 0.488836 6.17705 0.493397 6.19941C0.510555 6.27915 0.517443 6.30153 0.53211 6.35515C0.575152 6.50823 0.623494 6.65619 0.666131 6.78758C0.756563 7.06372 0.848635 7.33345 0.939487 7.59922C1.12315 8.1352 1.3082 8.66869 1.49215 9.20023C1.861 10.2649 2.22797 11.3261 2.59946 12.391C3.33956 14.5121 4.0928 16.6323 4.90874 18.7257C4.93023 18.7808 4.95181 18.836 4.97349 18.8911C5.85374 21.0838 5.9649 23.5901 6.10675 26.2465C6.11603 26.3787 6.12659 26.5121 6.13888 26.6446C6.15007 26.7558 6.15018 26.7931 6.18499 26.9641C6.19565 27.0075 6.19658 27.0201 6.22637 27.1067C6.24413 27.1547 6.26644 27.2111 6.31519 27.288C6.33996 27.3265 6.37195 27.3705 6.4193 27.4191C6.44502 27.4449 6.46393 27.4635 6.50953 27.4986C6.57117 27.5454 6.65261 27.5924 6.75126 27.6231C7.19729 27.7748 7.57207 27.4167 7.5717 27.3991C7.62777 27.3373 7.65863 27.2882 7.683 27.2465C7.73095 27.162 7.74897 27.108 7.75933 27.0807C7.84769 26.8102 7.85159 26.7047 7.88085 26.5293C7.92352 26.2263 7.94693 25.9485 7.96729 25.6546C8.00489 25.0871 8.01874 24.5215 8.01913 23.9582C8.0189 22.8283 7.96313 21.7126 7.86209 20.5971C7.65685 18.367 7.27565 16.1521 6.64424 13.9928C6.59624 13.8294 6.55174 13.6678 6.51004 13.5044C6.08085 11.8645 6.06634 10.1686 6.64447 8.64116C6.67735 8.55156 6.71555 8.46143 6.75783 8.37238C6.86246 8.15222 7.00889 7.9422 7.16319 7.77691C7.23859 7.69596 7.32233 7.62286 7.3724 7.59644C7.39254 7.5841 7.41733 7.58724 7.34331 7.62268C7.30593 7.63743 7.22614 7.66853 7.08482 7.64926C6.94288 7.63331 6.78496 7.52832 6.72448 7.44889L6.55911 6.94709C6.5471 7.0712 6.53742 7.19463 6.53126 7.31746C6.4287 9.37791 6.31549 11.4341 6.21315 13.5052C6.15951 14.663 6.09844 15.8176 6.10561 17.0082C6.1059 17.0336 6.10618 17.0588 6.10646 17.0838C6.1157 17.9065 6.31247 18.7282 6.41547 19.5513C6.42581 19.6328 6.47153 19.7109 6.5366 19.7685C6.60203 19.8261 6.68146 19.8584 6.7634 19.8584C6.84534 19.8584 6.92478 19.8261 6.9902 19.7685C7.05527 19.7109 7.10099 19.6328 7.11133 19.5513C7.21433 18.7282 7.4111 17.9065 7.42034 17.0838C7.42062 17.0588 7.4209 17.0336 7.42119 17.0082C7.43933 15.8928 7.52886 14.7373 7.61006 13.5899C7.76151 11.5299 7.91791 9.46509 8.02108 7.39229C8.02729 7.2687 8.02988 7.14412 8.03001 7.01865L8.03018 6.70058L7.86464 6.51685C7.75838 6.38043 7.53628 6.23477 7.32295 6.20772C7.11049 6.17663 6.95642 6.22221 6.85252 6.26099C6.64172 6.34708 6.54863 6.43578 6.45839 6.5159C6.28808 6.67779 6.18577 6.8255 6.08813 6.97527C5.89893 7.27338 5.76085 7.56942 5.63203 7.87655C5.58054 8.00048 5.53405 8.12737 5.4935 8.2586C4.91261 10.0615 5.07281 12.018 5.53144 13.754C5.57608 13.929 5.62304 14.1013 5.67308 14.2752C6.26787 16.3497 6.55564 18.5146 6.64773 20.6781C6.6925 21.7603 6.68757 22.841 6.63029 23.9216C6.60128 24.4595 6.55926 24.9981 6.49755 25.5196C6.46566 25.7877 6.42999 26.0426 6.38405 26.2811C6.36216 26.4003 6.32507 26.5418 6.32012 26.5409C6.32198 26.5365 6.32229 26.5264 6.35244 26.472C6.36809 26.4453 6.39036 26.4083 6.43801 26.3557C6.43073 26.3474 6.78031 26.0069 7.21155 26.1514C7.30605 26.1808 7.3834 26.2257 7.44102 26.2694C7.48362 26.3022 7.50095 26.3193 7.5244 26.3428C7.56748 26.3871 7.59528 26.4256 7.61593 26.4576C7.65644 26.5217 7.67082 26.561 7.68098 26.5877C7.6966 26.6326 7.6944 26.6297 7.69699 26.6375C7.69912 26.6413 7.69383 26.5956 7.69144 26.535C7.68594 26.4155 7.68175 26.293 7.67857 26.1698C7.645 23.6656 7.89343 20.8443 6.84716 18.1605C6.8258 18.1053 6.80438 18.0501 6.78291 17.9951C5.96784 15.9039 5.09436 13.8334 4.2269 11.7665C3.79178 10.7289 3.3593 9.69566 2.93833 8.65733C2.72841 8.13921 2.52053 7.61808 2.32083 7.09811C2.22214 6.84088 2.12337 6.57883 2.03167 6.32188C1.9889 6.20219 1.93953 6.0592 1.90883 5.95823C1.89972 5.92818 1.89405 5.90647 1.89369 5.90611C1.89395 5.90793 1.89528 5.91405 1.89746 5.93049C1.89853 5.93881 1.89982 5.94979 1.90092 5.96567C1.88649 5.9773 1.95737 5.98393 1.83003 6.31646C1.78856 6.40077 1.70653 6.52257 1.55652 6.61211C1.40834 6.70385 1.21493 6.72643 1.08855 6.70459C1.02431 6.69514 0.969603 6.67768 0.93073 6.66217C0.91158 6.65455 0.894384 6.64675 0.878788 6.63905C0.84761 6.6236 0.822772 6.60859 0.80195 6.5948C0.720525 6.53917 0.69251 6.50452 0.670042 6.48054C0.629884 6.4341 0.623821 6.41985 0.623213 6.41972C0.617467 6.40821 0.654932 6.47425 0.684988 6.53461C0.783606 6.73114 0.890691 7.02244 0.986422 7.29674C2.68285 12.6018 3.99834 18.1139 5.38427 23.5934C5.41536 23.7183 5.4462 23.8431 5.47685 23.9676C5.75219 25.0858 5.96135 26.2191 6.17184 27.3608C6.27727 27.9307 6.38263 28.504 6.50463 29.0811C6.56693 29.3726 6.63065 29.6588 6.7147 29.9672C6.75782 30.1216 6.80051 30.2751 6.87947 30.4748C6.90042 30.5261 6.92312 30.5804 6.96281 30.6564C6.98167 30.6917 7.00307 30.732 7.04676 30.7964C7.09604 30.8592 7.11397 30.917 7.31262 31.0727C7.41437 31.1373 7.51871 31.2341 7.85063 31.2684C8.16499 31.2985 8.47829 31.1228 8.58039 31.0236C8.71151 30.9105 8.78188 30.7954 8.81965 30.7274C8.8489 30.6742 8.86914 30.6281 8.88539 30.5867C8.95174 30.4016 8.94849 30.3746 8.96697 30.2841C9.02027 29.9697 9.04463 29.7295 9.07354 29.4679C9.45741 25.6044 10.0147 21.8065 10.8355 18.0369C10.8641 17.905 10.8931 17.7734 10.9224 17.6423C11.5045 15.0212 12.2317 12.4214 12.9139 9.77041C13.2492 8.44516 13.5815 7.10652 13.7888 5.70615C13.9187 4.34243 14.3205 2.66976 12.9673 1.20827C12.7488 0.985468 12.3743 0.928415 12.1909 0.960027C11.7771 1.02563 11.6266 1.1597 11.4404 1.26453C11.2657 1.37393 11.1126 1.47891 10.955 1.56627C10.879 1.60801 10.8018 1.64822 10.7226 1.68587C9.92452 2.0658 9.13099 2.44877 8.33694 2.82942C6.53958 3.67598 4.70704 4.61162 2.92364 5.2176Z" fill="black"/>
<path d="M6.07935 41.1656C6.07935 41.347 6.15139 41.5209 6.27964 41.6491C6.40788 41.7774 6.58181 41.8494 6.76318 41.8494C6.94454 41.8494 7.11847 41.7774 7.24672 41.6491C7.37496 41.5209 7.44701 41.347 7.44701 41.1656C7.44586 41.1532 7.45081 41.0471 7.44392 41.1512C7.44148 41.169 7.44085 41.1894 7.42503 41.2512C7.42289 41.2591 7.42038 41.2679 7.41726 41.2779C7.39942 41.3157 7.40037 41.3932 7.2445 41.5605C7.16646 41.6406 6.99546 41.7531 6.78179 41.7565C6.56849 41.762 6.40763 41.666 6.32884 41.5994C6.17293 41.461 6.15876 41.3776 6.15788 41.3869C6.13248 41.3368 6.124 41.3101 6.11678 41.2892C6.093 41.2112 6.09851 41.2187 6.0956 41.2083C6.09297 41.1943 6.09316 41.1943 6.09301 41.1936C6.09304 41.1937 6.09373 41.1986 6.09457 41.2048C6.09609 41.216 6.09799 41.2306 6.09997 41.2457C6.10763 41.3045 6.11613 41.3679 6.12491 41.4295C6.1425 41.5531 6.16179 41.6762 6.18254 41.7989C6.224 42.0439 6.27072 42.2853 6.32191 42.5264C6.33617 42.5935 6.35509 42.6595 6.37888 42.7246C6.41372 42.8199 6.45654 42.913 6.50715 43.0018C6.86528 43.6519 7.7163 44.0871 8.53301 43.7521C8.60336 43.7229 8.66806 43.69 8.727 43.6554C9.68034 42.9969 9.92357 42.3289 10.2544 41.5794C10.2695 41.5404 10.2839 41.5018 10.2983 41.4621C10.556 40.7771 10.7116 39.8298 10.3587 38.963C10.3426 38.9222 10.3255 38.8818 10.3077 38.8421C9.9579 38.1468 9.51933 37.4524 8.35777 37.1711C8.29817 37.1604 8.23788 37.1523 8.17674 37.1469C6.78223 37.1034 6.23614 38.0385 5.88724 38.5596C5.87334 38.5825 5.85958 38.6054 5.84596 38.6284C4.98362 40.1208 4.64387 41.8312 5.12045 43.5948C5.13036 43.6288 5.14127 43.6624 5.15311 43.6954C5.4597 44.4835 6.06951 44.7331 6.46747 44.877C6.89314 45.0175 7.26985 45.0623 7.63886 45.105C7.65974 45.1073 7.6806 45.1095 7.70145 45.1116C9.80798 45.263 11.3102 43.9695 12.3807 42.7422C12.3898 42.7313 12.3988 42.7204 12.4078 42.7094C13.025 41.9807 13.2841 40.9969 13.3359 40.2595C13.3365 40.2511 13.3371 40.2427 13.3376 40.2343C13.376 39.4957 13.3709 38.5453 12.5708 37.6862C12.5671 37.6825 12.5635 37.6788 12.5599 37.6751C10.5238 36.0427 8.88602 36.7633 7.50087 36.9599C7.49593 36.961 7.491 36.9621 7.48608 36.9632C6.00617 37.3775 5.54809 38.3691 5.12547 39.0142C5.12376 39.017 5.12206 39.0198 5.12036 39.0226C4.87289 39.5097 4.7402 40.2996 5.18019 41.2112C5.21097 41.2634 5.24392 41.3129 5.27846 41.3603C5.27949 41.3617 5.28053 41.3632 5.28157 41.3646C5.63673 41.7984 5.9697 41.8684 6.25611 41.981C6.54633 42.0783 6.81689 42.1434 7.07717 42.209C7.23193 42.2477 7.39573 42.2233 7.53253 42.1413C7.66933 42.0592 7.76792 41.9261 7.80661 41.7714C7.8453 41.6166 7.82093 41.4528 7.73885 41.316C7.65677 41.1792 7.52371 41.0806 7.36894 41.0419C7.10978 40.977 6.85932 40.9148 6.64176 40.8414C6.42943 40.7777 6.23014 40.6494 6.25188 40.6534C6.25193 40.6534 6.25197 40.6535 6.25202 40.6536C6.25318 40.655 6.25656 40.6565 6.26157 40.6583C6.32204 40.7029 6.79926 40.6111 7.03108 40.3918C7.0324 40.3904 7.03372 40.389 7.03505 40.3875C7.48563 39.8334 8.00471 39.4868 8.03938 39.54C8.03951 39.54 8.03963 39.54 8.03975 39.54C9.17577 39.277 10.5715 39.3903 10.6214 39.5993C10.6217 39.5996 10.622 39.5999 10.6222 39.6001C10.6325 39.5781 10.8739 39.8432 10.9177 40.2377C10.9183 40.242 10.9189 40.2463 10.9195 40.2505C10.9792 40.7878 11.0039 41.1515 10.7987 41.4342C10.7956 41.4384 10.7925 41.4427 10.7893 41.4469C10.0022 42.4766 8.85908 43.3174 7.89046 43.2034C7.88042 43.2024 7.87039 43.2013 7.86037 43.2C7.61157 43.1695 7.37134 43.0915 7.21697 43.0024C7.04725 42.9184 7.07136 42.806 7.16584 42.992C7.16857 42.999 7.17111 43.0061 7.17343 43.0133C6.93379 42.0285 7.1719 40.733 7.77609 39.814C7.78548 39.7995 7.79501 39.785 7.80467 39.7706C7.90238 39.6243 8.01588 39.5142 8.07717 39.4804C8.14775 39.4404 8.08926 39.5097 7.97024 39.4983C7.9602 39.4974 7.95058 39.4961 7.94165 39.4944C7.80834 39.4286 8.12178 39.6052 8.21259 39.8244C8.21886 39.8361 8.22497 39.8478 8.2309 39.8594C8.35483 40.0947 8.43978 40.4117 8.33908 40.854C8.33358 40.8781 8.32778 40.902 8.3214 40.9265C8.2122 41.3968 7.85678 41.9823 7.73376 42.0972C7.73164 42.1015 7.73298 42.1045 7.73881 42.1064C7.8411 42.1301 7.73745 42.2968 7.67649 42.2657C7.66992 42.2637 7.66523 42.26 7.66327 42.2547C7.66193 42.251 7.66074 42.247 7.65972 42.2422C7.61204 42.0177 7.56886 41.7943 7.53106 41.5709C7.51213 41.459 7.49471 41.3478 7.47894 41.2369C7.47101 41.1812 7.4636 41.126 7.45608 41.0683C7.45408 41.0531 7.45213 41.0381 7.44985 41.0211C7.44842 41.0107 7.44754 41.004 7.44507 40.9876C7.44391 40.9803 7.44283 40.9722 7.43883 40.951C7.43537 40.9378 7.44 40.9407 7.41511 40.8593C7.40764 40.8376 7.39892 40.8103 7.37329 40.7598C7.37245 40.7692 7.35789 40.685 7.20177 40.5465C7.12286 40.4798 6.96189 40.3838 6.74848 40.3892C6.53469 40.3926 6.36358 40.5052 6.28543 40.5854C6.12935 40.7529 6.13008 40.8309 6.11209 40.8692C6.10894 40.8793 6.10639 40.8882 6.10421 40.8963C6.08809 40.9591 6.0872 40.9812 6.08451 41.0012C6.07431 41.166 6.08084 41.1172 6.07935 41.1656Z" fill="black"/>
<path d="M13.7557 7.86767C13.7062 7.72057 13.6002 7.59917 13.4612 7.53018C13.3222 7.46119 13.1614 7.45026 13.0143 7.4998C12.8672 7.54933 12.7458 7.65527 12.6768 7.79431C12.6078 7.93336 12.5969 8.09411 12.6464 8.24121C12.6161 8.12897 12.6346 8.18123 12.6315 8.20263C12.632 8.22892 12.6314 8.26479 12.6297 8.30544C12.6266 8.37714 12.6199 8.46502 12.6118 8.55094C12.5956 8.72132 12.5736 8.89874 12.5487 9.0791C11.6955 14.3417 10.1789 19.5668 8.60789 24.7256C8.60209 24.7444 8.5964 24.7632 8.59082 24.7821L8.58126 24.8167C8.30603 26.064 8.55413 27.4114 8.64163 28.6436C8.64538 28.6777 8.64941 28.7117 8.65403 28.7457C8.65732 28.7699 8.66131 28.7951 8.6657 28.818C8.67351 28.8575 8.68185 28.8961 8.6994 28.9336C8.70619 28.9798 8.79139 28.9897 8.80907 28.9475C8.86019 28.8825 8.88793 28.8088 8.91825 28.736C8.97615 28.5901 9.02452 28.4414 9.07421 28.2931C9.07527 28.2899 9.07502 28.2864 9.07352 28.2834C9.07201 28.2804 9.06937 28.2781 9.06618 28.2771C9.06299 28.276 9.0595 28.2762 9.05649 28.2777C9.05348 28.2793 9.05119 28.2819 9.05013 28.2851C9.00046 28.4333 8.95209 28.5819 8.89468 28.7266C8.86507 28.7983 8.83589 28.8727 8.78978 28.931C8.73375 29.0102 8.70303 28.8774 8.69064 28.8133C8.68635 28.7908 8.68242 28.7661 8.67918 28.7423C8.67462 28.7088 8.67142 28.6751 8.66923 28.6412C8.64281 27.3791 9.42772 26.2654 9.71783 25.0933L9.70827 25.1279C9.71436 25.109 9.72033 25.0902 9.72616 25.0713C11.3076 19.8703 12.8257 14.6744 13.7082 9.2392C13.7346 9.04732 13.7585 8.85691 13.7771 8.66102C13.7865 8.56175 13.7947 8.45689 13.7991 8.35561C13.7947 8.21553 13.8362 8.20713 13.7557 7.86767Z" fill="black"/>
</svg>
