<svg width="22" height="48" viewBox="0 0 22 48" fill="none" xmlns="http://www.w3.org/2000/svg">
<path d="M13.1494 42.4994C13.2402 42.6169 13.3311 42.8193 13.4036 42.9872C13.4262 43.0398 13.3615 43.0536 13.3756 43.0919C13.4043 43.1673 13.4728 43.2048 13.5015 43.2813C13.511 43.307 13.4178 43.3444 13.4297 43.3703C13.4967 43.5122 13.6136 43.6007 13.7093 43.7207C13.9398 44.0095 14.2177 44.2617 14.4891 44.4169C14.4891 44.4169 14.4892 44.417 14.4892 44.417C14.6738 44.5466 14.9644 44.3332 14.9049 44.3229C14.9033 44.3231 14.902 44.3253 14.9018 44.3289C14.9018 44.329 14.9017 44.3291 14.9017 44.3293C14.8902 44.3976 15.0363 44.2318 14.9648 44.0727C14.9564 44.0523 14.8432 44.0709 14.8333 44.0676C14.6806 44.0249 14.9147 44.0249 14.9385 43.9794C15.0123 43.8375 14.9865 43.6621 14.9092 43.5429C14.9087 43.5421 14.9083 43.5413 14.9078 43.5406C14.8884 43.5105 14.8653 43.4827 14.8397 43.4578C14.7847 43.406 14.6274 43.5919 14.6994 43.4633C14.7038 43.454 14.8173 43.4002 14.8166 43.3755C14.815 43.3188 14.7393 43.2575 14.7211 43.2218C14.686 43.1516 14.6757 43.1426 14.6243 43.0889C14.5553 43.0158 14.4969 42.8853 14.3858 42.8396C14.3623 42.8305 14.3149 42.952 14.2724 42.9481C14.2305 42.9439 14.1556 42.882 14.1418 42.8395C14.1282 42.7967 14.1897 42.7182 14.1958 42.6954C14.2437 42.5006 14.0084 42.6771 13.9961 42.6791C13.9704 42.6775 13.9459 42.6747 13.9229 42.671C13.9222 42.6709 13.9215 42.6708 13.9209 42.6707C13.6923 42.6346 13.5677 42.4766 13.423 42.4892C13.3605 42.4958 13.3075 42.5271 13.2567 42.5701C13.2565 42.5702 13.2563 42.5704 13.2562 42.5705C13.2161 42.6048 13.1748 42.6471 13.1287 42.6887C13.0069 42.7983 12.8532 42.9214 12.7824 43.1232C12.7751 43.1442 12.9152 43.1726 12.9072 43.1969C12.8911 43.2464 12.8759 43.2968 12.8612 43.3476C12.8609 43.3485 12.8607 43.3493 12.8604 43.3502C12.7964 43.5725 12.7397 43.7927 12.6666 44.0379C12.6576 44.0689 12.5345 44.0314 12.5182 44.0637C12.4144 44.2515 12.2427 44.663 12.7876 44.6407C12.7981 44.7697 12.8263 44.9221 12.7744 45.0739C12.7418 45.1725 12.5905 45.1547 12.6822 45.2232C12.7028 45.2382 12.7957 45.1641 12.8183 45.1893C12.9124 45.2937 12.9515 45.4418 13.0729 45.5192C13.0977 45.5346 13.1791 45.4712 13.1985 45.4669C13.2272 45.4607 13.2455 45.4626 13.2563 45.4703C13.2577 45.4712 13.2589 45.4722 13.26 45.4734C13.2521 45.4462 13.1378 45.561 13.1366 45.5785C13.0934 45.7192 13.2354 45.7284 13.3641 45.754C13.3962 45.7609 13.3833 45.6191 13.413 45.6203C13.5654 45.6276 13.7503 45.6432 13.9412 45.688C13.9839 45.6981 13.9558 45.8172 13.9774 45.8279C14.0178 45.8468 14.0415 45.8187 14.0606 45.7827C14.0609 45.7818 14.0613 45.7809 14.0617 45.7801C14.0826 45.7307 14.0937 45.6684 14.137 45.6877C14.1532 45.6944 14.1647 45.7936 14.1695 45.8038C14.2519 45.9622 14.2377 45.7143 14.2445 45.7068C14.3546 45.5988 14.5416 45.7959 14.674 45.6846C14.6883 45.6714 14.5916 45.5803 14.634 45.5505C14.914 45.3513 15.2199 45.1152 15.5515 44.8891C15.6026 44.8541 15.649 44.9515 15.6604 44.9567C15.8454 45.0329 15.6792 44.8342 15.6837 44.8133C15.7274 44.649 15.9898 44.6581 15.8026 44.3884C16.1767 44.002 16.3485 43.4777 16.6618 43.0312C16.6633 43.0294 16.6648 43.0276 16.6663 43.0258C16.7227 42.9596 16.7782 42.8964 16.837 42.812C16.8405 42.806 16.9754 42.822 16.9819 42.8084C17.0531 42.6359 16.8339 42.6683 16.569 42.678C16.5055 42.691 16.7744 42.5234 16.7885 42.5C16.8536 42.4401 17.0495 42.3781 17.0602 42.3624C17.1297 42.2138 16.5463 42.5512 16.509 42.4997C16.5084 42.4969 16.6164 42.4341 16.6224 42.4212C16.6402 42.3796 16.5864 42.3911 16.6046 42.3463C16.6484 42.2454 16.8635 41.9893 16.6515 42.0548C16.6254 42.0656 16.3793 42.3597 16.3328 42.3C16.3143 42.2734 16.1934 42.2036 16.1685 42.165C16.1629 42.1555 16.1631 42.1427 16.1666 42.1286C16.1738 42.1009 16.1939 42.0681 16.209 42.0458C16.2187 42.0315 16.2261 42.0216 16.226 42.0197C16.2257 42.0178 16.2254 42.016 16.2251 42.0141C16.224 42.0061 16.2229 41.9982 16.2219 41.9906C16.1922 41.8129 16.2587 41.7625 16.2764 41.5182C16.2817 41.2589 16.1065 41.8167 16.0618 41.8702C16.0182 41.9235 15.9649 41.7668 15.948 41.7146C15.9335 41.6624 15.9833 41.5918 15.9658 41.5602C15.8376 41.3542 15.8429 41.832 15.7825 41.9156C15.6568 42.1195 15.6216 41.6814 15.5025 41.6376C15.4728 41.6262 15.4972 41.7253 15.4719 41.7349C15.376 41.7726 15.2999 41.6415 15.2022 41.7815C15.1828 41.8046 15.1504 42.0769 15.0565 41.9012C15.0421 41.876 15.0416 41.7639 14.9936 41.7503C14.9218 41.7293 14.7972 41.742 14.7432 41.8018C14.7042 41.8455 14.8223 41.993 14.7448 41.9634C14.7095 41.9507 14.7196 41.8326 14.6544 41.818C14.5883 41.8028 14.46 41.8699 14.4149 41.9005C14.3694 41.9303 14.4634 42.035 14.464 42.0453C14.4652 42.061 14.4626 42.0801 14.4582 42.0997C14.4568 42.1059 14.4553 42.1122 14.4536 42.1184C14.4409 42.1655 14.4223 42.2107 14.4178 42.2136C14.0932 42.4492 13.626 42.6187 13.4248 43.0445C13.4094 43.0774 13.5444 43.1413 13.5433 43.1471C13.5282 43.2807 13.256 42.9818 13.0971 42.9839C13.3546 43.1377 13.2806 43.1508 13.2627 43.2425C13.2545 43.2866 13.3656 43.3279 13.3737 43.3375C13.4935 43.4805 13.2775 43.3987 13.2311 43.3855C13.0617 43.3349 13.216 43.4752 13.1024 43.4432C12.9885 43.4134 12.8729 43.272 12.8322 43.3507C12.9159 43.4229 13.1928 43.503 13.2038 43.5795C13.2198 43.6854 13.1797 43.789 13.121 43.8882C13.1187 43.8921 13.1164 43.896 13.114 43.8998C13.0126 44.0637 12.8686 44.2215 12.8336 44.3218C12.7781 44.4824 12.8008 44.5305 12.7644 44.6171C12.7107 44.7773 12.9207 44.6929 13.0265 44.7024C13.1298 44.6908 12.6543 44.9223 12.5582 44.9848C12.4681 45.0577 12.5809 45.0186 12.5415 45.0726C12.5049 45.1305 12.4044 45.1202 12.4252 45.1925C12.4267 45.1975 12.4296 45.2025 12.4336 45.2072C12.4366 45.2107 12.4402 45.2141 12.4444 45.2174C12.5187 45.2802 12.7378 45.2481 12.8121 45.1714C12.9971 44.9945 13.1206 44.7582 13.1317 44.8783C13.1335 44.886 13.0424 44.9937 13.0541 45.0177C13.1602 45.211 13.4077 45.293 13.6264 45.4284C13.6573 45.4476 13.5997 45.5954 13.618 45.6084C13.6863 45.6561 13.7275 45.6518 13.7573 45.6153C13.7622 45.6093 13.7668 45.6023 13.7713 45.5945C13.8152 45.5161 13.8412 45.3569 13.9221 45.193C13.8518 45.5755 13.8842 45.8232 14.0614 45.8371C14.1665 45.8437 14.1539 45.6716 14.2145 45.5509C14.2313 45.5146 14.3027 45.6301 14.311 45.5484C14.3325 45.2813 14.2607 44.9931 14.3926 45.0945C14.399 45.0992 14.3987 45.2463 14.4201 45.2521C14.5641 45.2868 14.5242 45.0084 14.6222 44.9373C14.6958 44.8832 14.9281 44.96 15.056 44.9079C15.2993 45.3012 15.3727 45.1247 15.2165 44.8388C15.2206 44.8365 15.2247 44.8341 15.2288 44.8316C15.2316 44.8299 15.2344 44.8282 15.2372 44.8264C15.3049 44.7825 15.3625 44.7173 15.4483 44.6924C15.481 44.6826 15.5582 44.7956 15.5709 44.8038C15.7736 44.9286 15.5883 44.6706 15.5926 44.6486C15.6591 44.4115 15.9608 44.4295 15.91 44.1134C15.9083 44.1018 15.6558 43.8889 15.879 43.9936C15.8947 44.0005 15.9706 44.149 16.0406 44.0762C16.1092 44.0052 16.3686 43.9495 16.3175 43.7448C16.3061 43.6947 16.1217 43.4795 16.3362 43.5346C16.3654 43.5421 16.4418 43.601 16.4942 43.6176C16.6625 43.6685 16.3842 43.4746 16.6576 43.577C16.9305 43.68 17.1812 43.6805 17.0766 43.45C17.0739 43.4427 16.8508 43.2879 16.8745 43.2494C16.9135 43.187 17.0086 43.1156 17.0375 43.0427C17.0511 43.0083 16.8873 42.9652 16.887 42.9581C16.8884 42.9016 16.8978 42.8533 16.9132 42.8097C16.9141 42.8074 16.9149 42.8051 16.9157 42.8029C16.9711 42.6512 17.1089 42.5432 17.1903 42.3502C17.211 42.2984 16.9972 42.1559 17.1769 42.0732C17.3695 41.9652 18.2122 42.0747 17.977 41.728C17.9271 41.6591 17.6348 41.63 17.419 41.6143C17.2003 41.5916 17.0708 41.5981 17.269 41.3907C17.1863 41.3119 17.1237 41.2331 17.0561 41.1533C17.0484 41.1455 17.0244 41.1292 17.0143 41.1251C17.0124 41.1242 17.0105 41.1232 17.0086 41.1222C16.7921 41.0107 16.5675 40.8559 16.2983 40.9516C16.2807 40.9576 16.1931 41.2261 16.161 41.2168C16.1115 41.2028 16.0985 41.072 16.0613 41.0597C15.9072 41.0056 15.756 41.1021 15.6069 41.0797C15.5498 41.072 15.5714 40.951 15.5018 40.9446C15.4312 40.9394 15.3872 41.0933 15.2927 41.0207C15.2215 40.965 15.1378 40.668 15.0377 40.6479C15.049 40.9385 14.9833 40.9374 14.8737 41.0196C14.8528 41.0354 14.8833 41.1304 14.8738 41.1427C14.8358 41.1939 14.7906 41.117 14.7552 41.1722C14.7466 41.1854 14.7541 41.2773 14.7476 41.293C14.6934 41.4277 14.5646 41.2292 14.5413 41.1982C14.4544 41.0746 14.4323 41.1909 14.3707 41.1463C14.3085 41.1034 14.3853 41.0315 14.3157 41.0102C14.2765 40.9986 14.2352 40.9934 14.1927 40.9924C14.19 40.9935 14.1813 40.9939 14.1788 40.9953C14.1781 40.9954 14.1774 40.9954 14.1767 40.9955C14.0609 41.0102 13.9453 41.0612 13.849 41.1009C13.796 41.1234 13.872 41.2017 13.8653 41.2071C13.7707 41.2736 13.6186 41.2362 13.6519 41.4353C13.3492 41.037 13.6131 41.5084 13.4252 41.5001C13.4102 41.4994 13.2822 41.3179 13.3088 41.2613C13.3357 41.2041 13.4372 41.2252 13.4744 41.1417C13.4824 41.1232 13.4687 40.8728 13.4761 40.8516C13.5283 40.694 13.6962 41.0199 13.7088 41.0364C13.8535 41.2085 13.8639 40.9303 13.8908 40.8976C13.9559 40.8168 14.0342 40.7843 14.1085 40.7534C14.1092 40.7531 14.1099 40.7528 14.1106 40.7525C14.1194 40.7475 14.1502 40.7462 14.1597 40.7424C14.2084 40.7291 14.255 40.7144 14.2995 40.6795C14.3709 40.6243 14.3477 40.3493 14.4101 40.3413C14.62 40.3101 14.7218 40.7162 14.8908 40.3115C14.9277 40.2243 14.8652 39.8928 15.0354 40.1247C15.047 40.1376 15.1707 40.3695 15.2321 40.196C15.2399 40.1739 15.2367 40.069 15.2478 40.0579C15.3226 39.9849 15.3749 40.0603 15.4585 40.0047C15.5425 39.9489 15.648 39.8675 15.7475 39.8934C15.808 39.908 15.8738 40.1174 15.8982 40.1698C15.966 40.3202 16.0733 40.0632 16.1061 40.253C16.1347 40.4464 16.0167 40.7317 16.1207 40.8654C16.1603 40.5521 16.2081 40.2302 16.2538 39.9139C16.5645 39.925 16.8614 40.0664 17.1982 40.1608C17.2409 40.1727 17.2573 39.9878 17.3065 39.9971C17.3561 40.0069 17.4024 40.0267 17.4454 40.0513C17.4481 40.0528 17.4508 40.0544 17.4535 40.056C17.557 40.0985 17.8042 40.2652 17.8824 40.3452C18.0414 40.5412 18.1121 40.7553 18.2482 40.9463C18.3895 41.1416 18.6488 41.3392 18.7359 41.5763C18.383 41.7812 18.5308 42.0591 18.4787 42.2691C18.4613 42.3409 18.3591 42.326 18.321 42.371C18.1772 42.5327 18.5233 42.4947 18.5694 42.5538C18.7566 42.8197 17.9982 42.6844 17.9632 42.8867C17.9625 42.8943 18.3122 43.1526 18.3281 43.1835C18.443 43.362 18.1862 43.1581 18.1314 43.2222C18.1253 43.2293 18.119 43.2361 18.1127 43.2428C18.1101 43.2455 18.1074 43.2482 18.1048 43.2509C18.0099 43.346 17.9107 43.3975 17.9524 43.5704C17.967 43.6244 18.1487 43.8363 17.9321 43.8252C17.9039 43.8237 17.786 43.757 17.7748 43.7613C17.5841 43.8412 17.9566 44.0429 18.0341 44.1975C18.1107 44.353 17.7808 44.3308 17.6945 44.3096C17.469 44.2594 17.6452 44.213 17.6288 44.1984C17.4342 44.0285 17.4205 44.136 17.3618 44.1879C17.0038 43.9787 16.9719 44.0745 17.3023 44.2423C17.3387 44.2603 17.3378 44.1906 17.3618 44.1879C17.6728 44.4573 17.6428 44.5955 17.2557 44.4879C17.0748 44.4364 16.938 44.2743 16.8975 44.4589C16.878 44.5426 17.1254 44.6845 17.1426 44.789C17.1788 45.0305 16.8304 45.0384 16.7453 45.1934C16.7133 45.2507 16.8706 45.3057 16.852 45.3488C16.8009 45.465 16.6435 45.4628 16.5973 45.5892C16.593 45.601 16.7263 45.6939 16.6989 45.7229C16.5618 45.8706 16.3896 45.9662 16.2006 46.0713C16.1958 46.0739 16.191 46.0766 16.1862 46.0792C16.0958 46.1292 16.0026 46.1798 15.9047 46.2382C15.7599 46.3292 15.4988 46.5502 15.2983 46.5956C14.95 46.6867 14.5026 46.5191 14.2522 46.5663C14.0822 46.5974 14.1168 46.7462 14.0367 46.8438C13.8706 47.0313 13.6684 46.6481 13.6549 46.5908C13.654 46.5891 13.7862 46.5718 13.7275 46.4869C13.7094 46.3241 13.6569 46.5904 13.6549 46.5908C13.6526 46.5847 13.6442 46.5777 13.6318 46.5705C13.628 46.5683 13.6239 46.566 13.6195 46.5638C13.5485 46.5283 13.3881 46.4827 13.3429 46.4955C13.312 46.5049 13.2992 46.6457 13.2832 46.6478C12.9071 46.6881 12.4373 46.6229 11.9621 46.1539C11.9553 46.1444 12.0691 46.0355 12.053 46.0155C11.9634 45.9004 11.8661 45.8166 11.7603 45.7347C11.7528 45.729 11.7453 45.7232 11.7378 45.7174C11.5925 45.6071 11.4282 45.4938 11.2985 45.3219C11.0692 45.0118 11.0999 44.7075 11.3685 44.5578C11.3362 44.3516 11.4972 44.1246 11.596 44.0269C11.694 43.9278 11.411 43.8349 11.4083 43.8218C11.3446 43.5232 11.4816 43.391 11.61 43.2311C11.6142 43.226 11.6183 43.2208 11.6224 43.2156C11.6539 43.1765 11.6857 43.1342 11.7151 43.0863C11.7872 42.9674 11.8793 42.712 11.9303 42.5692C11.9695 42.4557 12.0659 42.4334 12.0891 42.3198C12.0923 42.3045 11.9746 42.2448 11.9729 42.2384C11.9125 42.0492 12.1448 42.2764 12.2062 42.2879C12.4296 42.3309 12.5471 42.3544 12.5586 42.1779C12.56 42.1388 12.2613 41.7765 12.2864 41.7045C12.3178 41.6138 12.4225 41.744 12.4528 41.6479C12.4556 41.6398 12.3771 41.5756 12.4197 41.5342C12.6172 41.3412 12.876 41.1683 13.1119 40.9694C13.1449 40.9422 13.0015 40.8522 13.0492 40.81C13.1742 40.7004 13.323 40.5941 13.4911 40.51C13.4989 40.5061 13.5067 40.5022 13.5146 40.4984C13.6415 40.4372 13.7743 40.3916 13.9054 40.3673C13.9826 40.3538 13.9839 40.4741 14.0121 40.4977C14.1771 40.642 14.1952 40.3279 14.2188 40.3142C14.7163 40.0021 15.1812 40.1938 15.746 40.1068C15.7708 40.0992 16.0678 39.824 16.1395 40.107C16.1471 40.1262 16.196 40.4083 16.3305 40.2539C16.3398 40.2446 16.3027 40.0919 16.4209 40.1378C16.5355 40.1826 16.7715 40.1649 16.8786 40.3808C16.894 40.4124 16.9045 40.4946 16.9328 40.5612C16.9379 40.5734 16.9437 40.585 16.9503 40.5958C16.9832 40.6513 17.0361 40.6811 17.1458 40.6373C17.1537 40.6214 17.6522 40.3783 17.5336 40.7084C17.5132 40.7628 17.2866 41.0212 17.5445 41.0101C17.5955 41.01 17.595 40.9035 17.7034 40.9384C17.8736 40.9968 17.949 41.216 18.1978 41.3078C18.2397 41.319 18.5381 41.3475 18.4502 41.5675C18.4357 41.6005 18.3155 41.6171 18.3366 41.6883C18.4329 42.0185 18.6093 42.3969 18.5249 42.7879C18.4935 42.9214 18.3132 42.8499 18.2541 42.9703C18.1955 43.093 18.1 43.3049 18.1373 43.443C18.1736 43.5856 18.5001 43.5524 18.443 43.7521C18.4372 43.7711 18.431 43.79 18.4245 43.8088C18.4218 43.8164 18.4191 43.8241 18.4163 43.8317C18.2899 44.2733 17.9221 44.5932 17.6496 44.9578C17.6072 45.0139 17.7254 45.0191 17.6677 45.106C17.4642 45.4252 17.0895 46.0215 16.6808 46.1315C16.3628 46.2159 16.5205 45.8843 16.3248 45.9841C16.233 46.0303 16.3675 46.3284 16.3532 46.3539C16.2303 46.5948 15.9993 46.6027 15.8286 46.7713C15.7921 46.8065 15.9047 46.8804 15.8718 46.9097C15.7592 47.0108 15.5898 47.0479 15.462 47.126C15.4038 47.1616 15.4586 47.2395 15.3973 47.2616C15.2502 47.3148 15.102 47.3339 14.9268 47.3016C14.9116 47.2983 14.9589 47.1585 14.8506 47.1911C14.6785 47.242 14.4497 47.2161 14.2468 47.3155C14.2458 47.316 14.2448 47.3165 14.2438 47.317C14.2389 47.3199 14.234 47.323 14.2291 47.3262C14.1803 47.3586 14.1983 47.573 14.0678 47.4358C14.0399 47.4068 14.0548 47.1489 13.934 47.379C13.9189 47.418 13.6783 47.7267 13.5548 47.5273C13.5229 47.4755 13.4549 47.2614 13.3833 47.2886C13.3729 47.293 13.4027 47.4114 13.3408 47.4173C13.1209 47.4342 12.88 47.3844 12.5894 47.316C12.5095 47.296 12.5822 47.4532 12.4596 47.4164C12.182 47.3341 11.7791 47.0723 11.5391 46.6723C11.5378 46.6697 11.5365 46.6672 11.5352 46.6646C11.5175 46.6301 11.5011 46.596 11.4863 46.563C11.4528 46.4869 11.568 46.48 11.5737 46.469C11.6718 46.2963 11.4419 46.3769 11.4126 46.3557C11.239 46.2286 11.2688 46.0433 11.1672 45.8956C11.1393 45.854 11.0496 45.9324 11.0362 45.9276C10.9017 45.8718 11.1217 45.8607 11.1165 45.7926C11.1036 45.6024 11.0275 45.4211 10.9613 45.2502C10.937 45.1874 10.8303 45.2967 10.8098 45.2386C10.6858 44.8935 10.6338 44.4999 10.6938 44.1354C10.7054 44.067 10.8103 44.1073 10.8334 44.0927C10.995 43.9968 10.7718 43.8591 10.7517 43.8229C10.6592 43.6682 10.7553 43.6144 10.7519 43.4813C10.747 43.2542 10.7806 43.0075 10.848 42.7654C10.8485 42.7636 10.849 42.7618 10.8496 42.76C10.9814 42.2848 11.2544 41.8195 11.5963 41.4613C11.7926 41.2545 12.0232 41.0744 12.2925 40.9352C12.2933 40.9348 12.2942 40.9344 12.295 40.934C12.9617 40.5771 13.7449 40.6067 14.3181 40.7575C14.3715 40.7709 14.361 40.6176 14.4085 40.6279C14.5332 40.657 14.6489 40.6954 14.7568 40.7394C14.758 40.7399 14.7593 40.7405 14.7606 40.741C15.177 40.9136 15.5195 41.1569 15.8856 41.4197C15.9234 41.4476 15.9625 41.2977 16.0276 41.3406C16.1622 41.4281 16.307 41.5798 16.3848 41.7353C16.4225 41.8104 16.2607 41.808 16.2989 41.8807C16.3859 42.0499 16.4967 42.215 16.6203 42.3753C16.6733 42.4445 16.7284 42.2571 16.7889 42.3562C16.8281 42.4211 16.8657 42.4879 16.9012 42.5568C16.9024 42.5591 16.9036 42.5614 16.9047 42.5637C17.2267 43.2102 17.3433 43.9186 17.0067 44.6901C16.9784 44.7512 16.6968 44.7352 16.7074 44.8688C16.7775 44.9011 16.8638 44.9281 16.9405 44.9574C16.8662 45.1837 16.7479 45.431 16.5407 45.6717C16.5393 45.6733 16.538 45.6748 16.5366 45.6764C15.5284 46.667 14.5075 46.2241 13.7985 45.9101C13.7983 45.91 13.7981 45.9099 13.7979 45.9098C13.7172 45.8701 13.6393 45.8283 13.5638 45.7852C13.5319 45.7669 13.5344 45.8945 13.4714 45.8587C13.1093 45.6497 12.7891 45.4377 12.5795 45.0983C12.559 45.0647 12.704 44.9361 12.6058 44.8831C12.588 44.8742 12.4541 44.7784 12.3947 44.7767C12.386 44.7769 12.3425 44.8618 12.3032 44.825C12.0768 44.6102 11.8812 44.3444 11.7445 44.0566C11.7228 44.0102 11.8322 43.9984 11.8177 43.9652C11.7162 43.7327 11.5076 43.5305 11.4746 43.2591C11.4556 43.0792 11.634 43.0673 11.752 42.927C11.7683 42.9072 11.7371 42.8158 11.8253 42.7785C12.0469 42.6873 12.3062 42.6329 12.5403 42.5301C12.5791 42.5131 12.5383 42.474 12.5835 42.4594C12.5835 42.4594 12.5835 42.4594 12.5835 42.4594C12.5968 42.455 12.6173 42.4526 12.6493 42.4527C12.6584 42.4527 12.7197 42.4919 12.7669 42.4879C12.7994 42.4852 12.8832 42.434 12.927 42.4362C12.9708 42.438 12.9037 42.4881 12.9602 42.4993C13.017 42.5089 13.11 42.4491 13.1494 42.4994ZM12.0484 43.658C12.2144 43.6294 11.7358 43.4164 11.8124 43.5595C11.8166 43.5668 12.0401 43.6599 12.0484 43.658ZM16.7529 40.5205C16.7988 40.7981 16.9877 40.4525 16.957 40.2347C16.9171 40.0173 16.7342 40.4364 16.7529 40.5205ZM15.5833 40.6255C15.7 40.8037 15.7475 40.0539 15.6013 40.2197C15.5928 40.2293 15.5762 40.6155 15.5833 40.6255ZM11.9566 43.245C11.9598 43.2417 11.9326 43.1817 11.9278 43.1819C11.8154 43.1998 11.8721 43.3244 11.9566 43.245ZM14.5365 40.8951C14.5809 40.9699 14.6774 40.864 14.6224 40.7691C14.5774 40.6945 14.4805 40.8042 14.5365 40.8951ZM15.4994 41.3929C15.5007 41.4003 15.5457 41.4075 15.5457 41.3653C15.5452 41.2291 15.4774 41.2672 15.4994 41.3929ZM12.9119 41.6375C13.1313 41.4951 13.4601 41.7305 13.1986 41.8315C13.1516 41.8515 13.2309 41.6828 13.1589 41.6892C13.0288 41.706 13.0786 41.9224 12.9143 41.8933C12.8856 41.8897 12.8997 41.6462 12.912 41.6369C12.9119 41.6371 12.9119 41.6373 12.9119 41.6375ZM12.6517 43.8454C12.6586 43.8463 12.6879 43.7926 12.6823 43.7886C12.5426 43.6919 12.4807 43.8057 12.6517 43.8454ZM16.9552 42.9417C16.9431 42.942 16.9029 43.044 16.9119 43.0509C17.1269 43.2051 17.2305 42.9317 16.9552 42.9417ZM15.0644 44.9172C15.012 44.7336 15.0409 44.6841 15.2162 44.8388C15.1638 44.8639 15.1165 44.8959 15.0644 44.9172Z" fill="black"/>
<path d="M2.27599 6.61483C2.06031 6.5663 1.828 6.50399 1.58928 6.42755C1.55513 6.41661 1.52102 6.40546 1.4866 6.39395C1.40531 6.36639 1.32095 6.33276 1.22344 6.26904C1.18176 6.25354 0.854535 5.99124 0.860909 5.63568C0.85413 5.3217 1.03493 5.12109 1.08959 5.06216C1.15542 4.99238 1.21767 4.94368 1.27963 4.90017C1.47442 4.7685 1.63009 4.70358 1.78664 4.63648C2.08336 4.51412 2.3594 4.42546 2.61649 4.34685C2.84032 4.27994 2.73867 4.35265 2.89945 4.30754C3.20864 4.22208 3.49279 4.11643 3.79354 4.04511C3.89611 4.02099 3.78621 4.11497 3.89376 4.08846C4.46759 3.94798 5.0202 3.7804 5.59414 3.63997C8.47117 2.94398 11.2921 2.30878 14.2164 1.70501C15.1825 1.5053 16.359 1.34371 17.3571 1.10856C17.4743 1.08074 17.3889 1.01234 17.4102 1.00109C17.7408 0.826746 17.6496 1.01789 17.8826 0.995666C18.0555 0.978884 18.2266 0.960154 18.3936 0.940108C18.482 0.928622 18.5711 0.919947 18.6609 0.914298C19.185 0.897409 19.71 0.872926 20.3127 1.25058C20.3931 1.30738 20.466 1.37599 20.5261 1.44708C20.7699 1.74772 20.8319 2.02086 20.8893 2.25713C20.9715 2.70943 21.1005 2.2333 21.0402 2.69572C21.0351 2.72643 20.9286 2.62366 20.9255 2.74012C20.9207 3.00239 20.9264 3.46807 20.9065 3.65731C20.8697 4.0139 20.8642 4.07892 20.8324 4.41086C20.7868 4.86501 20.6682 5.40786 20.6276 5.88493C20.6187 5.99079 20.7422 5.86567 20.7374 6.03715C20.7348 6.19392 20.6635 6.64218 20.619 6.77501C20.5735 6.91601 20.4991 6.84204 20.4764 6.86481C20.2838 7.05836 20.4348 7.58253 20.4306 7.65188C20.3521 8.84347 20.073 9.81401 19.9118 10.9107C19.789 11.7496 19.7088 12.6321 19.5931 13.4276C19.4546 14.3781 19.2883 15.1511 19.1807 16.0803C19.1695 16.1768 19.3208 16.0825 19.3077 16.199C19.1653 17.46 19.0048 18.6954 18.7718 19.9374C18.7483 20.0621 18.6435 19.8863 18.6127 20.0101C18.5353 20.3275 18.4264 20.7132 18.3606 21.0959C18.3259 21.2978 18.3024 21.5003 18.301 21.6911C18.2993 22.0069 18.3625 22.2871 18.538 22.4699C18.4615 22.9831 18.3783 23.61 18.2414 24.0669C18.1536 24.363 18.0507 24.065 18.0776 24.4373C18.0836 24.5204 18.1995 24.4182 18.1998 24.5452C18.2001 24.689 18.1949 24.8364 18.1866 24.9877C18.1791 25.121 18.1694 25.2562 18.155 25.3991C18.1323 25.5536 18.1476 25.6647 18.0361 25.9487C17.9967 26.058 17.8057 26.284 17.5546 26.3005C17.3303 26.3149 17.2404 26.2529 17.1617 26.2178C17.0292 26.1467 16.9573 26.0832 16.8922 26.0322C16.7858 25.9438 16.7513 26.0379 16.712 26.0215C16.3974 25.8838 16.3067 25.3947 16.2621 25.3127C15.9221 24.67 15.5895 24.2854 15.2057 23.7557C15.117 23.6331 15.1315 23.8465 15.0426 23.7301C14.5858 23.1279 14.1326 22.4943 13.7208 21.8743C13.6315 21.7389 13.7947 21.8012 13.7556 21.7335C13.5783 21.432 13.3965 21.48 13.2199 21.1917C13.2188 21.19 13.2179 21.1884 13.217 21.1867C13.188 21.1313 13.2692 21.1144 13.2683 21.0995C13.254 20.8611 12.9938 20.84 12.9584 20.8018C12.8445 20.6808 12.7517 20.5592 12.6692 20.4369C12.4322 20.0853 12.3021 19.7514 11.9953 19.3951C11.9455 19.3375 11.9733 19.5337 11.8381 19.3682C10.9434 18.2739 10.0459 17.0767 9.25584 15.923C9.13425 15.7454 9.28744 15.8209 9.28648 15.8046C9.26789 15.5438 9.02154 15.5416 8.97316 15.4909C8.59254 15.0836 8.39906 14.5643 7.98743 14.4086C6.60103 12.478 5.09053 10.6804 3.79754 8.71889C3.7816 8.69523 3.88961 8.67356 3.85755 8.6267C3.44882 8.03974 3.41011 8.22961 2.97264 8.02003C2.91697 7.99767 2.86811 7.86388 2.83856 7.76157C2.83103 7.72262 2.81923 7.68521 2.83427 7.67197C2.82818 7.65628 2.95143 7.66825 2.98902 7.63968C3.16917 7.51546 3.07591 7.46563 3.06927 7.47116C3.04734 7.46567 3.02286 7.46534 3.00026 7.46219C2.95366 7.4601 2.92059 7.4342 2.9121 7.44036C2.85867 7.6174 3.05348 7.64066 3.20958 7.699C3.31474 7.73654 3.41742 7.79671 3.47985 7.9524C3.48409 7.96516 3.38025 7.94591 3.38536 7.98258C3.40124 8.09731 3.47596 8.18481 3.49083 8.29781C3.52495 8.55523 3.34534 8.739 3.63718 9.02997C3.67512 9.06559 3.89031 8.8813 4.05049 9.22686C4.11227 9.36667 4.43969 9.9587 4.52124 10.1311C4.60116 10.3059 4.45678 10.2373 4.46015 10.251C4.61496 10.7545 4.47552 10.6133 4.45513 10.9281C4.437 11.2434 4.76368 10.9607 4.85967 11.0258C4.95642 11.0929 5.0714 11.4626 5.09438 11.5629C5.11464 11.6595 5.00302 11.5939 5.03066 11.6739C5.21981 12.2075 5.34153 11.7609 5.49858 11.8759C5.86772 12.1387 5.78758 12.594 5.98245 12.9367C6.035 13.0286 6.04753 12.9157 6.10663 12.9893C6.34287 13.2846 6.38555 13.5259 6.70798 13.8198C6.75962 13.867 7.12503 14.0359 7.13245 14.2996C7.1334 14.3376 7.01323 14.3123 7.09063 14.4535C7.20857 14.6679 7.44005 15.0244 7.61329 15.2179C7.73983 15.3587 7.72753 15.1021 7.83091 15.3204C7.87701 15.4179 7.69568 15.3053 7.78787 15.4849C7.88203 15.6674 8.17576 16.0715 8.29198 16.2289C8.40524 16.3821 8.43227 16.2348 8.44709 16.2431C8.53479 16.2941 8.79453 16.5659 8.81393 16.593C9.78471 17.9173 10.5145 19.274 11.4681 20.5558C11.5433 20.657 11.5949 20.5202 11.6074 20.5349C11.8938 20.8644 11.4376 20.7623 11.5194 21.0724C11.697 20.9002 11.7585 21.0686 11.951 21.3054C12.0441 21.4196 12.0778 21.3005 12.0933 21.3062C12.3352 21.4072 12.266 21.6371 12.2554 21.6895C12.2185 21.8853 12.4426 21.923 12.4194 22.0566C12.3966 22.1898 12.1568 22.0782 12.3206 22.3207C12.4392 22.3407 12.5088 22.032 12.6636 22.1973C12.7465 22.2865 12.827 22.3835 12.9116 22.4961C13.1846 22.8592 13.4633 23.3284 13.716 23.777C13.9242 24.1698 14.1757 24.3679 14.2943 24.3206C14.4766 24.2774 14.6145 24.0916 14.708 23.9616C14.8085 23.8154 14.8735 23.7037 14.9727 23.5351C15.3023 22.931 15.0389 23.1086 15.1186 22.6785C15.1817 22.26 15.5012 22.5757 15.6037 22.5449C15.7054 22.5126 15.6404 22.4206 15.7091 22.359C15.7778 22.2967 15.7845 22.4796 15.8558 22.3043C15.9243 22.142 15.9089 21.6095 15.8355 21.5309C15.6842 21.3541 15.4366 21.52 15.6212 21.0792C15.6319 21.0534 15.7119 21.1653 15.7477 21.0651C16.0242 20.2797 16.2035 19.4315 16.4255 18.6234C16.4559 18.5134 16.5473 18.6338 16.5661 18.5699C16.761 17.8989 16.5314 18.1053 16.3947 17.6986C16.6509 17.83 16.8543 17.6532 16.9424 17.1296C16.995 16.8176 16.869 16.8516 16.8205 16.6355C16.8059 16.5709 16.9221 16.3606 16.8739 16.3123C16.7173 16.1514 16.4842 16.3279 16.6521 15.8051C16.6597 15.7822 16.7442 15.8725 16.7633 15.7921C16.8866 15.2713 16.7129 15.1806 16.7821 14.609C16.8366 14.1604 17.0695 13.383 17.164 12.878C17.4459 12.9305 17.452 12.4386 17.2881 12.218C17.347 11.8836 17.3892 11.5341 17.4652 11.2138C17.4912 11.1044 17.5601 11.1892 17.5709 11.1766C17.7389 10.9834 17.5754 10.8138 17.5791 10.7423C17.6297 9.95307 17.8656 9.35417 17.8584 8.59346C17.8578 8.5683 17.678 8.49195 17.8503 8.31452C17.862 8.30365 17.9033 8.56405 17.9722 8.21583C18.0229 7.96219 18.1604 7.54054 18.2402 7.12751C18.2569 7.0411 18.2702 6.95818 18.2786 6.87989C18.2858 6.82654 18.2899 6.78137 18.291 6.7433C18.2898 6.7251 18.2913 6.65908 18.2856 6.61844C18.2835 6.61177 18.2837 6.58961 18.2911 6.55605C18.2928 6.55016 18.2942 6.54392 18.3019 6.52772C18.3294 6.52323 18.2561 6.44263 18.5229 6.41348C18.6703 6.44505 18.6876 6.54171 18.6977 6.56236C18.7068 6.59225 18.7068 6.60429 18.7079 6.61434C18.7094 6.63297 18.709 6.63935 18.7092 6.64574C18.7093 6.66728 18.7096 6.6759 18.709 6.69253C18.713 6.71657 18.7156 6.74481 18.7148 6.78471C18.7196 6.89984 18.7018 7.03344 18.6173 7.1493C18.5956 7.17466 18.5485 7.13232 18.5103 7.16827C18.3875 7.28908 18.5583 7.41514 18.3642 7.54975C18.1676 7.69746 17.976 8.01536 17.987 8.52415C17.9871 8.53993 18.1155 8.68158 18.081 8.83846C18.0292 9.0716 17.9251 9.41747 17.8754 9.66418C17.8509 9.7861 17.9624 9.72778 17.9598 9.7493C17.8482 10.5731 17.646 11.1312 17.4289 11.9937C17.3884 12.1521 17.434 12.6373 17.2614 12.9249C17.07 13.2449 16.6411 12.7859 16.593 13.5903C16.5712 13.9129 17.148 14.4502 16.6905 14.9388C16.5531 16.0512 16.1601 17.0261 16.0655 18.1505C16.0612 18.2008 16.2306 18.3975 16.2048 18.5137C16.1659 18.6863 16.0522 18.762 16.0213 18.8829C15.8888 19.3921 15.8765 19.8804 15.7643 20.3767C15.7217 20.5658 15.6342 20.4783 15.5834 20.7021C15.5325 20.9255 15.6364 21.1028 15.5107 21.3956C15.4156 21.6154 15.0934 21.7905 14.9989 22.0905C15.2696 22.1569 15.222 22.3652 15.2202 22.7529C15.22 22.8275 15.3308 22.7695 15.3357 22.8058C15.3576 22.9538 15.253 23.0662 15.2808 23.2082C15.2874 23.2426 15.3811 23.2627 15.3918 23.292C15.4868 23.541 15.2031 23.8647 15.1537 23.9203C15.0976 23.984 15.0673 24.0409 15.0498 24.094C15.0164 24.2004 15.0339 24.2884 15.0021 24.3883C14.9962 24.4065 14.9888 24.4248 14.979 24.4436C14.8891 24.6197 14.8715 24.3293 14.7978 24.5391C14.6458 24.9722 14.5557 25.5509 14.4712 26.0053C14.4384 26.1865 14.5808 26.0845 14.5789 26.1109C14.5404 26.4899 14.354 26.8544 14.5573 27.0951C14.2319 27.1856 14.2491 27.25 14.3164 27.3547C14.3419 27.3945 14.3747 27.4401 14.4001 27.4963C14.4394 27.5831 14.4608 27.6935 14.4157 27.8511C14.4034 27.8921 14.1242 27.9336 14.0925 27.7622C14.0774 27.6791 14.0945 27.5772 14.1129 27.468C14.1202 27.4244 14.1277 27.3797 14.1333 27.3341C14.1426 27.2582 14.1465 27.1804 14.1347 27.1026C14.126 27.0465 13.9006 26.6903 13.89 26.6437C13.8075 26.284 14.2503 26.3147 14.2771 26.3016C14.5686 26.1507 14.3385 25.723 14.333 25.6204C14.3141 25.1532 14.4453 24.7811 14.4443 24.3943C14.4444 24.3513 14.4361 24.3144 14.4226 24.2808C14.3652 24.1344 14.2103 24.056 14.1908 23.9339C14.1895 23.9045 14.1902 23.8831 14.1959 23.8601C14.3542 23.2261 14.8155 23.0858 14.577 22.4117C14.5266 22.2673 14.175 22.3317 14.5262 21.9193C14.5485 21.8934 14.8519 21.596 14.7461 21.369C14.7328 21.3404 14.6387 21.3225 14.6377 21.2882C14.6329 21.0585 14.7387 20.9251 14.7537 20.6786C14.7687 20.4325 14.7779 20.1336 14.8682 19.866C14.9225 19.7049 15.1385 19.5286 15.1967 19.4586C15.364 19.2585 15.2192 18.9799 15.3927 18.8714C15.5663 18.7618 15.7301 19.0771 15.8977 18.7323C15.6664 18.6716 15.4328 18.5928 15.2027 18.5233C15.3863 17.7229 15.6319 16.955 15.7984 16.1508C15.8187 16.0521 15.6771 16.1284 15.696 16.0221C15.779 15.5638 15.9489 15.1947 16.0204 14.7193C16.0735 14.3604 16.0441 13.9309 16.0995 13.5527C16.3916 13.3675 16.4341 12.7938 16.5464 12.3927C16.5851 12.2535 16.6445 12.2775 16.6875 12.1778C16.8467 11.8067 16.6034 11.9467 16.5949 11.835C16.5583 11.3684 17.0253 11.4084 17.1262 10.8823C17.1318 10.8521 16.9683 10.4594 16.9639 10.4117C16.9333 10.094 17.057 10.3803 17.116 10.1935C17.2227 9.85733 17.3309 9.62371 17.3477 9.21557C17.3547 9.08364 17.268 8.79108 17.4305 8.57357C17.4515 8.54619 17.524 8.57854 17.5336 8.55512C17.6977 8.14626 17.4657 8.06784 17.4372 7.80956C17.4123 7.53477 17.6521 7.20199 17.7176 7.11927C17.8819 6.93465 17.7347 7.29892 17.7462 7.30206C17.8611 7.4607 17.896 7.17011 17.9503 6.96336C18.1888 6.97294 18.2334 6.67356 18.0066 6.74171C17.9803 6.75754 17.9712 6.91449 17.9503 6.96336C17.8712 6.86109 17.8331 6.7389 17.8319 6.62851C17.8333 6.59164 17.8361 6.55959 17.8378 6.54606C17.8383 6.54295 17.8383 6.54215 17.8371 6.55143C17.8393 6.57704 17.8216 6.52656 17.8412 6.73284C17.8475 6.76711 17.854 6.81212 17.8894 6.89422C17.9262 6.96899 17.997 7.12751 18.2391 7.23504C18.4948 7.34316 18.7431 7.2513 18.8409 7.18504C18.9485 7.11508 18.9852 7.06286 19.0146 7.02692C19.1079 6.8927 19.094 6.88475 19.1071 6.85983C19.1201 6.82353 19.1195 6.82117 19.1204 6.81776C19.1179 6.82355 19.1141 6.83161 19.1084 6.84525C19.0801 6.92357 19.0525 6.95757 19.0016 7.04516C18.9694 7.08895 18.9314 7.13404 18.8875 7.18023C18.8514 7.21829 18.8191 7.23385 18.7899 7.24556C18.7118 7.27332 18.6493 7.29529 18.6081 7.6651C18.582 7.90235 18.7583 7.84142 18.7619 8.06297C18.7766 8.53699 18.5224 9.14876 18.4708 9.63595C18.4515 9.81631 18.5669 9.65583 18.5568 9.77997C18.5293 10.1192 18.4227 10.3778 18.4076 10.7192C18.4065 10.7497 18.5105 10.6908 18.4967 10.7938C18.3974 11.5597 18.2431 12.2297 18.1294 13.0357C18.0746 13.4249 18.0316 14.133 17.9643 14.5361C17.8488 15.2365 17.5773 16.0776 17.5205 16.6836C17.4833 17.0796 17.5986 17.0103 17.6428 17.1896C17.7297 17.5374 17.3934 18.0713 17.3418 18.1391C17.3402 18.1409 17.3708 17.8021 17.2881 17.9713C17.1598 18.0555 17.3419 18.1346 17.3418 18.1391C17.3089 18.1887 17.1703 18.8553 17.1656 18.993C17.1634 19.0688 17.2706 19.0466 17.2676 19.0857C17.1965 20.003 17.0474 20.9211 16.7692 21.8331C16.7632 21.8484 16.6549 21.7942 16.642 21.8308C16.4513 22.3615 16.4949 22.7349 16.4248 23.2173C16.3526 23.6994 16.1672 24.0623 15.8236 24.2614C15.6623 24.5962 15.2257 25.2286 14.4386 25.3201C14.0866 25.3438 13.8956 25.3068 13.7798 25.3275C13.6599 25.34 13.5989 25.3754 13.5717 25.3652C13.2244 25.2169 13.0776 25.0807 12.9147 24.9221C12.7867 24.7941 12.6825 24.6561 12.5889 24.5076C12.3955 24.196 12.2602 23.8901 12.0122 23.491C11.9634 23.4123 11.8999 23.3165 11.8287 23.2129C11.6188 22.9075 11.3229 22.5073 11.1451 22.2765C10.9506 22.0234 10.8918 21.8349 10.7025 21.6176C10.677 21.5882 10.6107 21.6804 10.6007 21.673C10.3134 21.4737 10.616 21.4575 10.6167 21.3755C10.6191 21.077 10.6137 20.909 10.3122 20.6065C10.2427 20.5368 9.78016 20.5179 9.66651 20.3886C9.5156 20.2153 9.67278 20.2103 9.51251 20.0321C9.49897 20.0169 9.43402 20.0668 9.35506 19.9444C8.98481 19.3726 8.60662 18.7385 8.19614 18.1579C8.14094 18.0792 8.10751 18.2538 8.02637 18.1415C7.64117 17.608 7.24026 17.0175 6.92189 16.4545C6.84528 16.3178 6.97086 16.3483 6.97241 16.3055C6.97614 16.0401 6.62507 15.9263 6.59444 15.8887C5.83998 14.9779 5.49242 14.1247 4.75027 13.1588C4.71079 13.1097 4.24418 12.8025 4.28469 12.5018C4.2866 12.4804 4.33328 12.1849 4.11425 12.0864C4.10065 12.0802 4.08954 12.2558 3.96832 12.0385C3.84847 11.8236 3.58616 11.5157 3.50964 11.1607C3.48573 11.0488 3.52542 10.7313 3.23832 10.5233C3.21828 10.512 2.67816 10.2276 2.80822 9.95247C2.83012 9.90735 3.06611 9.82493 2.78107 9.53018C2.72659 9.4734 2.73443 9.62094 2.6188 9.45716C2.44135 9.20507 2.3395 8.80803 2.09958 8.49706C2.06991 8.459 1.9337 8.34775 1.87069 8.19401C1.83294 8.09774 1.82018 8.02665 1.8226 7.89132C1.82572 7.8172 1.93301 7.9332 1.89299 7.69275C1.88441 7.61798 1.86079 7.49247 1.89325 7.28507C1.90784 7.16694 2.01551 6.75755 2.40931 6.53953C2.78216 6.34254 3.05197 6.40878 3.21058 6.449C3.39343 6.50802 3.40067 6.52555 3.4599 6.55576C3.50812 6.58359 3.54686 6.60984 3.58152 6.63499C3.65906 6.69243 3.67377 6.70773 3.71475 6.74317C4.17623 7.18823 4.41683 7.48468 4.67335 7.86461C4.78219 8.03212 4.6123 8.03223 4.71064 8.21268C4.81287 8.39794 5.03327 8.73453 5.20497 8.85729C5.38124 8.98584 5.40729 8.67507 5.61396 8.91491C6.50397 9.95026 7.20673 11.0854 8.0085 12.168C8.12808 12.3296 8.0877 12.1534 8.26714 12.387C8.92481 13.2433 10.1196 14.6925 10.5686 15.5312C10.93 16.2058 10.2775 15.5167 10.5859 16C10.7346 16.2324 11.1101 16.3257 11.1577 16.3749C11.616 16.8419 11.8157 17.2716 12.2021 17.7141C12.2827 17.8064 12.2852 17.652 12.353 17.7314C12.5886 18.006 12.776 18.3157 12.9944 18.5811C13.0915 18.6989 13.1338 18.6329 13.2145 18.745C13.4083 19.0124 13.5667 19.2638 13.7166 19.5655C13.7294 19.5912 13.5573 19.5037 13.6595 19.6546C13.6667 19.6652 13.6752 19.6769 13.6852 19.6899C13.85 19.9043 14.0178 20.169 14.2088 20.4142C14.3085 20.5421 14.4116 20.6611 14.526 20.7689C14.6287 20.8658 14.7661 20.7663 14.8554 21.0695C14.8744 21.1331 14.6651 21.1979 15.0162 21.3585C15.0757 21.3881 15.6271 21.6955 15.6798 22.012C15.6943 22.0962 15.6742 22.3474 15.7989 22.4624C15.8162 22.4772 15.8363 22.3507 15.928 22.4514C16.2516 22.809 16.5601 23.2131 16.8918 23.5748C16.9798 23.6699 16.939 23.4573 17.0704 23.6037C17.4149 23.9823 17.8743 24.584 18.0589 24.7786C18.0644 24.792 17.9997 24.861 17.9952 24.8695C17.9541 24.9101 17.9711 24.8801 17.6911 24.7919C17.5623 24.7484 17.2124 24.7467 16.9731 24.9003C16.7232 25.0577 16.6574 25.1843 16.5959 25.2698C16.5214 25.3574 16.4946 25.3526 16.4852 25.3611C16.4443 25.3381 16.4722 25.0651 16.4908 24.88C16.5097 24.6957 16.5304 24.5104 16.5218 24.3024C16.517 24.1794 16.4074 24.2598 16.3984 24.2351C16.3087 23.9796 16.4992 24.1769 16.524 24.0205C16.5946 23.5785 16.6016 23.0795 16.6093 22.6255C16.6121 22.4589 16.4714 22.6353 16.4752 22.4844C16.4827 22.1608 16.4995 21.8346 16.5292 21.5089C16.5476 21.3067 16.5702 21.1064 16.5975 20.9093C16.647 20.5521 16.7055 20.2041 16.7757 19.8564C16.8081 19.6986 16.9003 19.8104 16.9277 19.7799C17.1191 19.5696 16.932 19.2143 16.9196 19.1364C16.8637 18.7701 16.9717 18.6443 16.9925 18.3354C17.0929 16.8176 17.4153 14.9704 17.67 13.5559C18.0001 11.7198 18.3316 10.3065 18.604 8.55447C18.6214 8.44357 18.4772 8.53541 18.4906 8.43987C18.6688 7.21252 18.9326 5.99239 19.0639 4.7877C19.075 4.6857 18.9412 4.8174 18.955 4.65506C18.981 4.33515 19.0361 3.92283 19.0962 3.62294C19.1256 3.46864 19.2069 3.68358 19.234 3.52745C19.2958 3.18219 19.3096 2.79215 19.255 2.56329C19.2333 2.48055 19.1414 2.61921 19.1234 2.52645C19.1133 2.46619 19.0894 2.46743 19.1699 2.57112C19.1955 2.60186 19.234 2.63875 19.2795 2.66997C19.3722 2.71981 19.2857 2.64778 19.1897 2.62187C19.0887 2.58923 18.9559 2.56866 18.821 2.57402C18.7746 2.57578 18.7275 2.57924 18.6803 2.58437C17.9139 2.68596 17.1399 2.77432 16.3486 2.83328C16.2413 2.84132 16.1149 2.66048 15.9038 2.73428C15.8976 2.79078 15.9105 2.85382 15.9143 2.91241C13.7462 3.29072 11.5836 3.59345 9.41386 4.00515C9.32208 4.02247 9.49814 4.07189 9.32065 4.10547C8.29636 4.3005 7.30791 4.51793 6.25382 4.67889C6.14869 4.69534 6.17761 4.55751 5.87247 4.64823C5.81608 4.66467 5.3745 4.7862 5.25705 4.8428C5.24205 4.85058 5.33984 4.8865 5.19296 4.92361C4.34617 5.13859 3.45152 5.35461 2.64729 5.60043C2.52392 5.63879 2.63814 5.53583 2.54233 5.56591C2.35665 5.62512 2.17837 5.69353 2.03481 5.7676C1.9644 5.80035 1.88819 5.86495 1.92664 5.82875C1.94046 5.81101 1.98088 5.76205 1.99422 5.66061C2.01305 5.55992 1.95338 5.41201 1.90173 5.36548C1.81604 5.28418 1.82373 5.31238 1.84463 5.31449C1.87498 5.32458 1.90517 5.33448 1.93553 5.3443C2.20506 5.43148 2.47473 5.50945 2.72881 5.58927C3.15183 5.7172 2.97201 5.77956 3.18859 5.91894C3.21995 5.93987 3.49162 5.98047 3.49961 6.03669C3.52353 6.18395 3.36433 6.32412 3.40484 6.48292C3.40873 6.51125 3.6686 6.51712 3.68084 6.54116C3.68084 6.54116 3.68084 6.54117 3.68084 6.54118C3.68167 6.54941 3.6508 6.56235 3.58672 6.5769C3.56011 6.5842 3.2554 6.57594 3.18132 6.58949C3.12827 6.60008 3.21018 6.6719 3.10327 6.67906C2.9962 6.68568 2.8937 6.61822 2.72188 6.61152C2.55075 6.60371 2.60851 6.68707 2.27599 6.61483ZM12.9591 24.1408C12.9167 23.8648 12.5426 24.0641 12.7774 24.2387C12.7892 24.2469 12.9616 24.1549 12.9591 24.1408ZM15.9346 17.0203C16.1796 16.7329 15.9684 16.4566 15.783 16.6584C15.5961 16.8615 15.8597 17.1069 15.9346 17.0203ZM15.3677 20.4045C15.5937 20.054 15.0025 19.8732 15.0389 20.3043C15.0408 20.3295 15.3545 20.4248 15.3677 20.4045ZM2.10057 5.69635C2.10281 5.70031 2.29624 5.75691 2.30152 5.75506C2.42076 5.72114 2.03713 5.60934 2.10057 5.69635ZM14.8488 23.7698C14.9568 23.6681 14.9268 23.3082 14.7924 23.4344C14.6842 23.5359 14.7142 23.8964 14.8488 23.7698ZM5.83723 13.0485C5.83946 13.0419 5.76227 12.9194 5.73764 12.9392C5.65928 13.0046 5.79657 13.156 5.83723 13.0485ZM14.1836 29.5258C14.1925 28.6693 14.6672 28.1612 14.5938 29.0854C14.5824 29.2528 14.4578 28.7232 14.4145 28.936C14.3398 29.3277 14.6091 29.588 14.4614 29.9888C14.4363 30.0601 14.1833 29.5754 14.1829 29.5243C14.1832 29.5248 14.1834 29.5253 14.1836 29.5258ZM13.304 23.7417C13.3058 23.7343 13.1991 23.5608 13.1919 23.5599C13.0195 23.5409 13.2342 23.8899 13.304 23.7417ZM4.20756 9.0803C4.20805 9.09623 4.48975 9.46996 4.50652 9.47721C4.80035 9.55966 4.22778 8.79817 4.20756 9.0803ZM17.1728 12.8711C17.095 12.634 17.1229 12.3709 17.2878 12.2189C17.2477 12.4332 17.2133 12.6519 17.1728 12.8711Z" fill="black"/>
</svg>
