<svg width="15" height="42" viewBox="0 0 15 42" fill="none" xmlns="http://www.w3.org/2000/svg">
<path d="M3.53053 2.65231C3.53232 2.60076 3.53758 2.54819 3.54638 2.49616C3.54967 2.47663 3.55348 2.45708 3.55779 2.43755C3.64093 1.96399 4.02471 1.46071 4.41577 1.22317C4.80848 0.969427 5.18679 0.863418 5.49588 0.793563C5.6988 0.751184 5.60618 0.821603 5.74423 0.798452C6.01005 0.757025 6.24794 0.696303 6.50017 0.685277C6.58382 0.682181 6.48831 0.767895 6.57553 0.763361C7.05113 0.740395 7.48522 0.696799 7.94867 0.695957C9.43686 0.698334 10.8723 0.790885 12.2776 0.760174C12.2897 0.759893 12.3017 0.759677 12.3137 0.759529C12.6272 0.758962 12.9946 0.764589 13.3968 0.964771C13.8057 1.15965 14.1078 1.60442 14.195 1.97016C14.1982 1.98199 14.2013 1.99385 14.2043 2.00574C14.2736 2.2822 14.3183 2.56345 14.3413 2.84405C14.4183 3.699 14.1849 4.66626 14.0381 5.45219C14.0211 5.54531 14.1279 5.51417 14.1314 5.53365C14.1806 5.84367 14.0151 5.69863 13.9432 5.86793C13.6557 6.5384 13.3845 7.27455 13.1778 7.92097C13.0899 8.19527 13.3793 8.00034 13.1708 8.22806C13.1564 8.24391 13.0839 8.13624 13.0446 8.20522C12.9549 8.36394 12.8471 8.68173 12.7862 8.80708C12.6673 9.05095 12.6543 9.08474 12.5551 9.31749C12.4192 9.63344 12.2079 9.9858 12.0853 10.3288C12.0592 10.403 12.2041 10.3537 12.1717 10.4765C12.1379 10.6025 11.9996 10.8951 11.9295 10.9875C11.86 11.0788 11.7972 10.9984 11.7705 11.008C11.545 11.0878 11.6132 11.5289 11.5982 11.5784C11.3307 12.4369 10.8945 13.0757 10.5597 13.8404C10.3042 14.4255 10.0835 15.0571 9.84126 15.6139C9.55752 16.2649 9.26132 16.8086 9.01408 17.4527C8.98763 17.5213 9.15294 17.4955 9.12098 17.5794C8.9338 18.0714 8.74196 18.5595 8.53872 19.0378C8.49196 19.1479 8.44432 19.2583 8.39571 19.369C8.2714 19.6523 8.1473 19.9222 8.01478 20.1976C7.97385 20.2821 7.89455 20.1256 7.84649 20.2074C7.55046 20.7161 7.01978 21.5104 7.44925 22.0092C7.31064 22.3765 7.15573 22.8201 6.95414 23.1249C6.82359 23.3247 6.74703 23.0766 6.73161 23.3589C6.7284 23.4216 6.8671 23.3769 6.85366 23.4678C6.79425 23.8608 6.65275 24.2647 6.62732 24.6599C6.62217 24.7414 6.73409 24.744 6.74834 24.7703C6.86374 24.983 6.53879 25.2385 6.50669 25.299C6.2665 25.7644 6.26197 26.1146 6.11949 26.6319C6.11053 26.6616 6.10256 26.6867 6.09081 26.7205C6.03605 26.8682 6.24278 26.7376 6.18657 26.8941C6.12463 27.0365 6.0412 27.2766 5.71541 27.4805C5.57366 27.5601 5.41533 27.6345 5.1498 27.6256C4.89966 27.617 4.665 27.478 4.55199 27.367C4.30509 27.1204 4.26047 26.9482 4.19993 26.7962C4.09491 26.4871 4.06422 26.2196 4.04802 25.9742C4.04035 25.8372 4.18355 25.9404 4.18637 25.8741C4.20155 25.5954 3.96109 25.5554 3.98362 25.2968C3.98815 25.2407 4.09686 25.2601 4.10739 25.2489C4.27231 25.0697 4.00383 24.9681 3.99471 24.9273C3.87563 24.4278 4.12605 24.0918 4.06475 23.6166C4.05738 23.5595 3.93154 23.696 3.91909 23.5345C3.83681 22.4595 3.85513 21.3285 3.93267 20.2713C3.94459 20.106 4.04077 20.2211 4.05216 20.2104C4.22851 20.0351 3.98448 19.9344 3.9745 19.8815C3.90104 19.461 4.09052 19.0639 3.80248 18.7825C3.85957 16.9949 3.65384 15.2306 3.77406 13.4542C3.77531 13.4316 3.88701 13.4645 3.88901 13.4194C3.90346 13.1032 3.85361 13.0101 3.76416 12.9204C3.70855 12.8647 3.6375 12.8104 3.55602 12.705C3.54326 12.6882 3.53025 12.6703 3.517 12.6509C3.45818 12.5641 3.68631 12.2729 3.7026 12.2478C3.76297 12.1555 3.93228 12.2323 3.94297 12.2022C4.02522 11.9478 3.49328 12.0316 3.46452 11.7065C3.46449 11.696 3.56691 11.731 3.57424 11.7022C3.59732 11.6129 3.55045 11.5312 3.57669 11.4447C3.63762 11.2486 3.89121 11.151 3.71103 10.8747C3.68755 10.8393 3.39021 10.9283 3.37417 10.6323C3.36864 10.5159 3.30713 10.0027 3.30937 9.85554C3.31213 9.70861 3.42162 9.79651 3.42466 9.78571C3.50832 9.38388 3.57911 9.52323 3.74688 9.30379C3.91356 9.08456 3.46486 9.1967 3.404 9.12445C3.34295 9.04867 3.41261 8.75425 3.43979 8.67746C3.4673 8.60172 3.54156 8.6814 3.554 8.61567C3.63406 8.18327 3.303 8.46862 3.21122 8.34159C2.99363 8.04659 3.294 7.75342 3.27892 7.45148C3.275 7.37163 3.20856 7.44803 3.1899 7.37989C3.11563 7.10506 3.19231 6.92045 3.03688 6.62323C3.01167 6.57438 2.75973 6.35935 2.87539 6.16969C2.89198 6.14173 2.98983 6.19151 2.98404 6.06845C2.97677 5.88924 2.9246 5.56509 2.85222 5.38818C2.79771 5.25297 2.69851 5.445 2.69896 5.26199C2.6992 5.18162 2.81487 5.30204 2.80838 5.15232C2.80187 4.9987 2.69821 4.63413 2.65218 4.49806C2.60711 4.36177 2.5271 4.46948 2.5167 4.46029C2.4573 4.406 2.32052 4.16673 2.31279 4.14886C2.30067 4.11671 2.28871 4.08538 2.2771 4.05541C2.21914 3.90597 2.15861 3.75889 2.09577 3.63965C2.03396 3.52512 1.97825 3.43487 1.93905 3.38728C1.92535 3.347 1.90739 3.44125 2.13593 3.37186C2.26133 3.27387 2.19236 3.29874 2.1931 3.32808C2.14044 3.48727 2.12654 3.75797 2.1215 3.98605C2.11401 4.46314 2.15218 4.97114 2.23833 5.45432C2.25519 5.5504 2.36342 5.4715 2.36719 5.48601C2.45762 5.79971 2.11503 5.58632 2.04042 5.82205C2.2728 5.75934 2.24654 5.89255 2.30571 6.12393C2.33376 6.23001 2.41717 6.15792 2.42798 6.16664C2.5899 6.30214 2.42668 6.4409 2.39398 6.47542C2.27393 6.60201 2.45307 6.70059 2.3732 6.78614C2.2937 6.87051 2.13497 6.72744 2.16887 6.93895C2.2634 6.98552 2.46176 6.79361 2.52311 6.94942C2.75634 7.55085 2.78108 8.73233 2.85204 9.22922C2.92442 9.73516 2.96915 9.8838 2.99162 10.1807C3.03356 10.7216 3.16674 10.4905 3.30712 10.7988C3.44834 11.108 2.99567 11.0307 2.91383 11.0946C2.83179 11.158 2.93483 11.1908 2.89586 11.2581C2.85682 11.3254 2.77139 11.2121 2.77826 11.3516C2.78508 11.4922 3.01583 11.8199 3.12126 11.8504C3.34361 11.9117 3.52349 11.7042 3.51946 12.0749C3.51909 12.0964 3.39368 12.0515 3.39793 12.1325C3.43295 12.7638 3.55679 13.4072 3.60574 14.0429C3.61238 14.1309 3.46961 14.08 3.472 14.1316C3.49464 14.6603 3.67187 14.4327 3.96976 14.6649C3.63806 14.667 3.47498 14.8632 3.55361 15.2568C3.60018 15.4896 3.73193 15.4206 3.86225 15.551C3.90152 15.59 3.83988 15.7762 3.91227 15.7925C4.14932 15.8469 4.35759 15.6385 4.34784 16.0634C4.34705 16.0822 4.2164 16.0505 4.22234 16.1135C4.25847 16.5135 4.49564 16.5121 4.61612 16.9329C4.71062 17.2624 4.69983 17.881 4.76079 18.2673C4.39053 18.3393 4.5523 18.6778 4.83957 18.7675C4.88345 19.0157 4.95753 19.2809 4.9746 19.524C4.9807 19.6082 4.86122 19.5784 4.85189 19.5913C4.70454 19.7894 4.97767 19.8412 4.99938 19.8921C5.22418 20.4498 5.13841 20.9548 5.44975 21.4645C5.46084 21.4824 5.7282 21.4547 5.57154 21.6439C5.56058 21.6563 5.401 21.5026 5.45047 21.7619C5.49982 22.0206 5.472 22.5424 5.67495 22.8705C5.72396 22.9503 5.98648 23.1203 5.86166 23.3346C5.8446 23.3632 5.76376 23.3549 5.72992 23.3984C5.62957 23.5293 5.86525 23.5368 5.73856 23.6845C5.72966 23.6953 5.71894 23.7068 5.70617 23.719C5.54881 23.8665 5.4475 24.1004 5.56708 24.3655C5.59395 24.4232 5.63256 24.4827 5.68867 24.5449C5.69735 24.5494 5.93036 24.579 5.98037 24.6343C5.96333 24.6889 6.05291 24.5286 6.06924 24.4319C6.09748 24.3221 6.1165 24.2072 6.12173 24.1106C6.12625 24.0183 5.99719 24.0706 5.99582 24.0545C5.98513 23.8486 5.9872 23.6624 5.99661 23.4803C6.00411 23.3334 6.01702 23.1893 6.0307 23.0405C6.05099 22.8199 6.07421 22.5886 6.08447 22.3216C6.08929 22.1983 5.92078 21.8525 6.03404 21.6102C6.15663 21.3432 6.73333 21.5853 6.56199 20.9873C6.49108 20.7452 5.77483 20.4849 6.10376 20.0264C5.95381 19.1909 6.06051 18.3978 5.85409 17.5666C5.84484 17.5291 5.64917 17.4282 5.6431 17.3387C5.63429 17.2059 5.71254 17.1249 5.70866 17.0304C5.69426 16.6321 5.58478 16.2778 5.55735 15.896C5.54661 15.7505 5.63787 15.7921 5.62487 15.6197C5.61157 15.4462 5.48761 15.344 5.51825 15.1037C5.54203 14.9235 5.75137 14.7235 5.75355 14.4882C5.52957 14.5002 5.5181 14.3406 5.43314 14.0585C5.41679 14.0046 5.34527 14.0706 5.33359 14.0455C5.28459 13.9435 5.33948 13.8392 5.28793 13.7421C5.27555 13.7184 5.20051 13.7238 5.18622 13.7049C5.06203 13.544 5.20864 13.2488 5.23376 13.1974C5.32992 13.0034 5.22764 12.925 5.2612 12.7793C5.29473 12.6353 5.36278 12.8422 5.37767 12.6763C5.39445 12.4861 5.39068 12.2682 5.38346 12.0551C5.38402 12.0247 5.38431 11.99 5.3845 11.9553C5.38525 11.8135 5.38348 11.6751 5.3842 11.5489C5.38463 11.4103 5.29234 11.5038 5.29022 11.4839C5.27221 11.1946 5.3691 10.9109 5.22116 10.7394C5.57057 10.6042 5.3316 10.5759 5.30974 10.3497C5.30805 10.3326 5.30757 10.3145 5.30867 10.2953C5.311 10.2547 5.32038 10.209 5.33991 10.158C5.3526 10.1264 5.53654 10.1209 5.54445 10.2445C5.54629 10.2711 5.5441 10.2998 5.53987 10.3304C5.53761 10.3467 5.5348 10.3635 5.53171 10.3809C5.514 10.481 5.48689 10.5986 5.51172 10.7135C5.51714 10.755 5.70649 10.9925 5.72258 11.0228C5.82967 11.2663 5.50773 11.2942 5.48854 11.3071C5.29257 11.4524 5.5219 11.7405 5.54176 11.8149C5.55285 11.8626 5.56144 11.9094 5.56798 11.9554C5.573 11.9906 5.57698 12.0253 5.58019 12.0598L5.57986 12.0458C5.6139 12.2828 5.61037 12.5033 5.66765 12.715C5.71707 12.8989 5.95376 12.9008 5.95957 13.046C5.98129 13.5307 5.66336 13.7328 6.00117 14.1647C6.0737 14.2572 6.32701 14.1329 6.15827 14.5061C6.14776 14.5284 5.98499 14.811 6.12331 14.9491C6.14078 14.9666 6.2187 14.9581 6.22812 14.9825C6.28996 15.1469 6.24045 15.2642 6.29177 15.4451C6.34304 15.6249 6.41442 15.8416 6.41213 16.0533C6.41109 16.1819 6.28082 16.3588 6.25101 16.4232C6.16483 16.6059 6.35896 16.7704 6.24236 16.8901C6.1245 17.0103 5.90612 16.8216 5.85134 17.1097C6.06325 17.0989 6.28234 17.1009 6.49653 17.0963C6.55981 17.7126 6.55657 18.3267 6.62711 18.9467C6.63612 19.0235 6.74587 18.9347 6.75868 19.017C6.81241 19.3646 6.75632 19.6762 6.82152 20.0369C6.8724 20.3159 7.02574 20.6169 7.08086 20.9111C6.83493 21.1066 6.95192 21.5394 6.94524 21.8603C6.94295 21.9725 6.87173 21.9676 6.85254 22.0479C6.78093 22.3504 7.0095 22.2026 7.05057 22.2839C7.21708 22.6173 6.74262 22.673 6.71414 23.0325C6.71265 23.0514 6.71242 23.0711 6.71363 23.0918C6.71359 23.1134 7.01443 23.3818 7.03631 23.4197C7.04999 23.4443 7.05986 23.4642 7.06648 23.4803C7.12385 23.6252 6.93476 23.474 6.92178 23.6114C6.89292 23.897 6.83288 24.0689 6.90195 24.4624C6.90896 24.5259 6.96608 24.6161 6.95207 24.8226C6.94617 24.8777 6.93568 24.9447 6.89422 25.0463C6.86627 25.1083 6.84074 25.168 6.75646 25.2751C6.71131 25.3307 6.6519 25.3929 6.56822 25.4541C6.47144 25.5254 6.32594 25.5992 6.16087 25.6282C5.99628 25.659 5.82124 25.6418 5.6849 25.5973C5.5471 25.5513 5.48354 25.5098 5.4126 25.4613C5.26907 25.3539 5.24652 25.3111 5.19701 25.2482C5.12645 25.1468 5.10364 25.0747 5.09636 25.0228C5.08803 24.9645 5.19785 24.9424 5.18529 24.904C5.12128 24.6676 5.0747 24.6001 4.99002 24.545C4.87531 24.4676 4.72144 24.4502 4.62413 24.3454C4.53211 24.2437 4.53782 24.0912 4.56985 23.9557C4.59847 23.853 4.6443 23.7639 4.66785 23.7302C4.80202 23.5356 4.7679 23.8323 4.78656 23.8369C5.0079 23.8897 4.92448 23.6848 4.90391 23.5187C5.22221 23.4203 5.1506 23.1982 4.88132 23.3467C4.85198 23.3633 4.91118 23.4826 4.90391 23.5187C4.55345 23.4496 4.45578 23.209 4.68988 22.8664C4.79963 22.7059 4.9893 22.7909 4.84084 22.4119C4.77374 22.2401 4.56681 22.3596 4.4708 22.2164C4.25201 21.89 4.35512 21.3758 4.24071 21.0133C4.19929 20.8818 4.10687 21.0397 4.07444 20.9507C3.98822 20.7153 4.03201 20.4801 3.93204 20.2445C3.92285 20.2232 3.80814 20.3057 3.79 20.2297C3.6508 19.6568 3.62314 19.1317 3.49886 18.5313C3.43812 18.2389 3.26006 17.7292 3.21251 17.4273C3.12665 16.8921 3.17591 16.2155 3.04141 15.773C2.95507 15.4873 2.84559 15.577 2.73754 15.4699C2.52848 15.2616 2.73251 14.7692 2.76571 14.7041C2.76676 14.7019 2.8451 14.9477 2.88105 14.8005C2.99569 14.6958 2.76681 14.7068 2.76571 14.7041C2.78705 14.6606 2.71642 14.154 2.67352 14.0562C2.65029 14.0041 2.54176 14.0578 2.53185 14.0303C2.30006 13.3791 2.14658 12.7127 2.07256 12.0096C2.07263 11.9971 2.20152 11.991 2.20008 11.9619C2.18401 11.5603 1.9834 11.3278 1.83569 11.0191C1.68898 10.7159 1.67285 10.4384 1.85155 10.2079C1.7828 9.97004 1.81454 9.59169 1.83651 9.37817C1.85846 9.16496 1.61605 9.17984 1.60839 9.16274C1.36452 8.6203 1.44882 8.27174 1.38065 7.68625C1.34742 7.40055 1.23391 6.85898 1.16682 6.55161C1.115 6.32175 1.14909 6.15828 1.08688 5.94198C1.07855 5.91272 0.978926 5.95654 0.973826 5.94795C0.820693 5.71894 1.08751 5.8047 1.12652 5.74881C1.26779 5.53608 1.34033 5.41094 1.23059 5.10246C1.2046 5.026 0.821964 4.8451 0.790528 4.71208C0.748881 4.52263 0.88344 4.58248 0.839597 4.39485C0.836088 4.3783 0.756152 4.39017 0.753287 4.2704C0.748491 3.96162 0.744623 3.70992 0.801439 3.27525C0.815586 3.18538 0.842827 3.01344 0.907863 2.84188C0.961226 2.70577 1.03315 2.52932 1.24429 2.32907C1.37341 2.204 1.62213 2.06023 1.87577 2.03071C2.00208 2.0135 2.1259 2.01904 2.23373 2.03844C2.31718 2.0536 2.38257 2.07353 2.44519 2.09711C2.94654 2.33437 2.93566 2.45091 3.05354 2.56727C3.15334 2.69701 3.18094 2.74426 3.23942 2.83538C3.29569 2.9274 3.3306 2.74441 3.41371 2.87577C3.41452 2.87707 3.41532 2.8784 3.41614 2.87977C3.5546 3.11533 3.63613 3.31152 3.71028 3.50737C3.85597 3.90126 3.9431 4.26663 3.9945 4.61643C4.0115 4.74133 3.90762 4.68743 3.88936 4.72024C3.78026 4.92331 4.05454 5.09713 4.06746 5.13499C4.37967 6.01917 4.29798 6.74465 4.53333 7.64135C4.54694 7.69066 4.84069 8.03838 4.65979 8.23982C4.64779 8.25338 4.46194 8.44911 4.62467 8.58135C4.63475 8.5891 4.72876 8.47097 4.74148 8.65379C4.75448 8.83853 4.86299 9.1242 4.77473 9.39339C4.74664 9.47573 4.5608 9.69075 4.75275 9.908C4.7661 9.92007 5.18128 10.2516 4.93521 10.4079C4.89468 10.4338 4.61874 10.439 4.78764 10.7101C4.82015 10.761 4.87172 10.6572 4.92373 10.7952C5.00393 11.0088 4.95736 11.3037 5.10318 11.5651C5.12899 11.6107 5.33202 11.792 5.2042 11.9664C5.18418 11.9936 5.08872 11.953 5.08551 12.0394C5.07833 12.2199 5.09255 12.4004 5.10785 12.5868C5.11424 12.6647 5.12075 12.7426 5.1258 12.8206C5.13567 12.9729 5.14013 13.1254 5.12741 13.277C5.11528 13.4233 4.96199 13.3593 4.93262 13.5126C4.90334 13.6661 4.88497 13.9704 4.963 14.1243C5.04115 14.278 5.2671 14.0917 5.30156 14.3272C5.45161 15.3513 5.37072 16.3751 5.40256 17.3964C5.40738 17.5481 5.48896 17.4195 5.50263 17.6436C5.55251 18.4684 5.71247 19.8814 5.55013 20.5957C5.41873 21.1734 5.26438 20.4568 5.21924 20.8952C5.19694 21.1043 5.51304 21.3223 5.52554 21.373C5.6485 21.8582 5.52971 22.2075 5.59673 22.6472C5.61073 22.7366 5.73236 22.6437 5.74301 22.7195C5.78109 22.9861 5.74146 23.2573 5.76947 23.5111C5.78226 23.6219 5.87888 23.5963 5.87876 23.6968C5.8804 23.9487 5.85597 24.1579 5.78472 24.4035C5.77816 24.4254 5.64232 24.2912 5.65359 24.4685C5.67294 24.7589 5.61762 25.1226 5.75909 25.4212C5.80156 25.5067 6.02736 25.4761 5.90465 25.6846C5.8798 25.7267 5.59634 25.7316 5.87525 25.8875C5.90487 25.9094 6.36637 26.1541 6.03552 25.9815C5.98482 25.9643 5.89698 25.9485 5.70804 25.8922C5.52171 25.8296 5.20259 25.8183 5.0213 25.8522C4.97578 25.8602 5.12674 25.6834 4.85103 25.7559C4.80437 25.7718 4.76666 25.7888 4.7368 25.8039C4.49211 25.9426 4.41692 26.0961 4.39463 26.1254C4.37105 26.1647 4.38025 26.1419 4.38765 26.1054C4.41098 26.0059 4.44509 25.8235 4.46242 25.6408C4.47104 25.5469 4.31654 25.6594 4.33393 25.5171C4.38118 25.1215 4.52087 24.6032 4.65438 24.206C4.7034 24.0607 4.78334 24.1875 4.79718 24.1789C5.02003 24.0517 4.79887 23.885 4.79779 23.8264C4.79966 23.4432 4.98553 23.2029 5.04466 22.8658C5.06122 22.7737 4.92689 22.8055 4.92139 22.7847C4.87174 22.5682 5.04245 22.7668 5.09904 22.653C5.25529 22.3462 5.3571 21.9677 5.44282 21.64C5.47533 21.5158 5.29831 21.6123 5.32937 21.5006C5.5094 20.8445 5.74712 20.1897 6.04328 19.5991C6.09851 19.4902 6.17378 19.5984 6.20553 19.583C6.4258 19.4798 6.29879 19.1482 6.2972 19.0893C6.2957 18.8619 6.37693 18.7725 6.44565 18.6273C6.46292 18.5911 6.47934 18.5513 6.49344 18.5048C6.51615 18.4296 6.53996 18.3538 6.56476 18.2775C6.90761 17.2179 7.46766 16.0291 7.90829 15.114C8.52155 13.8395 9.07507 12.8771 9.61728 11.6577C9.65169 11.5808 9.49249 11.6028 9.52109 11.5349C9.8951 10.6638 10.3415 9.84531 10.6966 8.98093C10.7258 8.91039 10.5671 8.96083 10.6102 8.84637C10.6972 8.61285 10.836 8.32381 10.9741 8.10862C11.0417 8.00237 11.0704 8.19511 11.1363 8.08724C11.2882 7.83941 11.4193 7.55511 11.5126 7.2799C11.553 7.15999 11.3662 7.29094 11.4275 7.13939C11.8322 6.12016 12.1765 5.12708 12.4871 4.17024C12.5079 4.10555 12.7524 4.0721 12.7244 3.921C12.6606 3.90369 12.584 3.89691 12.5151 3.88559C12.5605 3.37695 12.5504 2.8992 12.4541 2.46147C12.4538 2.45935 12.4535 2.45735 12.4532 2.45546C12.4331 2.38864 12.5181 2.46726 12.5657 2.43902C12.6087 2.41221 12.4988 2.33128 12.3329 2.32508C12.3268 2.32471 12.3205 2.32437 12.3141 2.32407C11.7618 2.31172 11.2189 2.27862 10.6811 2.24655C10.6101 2.24221 10.7307 2.34843 10.5931 2.34015C9.79596 2.29282 9.03695 2.25873 8.24986 2.14251C8.17249 2.13146 8.21132 1.9737 7.98086 1.99361C7.94077 1.99666 7.59576 2.01511 7.50795 2.05001C7.49618 2.05512 7.56069 2.12651 7.45093 2.12928C6.81809 2.14583 6.15569 2.17035 5.63332 2.29161C5.55101 2.3114 5.61271 2.21533 5.55341 2.22957C5.1656 2.32892 4.96393 2.53989 4.8961 2.74716C4.89631 2.74439 4.89645 2.74157 4.89651 2.73876C4.89787 2.70677 4.88495 2.67988 4.87727 2.68418C4.86022 2.70638 4.86244 2.78682 4.83138 2.82959C4.80487 2.87925 4.76028 2.92329 4.76693 3.02461C4.76627 3.05298 4.9034 3.20261 4.86288 3.25978C4.75775 3.404 4.5454 3.46213 4.44148 3.62428C4.42501 3.65272 4.56453 3.76628 4.53911 3.78983C4.53911 3.78984 4.5391 3.78984 4.5391 3.78985C4.5318 3.79704 4.51082 3.79717 4.46712 3.78482C4.45522 3.78273 4.27571 3.64668 4.20833 3.61942C4.16225 3.60228 4.16253 3.70967 4.07987 3.66061C3.99568 3.60614 3.97286 3.49607 3.83654 3.33704C3.76794 3.25246 3.72707 3.23014 3.67615 3.17552C3.63394 3.11485 3.53449 3.0363 3.53053 2.65231ZM1.93422 8.41509C2.01724 8.21034 1.59746 8.25287 1.72929 8.43719C1.73617 8.44607 1.93023 8.42566 1.93422 8.41509ZM6.26426 18.3502C6.11886 18.6151 6.38553 18.7632 6.49981 18.5753C6.61296 18.3876 6.3078 18.2692 6.26426 18.3502ZM5.87054 15.7841C5.77391 16.0878 6.30095 16.0792 6.16013 15.7797C6.15209 15.7622 5.87608 15.7664 5.87054 15.7841ZM4.62616 2.49187C4.62026 2.49157 4.57254 2.60694 4.5767 2.61187C4.63119 2.69136 4.71665 2.48134 4.62616 2.49187ZM5.49277 13.2445C5.43307 13.3392 5.53305 13.5949 5.60666 13.4749C5.66537 13.3784 5.56625 13.1253 5.49277 13.2445ZM3.46738 7.41266C3.46207 7.4164 3.47456 7.52674 3.50694 7.51944C3.61121 7.4947 3.55678 7.34728 3.46738 7.41266ZM5.73071 8.9411C5.59984 9.57829 5.2118 9.88583 5.40613 9.21499C5.43947 9.093 5.43544 9.49976 5.49625 9.34851C5.60482 9.06835 5.47256 8.84489 5.61698 8.56564C5.64248 8.51439 5.73884 8.90398 5.73089 8.9423C5.73083 8.9419 5.73077 8.9415 5.73071 8.9411ZM2.41605 8.22402C2.42116 8.22097 2.40067 8.06701 2.39456 8.06371C2.24901 8.00301 2.2896 8.31247 2.41605 8.22402ZM3.90672 13.8556C3.89643 13.8647 3.90728 14.2194 3.91793 14.2306C4.13204 14.4039 4.10986 13.6847 3.90672 13.8556ZM4.75226 18.2754C4.93307 18.4059 4.99368 18.5965 4.83959 18.7667C4.81342 18.6024 4.77895 18.4393 4.75226 18.2754Z" fill="black"/>
<path d="M5.03984 36.3965C4.9758 36.4607 4.87002 36.507 4.76911 36.5604C4.73779 36.5771 4.70867 36.5285 4.68443 36.54C4.63647 36.5638 4.62914 36.6169 4.5794 36.6449C4.56256 36.6543 4.50419 36.5878 4.4877 36.5996C4.39671 36.6668 4.36322 36.7721 4.29814 36.8712C4.11253 37.1549 3.99307 37.5183 3.92582 37.9017C3.92501 37.9063 3.92422 37.9109 3.92345 37.9155C3.88084 38.15 3.93603 38.3935 4.03387 38.602C4.09334 38.7288 4.14042 38.8907 4.23366 38.9926C4.23674 38.9959 4.23986 38.9991 4.24301 39.0023C4.26159 39.0197 4.28314 39.033 4.30782 39.0405C4.32335 39.045 4.38575 38.9685 4.39362 38.9641C4.50881 38.8877 4.3623 39.0311 4.37018 39.0672C4.39909 39.2089 4.5761 39.289 4.75713 39.2732C4.8349 39.2667 4.81118 39.046 4.8562 39.173C4.85974 39.1817 4.81551 39.2928 4.83388 39.3076C4.85796 39.3269 4.90096 39.3319 4.94099 39.3343C4.94841 39.3347 4.95571 39.3351 4.96276 39.3355C4.98391 39.3366 5.00199 39.3376 5.01381 39.3414C5.08422 39.3637 5.09631 39.3628 5.16014 39.3631C5.24508 39.3635 5.34088 39.4145 5.4169 39.3668C5.43215 39.3561 5.39721 39.2314 5.41676 39.2022C5.43615 39.1732 5.49072 39.1622 5.5175 39.1843C5.54414 39.2067 5.56383 39.3129 5.5737 39.3349C5.66609 39.5207 5.66027 39.2102 5.6602 39.1991C5.69484 39.1405 5.73341 39.1028 5.77971 39.0747C5.78553 39.0711 5.79148 39.0677 5.79757 39.0644C5.90602 39.0047 6.06235 38.9782 6.1738 38.8712C6.29935 38.7503 6.37855 38.5674 6.4782 38.4431C6.59704 38.2958 6.7513 38.2002 6.81334 38.0328C6.81964 38.0157 6.64715 37.9542 6.65359 37.9346C6.65519 37.9297 6.65678 37.9248 6.65837 37.9199C6.66101 37.9117 6.66363 37.9036 6.66623 37.8956C6.72562 37.7081 6.78133 37.5545 6.89852 37.3795C6.9111 37.3599 7.07536 37.3886 7.09778 37.3671C7.24181 37.2562 7.49291 36.8665 6.78275 37.0389C6.78544 36.98 6.78099 36.9144 6.82121 36.8199C6.82733 36.8055 6.83445 36.7903 6.84276 36.7743C6.84839 36.7638 6.85452 36.7528 6.86123 36.7414C6.91242 36.6488 7.09064 36.5901 6.98722 36.5759C6.96419 36.5732 6.84727 36.6812 6.82372 36.6721C6.72711 36.637 6.69608 36.5261 6.57146 36.5211C6.54622 36.5207 6.45542 36.6291 6.43485 36.6446C6.27237 36.7738 6.43962 36.4708 6.43742 36.4382C6.44597 36.212 6.3115 36.2121 6.20662 36.1521C6.1818 36.1381 6.12676 36.3214 6.10174 36.3149C5.97469 36.2803 5.86996 36.2248 5.78741 36.1242C5.78403 36.12 5.78288 36.1114 5.78312 36.1C5.7836 36.0495 5.81479 35.9449 5.80702 35.9294C5.79825 35.9129 5.78872 35.9116 5.77953 35.9195C5.74101 35.9514 5.71554 36.1319 5.69026 36.0785C5.68298 36.0649 5.68961 35.9292 5.68836 35.9142C5.65738 35.6791 5.63791 36.0123 5.63753 36.0197C5.59143 36.1216 5.4636 35.7949 5.37617 35.8843C5.36896 35.8943 5.46086 36.0404 5.43987 36.0575C5.35042 36.1331 5.22331 36.2195 5.05423 36.3336C5.04064 36.3428 5.02689 36.3519 5.01281 36.3613C4.93767 36.412 4.85959 36.4611 4.77801 36.5098C4.73318 36.5372 4.64895 36.4375 4.63454 36.4308C4.40302 36.3371 4.65482 36.5478 4.65706 36.5665C4.665 36.7131 4.36601 36.6923 4.67226 36.9401C4.32021 37.3503 4.41451 37.85 4.14709 38.3694C4.14417 38.3766 3.98963 38.3865 3.9846 38.4014C3.94128 38.5332 4.05466 38.5318 4.23335 38.5278C4.29934 38.5263 4.37467 38.5245 4.45509 38.5256C4.45755 38.5247 4.46001 38.5239 4.46246 38.523C4.52588 38.4821 4.2 38.6211 4.18584 38.6499C4.10949 38.7089 3.90144 38.8043 3.88839 38.8189C3.8114 38.9721 4.42997 38.5345 4.43756 38.5439C4.43763 38.5458 4.33209 38.6359 4.32454 38.6481C4.30258 38.6883 4.35171 38.6596 4.33122 38.7055C4.28225 38.8101 4.08722 39.1237 4.28465 39.0004C4.30879 38.9829 4.52991 38.62 4.57297 38.6697C4.58933 38.6909 4.70924 38.7435 4.73705 38.784C4.76314 38.8251 4.68527 38.9406 4.68531 38.9471C4.72708 39.1597 4.65902 39.2126 4.6293 39.4874C4.60686 39.7626 4.79937 39.1559 4.84589 39.0969C4.88379 39.049 4.91667 39.1532 4.93378 39.2239C4.93749 39.2398 4.94018 39.254 4.94156 39.2643C4.94928 39.3208 4.89589 39.3954 4.90806 39.4297C4.91474 39.4478 4.92143 39.4612 4.92802 39.4703C5.00468 39.5734 5.05494 39.1351 5.11186 39.0541C5.23965 38.8395 5.21694 39.3132 5.31606 39.3693C5.34032 39.3839 5.32895 39.2753 5.35112 39.267C5.43513 39.2345 5.48965 39.3827 5.58444 39.2445C5.60317 39.2219 5.65204 38.9355 5.71998 39.1368C5.7305 39.1657 5.72187 39.2848 5.76261 39.3066C5.82376 39.3396 5.93365 39.348 5.98722 39.2967C6.0264 39.259 5.93616 39.0805 6.0027 39.1276C6.03283 39.1484 6.01136 39.2691 6.06765 39.2983C6.12451 39.3279 6.24686 39.2901 6.29118 39.272C6.33616 39.2541 6.26747 39.1219 6.26839 39.1113C6.27409 39.0506 6.33306 38.9567 6.34017 38.9542C6.68861 38.8149 7.1406 38.8586 7.4429 38.5733C7.46621 38.5513 7.36607 38.432 7.36878 38.4273C7.42328 38.3159 7.57304 38.7071 7.71337 38.7799C7.53335 38.5235 7.60185 38.5469 7.64675 38.4754C7.66818 38.4407 7.5834 38.3516 7.5793 38.3394C7.51964 38.1575 7.68449 38.3325 7.72077 38.3665C7.85338 38.4923 7.76377 38.2967 7.85315 38.3798C7.94276 38.4616 7.99728 38.6391 8.05825 38.5925C8.00963 38.4894 7.79378 38.2841 7.81105 38.2131C7.85153 38.0406 8.04876 37.9593 8.22492 37.892C8.25002 37.8825 8.27466 37.8733 8.29831 37.8643C8.35755 37.8451 8.40968 37.8237 8.44191 37.8004C8.56511 37.7093 8.57856 37.6551 8.66553 37.6096C8.82174 37.5209 8.60757 37.4381 8.56901 37.3049C8.52507 37.1736 8.97777 37.4962 9.08694 37.5452C9.1978 37.5917 9.10146 37.5139 9.16849 37.5288C9.23626 37.5426 9.28312 37.6236 9.33072 37.5908C9.38098 37.5559 9.25337 37.3346 9.14222 37.2695C8.91081 37.1283 8.63614 37.0583 8.76166 37.0057C8.76925 37.0023 8.90025 37.0774 8.92255 37.061C9.0965 36.9245 9.15429 36.7293 9.26727 36.5372C9.28305 36.51 9.45394 36.5423 9.46512 36.5249C9.57696 36.3317 9.28267 36.393 8.95462 36.3607C9.34584 36.328 9.6011 36.26 9.60726 36.1034C9.60772 36.0892 9.60594 36.0747 9.60165 36.0598C9.59474 36.0356 9.5793 36.0213 9.55851 36.0141C9.49092 35.9934 9.36439 36.0392 9.25512 36.0413C9.21324 36.044 9.30617 35.9368 9.22136 35.9661C8.94838 36.0697 8.68127 36.2534 8.75219 36.1193C8.75515 36.1124 8.89721 36.0405 8.89714 36.0223C8.89039 35.8989 8.64084 36.0739 8.56266 36.0464C8.50511 36.0268 8.50842 35.7987 8.42238 35.721C8.65576 35.2946 8.47912 35.3314 8.31336 35.6261C8.25211 35.5855 8.17189 35.5773 8.11555 35.5124C8.09572 35.49 8.15113 35.36 8.15239 35.3445C8.16566 35.1004 8.04388 35.4052 8.02602 35.4138C7.82433 35.4912 7.70709 35.2238 7.4992 35.4447C7.49136 35.4527 7.45082 35.787 7.42667 35.538C7.4245 35.5208 7.49792 35.3731 7.41349 35.3542C7.33124 35.3352 7.16993 35.1465 7.0443 35.3018C7.0133 35.339 6.94239 35.6123 6.88162 35.3995C6.8733 35.3706 6.88061 35.2739 6.86817 35.2203C6.82659 35.0496 6.81416 35.3905 6.76155 35.1026C6.70918 34.8147 6.5963 34.6017 6.47607 34.8093C6.47221 34.8154 6.4588 35.0867 6.41871 35.0853C6.35483 35.0828 6.25879 35.0344 6.19143 35.0426C6.15924 35.0466 6.19608 35.2115 6.19079 35.2151C6.05659 35.2906 5.94005 35.2599 5.80582 35.2212C5.80286 35.2202 5.79989 35.2193 5.79691 35.2183C5.73608 35.199 5.66783 35.1822 5.59211 35.1825C5.54241 35.1844 5.52533 35.4291 5.38369 35.3001C5.21807 35.1685 4.93408 34.392 4.78316 34.7213C4.71289 34.8708 5.23594 35.7134 4.7984 35.4218C4.7211 35.5849 4.58672 35.6679 4.46924 35.779C4.46774 35.7805 4.46624 35.7819 4.46475 35.7833C4.36484 35.877 4.28825 36.0073 4.29637 36.1689C4.29761 36.1873 4.47553 36.3033 4.46049 36.3233C4.43871 36.3568 4.34493 36.3555 4.33236 36.3867C4.27987 36.5183 4.34792 36.6413 4.38052 36.7561C4.39578 36.801 4.33398 36.8124 4.36316 36.8679C4.39617 36.9235 4.47455 36.9107 4.50324 36.9917C4.50415 36.994 4.50496 36.9965 4.50567 36.9992C4.50613 37.001 4.50655 37.0029 4.50692 37.0048C4.51912 37.071 4.4855 37.2112 4.54609 37.2754C4.63374 37.1624 4.67791 37.2001 4.78316 37.2206C4.80345 37.2244 4.8117 37.1713 4.82254 37.1709C4.86602 37.1674 4.87452 37.2198 4.918 37.2121C4.92856 37.2103 4.95242 37.1678 4.96225 37.1638C5.04479 37.1276 5.07842 37.2668 5.08564 37.2913C5.11135 37.3843 5.16576 37.3395 5.19809 37.3854C5.23141 37.4315 5.14936 37.434 5.19522 37.4734C5.2903 37.5548 5.43752 37.6058 5.55016 37.651C5.59537 37.6688 5.58745 37.5962 5.59446 37.5974C5.69334 37.6173 5.76512 37.7168 5.86083 37.6134C5.8136 37.9521 5.92823 37.6031 6.0402 37.713C6.04898 37.7218 6.01091 37.8762 5.96233 37.884C5.91358 37.8918 5.86775 37.8233 5.79888 37.8372C5.78261 37.8405 5.65499 37.9524 5.64086 37.9567C5.53307 37.9922 5.60348 37.7655 5.60384 37.7518C5.6041 37.6023 5.45381 37.7158 5.42464 37.7161C5.29248 37.7186 5.20849 37.6475 5.09906 37.6383C5.02758 37.6317 4.95573 37.7693 4.90738 37.7411C4.74197 37.6427 4.79699 37.4285 4.54296 37.4902C4.48737 37.5006 4.42577 37.6675 4.3748 37.4657C4.37007 37.4522 4.35808 37.2885 4.25452 37.2936C4.24115 37.2941 4.20669 37.3296 4.19469 37.3234C4.19234 37.3222 4.19005 37.3209 4.18781 37.3196C4.18561 37.3184 4.18346 37.3171 4.18135 37.3158C4.11167 37.2714 4.096 37.2093 4.01338 37.1477C3.92591 37.0825 3.79869 36.9823 3.74097 36.8452C3.70327 36.7614 3.78073 36.6385 3.80254 36.6022C3.86221 36.5005 3.68223 36.3721 3.79849 36.3231C3.92388 36.2906 4.10924 36.4179 4.20589 36.3217C3.99441 36.2639 3.77603 36.1934 3.55973 36.1213C3.54604 35.76 3.67901 35.4831 3.83253 35.2752C3.83421 35.273 3.83589 35.2707 3.83756 35.2684C3.86391 35.232 3.88978 35.1941 3.91434 35.1545C3.93292 35.1241 3.79108 35.0491 3.80849 35.0124C3.88453 34.8554 4.05947 34.8205 4.15355 34.651C4.22585 34.5196 4.23884 34.258 4.35838 34.1075C4.64398 34.3534 4.78199 34.1126 4.98156 34.0624C5.04889 34.0457 5.0812 34.143 5.13577 34.157C5.33894 34.2132 5.15961 33.9201 5.19421 33.8517C5.33398 33.6125 5.50288 34.0789 5.65853 34.2244C5.66427 34.2296 5.67005 34.2344 5.67587 34.2387C5.69565 34.2618 5.71618 34.2734 5.73792 34.2678C5.74527 34.266 5.79406 33.8467 5.80602 33.8196C5.87673 33.6437 5.83818 33.9596 5.89607 33.9835C6.00282 34.0274 6.08127 34.1178 6.18909 33.9877C6.22014 33.9493 6.28595 33.6874 6.36955 33.88C6.38042 33.9052 6.38452 34.0409 6.39229 34.0483C6.52904 34.1721 6.50933 33.747 6.58096 33.5991C6.65453 33.4512 6.78712 33.7418 6.8122 33.8263C6.87996 34.0443 6.76556 33.9209 6.76274 33.9427C6.73013 34.1998 6.81357 34.1532 6.87805 34.1741C6.89284 34.5916 6.97756 34.5661 6.94495 34.1943C6.941 34.1537 6.89107 34.193 6.87805 34.1741C6.92807 33.7635 7.04194 33.7105 7.14653 34.0961C7.1944 34.2771 7.13912 34.4839 7.29507 34.4137C7.36654 34.3826 7.35456 34.0939 7.42511 34.0196C7.5907 33.8505 7.76737 34.1382 7.92999 34.1215C7.99114 34.1158 7.95847 33.951 8.0023 33.942C8.12093 33.9185 8.19594 34.0537 8.3223 34.0215C8.33421 34.0185 8.34633 33.8519 8.3839 33.8588C8.67189 33.9113 8.89386 34.094 9.19852 34.2559C9.34469 34.33 9.67053 34.4367 9.81155 34.5928C10.0684 34.8562 10.1183 35.3536 10.272 35.5798C10.3422 35.6815 10.4242 35.678 10.513 35.6747C10.5592 35.6764 10.6068 35.6789 10.6545 35.703C10.7014 35.7266 10.7322 35.7621 10.7492 35.8023C10.836 36.0087 10.5779 36.2655 10.5289 36.2938C10.5283 36.2945 10.4735 36.1302 10.3982 36.2286C10.2276 36.2943 10.5279 36.2906 10.5289 36.2938C10.4972 36.3274 10.454 36.6376 10.4735 36.6946C10.4869 36.7278 10.643 36.7241 10.6468 36.7421C10.732 37.1733 10.6217 37.5693 10.3839 37.8651C10.3781 37.8695 10.232 37.7908 10.2207 37.8016C10.0585 37.9468 10.1677 38.1475 10.1616 38.3573C10.156 38.5649 10.022 38.6604 9.74358 38.5611C9.68567 38.6801 9.46595 38.7308 9.34156 38.746C9.218 38.761 9.41229 38.9983 9.40871 39.0098C9.39477 39.0582 9.37654 39.0997 9.35515 39.1355C9.34143 39.1663 9.32449 39.191 9.30504 39.2113C9.21446 39.3054 9.0682 39.3024 8.92731 39.3853C8.83221 39.4412 8.6825 39.6053 8.60065 39.7019C8.53721 39.7785 8.44832 39.7513 8.39965 39.8381C8.39294 39.8499 8.47771 39.9579 8.4775 39.9643C8.48047 40.1574 8.34086 39.8493 8.29136 39.8101C8.11196 39.6668 8.01568 39.5911 7.96236 39.7424C7.95107 39.7766 8.11937 40.2365 8.08302 40.2895C8.03607 40.3571 7.97611 40.1928 7.92956 40.2663C7.92545 40.2724 7.97791 40.3653 7.93347 40.384C7.72661 40.4726 7.47765 40.5245 7.2571 40.6264C7.22648 40.64 7.3304 40.7803 7.28618 40.8029C7.07865 40.9086 6.82067 40.9892 6.56483 40.9722C6.5016 40.9674 6.5098 40.8432 6.48886 40.8122C6.36581 40.6237 6.32658 40.948 6.3062 40.9579C5.87397 41.1897 5.48018 40.9447 4.94394 41.0022C4.92117 41.0086 4.61037 41.2883 4.57369 40.9817C4.57242 40.9706 4.56416 40.8739 4.53713 40.8155C4.52365 40.7703 4.49762 40.7511 4.44423 40.8236C4.44319 40.825 4.44213 40.8265 4.44106 40.828C4.43967 40.8299 4.43857 40.8368 4.43727 40.8464C4.43324 40.8758 4.42752 40.9316 4.40439 40.9538C4.39364 40.9641 4.37909 40.9671 4.35909 40.9568C4.2838 40.9176 4.1125 40.9663 4.05191 40.7663C4.03041 40.7023 4.06185 40.4029 3.85375 40.5637C3.84819 40.5802 3.4117 40.9541 3.50817 40.5911C3.52429 40.5308 3.73125 40.2109 3.48226 40.2894C3.43208 40.3027 3.44118 40.4107 3.33081 40.403C3.15566 40.3858 3.04978 40.183 2.74865 40.1138C2.70113 40.1095 2.34626 40.1066 2.40213 39.8254C2.41249 39.7837 2.54998 39.7606 2.51159 39.6717C2.439 39.4989 2.35647 39.3123 2.29931 39.1087C2.28797 39.0702 2.27666 39.0316 2.26688 38.9926C2.24202 38.8936 2.22736 38.7925 2.24903 38.6909C2.26732 38.6075 2.48103 38.6164 2.5259 38.5331C2.57041 38.4489 2.61053 38.2992 2.51059 38.226C2.41028 38.1502 2.07849 38.253 2.04634 38.1243C1.911 37.5513 2.19275 37.0306 2.3762 36.552C2.40414 36.4797 2.26783 36.5009 2.30286 36.3896C2.41841 35.9815 2.68585 35.245 3.12044 35.1201C3.45662 35.0262 3.37571 35.4015 3.56734 35.2931C3.60321 35.2736 3.58595 35.2096 3.55387 35.1358C3.5255 35.0687 3.48514 34.9938 3.45817 34.9393C3.43918 34.901 3.42654 34.8731 3.4285 34.866C3.50808 34.5771 3.78086 34.5596 3.97214 34.3418C4.01397 34.2957 3.86675 34.1986 3.90588 34.1595C4.04207 34.0228 4.26343 33.9738 4.43942 33.8759C4.51922 33.8316 4.45342 33.7216 4.5394 33.6961C4.74482 33.6359 4.95213 33.6314 5.17099 33.7122C5.18908 33.72 5.10367 33.8972 5.24533 33.8775C5.48083 33.8462 5.74862 33.9565 5.9958 33.8613C6.02182 33.8512 6.04367 33.81 6.06724 33.7696C6.10025 33.711 6.13776 33.6539 6.18902 33.6976C6.20399 33.7107 6.21996 33.7329 6.23643 33.7669C6.26015 33.8149 6.15133 34.1501 6.37343 33.8868C6.40374 33.8393 6.80105 33.5194 6.83759 33.8166C6.84774 33.8941 6.81922 34.1919 6.89759 34.1749C6.90924 34.1719 6.93496 34.0113 6.99516 34.0193C7.20785 34.0515 7.39 34.1627 7.59461 34.2281C7.65015 34.246 7.66431 34.0616 7.74637 34.0943C7.97364 34.1847 8.19494 34.4023 8.33714 34.6028C8.38955 34.6769 8.25029 34.7354 8.24514 34.7508C8.15002 34.9932 8.41945 34.8002 8.45938 34.8133C8.6959 34.8919 8.69155 35.1254 8.84772 35.274C8.89112 35.3169 8.99525 35.1928 9.01365 35.1947C9.20058 35.2265 8.91297 35.3033 8.93132 35.3871C8.93775 35.4182 8.9455 35.4488 8.95436 35.4791C8.96339 35.5102 8.97351 35.5408 8.9845 35.5709C9.04344 35.7319 9.12817 35.8843 9.20164 36.0321C9.23851 36.1069 9.3739 35.9527 9.40556 36.0234C9.59751 36.445 9.65342 36.9417 9.5452 37.3574C9.52454 37.4355 9.38715 37.3848 9.35517 37.4005C9.13222 37.4999 9.41975 37.6628 9.44321 37.706C9.55362 37.8848 9.4211 37.9348 9.41508 38.0776C9.40031 38.3937 9.29952 38.7249 9.15006 39.0179C9.14007 39.0375 9.12989 39.057 9.11953 39.0763C8.94046 39.4098 8.71048 39.6742 8.5066 39.879C7.98412 40.3851 7.52492 40.6082 6.90426 40.9715C6.86951 40.9905 6.95247 41.0803 6.95742 41.1205C6.95824 41.1277 6.95644 41.1334 6.95083 41.1368C6.93953 41.1433 6.92818 41.1497 6.91678 41.1559C6.45091 41.4206 5.77786 41.4818 5.23462 41.4478C5.1885 41.4452 5.25306 41.594 5.17712 41.5934C5.02058 41.5929 4.83983 41.5442 4.72068 41.4676C4.66285 41.4308 4.76059 41.3384 4.7036 41.3043C4.68097 41.2906 4.65858 41.2778 4.63622 41.2659C4.62573 41.2603 4.61511 41.2549 4.60437 41.2496C4.50672 41.2019 4.39959 41.1686 4.28667 41.146C4.2214 41.1328 4.28461 41.2952 4.20021 41.2666C3.72657 41.1155 3.08002 40.7705 2.78082 40.153C2.7754 40.1412 2.77011 40.1295 2.76494 40.1176C2.72606 40.0284 2.6965 39.9377 2.67532 39.8462C2.66487 39.7999 2.85031 39.6466 2.7785 39.592C2.71953 39.6172 2.65319 39.654 2.59168 39.6843C2.3091 39.0347 2.36795 38.3625 2.45348 37.7597C2.45439 37.7537 2.45529 37.7477 2.45618 37.7418C2.47664 37.6046 2.50068 37.4661 2.52773 37.3272C2.53331 37.2987 2.4267 37.3308 2.43723 37.2749C2.49827 36.9557 2.55992 36.6214 2.78786 36.3282C2.81043 36.2997 2.96346 36.3832 2.97994 36.2813C2.9819 36.2634 3.02712 36.1153 3.01372 36.0613C3.01133 36.0536 2.92543 36.0419 2.94761 35.9949C3.07802 35.7222 3.28983 35.4538 3.55415 35.2626C3.59668 35.2322 3.61846 35.3322 3.64874 35.3118C3.85798 35.1704 4.05321 34.9502 4.30988 34.9091C4.47825 34.8857 4.48828 35.0483 4.61566 35.1534C4.6332 35.1681 4.71452 35.1401 4.74746 35.2199C4.82934 35.4197 4.88043 35.6526 4.97263 35.8637C4.98747 35.8988 5.02086 35.8626 5.03443 35.9032C5.03443 35.9032 5.03443 35.9032 5.03444 35.9032C5.03843 35.9151 5.04058 35.9337 5.0408 35.9624C5.04035 35.9708 5.00872 36.0247 5.01408 36.0666C5.01768 36.0954 5.06208 36.1716 5.06267 36.2101C5.06419 36.2483 5.02081 36.1873 5.01765 36.2354C5.01603 36.2837 5.06772 36.3684 5.03984 36.3965ZM8.82578 38.7581C8.67872 38.687 9.00653 39.1166 8.98737 38.9663C8.98605 38.9585 8.83317 38.7615 8.82578 38.7581ZM4.07952 35.647C4.2167 35.6657 4.19908 35.5939 4.12597 35.5111C4.09292 35.4744 4.04826 35.4369 4.00027 35.4101C3.97144 35.394 3.94141 35.3818 3.91225 35.3763C3.72545 35.348 4.00801 35.6425 4.07952 35.647ZM4.18631 36.8763C4.21522 36.7348 3.81793 36.8211 3.99588 36.9506C4.00658 36.958 4.18589 36.8851 4.18631 36.8763ZM4.33249 35.3462C4.33543 35.3489 4.38948 35.3211 4.38883 35.317C4.36924 35.2158 4.25603 35.2743 4.33249 35.3462ZM4.9916 37.4308C4.98222 37.3777 4.8768 37.3797 4.88736 37.4466C4.89634 37.5011 5.00412 37.4977 4.9916 37.4308ZM5.29549 39.6331C5.29502 39.6251 5.25648 39.614 5.25237 39.6594C5.23937 39.8061 5.30288 39.7702 5.29549 39.6331ZM6.4181 37.9694C6.20923 37.8868 6.16721 37.59 6.38758 37.6961C6.42759 37.7153 6.27044 37.7467 6.31591 37.7875C6.39928 37.8618 6.51718 37.7241 6.58816 37.8426C6.60094 37.8642 6.42987 37.9747 6.41761 37.9696C6.41777 37.9695 6.41794 37.9695 6.4181 37.9694ZM8.38873 38.2768C8.38322 38.2721 8.33741 38.2999 8.3408 38.3062C8.42421 38.459 8.51813 38.4019 8.38873 38.2768ZM3.98381 38.2642C3.99845 38.26 4.00663 38.1495 3.99275 38.1462C3.70158 38.0928 3.68679 38.3455 3.98381 38.2642ZM8.42693 35.7088C8.29883 35.8574 8.25547 35.8623 8.31347 35.6264C8.35141 35.6562 8.39304 35.6778 8.42693 35.7088Z" fill="black"/>
</svg>
