<svg width="55" height="78" viewBox="0 0 55 78" fill="none" xmlns="http://www.w3.org/2000/svg">
<path d="M25.3774 14.5388C25.5158 14.585 25.6668 14.5745 25.7974 14.5093C25.9279 14.4442 26.0273 14.3299 26.0736 14.1916C26.1198 14.0532 26.1092 13.9022 26.0441 13.7716C25.979 13.6411 25.8647 13.5417 25.7264 13.4955C24.0974 12.9386 22.2929 12.9746 20.6775 13.447C20.0524 13.6257 19.4479 13.8617 18.8682 14.1369C18.8563 14.1425 18.8444 14.1482 18.8325 14.1539C17.0556 15.0286 15.8493 16.5298 14.8032 17.982C14.7916 17.9984 14.7799 18.0149 14.7683 18.0314C13.7725 19.4252 13.474 21.2073 13.5545 22.7952C13.5556 22.8222 13.5568 22.8491 13.558 22.8758C13.6684 24.5608 14.5781 25.8185 15.3772 26.8806C15.3959 26.9049 15.4147 26.9291 15.4335 26.9533C20.2365 30.8698 25.3621 29.223 30.1051 29.1517C30.119 29.1505 30.1329 29.1494 30.1468 29.1482C34.4853 28.5096 35.9276 24.549 37.5221 21.909C37.5325 21.8904 37.5427 21.8718 37.5528 21.8531C39.1217 18.8763 37.8559 15.8091 37.0791 13.4413C37.0652 13.4 37.0506 13.3592 37.0353 13.3189C36.3939 11.7059 35.0013 11.0101 33.9819 10.4543C33.9449 10.4348 33.9076 10.416 33.87 10.3976C28.2045 8.82376 24.0147 11.48 19.618 13.0495C19.5935 13.0598 19.569 13.0701 19.5448 13.0806C17.6221 13.8367 16.4991 15.7918 15.7828 17.2565C15.7672 17.2856 15.7518 17.3148 15.7368 17.3441C14.8679 19.0754 15.0491 20.9391 15.38 22.5397C15.3855 22.5652 15.3913 22.5906 15.3972 22.616C15.9044 24.7712 17.5641 26.2719 19.1746 27.2426L19.443 27.3583C19.4601 27.3631 19.4773 27.3679 19.4945 27.3726C21.3184 27.8767 23.2255 28.1046 25.1336 28.014C26.1494 27.9629 27.1612 27.8301 28.1773 27.5481L28.2372 27.5305C28.2408 27.5292 28.2445 27.5279 28.2481 27.5266C28.9322 27.2899 29.5282 26.7895 30.0212 26.3845C30.1411 26.2883 30.2213 26.1383 30.2505 25.9776C30.2792 25.8163 30.2546 25.6576 30.1757 25.5261C30.0968 25.3946 29.9684 25.2982 29.8125 25.2477C29.657 25.1978 29.4869 25.1979 29.3456 25.2584C28.7483 25.5222 28.2074 25.6317 27.6708 25.789C27.6679 25.7899 27.665 25.7907 27.6621 25.7916L27.722 25.774C26.8838 25.962 25.9845 26.03 25.0903 26.0232C23.403 26.0075 21.7156 25.7216 20.077 25.2685C20.0615 25.2642 20.0461 25.2599 20.0306 25.2556L20.2989 25.3712C18.8974 24.5358 17.6298 23.5066 17.2374 22.1435C17.2327 22.1272 17.228 22.1108 17.2234 22.0944C16.8374 20.6891 16.6254 19.2088 17.2007 18.0946C17.2105 18.0754 17.2205 18.0564 17.2308 18.0374C18.0206 16.4674 18.8957 15.2986 20.2594 14.7874C20.2771 14.7803 20.295 14.7733 20.3129 14.7664C24.463 13.2465 29.4611 11.261 32.921 12.3469C32.9395 12.3559 32.9575 12.365 32.9752 12.3742C33.9904 12.8889 34.8409 13.4286 35.0653 14.0672C35.0717 14.0839 35.0779 14.1008 35.0837 14.1178C35.9495 16.5586 36.7481 19.0316 35.7259 20.8647C35.7194 20.8769 35.7127 20.8891 35.706 20.9013C34.1809 23.6833 32.5383 26.8875 29.9696 27.125C29.956 27.1263 29.9423 27.1275 29.9287 27.1287C25.4349 27.4191 19.7362 28.1942 16.9663 25.755C16.9484 25.7323 16.9306 25.7096 16.9129 25.687C16.1362 24.6976 15.4162 23.7157 15.3122 22.7469C15.3098 22.7237 15.3075 22.7004 15.3052 22.677C15.1629 21.2983 15.3045 19.9499 15.9877 18.8325C15.9978 18.816 16.0079 18.7995 16.0179 18.783C16.9124 17.3305 17.8775 15.845 19.3072 15.1463C19.3181 15.1411 19.3291 15.1359 19.34 15.1307C19.8721 14.878 20.4207 14.6645 20.9798 14.5048C22.4282 14.0838 23.9705 14.0601 25.3774 14.5388Z" fill="black"/>
<path d="M21.9185 29.861C21.8158 29.9637 21.7581 30.1029 21.7581 30.2482C21.7581 30.3934 21.8158 30.5327 21.9185 30.6354C22.0212 30.7381 22.1605 30.7958 22.3058 30.7958C22.451 30.7958 22.5903 30.7381 22.693 30.6354C22.6964 30.6314 22.7024 30.6282 22.6773 30.6477C22.6597 30.6575 22.6551 30.6753 22.5401 30.7171C22.4812 30.7303 22.3482 30.7883 22.1211 30.6742C21.9135 30.5539 21.8752 30.3804 21.863 30.3381C21.8304 30.1233 21.859 30.1737 21.8542 30.1546C21.855 30.1509 21.8532 30.159 21.8504 30.1687C21.8382 30.2112 21.8141 30.2791 21.7897 30.3437C21.7399 30.4755 21.6829 30.615 21.6256 30.7531C21.5098 31.0313 21.3898 31.3098 21.2677 31.5915C21.2612 31.6065 21.2547 31.6215 21.2481 31.6367C20.78 32.7166 20.2928 33.7859 19.7923 34.8479C18.3675 37.8722 16.8367 40.843 15.3799 43.8407C15.3602 43.8814 15.3404 43.922 15.3206 43.9627C13.582 47.6862 11.7792 51.4306 11.4733 55.8454C11.4708 55.9536 11.4709 56.0668 11.4737 56.175C11.4689 56.9085 12.0203 57.5353 12.4981 57.7856C12.6351 57.8643 12.7725 57.9268 12.9093 57.9783C16.2294 58.6679 18.6839 57.963 21.447 57.837C21.5793 57.8254 21.7131 57.8138 21.8485 57.8023C25.085 57.5245 28.3114 57.3168 31.5289 57.1028C31.709 57.0908 31.8878 57.0791 32.0681 57.0674C36.1057 56.7002 39.5601 56.9073 44.2621 55.7082C44.3935 55.6341 44.5577 55.5595 44.7873 55.2933C44.9118 55.1399 45.0451 54.9236 45.0883 54.6034C45.1281 54.2847 45.0491 54.0198 44.9514 53.8275C44.9146 53.7866 44.7881 53.4739 44.6738 53.2374C44.5563 52.9898 44.4295 52.7475 44.3018 52.5129C44.0445 52.0402 43.7832 51.5924 43.5447 51.1291C43.4781 51 43.4112 50.8717 43.3419 50.74C41.6308 47.5249 39.7971 44.4083 37.8797 41.3172C37.7761 41.151 37.6711 40.9836 37.5666 40.8181C35.5595 37.6321 33.4557 34.4863 31.2994 31.4241C31.2333 31.328 31.1645 31.227 31.1065 31.1387C31.0737 31.089 31.0472 31.0476 31.0238 31.0092C31.0146 30.994 31.0023 30.9729 31.0012 30.9701C31.0001 30.968 31.0016 30.9695 31.0101 30.9872C31.0101 31.0135 31.056 30.9897 31.0822 31.3231C31.0821 31.3196 31.085 31.3352 31.0745 31.3952C31.0659 31.4346 31.0516 31.5244 30.968 31.6599C30.9221 31.7267 30.8773 31.805 30.713 31.918C30.5626 32.0198 30.355 32.0682 30.201 32.0584C29.9077 32.0293 29.8754 31.9724 29.7999 31.9356C29.7369 31.8946 29.7266 31.8817 29.714 31.8714C29.691 31.8503 29.6952 31.8533 29.7003 31.8604C29.7315 31.8991 29.807 32.0119 29.8641 32.1059C29.9923 32.3148 30.1257 32.5544 30.2528 32.7877C30.5114 33.2638 30.7666 33.7561 31.0216 34.2473C31.5318 35.2325 32.0441 36.2244 32.5771 37.2128C33.6411 39.1838 34.7703 41.1402 36.1016 42.9972L36.122 43.0247C36.1402 43.0483 36.1582 43.0719 36.1762 43.0954C36.5824 43.6259 36.9977 44.1469 37.4062 44.6647C38.285 45.7887 39.1397 46.8567 39.7462 48.1321L39.8065 48.2444C39.8102 48.2495 39.8139 48.2547 39.8177 48.2597C40.1477 48.6994 40.6299 48.7808 40.9644 48.8874C41.0461 48.913 41.1473 48.903 41.2382 48.8713C41.3296 48.839 41.4031 48.7875 41.4503 48.7167C41.4975 48.6458 41.5168 48.5582 41.5115 48.4614C41.5058 48.3653 41.476 48.268 41.4211 48.2025C41.1788 47.9246 41.0637 47.6095 41.0029 47.4641C41.0019 47.4622 41.001 47.4603 41.0001 47.4585L41.0605 47.5708C40.6001 46.137 39.8745 44.7413 39.0906 43.4827C38.7219 42.8932 38.3271 42.3202 37.9062 41.7705C37.8875 41.7462 37.8688 41.7217 37.8499 41.6972L37.8703 41.7246C36.6137 39.9756 35.4567 38.1145 34.344 36.2195C33.7861 35.2684 33.2433 34.3097 32.699 33.3411C32.4266 32.8571 32.1544 32.3703 31.8687 31.8779C31.7268 31.6345 31.5801 31.3847 31.4118 31.1245C31.3302 31.001 31.2455 30.8674 31.0997 30.6918C31.0726 30.6596 31.0088 30.5867 30.9426 30.5273C30.9077 30.4968 30.8727 30.4623 30.7747 30.3988C30.6654 30.3417 30.6131 30.2738 30.2821 30.2413C30.1094 30.2306 29.885 30.2834 29.7197 30.3949C29.5391 30.519 29.4866 30.6079 29.4324 30.6871C29.333 30.8467 29.3054 30.9778 29.2898 31.0553C29.269 31.1696 29.267 31.2547 29.2675 31.3364C29.2926 31.6877 29.3571 31.7088 29.3661 31.7537C29.3849 31.7941 29.4084 31.8369 29.4178 31.8533C29.4414 31.8952 29.47 31.9414 29.4872 31.9684C29.53 32.0359 29.5642 32.0865 29.6048 32.1462C29.6759 32.2504 29.7506 32.3564 29.8213 32.4563C32.0318 35.5054 34.1309 38.5605 36.1309 41.7259C36.2336 41.8881 36.3368 42.0524 36.4386 42.2157C38.3225 45.2518 40.0376 48.4232 41.6258 51.6146C41.6893 51.7437 41.7504 51.8689 41.811 51.9945C42.028 52.4447 42.2042 52.906 42.3592 53.3683C42.4359 53.5979 42.5063 53.8262 42.5714 54.0511C42.6467 54.2887 42.6657 54.4634 42.8494 54.8808C42.7835 54.7532 42.7181 54.5477 42.7497 54.2964C42.7834 54.0439 42.888 53.8816 42.9677 53.7828C43.1162 53.6132 43.1651 53.611 43.1783 53.598C40.2263 54.1892 35.7013 54.2147 31.9055 54.4917C31.722 54.503 31.5401 54.5147 31.3568 54.527C28.0842 54.7446 24.8357 55.1869 21.6092 55.6249C21.4726 55.6432 21.3378 55.6615 21.2046 55.6797C18.5598 55.9784 15.5435 56.854 13.4911 56.4168C13.4294 56.3944 13.374 56.3688 13.3278 56.3422C13.1508 56.2318 13.1654 56.1866 13.1649 56.1484C13.1645 56.063 13.1656 55.9721 13.1676 55.8841C13.4068 52.1298 15.1369 48.2991 16.8314 44.6959C16.8513 44.6549 16.8711 44.6138 16.891 44.5728C18.3518 41.5468 19.6032 38.4281 20.8823 35.3291C21.3315 34.2407 21.7844 33.1532 22.2529 32.0724C22.2595 32.0573 22.266 32.0422 22.2726 32.0272C22.3957 31.7429 22.5168 31.462 22.637 31.1734C22.6967 31.0293 22.7562 30.8843 22.8146 30.7299C22.844 30.651 22.8725 30.5754 22.9031 30.4707C22.9109 30.4435 22.9189 30.4144 22.9273 30.3736C22.9294 30.3179 22.9665 30.3282 22.9264 30.0761C22.9125 30.0262 22.8694 29.8416 22.6536 29.7171C22.4176 29.5982 22.2749 29.6576 22.2068 29.6738C22.0738 29.7215 22.0525 29.7508 22.0202 29.7715C21.9635 29.8151 21.9437 29.8365 21.9185 29.861Z" fill="black"/>
<path d="M14.8685 13.6001C14.9927 13.538 15.0871 13.4291 15.131 13.2974C15.1749 13.1656 15.1647 13.0218 15.1026 12.8976C15.0405 12.7734 14.9316 12.679 14.7999 12.6351C14.6681 12.5911 14.5243 12.6014 14.4001 12.6635C14.3617 12.6832 14.2975 12.7126 14.3085 12.7077C14.315 12.706 14.3138 12.7031 14.3707 12.6907C14.3884 12.6874 14.4115 12.6833 14.4494 12.6819C14.4909 12.6935 14.6602 12.6308 14.8882 12.8999C15.001 13.0561 14.9929 13.2352 14.9723 13.3166C14.948 13.4088 14.9442 13.4021 14.9312 13.4325C14.9093 13.4761 14.891 13.4998 14.8814 13.5126C14.8227 13.583 14.8403 13.5571 14.8381 13.5613C14.8435 13.5565 14.8615 13.5418 14.8786 13.5283C14.9516 13.4712 15.0368 13.4079 15.1205 13.3455C15.2897 13.2196 15.4602 13.0933 15.6313 12.9652C15.6472 12.9532 15.6629 12.9411 15.6783 12.9287C16.3152 12.4183 16.6862 11.6228 16.5201 10.7988C16.4991 10.7116 16.4615 10.6202 16.4048 10.5357C16.2627 10.3246 16.0663 10.2372 15.9499 10.2016C15.5744 10.1114 15.4672 10.1767 15.321 10.1972C15.1869 10.2275 15.0762 10.2647 14.9692 10.3053C14.7562 10.3878 14.5658 10.4811 14.365 10.6044C14.3385 10.6208 14.3125 10.6377 14.287 10.6551C12.9115 11.8175 12.8805 13.2016 12.7654 14.472C12.7647 14.4912 12.7644 14.5104 12.7645 14.5298C12.7578 14.7815 12.8727 15.1265 13.0786 15.3362C13.2802 15.5498 13.4924 15.6433 13.6683 15.7052C14.0234 15.8209 14.3056 15.8289 14.5758 15.8317C14.5956 15.8317 14.6154 15.8315 14.6351 15.8311C15.6337 15.8222 16.5153 15.3067 17.1524 14.7667C17.1583 14.7618 17.1642 14.7569 17.17 14.7519C18.2617 13.721 18.4042 12.438 18.359 11.2654C18.3585 11.2585 18.358 11.2515 18.3574 11.2445C18.3652 10.8404 17.9141 10.1901 17.4978 10.0519C17.099 9.87869 16.8267 9.87322 16.5919 9.86528C16.5818 9.86518 16.5717 9.86513 16.5618 9.86511C15.8844 9.86311 15.1831 10.0199 14.5514 10.3265C14.2368 10.4782 13.9417 10.6658 13.6768 10.8675C13.5443 10.9681 13.4207 11.0711 13.3078 11.1672C13.2084 11.2571 13.0582 11.3637 13.1115 11.3486C13.1273 11.3427 13.1447 11.337 13.164 11.3316C13.24 11.3073 13.4553 11.2786 13.649 11.382C13.84 11.4838 13.9064 11.6142 13.9367 11.6711C13.9943 11.7982 13.9838 11.8181 13.9885 11.8379C13.9897 11.867 13.984 11.846 13.9806 11.8252C13.9727 11.779 13.9645 11.7062 13.9523 11.6298C13.9271 11.4751 13.8884 11.2868 13.7877 11.0834C13.7736 11.0553 13.7589 11.0279 13.7437 11.0009C12.5164 9.50281 11.2387 9.38918 10.0008 8.87463C9.99166 8.87153 9.98253 8.86847 9.97339 8.86547C8.21205 8.33398 6.81735 9.34799 5.72179 9.94549C5.72136 9.94573 5.72093 9.94598 5.7205 9.94623C2.45092 12.0376 1.05988 15.5594 0.176557 18.9504C0.168444 18.9854 0.160137 19.0202 0.151674 19.0547C0.0202922 19.5426 0.14615 20.152 0.391143 20.5389C0.631131 20.9383 0.923983 21.2068 1.2192 21.4146C1.26232 21.4445 1.30505 21.4731 1.34844 21.5013C2.94221 22.5036 4.72946 22.8322 6.55912 22.6632C6.63142 22.6545 6.70513 22.6439 6.77788 22.6314C6.88024 22.6072 6.96884 22.6189 7.20972 22.4471C7.30769 22.3752 7.44966 22.2014 7.49703 22.0208C7.54747 21.8388 7.53264 21.7104 7.51104 21.6024C7.41469 21.2628 7.3297 21.2336 7.28099 21.1604C7.17225 21.0378 7.09389 20.9761 7.01943 20.9149C6.86807 20.7938 6.7337 20.7022 6.59687 20.6105C6.32644 20.4308 6.05955 20.2681 5.796 20.1072C5.26826 19.7856 4.74573 19.4718 4.25775 19.1305C4.25368 19.1276 4.24977 19.1248 4.24603 19.1221C4.13307 19.0244 4.16008 19.0569 4.14652 18.9622C4.14094 18.8616 4.19222 18.6385 4.26721 18.405C4.26818 18.4019 4.26916 18.3988 4.27015 18.3957C4.63952 17.2316 5.24694 16.0905 6.02652 15.2233C6.03534 15.2138 6.04409 15.2044 6.05278 15.1951C6.90241 14.2856 8.69949 14.362 10.4187 14.2824C10.6818 14.268 10.9511 14.2481 11.2309 14.2103C11.2339 14.2099 11.2368 14.2095 11.2397 14.2091L11.2188 14.2117C11.3595 14.1974 11.5126 14.2073 11.6734 14.2174C11.7546 14.2223 11.8368 14.2275 11.9288 14.2281C11.9752 14.2283 12.0226 14.2276 12.0816 14.2232C12.1575 14.2103 12.1539 14.2386 12.4191 14.148C12.4696 14.1248 12.5336 14.106 12.6622 13.9992C12.7557 13.9148 12.9256 13.7445 12.9494 13.4129C12.9575 13.263 12.9232 13.1291 12.8779 13.0284C12.8345 12.9339 12.7981 12.8854 12.7592 12.837C12.6178 12.6776 12.5652 12.6664 12.5142 12.6323C12.4286 12.585 12.3866 12.5718 12.3509 12.5585C12.2797 12.5337 12.2356 12.5235 12.1914 12.5134C12.1073 12.4951 12.0374 12.4858 11.9693 12.479C11.8346 12.4661 11.7088 12.4654 11.5845 12.4724C11.3361 12.4867 11.0936 12.5324 10.8512 12.6047C10.7329 12.6416 10.6174 12.6967 10.5278 12.7817C10.4382 12.8666 10.3818 12.9737 10.3702 13.0885C10.3586 13.2033 10.3924 13.3195 10.4631 13.4207C10.5339 13.5219 10.636 13.599 10.7445 13.6589C10.9578 13.7774 11.1704 13.8746 11.3751 13.9527C11.4767 13.9918 11.5782 14.0264 11.6676 14.0561C11.7116 14.0709 11.7549 14.0851 11.7806 14.0952C11.7924 14.0998 11.8029 14.1051 11.7856 14.0999C11.7754 14.096 11.762 14.0943 11.7002 14.0606C11.6624 14.0341 11.6215 14.0305 11.4894 13.882C11.453 13.8366 11.4182 13.7905 11.3763 13.6994C11.3326 13.6022 11.2989 13.4717 11.3069 13.3253C11.3302 13.001 11.4961 12.8363 11.5836 12.7572C11.7043 12.6573 11.758 12.6436 11.7976 12.6249C11.9862 12.5621 11.9008 12.5983 11.8957 12.5956C11.8731 12.6004 11.8401 12.6065 11.805 12.613C11.7341 12.626 11.6544 12.641 11.5725 12.6565C11.4082 12.6876 11.2358 12.7203 11.0528 12.7424L11.0318 12.7451C11.0296 12.7454 11.0273 12.7458 11.025 12.7461C10.8063 12.7782 10.5725 12.7986 10.3324 12.8139C8.74493 12.9706 6.68144 12.6036 5.00757 14.2262C4.99614 14.2386 4.9847 14.2512 4.97323 14.2639C4.00081 15.3786 3.38072 16.6436 2.96586 17.9965C2.96478 18.0001 2.96371 18.0037 2.96263 18.0073C2.88544 18.2843 2.78434 18.5838 2.79695 19.0199C2.78931 19.4654 3.12725 20 3.45192 20.2059C3.46305 20.2141 3.47427 20.2221 3.48558 20.2301C3.99874 20.5906 4.50028 20.9469 4.9877 21.3084C5.22973 21.4882 5.47164 21.6706 5.69443 21.8495C5.80541 21.9388 5.9136 22.0289 5.99757 22.1083C6.03569 22.144 6.07634 22.1892 6.06562 22.1821C6.06131 22.1626 6.0305 22.2025 5.95074 21.9344C5.93338 21.8473 5.91902 21.7358 5.96422 21.5726C6.00657 21.4103 6.13537 21.2533 6.21985 21.1917C6.42713 21.0446 6.48501 21.0634 6.54301 21.0466C6.49764 21.0516 6.44815 21.0561 6.39765 21.0597C5.00936 21.1315 3.46648 20.7387 2.32829 19.9958C2.29907 19.9767 2.27099 19.9578 2.24341 19.9387C2.05369 19.8081 1.88446 19.6869 1.78953 19.5944C1.696 19.496 1.66521 19.4819 1.67177 19.388C1.67785 19.3562 1.68437 19.3243 1.69136 19.2924C2.42688 16.1718 3.86422 12.8267 6.44718 11.1927C6.44751 11.1925 6.44784 11.1923 6.44818 11.1921C7.56148 10.5232 8.67637 9.91059 9.53795 10.2101C9.5429 10.2117 9.54785 10.2133 9.55281 10.2149C10.7052 10.5973 12.2078 11.049 12.6228 11.6327C12.6259 11.6381 12.6283 11.6431 12.6302 11.6477C12.6284 11.6476 12.6335 11.6843 12.6292 11.7534C12.6274 11.7888 12.6237 11.8292 12.6214 11.8954C12.621 11.9307 12.6182 11.9665 12.6279 12.0508C12.6371 12.0989 12.632 12.1465 12.7022 12.2989C12.7386 12.3679 12.814 12.5107 13.0176 12.6188C13.2236 12.7289 13.4549 12.6994 13.5434 12.6713C13.5654 12.6652 13.5857 12.6585 13.6044 12.6515C13.9225 12.5273 14.0059 12.4524 14.1437 12.3834C14.27 12.3147 14.383 12.2584 14.4975 12.2079C14.7249 12.1075 14.9474 12.0369 15.1725 11.9871C15.6236 11.8875 16.0766 11.8718 16.5551 11.8745C16.561 11.8745 16.5669 11.8745 16.5726 11.8746C16.7028 11.8721 16.8053 11.8879 16.7482 11.8533C16.7218 11.8348 16.6396 11.778 16.5831 11.6869C16.5254 11.5966 16.5169 11.5135 16.5212 11.4925C16.5222 11.4972 16.5233 11.502 16.5243 11.5067C16.7096 12.2913 16.6899 13.2938 16.2454 13.6634C16.2432 13.6652 16.241 13.667 16.2389 13.6689C15.7151 14.1085 15.1646 14.3675 14.6144 14.3658C14.6032 14.3658 14.592 14.3658 14.5806 14.3657C14.3994 14.3652 14.2226 14.3414 14.1472 14.3127C14.1099 14.301 14.1141 14.2878 14.1608 14.3346C14.21 14.3792 14.2451 14.4956 14.2398 14.5214C14.2398 14.5237 14.2398 14.5257 14.2397 14.5273C14.2694 13.4835 14.5522 12.2064 15.0894 11.8322C15.0974 11.8267 15.1053 11.8216 15.1132 11.8169C15.2148 11.7547 15.3463 11.6944 15.466 11.6533C15.5253 11.6328 15.584 11.6167 15.624 11.6094C15.6504 11.595 15.7252 11.6289 15.522 11.586C15.4575 11.5663 15.3121 11.5074 15.2007 11.3424C15.1566 11.2769 15.1277 11.206 15.1123 11.1415C15.1889 11.4118 15.2937 11.9026 15.0233 12.1116C15.0169 12.1167 15.0104 12.1218 15.0037 12.1268C14.8346 12.2534 14.6667 12.3779 14.4951 12.5055C14.4088 12.5699 14.3257 12.6313 14.2308 12.7056C14.2065 12.7248 14.1825 12.7437 14.1485 12.7732C14.1259 12.7956 14.1249 12.7857 14.049 12.8772C14.0373 12.8928 14.0166 12.9201 13.9935 12.9662C13.9798 12.9981 13.9757 12.9918 13.9508 13.0863C13.9297 13.1698 13.9219 13.3505 14.0355 13.5078C14.2649 13.7791 14.4381 13.7171 14.4834 13.7286C14.5239 13.7271 14.5501 13.7226 14.5713 13.7186C14.641 13.7036 14.6544 13.6955 14.6714 13.69C14.7806 13.6468 14.8122 13.6272 14.8685 13.6001Z" fill="black"/>
<path d="M35.2913 9.08161C35.3911 9.08161 35.4868 9.04195 35.5574 8.97137C35.628 8.90078 35.6676 8.80504 35.6676 8.70522C35.6676 8.60539 35.628 8.50966 35.5574 8.43907C35.4868 8.36849 35.3911 8.32883 35.2913 8.32883C35.2388 8.32896 35.0969 8.32583 34.9605 8.39349C34.8248 8.45989 34.7442 8.55682 34.6911 8.63268C34.6894 8.63522 34.6876 8.63777 34.6859 8.64033C34.4834 8.95774 34.3467 9.29813 34.4373 9.69976C34.4399 9.71053 34.4427 9.72133 34.4457 9.73215C34.6086 10.2551 34.9513 10.5681 35.3623 10.7843C35.3809 10.7936 35.3998 10.8026 35.4188 10.8113C35.821 10.9841 36.2652 11.0633 36.7801 10.8584C36.8172 10.8422 36.8549 10.8239 36.8923 10.8034C37.0728 10.7068 37.2332 10.5519 37.3377 10.3974C37.5141 10.1347 37.5818 9.89569 37.6209 9.68254C37.627 9.64676 37.6325 9.61197 37.6375 9.57727C37.6934 9.13768 37.7323 8.62523 37.4477 8.06171C37.4183 8.00626 37.3851 7.95145 37.3482 7.8981C36.9547 7.36427 36.4558 7.17469 35.9664 7.05738C35.904 7.04393 35.8408 7.03182 35.776 7.02148C35.5586 6.98737 35.2529 6.96036 34.9261 7.09048C34.5997 7.21988 34.3769 7.46398 34.2463 7.66728C34.1978 7.74217 34.157 7.81513 34.1208 7.88648C33.8029 8.57944 33.646 9.19294 33.7486 10.026C33.7662 10.1314 33.7918 10.2414 33.8319 10.3564C34.0792 11.0938 34.7991 11.4632 35.3297 11.5715C35.4351 11.5951 35.5403 11.6116 35.6451 11.6223C35.9941 11.6649 36.4939 11.6156 36.8777 11.3858C37.0011 11.316 37.1084 11.2377 37.2027 11.1596C37.5527 10.865 37.808 10.5255 38.0025 10.1344C38.0599 10.0172 38.1093 9.89473 38.1496 9.76735C38.2698 9.37643 38.3103 8.9812 38.2409 8.54364C38.2134 8.38479 38.1689 8.21796 38.0768 8.0388C37.8525 7.60084 37.4283 7.40901 37.1364 7.32879C36.8306 7.24392 36.5631 7.22362 36.3295 7.19319C36.224 7.17994 36.1222 7.16617 36.0583 7.15169C35.9967 7.13391 36.1259 7.15827 36.1749 7.30308C36.202 7.42208 36.1761 7.36963 36.2123 7.29957C36.2724 7.15297 36.4163 6.94223 36.57 6.75315C36.8836 6.36753 37.2655 5.99423 37.659 5.63982C38.4513 4.93168 39.3152 4.27359 40.1985 3.69646C40.2014 3.69459 40.2043 3.69271 40.2072 3.69084C41.382 2.93349 42.8457 2.69004 44.2662 2.71512C44.3043 2.71579 44.3422 2.7167 44.38 2.71785C47.5341 3.54958 49.6293 8.5608 51.3797 12.2397C51.4095 12.3068 51.4391 12.3731 51.4684 12.4385C52.0957 13.6956 51.9072 15.5125 51.0012 16.7181C50.9862 16.7431 50.9293 16.7848 51.0275 16.7203C51.0215 16.7381 51.1208 16.6419 51.4058 16.7054C51.6874 16.7949 51.7195 16.939 51.7096 16.9225C51.6807 16.9074 51.6015 16.7074 51.5527 16.5171C51.4472 16.1194 51.3704 15.6495 51.2941 15.1832C51.1356 14.2395 51.0204 13.266 50.6881 12.2393C50.6676 12.1786 50.6471 12.1181 50.6266 12.0577C49.8307 9.81529 48.9789 7.55044 47.2167 5.64427C47.2114 5.63897 47.2062 5.6337 47.201 5.62846C44.9787 3.77285 42.4969 4.78285 40.5467 5.31852C40.1862 5.43459 39.8215 5.56302 39.4913 5.66989L39.3848 5.71313C39.3698 5.72057 39.3548 5.72817 39.3398 5.73584C38.9734 5.92069 38.6053 6.21047 38.3453 6.57507C38.3411 6.58088 38.3369 6.58676 38.3326 6.59271C38.2469 6.71476 38.159 6.8694 38.1048 7.08125C38.0488 7.28753 38.0537 7.58302 38.1692 7.80083C38.4164 8.23668 38.7427 8.2815 38.9848 8.35871C39.041 8.37125 39.1093 8.35885 39.1694 8.33301C39.2298 8.30667 39.2771 8.26902 39.3061 8.21959C39.3351 8.17016 39.3448 8.11047 39.3383 8.0449C39.3315 7.97984 39.3089 7.91423 39.2705 7.87129C39.1366 7.7232 39.0753 7.48708 39.1827 7.49212C39.2833 7.54109 39.298 7.60604 39.4179 7.49025C39.4206 7.48784 39.4233 7.4854 39.4261 7.48293C39.6016 7.32543 39.7926 7.20677 40.0304 7.08486C40.0401 7.07989 40.05 7.07492 40.0598 7.06999L39.9534 7.11323C40.3278 6.99177 40.6707 6.86922 41.0163 6.75585C42.8476 6.14945 45.1042 5.61469 46.1898 6.64937C46.1927 6.65218 46.1956 6.655 46.1984 6.65783C47.6522 8.17083 48.611 10.3553 49.3532 12.4898C49.3728 12.5476 49.3922 12.6057 49.4112 12.664C49.662 13.4541 49.7103 14.3991 49.7607 15.3464C49.7871 15.8247 49.8035 16.3087 49.8779 16.8466C49.9251 17.1242 49.9486 17.3873 50.1503 17.7992C50.2547 17.9861 50.4511 18.3329 50.9681 18.4799C51.4884 18.6007 51.8238 18.4074 52.0229 18.2964C52.2411 18.1524 52.2808 18.0966 52.3675 18.0162C53.968 16.3051 54.7384 13.7546 53.7363 11.4437C53.7063 11.374 53.6756 11.3037 53.6441 11.2329C52.7137 9.1553 51.6194 7.15543 50.274 5.27088C48.858 3.51192 47.5247 1.21093 44.3783 0.919851C44.3331 0.921082 44.2878 0.922583 44.2424 0.924359C42.5443 0.993093 40.8287 1.50157 39.4056 2.51726C39.4026 2.51945 39.3995 2.52164 39.3964 2.52383C38.4679 3.19508 37.6112 3.92516 36.795 4.72131C36.3888 5.12204 35.9926 5.53585 35.6253 6.0147C35.4433 6.25922 35.2604 6.50894 35.1159 6.86617C35.0525 7.0535 34.9505 7.28437 35.0609 7.66915C35.1194 7.85777 35.2671 8.03663 35.4141 8.13104C35.5592 8.2267 35.6851 8.26544 35.808 8.29332C35.9566 8.32475 36.0726 8.33734 36.1831 8.35178C36.6505 8.38268 37.0249 8.59022 36.9353 8.5955C36.9403 8.61657 36.952 8.66812 36.9565 8.72925C36.9713 8.90325 36.9286 9.13558 36.8536 9.32816C36.8287 9.39325 36.7995 9.45862 36.7668 9.52364C36.6589 9.73994 36.4937 9.95256 36.322 10.0932C36.2759 10.1311 36.2345 10.1593 36.1991 10.1788C36.0962 10.2332 36.0106 10.2378 35.808 10.2119C35.7513 10.2038 35.6949 10.1934 35.6414 10.1814C35.3411 10.1128 35.2069 9.99352 35.1747 9.8871C35.1665 9.86386 35.1579 9.83098 35.1514 9.79207C35.094 9.46478 35.208 8.88644 35.3875 8.52944C35.4053 8.49441 35.4229 8.46349 35.439 8.43846C35.4867 8.36479 35.4996 8.35516 35.4794 8.35198C35.458 8.34677 35.4969 8.31735 35.6062 8.32614C35.6373 8.32829 35.6695 8.3324 35.7018 8.3385C35.9629 8.38326 36.2235 8.53578 36.2887 8.63881C36.2964 8.64931 36.304 8.66092 36.3114 8.674C36.3903 8.80025 36.4228 9.10057 36.386 9.4179C36.3834 9.4432 36.3806 9.46758 36.3775 9.49147C36.3605 9.63415 36.3483 9.75536 36.341 9.80627C36.3364 9.83752 36.3439 9.8445 36.3374 9.85614C36.3353 9.8588 36.3318 9.86173 36.3272 9.86455C36.2559 9.91422 36.0169 9.91378 35.8425 9.83942C35.8336 9.83596 35.8247 9.83234 35.8159 9.82858C35.6176 9.74891 35.4112 9.56799 35.3488 9.44009C35.3475 9.43753 35.3462 9.43496 35.3449 9.43237C35.2957 9.35672 35.2438 9.16179 35.3093 9.06226C35.3097 9.06171 35.3101 9.06119 35.3104 9.06069C35.3216 9.04366 35.3213 9.05421 35.2886 9.07096C35.2551 9.08744 35.2308 9.08068 35.2913 9.08161Z" fill="black"/>
<path d="M37.6942 37.4888C37.6578 37.6342 37.6807 37.788 37.7578 37.9164C37.8349 38.0449 37.9598 38.1375 38.1052 38.1738C38.2505 38.2102 38.4043 38.1873 38.5328 38.1102C38.6613 38.0331 38.7539 37.9082 38.7902 37.7628C38.9068 37.298 39.1536 36.8127 39.4307 36.3399C40.0004 35.3813 40.6918 34.4594 41.3993 33.5511C41.4075 33.5406 41.4157 33.5301 41.424 33.5196C43.5607 30.7375 45.9317 28.4516 48.369 25.6078C48.3911 25.5727 48.4273 25.5114 48.4542 25.4526C49.1878 23.3839 48.2475 21.8757 48.5619 20.4241C48.5626 20.4197 48.5633 20.4153 48.564 20.4108C48.6372 19.9059 49.0336 19.4577 49.565 19.126C49.5726 19.1212 49.5803 19.1164 49.588 19.1117C49.643 19.0621 49.962 19.09 50.142 19.2129C50.1471 19.2161 50.152 19.2193 50.1567 19.2224C50.4674 19.4027 50.5983 20.0118 50.731 20.77C50.7329 20.7796 50.7348 20.7892 50.7367 20.7988C50.8614 21.4363 50.7114 22.1474 50.4589 22.9734C50.4554 22.9858 50.4518 22.9981 50.4482 23.0103C50.4227 23.1069 50.3902 23.263 50.4536 23.4754C50.5169 23.691 50.6824 23.85 50.7829 23.9131C50.9944 24.0416 51.0668 24.0347 51.1325 24.0547C51.2517 24.0793 51.2971 24.085 51.3346 24.0952C51.4034 24.1072 51.3937 24.1531 51.242 24.0626C51.231 24.0553 51.221 24.0479 51.2124 24.0411C51.0963 23.9325 51.1456 23.9606 51.1442 24.0084C51.1516 24.0574 51.1502 24.1306 51.1353 24.1784C51.1345 24.181 51.1336 24.1837 51.1327 24.1863C51.0984 24.2836 50.9481 24.3506 50.7937 24.4995C50.7907 24.5025 50.7877 24.5054 50.7847 24.5084C50.627 24.6604 50.5335 24.7322 50.3266 24.8228C50.316 24.8272 50.3055 24.8316 50.2945 24.836C50.2923 24.8368 50.2901 24.8377 50.2879 24.8386C49.9776 24.9659 49.5498 25.2676 49.0161 25.2205C48.9482 25.2121 48.868 25.2346 48.799 25.2715C48.7297 25.309 48.6771 25.3579 48.6472 25.419C48.6172 25.4801 48.6108 25.5516 48.6235 25.6295C48.6367 25.7066 48.6679 25.7837 48.7162 25.8322C49.1752 26.2779 49.9089 26.7238 50.6805 26.6086C50.6856 26.6078 50.6907 26.607 50.6958 26.6063C50.721 26.6024 50.7455 26.5984 50.771 26.5939C51.2533 26.5189 51.7997 26.2294 52.1396 25.8763C52.1461 25.8698 52.1526 25.8633 52.159 25.8567C52.4742 25.5354 52.7192 25.0201 52.7888 24.4505C52.7907 24.4352 52.7925 24.4197 52.7942 24.4043C52.8048 23.8885 52.881 23.4591 52.2668 22.8182C52.2428 22.7981 52.2163 22.7775 52.1888 22.7583C51.8688 22.5476 51.6484 22.5603 51.5161 22.5479C51.4519 22.546 51.3954 22.5442 51.4138 22.5506C51.4293 22.5608 51.4512 22.5426 51.619 22.6434C51.6984 22.6928 51.8453 22.8318 51.9012 23.0228C51.957 23.2105 51.9269 23.3409 51.9084 23.4122C51.9109 23.4022 51.9136 23.3918 51.9166 23.3812C52.1509 22.5782 52.4236 21.563 52.2072 20.5035C52.2053 20.4945 52.2035 20.4854 52.2016 20.4762C52.0397 19.7838 51.8946 18.6663 50.8099 18.0546C50.7937 18.0461 50.7774 18.0377 50.761 18.0297C50.2095 17.7832 49.589 17.6794 48.9204 18.0768C48.9104 18.0835 48.9005 18.0901 48.8905 18.0968C48.2156 18.5455 47.5387 19.2698 47.3947 20.2275C47.3938 20.233 47.3929 20.2386 47.3921 20.2442C47.0901 22.0316 47.8002 23.8516 47.3067 24.9214C47.3113 24.9118 47.3056 24.9235 47.298 24.9352C45.1791 27.3674 42.6494 30.0673 40.5347 32.8228C40.5263 32.8335 40.5179 32.8442 40.5095 32.8549C39.7865 33.7843 39.079 34.7222 38.4571 35.7669C38.1549 36.2868 37.8617 36.8352 37.6942 37.4888Z" fill="black"/>
<path d="M24.0747 56.4987C23.9144 56.421 23.7298 56.4102 23.5615 56.4685C23.3933 56.5269 23.2551 56.6498 23.1774 56.81C23.0997 56.9703 23.0888 57.1549 23.1472 57.3232C23.2056 57.4914 23.3284 57.6296 23.4887 57.7073C23.266 57.5806 23.2777 57.5272 23.2522 57.5043C23.2346 57.4764 23.2357 57.4759 23.2337 57.4724C23.2326 57.4697 23.2397 57.4863 23.2457 57.5033C23.2591 57.5407 23.2751 57.594 23.2894 57.6469C23.3198 57.7594 23.346 57.8759 23.3723 58.0031C23.4228 58.2499 23.4667 58.5096 23.5067 58.7711C23.9496 61.9142 24.098 65.1539 24.2379 68.3805C24.2389 68.4056 24.2398 68.4308 24.2408 68.456C24.2738 69.3515 24.2543 70.2438 24.1993 71.1252C24.1713 71.5646 24.1345 72.0007 24.0822 72.4186C24.0559 72.6263 24.0253 72.8312 23.9875 73.0151C23.9622 73.1798 23.8627 73.4184 23.9123 73.3189C23.9284 73.2974 23.9572 73.256 24.0339 73.1994C24.0935 73.1426 24.2864 73.1142 24.3193 73.133C24.3602 73.1447 24.3087 73.1338 24.2452 73.0955C24.1106 73.0191 23.9193 72.872 23.7191 72.7181C23.3086 72.4152 22.853 72.0134 22.0977 71.8245C22.0474 71.8131 21.9972 71.8034 21.9473 71.7952C21.1164 71.6767 20.3813 71.7833 19.6887 72.1553C19.65 72.1772 19.6123 72.2 19.5752 72.224C18.9455 72.6314 18.5495 73.25 18.3399 73.8693C18.3289 73.9018 18.3184 73.9344 18.3083 73.9675C18.1557 74.4515 18.1253 75.0497 18.2839 75.5905C18.2928 75.6218 18.3022 75.653 18.3122 75.6843C18.4583 76.1565 18.7798 76.6424 19.2285 76.9478C19.2518 76.964 19.2752 76.9797 19.2987 76.995C20.3254 77.6203 21.2928 77.5217 22.0661 77.5143L22.1853 77.4996C22.2023 77.4969 22.2193 77.494 22.2363 77.4911C23.3642 77.2865 24.3197 76.8467 25.1828 76.31L25.2044 76.296C25.209 76.2929 25.2136 76.2899 25.2182 76.2868C25.2431 76.2702 25.2681 76.2529 25.2931 76.2349C25.7916 75.8978 26.2564 75.1995 26.2798 74.5105C26.2815 74.3901 26.2751 74.2693 26.2407 74.1602C26.2061 74.0511 26.1453 73.9619 26.0596 73.9042C25.974 73.8465 25.8684 73.8237 25.7543 73.8328C25.6403 73.8419 25.5259 73.8814 25.415 73.9282C24.8423 74.1483 24.5021 74.2071 24.0933 74.4631C24.0722 74.4764 24.0508 74.4902 24.0294 74.5045C24.0254 74.5072 24.0214 74.5098 24.0174 74.5125L24.0391 74.4984C23.3173 74.954 22.5727 75.3859 21.8567 75.5562C21.8461 75.5586 21.8355 75.5611 21.825 75.5634L21.9442 75.5487C21.2253 75.624 20.5759 75.6133 20.2822 75.4314C20.2749 75.4272 20.2677 75.423 20.2607 75.4188C20.1633 75.3607 20.0895 75.2807 20.0396 75.13C20.0365 75.1202 20.0335 75.1102 20.0307 75.0999C19.9814 74.9172 19.9962 74.7354 20.0659 74.5042C20.0706 74.4887 20.0756 74.4732 20.081 74.4573C20.1873 74.1398 20.3689 73.8836 20.5745 73.7444C20.5869 73.7357 20.5994 73.7273 20.612 73.7189C20.9189 73.515 21.37 73.3048 21.6908 73.3604C21.7094 73.3634 21.7273 73.367 21.7444 73.3709C21.9777 73.4189 22.3325 73.6742 22.7056 73.9898C22.8998 74.1483 23.0965 74.324 23.3919 74.5102C23.5441 74.6011 23.7187 74.7046 24.0089 74.7651C24.2881 74.8349 24.7474 74.7588 25.0109 74.5487C25.1399 74.4543 25.2145 74.3612 25.2693 74.2855C25.5677 73.8026 25.552 73.5856 25.6133 73.3113C25.6561 73.0502 25.6778 72.8055 25.6924 72.5645C25.7207 72.0825 25.7182 71.6165 25.707 71.1524C25.683 70.2238 25.621 69.3154 25.5831 68.4026C25.582 68.3773 25.581 68.352 25.58 68.3267C25.4377 65.0723 25.2951 61.845 24.8345 58.5684C24.792 58.2914 24.7455 58.014 24.688 57.7328C24.6578 57.5868 24.6277 57.451 24.5859 57.2955C24.5655 57.2208 24.5428 57.1421 24.5106 57.0513C24.495 57.0081 24.4764 56.9582 24.4459 56.8938C24.427 56.8557 24.419 56.8366 24.3787 56.7727C24.3602 56.7444 24.3383 56.7136 24.308 56.6787C24.2626 56.628 24.1995 56.5609 24.0747 56.4987Z" fill="black"/>
<path d="M33.8586 57.7459C34.0291 57.578 34.1259 57.3492 34.1277 57.1099C34.1295 56.8705 34.0362 56.6403 33.8682 56.4698C33.7003 56.2993 33.4715 56.2025 33.2322 56.2007C32.9929 56.1989 32.7626 56.2922 32.5921 56.4601C32.4207 56.6345 32.3728 56.776 32.3455 56.8342C32.3146 56.9079 32.2919 56.9822 32.2798 57.0249C32.2509 57.1277 32.2337 57.2127 32.219 57.2922C32.1898 57.4529 32.1722 57.5933 32.1567 57.7309C32.1266 58.0042 32.1073 58.2783 32.0925 58.5329C31.9247 62.6162 32.1076 66.5869 32.3219 70.5948C32.3223 70.601 32.3227 70.6073 32.3231 70.6135C32.3387 70.855 32.381 71.096 32.4442 71.36C32.4772 71.4939 32.5114 71.6285 32.5748 71.8062C32.611 71.898 32.6387 71.994 32.7557 72.1697C32.8214 72.2544 32.9038 72.3933 33.1776 72.5163C33.4674 72.6535 33.8645 72.5449 33.9978 72.4424C33.9979 72.4423 33.998 72.4423 33.9981 72.4422C34.6821 71.9495 34.8333 71.5065 35.103 71.1462C35.3454 70.7832 35.5794 70.4836 35.8169 70.3028C35.8214 70.2994 35.826 70.2961 35.8305 70.2929C36.0694 70.0935 36.644 70.1484 37.3097 70.4096C37.3167 70.4124 37.3235 70.4153 37.3304 70.4183C37.6341 70.5425 37.9487 70.9231 38.2163 71.4707C38.2195 71.4778 38.2227 71.485 38.2259 71.4923C38.3927 71.8778 38.2712 72.3951 38.2038 72.8839L38.6125 72.1096C38.6055 72.1156 38.5985 72.1217 38.5916 72.1278C37.6146 72.9844 36.5399 73.7673 35.5389 73.8864L35.6956 73.8899C35.6938 73.8898 35.6921 73.8898 35.6904 73.8898C35.6583 73.8891 35.6273 73.8885 35.5969 73.8877C35.339 73.8849 35.041 73.8474 34.7089 73.614C34.5495 73.4935 34.3352 73.4402 34.1237 73.455C33.9116 73.4704 33.7197 73.5527 33.5796 73.6945C33.4394 73.8363 33.3594 74.0291 33.3465 74.2414C33.3343 74.4531 33.3901 74.6667 33.5125 74.8247C33.8911 75.3027 34.4939 75.8215 35.2385 75.9799C35.3188 75.998 35.3992 76.0123 35.4788 76.0227C35.4831 76.0233 35.4874 76.0239 35.4917 76.0244L35.6483 76.0279C37.5712 75.9523 39.0266 74.9861 40.2108 73.9784C40.2191 73.9712 40.2274 73.9638 40.2357 73.9565L40.5922 73.6383L40.6444 73.1821C40.7437 72.2954 40.4809 71.3555 39.9664 70.5159C39.9562 70.4994 39.9459 70.483 39.9355 70.4668C39.5227 69.8469 38.9591 69.0482 37.9493 68.7007C37.928 68.6936 37.9066 68.6867 37.8851 68.6801C37.0892 68.4528 35.8711 68.1405 34.7992 68.9593C34.7839 68.9714 34.7686 68.9838 34.7535 68.9964C33.8535 69.7653 33.4163 70.9278 33.1376 71.0768C33.1375 71.0768 33.1375 71.0768 33.1375 71.0769C33.2238 71.0052 33.5603 70.9098 33.7975 71.0239C34.0195 71.1248 34.0631 71.2195 34.0974 71.2584C34.1521 71.3407 34.1403 71.3291 34.1427 71.315C34.14 71.2784 34.1333 71.1912 34.1322 71.1035C34.1288 70.9233 34.1355 70.7169 34.1247 70.5094C34.1244 70.5032 34.124 70.497 34.1237 70.4908C33.9104 66.5367 33.7332 62.5267 33.8942 58.6369C33.9078 58.4019 33.9259 58.1519 33.9505 57.9295C33.9627 57.819 33.9773 57.7092 33.994 57.6183C34.0019 57.5746 34.0113 57.5336 34.0161 57.5173C34.0179 57.5103 34.0199 57.5074 34.0115 57.5281C34.0022 57.5408 33.9951 57.6034 33.8586 57.7459Z" fill="black"/>
<path d="M8.73133 33.1696C8.95833 33.1696 9.17604 33.0795 9.33656 32.9189C9.49707 32.7584 9.58725 32.5407 9.58725 32.3137C9.58725 32.0867 9.49707 31.869 9.33656 31.7085C9.17604 31.548 8.95833 31.4578 8.73133 31.4578C8.70348 31.458 8.67845 31.4581 8.63082 31.4625C8.57258 31.4732 8.53016 31.4579 8.32288 31.5479C8.24027 31.587 7.94147 31.7486 7.85292 32.1442C7.81006 32.3259 7.84922 32.522 7.87768 32.5989C7.90605 32.6836 7.93966 32.7449 7.96983 32.7926C8.08035 32.9546 8.12647 32.974 8.15638 33.0036C8.27928 33.1007 8.30497 33.1061 8.34553 33.1312C8.41861 33.1719 8.46782 33.1957 8.51854 33.2206C8.61859 33.2692 8.70826 33.3105 8.799 33.3521C9.15368 33.5139 9.49626 33.667 9.842 33.8254L9.7046 33.7464C9.72776 33.7628 9.75105 33.7792 9.77447 33.7958C11.262 34.8526 12.5768 36.1948 14.0994 37.2509L14.0856 37.2412C14.0955 37.2483 14.1054 37.2554 14.1153 37.2625C15.0814 37.9535 16.1596 38.5184 17.3582 38.9318C17.5494 38.9978 17.7436 39.06 17.9407 39.1182C18.029 39.1439 18.1236 39.1551 18.2139 39.1361C18.3041 39.1171 18.3821 39.0701 18.4342 39.0006C18.4863 38.9312 18.5096 38.8432 18.5026 38.7512C18.4955 38.6592 18.4582 38.5716 18.4089 38.494C18.2978 38.321 18.1836 38.152 18.0664 37.9868C17.3317 36.9523 16.4763 36.0696 15.4779 35.3555C15.4676 35.3481 15.4573 35.3408 15.447 35.3335L15.4332 35.3238C13.9288 34.2904 12.2731 33.4712 10.7626 32.398C10.7388 32.3811 10.7151 32.3643 10.6914 32.3477L10.554 32.2687C10.2039 32.1083 9.85086 31.9504 9.51169 31.7957C9.42654 31.7566 9.34231 31.7177 9.26835 31.6817C9.23299 31.6646 9.19642 31.6458 9.18446 31.639C9.18457 31.6411 9.16608 31.6212 9.25221 31.6884C9.27443 31.7116 9.30979 31.7214 9.41396 31.8734C9.44238 31.9184 9.47472 31.9771 9.50228 32.0594C9.52987 32.1339 9.56848 32.3261 9.52629 32.5051C9.43878 32.8951 9.14563 33.0523 9.06811 33.089C8.87148 33.1741 8.84057 33.1571 8.79527 33.1664C8.75986 33.1697 8.74536 33.1695 8.73133 33.1696Z" fill="black"/>
<path d="M7.46038 31.8256C7.56567 31.9277 7.70721 31.9838 7.85386 31.9815C8.0005 31.9793 8.14025 31.9188 8.24234 31.8136C8.34444 31.7083 8.40054 31.5667 8.39828 31.4201C8.39602 31.2734 8.3356 31.1337 8.23031 31.0316C8.36972 31.1917 8.32123 31.1638 8.33419 31.1749C8.33575 31.1786 8.33303 31.1721 8.33117 31.1671C8.32664 31.1553 8.31937 31.1348 8.31317 31.1165C8.29859 31.0736 8.28537 31.0323 8.27137 30.9879C8.24215 30.8951 8.21541 30.8071 8.18669 30.7121C8.13012 30.5249 8.074 30.337 8.01707 30.1485C7.5911 28.7469 7.14826 27.3428 6.51912 25.9677C6.50619 25.9399 6.4931 25.9123 6.47986 25.8849C6.07977 25.174 5.50085 25.0862 5.06478 24.9196C5.02782 24.9076 4.99109 24.8959 4.95469 24.8843C4.46276 24.7526 4.02204 24.6125 3.35449 24.8512C3.28387 24.8825 3.2086 24.9229 3.13078 24.9823C2.47795 25.4352 2.34553 26.3776 2.49301 26.9638C2.62309 27.5886 2.88546 28.1044 3.17541 28.5901C3.79028 29.5524 4.41486 30.3792 5.46565 31.1108C5.4877 31.1242 5.50922 31.1371 5.5301 31.1498C5.75764 31.2596 5.91203 31.4997 5.80642 31.3108C5.80311 31.2975 5.80135 31.2851 5.8006 31.2757C5.81606 31.1806 5.75173 31.3901 5.62935 31.538C5.5104 31.7002 5.36002 31.8741 5.20358 32.0504C4.88916 32.4043 4.54551 32.7705 4.22141 33.1874C4.19031 33.2281 4.16047 33.2721 4.13177 33.323C4.03373 33.4868 3.94133 33.7889 4.02514 34.082C4.10563 34.3716 4.27688 34.5484 4.41732 34.6663C4.70799 34.8964 4.97654 34.9861 5.27616 35.0057L5.4576 34.9869C5.48559 34.9826 5.51342 34.9775 5.54104 34.9715C6.58869 34.7357 7.47494 34.2555 8.27149 33.6844C8.28295 33.6761 8.29437 33.6678 8.30576 33.6594L8.29717 33.6656C8.30264 33.6617 8.3081 33.6578 8.31355 33.6539C8.60562 33.4452 8.90047 33.2413 9.20595 33.0268C9.38956 32.8977 9.51821 32.7026 9.5614 32.4813C9.60462 32.2601 9.5592 32.0312 9.43474 31.8445C9.31028 31.6578 9.11651 31.5279 8.89565 31.4827C8.67477 31.4375 8.44525 31.4812 8.2554 31.601C7.94033 31.7995 7.61627 32.0116 7.30196 32.2363C7.2961 32.2405 7.29023 32.2447 7.28434 32.2489L7.27575 32.2551C7.26625 32.2621 7.25673 32.269 7.24719 32.276C6.58743 32.7556 5.86998 33.1731 5.16204 33.3611C5.1435 33.3659 5.12519 33.3713 5.10705 33.377L5.2885 33.3582C5.27135 33.3735 5.21718 33.3895 5.24094 33.444C5.25041 33.4738 5.30462 33.5297 5.33663 33.6663C5.37011 33.8067 5.31349 33.9404 5.29349 33.9665C5.28735 33.9768 5.283 33.9821 5.28085 33.9843C5.54103 33.625 5.85366 33.2726 6.17584 32.8937C6.33734 32.7024 6.50195 32.5067 6.66519 32.2732C6.81347 32.0263 7.04161 31.8052 7.0506 31.2155C7.04777 31.1622 7.04029 31.1041 7.02762 31.0476C6.93532 30.6719 6.71299 30.4954 6.56563 30.3755C6.40906 30.256 6.27165 30.1802 6.15007 30.1083C6.12769 30.0952 6.10584 30.0825 6.08467 30.0701C5.40135 29.6208 4.67565 28.7786 4.16954 27.9796C3.6537 27.1891 3.34278 26.1509 3.81583 25.8698C3.80503 25.8775 3.8041 25.8762 3.81078 25.873C3.92298 25.8107 4.35537 25.7863 4.65086 25.8793C4.68273 25.8886 4.71426 25.8982 4.7453 25.9082C5.12356 26.0189 5.46567 26.2597 5.48066 26.3572C5.49237 26.3826 5.50416 26.4081 5.51606 26.4337C6.09988 27.7075 6.53902 29.0856 6.95828 30.4682C7.01474 30.6551 7.07052 30.8418 7.12802 31.0322C7.15731 31.129 7.18464 31.2191 7.21655 31.3205C7.23205 31.3695 7.24658 31.4152 7.26623 31.4731C7.27481 31.4982 7.28536 31.5286 7.29751 31.5605C7.3027 31.5741 7.31135 31.5966 7.32249 31.6218C7.34295 31.6501 7.3101 31.6554 7.46038 31.8256Z" fill="black"/>
<path d="M29.2873 18.0464C29.495 17.8387 29.6117 17.5569 29.6117 17.2632C29.6117 16.9694 29.495 16.6877 29.2873 16.48C29.0796 16.2723 28.7978 16.1556 28.5041 16.1556C28.2103 16.1556 27.9286 16.2723 27.7209 16.48C27.716 16.4849 27.7111 16.4898 27.7062 16.4948C27.6176 16.5833 27.5291 16.6718 27.4406 16.7604C27.4356 16.7653 27.4307 16.7702 27.4258 16.7751C27.2181 16.9828 27.1014 17.2645 27.1014 17.5583C27.1014 17.852 27.2181 18.1338 27.4258 18.3415C27.6335 18.5492 27.9152 18.6659 28.209 18.6659C28.5027 18.6659 28.7845 18.5492 28.9922 18.3415C28.9971 18.3366 29.002 18.3316 29.0069 18.3267C29.0955 18.2382 29.184 18.1497 29.2725 18.0611C29.2774 18.0562 29.2824 18.0513 29.2873 18.0464Z" fill="black"/>
<path d="M24.0764 19.4379C24.4183 19.4379 24.7462 19.3021 24.988 19.0603C25.2297 18.8185 25.3656 18.4906 25.3656 18.1487C25.3656 17.8068 25.2297 17.4789 24.988 17.2371C24.7462 16.9953 24.4183 16.8595 24.0764 16.8595C24.0714 16.8595 24.0665 16.8595 24.0616 16.8595C23.9731 16.8595 23.8845 16.8595 23.796 16.8595C23.7911 16.8595 23.7862 16.8595 23.7812 16.8595C23.4393 16.8595 23.1114 16.9953 22.8697 17.2371C22.6279 17.4789 22.4921 17.8068 22.4921 18.1487C22.4921 18.4906 22.6279 18.8185 22.8697 19.0603C23.1114 19.3021 23.4393 19.4379 23.7812 19.4379C23.7862 19.4379 23.7911 19.4379 23.796 19.4379C23.8845 19.4379 23.9731 19.4379 24.0616 19.4379C24.0665 19.4379 24.0714 19.4379 24.0764 19.4379Z" fill="black"/>
<path d="M22.7568 20.4348C22.6587 20.2372 22.4862 20.0867 22.2771 20.0163C22.0681 19.9459 21.8396 19.9614 21.642 20.0595C21.4444 20.1575 21.2938 20.3301 21.2235 20.5391C21.1531 20.7482 21.1686 20.9767 21.2667 21.1743C21.4203 21.4784 21.5983 21.6961 21.7791 21.895C22.7492 22.8946 23.8339 23.4655 24.9984 23.9388L25.3328 23.995C25.3335 23.995 25.3343 23.995 25.335 23.995C27.9812 23.8011 30.3574 22.9672 32.4211 21.1787L32.4728 21.1254C32.4749 21.1231 32.477 21.1207 32.4791 21.1184C32.7921 20.8136 33.193 20.0975 33.2371 19.5925C33.2805 19.3137 33.2898 19.076 33.2944 18.8462C33.2971 18.6028 33.2194 18.3604 33.062 18.1704C32.9048 17.9804 32.6833 17.8587 32.4427 17.8316C32.202 17.8045 31.959 17.8739 31.7635 18.0242C31.5679 18.1745 31.4381 18.3935 31.3867 18.6314C31.342 18.833 31.2984 19.0285 31.2531 19.1748C31.1588 19.4511 31.1455 19.4411 30.917 19.7087C30.9156 19.7103 30.9141 19.7119 30.9127 19.7134L30.9645 19.6601C29.4984 20.971 27.3353 22.2157 25.2703 22.3328C25.2697 22.3328 25.2692 22.3328 25.2686 22.3328L25.603 22.3891C24.6318 22.0062 23.6397 21.4386 23.0033 20.7688C22.8903 20.6469 22.798 20.5197 22.7568 20.4348Z" fill="black"/>
</svg>
