<svg width="42" height="46" viewBox="0 0 42 46" fill="none" xmlns="http://www.w3.org/2000/svg">
<path d="M3.02702 16.7026C2.90855 16.7026 2.79008 16.7026 2.69943 16.7915C2.60878 16.8803 2.54954 17.0581 2.69673 17.2385C3.08688 17.7166 3.9802 17.7797 4.48999 17.7204C4.71583 17.6942 3.80787 17.4207 3.41834 17.3318C3.2927 17.3031 3.44347 17.0652 3.38603 16.9441C3.32859 16.8229 3.09164 16.7637 2.9992 16.822C2.90675 16.8803 2.96599 17.0581 3.02702 17.2412" stroke="black" stroke-width="2" stroke-linecap="round"/>
<path d="M15.0495 17.1177C14.9744 17.0802 14.7666 17.1735 14.4634 17.4195C14.1809 17.6487 14.0823 18.0833 14.0063 18.4531C13.9769 18.5957 14.0054 18.6538 14.0433 18.6828C14.2569 18.8467 15.1759 18.4306 15.7128 18.0204C16.0173 17.7877 15.9035 17.2908 15.8377 16.9398C15.7927 16.6996 15.3171 16.7949 14.9573 16.8422C14.6312 16.885 14.4051 17.0221 14.2912 17.1641C14.2525 17.231 14.2525 17.2874 14.3182 17.3352C14.384 17.383 14.5155 17.4206 14.651 17.4593" stroke="black" stroke-width="2" stroke-linecap="round"/>
<path d="M28.7122 16.3207C28.6371 16.3207 28.1663 16.4522 27.4458 16.8206C26.2648 17.4243 26.7766 18.6162 26.8141 18.7394C26.8524 18.8648 27.0794 18.8257 27.2309 18.7975C27.4014 18.7658 27.9858 18.0349 28.7828 17.0673C29.0631 16.7272 29.0538 16.6634 29.0444 16.6062C29.035 16.549 29.0163 16.4926 28.9314 16.4354C28.7149 16.2894 28.4287 16.245 28.2297 16.2165C28.0882 16.1963 27.8788 16.3196 27.6416 16.5561C27.5346 16.6629 27.536 16.8114 27.5451 16.9168C27.5918 17.0972 27.7433 17.2686 28.0362 17.4673C28.2164 17.572 28.4606 17.6848 28.7122 17.8009" stroke="black" stroke-width="2" stroke-linecap="round"/>
<path d="M37.8218 17.1749C37.8218 17.1561 37.8218 17.1373 37.7936 17.1464C37.7017 17.1761 37.5758 17.3258 37.4432 17.5057C37.3322 17.6562 37.3094 17.8569 37.3282 18.0559C37.3365 18.1438 37.3845 18.1985 37.4415 18.2276C37.7706 18.3954 38.2192 17.7647 38.4378 17.4986C38.4948 17.4292 38.5232 17.3286 38.5425 17.2333C38.5619 17.1379 38.5619 17.044 38.4773 16.9956C38.2532 16.8673 37.9368 17.0223 37.7566 17.1644C37.6891 17.2313 37.6703 17.2876 37.6888 17.3354C37.7073 17.3833 37.7637 17.4208 37.8218 17.4596" stroke="black" stroke-width="2" stroke-linecap="round"/>
<path d="M38.0488 29.1304C37.385 29.9451 37.3087 30.3624 37.3369 30.5995C37.3477 30.6901 37.4214 30.7051 37.4974 30.7148C37.5734 30.7245 37.6674 30.7245 37.8097 30.6211C38.1762 30.355 38.5589 29.7037 38.8442 29.0871C38.9407 28.8784 38.7912 28.8275 38.6862 28.8175C38.5811 28.8076 38.4872 28.8264 38.4012 28.8736C38.3153 28.9209 38.2401 28.996 38.2014 29.0723C38.1627 29.2237 38.1439 29.4327 38.1154 29.7353C38.1058 29.9063 38.1058 30.113 38.2196 30.3829" stroke="black" stroke-width="2" stroke-linecap="round"/>
<path d="M27.3475 28.2197C26.9717 28.2197 26.703 28.2948 26.5516 28.4838C26.1534 28.9808 26.0768 29.6965 26.0568 30.2484C26.0527 30.3646 26.1132 30.4571 26.2077 30.5337C26.3022 30.6102 26.4525 30.6666 26.6145 30.6487C27.4244 30.559 28.0842 29.4198 28.4474 28.6117C28.6149 28.239 28.4485 27.9168 28.3446 27.7748C28.289 27.6987 28.1844 27.6515 28.0796 27.6225C27.9749 27.5934 27.8621 27.5934 27.7195 27.678C27.3739 27.8829 27.196 28.1622 27.1297 28.2758C27.0676 28.3821 27.0628 28.6541 27.091 28.9954C27.1192 29.13 27.1755 29.1864 27.2609 29.2154C27.3463 29.2445 27.4591 29.2445 27.5752 29.2445" stroke="black" stroke-width="2" stroke-linecap="round"/>
<path d="M14.8223 28.3332C14.5769 28.3326 14.0469 28.7101 13.6657 29.2894C13.509 29.5276 13.5698 29.8311 13.598 30.0491C13.6097 30.1394 13.6825 30.1732 13.7585 30.1738C14.5905 30.18 15.485 28.6964 15.6097 28.3061C15.6815 28.0812 15.6006 27.8783 15.5157 27.7741C15.3906 27.6205 15.1269 27.65 14.8906 27.7064C14.2263 27.8648 13.9706 28.4448 13.7127 29.118C13.5869 29.4463 13.7588 29.8493 13.9103 30.1906C14.0091 30.4134 14.2143 30.4772 14.3657 30.5248C14.6841 30.6247 15.3677 29.8749 15.7611 29.2743C15.821 29.1829 15.7901 29.0938 15.7714 29.0269C15.7526 28.96 15.715 28.9036 15.6487 28.8558C15.5014 28.7496 15.2038 28.7317 14.8721 28.7411C14.241 28.759 13.7418 29.7542 13.6364 30.163C13.5821 30.3738 13.7019 30.6093 13.8533 30.7989C13.9718 30.9472 14.3076 30.9896 14.6962 31.0278C14.8585 31.0437 14.9533 30.9908 15.058 30.8869C15.3058 30.6411 15.4668 30.2142 15.59 29.619C15.7684 28.7577 15.526 27.9751 15.2419 27.5769C15.0537 27.313 14.8229 27.2896 14.6999 27.2612C14.6343 27.246 14.5581 27.2515 14.4725 27.3079C14.2664 27.4434 14.1773 27.6682 14.1582 27.8385C14.1579 27.9335 14.1767 28.0463 14.2427 28.1419C14.3088 28.2375 14.4215 28.3127 14.5377 28.3901" stroke="black" stroke-width="2" stroke-linecap="round"/>
<path d="M3.09375 29.1304V29.1873" stroke="black" stroke-width="2" stroke-linecap="round"/>
<path d="M3.14062 29.7503L3.21055 29.5405" stroke="black" stroke-width="4" stroke-linecap="round"/>
<path d="M2.93094 41.9178C2.79248 42.0101 2.65402 42.1024 2.62885 42.1038C2.51602 42.11 2.81416 41.8024 2.81451 41.6506C2.81461 41.6078 2.72255 41.6604 2.65228 41.8227C2.582 41.9849 2.51277 42.2618 2.5348 42.416C2.55683 42.5702 2.67221 42.5933 2.76626 42.5705C2.94841 42.5265 3.13932 42.2226 3.36064 41.9083C3.44926 41.7825 3.46658 41.7094 3.3977 41.6968C3.16865 41.6549 2.93164 41.8241 2.80367 41.9286C2.50914 42.1692 2.5813 42.6394 2.61591 42.8139C2.63326 42.9013 2.71976 42.9653 2.82465 42.9894C3.06181 43.044 3.32603 42.8974 3.547 42.7349C3.77868 42.5644 3.84 42.1073 3.80538 41.6412C3.79282 41.472 3.70154 41.452 3.58511 41.4402C3.46868 41.4283 3.30715 41.4283 3.20086 41.4744C3.09457 41.5206 3.04842 41.6129 3.05925 41.6835C3.07009 41.7541 3.13932 41.8003 3.24421 41.8241C3.3491 41.8478 3.48756 41.8478 3.5935 41.8132C3.69944 41.7786 3.76867 41.7094 3.80433 41.5814C3.84 41.4534 3.84 41.2688 3.75923 41.1622C3.39245 40.6779 2.56032 41.1248 2.05859 41.2762C1.95168 41.3084 1.88342 41.3346 1.8593 41.3811C1.83517 41.4276 1.85825 41.4968 1.90475 41.5555C1.95125 41.6143 2.02048 41.6604 2.11383 41.7073C2.20719 41.7541 2.32257 41.8003 2.44144 41.8478" stroke="black" stroke-width="2" stroke-linecap="round"/>
<path d="M14.5405 41.8478C14.3097 42.1939 14.0789 42.54 14.0408 42.7068C14.0027 42.8736 14.1642 42.8505 14.3051 42.804C14.5722 42.7159 14.7265 42.5477 14.8079 42.4082C14.8476 42.3403 14.8663 42.2687 14.8436 42.2215C14.8209 42.1743 14.7516 42.1512 14.6698 42.1394C14.588 42.1275 14.4957 42.1275 14.4251 42.2082C14.3544 42.289 14.3083 42.4505 14.2961 42.5799C14.2838 42.7093 14.3069 42.8016 14.3765 42.8376C14.5411 42.9228 14.7726 42.7806 14.9355 42.6414C15.0243 42.5656 15.0523 42.41 15.0646 42.304C15.0768 42.1981 15.0537 42.1289 15.0072 42.1163C14.8909 42.0848 14.774 42.2666 14.6925 42.4292C14.5954 42.623 14.6335 42.826 14.703 42.9425C14.737 42.9994 14.8188 43.0128 14.9006 43.0016C15.3136 42.9451 15.4027 42.3848 15.4261 42.2103C15.437 42.1289 15.4034 42.0589 15.3107 42.0233C15.0712 41.9311 14.7978 42.0338 14.6464 42.1383C14.5215 42.2246 14.5405 42.4526 14.5866 42.6505C14.6081 42.7426 14.7251 42.7792 14.8188 42.803C14.9125 42.8267 15.0048 42.8267 15.11 42.6768C15.2153 42.5268 15.3306 42.2268 15.3555 42.0492C15.3803 41.8715 15.3111 41.8254 15.2397 41.7778" stroke="black" stroke-width="2" stroke-linecap="round"/>
<path d="M27.4066 42.0573C27.1759 42.1496 26.9451 42.2419 26.8724 42.2779C26.6998 42.3633 27.2661 42.058 27.3479 41.9877C27.4055 41.9382 27.2898 42.2426 27.371 42.4174C27.4059 42.4928 27.5213 42.4769 27.6035 42.4307C27.6856 42.3845 27.7549 42.2922 27.7328 42.2447C27.6717 42.1128 27.3612 42.2433 27.1748 42.3478C27.0946 42.3928 27.0808 42.4755 27.1266 42.4996C27.1724 42.5237 27.2877 42.5006 27.3587 42.4426C27.642 42.2109 27.5465 41.8251 27.5119 41.7083C27.4998 41.6677 27.408 41.73 27.3377 41.8346C27.1701 42.0839 27.1269 42.4286 27.1961 42.6503C27.2654 42.7104 27.4038 42.6643 27.5098 42.6059C27.6157 42.5475 27.6849 42.4782 27.7563 42.2671" stroke="black" stroke-width="2" stroke-linecap="round"/>
<path d="M39.0844 41.428C39.0382 41.428 38.7606 41.7741 38.4452 42.3217C38.3401 42.5041 38.5222 42.5692 38.6742 42.593C38.8263 42.6168 38.9879 42.6168 39.1057 42.5821C39.311 42.5218 39.4102 42.3147 39.4686 42.1287C39.4969 42.0385 39.4578 41.9427 39.3305 41.8951C38.9922 41.7687 38.6424 41.9168 38.491 42.0563C38.4235 42.1185 38.4089 42.1958 38.4201 42.2776C38.4312 42.3594 38.4774 42.4517 38.5819 42.4877C38.8338 42.5745 39.1298 42.3615 39.3393 42.1406C39.5157 41.9543 39.62 41.7553 39.6784 41.5808C39.7048 41.502 39.6676 41.4294 39.4941 41.3937C39.3207 41.3581 38.9977 41.3581 38.8082 41.4042C38.6187 41.4504 38.5725 41.5427 38.5372 41.6248C38.4731 41.7739 38.4781 41.9629 38.5477 42.1724C38.5942 42.2664 38.6634 42.3357 38.7337 42.3598C38.804 42.3839 38.8732 42.3608 39.0844 42.1972" stroke="black" stroke-width="2" stroke-linecap="round"/>
<path d="M39.223 28.4214C39.6188 30.1913 39.7125 30.6115 39.6663 30.7514C39.6205 30.8904 39.3635 30.822 39.224 30.8454C38.9331 30.8943 38.7342 30.636 38.6062 30.5318C38.5475 30.4507 38.5013 30.3122 38.4891 30.2063C38.4769 30.1003 38.4999 30.0311 38.6636 29.8899" stroke="black" stroke-width="2" stroke-linecap="round"/>
<path d="M15.6634 2.54346C15.6023 2.74702 15.5413 2.95058 15.581 3.03509C15.6208 3.1196 15.7633 3.07889 15.796 3.07827C15.8591 3.07708 15.6227 3.24174 15.6119 3.35493C15.6418 3.3867 15.7436 3.36634 15.8062 3.32532C15.8688 3.2843 15.8892 3.22323 15.8485 3.16031" stroke="black" stroke-width="3" stroke-linecap="round"/>
<path d="M28.186 2.3584C27.9417 2.52125 27.6974 2.6841 27.6632 2.76799C27.6289 2.85188 27.8122 2.85188 27.9371 2.82135C28.062 2.79081 28.123 2.72975 28.1647 2.65757C28.2063 2.5854 28.2267 2.50398 28.2066 2.47221C28.1629 2.40293 27.9405 2.54284 27.7452 2.67608C27.5967 2.77743 27.6308 3.01535 27.6613 3.18992C27.6865 3.33359 27.8769 3.38608 28.0203 3.44776C28.0984 3.48134 28.2045 3.46874 28.2874 3.4382C28.4476 3.37925 28.5147 3.22261 28.5456 3.07919C28.5561 2.99684 28.5561 2.89506 28.4645 2.84263C28.3729 2.7902 28.1897 2.7902 28.0009 2.7902" stroke="black" stroke-width="3" stroke-linecap="round"/>
<path d="M38.6719 3.09863C38.5905 3.18006 38.5091 3.26148 38.5078 3.31361C38.5053 3.42167 38.7941 3.40706 39.0096 3.36635C39.1098 3.34743 39.1642 3.24421 39.1549 3.19209C39.1457 3.13996 39.0642 3.11961 38.9714 3.1193C38.8786 3.11899 38.7768 3.13935 38.7953 3.28369" stroke="black" stroke-width="3" stroke-linecap="round"/>
<path d="M3.20294 2.42041C2.83653 2.62397 2.47012 2.82753 2.34243 2.94258C2.21474 3.05762 2.33688 3.07798 2.4914 3.08846C2.64592 3.09895 2.82913 3.09895 2.94386 3.06842C3.11822 3.02201 3.18197 2.85283 3.21312 2.75012C3.29556 2.47832 2.58732 2.54378 2.41244 2.57432C2.35241 2.5848 2.38006 2.66592 2.42108 2.70756C2.52317 2.76955 2.83036 2.79052 3.21065 2.75999C3.34667 2.72945 3.36702 2.66839 3.388 2.60547" stroke="black" stroke-width="3" stroke-linecap="round"/>
<path d="M15.3555 29.4385V29.7469" stroke="black" stroke-width="6" stroke-linecap="round"/>
<path d="M28.0003 17.2247C28.0003 17.2043 28.0003 17.184 27.9901 17.204C27.98 17.2241 27.9596 17.2852 27.877 17.4714" stroke="black" stroke-width="6" stroke-linecap="round"/>
<path d="M38.9805 3.40723V3.5306" stroke="black" stroke-width="6" stroke-linecap="round"/>
<path d="M3.3265 41.8374L3.20312 42.0225" stroke="black" stroke-width="6" stroke-linecap="round"/>
</svg>
