<svg width="40" height="58" viewBox="0 0 40 58" fill="none" xmlns="http://www.w3.org/2000/svg">
<path d="M8.97054 12.9665C8.85669 12.9935 8.76349 13.0032 8.68332 13.0074C8.67489 13.0078 8.66651 13.0082 8.65819 13.0085C8.23083 13.0359 7.78912 12.8538 7.55472 12.6812C7.46888 12.6198 7.54809 12.5831 7.49415 12.5382C7.39775 12.4541 7.27543 12.415 7.20295 12.3237C7.17866 12.2927 7.28167 12.2319 7.25569 12.2019C7.11272 12.0367 6.95991 11.9378 6.84126 11.7889C6.27965 11.0556 5.92485 10.3835 5.57819 9.67139C5.46552 9.43621 5.42016 9.11321 5.25866 8.89805C5.23964 8.87303 5.14978 8.93482 5.13907 8.93334C4.9734 8.90805 5.18567 8.84398 5.18561 8.77809C5.18503 8.51718 5.08558 8.27644 4.95233 8.08592C4.89548 8.00516 4.72999 8.17902 4.80506 8.04217C4.81011 8.03277 4.93012 8.0095 4.9311 7.98048C4.93313 7.91484 4.86774 7.8188 4.85812 7.77268C4.84019 7.68356 4.83332 7.67044 4.80152 7.59225C4.75897 7.48495 4.76287 7.33619 4.69063 7.23201C4.67477 7.20979 4.57056 7.28708 4.53442 7.25553C4.49822 7.22391 4.46581 7.11637 4.47983 7.07104C4.49378 7.02567 4.5932 7.00576 4.61214 6.99161C4.77326 6.87417 4.47537 6.8466 4.46275 6.83336C4.24557 6.59034 4.29973 6.29462 4.20513 6.02849C4.13506 5.83324 4.01724 5.63997 3.95683 5.44812C3.95465 5.44117 3.95254 5.43423 3.95052 5.4273C3.93872 5.3865 3.9293 5.3464 3.92139 5.3069C3.86286 5.04701 3.87684 4.82183 3.85355 4.58016C3.85095 4.54894 3.69565 4.59301 3.69224 4.55329C3.66842 4.13335 3.69916 3.7343 4.04182 3.26372C4.04804 3.25573 4.05439 3.24779 4.06086 3.23988C4.10207 3.19032 4.18154 3.32911 4.22802 3.2882C4.29631 3.23007 4.38556 3.16361 4.51436 3.09955C4.7067 3.00327 4.94227 2.99686 5.09779 2.98672C5.25956 2.97312 5.39486 2.92105 5.5709 2.74609C5.78257 2.87053 5.94165 3.02637 5.97264 3.21168C5.99155 3.33168 5.82404 3.39004 5.94754 3.41087C5.97541 3.41613 6.04158 3.29492 6.07746 3.31125C6.227 3.37898 6.31297 3.5277 6.46174 3.58388C6.49276 3.59565 6.57675 3.50779 6.59875 3.49928C6.78042 3.43367 6.63972 3.71507 6.63987 3.74785C6.64388 3.99258 6.77793 4.05591 6.88281 4.19064C6.90725 4.22231 7.00642 4.08286 7.03483 4.1099C7.1792 4.25002 7.2947 4.42064 7.35138 4.61716C7.36347 4.6609 7.22613 4.71451 7.22599 4.73968C7.22626 4.8494 7.4543 4.70637 7.45888 4.80922C7.46002 4.83062 7.35566 4.89439 7.34682 4.90491C7.20751 5.06961 7.47439 4.92999 7.48772 4.93682C7.66001 5.01829 7.46888 5.28575 7.59765 5.38921C7.61339 5.40144 7.71473 5.27662 7.75131 5.31653C7.99586 5.58204 8.17735 5.91301 8.27568 6.26938C8.29101 6.32445 8.17239 6.36086 8.16247 6.37197C8.1264 6.41318 8.1136 6.43671 8.11538 6.44866C8.12159 6.48824 8.2831 6.40423 8.29808 6.41018C8.33759 6.42784 8.35692 6.45854 8.37064 6.4915C8.3774 6.52031 8.37324 6.54534 8.37319 6.52635C8.37011 6.51202 8.37162 6.41507 8.20766 6.26892C7.99932 6.26771 7.86029 6.3876 7.82413 6.43601C7.78744 6.4834 7.78755 6.50082 7.79055 6.50098C7.79919 6.50081 7.82104 6.45437 7.83535 6.40848C7.86769 6.307 7.88927 6.17582 7.91298 6.04415C7.96054 5.77791 8.0208 5.49603 8.2115 5.22324C8.21598 5.21617 8.36526 5.24404 8.37357 5.22982C8.47482 5.06061 8.23749 5.07232 7.96129 4.92922C7.89185 4.89379 8.24574 4.83448 8.27185 4.8285C8.36789 4.80748 8.58974 4.8574 8.6087 4.84919C8.75805 4.7801 8.01441 4.72917 8.02324 4.62048C8.02477 4.61717 8.16029 4.6432 8.17466 4.63522C8.21973 4.61045 8.16776 4.57756 8.21718 4.55365C8.33146 4.49894 8.69458 4.50708 8.49262 4.39154C8.46638 4.37683 8.04305 4.35987 8.07116 4.26353C8.08273 4.22486 8.09013 4.05141 8.12182 4.00449C8.1534 3.95802 8.28649 4.00371 8.29268 4.00074C8.48413 3.8858 8.5543 3.94224 8.82653 3.90183C9.09786 3.8616 8.4634 3.82053 8.39525 3.78702C8.32729 3.75324 8.48483 3.67132 8.53874 3.65333C8.59264 3.63515 8.67625 3.67264 8.70749 3.65492C8.91226 3.53492 8.39949 3.56198 8.3037 3.50537C8.07687 3.37212 8.55564 3.33427 8.61297 3.24332C8.62849 3.21844 8.51914 3.22725 8.51195 3.20251C8.48569 3.09915 8.63837 3.06625 8.52 2.93607C8.5007 2.91491 8.23219 2.785 8.44812 2.75671C8.47917 2.7532 8.59171 2.79537 8.62454 2.758C8.67352 2.70306 8.71864 2.59857 8.69404 2.52485C8.67574 2.47065 8.47349 2.4862 8.54629 2.43584C8.57924 2.41226 8.67803 2.49093 8.73042 2.44636C8.78163 2.40405 8.81242 2.27134 8.82623 2.22184C8.84002 2.16981 8.69184 2.14678 8.68365 2.13988C8.65378 2.1068 8.63457 2.02898 8.63129 1.97778C8.62933 1.95486 8.62977 1.93814 8.63139 1.93497C8.69052 1.80468 8.77801 1.69663 8.87484 1.6096C9.17417 1.34587 9.51185 1.27244 9.79946 1.07747C9.83068 1.0573 9.74784 0.920748 9.75198 0.916164C9.85111 0.804204 9.91053 1.23338 10.0321 1.33839C9.91283 1.03996 9.97831 1.07644 10.0523 1.01749C10.0883 0.989016 10.0332 0.875038 10.0333 0.861678C10.0523 0.65886 10.1613 0.886043 10.1808 0.933324C10.2404 1.06215 10.2555 0.969885 10.2838 0.964612C10.2935 0.962818 10.3039 0.970907 10.3156 1.00061C10.3578 1.11927 10.3251 1.30628 10.3938 1.29657C10.408 1.17869 10.3101 0.882702 10.382 0.826976C10.4563 0.772141 10.5619 0.751839 10.6722 0.764819C11.0015 0.79844 11.2365 1.10305 11.3333 1.20714C11.4775 1.35421 11.5327 1.38702 11.577 1.49837C11.6459 1.6998 11.7803 1.49383 11.9492 1.53301C11.9618 1.5361 11.9705 1.5407 11.9759 1.54652C12.0013 1.57809 12.0474 1.68064 12.0613 1.71871C12.0972 1.79731 11.5936 1.8981 11.4864 1.94599C11.37 1.99663 11.4991 1.97584 11.4379 2.01371C11.3766 2.05117 11.2831 2.03629 11.2701 2.08565C11.2636 2.11027 11.3223 2.13578 11.3993 2.15387C11.4763 2.17192 11.5714 2.18242 11.6373 2.17324C11.9166 2.13487 12.1862 2.0037 12.118 2.15223C12.1138 2.1607 11.9583 2.17633 11.9499 2.2067C11.8879 2.4459 11.9276 2.66403 11.8627 2.89189C11.8535 2.92314 11.6796 2.92878 11.6723 2.9471C11.5944 3.13633 11.8688 3.02406 12.2031 3.06905C11.7762 3.11684 11.5265 3.2114 11.5428 3.33823C11.5523 3.41507 11.7358 3.37527 11.8736 3.4083C11.9152 3.41841 11.7951 3.49119 11.8838 3.4899C12.1737 3.48686 12.4871 3.39186 12.377 3.54918C12.3717 3.55605 12.2128 3.55522 12.2058 3.5775C12.1595 3.72073 12.4609 3.70448 12.512 3.85261C12.5522 3.96925 12.3852 4.19355 12.3628 4.32734C11.881 4.35372 11.998 4.467 12.3327 4.50292C12.3231 4.58947 12.3453 4.68191 12.3016 4.7662C12.2866 4.79516 12.1464 4.78008 12.1314 4.78409C11.8959 4.84423 12.2204 4.87327 12.2335 4.89185C12.3606 5.09137 12.1148 5.25246 12.3514 5.44674C12.3599 5.45352 12.6953 5.4717 12.4491 5.51811C12.4322 5.52087 12.281 5.45432 12.2671 5.54395C12.2531 5.63448 12.0675 5.7941 12.2165 5.92543C12.2525 5.95687 12.5206 6.04894 12.3042 6.09805C12.2748 6.10447 12.1793 6.08973 12.125 6.09816C11.9523 6.12501 12.2897 6.16774 11.999 6.19269C11.7083 6.21782 11.4869 6.28839 11.675 6.42562C11.6805 6.42984 11.9462 6.48154 11.9385 6.51997C11.9261 6.58081 11.8619 6.66326 11.8571 6.72743C11.8549 6.75821 12.0231 6.75574 12.0256 6.76139C12.0969 6.97979 11.931 7.11243 11.8364 7.32399C11.8189 7.36168 12.0274 7.51317 11.8369 7.56444C11.6284 7.61956 10.8319 7.40445 10.994 7.6236C11.0589 7.70901 12.0671 7.9932 11.5094 8.03749C11.5885 8.3377 11.2645 8.52763 11.3837 8.84031C11.3889 8.85444 11.6612 8.96459 11.6498 8.99313C11.6324 9.03504 11.4947 9.02425 11.4781 9.05212C11.4047 9.16956 11.4846 9.31563 11.4302 9.43524C11.41 9.47982 11.2802 9.42327 11.2563 9.475C11.2322 9.52702 11.3969 9.62079 11.2879 9.66732C11.2052 9.70134 10.8272 9.63892 10.7619 9.69279C11.1136 9.81754 11.0897 9.8642 11.1493 9.98818C11.161 10.012 11.2897 10.0382 11.3015 10.0518C11.3185 10.0709 11.317 10.0829 11.3097 10.0925C11.2979 10.1082 11.2709 10.1173 11.2823 10.1411C11.2818 10.1532 11.2857 10.1596 11.292 10.1669C11.3046 10.1819 11.4215 10.2327 11.4383 10.2479C11.5713 10.3879 11.3229 10.3423 11.139 10.4299C11.0874 10.4757 10.8784 10.4211 10.8706 10.3443C10.8562 10.3026 10.8629 10.2838 10.8661 10.269C10.8759 10.2481 10.8846 10.2328 10.8903 10.2254C10.9018 10.2067 10.9016 10.195 10.8979 10.1822C10.8905 10.1581 10.8696 10.1353 10.9087 10.1138C10.9867 10.0723 11.0726 10.1494 11.1219 10.1012C11.2243 10.0006 11.2202 9.85445 11.2383 9.73891C11.2446 9.69401 11.079 9.70467 11.0761 9.69778C11.0479 9.5977 11.2268 9.52299 10.9191 9.43195C11.7381 9.46422 10.8476 9.36577 11.0285 9.25013C11.0431 9.2412 11.4166 9.27084 11.4693 9.31818C11.5221 9.36747 11.3993 9.41512 11.4826 9.48383C11.5015 9.49889 11.8597 9.62285 11.8824 9.63583C12.054 9.74218 11.4669 9.68069 11.4339 9.68102C11.0801 9.68908 11.4692 9.83118 11.4962 9.86008C11.615 9.98809 11.5217 10.0772 11.6101 10.1633C11.6662 10.1969 12.0774 10.3066 12.058 10.1259C12.045 10.0742 12.0676 10.052 11.9625 9.805C11.9479 9.77474 11.9316 9.74389 11.9076 9.70519C11.8709 9.64598 11.8207 9.57727 11.7469 9.50578C11.61 9.36164 11.3175 9.21866 11.0759 9.21655C10.8326 9.20648 10.6511 9.27992 10.5398 9.34064C10.4115 9.41506 10.4046 9.43129 10.363 9.46535C10.2298 9.5918 10.2278 9.62453 10.2081 9.65668C10.1921 9.68902 10.1905 9.70345 10.1899 9.71629C10.19 9.76504 10.2237 9.7697 10.2537 9.7805C10.3172 9.7962 10.3906 9.80014 10.4286 9.78528L10.4174 9.81315C10.4374 9.8041 10.4471 9.7905 10.4406 9.76958C10.4312 9.73917 10.3874 9.69315 10.2904 9.62377C10.2019 9.56019 9.77461 9.43973 10.1371 9.45878C10.1596 9.46106 10.4879 9.48663 10.3106 9.37942C10.2882 9.36612 10.1653 9.32613 10.1573 9.31579C10.1057 9.24742 10.2139 9.24699 10.1833 9.17924C10.1525 9.11205 10.1005 9.03002 10.1602 8.98144C10.1961 8.95183 10.4406 8.97182 10.5025 8.96918C10.6804 8.96376 10.4269 8.83483 10.6338 8.85657C10.8422 8.87703 11.1283 9.02271 11.2806 8.96859C10.9567 8.88044 10.6252 8.78625 10.2997 8.69653C10.3581 8.51871 10.5058 8.36519 10.5315 8.17415C10.5343 8.15066 10.3529 8.13656 10.3512 8.1109C10.3446 8.00369 10.4892 7.93629 10.4592 7.81953C10.4354 7.72802 10.2638 7.60336 10.2309 7.5097C10.6186 7.5202 10.5114 7.3677 10.5601 7.27801C10.5771 7.24632 10.6782 7.26342 10.7148 7.2441C10.8502 7.1714 10.5083 7.16605 10.4589 7.13428C10.2476 6.99999 11.0099 7.09186 11.0073 6.961C11.0075 6.95366 10.6112 6.82306 10.5871 6.80953C10.4303 6.7199 10.7299 6.81422 10.7651 6.7729C10.8292 6.69767 10.9325 6.65042 10.8228 6.54218C10.7903 6.51002 10.5427 6.42117 10.7438 6.38471C10.7701 6.37983 10.9044 6.39541 10.9128 6.39031C11.0533 6.2962 10.63 6.2586 10.4911 6.19014C10.3522 6.12214 10.6506 6.05271 10.7361 6.03876C10.9573 6.00346 10.8269 6.08225 10.8481 6.08622C11.1006 6.13452 11.0614 6.06373 11.0861 6.01276C11.5021 6.03007 11.4814 5.9538 11.1099 5.95999C11.0693 5.96074 11.1057 6.00327 11.0861 6.01276C10.6812 5.94216 10.6332 5.86566 11.0185 5.79514C11.199 5.76187 11.4059 5.80968 11.3347 5.67917C11.3023 5.62006 11.0152 5.63261 10.9387 5.5804C10.7642 5.46231 11.034 5.32141 10.9923 5.20241C10.9771 5.15993 10.8202 5.20088 10.8045 5.17212C10.762 5.09642 10.8792 5.02828 10.8179 4.95245C10.8121 4.94567 10.6483 4.96501 10.6458 4.94162C10.6239 4.76509 10.7235 4.60691 10.7158 4.42105C10.7122 4.33104 10.6106 4.17917 10.6205 4.08665C10.6375 3.92719 10.8521 3.70328 10.776 3.57367C10.7272 3.49006 10.5675 3.53269 10.4517 3.51193C10.2279 3.47431 10.5907 3.29006 10.6466 3.2614C10.6485 3.26039 10.699 3.32931 10.7754 3.27538C10.9443 3.2229 10.6475 3.26198 10.6466 3.2614C10.6833 3.24386 10.6933 3.0873 10.6566 3.06361C10.6367 3.05077 10.486 3.08898 10.4785 3.08188C10.3049 2.91339 10.2248 2.73785 10.2449 2.53155C10.2471 2.52742 10.416 2.48755 10.4189 2.47826C10.426 2.45758 10.4262 2.43951 10.4211 2.4239C10.398 2.35285 10.2663 2.33057 10.1541 2.29978L10.3587 2.71255C10.3407 2.71713 10.3233 2.72158 10.3072 2.72541C10.179 2.75558 10.2087 2.71526 10.4089 2.49377C10.3641 2.49231 10.4355 2.37241 10.4691 2.29568C10.5009 2.21792 10.3138 2.48587 10.3111 2.49115C10.2165 2.65536 10.3645 2.53058 10.4278 2.49527C10.4296 2.49453 10.4314 2.49386 10.4332 2.49327C10.4582 2.48507 10.4958 2.50074 10.5217 2.51766C10.5214 2.52729 10.518 2.53871 10.5151 2.5494C10.5086 2.57691 10.4729 2.50854 10.4657 2.55892C10.4649 2.5656 10.5152 2.69712 10.5162 2.70242C10.5571 2.86338 10.4431 2.54124 10.4153 2.48572C10.3119 2.2854 10.2354 2.18821 10.232 2.30467C10.2277 2.33338 10.439 2.77584 10.4485 2.80222C10.4553 2.83893 10.3661 2.68813 10.374 2.73211C10.3747 2.73569 10.4351 2.8255 10.4256 2.82522C10.3879 2.82492 10.3331 2.80665 10.3253 2.80535C10.3241 2.80497 10.3242 2.80484 10.3258 2.80492C10.3274 2.80419 10.4631 2.90824 10.4699 2.90577C10.485 2.89957 10.5006 2.88098 10.5076 2.85012C10.5346 2.76843 10.4987 2.78698 10.4485 2.80989C10.4245 2.82147 10.3116 2.78226 10.2762 2.77752C10.0607 2.75503 10.3529 2.87451 10.3576 2.88123C10.4639 3.09987 10.1573 3.26463 10.258 3.55353C10.2639 3.57082 10.5817 3.71844 10.2926 3.74228C10.2733 3.74344 9.9775 3.76834 10.1713 3.8334C10.1834 3.83746 10.3361 3.81967 10.3151 3.8747C10.2941 3.9298 10.3846 4.0325 10.2129 4.09675C10.1588 4.11707 9.86378 4.15209 10.0874 4.24881C10.1031 4.25525 10.6136 4.41812 10.2501 4.42984C10.1902 4.43164 9.81027 4.3918 9.99714 4.50082C10.0334 4.52172 10.1211 4.49687 10.1699 4.54795C10.2452 4.62625 10.1348 4.71276 10.2961 4.81633C10.3247 4.83446 10.5767 4.92248 10.3759 4.95943C10.3445 4.96518 10.2191 4.93819 10.2023 4.96529C10.1219 5.09334 10.1932 5.2443 10.0916 5.37459C10.0558 5.42172 9.85381 5.37651 9.79376 5.42279C9.73372 5.46937 9.6704 5.56554 9.75751 5.63144C9.84475 5.6964 10.177 5.67092 10.1935 5.75723C10.2588 6.14388 10.0395 6.46464 9.86677 6.99244C9.83641 7.07816 9.97542 7.02792 9.92873 7.17668C9.89812 7.26695 9.87156 7.35642 9.79405 7.52057C9.75613 7.59789 9.71345 7.68364 9.62043 7.81529C9.53032 7.93577 9.41549 8.0941 9.13385 8.28267C8.89647 8.45532 8.36311 8.62295 7.94471 8.54981C7.56601 8.50292 7.25037 8.31203 7.13086 8.22245C6.81016 7.97683 6.74661 7.85431 6.64541 7.71273C6.6137 7.65527 6.58774 7.59574 6.57142 7.53512C6.55302 7.465 6.5478 7.39312 6.56182 7.32079C6.61603 7.051 6.87425 7.16161 6.85785 6.99614C6.84934 6.91644 6.49844 7.06993 6.47939 7.06289C6.28826 6.99588 6.36093 6.80674 6.23721 6.71565C6.21165 6.69684 6.10413 6.80862 6.0838 6.79166C6.01328 6.73445 6.01742 6.6201 5.96079 6.55894C5.93513 6.53173 5.84486 6.6043 5.83305 6.57107C5.80372 6.4924 5.80295 6.4052 5.84587 6.27742C5.84973 6.26576 5.99348 6.22195 5.96372 6.16962C5.91532 6.08519 5.93223 5.92456 5.7803 5.89918C5.7349 5.89202 5.52442 6.04678 5.62922 5.88259C5.65107 5.84828 5.91287 5.67556 5.64879 5.77183C5.60428 5.78728 5.23639 5.89869 5.38503 5.70432C5.42417 5.65312 5.59999 5.46155 5.54516 5.45515C5.53706 5.45495 5.4393 5.55706 5.4099 5.54022C5.30889 5.48019 5.25228 5.38078 5.15163 5.32242C5.12492 5.30744 5.0404 5.43202 5.00459 5.40728C4.90573 5.33894 4.84758 5.20921 4.81426 5.10279C4.80227 5.06345 4.90525 5.00263 4.91296 4.99193C5.03575 4.8161 4.81398 4.99008 4.79332 4.99143C4.66695 4.99739 4.71941 4.86198 4.6517 4.84458C4.63419 4.84043 4.55401 4.94803 4.54393 4.95477C4.44775 5.02262 4.61984 4.85696 4.62345 4.82409C4.63432 4.73106 4.58889 4.7119 4.60243 4.73748C4.61001 4.748 4.52126 4.87555 4.53402 4.88601C4.56728 4.90963 4.65067 4.96812 4.89081 4.98959C5.12001 5.02277 5.57155 4.89651 5.77432 4.6835C5.92283 4.54545 5.96302 4.4491 5.98333 4.38474C5.99574 4.33293 5.87867 4.30033 5.86066 4.27831C5.84026 4.25664 5.82761 4.24167 5.82135 4.23121C5.78449 4.17636 5.95616 4.24328 5.97764 4.24484C6.08626 4.26712 5.9858 4.23834 6.00054 4.25695C6.06494 4.34804 6.01019 4.58729 5.98917 4.66274C5.99024 4.66962 5.99131 4.67646 5.99238 4.68327C5.99856 4.72216 6.00417 4.76072 6.00935 4.79898C6.06249 5.19216 6.07204 5.53063 6.21138 5.89386C6.22094 5.91922 6.35357 5.84315 6.36351 5.86433C6.48464 6.13923 6.51995 6.44151 6.65294 6.71061C6.66356 6.73279 6.7802 6.64931 6.80133 6.68314C6.84552 6.75218 6.86997 6.85139 6.85566 6.94463C6.84898 6.99003 6.72418 6.9831 6.71988 7.02798C6.70982 7.13266 6.73448 7.23105 6.78636 7.31284C6.80863 7.3475 6.91433 7.23695 6.93319 7.28597C7.06517 7.61938 7.20402 7.93551 7.18955 8.33861C7.18843 8.36615 6.95916 8.50179 7.02623 8.5283C7.09347 8.49957 7.17057 8.46126 7.24139 8.42821C7.47941 8.88048 7.61963 9.3735 7.86244 9.78481C7.87261 9.80202 7.96245 9.69856 7.98227 9.73103C8.09778 9.91825 8.23742 10.0563 8.26941 10.2885C8.27267 10.311 8.10153 10.4583 8.16725 10.4794C8.17935 10.4838 8.25944 10.5238 8.30724 10.502C8.31412 10.4984 8.37539 10.4119 8.39509 10.4271C8.50606 10.5145 8.58233 10.5975 8.60752 10.6784C8.61203 10.692 8.55941 10.7892 8.56368 10.8002C8.59389 10.8632 8.62931 10.8258 8.63642 10.8537C8.63437 10.8542 8.63223 10.8546 8.63001 10.8551C8.5924 10.8657 8.51231 10.8767 8.38094 10.9637C8.14692 11.138 8.18252 11.2993 8.23634 11.3519C8.29427 11.4143 8.37489 11.4713 8.46252 11.5089C8.48618 11.5281 8.49319 11.5068 8.60194 11.5C8.87635 11.4939 9.17477 11.5485 9.46738 11.5402C9.5168 11.5318 9.48795 11.4515 9.54195 11.4569C9.54196 11.4569 9.54197 11.4569 9.54199 11.4569C9.55795 11.4571 9.58118 11.461 9.61574 11.4772C9.62614 11.4732 9.67625 11.5994 9.71549 11.6833C9.74412 11.7334 9.86782 11.6606 9.896 11.772C9.91124 11.8941 9.82082 12.0348 9.62645 12.3652C9.51967 12.5267 9.49518 12.5931 9.43329 12.686C9.37587 12.7717 9.22626 12.9048 8.97054 12.9665ZM10.5767 1.94456C10.6104 1.78915 10.4193 2.32278 10.4672 2.19898C10.4698 2.19238 10.5746 1.95205 10.5767 1.94456ZM10.9438 8.46427C11.2183 8.44504 10.8518 8.30802 10.6413 8.31804C10.4313 8.32629 10.8607 8.46933 10.9438 8.46427ZM10.9205 9.30975C11.1465 9.27845 10.3372 9.02852 10.4745 9.16787C10.4822 9.17583 10.9074 9.31144 10.9205 9.30975ZM8.61764 11.3939C8.61789 11.3972 8.63167 11.4007 8.64195 11.4012C8.64256 11.4013 8.64309 11.4013 8.64354 11.4013C8.64494 11.4012 8.6455 11.4005 8.64549 11.3991C8.64383 11.3532 8.64121 11.3231 8.64127 11.3099C8.6412 11.3079 8.64111 11.3063 8.64098 11.3051C8.6294 11.2931 8.61239 11.3206 8.61764 11.3939ZM10.8587 10.1086C10.9557 10.1719 10.8787 10.0264 10.7335 10.0007C10.677 9.98709 10.6725 10.0059 10.7067 10.0197C10.7424 10.0305 10.8157 10.0477 10.8587 10.1086ZM8.87667 3.27188C8.8685 3.27185 8.85705 3.30695 8.90259 3.31152C9.04928 3.32598 9.01382 3.27187 8.87667 3.27188ZM11.347 8.86104C11.3142 9.07571 10.6695 9.13128 10.7832 8.91225C10.8021 8.8721 10.9594 9.02277 11.0222 8.97562C11.1306 8.88844 10.7755 8.78687 10.9854 8.70729C11.0206 8.69249 11.3481 8.84936 11.3478 8.8615C11.3475 8.86134 11.3473 8.86119 11.347 8.86104ZM10.8123 1.30358C10.814 1.29586 10.7681 1.27194 10.7645 1.27891C10.6874 1.44205 10.7612 1.48417 10.8123 1.30358ZM8.34531 5.37165C8.33003 5.37226 8.30383 5.48786 8.31729 5.493C8.58934 5.58434 8.64366 5.34887 8.34531 5.37165ZM12.3501 4.33019C12.5433 4.37621 12.5693 4.4462 12.3329 4.50265C12.3429 4.44532 12.3418 4.38803 12.3501 4.33019Z" fill="black"/>
<path d="M21.3987 15.9956C21.5076 15.8383 21.7489 15.649 21.9397 15.5301C22.0023 15.4896 22.035 15.5699 22.0807 15.5445C22.1661 15.4985 22.1997 15.4058 22.294 15.3579C22.324 15.3439 22.3898 15.457 22.4192 15.4403C22.5816 15.3463 22.6774 15.1943 22.823 15.0731C23.5375 14.4788 24.1768 13.8134 24.8247 13.1338C25.0402 12.9072 25.3686 12.6909 25.5346 12.4114C25.5539 12.3786 25.4549 12.3261 25.4525 12.3148C25.4168 12.1402 25.5647 12.3093 25.6335 12.2721C25.9065 12.1231 26.1185 11.8784 26.2607 11.6342C26.321 11.5299 26.0764 11.486 26.2464 11.4699C26.2581 11.4686 26.3302 11.5651 26.3602 11.5475C26.4281 11.5077 26.4993 11.3853 26.5423 11.3462C26.6254 11.2713 26.6361 11.2561 26.7018 11.1754C26.7924 11.0657 26.9431 10.9682 27.0167 10.8314C27.0321 10.802 26.9114 10.7623 26.9274 10.7088C26.9435 10.6554 27.0361 10.5532 27.0868 10.5338C27.1375 10.5145 27.1996 10.5877 27.2217 10.5945C27.4069 10.6525 27.3055 10.372 27.313 10.352C27.457 9.99165 27.7643 9.82418 27.9743 9.54265C28.1328 9.3296 28.2642 9.07147 28.4167 8.87234C28.6009 8.63239 28.8012 8.46326 28.9595 8.21766C28.9762 8.19197 28.8404 8.1408 28.8605 8.10936C28.9414 7.9826 29.0276 7.8549 29.1162 7.73498C29.1327 7.71259 29.1493 7.69036 29.1661 7.6683C29.2541 7.55913 29.3422 7.43303 29.4408 7.28578C29.459 7.25862 29.5662 7.33608 29.5919 7.30977C29.7487 7.15741 30.0559 6.80217 29.5014 6.62559C29.5308 6.48525 29.5516 6.30894 29.6617 6.17149C29.7326 6.08208 29.8805 6.16684 29.8142 6.05651C29.7992 6.03176 29.6744 6.06727 29.6612 6.0307C29.6054 5.87758 29.6303 5.70396 29.5438 5.55479C29.5258 5.52456 29.4107 5.54425 29.3885 5.53745C29.2084 5.48168 29.4703 5.32895 29.4869 5.29788C29.5561 5.16863 29.5575 5.06355 29.5396 4.96185C29.5335 4.92752 29.5249 4.89352 29.5157 4.85888C29.5096 4.84892 29.5027 4.84493 29.5007 4.84513C29.4996 4.84771 29.3479 4.90139 29.3449 4.91571C29.3515 5.03998 29.4587 5.06722 29.3321 4.96994C29.308 4.95015 29.3604 4.80298 29.3484 4.7854C29.2829 4.70761 29.2363 4.99416 29.1697 4.92897C29.1544 4.91552 29.1693 4.78489 29.1669 4.77038C29.1639 4.75302 29.1607 4.73882 29.1574 4.72741C29.125 4.62073 29.0878 4.75915 29.0703 4.8311C29.0651 4.85244 29.0612 4.86792 29.0586 4.86941C28.9128 4.9671 28.7799 4.64418 28.6167 4.72257C28.599 4.7322 28.6727 4.88647 28.6233 4.90336C28.2965 5.01743 27.9381 5.12995 27.53 5.23754C27.4671 5.25437 27.4357 5.12715 27.4242 5.11639C27.2365 4.95473 27.3783 5.24484 27.3697 5.26531C27.2897 5.4253 26.9998 5.31292 27.1518 5.67703C26.5304 6.01386 26.1947 6.68399 25.4762 7.03328C25.4673 7.0381 25.3593 6.9287 25.3421 6.93865C25.1339 7.05868 25.3445 7.17674 25.4805 7.46951C25.515 7.54238 25.1695 7.41668 25.1428 7.40963C25.0455 7.38127 24.8904 7.21261 24.8683 7.2113C24.6908 7.20722 25.2941 7.64746 25.211 7.7549C25.2074 7.75755 25.1091 7.66037 25.0912 7.66124C25.0353 7.66377 25.057 7.72493 24.998 7.72466C24.8618 7.72325 24.5556 7.52988 24.6499 7.75494C24.6625 7.78375 25.0151 8.01474 24.9254 8.10144C24.8901 8.13465 24.7671 8.31326 24.7092 8.34685C24.6518 8.37968 24.5666 8.26777 24.5593 8.26781C24.3185 8.29674 24.2948 8.20375 24.0318 8.11913C23.7694 8.03623 24.2931 8.37842 24.3304 8.44616C24.3679 8.5132 24.1785 8.52711 24.1197 8.52268C24.0608 8.51798 24.0125 8.4387 23.9736 8.44402C23.7182 8.48201 24.1826 8.68449 24.2305 8.78797C24.3454 9.03046 23.905 8.85684 23.7973 8.93483C23.7682 8.9557 23.8701 8.99203 23.8612 9.02219C23.8251 9.1405 23.6653 9.12134 23.6981 9.30592C23.7019 9.32786 23.7909 9.46228 23.7597 9.51363C23.748 9.53298 23.7193 9.54059 23.6627 9.52611C23.6329 9.51836 23.5546 9.43133 23.5049 9.45961C23.4916 9.46712 23.4777 9.47647 23.4635 9.48731C23.4475 9.50516 23.4295 9.52422 23.4023 9.54504C23.3667 9.57209 23.2901 9.62677 23.1724 9.58947C23.0036 9.49697 23.0431 9.44843 23.0187 9.41428C22.9968 9.34605 22.9853 9.30351 22.9627 9.269C22.9233 9.20463 22.7529 9.31456 22.7966 9.21973C22.8166 9.17799 22.9338 9.23056 22.9629 9.15578C22.9921 9.08433 22.97 8.92272 22.9605 8.86084C22.9508 8.79993 22.8154 8.84729 22.8055 8.84336C22.7489 8.81672 22.6727 8.70621 22.672 8.69491C22.6164 8.17373 22.8026 7.67366 22.6484 7.19123C22.6367 7.15376 22.5066 7.20353 22.5034 7.19806C22.4261 7.07915 22.7995 7.11591 22.9006 6.99927C22.6327 7.06522 22.6721 7.00148 22.6241 6.91553C22.6007 6.87449 22.5023 6.92119 22.4909 6.91943C22.3217 6.89089 22.514 6.80094 22.5521 6.77898C22.6931 6.69947 22.5041 6.69718 22.5969 6.64245C22.6881 6.58662 22.8535 6.61691 22.8272 6.52734C22.7276 6.52873 22.5011 6.6583 22.445 6.60561C22.3863 6.55044 22.3489 6.47534 22.3217 6.39319C22.3157 6.37473 22.3105 6.3563 22.3052 6.33716C22.2744 6.19968 22.2013 6.01347 22.112 5.94288C21.9774 5.8356 21.9115 5.83455 21.8218 5.76925C21.648 5.65949 21.6733 5.85202 21.5565 5.91371C21.4445 5.98168 21.5324 5.55381 21.5234 5.45838C21.5103 5.36329 21.4815 5.45806 21.4589 5.40554C21.4348 5.35312 21.4957 5.29146 21.4321 5.27004C21.4234 5.26721 21.4125 5.2678 21.4004 5.27127C21.3704 5.27936 21.3329 5.30388 21.2996 5.33709C21.2413 5.39406 21.1999 5.47678 21.1998 5.53136C21.2031 5.74326 21.2947 5.94278 21.1901 5.89346C21.183 5.89102 21.1672 5.7752 21.1408 5.77181C20.9226 5.74974 20.7278 5.91769 20.5332 6.08964C20.5054 6.11381 20.409 6.01832 20.391 6.03253C20.2039 6.1916 20.4403 6.23044 20.6219 6.43142C20.417 6.32146 20.2527 6.27312 20.1458 6.31708C20.1421 6.32524 20.1366 6.35012 20.1352 6.35899C20.1112 6.3769 20.093 6.39903 20.0812 6.42541C20.074 6.44165 20.0691 6.45951 20.0668 6.47898C20.0548 6.58082 20.202 6.57758 20.2986 6.65223C20.3278 6.67447 20.2212 6.73662 20.2888 6.75575C20.5103 6.81768 20.7668 6.77305 20.6546 6.9339C20.6493 6.94098 20.5273 6.90746 20.518 6.9327C20.4573 7.09604 20.6932 7.13334 20.7141 7.31311C20.7306 7.45352 20.5765 7.69672 20.5499 7.85809C20.1613 7.84406 20.2461 8.00266 20.5159 8.06765C20.5043 8.17257 20.5202 8.2855 20.4839 8.38649C20.4715 8.42148 20.3568 8.39908 20.3446 8.40354C20.1511 8.4731 20.4171 8.51717 20.4282 8.53941C20.5353 8.78182 20.339 8.98986 20.5527 9.21499C20.5604 9.22307 20.842 9.22167 20.641 9.29426C20.6271 9.29919 20.4944 9.22905 20.4914 9.33926C20.4887 9.44967 20.3515 9.66853 20.4971 9.81169C20.532 9.84665 20.7729 9.91774 20.5994 10.009C20.5758 10.0213 20.4926 10.0181 20.4484 10.0369C20.3074 10.098 20.5998 10.0948 20.3593 10.1746C20.1188 10.2542 19.9442 10.3935 20.1332 10.5311C20.1388 10.5356 20.3747 10.5446 20.3772 10.5934C20.381 10.6718 20.3472 10.7894 20.3601 10.8703C20.3664 10.9091 20.5077 10.8638 20.5113 10.8701C20.6307 11.1179 20.5315 11.3206 20.525 11.6096C20.5234 11.6636 20.7513 11.7693 20.6128 11.899C20.4611 12.0421 19.7153 12.0755 19.9378 12.2979C20.0273 12.3913 20.9752 12.308 20.5405 12.5983C20.7413 12.9171 20.5815 13.3056 20.8538 13.6025C20.866 13.6161 21.1387 13.5867 21.1462 13.6232C21.157 13.6779 21.0456 13.7445 21.0497 13.7851C21.0642 13.9577 21.2153 14.0687 21.2523 14.226C21.2666 14.2856 21.1353 14.3083 21.153 14.3807C21.171 14.4531 21.3505 14.4397 21.306 14.5608C21.2722 14.6532 20.9668 14.8504 20.9649 14.9608C21.293 14.8371 21.3114 14.9054 21.4427 14.9834C21.468 14.9982 21.572 14.9294 21.5899 14.934C21.6648 14.9513 21.5866 15.0276 21.6664 15.0408C21.6856 15.0441 21.7966 14.9985 21.8185 14.9985C22.0087 14.9956 21.8051 15.2057 21.7705 15.2442C21.6376 15.3869 21.7955 15.3576 21.7552 15.4401C21.7153 15.523 21.5985 15.4776 21.5881 15.5588C21.5788 15.6386 21.5951 15.7168 21.6211 15.7907C21.6236 15.7978 21.6262 15.8049 21.6289 15.8119C21.6307 15.8153 21.636 15.8255 21.6381 15.8287C21.6766 15.902 21.7254 15.9697 21.7661 16.0317C21.8003 16.0819 21.9056 15.9606 21.9135 15.9657C22.0093 16.0439 21.9687 16.2381 22.2298 16.1111C21.7262 16.6389 22.327 16.1256 22.3229 16.3402C22.3223 16.3572 22.1413 16.5905 22.0565 16.5867C21.9692 16.5824 21.9723 16.4544 21.8534 16.4474C21.8281 16.4461 21.4787 16.5709 21.4466 16.5711C21.2144 16.5781 21.6614 16.2424 21.6834 16.2205C21.9158 15.978 21.5274 16.0911 21.4821 16.0768C21.4261 16.0595 21.3865 16.0338 21.3556 16.0048C21.3491 15.995 21.333 15.9642 21.3278 15.9537C21.3226 15.9476 21.3177 15.9414 21.3131 15.9351C21.2592 15.8617 21.2379 15.779 21.151 15.7273C21.065 15.6759 20.7117 15.8221 20.6957 15.7557C20.6429 15.5338 21.1076 15.2636 20.604 15.2454C20.4966 15.2406 20.1242 15.434 20.3719 15.1639C20.3873 15.1465 20.6257 14.93 20.4251 14.9322C20.3998 14.9324 20.2863 14.975 20.2729 14.9678C20.1851 14.9184 20.2588 14.8376 20.1879 14.7744C20.1169 14.7106 20.0201 14.6383 20.0291 14.5339C20.0342 14.4709 20.2247 14.3295 20.2687 14.2871C20.3959 14.1657 20.1251 14.1671 20.2933 14.0634C20.4625 13.9605 20.7672 13.9584 20.8498 13.8065C20.551 13.8953 20.2427 13.9807 19.9413 14.0666C19.8729 13.7955 19.8988 13.5069 19.8195 13.2413C19.8095 13.2086 19.6578 13.2846 19.6429 13.2504C19.5813 13.105 19.6648 12.943 19.5857 12.7965C19.5236 12.6821 19.328 12.5859 19.2613 12.4637C19.5849 12.3117 19.4349 12.1469 19.4428 12.0011C19.4454 11.9506 19.5359 11.9367 19.5596 11.8969C19.6468 11.7473 19.3594 11.8627 19.3069 11.8353C19.0839 11.7147 19.7538 11.5849 19.7104 11.4104C19.7081 11.4015 19.3355 11.3422 19.3115 11.3289C19.1538 11.2481 19.4332 11.2927 19.4512 11.2246C19.4844 11.0998 19.5588 11.0079 19.4398 10.885C19.4045 10.8496 19.1746 10.7798 19.3371 10.6809C19.3583 10.6679 19.4753 10.6593 19.4813 10.6503C19.58 10.4888 19.215 10.5272 19.0848 10.4535C18.9549 10.3801 19.1964 10.2199 19.2664 10.1865C19.4477 10.0981 19.35 10.2327 19.3686 10.2347C19.5901 10.2573 19.5449 10.1657 19.5579 10.0909C19.9116 10.0469 19.8823 9.9499 19.57 10.0141C19.5359 10.0214 19.5729 10.0746 19.5579 10.0909C19.205 10.0599 19.1551 9.94678 19.4711 9.79701C19.6192 9.72728 19.7982 9.76857 19.724 9.59975C19.6908 9.52279 19.451 9.56923 19.3825 9.50235C19.2266 9.34834 19.4451 9.12517 19.4078 8.96121C19.3944 8.9011 19.265 8.9644 19.2516 8.92321C19.2158 8.81332 19.313 8.71328 19.2644 8.60355C19.2599 8.59353 19.1247 8.62025 19.1234 8.58551C19.112 8.32088 19.2051 8.09226 19.2211 7.81913C19.2286 7.68642 19.1716 7.44766 19.1973 7.31048C19.2405 7.07328 19.4554 6.79755 19.4325 6.59356C19.4185 6.4603 19.2882 6.47648 19.2085 6.4112C19.1768 6.38518 19.1655 6.35746 19.1679 6.32976C19.1701 6.30526 19.1831 6.28079 19.2023 6.2575C19.2118 6.19527 19.2502 6.02082 19.2765 5.96359C19.3699 5.881 19.5296 5.83944 19.5644 5.83391C19.5651 5.83423 19.5286 5.97756 19.6214 5.93537C19.7633 5.95331 19.5639 5.83617 19.5644 5.83391C19.5979 5.82636 19.7761 5.57743 19.7997 5.51151C19.8093 5.47558 19.7002 5.42448 19.7077 5.4064C19.8711 4.97725 20.4304 4.50101 21.0438 4.47592C21.0542 4.47663 21.0602 4.60593 21.0833 4.60629C21.144 4.60806 21.1981 4.60572 21.2487 4.59959C21.3047 4.59282 21.3563 4.58146 21.4064 4.56716C21.5332 4.52635 21.6523 4.45512 21.7946 4.41738C22.0309 4.35488 22.2218 4.43923 22.2716 4.69154C22.4419 4.71625 22.6309 4.91621 22.7154 5.04543C22.7988 5.1718 22.9711 4.98628 22.9869 4.99087C23.3656 5.11786 23.5076 5.41292 23.6177 5.74529C23.6364 5.80223 23.654 5.86049 23.6721 5.92278C23.6755 5.93571 23.679 5.9488 23.6829 5.96206C23.7264 6.10761 23.8475 6.36655 23.9147 6.50416C23.9693 6.61349 23.925 6.69463 23.9897 6.78961C23.9984 6.80257 24.1131 6.76545 24.1187 6.76885C24.2891 6.85898 23.9854 6.85703 23.9392 6.89037C23.7701 7.01017 23.6788 7.07686 23.7967 7.20344C23.8232 7.232 24.2695 7.26374 24.3075 7.32197C24.3554 7.39664 24.195 7.38813 24.248 7.46469C24.2524 7.47128 24.3479 7.45728 24.3534 7.50852C24.3798 7.7459 24.3637 8.00145 24.4084 8.23182C24.4141 8.26314 24.5655 8.20769 24.5766 8.2525C24.6288 8.46229 24.6567 8.69412 24.6089 8.85842C24.5965 8.89699 24.4797 8.88873 24.4477 8.90101C24.2544 8.9826 24.5588 8.98149 24.5632 8.96901C24.5749 8.95749 24.6045 8.96543 24.5374 8.7766C24.5085 8.71146 24.4954 8.66225 24.3864 8.50834C24.3264 8.42774 24.2417 8.32826 24.1048 8.22422C24.0015 8.13743 23.6804 7.95996 23.3676 7.94091C22.6746 7.90906 22.4053 8.20473 22.2649 8.31511C22.155 8.4178 22.1005 8.49459 22.0616 8.5512C22.0881 8.50902 22.1181 8.47047 22.1499 8.43388C22.2945 8.26777 22.4773 8.1378 22.5474 7.88075C22.553 7.85866 22.3764 7.53673 22.6466 7.63409C22.6647 7.64026 22.9397 7.74293 22.8156 7.57769C22.8078 7.56733 22.6619 7.52073 22.7185 7.4634C22.7747 7.40678 22.7667 7.24253 22.961 7.24615C23.0226 7.24654 23.3006 7.34874 23.1751 7.12883C23.1658 7.11451 22.8388 6.67659 23.1608 6.84096C23.2139 6.868 23.5133 7.10086 23.4292 6.88389C23.4127 6.84205 23.3194 6.82709 23.3134 6.74432C23.304 6.61693 23.4596 6.57521 23.3953 6.3753C23.3836 6.34043 23.2301 6.11081 23.4289 6.17292C23.4601 6.1826 23.5484 6.27771 23.5824 6.25582C23.7441 6.15322 23.7914 5.94935 23.9738 5.86037C24.0379 5.8293 24.1789 5.986 24.2641 5.96831C24.3497 5.95002 24.4747 5.88098 24.4473 5.76445C24.4201 5.6475 24.1161 5.49372 24.1652 5.39194C24.381 4.948 24.8483 4.71772 25.2292 4.38942C25.2862 4.34059 25.1585 4.29554 25.2376 4.21705C25.5185 3.92764 26.0597 3.34821 26.5515 3.36026C26.9282 3.37599 26.6724 3.713 26.915 3.66754C27.0291 3.64767 26.9529 3.23921 26.9761 3.21328C27.1789 2.96707 27.4427 3.04604 27.681 2.90787C27.7314 2.87929 27.6276 2.7436 27.6731 2.72053C27.8302 2.64001 28.0273 2.66269 28.1891 2.61666C28.2621 2.59579 28.2261 2.47701 28.299 2.47379C28.4724 2.46575 28.6339 2.49955 28.8043 2.605C28.8189 2.61472 28.7319 2.77374 28.8513 2.7725C28.9221 2.77209 28.9995 2.78733 29.0789 2.80256C29.1278 2.81252 29.1792 2.82221 29.2327 2.82737C29.3209 2.8359 29.4145 2.83405 29.5181 2.80337C29.5954 2.78098 29.6412 2.50072 29.7902 2.73576C29.8244 2.78815 29.6915 3.08999 29.9785 2.88197C30.0036 2.86596 30.1384 2.79616 30.3116 2.80159C30.4814 2.80335 30.6949 2.89775 30.7437 3.09156C30.7745 3.19557 30.7495 3.51863 30.8786 3.61406C30.8987 3.62889 30.9423 3.45633 31.0461 3.56522C31.309 3.84831 31.4448 4.2432 31.4915 4.54988C31.4987 4.58957 31.5076 4.62911 31.5198 4.66816C31.5226 4.67733 31.5256 4.6865 31.5288 4.69563C31.5444 4.74057 31.6774 4.6506 31.6959 4.71886C31.7468 4.90693 31.7248 5.15829 31.6875 5.35761C31.6735 5.43114 31.5596 5.39132 31.5475 5.39775C31.3511 5.49771 31.6204 5.52477 31.6362 5.55234C31.7312 5.72181 31.6046 5.86488 31.6319 6.0292C31.6389 6.07507 31.7652 6.03994 31.776 6.04892C31.8805 6.14408 31.6594 6.07547 31.6319 6.13623C31.554 6.30606 31.5501 6.49521 31.545 6.67405C31.5431 6.74012 31.6932 6.67575 31.6894 6.73594C31.6689 7.09234 31.5763 7.48738 31.3776 7.84179C31.3399 7.90805 31.2545 7.83194 31.2266 7.83922C31.0346 7.88352 31.1938 8.10185 31.1975 8.14714C31.2212 8.34225 31.1058 8.36741 31.0475 8.51206C31.0041 8.61792 30.9495 8.72651 30.8841 8.83425C30.8698 8.85958 30.8551 8.88497 30.84 8.9104C30.6214 9.27781 30.3166 9.63125 30.0752 9.914C29.68 10.3776 29.3201 10.6938 28.992 11.1665C28.9711 11.1964 29.1035 11.2513 29.0869 11.2782C28.8661 11.6221 28.5775 11.9051 28.3565 12.2496C28.3382 12.2777 28.4712 12.3213 28.4452 12.3692C28.3925 12.4681 28.3004 12.5727 28.1979 12.6339C28.1483 12.6639 28.1055 12.5366 28.0574 12.5681C27.9449 12.6413 27.853 12.741 27.7876 12.8559C27.7599 12.9051 27.9172 12.9239 27.873 12.9813C27.5753 13.3719 27.2851 13.7626 26.8349 14.0317C26.8037 14.0504 26.5748 13.8987 26.5687 13.9877C26.6234 14.0404 26.692 14.0973 26.7527 14.151C26.3273 14.7286 25.7981 15.2029 25.3133 15.7345C25.2927 15.7572 25.4365 15.8126 25.397 15.857C25.1731 16.1093 24.9816 16.3857 24.642 16.5476C24.6085 16.5637 24.433 16.3784 24.3913 16.4818C24.384 16.5005 24.3057 16.6372 24.3207 16.7027C24.3233 16.7122 24.4296 16.772 24.3994 16.8102C24.2141 17.0398 23.9951 17.2363 23.7353 17.4033C23.6949 17.4283 23.6372 17.3056 23.6078 17.3224C23.3911 17.4514 23.2813 17.7021 23.0157 17.7942C22.833 17.8576 22.7369 17.6488 22.5222 17.5503C22.4979 17.5325 22.3917 17.6099 22.3116 17.5106C22.1313 17.2524 21.9518 16.9572 21.7498 16.6889C21.7351 16.6654 21.7291 16.6613 21.7569 16.6373C21.7801 16.6206 21.8276 16.5896 21.9126 16.5595C21.9936 16.5279 22.1198 16.5167 22.1195 16.5024C22.1195 16.5024 22.1195 16.5023 22.1195 16.5023C22.1306 16.4799 21.8998 16.4626 21.7649 16.4885C21.6118 16.5505 21.6077 16.5015 21.5734 16.4483C21.5507 16.4139 21.4643 16.32 21.4369 16.2746C21.4088 16.2299 21.4975 16.2943 21.4795 16.2274C21.4634 16.1574 21.3538 16.0619 21.3987 15.9956ZM22.996 5.66486C22.9629 5.83145 23.3624 5.60772 23.1804 5.54062C23.171 5.53778 22.997 5.65607 22.996 5.66486ZM20.3006 13.396C20.506 13.2273 20.144 13.2481 19.983 13.3723C19.8222 13.498 20.2384 13.448 20.3006 13.396ZM20.8006 14.419C20.9433 14.2374 20.1886 14.4731 20.384 14.5528C20.3951 14.5575 20.7923 14.4297 20.8006 14.419ZM22.7695 17.2365C22.7642 17.2335 22.7099 17.2785 22.7131 17.2835C22.7846 17.4115 22.8943 17.3204 22.7695 17.2365ZM21.3822 15.3806C21.466 15.3026 21.308 15.2481 21.2031 15.3448C21.1188 15.4233 21.2782 15.4789 21.3822 15.3806ZM23.5824 8.79218C23.5897 8.79555 23.6217 8.76117 23.5844 8.73681C23.4643 8.6584 23.4612 8.73497 23.5824 8.79218ZM22.7662 16.6671C22.5909 16.7239 22.4869 16.5676 22.5149 16.4634C22.5376 16.3542 22.601 16.2969 22.646 16.3797C22.6767 16.4057 22.5545 16.4458 22.5853 16.5031C22.693 16.581 22.7194 16.4355 22.8538 16.4806C22.881 16.4716 22.7973 16.6518 22.7657 16.6677C22.7658 16.6675 22.766 16.6673 22.7662 16.6671ZM22.5825 6.02734C22.5789 6.03187 22.6079 6.08951 22.6135 6.08808C22.7603 6.04958 22.6913 5.91679 22.5825 6.02734ZM25.4698 6.8068C25.4839 6.81371 25.5896 6.71077 25.5824 6.69752C25.4154 6.45382 25.1974 6.6674 25.4698 6.8068ZM20.5395 7.86036C20.6914 7.93376 20.7099 8.01486 20.5161 8.06733C20.5267 7.99872 20.5289 7.92947 20.5395 7.86036Z" fill="black"/>
<path d="M5.50124 38.259C5.2803 38.064 5.09638 37.7664 4.9818 37.5233C4.94602 37.4476 5.03353 37.4331 5.01166 37.3785C4.96681 37.2689 4.87963 37.2164 4.84335 37.1062C4.83195 37.0698 4.95846 37.0322 4.94428 36.9958C4.86924 36.8013 4.73132 36.6638 4.6358 36.4829C4.1652 35.5894 3.67786 34.7539 3.20151 33.8747C3.04439 33.5847 2.93488 33.1852 2.72016 32.9177C2.695 32.8866 2.6131 32.9622 2.60154 32.9603C2.42295 32.9278 2.63269 32.8505 2.61882 32.769C2.56314 32.4454 2.40424 32.1475 2.22282 31.9088C2.14589 31.8083 2.01789 32.0233 2.06274 31.8539C2.06569 31.8423 2.18222 31.8139 2.17642 31.778C2.1627 31.6961 2.07275 31.5754 2.0521 31.5183C2.01285 31.408 2.00208 31.3906 1.95077 31.2924C1.88205 31.1586 1.84806 30.9715 1.7507 30.8407C1.72962 30.8129 1.64524 30.9079 1.60209 30.8685C1.55862 30.8285 1.49957 30.691 1.50253 30.6347C1.50522 30.5781 1.59795 30.5548 1.6131 30.5374C1.74299 30.3949 1.4421 30.3507 1.42729 30.3343C1.2072 30.08 1.15442 29.7852 1.06279 29.4941C1.04168 29.4266 1.01898 29.361 0.989762 29.2917C0.96581 29.2351 0.940411 29.1793 0.914635 29.1245C0.773743 28.8051 0.720077 28.4878 0.732349 28.2155C0.74443 27.9829 0.798098 27.7841 0.862085 27.5898C0.911776 27.441 0.965145 27.2956 1.0288 27.1293C1.04495 27.0885 0.891164 27.0765 0.912314 27.0233C0.915976 27.0142 0.919696 27.0052 0.923476 26.9962C1.09508 26.5 1.75533 26.0953 2.18871 26.1062C2.38433 26.0947 2.55715 26.1174 2.7138 26.1568C2.76561 26.1704 2.68968 26.301 2.73878 26.3228C2.77052 26.3367 2.80264 26.3528 2.83619 26.3702C3.11495 26.5139 3.40623 26.7458 3.71206 26.2798C3.90426 26.3573 4.135 26.4679 4.24867 26.6523C4.32071 26.7709 4.15573 26.8606 4.30753 26.8614C4.34186 26.8621 4.36395 26.7255 4.41207 26.7363C4.6167 26.7829 4.78626 26.9322 4.99226 26.9907C5.03459 27.0025 5.0944 26.8986 5.11678 26.8879C5.3055 26.8059 5.26776 27.142 5.27911 27.1793C5.3903 27.4732 5.56753 27.561 5.73368 27.7572C5.77121 27.8027 5.84668 27.648 5.88882 27.6847C5.88933 27.6852 5.88982 27.6856 5.89032 27.6861C6.06554 27.8651 6.21247 28.0901 6.29568 28.3382C6.31646 28.398 6.33356 28.4597 6.34518 28.5184C6.35861 28.5896 6.20874 28.5864 6.20829 28.6223C6.20331 28.7731 6.4525 28.7098 6.44301 28.8579C6.44073 28.8881 6.32623 28.9096 6.31571 28.9184C6.14926 29.052 6.43547 29.0302 6.44695 29.0496C6.59271 29.275 6.335 29.4869 6.40843 29.6973C6.41727 29.7233 6.54981 29.6398 6.56583 29.7152C6.67137 30.2169 6.64096 30.7452 6.52817 31.2204C6.51068 31.2943 6.4099 31.2413 6.39732 31.246C6.20149 31.32 6.46209 31.3701 6.47132 31.3944C6.49579 31.4638 6.48135 31.5307 6.46807 31.5946C6.44491 31.7049 6.42518 31.8045 6.61698 31.8933C6.5887 32.0495 6.5695 32.205 6.55429 32.3597C6.53746 32.5088 6.53506 32.7173 6.53273 32.7142C6.52762 32.6959 6.52859 32.6659 6.4812 32.5783C6.47515 32.5735 6.44401 32.4892 6.31067 32.4044C6.1803 32.3132 5.94425 32.3202 5.84247 32.3797C5.6252 32.5125 5.68541 32.5132 5.6572 32.5336C5.6137 32.6003 5.62506 32.5927 5.62486 32.5895C5.62857 32.582 5.64272 32.5411 5.65082 32.5165C5.67193 32.4518 5.69237 32.3852 5.71631 32.3092C5.80785 32.0181 5.91885 31.7225 6.09687 31.4475C6.10226 31.4384 6.21686 31.4846 6.22709 31.4664C6.35001 31.2524 6.15387 31.2546 5.96873 31.0439C5.92209 30.9925 6.2217 30.943 6.24401 30.9372C6.32634 30.9173 6.4916 30.9992 6.50886 30.99C6.64503 30.9133 6.06395 30.7844 6.0994 30.6466C6.10147 30.6424 6.20279 30.687 6.21632 30.6779C6.25865 30.6497 6.22585 30.603 6.2715 30.576C6.37695 30.5146 6.66301 30.5527 6.53258 30.3889C6.51573 30.3677 6.18498 30.3105 6.23365 30.1881C6.25344 30.1384 6.30696 29.916 6.3448 29.8589C6.38243 29.802 6.47414 29.8719 6.47984 29.8686C6.66148 29.7364 6.70089 29.8151 6.9244 29.7857C7.14674 29.7566 6.6628 29.6516 6.61884 29.6032C6.57506 29.5548 6.72075 29.4624 6.76781 29.4429C6.81484 29.4236 6.86946 29.4786 6.89868 29.4581C7.09013 29.3221 6.68471 29.3159 6.62598 29.2368C6.48781 29.0492 6.86912 29.0403 6.9393 28.9256C6.95843 28.8945 6.87113 28.8991 6.87264 28.8667C6.87995 28.7387 7.00922 28.6992 6.95231 28.5334C6.94286 28.5065 6.77086 28.3326 6.94488 28.3086C6.96988 28.3053 7.04613 28.3607 7.08141 28.3157C7.13424 28.2484 7.19669 28.1185 7.19519 28.029C7.1943 27.9621 7.032 27.9851 7.1009 27.9231C7.13159 27.8957 7.19179 27.9854 7.24254 27.932C7.29314 27.8784 7.34393 27.7201 7.36304 27.6582C7.38195 27.5962 7.26587 27.5924 7.26059 27.585C7.23102 27.5406 7.22396 27.4054 7.22801 27.3953C7.41334 26.8687 7.777 26.4654 8.01836 25.9661C8.03762 25.9277 7.92577 25.8893 7.92771 25.8828C7.97571 25.7237 8.16113 25.9948 8.30292 25.9692C8.10457 25.847 8.17254 25.8206 8.21926 25.7209C8.24428 25.6702 8.1559 25.6362 8.15186 25.6265C8.10254 25.4712 8.27691 25.5447 8.31123 25.5611C8.34146 25.5733 8.36058 25.5756 8.37343 25.5719C8.41907 25.557 8.39926 25.4703 8.46646 25.5035C8.54967 25.5494 8.57511 25.6962 8.64698 25.6372C8.62133 25.5526 8.42146 25.4301 8.47368 25.3478C8.54054 25.2469 8.67299 25.1603 8.82506 25.1175C9.15907 25.0194 9.49807 25.1385 9.6552 25.1777C9.89222 25.2382 9.96809 25.2495 10.0898 25.3196C10.3026 25.4528 10.2762 25.2643 10.4545 25.2461C10.6336 25.2307 10.3871 25.5954 10.3699 25.6881C10.3505 25.7808 10.4098 25.7032 10.4113 25.7602C10.4121 25.8172 10.3377 25.8514 10.3813 25.8941C10.4234 25.9362 10.6393 25.8594 10.7051 25.7807C10.8425 25.6135 10.8774 25.3827 10.9896 25.5243C10.9958 25.5327 10.9128 25.6228 10.9392 25.6496C11.0434 25.7532 11.1556 25.8426 11.266 25.9315C11.3963 26.0324 11.5016 26.1518 11.571 26.2868C11.5894 26.3237 11.4622 26.3944 11.4707 26.4162C11.4718 26.4192 11.4728 26.422 11.4739 26.4248C11.5489 26.6375 11.6772 26.4259 11.9792 26.3775C11.669 26.5651 11.5346 26.7474 11.6092 26.8852C11.6549 26.9704 11.7868 26.8746 11.9214 26.8787C11.9627 26.8805 11.8964 26.9988 11.9718 26.9754C12.2212 26.902 12.4454 26.707 12.4361 26.9358C12.435 26.9458 12.2931 26.9801 12.2983 27.0102C12.3264 27.2033 12.5927 27.1191 12.7072 27.3104C12.7098 27.3147 12.7121 27.3193 12.7144 27.3239C12.7342 27.3632 12.7406 27.485 12.7456 27.5287C12.7584 27.6389 12.6832 27.7979 12.617 27.9385C12.5865 28.0045 12.5591 28.0663 12.546 28.12C12.0856 28.0784 12.1765 28.2444 12.4875 28.3462C12.4629 28.4586 12.4664 28.583 12.4077 28.6864C12.3876 28.7219 12.2572 28.6783 12.2421 28.681C12.0055 28.7192 12.3082 28.8122 12.3167 28.8389C12.3955 29.1212 12.1217 29.2876 12.3003 29.5814C12.3067 29.5917 12.6249 29.6758 12.3763 29.6918C12.3592 29.6922 12.2308 29.579 12.1945 29.6923C12.1583 29.8064 11.9357 29.979 12.0437 30.1752C12.0698 30.2219 12.3051 30.3899 12.0807 30.4135C12.0503 30.4163 11.9614 30.3799 11.9062 30.3807C11.7302 30.3831 12.0471 30.4998 11.7561 30.4785C11.465 30.4576 11.2264 30.5076 11.3691 30.718C11.3731 30.7246 11.6187 30.839 11.5997 30.8868C11.5691 30.9626 11.4806 31.0564 11.4561 31.1372C11.4444 31.1761 11.6118 31.2032 11.6125 31.2109C11.6166 31.5031 11.4113 31.6415 11.2501 31.8946C11.2203 31.9404 11.384 32.1671 11.1758 32.2005C10.9477 32.2363 10.2084 31.8333 10.3009 32.1411C10.3371 32.2639 11.2792 32.7795 10.695 32.7522C10.6845 33.1453 10.2899 33.3478 10.3244 33.7633C10.3257 33.7821 10.581 33.95 10.5616 33.9844C10.5323 34.0351 10.3905 34.0079 10.3653 34.0422C10.2566 34.184 10.3021 34.379 10.2165 34.5238C10.1842 34.5791 10.0601 34.4987 10.0214 34.5646C9.9827 34.6305 10.1376 34.7555 10.0102 34.8107C9.91336 34.8522 9.52295 34.7584 9.43844 34.8319C9.7901 34.9977 9.7532 35.0589 9.79374 35.2158C9.80171 35.246 9.93542 35.2794 9.94552 35.2967C9.98934 35.3682 9.86942 35.3601 9.91968 35.4322C9.93169 35.4497 10.052 35.5061 10.0686 35.5236C10.1202 35.5768 10.113 35.6096 10.0797 35.6296C10.0771 35.6351 10.0689 35.6512 10.066 35.6565C10.0331 35.6737 9.97876 35.6771 9.92825 35.6764C9.88035 35.6756 9.83652 35.6701 9.8189 35.668C9.60666 35.6417 9.73747 35.7606 9.63837 35.7758C9.53967 35.7903 9.50294 35.6611 9.42582 35.6991C9.26682 35.7772 9.18628 35.9467 9.09782 36.0672C9.06334 36.1156 9.23087 36.1809 9.22932 36.1901C9.19404 36.32 8.97123 36.3132 9.20766 36.5748C8.4385 36.1123 9.23204 36.6883 8.97699 36.725C8.95649 36.7276 8.61649 36.4855 8.59909 36.4057C8.58156 36.3259 8.73335 36.3412 8.69843 36.2243C8.69125 36.1962 8.42514 35.8834 8.41139 35.8597C8.31142 35.6691 8.84021 36.0227 8.87253 36.0379C9.21944 36.2006 8.93065 35.8558 8.92035 35.8149C8.88085 35.6218 9.0181 35.5682 8.99329 35.4153C8.97742 35.3158 8.61455 35.0985 8.65467 35.0539C8.67448 35.0317 8.70346 35.0176 8.73737 35.0083C8.77554 34.9975 8.81949 34.9935 8.86393 34.9901L8.83375 35.0493C9.01709 35.0193 9.20182 35.018 8.94138 34.7464C8.8605 34.6616 8.42312 34.507 8.81758 34.5195C8.84247 34.5204 9.19205 34.5556 9.02879 34.4079C9.00817 34.3894 8.8857 34.3338 8.87998 34.3192C8.84407 34.2226 8.9619 34.2228 8.94817 34.1298C8.9347 34.0362 8.90472 33.9183 8.98358 33.8551C9.03093 33.817 9.28829 33.8546 9.35492 33.8556C9.54644 33.8594 9.31449 33.6712 9.5284 33.715C9.74333 33.7587 10.0041 33.9732 10.1803 33.9164C9.86364 33.7727 9.54091 33.62 9.22351 33.4733C9.34229 33.2386 9.5498 33.0454 9.63944 32.7978C9.65025 32.767 9.4657 32.7263 9.47284 32.6916C9.50344 32.5463 9.67604 32.4776 9.68555 32.3186C9.69275 32.194 9.55963 32.0054 9.55995 31.8754C9.95308 31.9483 9.8966 31.7312 9.97724 31.6226C10.0053 31.5844 10.1019 31.623 10.1455 31.604C10.3075 31.5312 9.9639 31.4678 9.92518 31.418C9.75941 31.2071 10.4951 31.4558 10.5357 31.2865C10.538 31.2775 10.1861 31.0387 10.1668 31.017C10.0409 30.8735 10.3079 31.0481 10.3568 31.0011C10.4459 30.9157 10.5645 30.8716 10.4913 30.7134C10.4695 30.6663 10.2549 30.5061 10.4652 30.4958C10.4928 30.4943 10.6201 30.5388 10.63 30.5338C10.7987 30.438 10.3943 30.3129 10.2806 30.1992C10.1668 30.0861 10.4817 30.0511 10.5692 30.0492C10.7962 30.0448 10.6444 30.1215 10.6638 30.1306C10.8956 30.2389 10.8793 30.1409 10.9187 30.0804C11.3192 30.1791 11.3216 30.0767 10.9581 30.0167C10.9183 30.0102 10.9408 30.0719 10.9187 30.0804C10.5455 29.9149 10.5239 29.8083 10.9186 29.7883C11.1034 29.7786 11.2902 29.878 11.2583 29.6974C11.2438 29.6152 10.9628 29.5791 10.9039 29.4983C10.7694 29.3164 11.0681 29.1837 11.0583 29.024C11.0547 28.9671 10.894 28.9917 10.8863 28.9522C10.8654 28.848 10.9943 28.7816 10.9539 28.6743C10.95 28.6647 10.7892 28.6612 10.7926 28.631C10.8142 28.4032 10.9434 28.2188 10.9709 27.9817C10.9756 27.94 10.9696 27.8858 10.9609 27.8278C10.9456 27.7272 10.9275 27.6182 10.9477 27.5448C10.9529 27.5254 10.9601 27.5056 10.9687 27.4855L11.031 27.8944C11.0551 27.7222 11.1605 27.4628 11.0719 27.3575C11.0108 27.2833 10.8942 27.3744 10.8 27.3891C10.6249 27.4229 10.8574 27.1432 10.8828 27.0957C10.8836 27.0933 10.9431 27.1368 10.9817 27.0613C11.0874 26.9531 10.8831 27.0955 10.8828 27.0957C10.8958 27.0782 10.8838 27.0193 10.8633 26.9814C10.8506 26.9572 10.8357 26.9406 10.8238 26.9411C10.8068 26.9418 10.7234 27.0381 10.7171 27.0374C10.6647 27.0319 10.6313 27.0342 10.6221 27.0389C10.457 26.9606 10.3181 26.8585 10.1946 26.7355C10.1918 26.7309 10.2573 26.6185 10.2497 26.6091C10.1448 26.4755 9.99234 26.5696 9.86046 26.5984C9.72761 26.6278 9.67556 26.5651 9.68109 26.3411C9.60076 26.3351 9.52602 26.2136 9.4768 26.1469C9.42642 26.0797 9.39244 26.3096 9.38855 26.3131C9.27223 26.4229 9.25327 26.3364 9.2051 26.3111C9.20012 26.3081 9.19539 26.306 9.19123 26.3053C9.17496 26.303 9.1711 26.3298 9.16904 26.3633C9.16551 26.3734 9.16166 26.3842 9.15816 26.3946C9.14197 26.4433 9.07542 26.4418 9.06734 26.5128C9.06615 26.5225 9.15426 26.574 9.15599 26.5784C9.21773 26.7041 9.03013 26.5378 8.98447 26.5261C8.81765 26.4865 8.72213 26.4747 8.72881 26.6172C8.72948 26.6512 9.01 26.8872 9.00814 26.9376C9.00428 27.0044 8.89962 26.9255 8.89823 26.9994C8.89813 27.0055 8.96989 27.0395 8.94977 27.0737C8.85585 27.2362 8.72751 27.4236 8.66018 27.6241C8.65061 27.6516 8.78196 27.6632 8.77028 27.7036C8.71471 27.8948 8.63972 28.1001 8.52269 28.2679C8.49336 28.3095 8.41779 28.2515 8.3893 28.2531C8.21619 28.264 8.40985 28.4293 8.41004 28.4443C8.41015 28.8279 8.12796 29.04 8.12803 29.4377C8.1281 29.4597 8.33518 29.6834 8.10559 29.6935C8.09035 29.6943 7.85515 29.7027 7.98858 29.8048C7.99699 29.8111 8.11994 29.7987 8.08975 29.8707C8.05942 29.9429 8.10554 30.0829 7.95638 30.1531C7.9094 30.1757 7.67017 30.1965 7.82226 30.3401C7.83252 30.3499 8.19599 30.6024 7.90814 30.5873C7.86084 30.5844 7.57107 30.5013 7.69326 30.6568C7.71714 30.6866 7.79167 30.6625 7.8189 30.7316C7.86173 30.8353 7.75439 30.9411 7.8612 31.0837C7.88003 31.1087 8.0627 31.2399 7.89547 31.2711C7.86928 31.2758 7.77493 31.2315 7.75601 31.2645C7.66618 31.4178 7.69323 31.6147 7.58766 31.767C7.54967 31.8239 7.39506 31.7532 7.33741 31.8072C7.27982 31.8612 7.21002 31.9762 7.26849 32.0646C7.32785 32.1499 7.60304 32.1396 7.60217 32.2444C7.59739 32.4824 7.53856 32.6864 7.44247 32.9383C7.41283 33.0185 7.39724 33.0512 7.34776 33.1736C7.31714 33.238 7.32854 33.2425 7.20161 33.4715C7.15845 33.5371 7.1524 33.568 7.00421 33.7304C6.92637 33.8093 6.81626 33.9155 6.60491 34.0156C6.40128 34.1155 6.04877 34.1852 5.7209 34.0938C5.39148 34.0072 5.16915 33.8109 5.05074 33.6679C4.90549 33.4803 4.94194 33.5125 4.90466 33.4529C4.74439 33.1255 4.7675 33.0354 4.74958 32.9391C4.73778 32.7587 4.75039 32.674 4.75543 32.6061C4.76194 32.5288 4.76861 32.4601 4.773 32.4022C4.77875 32.3273 4.67876 32.3875 4.68105 32.2701C4.68118 32.2639 4.68131 32.2575 4.68143 32.251C4.68278 32.0583 4.65896 31.7928 4.6703 31.5538C4.67945 31.3675 4.70661 31.1958 4.79165 31.074C4.9496 30.8457 5.09639 31.129 5.1566 30.9526C5.18573 30.8657 4.84937 30.7872 4.83684 30.7688C4.71277 30.5833 4.84281 30.4451 4.77137 30.2858C4.75634 30.2535 4.62569 30.3 4.61424 30.273C4.57368 30.1819 4.61486 30.0785 4.58396 29.9965C4.56972 29.96 4.46652 29.9847 4.46611 29.9505C4.46384 29.8694 4.48882 29.7964 4.56473 29.7032C4.57158 29.6942 4.7159 29.7076 4.70347 29.651C4.68347 29.5623 4.73977 29.4235 4.60666 29.3859C4.56671 29.375 4.33656 29.4739 4.47541 29.3689C4.50492 29.3485 4.77956 29.2198 4.5235 29.2991C4.51873 29.3008 4.51002 29.3037 4.49867 29.3074C4.40422 29.3249 4.14908 29.4024 4.2927 29.2573C4.33589 29.2148 4.51696 29.0409 4.4639 29.0359C4.45627 29.0363 4.35774 29.1312 4.33114 29.1186C4.30015 29.1033 4.27366 29.0838 4.24839 29.0631C4.19897 29.0226 4.15199 28.9761 4.0866 28.9503C4.06027 28.9405 3.9882 29.0674 3.95357 29.0511C3.85937 29.0074 3.78883 28.8994 3.7298 28.8016C3.70824 28.7654 3.79507 28.6853 3.80018 28.6734C3.87563 28.4749 3.69776 28.6892 3.67797 28.6951C3.5498 28.7251 3.55296 28.5758 3.45745 28.5632C3.43179 28.5598 3.39014 28.6861 3.38079 28.6943C3.29021 28.7753 3.42233 28.5792 3.40493 28.5411C3.35509 28.4334 3.25298 28.4006 3.16039 28.3841C3.1264 28.3783 3.11589 28.5348 3.08722 28.5283C2.93215 28.4966 2.78037 28.4456 2.62436 28.3561C2.61302 28.3484 2.60267 28.3405 2.59246 28.3322C2.56983 28.3133 2.5931 28.2018 2.58984 28.1751C2.55954 27.9885 2.50605 28.2338 2.50659 28.2569C2.49035 28.3289 2.49075 28.3044 2.48953 28.2866C2.48972 28.2783 2.49084 28.2714 2.49803 28.2747C2.52276 28.288 2.61087 28.2707 2.70875 28.1951C2.80753 28.1215 2.87436 28.0034 2.88109 27.9509C2.8569 27.9615 2.81361 28.0202 2.78318 28.0787C2.75414 28.1339 2.72844 28.1922 2.70986 28.2428C2.66247 28.3674 2.64418 28.4576 2.61137 28.4511C2.63631 28.556 2.67094 28.6722 2.70901 28.779C2.75981 28.9201 2.81851 29.0574 2.89537 29.2031C2.9114 29.2336 3.02097 29.1436 3.03636 29.1691C3.23137 29.5041 3.35995 29.8755 3.58201 30.2096C3.59982 30.2368 3.69311 30.1346 3.72556 30.176C3.79265 30.26 3.85223 30.3856 3.86716 30.4999C3.87488 30.556 3.74265 30.5471 3.75253 30.6026C3.77536 30.732 3.83319 30.8559 3.91383 30.9574C3.94859 31.0008 4.02461 30.8636 4.06069 30.9249C4.30931 31.3418 4.56877 31.7421 4.67496 32.2543C4.6822 32.2893 4.46544 32.4546 4.54738 32.4898C4.61455 32.4556 4.6901 32.4096 4.7601 32.3701C5.16512 32.9563 5.46201 33.6026 5.84335 34.2047C5.85933 34.2298 5.95056 34.1077 5.98204 34.1558C6.16678 34.4378 6.38026 34.6813 6.45884 35.0422C6.46656 35.0775 6.24975 35.2083 6.33944 35.2693C6.35557 35.2802 6.47011 35.3833 6.53664 35.3818C6.5464 35.3813 6.62648 35.2907 6.65705 35.3274C6.83553 35.5455 6.98602 35.7942 7.09448 36.0513C7.11277 36.0942 6.98422 36.1333 6.99646 36.1646C7.08096 36.3817 7.30724 36.5084 7.35108 36.7299C7.38352 36.8816 7.18803 36.9883 7.08071 37.1871C7.0667 37.2166 7.12357 37.2831 7.03748 37.3726C6.82278 37.6 6.54401 37.8041 6.31836 38.0498C6.28106 38.0912 6.36532 38.129 6.32169 38.1725C6.32168 38.1725 6.32167 38.1725 6.32166 38.1725C6.30879 38.1854 6.28489 38.199 6.24304 38.2128C6.23077 38.2173 6.11431 38.18 6.05219 38.1994C6.00923 38.2131 5.9416 38.3257 5.87585 38.3317C5.80866 38.3359 5.86204 38.2377 5.77453 38.2319C5.68733 38.2273 5.59551 38.3411 5.50124 38.259ZM9.2333 25.8799C9.16536 25.7753 9.21678 26.174 9.24592 26.0757C9.24735 26.0705 9.23636 25.8851 9.2333 25.8799ZM9.97604 33.2282C10.2687 33.2348 9.92955 33.0128 9.70671 33.0006C9.48402 32.9878 9.88723 33.2259 9.97604 33.2282ZM9.70538 34.3316C9.95446 34.3044 9.15968 33.927 9.26631 34.1221C9.27224 34.1333 9.6909 34.3332 9.70538 34.3316ZM6.80182 36.9629C6.79816 36.9678 6.83619 37.0213 6.8415 37.0185C6.97034 36.9532 6.89569 36.848 6.80182 36.9629ZM9.4375 35.4195C9.45169 35.4223 9.46339 35.4226 9.47276 35.4208C9.51112 35.4134 9.51006 35.3729 9.48062 35.332L9.47296 35.347C9.44443 35.3128 9.39344 35.2805 9.32883 35.2731C9.32286 35.2724 9.31735 35.2721 9.31228 35.2722L9.3256 35.246C9.27603 35.2433 9.26747 35.2774 9.28825 35.3173C9.30989 35.3583 9.36334 35.4047 9.4375 35.4195ZM7.1356 28.979C7.12927 28.9785 7.11049 29.0234 7.14451 29.0322C7.25409 29.0604 7.2419 28.9872 7.1356 28.979ZM8.38593 36.9607C8.57953 36.7619 9.24012 37.0636 8.97513 37.2532C8.92795 37.2875 8.88202 37.0218 8.78753 37.0374C8.61831 37.0665 8.89244 37.4055 8.62891 37.3603C8.5826 37.3522 8.37481 36.9715 8.38551 36.9597C8.38565 36.9601 8.38579 36.9604 8.38593 36.9607ZM9.14774 25.4025C9.14554 25.3969 9.07817 25.4015 9.0775 25.4075C9.06705 25.5378 9.1881 25.5305 9.14774 25.4025ZM6.17046 31.6491C6.15832 31.6469 6.10867 31.8008 6.11881 31.8072C6.32128 31.9407 6.41927 31.6364 6.17046 31.6491ZM12.5334 28.1217C12.709 28.2132 12.7222 28.3104 12.4878 28.3459C12.5075 28.2722 12.5162 28.1967 12.5334 28.1217Z" fill="black"/>
<path d="M29.2337 36.2561C29.1397 36.414 29.0032 36.6317 28.9739 36.6454C28.971 36.6456 28.9686 36.6438 28.9663 36.6396C28.9658 36.6412 28.9653 36.6427 28.9647 36.6443C28.942 36.71 28.8953 36.6684 28.8789 36.7097C28.8477 36.7825 28.8755 36.8462 28.8507 36.8312C28.8413 36.8237 28.76 36.8456 28.7521 36.8392C28.7409 36.836 28.7331 36.7806 28.6604 36.6835C28.6057 36.5944 28.401 36.4694 28.2825 36.4688C28.0795 36.4642 28.1269 36.4941 28.169 36.4712C28.8763 36.1228 29.6909 35.2137 30.4063 34.4238C30.6479 34.1532 30.989 33.8541 31.1921 33.5414C31.2162 33.5043 31.141 33.4779 31.1413 33.4675C31.1479 33.305 31.2402 33.434 31.3094 33.3786C31.5822 33.1601 31.82 32.8631 31.9936 32.5851C32.0672 32.4667 31.8628 32.4858 32.0146 32.4257C32.0251 32.4215 32.0683 32.4988 32.0982 32.4736C32.1659 32.4163 32.2536 32.2753 32.2994 32.2248C32.3883 32.1274 32.3994 32.1111 32.4732 32.0134C32.5743 31.8805 32.7257 31.7441 32.8179 31.5869C32.8373 31.5533 32.7396 31.5443 32.7642 31.4864C32.7887 31.4287 32.8895 31.3021 32.9376 31.2697C32.9858 31.2372 33.0257 31.2953 33.0436 31.2965C33.1942 31.3081 33.1607 31.0506 33.1711 31.0283C33.3677 30.6262 33.6678 30.3794 33.906 30.0395C34.0855 29.7828 34.2493 29.4861 34.4214 29.243C34.6245 28.9568 34.8375 28.7269 35.0199 28.4398C35.0398 28.4086 34.9301 28.3867 34.9542 28.3485C35.2082 27.9459 35.4746 27.5587 35.7851 27.2058C35.8172 27.1692 35.8611 27.2717 35.8978 27.2381C36.1203 27.0323 36.5187 26.7476 36.2653 26.3836C36.3787 26.2303 36.5181 26.0328 36.6779 25.9266C36.7804 25.8588 36.8131 26.0039 36.8451 25.8651C36.8522 25.8341 36.7551 25.8216 36.7715 25.7787C36.8435 25.593 36.9799 25.4167 37.0297 25.2334C37.0415 25.1926 36.9655 25.1623 36.9585 25.145C36.9035 25.0015 37.1474 24.9635 37.1754 24.9418C37.3902 24.7682 37.435 24.5932 37.5426 24.3713C37.5656 24.3233 37.4399 24.3331 37.4578 24.2862C37.4729 24.2471 37.4873 24.21 37.501 24.1751C37.4916 24.1935 37.5219 24.1331 37.4676 23.9783C37.4544 23.9391 37.5536 23.9166 37.5503 23.8939C37.5267 23.7874 37.375 23.8864 37.3411 23.797C37.3329 23.7778 37.3975 23.7274 37.4011 23.7185C37.4532 23.5739 37.2783 23.6867 37.2664 23.6829C37.2651 23.6824 37.2638 23.6818 37.2624 23.6813C37.2409 23.6741 37.2228 23.6641 37.2067 23.6518C37.1109 23.5825 37.0577 23.4069 36.8836 23.4011C36.8603 23.402 36.8803 23.5165 36.8187 23.5148C36.6689 23.5127 36.519 23.5261 36.3689 23.5263C36.3245 23.5265 36.2798 23.5267 36.2348 23.5274C36.0009 23.532 35.7547 23.5439 35.5062 23.588C35.4335 23.6015 35.4468 23.5043 35.4386 23.4961C35.2994 23.3756 35.3448 23.5981 35.3282 23.6146C35.2931 23.6471 35.253 23.6676 35.2117 23.6851C35.0853 23.7384 34.9414 23.7622 34.9707 23.9798C34.2485 24.3645 33.7917 25.109 33.0915 25.6484C33.0827 25.6556 33.0084 25.5748 32.9912 25.5894C32.7835 25.7664 32.9487 25.8263 33.0136 26.0871C33.0304 26.1521 32.751 26.1174 32.729 26.1171C32.6491 26.1142 32.5436 25.9845 32.5246 25.989C32.3712 26.0302 32.8189 26.3182 32.7279 26.451C32.7243 26.4546 32.6555 26.3816 32.6398 26.3873C32.5906 26.405 32.5994 26.4612 32.5482 26.4765C32.4308 26.5106 32.1962 26.3951 32.2407 26.5999C32.2468 26.6261 32.5138 26.7703 32.4222 26.8831C32.3854 26.9278 32.25 27.145 32.1948 27.1947C32.1395 27.2443 32.0842 27.15 32.0779 27.1519C31.8645 27.2451 31.8592 27.1545 31.6456 27.1334C31.4323 27.1132 31.8298 27.335 31.8513 27.3957C31.8726 27.4564 31.7062 27.5195 31.6562 27.5294C31.6061 27.5391 31.577 27.4689 31.5426 27.4841C31.316 27.5857 31.6848 27.6815 31.7095 27.7776C31.7687 28.0044 31.4167 27.9306 31.3103 28.0378C31.2815 28.0667 31.3639 28.0801 31.3511 28.114C31.2998 28.2475 31.1655 28.2632 31.1621 28.45C31.1615 28.4806 31.2641 28.6988 31.0934 28.6899C31.0757 28.6888 31.043 28.6502 31.0082 28.6441C30.9949 28.6415 30.9814 28.6436 30.9687 28.6542C30.8996 28.7103 30.8077 28.8386 30.7951 28.9333C30.7862 29.0021 30.9431 28.9923 30.8712 29.0474C30.8393 29.0728 30.7914 28.9782 30.7371 29.0307C30.6818 29.0802 30.6255 29.2652 30.6333 29.2995C30.6421 29.3235 30.642 29.2432 30.6572 29.2271C30.6819 29.2101 30.7346 29.2463 30.7284 29.2278C30.722 29.2085 30.6981 29.1452 30.6048 29.1083C30.381 29.0708 30.4002 29.1384 30.3784 29.1247C30.3955 29.0718 30.4215 29.017 30.4269 29.012C30.6021 28.8383 30.7927 28.6832 30.9453 28.4929C31.142 28.2502 31.3102 27.9757 31.3817 27.6586C31.3917 27.6146 31.2889 27.6133 31.2894 27.6063C31.294 27.4502 31.5096 27.6416 31.6249 27.5587C31.4283 27.5196 31.4816 27.4678 31.4862 27.356C31.4881 27.3023 31.406 27.3124 31.3994 27.3059C31.3021 27.2056 31.4607 27.1868 31.4942 27.1785C31.6168 27.1501 31.4941 27.0689 31.5754 27.0477C31.6563 27.0251 31.7535 27.1272 31.7701 27.0189C31.7039 26.978 31.5066 27.0251 31.4888 26.9422C31.426 26.6368 31.5952 26.093 31.6015 25.8428C31.6112 25.5978 31.5917 25.5188 31.609 25.3742C31.6378 25.1115 31.5032 25.2167 31.4241 25.0637C31.3436 24.9099 31.6997 24.9538 31.7724 24.9233C31.845 24.8928 31.7655 24.8756 31.8037 24.8424C31.842 24.8094 31.8993 24.8667 31.9078 24.7971C31.9166 24.7273 31.7626 24.5576 31.681 24.5434C31.5085 24.5127 31.3439 24.6152 31.3836 24.4324C31.3859 24.4217 31.4821 24.4437 31.4865 24.4034C31.4905 24.3639 31.4935 24.3245 31.4956 24.2853C31.5115 24.0777 31.4526 23.8697 31.3538 23.68C31.3339 23.6414 31.3122 23.6032 31.2892 23.5653C31.2673 23.5298 31.3682 23.4836 31.3549 23.4609C31.1993 23.2271 31.1458 23.4245 30.9429 23.5297C31.1048 23.321 31.1291 23.1269 30.9125 23.0394C30.784 22.9941 30.7717 23.1178 30.6809 23.1848C30.671 23.1924 30.6563 23.1846 30.6397 23.1744C30.6114 23.1568 30.5751 23.1331 30.5634 23.1691C30.5107 23.3572 30.5553 23.5599 30.4445 23.4933C30.4383 23.4904 30.4407 23.3831 30.4193 23.3809C30.2942 23.3752 30.3195 23.5278 30.3025 23.619C30.2987 23.6364 30.2934 23.6525 30.2835 23.6685C30.2391 23.7362 30.0166 23.8631 29.9364 24.0206C29.6037 23.8703 29.6075 24.0778 29.8393 24.2232C29.7979 24.3293 29.7848 24.456 29.7265 24.5581C29.7062 24.5944 29.5998 24.5432 29.5868 24.5454C29.4586 24.5654 29.5068 24.6182 29.564 24.6596L29.5669 24.6391C29.604 24.6596 29.6434 24.6764 29.6468 24.6868C29.6977 24.8601 29.6467 25.0063 29.6297 25.1569C29.6177 25.2652 29.6248 25.3755 29.706 25.4962C29.7129 25.5064 30 25.537 29.7869 25.5998C29.7721 25.6039 29.645 25.5062 29.6293 25.6355C29.6139 25.7656 29.4482 26.0052 29.5783 26.1916C29.6094 26.2365 29.8452 26.3543 29.6572 26.4377C29.6316 26.4488 29.5475 26.4334 29.5001 26.4493C29.349 26.5007 29.6464 26.5385 29.3916 26.5971C29.1369 26.6564 28.9411 26.7905 29.114 26.9781C29.1189 26.9842 29.3572 27.0312 29.353 27.0887C29.3458 27.1804 29.2949 27.3114 29.2962 27.4079C29.2969 27.454 29.4469 27.4248 29.4496 27.4328C29.5347 27.7417 29.4035 27.9611 29.3513 28.2951C29.3412 28.3561 29.5556 28.5251 29.394 28.6473C29.2167 28.7818 28.455 28.6751 28.6433 28.9722C28.718 29.0941 29.6943 29.1958 29.2034 29.4398C29.3525 29.8505 29.1208 30.259 29.3448 30.6636C29.3548 30.682 29.6374 30.7117 29.6387 30.755C29.6398 30.8195 29.5149 30.8718 29.5118 30.9193C29.4958 31.1182 29.6308 31.2849 29.6413 31.4718C29.646 31.5446 29.508 31.5402 29.5138 31.6266C29.5196 31.7113 29.706 31.7418 29.6405 31.8686C29.5913 31.9678 29.2463 32.1195 29.2287 32.2509C29.5846 32.184 29.5925 32.2647 29.7173 32.3838C29.7413 32.4061 29.8579 32.35 29.8756 32.359C29.9501 32.393 29.8601 32.4667 29.9404 32.4967C29.9597 32.5041 30.08 32.4749 30.1026 32.4789C30.2986 32.5127 30.0637 32.7083 30.0245 32.747C29.9632 32.8021 29.9539 32.8345 29.9611 32.8582C29.9716 32.8963 30.0128 32.9166 29.994 32.9612C29.9925 32.9646 29.9907 32.9682 29.9885 32.9719C29.9366 33.0586 29.8218 32.9806 29.8005 33.0713C29.7563 33.2587 29.8318 33.4669 29.8773 33.6379C29.8963 33.7059 30.0403 33.612 30.0467 33.6206C30.1267 33.7427 30.0111 33.9422 30.3454 33.8997C29.5913 34.2955 30.4501 33.9512 30.3722 34.1917C30.3659 34.2106 30.015 34.4019 29.9328 34.3642C29.8504 34.3255 29.9254 34.1836 29.8068 34.1306C29.7792 34.1199 29.3808 34.1249 29.3527 34.113C29.1358 34.0321 29.7027 33.8307 29.7319 33.8147C30.0476 33.6348 29.6188 33.6139 29.5806 33.5819C29.4079 33.4451 29.4523 33.2802 29.327 33.168C29.3184 33.1602 29.3064 33.1544 29.2919 33.15C29.2029 33.1229 29.0176 33.1522 28.9198 33.1465L28.9275 33.173C28.8895 33.1696 28.8639 33.1601 28.8607 33.139C28.819 32.8478 29.3351 32.6377 28.8169 32.4991C28.7067 32.4679 28.2955 32.6077 28.589 32.3484C28.607 32.33 28.8847 32.1355 28.6786 32.0899C28.6526 32.0841 28.5296 32.1066 28.5169 32.0947C28.4348 32.0171 28.5232 31.9402 28.4611 31.8498C28.3995 31.7618 28.3124 31.6518 28.34 31.5359C28.3561 31.4647 28.5751 31.348 28.6275 31.31C28.7785 31.2012 28.5023 31.1378 28.6923 31.0603C28.8829 30.9825 29.1935 31.0519 29.3044 30.8965C28.9845 30.9282 28.6554 30.9537 28.3335 30.9816C28.3128 30.6585 28.3915 30.3358 28.3587 30.0188C28.3544 29.9794 28.1868 30.0327 28.1779 29.9905C28.1414 29.8121 28.2549 29.6471 28.2004 29.4657C28.1575 29.3229 27.9759 29.1759 27.9292 29.0256C28.2833 28.9194 28.1589 28.7024 28.1908 28.5399C28.2017 28.483 28.2958 28.4837 28.3262 28.4433C28.4389 28.2908 28.1288 28.3682 28.0801 28.3278C27.8734 28.1524 28.5733 28.1254 28.5563 27.9185C28.5553 27.9076 28.1866 27.7762 28.1643 27.7575C28.0166 27.6397 28.2932 27.7371 28.3218 27.6629C28.3742 27.5264 28.4632 27.4352 28.3603 27.2757C28.3296 27.2288 28.1062 27.1168 28.285 27.0286C28.3084 27.0171 28.4283 27.0251 28.4356 27.0157C28.5583 26.8452 28.1823 26.8362 28.0601 26.7346C27.9381 26.6328 28.2044 26.4862 28.2798 26.4579C28.4754 26.3826 28.3587 26.5217 28.3774 26.5265C28.5995 26.5829 28.5655 26.4726 28.5882 26.3891C28.9534 26.3874 28.9359 26.2702 28.6104 26.3025C28.5748 26.3063 28.6056 26.3728 28.5882 26.3891C28.2337 26.3051 28.1971 26.1722 28.5367 26.0418C28.6958 25.9811 28.873 26.0502 28.8176 25.847C28.7929 25.7545 28.5434 25.779 28.4813 25.6947C28.3434 25.5055 28.5765 25.2814 28.5668 25.0925C28.5666 25.0882 28.5663 25.0839 28.5658 25.0796C28.5586 25.0095 28.4197 25.0689 28.4105 25.0206C28.3864 24.8915 28.4986 24.7883 28.466 24.6585C28.463 24.6467 28.3222 24.665 28.3266 24.6255C28.3293 24.5996 28.3328 24.574 28.337 24.5487C28.3431 24.5214 28.3466 24.4378 28.3561 24.4115C28.4467 24.1092 28.6138 23.8564 28.7924 23.5232C28.881 23.352 29.0454 22.9815 29.2688 22.794C29.3471 22.7256 29.445 22.6583 29.5554 22.6017C29.947 22.3835 30.4699 22.4213 30.748 22.4705C30.7581 22.4718 30.7681 22.4729 30.778 22.4741C31.0107 22.5071 30.9866 22.3981 31.1102 22.3664C31.3671 22.3118 31.5689 22.7331 31.5694 22.7869C31.5703 22.7866 31.3951 22.6951 31.4535 22.7979C31.4418 22.921 31.5664 22.7853 31.5694 22.7869C31.5868 22.8189 31.8565 23.1018 31.912 23.1571C31.9465 23.1838 32.0051 23.1064 32.0221 23.1224C32.0332 23.133 32.0443 23.1438 32.0552 23.1548C32.3271 23.4259 32.4896 23.8019 32.5257 24.1576C32.5356 24.2576 32.5401 24.3603 32.5385 24.4654C32.5373 24.4717 32.4331 24.4744 32.4315 24.4892C32.4074 24.6981 32.546 24.8156 32.6346 24.983C32.7229 25.1502 32.7058 25.2948 32.5347 25.4084C32.5637 25.5397 32.4913 25.7345 32.4448 25.8448C32.3985 25.9545 32.5967 25.9698 32.6007 25.9798C32.7223 26.2902 32.6001 26.4725 32.5479 26.7956C32.5235 26.9498 32.5025 27.2641 32.4837 27.4399C32.4704 27.5792 32.405 27.6492 32.3983 27.7805C32.3972 27.7983 32.4861 27.8052 32.4878 27.8112C32.5462 27.982 32.3617 27.8531 32.3167 27.8705C32.1519 27.9321 32.0649 27.9658 32.0619 28.1557C32.0618 28.198 32.2984 28.4293 32.2798 28.5134C32.2565 28.6192 32.1741 28.5367 32.1503 28.6468C32.148 28.6561 32.2099 28.6845 32.176 28.7445C32.1051 28.8702 32.0209 28.9957 31.9309 29.1188C31.8227 29.267 31.7265 29.4274 31.6364 29.5877C31.6134 29.628 31.732 29.6483 31.6998 29.7093C31.6155 29.8683 31.5126 30.0289 31.3769 30.1549C31.3295 30.1989 31.2846 30.2437 31.1664 30.3192C31.1197 30.3486 31.0147 30.4081 30.8882 30.4469C30.7341 30.4915 30.5108 30.5443 30.1818 30.4458C29.9479 30.3728 29.7579 30.2255 29.6401 30.0831C29.5312 29.9512 29.4821 29.8461 29.4447 29.7526C29.3866 29.5992 29.3766 29.5 29.3693 29.4322C29.358 29.295 29.3666 29.2343 29.3725 29.1737C29.3859 29.0657 29.4027 29.0072 29.419 28.9509C29.4517 28.8443 29.4854 28.7711 29.5204 28.7039C29.5664 28.6198 29.6258 28.7056 29.6565 28.6954C29.8391 28.642 29.698 28.42 29.7069 28.3924C29.7555 28.2207 29.8299 28.0801 29.9171 27.9536C30.079 27.7261 30.2871 27.5486 30.4002 27.2426C30.4084 27.219 30.3084 26.9326 30.5262 26.97C30.5408 26.9723 30.7617 27.0132 30.6812 26.8745C30.6762 26.8658 30.5574 26.8524 30.6157 26.7814C30.674 26.7103 30.6933 26.5476 30.8611 26.5051C30.9142 26.4914 31.1396 26.5252 31.0661 26.3352C31.0603 26.3227 30.8497 25.9624 31.1021 26.0489C31.1436 26.0633 31.3649 26.223 31.3279 26.0265C31.3206 25.9886 31.2421 25.9964 31.2508 25.9151C31.264 25.7905 31.4078 25.7087 31.3862 25.5267C31.382 25.4948 31.2893 25.3043 31.4522 25.3168C31.4777 25.3188 31.538 25.391 31.5714 25.3613C31.7312 25.2196 31.8106 25.007 31.9899 24.8737C32.0533 24.8265 32.1471 24.9456 32.2258 24.9072C32.304 24.8692 32.431 24.7677 32.4298 24.6623C32.4291 24.5561 32.1889 24.4819 32.2543 24.3712C32.541 23.891 33.023 23.5615 33.4794 23.189C33.5478 23.1337 33.4376 23.1182 33.5365 23.0324C33.7616 22.8372 34.1032 22.543 34.4868 22.356C34.7235 22.2387 34.9615 22.1431 35.1531 22.1324C35.5475 22.12 35.1513 22.4117 35.4275 22.3624C35.5549 22.3439 35.6272 22.0178 35.6616 21.9975C35.7905 21.9173 35.9162 21.8884 36.0381 21.8798C36.128 21.8731 36.2155 21.8768 36.304 21.8808C36.3931 21.885 36.4832 21.8918 36.5804 21.8928C36.6498 21.8944 36.5877 21.7643 36.6486 21.7684C36.8592 21.784 37.0641 21.9103 37.251 21.9862C37.3354 22.0208 37.3435 21.934 37.4197 21.9802C37.6014 22.0912 37.7516 22.2217 37.8898 22.3988C37.9013 22.4142 37.7496 22.4288 37.8749 22.5158C37.8997 22.5331 37.9244 22.552 37.9497 22.5722C37.9909 22.6053 38.0325 22.6429 38.0739 22.6835C38.1939 22.805 38.3065 22.9394 38.4591 23.0499C38.5242 23.0985 38.6713 22.9957 38.6762 23.2234C38.6764 23.2751 38.4722 23.3248 38.7362 23.4398C38.7579 23.4511 38.8699 23.518 38.9604 23.6537C39.0519 23.785 39.1087 24.002 39.0296 24.1488C38.9905 24.2302 38.8103 24.3963 38.791 24.547C38.7881 24.5699 38.9056 24.5082 38.8715 24.6443C38.8607 24.6828 38.8484 24.7202 38.834 24.7577C38.7841 24.9251 38.6778 25.1234 38.6236 25.282C38.6058 25.3324 38.728 25.3064 38.6983 25.3808C38.608 25.601 38.4674 25.7982 38.3287 25.9766C38.2805 26.0369 38.2389 25.9523 38.2285 25.9531C38.0652 25.9565 38.2017 26.0944 38.1963 26.1248C38.1624 26.3095 38.0041 26.4008 37.9429 26.5443C37.9245 26.5858 38.0175 26.6045 38.0196 26.6163C38.0366 26.7359 37.9367 26.594 37.8903 26.6354C37.7609 26.7497 37.66 26.9239 37.5834 27.0649C37.5541 27.1189 37.6782 27.1149 37.6507 27.1628C37.4863 27.4526 37.2923 27.7306 37.0651 27.9717C37.0221 28.0172 36.9781 27.9425 36.9561 27.9435C36.8013 27.9518 36.8769 28.1443 36.8735 28.1782C36.8619 28.3279 36.7755 28.3331 36.7202 28.438C36.4516 28.9496 36.012 29.5027 35.6762 29.9298C35.2414 30.4824 34.8635 30.8847 34.4827 31.4341C34.4583 31.469 34.5639 31.4922 34.5438 31.523C34.2809 31.9192 33.9718 32.2681 33.7047 32.6653C33.6828 32.6977 33.7908 32.708 33.7579 32.7617C33.6909 32.8726 33.589 32.997 33.4854 33.0833C33.4351 33.1255 33.4247 33.0102 33.3754 33.0535C33.2605 33.1543 33.1578 33.2765 33.0762 33.4051C33.0416 33.4599 33.1756 33.4398 33.1248 33.5066C32.7764 33.9674 32.4333 34.4215 31.9706 34.7963C31.9384 34.8225 31.7711 34.7324 31.7445 34.8207C31.7805 34.8584 31.8278 34.8966 31.8688 34.9338C31.352 35.6014 30.7577 36.1962 30.1347 36.8124C30.1087 36.8379 30.2223 36.8617 30.1721 36.9115C29.8644 37.2105 29.6045 37.5102 29.0945 37.7379C29.0411 37.7596 28.9943 37.5937 28.8439 37.7082C28.819 37.7297 28.5873 37.8705 28.4212 37.9307C28.4023 37.9385 28.5173 38.0041 28.3416 38.0297C28.2359 38.0405 28.0773 38.0461 27.8814 37.9803C27.6935 37.9211 27.5018 37.7692 27.4107 37.6466C27.3069 37.5148 27.2486 37.3781 27.214 37.2559C27.1866 37.1559 27.1777 37.0888 27.1705 37.011C27.1518 36.6677 27.1929 36.5611 27.2431 36.3396C27.2531 36.2976 27.2646 36.2577 27.2768 36.2206C27.2903 36.1799 27.3048 36.1417 27.3198 36.1063C27.3545 36.0269 27.4058 36.1393 27.4308 36.0861C27.6081 35.7281 27.7471 35.4184 27.9925 35.2222C28.1576 35.0973 28.2251 35.2479 28.3989 35.2649C28.4229 35.2673 28.5035 35.1831 28.5684 35.2369C28.7302 35.3716 28.8656 35.5639 29.0429 35.7023C29.072 35.7254 29.1038 35.6599 29.1327 35.6903C29.1327 35.6903 29.1327 35.6903 29.1327 35.6903C29.1413 35.699 29.1501 35.7153 29.1589 35.7443C29.1615 35.7523 29.1345 35.8376 29.1508 35.8794C29.1622 35.9078 29.242 35.9459 29.2502 35.9896C29.259 36.0327 29.1845 36.0099 29.1868 36.0724C29.1904 36.1347 29.2778 36.1789 29.2337 36.2561ZM32.2257 26.3336C32.1256 26.4285 32.4722 26.4637 32.3951 26.3479C32.391 26.3423 32.2306 26.3286 32.2257 26.3336ZM28.8194 30.3008C29.0582 30.1541 28.6867 30.0959 28.5011 30.2025C28.3153 30.31 28.7468 30.346 28.8194 30.3008ZM29.1472 31.587C29.3238 31.4116 28.5131 31.5037 28.6989 31.6417C28.7095 31.6499 29.137 31.5974 29.1472 31.587ZM28.1533 35.65C28.1573 35.6509 28.2073 35.5861 28.2054 35.5824C28.1542 35.4909 28.0516 35.6238 28.1533 35.65ZM29.6079 32.8305C29.7021 32.7556 29.5447 32.6609 29.4253 32.7517C29.3293 32.8264 29.4909 32.926 29.6079 32.8305ZM31.1476 27.9402C31.1533 27.9421 31.1869 27.8983 31.1587 27.8818C31.0674 27.8289 31.0519 27.9095 31.1476 27.9402ZM30.4297 34.8959C30.2497 34.5842 30.7719 34.1171 30.856 34.4154C30.875 34.472 30.6105 34.4228 30.5976 34.5172C30.5832 34.7011 30.9743 34.5324 30.8793 34.7756C30.8652 34.8246 30.4408 34.9183 30.4286 34.8959C30.429 34.8959 30.4294 34.8959 30.4297 34.8959ZM31.8049 26.3696C31.8003 26.3713 31.7916 26.4469 31.7959 26.449C31.9037 26.4978 31.9218 26.3429 31.8049 26.3696ZM33.1293 25.4254C33.1404 25.4284 33.2557 25.2979 33.2515 25.2876C33.1521 25.0907 32.9149 25.358 33.1293 25.4254ZM29.9265 24.0193C30.0336 24.1435 30.0332 24.2234 29.8396 24.2229C29.8693 24.154 29.8932 24.0837 29.9265 24.0193Z" fill="black"/>
<path d="M14.8118 55.7899C14.9583 55.5868 15.2186 55.345 15.4302 55.1715C15.4973 55.1161 15.5209 55.1928 15.57 55.1557C15.6607 55.0893 15.71 54.9785 15.8032 54.9148C15.8354 54.8927 15.8883 54.9971 15.9202 54.9722C16.0983 54.8307 16.2054 54.6544 16.3605 54.4954C17.1295 53.705 17.7983 52.8513 18.4586 51.9496C18.6769 51.6515 19.0011 51.3291 19.1673 50.9824C19.1864 50.9422 19.0926 50.9147 19.0905 50.9035C19.0593 50.7288 19.1975 50.8664 19.2647 50.8059C19.5305 50.5656 19.7345 50.2418 19.87 49.936C19.9268 49.8066 19.6945 49.8347 19.8558 49.7652C19.8669 49.7603 19.9357 49.841 19.9642 49.813C20.0286 49.7493 20.0955 49.5956 20.1359 49.5399C20.2137 49.4339 20.2232 49.4147 20.2843 49.307C20.3689 49.1596 20.5085 49.0073 20.5743 48.836C20.5881 48.7993 20.4735 48.7963 20.4872 48.7336C20.4911 48.7157 20.5007 48.6915 20.5136 48.6651C20.518 48.656 20.5228 48.6467 20.5279 48.6373C20.5593 48.5793 20.6009 48.5185 20.6291 48.496C20.6749 48.4595 20.7364 48.5163 20.7571 48.5163C20.9329 48.5154 20.8214 48.2525 20.8265 48.2288C20.9311 47.8002 21.1875 47.5101 21.3309 47.1268C21.4385 46.8374 21.5025 46.5104 21.589 46.2319C21.6925 45.8997 21.8201 45.6261 21.8806 45.2918C21.8871 45.2564 21.755 45.2703 21.7624 45.2272C21.8403 44.7722 21.9194 44.3257 22.0548 43.8732C22.0684 43.8282 22.1757 43.9006 22.1962 43.8562C22.2036 43.8395 22.2115 43.8223 22.2197 43.8047C22.2286 43.7857 22.2378 43.7661 22.2471 43.7463C22.3756 43.5363 22.4317 43.1342 21.9497 43.1669C21.9227 43.0325 21.8689 42.8878 21.8878 42.7291C21.8879 42.7276 21.8881 42.7261 21.8883 42.7247C21.8988 42.6519 21.9779 42.6204 21.9804 42.5917C21.9816 42.5815 21.9719 42.5713 21.9445 42.5627C21.9222 42.5564 21.8506 42.6528 21.8273 42.6412C21.7345 42.5984 21.6969 42.5294 21.6077 42.566C21.5905 42.5744 21.5888 42.6746 21.5844 42.6915C21.5664 42.8255 21.4826 42.5907 21.447 42.5815C21.4132 42.5629 21.3782 42.5535 21.3442 42.5507C21.3232 42.549 21.3028 42.5495 21.2824 42.552C21.1345 42.5764 21.0218 42.65 20.8818 42.7167C20.8353 42.739 20.9474 42.8286 20.9059 42.8539C20.6909 42.9838 20.4682 43.1119 20.2321 43.2182C20.1795 43.2416 20.1533 43.1215 20.1244 43.1285C19.9957 43.1629 20.1068 43.3441 19.9911 43.3825C19.9668 43.3911 19.915 43.3097 19.9048 43.3046C19.743 43.2264 19.8507 43.4438 19.8417 43.4591C19.7246 43.6627 19.4486 43.5957 19.3193 43.7903C19.3047 43.8134 19.4351 43.8494 19.3892 43.9088C19.0838 44.3054 18.7552 44.7226 18.4122 45.1164C18.3589 45.1779 18.3076 45.0819 18.2953 45.0804C18.0994 45.0629 18.2802 45.229 18.2756 45.2557C18.2323 45.4662 17.9642 45.5466 18.1572 45.801C17.6796 46.5395 17.5261 47.4154 17.0159 48.1746C17.0097 48.1844 16.9006 48.129 16.8886 48.1489C16.7436 48.3889 16.9387 48.3939 17.1087 48.6296C17.1515 48.6884 16.8475 48.7419 16.8246 48.7483C16.7403 48.7704 16.5798 48.6767 16.5618 48.6871C16.4181 48.7758 16.9965 48.9178 16.9537 49.075C16.9514 49.0797 16.8513 49.03 16.8371 49.0404C16.7929 49.0725 16.8237 49.1256 16.7763 49.1564C16.6671 49.227 16.3781 49.1859 16.5038 49.3731C16.5204 49.3967 16.8546 49.454 16.8032 49.5919C16.7884 49.6307 16.7543 49.7736 16.723 49.8741C16.7159 49.8968 16.7087 49.9174 16.7018 49.9342C16.6971 49.945 16.6925 49.9539 16.6882 49.9606C16.6518 50.0164 16.5559 49.9518 16.5503 49.9548C16.3707 50.1011 16.3272 50.0241 16.1042 50.0901C15.8855 50.1658 16.38 50.1987 16.429 50.2401C16.477 50.281 16.35 50.402 16.3114 50.4364C16.2714 50.4694 16.2073 50.4263 16.1847 50.4568C16.046 50.6706 16.42 50.5373 16.4948 50.5891C16.5623 50.6291 16.5579 50.6624 16.5251 50.6858C16.5073 50.6963 16.488 50.707 16.4436 50.6915C16.4199 50.6848 16.3848 50.658 16.3056 50.6501C16.2205 50.6432 16.1655 50.6939 16.161 50.7141C16.1589 50.7194 16.1579 50.7241 16.1577 50.7282C16.1955 50.7323 16.2315 50.7277 16.2565 50.7105C16.286 50.6898 16.2091 50.6615 16.2222 50.6343C16.2696 50.53 16.4022 50.5118 16.3752 50.3381C16.3722 50.3069 16.224 50.1357 16.3864 50.1115C16.4101 50.1072 16.4802 50.1634 16.5152 50.1139C16.5676 50.0413 16.6235 49.8889 16.6136 49.7914C16.6067 49.719 16.4574 49.7716 16.515 49.6948C16.5403 49.6605 16.6068 49.7448 16.6479 49.6776C16.6898 49.6091 16.7113 49.4218 16.7156 49.3489C16.7203 49.2766 16.6135 49.306 16.6072 49.2994C16.5715 49.2613 16.5338 49.1219 16.5345 49.1105C16.5671 48.5117 16.7204 47.9323 16.623 47.3306C16.6154 47.2835 16.5115 47.3227 16.5092 47.3156C16.4531 47.1575 16.7446 47.264 16.8301 47.1424C16.6163 47.1758 16.6502 47.1058 16.6168 46.9933C16.6006 46.9392 16.52 46.9765 16.5111 46.9722C16.3778 46.9024 16.5354 46.8308 16.5674 46.8129C16.6849 46.7472 16.5343 46.7022 16.6124 46.6572C16.69 46.6121 16.8191 46.6851 16.8063 46.5748C16.7264 46.552 16.5345 46.654 16.4934 46.5743C16.4713 46.5316 16.4543 46.483 16.441 46.4306C16.441 46.4303 16.4409 46.43 16.4408 46.4296C16.3798 46.1625 16.3186 45.7678 16.1973 45.6002C16.0678 45.4115 15.9969 45.3737 15.9134 45.2619C15.7513 45.0641 15.726 45.2429 15.564 45.2169C15.4001 45.1963 15.6674 44.9125 15.6932 44.8308C15.7172 44.7483 15.6499 44.8063 15.6484 44.7522C15.6463 44.6976 15.7316 44.6837 15.6791 44.6317C15.6253 44.5776 15.3838 44.6145 15.3234 44.6832C15.1938 44.8259 15.179 45.0343 15.0552 44.9C15.0479 44.892 15.122 44.8131 15.0915 44.7874C14.9144 44.641 14.7031 44.5363 14.4968 44.4221C14.4902 44.4182 14.4835 44.4144 14.4768 44.4106C14.4171 44.3778 14.3512 44.3515 14.2806 44.3295C14.2405 44.3174 14.2832 44.2007 14.2575 44.1924C13.9739 44.1223 14.08 44.3264 14.0064 44.5678C13.9744 44.27 13.8516 44.0978 13.6364 44.1709C13.5123 44.2165 13.5846 44.3326 13.5531 44.4501C13.5447 44.4851 13.4272 44.4407 13.4426 44.5045C13.4967 44.7116 13.6699 44.8767 13.4705 44.8899C13.4612 44.8905 13.4243 44.7789 13.3964 44.7882C13.3609 44.8 13.3359 44.8179 13.3184 44.8393C13.3139 44.8452 13.31 44.8516 13.3067 44.8583C13.2649 44.944 13.315 45.0654 13.252 45.1635C13.1875 45.2605 12.9411 45.3949 12.8472 45.5525C12.5222 45.3904 12.518 45.6021 12.7316 45.7555C12.6809 45.8619 12.6559 45.9893 12.5913 46.0913C12.569 46.1271 12.4731 46.0724 12.4606 46.0741C12.2643 46.1026 12.4905 46.2214 12.4942 46.248C12.5204 46.5466 12.2912 46.7458 12.4375 47.0501C12.4428 47.0611 12.702 47.1148 12.5016 47.1597C12.4877 47.1629 12.3806 47.0548 12.3543 47.1834C12.3284 47.3108 12.1575 47.5435 12.2647 47.7391C12.2901 47.7871 12.4993 47.9173 12.3218 47.9918C12.2976 48.0018 12.2213 47.9821 12.1769 47.9958C12.0987 48.0204 12.1459 48.0479 12.1643 48.0753L12.1622 48.0328C12.1678 48.0377 12.172 48.0431 12.173 48.0492C12.1758 48.0652 12.1572 48.0867 12.0867 48.1217C11.8696 48.2298 11.7202 48.3989 11.9158 48.5551C11.9216 48.5602 12.1462 48.5609 12.1546 48.6187C12.1674 48.7103 12.1501 48.8527 12.1721 48.9476C12.1827 48.9932 12.3118 48.9345 12.316 48.9419C12.4609 49.2325 12.3915 49.4751 12.4218 49.8179C12.4265 49.8803 12.6614 50.0029 12.5436 50.1576C12.4144 50.3283 11.6955 50.3867 11.9375 50.6425C12.0344 50.7494 12.9516 50.6328 12.564 50.9835C12.8042 51.3549 12.6979 51.8133 13.0153 52.1567C13.0295 52.1723 13.2994 52.1316 13.3126 52.1736C13.3317 52.2367 13.2302 52.3186 13.2406 52.3659C13.2813 52.5651 13.454 52.6931 13.5178 52.8728C13.5431 52.9424 13.4131 52.974 13.4434 53.0569C13.4734 53.1383 13.6563 53.1187 13.6323 53.2597C13.6152 53.3691 13.3364 53.6089 13.3579 53.7415C13.6723 53.5819 13.7031 53.6579 13.8559 53.741C13.8852 53.7563 13.9783 53.6706 13.9977 53.6747C14.0782 53.6885 14.0146 53.783 14.0996 53.7916C14.1201 53.7937 14.2251 53.7334 14.2476 53.7315C14.4426 53.7115 14.2796 53.9666 14.2531 54.0137C14.1497 54.1886 14.3055 54.1383 14.2855 54.2369C14.2656 54.3354 14.1322 54.2962 14.143 54.39C14.1673 54.5872 14.3209 54.7628 14.4363 54.9054C14.4831 54.962 14.5733 54.8171 14.5828 54.8228C14.6073 54.8389 14.6257 54.8595 14.6417 54.881C14.6466 54.8876 14.6513 54.8943 14.6558 54.9009C14.7253 54.9835 14.7881 55.0746 14.9735 54.9183C14.5874 55.6338 15.0875 54.91 15.1575 55.1445C15.1621 55.1629 15.0356 55.48 14.9376 55.4978C14.8373 55.5153 14.7994 55.3687 14.6659 55.3876C14.637 55.3936 14.2955 55.6072 14.2626 55.6114C14.1066 55.6407 14.2061 55.4516 14.3025 55.3111C14.293 55.3034 14.2674 55.2776 14.2588 55.2689C14.3194 55.1981 14.3767 55.1401 14.3834 55.1304C14.3913 55.1188 14.3983 55.1079 14.4045 55.0977C14.5589 54.848 14.1877 54.9811 14.1397 54.963C13.9198 54.8899 13.8941 54.7084 13.7325 54.6284C13.6272 54.5745 13.2968 54.7754 13.2617 54.6969C13.1462 54.4322 13.569 54.0889 13.0431 54.093C12.9306 54.0917 12.5854 54.3384 12.7864 54.0066C12.7981 53.9839 13.0021 53.7201 12.7963 53.7296C12.7703 53.7308 12.6617 53.7852 12.6465 53.7769C12.5476 53.7219 12.6083 53.6232 12.5247 53.55C12.4422 53.4791 12.3301 53.3924 12.3235 53.2704C12.3188 53.1957 12.4898 53.0241 12.528 52.9733C12.638 52.8277 12.3641 52.8339 12.5191 52.7096C12.6745 52.5852 12.982 52.5757 13.0419 52.3954C12.7539 52.5064 12.4558 52.6133 12.165 52.7207C12.0584 52.4035 12.0462 52.0623 11.9352 51.7529C11.9212 51.7145 11.7807 51.8069 11.7618 51.7666C11.6832 51.5957 11.7462 51.4042 11.6521 51.2348C11.5779 51.101 11.3769 50.9935 11.2989 50.8515C11.5969 50.6678 11.4324 50.4763 11.4245 50.3063C11.4214 50.2466 11.5071 50.228 11.5253 50.1803C11.5929 50.0038 11.3291 50.1463 11.2758 50.1159C11.0492 49.9822 11.6773 49.8095 11.6158 49.6065C11.6125 49.5962 11.2498 49.5379 11.2257 49.5239C11.0668 49.4353 11.3379 49.4775 11.3476 49.3973C11.3654 49.2498 11.4259 49.1398 11.2993 49.0003C11.2616 48.9596 11.0364 48.8891 11.1793 48.7662C11.198 48.7501 11.3077 48.7349 11.3124 48.7241C11.3875 48.5299 11.0465 48.5913 10.9157 48.5132C10.8248 48.4586 10.8989 48.3448 10.973 48.2665C10.9808 48.2583 10.9886 48.2505 10.9962 48.2431C10.9887 48.1892 10.9766 48.0341 10.9833 47.9801C11.0125 47.9637 11.0387 47.9516 11.0553 47.9455C11.1889 47.8958 11.1648 47.9547 11.1479 47.9933C11.1424 48.0386 11.1525 48.1686 11.1587 48.2138C11.1575 48.2214 11.1564 48.2282 11.1561 48.2333C11.1557 48.239 11.1563 48.2426 11.1589 48.2428C11.2509 48.2495 11.2929 48.2331 11.3111 48.2053C11.3152 48.199 11.3182 48.192 11.3202 48.1847C11.3151 48.1482 11.3069 48.0431 11.3114 48.0065C11.3295 47.9753 11.3308 47.929 11.343 47.8896C11.6784 47.906 11.6699 47.7852 11.3689 47.8017C11.3359 47.8037 11.3599 47.8739 11.343 47.8896C11.0226 47.7865 10.9984 47.6439 11.3199 47.5279C11.4706 47.4735 11.6271 47.5567 11.593 47.3425C11.5782 47.2453 11.3476 47.2545 11.2987 47.1616C11.1879 46.948 11.4397 46.7231 11.4486 46.5164C11.4523 46.44 11.3172 46.4898 11.316 46.4363C11.3129 46.2942 11.4304 46.192 11.4216 46.0439C11.4207 46.0302 11.2895 46.0316 11.2999 45.9872C11.3788 45.6498 11.5512 45.3775 11.73 45.0185C11.8124 44.8463 11.9533 44.4896 12.1282 44.3165C12.2671 44.1721 12.4729 44.044 12.6855 43.9523C12.6982 43.9468 12.711 43.9413 12.7237 43.936C12.8977 43.8735 13.0634 43.8215 13.1884 43.7441C13.3581 43.6428 13.2749 43.5536 13.3325 43.4482C13.4524 43.2383 13.8808 43.4306 13.9259 43.4727C13.9249 43.4724 13.7362 43.5315 13.8502 43.5716C13.9298 43.6822 13.9226 43.4738 13.9259 43.4727C13.9557 43.486 14.3856 43.5021 14.4882 43.513C14.5409 43.5105 14.5307 43.4006 14.5597 43.4021C14.6425 43.4074 14.7281 43.4203 14.8138 43.4414C14.8326 43.446 14.8513 43.451 14.8701 43.4564C15.1745 43.514 15.4901 43.6397 15.7814 43.8485C15.7868 43.8539 15.7243 43.9505 15.7375 43.9617C15.9188 44.1213 16.1183 44.0825 16.34 44.1421C16.5605 44.2017 16.6887 44.3522 16.6531 44.5829C16.7917 44.6796 16.8934 44.9249 16.9321 45.0678C16.9712 45.209 17.1577 45.1097 17.1692 45.1188C17.501 45.4051 17.4933 45.7165 17.5514 46.1294C17.5575 46.1783 17.5665 46.2376 17.5757 46.3047C17.5757 46.305 17.5758 46.3053 17.5758 46.3057C17.5979 46.4537 17.6392 46.6446 17.6678 46.7617C17.6982 46.8848 17.6556 46.9643 17.6969 47.0769C17.7024 47.0922 17.7951 47.069 17.7991 47.0735C17.9224 47.1944 17.6872 47.1497 17.6483 47.1793C17.5065 47.2869 17.4313 47.3503 17.5125 47.5103C17.531 47.5467 17.8704 47.6404 17.8938 47.711C17.9235 47.8023 17.8023 47.7726 17.8359 47.8676C17.8386 47.8758 17.9124 47.8713 17.9118 47.9315C17.9099 48.2108 17.8729 48.5164 17.8739 48.8155C17.8737 48.8565 17.9931 48.8078 17.9947 48.8675C18.0022 49.1475 17.9782 49.4664 17.8837 49.7503C17.8601 49.8194 17.7833 49.7622 17.7566 49.774C17.5951 49.8444 17.787 50.016 17.7862 50.0422C17.7611 50.5785 17.5538 50.9851 17.0075 51.6328C16.9805 51.6588 16.95 51.6856 16.915 51.7127C16.8448 51.767 16.7217 51.8483 16.5504 51.8979C16.3734 51.952 16.1326 51.9571 15.9343 51.8947C15.5299 51.7562 15.4219 51.5665 15.3352 51.4635C15.1062 51.1519 14.8296 50.7738 15.0161 50.6261C15.0275 50.6107 15.2297 50.478 15.0742 50.3693C15.0645 50.3617 14.9561 50.4377 14.9592 50.3001C14.9633 50.1658 14.8847 49.9398 15.0335 49.7865C15.0698 49.7486 15.2257 49.6915 15.2255 49.5786C15.224 49.5566 15.2128 49.5311 15.1879 49.5011C15.1845 49.4969 15.1807 49.4927 15.1767 49.4883C15.1656 49.4786 14.806 49.1908 15.1027 49.1948C15.1516 49.1955 15.4442 49.282 15.3292 49.1009C15.307 49.066 15.2281 49.0988 15.2057 49.0159C15.1713 48.8882 15.289 48.7642 15.1959 48.5918C15.1791 48.5622 15.0082 48.4053 15.1828 48.366C15.2102 48.36 15.3011 48.4118 15.3244 48.372C15.4351 48.1845 15.4341 47.9526 15.5666 47.7677C15.6133 47.7022 15.7579 47.7885 15.8238 47.7267C15.8897 47.6651 15.9795 47.5274 15.935 47.426C15.8907 47.3239 15.6138 47.3274 15.6351 47.2018C15.7298 46.6535 16.0731 46.1943 16.3216 45.6983C16.3588 45.6245 16.2459 45.6494 16.2955 45.5376C16.4723 45.1264 16.7779 44.3786 17.1627 44.1391C17.4654 43.9503 17.3505 44.3511 17.5334 44.1809C17.6203 44.1006 17.4446 43.8343 17.4541 43.8042C17.5365 43.518 17.7605 43.435 17.8889 43.2102C17.9159 43.1635 17.7899 43.1305 17.8144 43.0912C17.8975 42.9563 18.0471 42.8634 18.1416 42.7453C18.184 42.6921 18.1088 42.6403 18.1575 42.5984C18.2736 42.4976 18.3964 42.4276 18.5625 42.3858C18.5773 42.3823 18.5906 42.5246 18.6734 42.4515C18.8083 42.3325 19.028 42.2499 19.1379 42.0542C19.1702 41.9962 19.0469 41.8309 19.2418 41.8623C19.2831 41.869 19.3981 42.0885 19.4006 41.8254C19.3976 41.7827 19.4671 41.3893 19.6826 41.4769C19.7389 41.4996 19.9166 41.628 19.966 41.5642C19.9726 41.5547 19.882 41.4793 19.9326 41.4389C20.1129 41.2979 20.334 41.2044 20.5388 41.0845C20.5941 41.0522 20.4632 40.982 20.5486 40.9369C20.5865 40.9171 20.6268 40.8984 20.669 40.881C20.7128 40.8634 20.7578 40.8473 20.806 40.8322C21.0794 40.7447 21.4455 40.6896 21.7906 40.7356C21.9673 40.7617 21.8304 40.8491 21.8428 40.8603C22.0085 41.047 22.1741 40.853 22.2552 40.8603C22.7294 40.9151 22.9728 41.232 23.2276 41.4694C23.2988 41.5382 23.3422 41.4113 23.3632 41.4196C23.3918 41.4324 23.4118 41.4442 23.4251 41.4548C23.5023 41.5132 23.3223 41.5422 23.3634 41.6296C23.3678 41.6394 23.3723 41.6492 23.3767 41.659C23.4995 41.9295 23.6295 42.1894 23.7215 42.4385C23.7559 42.5336 23.8485 42.3796 23.8776 42.4681C24.0329 42.9428 24.0369 43.468 23.9253 43.9242C23.9185 43.9459 23.9116 43.9676 23.9046 43.9894C23.9005 44.0019 23.8964 44.0143 23.8922 44.0268C23.8705 44.0901 23.7801 44.0384 23.7565 44.0493C23.5918 44.123 23.7808 44.2831 23.7955 44.3177C23.8643 44.4716 23.7711 44.5165 23.7656 44.6439C23.7407 45.2724 23.5001 46.0221 23.2908 46.5737C23.018 47.2962 22.7217 47.8157 22.4438 48.4814C22.4258 48.5237 22.5541 48.5304 22.5397 48.5678C22.4156 48.8812 22.2551 49.1739 22.0976 49.4673C22.0925 49.477 22.0873 49.4866 22.0822 49.4962C22.0067 49.6374 21.9335 49.779 21.8667 49.9245C21.8494 49.9615 21.9765 49.9639 21.952 50.0253C21.9024 50.1516 21.8146 50.297 21.7173 50.3964C21.6699 50.4453 21.6292 50.3207 21.583 50.371C21.4753 50.4882 21.3866 50.6269 21.3233 50.7718C21.2962 50.8343 21.4472 50.8038 21.404 50.8807C21.1139 51.4014 20.8231 51.9141 20.3729 52.3394C20.3422 52.3682 20.126 52.2717 20.1161 52.3698C20.167 52.4106 20.2314 52.4519 20.2881 52.4921C19.8483 53.2396 19.2946 53.8979 18.7707 54.5882C18.7485 54.6175 18.886 54.64 18.8435 54.697C18.5982 55.0262 18.385 55.3634 18.0272 55.6194C17.9924 55.6441 17.8343 55.4924 17.7832 55.6101C17.7738 55.6319 17.6841 55.7911 17.6901 55.8591C17.6915 55.8688 17.7925 55.9057 17.7567 55.955C17.5523 56.2338 17.3006 56.5013 17.0256 56.7251C16.9796 56.7627 16.9381 56.6448 16.9048 56.6707C16.677 56.8463 16.5301 57.1355 16.2611 57.2739C16.0776 57.3678 15.9973 57.1814 15.7924 57.1246C15.766 57.1149 15.6674 57.2006 15.5933 57.1213C15.4105 56.9224 15.2454 56.6741 15.0438 56.4681C15.0285 56.4498 15.0124 56.457 15.0179 56.4457C15.0286 56.4358 15.0071 56.441 15.084 56.3912C15.1305 56.3413 15.4119 56.2922 15.4262 56.2935C15.4262 56.2935 15.4262 56.2935 15.4262 56.2934C15.4323 56.285 15.2909 56.2674 15.1781 56.2924C15.0667 56.3129 14.9868 56.3527 14.9694 56.3438C14.9159 56.3711 14.9243 56.3017 14.9042 56.2493C14.8885 56.2157 14.7979 56.1513 14.784 56.1023C14.7721 56.0513 14.8567 56.0965 14.8565 56.0213C14.8579 55.943 14.7459 55.8806 14.8118 55.7899ZM17.0353 45.7097C16.9833 45.8557 17.3412 45.7496 17.2067 45.6479C17.1996 45.6432 17.0376 45.702 17.0353 45.7097ZM12.4324 51.9254C12.614 51.7236 12.2568 51.7534 12.1134 51.9031C11.97 52.0545 12.3774 51.9877 12.4324 51.9254ZM13.09 53.1134C13.2044 52.8958 12.4755 53.1942 12.6876 53.2831C12.6998 53.2885 13.0834 53.1263 13.09 53.1134ZM16.0684 56.7619C16.0634 56.76 16.0047 56.816 16.0075 56.8203C16.0668 56.9349 16.1847 56.8221 16.0684 56.7619ZM13.8824 54.2036C13.9513 54.108 13.7737 54.0552 13.6876 54.1756C13.619 54.2744 13.7981 54.3256 13.8824 54.2036ZM16.4024 50.8322C16.3975 50.8297 16.3538 50.8696 16.3779 50.8914C16.4571 50.9627 16.4957 50.874 16.4024 50.8322ZM15.7771 55.2526C15.6538 55.4695 15.4077 55.3423 15.4133 55.2144C15.3952 55.0869 15.4554 54.9921 15.4775 55.0667C15.5097 55.0804 15.4541 55.1772 15.4984 55.225C15.5631 55.2555 15.5882 55.1858 15.597 55.1458C15.6066 55.1012 15.6335 55.0713 15.7046 55.0184C15.7188 54.9894 15.7927 55.2118 15.7771 55.2535C15.7771 55.2532 15.7771 55.2529 15.7771 55.2526ZM16.6417 45.9331C16.6382 45.9367 16.6595 46.0108 16.6643 46.0112C16.7914 46.0163 16.7455 45.8564 16.6417 45.9331ZM16.9656 47.9438C16.9783 47.9434 17.0444 47.7778 17.0358 47.7689C16.8535 47.6091 16.7174 47.9472 16.9656 47.9438ZM12.8373 45.5509C12.9352 45.6797 12.922 45.7616 12.7319 45.7552C12.7675 45.6866 12.7982 45.6153 12.8373 45.5509Z" fill="black"/>
</svg>
