<svg width="36" height="67" viewBox="0 0 36 67" fill="none" xmlns="http://www.w3.org/2000/svg">
<path d="M6.30006 42.9052C6.16648 42.6062 6.06749 42.1936 6.01534 41.881C5.99936 41.7846 6.06834 41.8152 6.0597 41.7474C6.04183 41.6115 5.98083 41.5048 5.96843 41.3689C5.96459 41.3238 6.06695 41.3514 6.06093 41.3045C6.03042 41.0585 5.94231 40.8344 5.89349 40.5891C5.65045 39.3685 5.38729 38.1892 5.14488 36.9622C5.06545 36.5602 5.03602 36.0535 4.91144 35.6459C4.89672 35.5979 4.82541 35.6438 4.81701 35.6359C4.68808 35.5129 4.8551 35.5272 4.85579 35.4286C4.85745 35.0338 4.77935 34.6187 4.67706 34.262C4.63332 34.11 4.50926 34.2949 4.56551 34.1234C4.56926 34.1115 4.65964 34.134 4.66016 34.0903C4.66118 33.9913 4.61095 33.8123 4.60312 33.7363C4.59665 33.6722 4.59227 33.6328 4.58707 33.5963C4.58037 33.5493 4.57256 33.5087 4.55853 33.4322C4.54495 33.3565 4.53676 33.2736 4.52801 33.1884C4.52053 33.116 4.50823 33.0861 4.52845 32.9412C4.54961 32.858 4.55838 32.7617 4.71792 32.6303C4.88299 32.5098 5.05172 32.5387 5.10063 32.5488C5.2467 32.585 5.27887 32.6187 5.32983 32.6465C5.38191 32.6793 5.4083 32.698 5.44251 32.721C5.49072 32.7542 5.48397 32.6362 5.56881 32.6873C5.64346 32.729 5.78785 32.8779 5.8213 32.9423C5.85298 33.0038 5.78286 33.0306 5.77963 33.0498C5.74719 33.2064 6.03075 33.2413 6.05386 33.2599C6.45878 33.5887 6.64824 33.9804 6.94646 34.3404C7.17301 34.6138 7.44034 34.8837 7.64669 35.1481C7.89357 35.465 8.05994 35.7607 8.30696 36.0613C8.33281 36.0929 8.39737 35.9846 8.42933 36.0229C8.76989 36.432 9.08522 36.8555 9.33734 37.3258C9.36244 37.373 9.23268 37.3834 9.25231 37.4345C9.37602 37.7456 9.49622 38.2892 10.0103 38.1558C10.1255 38.3427 10.2681 38.5693 10.3016 38.7866C10.3233 38.9269 10.1492 38.9 10.2837 38.9949C10.3139 39.0164 10.3767 38.9157 10.4153 38.9527C10.5775 39.108 10.6894 39.3252 10.8637 39.4714C10.8993 39.501 10.9734 39.4338 10.9954 39.4338C11.1758 39.4373 11.0808 39.7178 11.0893 39.7604C11.1056 39.8412 11.1282 39.9107 11.1553 39.9729C11.1706 40.0083 11.1872 40.0415 11.2047 40.0732C11.2751 40.2017 11.3671 40.3118 11.4479 40.4348C11.4804 40.4838 11.5448 40.3497 11.577 40.3911C11.6043 40.4269 11.6361 40.467 11.6416 40.4755C11.6408 40.4759 11.6416 40.4754 11.613 40.4521C11.5757 40.4341 11.6249 40.4231 11.3911 40.3445C11.3561 40.337 11.3398 40.3314 11.2668 40.328C11.1907 40.3256 11.0877 40.3392 10.9868 40.3891C10.886 40.437 10.7971 40.5239 10.7503 40.5979C10.713 40.6549 10.6915 40.7082 10.678 40.7528C10.6324 40.9395 10.659 40.9641 10.6585 40.9989C10.6953 41.1644 10.6853 41.0845 10.6839 41.0894C10.6652 41.0321 10.6186 40.9301 10.5782 40.8424C10.5405 40.7614 10.5035 40.6781 10.4694 40.5948C10.4449 40.5345 10.5637 40.5269 10.5561 40.4948C10.5546 40.4891 10.553 40.4837 10.5511 40.4787C10.5051 40.3592 10.3399 40.4337 10.3014 40.3091C10.2925 40.2817 10.3732 40.2424 10.3781 40.2327C10.4549 40.0779 10.2393 40.1507 10.2239 40.1381C10.0197 39.9761 10.0884 39.7062 9.89529 39.5389C9.87232 39.5196 9.83494 39.6439 9.77583 39.5857C9.38026 39.1981 8.96466 38.7974 8.55261 38.4235C8.48827 38.3656 8.58406 38.3293 8.58521 38.3178C8.59548 38.135 8.43205 38.2853 8.40491 38.2782C8.32116 38.2532 8.25696 38.2017 8.19331 38.1556C8.09149 38.0816 7.99055 38.022 7.8423 38.1246C7.80163 38.1001 7.75957 38.0765 7.71788 38.0544C7.0466 37.6988 6.25964 37.6866 5.46832 37.5672C5.37072 37.5525 5.27219 37.5361 5.17286 37.5171C5.16059 37.515 5.17811 37.4103 5.15351 37.4066C4.94924 37.3759 4.91538 37.4433 4.8569 37.5555C4.83467 37.6063 4.80931 37.6667 4.77054 37.7343C4.744 37.7867 4.57794 37.5765 4.55808 37.564C4.5003 37.5114 4.50868 37.3496 4.49102 37.341C4.33379 37.2802 4.4947 37.7674 4.35436 37.8176C4.34936 37.8185 4.33664 37.7221 4.32082 37.7179C4.2709 37.7048 4.24526 37.7555 4.19453 37.7414C4.07872 37.7091 3.93369 37.4972 3.85762 37.7004C3.84911 37.7268 4.00882 37.9728 3.87464 38.0322C3.82006 38.0544 3.59796 38.1992 3.52519 38.2273C3.45192 38.2539 3.44138 38.1453 3.43469 38.1448C3.19166 38.1585 3.22643 38.071 3.02904 37.9803C2.82938 37.8929 3.11843 38.2366 3.1136 38.3025C3.10867 38.3681 2.92256 38.3782 2.8692 38.3736C2.81621 38.3684 2.81646 38.2902 2.77654 38.295C2.77152 38.2956 2.76671 38.2963 2.7621 38.2971C2.52389 38.3383 2.83656 38.5346 2.82353 38.6352C2.79595 38.877 2.47852 38.7056 2.33207 38.7864C2.29286 38.8081 2.36996 38.8434 2.34496 38.8743C2.33372 38.8881 2.32196 38.9001 2.30985 38.9108C2.24899 38.9644 2.21021 38.9746 2.16402 39.0079C2.15112 39.0176 2.14192 39.0253 2.13947 39.028C2.14613 39.0139 2.11287 39.0805 2.16635 38.9788C2.1778 38.9599 2.19449 38.8291 2.08998 38.7633C1.99854 38.7137 1.96676 38.7377 1.94963 38.7374C1.91402 38.7473 1.93391 38.7418 1.92725 38.7436C1.92404 38.7444 1.92262 38.7444 1.92212 38.7439C1.92245 38.7384 1.95924 38.7025 1.97065 38.669C1.98929 38.6385 1.97679 38.3983 2.14798 38.4618C2.17049 38.4726 2.19358 38.5606 2.25308 38.5421C2.34221 38.5145 2.50868 38.4186 2.5735 38.3363C2.6261 38.2721 2.46824 38.2115 2.57706 38.1869C2.62624 38.1755 2.60449 38.2937 2.69345 38.2663C2.77311 38.2458 2.94198 38.1184 3.00896 38.0658C3.06901 38.0182 2.97144 37.9553 2.97211 37.9458C2.97715 37.8902 3.06913 37.7572 3.08083 37.7487C3.62523 37.328 4.24208 37.1007 4.73904 36.6515C4.77876 36.6158 4.67958 36.5416 4.68491 36.5352C4.79851 36.3874 4.87404 36.7261 5.03698 36.737C4.87846 36.5536 4.96296 36.5451 5.04835 36.4479C5.08942 36.4009 5.00674 36.3454 5.00546 36.3343C4.99255 36.1652 5.15356 36.2749 5.1893 36.2955C5.32088 36.3709 5.27334 36.2008 5.36156 36.2511C5.44929 36.3012 5.45652 36.467 5.55231 36.3936C5.52717 36.3031 5.31886 36.1735 5.37003 36.0886C5.56527 35.7653 6.18754 35.521 6.4226 35.3685C6.65642 35.2161 6.71849 35.1484 6.86744 35.0769C7.13637 34.9482 6.94584 34.872 7.04272 34.6971C7.13973 34.5218 7.32952 34.9235 7.40648 34.9825C7.48311 35.0419 7.44795 34.948 7.50437 34.97C7.56073 34.9922 7.54357 35.0843 7.61525 35.055C7.68653 35.0263 7.75205 34.7692 7.71434 34.6742C7.63431 34.4733 7.42925 34.3539 7.63369 34.2952C7.64552 34.292 7.68528 34.4067 7.72711 34.3897C8.05694 34.2519 8.34776 34.0394 8.67571 33.8924C8.72038 33.8728 8.76504 34.003 8.79193 33.9928C9.06991 33.8894 8.8586 33.7716 8.83728 33.4784C9.00528 33.7627 9.19864 33.8686 9.37257 33.7416C9.47827 33.6643 9.37576 33.5609 9.38327 33.4279C9.38567 33.3876 9.52013 33.4107 9.49252 33.3463C9.40275 33.1351 9.18396 32.9882 9.42069 32.9325C9.43173 32.9301 9.47908 33.0476 9.51189 33.032C9.72451 32.9317 9.59568 32.7352 9.77335 32.5632C9.91119 32.4293 10.2608 32.3437 10.4475 32.2314C10.6786 32.535 10.7714 32.3563 10.6891 32.0866C10.8068 32.0106 10.913 31.9108 11.0474 31.8547C11.0899 31.8382 11.1342 31.945 11.1459 31.9512C11.173 31.9668 11.1924 31.9752 11.2059 31.9782C11.2905 31.9132 11.3925 31.9904 11.3559 32.0906C11.277 32.1328 11.4362 32.2437 11.4354 32.2708C11.4296 32.3588 11.4075 32.4345 11.3785 32.5063C11.2939 32.7154 11.1528 32.8798 11.2056 33.1495C11.2082 33.1622 11.457 33.2773 11.2414 33.283C11.2266 33.283 11.1472 33.142 11.086 33.2753C11.0248 33.4094 10.7882 33.611 10.8339 33.8481C10.8448 33.9051 11.0109 34.1028 10.8104 34.1321C10.7832 34.1358 10.7141 34.0928 10.6657 34.0945C10.5111 34.1 10.7618 34.2348 10.5118 34.2145C10.2617 34.1948 10.0373 34.2668 10.1159 34.5191C10.118 34.5268 10.3105 34.6549 10.2837 34.7133C10.2404 34.8066 10.1424 34.9245 10.1041 35.0244C10.0858 35.0724 10.2298 35.0945 10.2289 35.1037C10.1761 35.4539 9.96728 35.6361 9.77744 35.9572C9.7418 36.0167 9.85401 36.2705 9.65901 36.3341C9.44524 36.4026 8.8364 35.9961 8.86674 36.3655C8.87779 36.5128 9.66665 37.0171 9.13356 37.0586C9.06778 37.5342 8.67369 37.8374 8.65489 38.3339C8.65391 38.3562 8.87302 38.5183 8.8511 38.5626C8.81797 38.6281 8.68819 38.618 8.66068 38.6633C8.54251 38.8515 8.56434 39.0775 8.46838 39.2664C8.43215 39.3382 8.32346 39.2628 8.28007 39.3484C8.23676 39.4338 8.36996 39.5582 8.24412 39.6462C8.14857 39.7124 7.78792 39.6683 7.69989 39.772C8.01686 39.9094 7.97589 39.989 7.99914 40.1705C8.00377 40.2054 8.12751 40.2217 8.13543 40.2406C8.1702 40.3187 8.05718 40.3302 8.09812 40.4078C8.10789 40.4266 8.21682 40.4728 8.23098 40.4907C8.3556 40.6451 8.05027 40.6855 7.9971 40.6922C7.79508 40.7185 7.91879 40.8221 7.82451 40.8675C7.73026 40.9127 7.69539 40.7714 7.62123 40.8392C7.53823 40.9154 7.47764 41.0181 7.42709 41.1237C7.42474 41.1286 7.42242 41.1335 7.42011 41.1384C7.38095 41.2373 7.35351 41.3271 7.32584 41.4069C7.30104 41.4812 7.46554 41.4787 7.46544 41.4904C7.45195 41.6515 7.25617 41.7633 7.51378 41.9278C6.75786 41.8281 7.55675 42.0382 7.34804 42.2132C7.3313 42.2267 7.01016 42.1717 6.97369 42.0886C6.93595 42.006 7.06048 41.9269 7.00305 41.81C6.99096 41.7825 6.68971 41.5528 6.67195 41.5274C6.54107 41.3308 7.08304 41.4817 7.1147 41.4838C7.45662 41.5045 7.14064 41.2342 7.12844 41.1818C7.1157 41.1316 7.11297 41.0852 7.11632 41.0415C7.11817 41.0362 7.12439 41.0203 7.12656 41.015C7.12724 41.0094 7.12803 41.0038 7.1289 40.9983C7.15018 40.8647 7.22266 40.765 7.20808 40.6309C7.1959 40.5133 6.85196 40.3581 6.89435 40.2875C7.0352 40.0531 7.55634 40.1679 7.23595 39.7577C7.1678 39.6699 6.76756 39.5619 7.14238 39.5059C7.16607 39.5024 7.49516 39.4817 7.356 39.3327C7.33845 39.3139 7.22815 39.2684 7.22437 39.2518C7.20123 39.1411 7.31339 39.1203 7.31144 39.0094C7.30949 38.8985 7.29544 38.7603 7.37847 38.6691C7.42836 38.6142 7.66758 38.6159 7.73051 38.6057C7.91108 38.5779 7.71568 38.3876 7.91218 38.4053C8.10938 38.4227 8.32939 38.6387 8.50154 38.5418C8.221 38.4198 7.93596 38.2879 7.65538 38.1622C7.79975 37.8546 8.02237 37.5851 8.14436 37.2668C8.15923 37.2273 7.99249 37.2057 8.00465 37.1618C8.05691 36.9769 8.22899 36.8676 8.26544 36.6681C8.29281 36.5141 8.20371 36.2958 8.22857 36.1338C8.58045 36.1706 8.56769 35.9097 8.66472 35.762C8.69838 35.7104 8.7794 35.7475 8.82317 35.7189C8.98615 35.6099 8.68378 35.5696 8.65848 35.5114C8.55181 35.2625 9.1729 35.4957 9.24445 35.2811C9.24828 35.2697 8.97939 35.0054 8.96744 34.9786C8.88589 34.8083 9.08879 35.0044 9.14393 34.9404C9.24433 34.8245 9.36079 34.7604 9.33245 34.566C9.3235 34.5093 9.17092 34.3186 9.36264 34.2914C9.38775 34.2877 9.49075 34.3362 9.50087 34.3292C9.67517 34.1988 9.34594 34.0624 9.27535 33.9212C9.20507 33.78 9.49643 33.7184 9.5741 33.7138C9.77628 33.7005 9.62089 33.8036 9.63559 33.8146C9.81219 33.9435 9.82328 33.8207 9.87476 33.7422C10.2014 33.8564 10.2296 33.7299 9.92666 33.6607C9.89348 33.6532 9.89645 33.7309 9.87476 33.7422C9.58994 33.543 9.60427 33.4006 9.95613 33.3707C10.1207 33.3571 10.2545 33.4841 10.2784 33.2559C10.2894 33.1526 10.0562 33.1033 10.0297 32.9989C9.97034 32.7591 10.271 32.5963 10.3157 32.3907C10.3321 32.3163 10.1866 32.339 10.1937 32.2868C10.2038 32.2106 10.2492 32.1523 10.2885 32.091C10.3205 32.0412 10.3475 31.9917 10.3503 31.926C10.3506 31.9128 10.2162 31.8944 10.2305 31.854C10.2502 31.7968 10.2723 31.7428 10.296 31.6909L11.8874 32.8831C11.6897 33.0108 11.4402 33.1244 11.2275 33.2769C11.0923 33.3744 10.8953 33.6059 10.7539 33.6908C10.4948 33.8493 10.095 33.9122 9.91994 34.0958C9.80316 34.2165 9.90645 34.2973 9.90161 34.4069C9.89494 34.6166 9.51987 34.5211 9.46547 34.5045C9.46393 34.5038 9.56176 34.3959 9.46149 34.3894C9.34519 34.3085 9.46644 34.5032 9.46547 34.5045C9.42711 34.4958 9.18807 34.6351 9.15554 34.6883C9.13864 34.7167 9.22321 34.8008 9.21303 34.8138C8.96886 35.1212 8.68069 35.3645 8.33768 35.5455C8.33079 35.5476 8.26155 35.4382 8.24633 35.4445C8.03083 35.5301 8.01309 35.7377 7.91938 35.9196C7.82559 36.1017 7.69 36.1599 7.47143 36.0489C7.37608 36.1517 7.15787 36.1908 7.03105 36.2113C6.90422 36.2319 7.03794 36.4374 7.03269 36.4471C6.87253 36.753 6.63967 36.7479 6.36551 36.9192C6.23203 37.0023 6.00718 37.2069 5.88578 37.3261C5.79005 37.4206 5.69213 37.4222 5.61525 37.5211C5.60482 37.5344 5.68123 37.6096 5.6796 37.6158C5.64551 37.7951 5.54432 37.5505 5.49435 37.5296C5.31149 37.4547 5.20609 37.4218 5.11241 37.586C5.0904 37.6243 5.21751 37.9864 5.16955 38.0465C5.10669 38.1246 5.05807 37.9977 4.99512 38.0816C4.98971 38.0887 5.03925 38.1529 4.98693 38.1856C4.74885 38.3352 4.46651 38.4781 4.2241 38.6591C4.19124 38.6833 4.30871 38.7552 4.26254 38.7915C4.05289 38.9568 3.79739 39.1295 3.53803 39.2385C3.47625 39.2634 3.45856 39.1697 3.43192 39.1567C3.27675 39.0742 3.29133 39.3407 3.27975 39.3536C3.15219 39.4929 3.00103 39.5896 2.82714 39.6847C2.79106 39.7034 2.74218 39.7297 2.69135 39.756C2.63177 39.7837 2.63973 39.79 2.41442 39.8913C2.39699 39.8984 2.37671 39.9062 2.35078 39.9152C2.26136 39.922 2.21234 40.047 1.67349 39.9298C1.39737 39.8796 0.97272 39.453 0.947013 39.1002C0.89911 38.7585 0.980938 38.6063 1.01624 38.5068C1.20212 38.1539 1.158 38.2828 1.17757 38.2425C1.18708 38.2314 1.1956 38.2218 1.20345 38.2133C1.23464 38.1796 1.25655 38.1593 1.27718 38.1403C1.31897 38.1023 1.3513 38.0764 1.36693 38.0647C1.4064 38.0342 1.44854 38.0012 1.49693 37.9613C1.5766 37.8967 1.6544 37.8242 1.73015 37.737C1.74759 37.7151 1.77437 37.3928 1.98196 37.4892C1.99173 37.4937 2.09799 37.5454 2.1532 37.5182C2.17619 37.5069 2.19074 37.4816 2.1863 37.4332C2.18548 37.4229 2.06982 37.3764 2.1649 37.3194C2.25952 37.2627 2.36567 37.1 2.56257 37.1073C2.62561 37.109 2.83316 37.2143 2.87168 36.9997C2.86942 36.9865 2.88874 36.5495 3.09463 36.7249C3.1286 36.7541 3.24272 36.9921 3.34254 36.7866C3.36268 36.7469 3.27551 36.7243 3.34555 36.648C3.4555 36.5301 3.66714 36.5124 3.81703 36.3355C3.8406 36.3046 3.9362 36.0838 4.10146 36.1811C4.12646 36.1966 4.11278 36.2906 4.17992 36.2837C4.36747 36.2654 4.56112 36.2231 4.76797 36.2107C4.86704 36.2051 4.96755 36.2047 5.06817 36.2254C5.15457 36.2432 5.11702 36.3858 5.20662 36.4205C5.2666 36.4438 5.36626 36.4657 5.45342 36.4589C5.49685 36.4555 5.53701 36.445 5.56813 36.4235C5.6625 36.3591 5.55825 36.1338 5.70367 36.1168C6.34089 36.0453 6.99579 36.2431 7.64307 36.4501C7.73969 36.4816 7.6819 36.3792 7.82763 36.423C7.97837 36.4692 8.16127 36.5272 8.35305 36.6041C8.53775 36.6777 8.72776 36.7659 8.9014 36.8655C9.17038 37.0192 9.39914 37.2 9.51865 37.3746C9.73201 37.6946 9.30493 37.5214 9.49073 37.7234C9.57734 37.8193 9.85042 37.6955 9.88185 37.7096C10.1807 37.8372 10.2672 38.0701 10.493 38.2342C10.5399 38.2687 10.5741 38.1518 10.6136 38.1824C10.7492 38.2869 10.839 38.4479 10.9547 38.5601C11.0067 38.6104 11.0594 38.5453 11.0997 38.5994C11.1963 38.7283 11.262 38.8591 11.2986 39.0277C11.3016 39.0428 11.1621 39.0347 11.2317 39.1269C11.345 39.277 11.4205 39.5056 11.6078 39.6363C11.6484 39.6644 11.7437 39.6171 11.7811 39.6614C11.7953 39.6784 11.801 39.7081 11.7917 39.7597C11.7848 39.7998 11.5712 39.8909 11.8257 39.9204C11.8448 39.9229 11.9303 39.9415 12.013 39.9843C12.1138 40.0361 12.2169 40.1243 12.1804 40.2512C12.1713 40.281 12.1387 40.3411 12.1213 40.4151C12.1118 40.4508 12.1067 40.4897 12.1147 40.5464C12.1183 40.5743 12.1261 40.6066 12.1405 40.6653C12.1458 40.689 12.1596 40.739 12.1691 40.8175C12.1724 40.8616 12.1822 40.8877 12.1708 41.0262C12.1639 41.0893 12.1504 41.1679 12.113 41.265C12.074 41.3579 12.0231 41.4827 11.8486 41.6362C11.6644 41.7839 11.5713 41.7955 11.5789 41.8013C11.5825 41.8027 11.6743 41.7786 11.7889 41.7063C11.9014 41.6409 12.0321 41.4953 12.0772 41.4253C12.1293 41.3515 12.1586 41.2931 12.1745 41.2711C12.1891 41.2498 12.1962 41.2592 12.1697 41.3381C12.1526 41.3814 12.1404 41.4253 12.067 41.5331C11.9884 41.6467 11.8263 41.8109 11.5886 41.8957C11.4726 41.9382 11.3476 41.9576 11.2371 41.9573C11.1096 41.9542 11.0942 41.9485 11.029 41.9376C10.9189 41.9162 10.8308 41.8815 10.7621 41.8481C10.6416 41.7873 10.6099 41.7618 10.5545 41.72C10.3523 41.5545 10.3493 41.5433 10.284 41.4846C10.2303 41.4339 10.1883 41.3931 10.1451 41.3497C10.0598 41.2642 9.9824 41.1835 9.89871 41.1064C9.85509 41.0668 9.81394 41.2016 9.75115 41.139C9.74142 41.1292 9.73169 41.1189 9.72196 41.1081C9.69769 41.0822 9.67426 41.0541 9.65199 41.0241C9.53894 40.8717 9.43961 40.6855 9.36532 40.5274C9.33055 40.453 9.44099 40.4434 9.44623 40.4326C9.53127 40.2559 9.31227 40.3436 9.28372 40.3256C9.10868 40.2125 9.11198 40.0268 8.98817 39.896C8.95415 39.8595 8.88539 39.9516 8.87195 39.9491C8.7375 39.9196 8.93913 39.8692 8.92015 39.8032C8.86719 39.6176 8.74685 39.4567 8.63252 39.3127C8.59062 39.2601 8.53201 39.3953 8.4957 39.3472C8.27867 39.0635 8.08243 38.7476 7.94145 38.419C7.9151 38.3571 8.01292 38.3366 8.02235 38.3128C8.08871 38.1477 7.84798 38.1518 7.8152 38.1367C7.66417 38.0681 7.69867 37.9743 7.61446 37.8769C7.20533 37.4032 6.81779 36.7363 6.50334 36.2378C6.09441 35.5885 5.8041 35.0614 5.3452 34.5157C5.31605 34.4811 5.26551 34.5833 5.23965 34.5546C5.07536 34.3687 4.92328 34.1791 4.77413 34.0117C4.70063 33.929 4.6227 33.8491 4.58257 33.8153C4.57378 33.8077 4.56795 33.8039 4.57851 33.8113C4.60442 33.8226 4.57689 33.8312 4.76803 33.8953C4.81507 33.9085 4.87582 33.9219 4.95625 33.9263C5.03212 33.9326 5.22618 33.9224 5.39526 33.8385C5.78899 33.6336 5.8579 33.3543 5.89534 33.2187C5.92682 33.0569 5.9149 33.0397 5.91611 32.9975C5.91455 32.9623 5.91172 32.9422 5.91047 32.9308C5.91076 32.932 5.91105 32.9333 5.91134 32.9345C5.92103 32.976 6.00367 32.8982 6.02234 32.9642C6.05203 33.0672 6.07489 33.1929 6.0829 33.3101C6.08541 33.3469 6.08634 33.3825 6.08564 33.4171C6.0844 33.4878 5.9868 33.4121 5.98721 33.483C5.98805 33.6484 6.0144 33.8178 6.06188 33.9782C6.0823 34.0464 6.15663 33.9226 6.17574 34.0126C6.30765 34.6229 6.45045 35.2182 6.46475 35.862C6.46575 35.9062 6.28141 35.9866 6.33849 36.0681C6.39345 36.0628 6.45624 36.0484 6.51403 36.0385C6.744 36.9182 6.88844 37.8109 7.10615 38.696C7.11542 38.7335 7.19995 38.6427 7.21839 38.7151C7.32484 39.132 7.46024 39.5263 7.47766 39.9776C7.4797 40.0229 7.2965 40.0511 7.35802 40.1678C7.36885 40.1879 7.44499 40.3675 7.49744 40.4055C7.50509 40.4104 7.57802 40.353 7.5975 40.4122C7.70935 40.7568 7.79759 41.1254 7.8534 41.4834C7.86199 41.5403 7.75671 41.5096 7.76207 41.5503C7.80269 41.8449 7.96634 42.1263 7.97827 42.4093C7.98653 42.5981 7.81383 42.5848 7.70343 42.7335C7.68768 42.7548 7.72543 42.8581 7.64388 42.8963C7.44097 43.001 7.18825 43.0433 6.97404 43.1599C6.93533 43.1741 7.01281 43.2874 6.97472 43.3088C6.97471 43.3088 6.97471 43.3088 6.9747 43.3088C6.96289 43.3147 6.93971 43.3121 6.89974 43.2946C6.88325 43.2819 6.78759 43.162 6.73863 43.1526C6.70295 43.1427 6.63198 43.2142 6.57978 43.1846C6.52637 43.1514 6.58252 43.0816 6.51503 43.0263C6.44638 42.9685 6.36114 43.0425 6.30006 42.9052ZM6.46217 36.3065C6.3072 36.2755 6.54997 36.6269 6.58132 36.4778C6.58254 36.4702 6.47 36.3079 6.46217 36.3065ZM8.39724 37.7409C8.66985 37.7043 8.38412 37.4854 8.17699 37.5053C7.96962 37.5247 8.31425 37.7521 8.39724 37.7409ZM8.00645 39.1221C8.24474 39.0468 7.53663 38.7261 7.61444 38.9445C7.61872 38.9571 7.99257 39.1265 8.00645 39.1221ZM7.50772 42.3138C7.50429 42.3172 7.52785 42.3998 7.53235 42.3997C7.64371 42.4095 7.59701 42.2459 7.50772 42.3138ZM7.63771 40.5018C7.75529 40.4967 7.69783 40.316 7.55165 40.3224C7.43399 40.3276 7.49135 40.5082 7.63771 40.5018ZM2.20593 38.6446C2.21089 38.648 2.26104 38.6124 2.23901 38.5883C2.16783 38.5105 2.12161 38.5884 2.20593 38.6446ZM7.00807 42.8609C7.02805 42.4855 7.62469 42.4092 7.43243 42.7462C7.40373 42.8099 7.33365 42.5788 7.26736 42.6545C7.21147 42.7259 7.24936 42.8014 7.26973 42.8711C7.28029 42.9066 7.28741 42.9402 7.28153 42.9746C7.27875 42.9907 7.27264 43.0084 7.26271 43.0257C7.25776 43.0343 7.2519 43.0423 7.24484 43.0522C7.2414 43.0562 7.23757 43.0617 7.23352 43.0663C7.2325 43.0675 7.23132 43.0703 7.22998 43.0735C7.22964 43.0744 7.22927 43.0754 7.22882 43.0768C7.22592 43.0867 7.23727 43.0475 7.22004 43.107C7.21595 43.1147 7.21424 43.1258 7.1897 43.15C7.17294 43.1799 7.06181 43.195 7.02928 43.1548C6.97249 43.0947 6.99232 43.0916 6.98589 43.0821C6.98356 43.068 6.98427 43.0685 6.98415 43.0684C6.98416 43.0678 6.98419 43.0673 6.98421 43.0668C6.98445 43.063 6.98491 43.0614 6.98534 43.0597C6.98715 43.0525 6.98919 43.053 6.99123 43.0494C6.99424 43.045 6.99958 43.0447 7.00675 43.048C7.01033 43.0496 7.01437 43.0518 7.01883 43.0543C7.02107 43.0553 7.02336 43.0582 7.02598 43.0624C7.02631 43.0631 7.02666 43.0638 7.02703 43.0647C7.02724 43.066 7.02685 43.0615 7.02766 43.0687C7.0295 43.0736 7.02411 43.072 7.03932 43.1014C7.03619 43.1169 7.12244 43.1592 7.15381 43.1232C7.18002 43.1008 7.17743 43.0929 7.18082 43.0875C7.18883 43.0586 7.1837 43.0748 7.18475 43.0707C7.18436 43.0692 7.18386 43.0682 7.18335 43.0672C7.18231 43.0653 7.18119 43.0638 7.18005 43.0621C7.16086 43.0445 7.13623 43.0202 7.1111 42.9916C7.06097 42.9375 7.00644 42.8702 7.00756 42.8601C7.00773 42.8604 7.0079 42.8606 7.00807 42.8609ZM6.10609 35.931C6.101 35.9278 6.02999 35.9741 6.03172 35.9798C6.07594 36.1157 6.21931 36.0228 6.10609 35.931ZM5.39103 37.4087C5.39307 37.4129 5.42678 37.4164 5.46632 37.4186C5.52275 37.4218 5.59071 37.4228 5.59438 37.4171C5.65237 37.3071 5.54825 37.2528 5.46427 37.2663C5.40182 37.2762 5.35247 37.3233 5.39103 37.4087ZM10.4564 32.2375C10.4441 32.058 10.5061 31.9873 10.6887 32.0867C10.598 32.143 10.5406 32.185 10.4564 32.2375Z" fill="black"/>
<path d="M23.4945 11.2084C23.6525 10.6291 23.9552 10.0922 24.198 9.66962C24.2725 9.54305 24.2765 9.62948 24.3311 9.541C24.4374 9.36933 24.5062 9.19148 24.6141 9.0287C24.6509 8.97343 24.6725 9.07934 24.71 9.02051C24.9102 8.70677 25.0675 8.37824 25.2579 8.0586C26.2139 6.45894 27.1303 4.89024 28.0901 3.2767C28.2088 3.07743 28.3335 2.88464 28.4699 2.67357C28.5139 2.60545 28.5559 2.53467 28.5961 2.46184C28.7667 2.15075 28.8875 1.81897 28.9904 1.47864C29.0133 1.40267 28.9075 1.39433 28.9053 1.37606C28.8789 1.07417 29.0296 1.26327 29.1354 1.1161C29.1713 1.06785 29.2098 1.01654 29.2686 0.949805C29.3444 0.885934 29.3492 0.791002 29.7161 0.637086C29.9026 0.54819 30.3288 0.618859 30.4755 0.764937C30.6406 0.899661 30.6773 0.989752 30.7145 1.0531C30.7806 1.18392 30.7965 1.25855 30.8142 1.32629C30.8518 1.48792 30.8672 1.60494 30.8876 1.72493C30.937 2.03182 31.0061 2.33096 31.0841 2.60442C31.1497 2.83398 31.3303 2.55554 31.2495 2.81557C31.2441 2.83356 31.1109 2.79809 31.1106 2.86457C31.1101 3.01532 31.1855 3.28545 31.1975 3.39906C31.2199 3.61779 31.2283 3.65513 31.2659 3.86C31.3165 4.14075 31.3176 4.48303 31.4009 4.7798C31.419 4.84283 31.5293 4.73504 31.5696 4.83353C31.61 4.9324 31.6486 5.20377 31.6354 5.30079C31.6222 5.39804 31.5158 5.37646 31.496 5.39676C31.3279 5.56456 31.6499 5.8311 31.6636 5.87018C31.9064 6.58658 31.8616 7.24657 31.9745 7.93607C32.0611 8.46298 32.201 9.01848 32.2701 9.51768C32.3529 10.1192 32.3566 10.6334 32.4507 11.2122C32.4606 11.2737 32.6036 11.1802 32.6159 11.2553C32.7458 12.0459 32.8352 12.843 32.8291 13.6507C32.8282 13.7312 32.6797 13.6457 32.6707 13.7269C32.6196 14.2273 32.4376 15.0291 33.0636 15.2499C33.0775 15.588 33.0956 15.9917 33.0045 16.2976C32.9456 16.4928 32.778 16.3224 32.865 16.5543C32.8844 16.6065 33.0086 16.5244 33.0277 16.6035C33.1077 16.9307 33.0982 17.2999 33.1939 17.63C33.2136 17.6969 33.3297 17.6686 33.3525 17.6861C33.5373 17.8299 33.2745 18.1265 33.2579 18.1852C33.1365 18.6422 33.2176 18.9612 33.2321 19.3856C33.2351 19.4811 33.3892 19.3622 33.3976 19.4534C33.406 19.5509 33.4128 19.6643 33.4163 19.7608C33.4214 19.9131 33.4216 20.0515 33.4126 20.2159C33.4084 20.2837 33.4008 20.3845 33.3893 20.4651C33.3841 20.5017 33.3744 20.5717 33.3625 20.6263C33.3486 20.6708 33.3463 20.7714 33.2424 20.9621C33.1639 21.0808 33.0808 21.1872 32.9924 21.2809C32.9015 21.3743 32.8657 21.1987 32.818 21.2368C32.5695 21.4272 32.7454 21.6488 32.3372 21.8218C32.2544 21.8484 32.2512 21.7223 32.2323 21.7172C31.9834 21.6192 31.8135 21.8977 31.7284 21.899C31.5142 21.9083 31.3319 21.8368 31.2046 21.7524C31.0873 21.6732 30.9991 21.5741 30.9255 21.4725C30.8067 21.2932 30.7166 21.0914 30.5759 20.9326C30.5397 20.891 30.496 21.0786 30.4 20.9529C29.8013 20.1318 29.5006 19.2072 29.2929 18.3257C29.2606 18.1855 29.393 18.2454 29.402 18.2325C29.5416 18.0283 29.2604 18.0386 29.2358 17.9983C29.0497 17.6835 29.1568 17.2992 28.7845 17.1666C28.4286 15.6933 27.8878 14.2959 27.7651 12.7933C27.7632 12.7743 27.8861 12.7764 27.8818 12.7386C27.831 12.284 27.6757 12.4157 27.3876 12.1812C27.3157 12.1218 27.5173 11.8315 27.5308 11.8071C27.5819 11.7174 27.7674 11.7479 27.7747 11.7205C27.8281 11.4951 27.2876 11.672 27.2206 11.4022C27.2194 11.3935 27.3287 11.4027 27.333 11.3775C27.3467 11.2993 27.2894 11.2402 27.3066 11.1629C27.347 10.9854 27.5953 10.8634 27.3815 10.6637C27.3541 10.6385 27.0602 10.7635 27.0151 10.5195C26.997 10.4211 26.8884 10.0053 26.8775 9.87847C26.8673 9.75459 26.9842 9.81131 26.9863 9.80174C27.0333 9.44985 27.1166 9.5574 27.2636 9.35043C27.4094 9.14445 26.9756 9.3037 26.9097 9.25185C26.8435 9.19817 26.8878 8.93639 26.9091 8.8702C26.9304 8.80372 27.009 8.85934 27.0163 8.80328C27.0622 8.43366 26.7599 8.71303 26.6621 8.62125C26.4308 8.40102 26.7019 8.10871 26.6716 7.86615C26.6634 7.80008 26.6042 7.87284 26.582 7.81579C26.495 7.58952 26.5581 7.42467 26.3995 7.19615C26.3729 7.15672 26.1252 6.99401 26.2286 6.82233C26.2435 6.79783 26.337 6.83 26.3284 6.72932C26.3175 6.58529 26.2582 6.30651 26.189 6.16325C26.1376 6.05647 26.0458 6.22142 26.0457 6.06997C26.0456 6.00296 26.1538 6.0962 26.1472 5.9715C26.1376 5.83541 26.0446 5.53573 26.007 5.42426C25.9671 5.30454 25.8913 5.40069 25.8818 5.39286C25.8263 5.34417 25.7108 5.14191 25.7051 5.12509C25.696 5.09823 25.6871 5.07173 25.6784 5.04559C25.6041 4.82271 25.5132 4.60949 25.4029 4.4035C25.0895 3.81805 24.6216 3.29494 24.0304 2.89432C23.9657 2.85045 23.943 2.9664 23.9325 2.96058C23.6934 2.83655 24.0308 2.73679 23.9351 2.54845C23.8294 2.73796 23.7636 2.6405 23.5954 2.5489C23.5143 2.50497 23.5063 2.60181 23.4946 2.60388C23.3109 2.62822 23.3283 2.4403 23.3276 2.3988C23.3251 2.24617 23.1606 2.30805 23.1578 2.20521C23.1549 2.10299 23.3403 2.08614 23.19 1.98135C23.1034 2.01431 23.098 2.25771 22.9651 2.20326C22.9143 2.18246 22.8608 2.15608 22.8062 2.12563C22.7441 2.08419 22.6671 2.04162 22.5918 1.90104C22.5552 1.83121 22.5262 1.70174 22.5697 1.58121C22.6117 1.46189 22.6894 1.39567 22.7478 1.3562C22.9824 1.22089 23.1273 1.24573 23.2801 1.25073C23.5164 1.27193 23.7273 1.33136 23.9107 1.40298C24.1056 1.47968 24.2765 1.55898 24.3973 1.61051C24.4517 1.63356 24.5009 1.65508 24.5459 1.67527C24.8253 1.80165 24.9506 1.84855 25.1329 1.96372C25.5146 2.20947 25.4419 1.974 25.7328 2.02215C26.0234 2.07298 25.6965 2.4146 25.6887 2.51911C25.6794 2.62312 25.7625 2.55345 25.7812 2.62307C25.7995 2.69253 25.677 2.70347 25.7679 2.77309C25.8587 2.84212 26.2112 2.83511 26.2962 2.76604C26.4746 2.61814 26.4591 2.35092 26.6883 2.56822C26.7013 2.58086 26.5937 2.65723 26.6464 2.70034C27.0656 3.03903 27.5337 3.32657 27.9364 3.6766C27.9916 3.72487 27.8657 3.80308 27.8969 3.83241C28.22 4.13912 28.2085 3.86556 28.5478 3.78666C28.3209 4.03663 28.3219 4.27889 28.5961 4.46326C28.7611 4.57462 28.8133 4.43445 28.978 4.42106C29.0276 4.41694 29.0888 4.57903 29.1485 4.53661C29.3443 4.3984 29.3749 4.11521 29.6038 4.39179C29.6136 4.40422 29.5046 4.47861 29.5434 4.51414C29.7942 4.74494 29.9608 4.57425 30.2772 4.7592C30.5257 4.90442 30.8572 5.3139 31.1085 5.52123C30.8835 5.82568 31.183 5.93272 31.436 5.79183C31.6007 5.92207 31.7945 6.04185 31.9394 6.18916C31.9893 6.23977 31.888 6.30279 31.8883 6.3176C31.8906 6.54819 32.1119 6.39242 32.1551 6.41075C32.6115 6.61451 32.8286 7.00434 33.3218 7.11173C33.3397 7.11564 33.5101 6.91039 33.5049 7.14132C33.5041 7.15697 33.3079 7.17003 33.4851 7.30148C33.659 7.43065 33.9294 7.78214 34.252 7.84007C34.3063 7.85029 34.4531 7.81338 34.549 7.86067C34.5892 7.88017 34.6203 7.91648 34.632 7.98368C34.6371 8.01311 34.5807 8.06921 34.5839 8.12013C34.5943 8.25104 34.709 8.14077 34.7467 8.22131C34.7565 8.24162 34.7611 8.27344 34.7591 8.32437C34.753 8.44108 34.7788 8.55991 34.8233 8.65262C34.8441 8.69786 34.8721 8.74105 34.879 8.75699C34.8833 8.80051 34.8529 8.63845 34.8982 8.65529L34.9682 8.58729C34.9532 8.60622 34.9384 8.62727 34.9236 8.65066C34.9186 8.65858 34.9621 8.88729 34.8704 8.9293C34.8335 8.94598 34.7896 8.96228 34.7447 8.97682C34.6158 9.01907 34.4659 9.05223 34.3542 9.09459C34.2811 9.12226 34.3751 9.23435 34.3632 9.24141C33.8859 9.49267 33.4875 9.47041 32.9332 9.55948C32.8322 9.57543 32.5899 9.82667 32.3622 9.731C32.1127 9.6267 32.1722 8.92785 31.7267 9.20008C31.5459 9.31003 31.4895 10.1847 31.0373 9.84568C30.9093 9.8973 30.7821 9.93604 30.6509 9.96832C30.5645 9.99485 30.476 10.0192 30.3945 10.04C29.9434 10.1557 29.4892 10.2288 29.0656 10.4753C29.0377 10.4914 29.0125 10.7434 28.9419 10.7631C28.8356 10.7924 28.7424 10.709 28.6662 10.7266C28.3411 10.7991 28.0813 10.9829 27.7746 11.0703C27.657 11.1041 27.6631 10.9843 27.5237 11.0245C27.3832 11.0653 27.3408 11.2345 27.1313 11.2303C26.9746 11.2261 26.7374 10.9896 26.54 11.0198C26.6275 11.3026 26.499 11.3397 26.2959 11.4914C26.2574 11.5205 26.3371 11.602 26.3206 11.6208C26.2542 11.6994 26.1489 11.6452 26.0874 11.7271C26.0724 11.7469 26.1041 11.8427 26.0936 11.8643C26.0079 12.0504 25.7111 11.912 25.6608 11.8875C25.4662 11.7956 25.4398 11.9433 25.309 11.9257C25.1779 11.9083 25.3214 11.781 25.1789 11.7921C24.8839 11.8151 24.5404 11.9506 24.2641 12.041C24.1538 12.0778 24.2725 12.1788 24.2578 12.187C24.0418 12.2974 23.7656 12.2419 23.7271 12.5378C23.3439 11.9396 23.6123 12.6482 23.2423 12.6298C23.2132 12.628 23.074 12.3311 23.1565 12.2518C23.2394 12.1724 23.4206 12.2176 23.5329 12.0997C23.5596 12.0719 23.6439 11.7189 23.6633 11.6925C23.8138 11.4869 24.0007 11.939 24.0199 11.9608C24.2327 12.1936 24.3508 11.8037 24.4029 11.7616C24.6413 11.5687 24.8939 11.5544 25.0981 11.4051C25.231 11.3083 25.1416 10.9999 25.2621 10.9688C25.6615 10.8655 25.942 11.2432 26.1836 10.7499C26.2359 10.6445 26.0435 10.3388 26.4153 10.5039C26.4388 10.5142 26.7291 10.6826 26.7991 10.4898C26.8078 10.4656 26.7745 10.3686 26.7918 10.3537C26.9078 10.2554 27.0248 10.302 27.1582 10.2155C27.2931 10.1286 27.4512 10.0136 27.6291 9.9906C27.7373 9.9762 27.9276 10.1144 27.99 10.1431C28.1707 10.2251 28.2456 9.9669 28.3829 10.0939C28.5194 10.222 28.4318 10.5138 28.687 10.5418C28.612 10.2851 28.5458 10.018 28.4755 9.75807C28.9721 9.60411 29.482 9.52952 29.9805 9.36177C30.0414 9.34098 29.9358 9.22276 30.0004 9.19681C30.0423 9.18022 30.0837 9.16677 30.1246 9.15551C30.209 9.13237 30.3011 9.11594 30.3861 9.10194C30.3974 9.09849 30.4314 9.08956 30.4428 9.08678C30.5916 9.0707 30.7392 9.05503 30.8889 8.99607C31.1083 8.90962 31.3199 8.69953 31.5451 8.60325C31.7596 8.86936 32.0837 8.68049 32.3391 8.64395C32.4273 8.63143 32.4437 8.71334 32.5119 8.72384C32.7703 8.76084 32.593 8.52117 32.6454 8.46235C32.8684 8.20972 33.0518 8.81105 33.367 8.70573C33.3854 8.70026 33.4908 8.3187 33.5109 8.29002C33.6395 8.1067 33.5734 8.39328 33.6872 8.38323C33.8915 8.36458 34.0563 8.3937 34.2239 8.21893C34.2494 8.19141 34.2773 8.10569 34.3199 8.04852C34.3563 7.99953 34.4044 7.97304 34.4842 8.01802C34.507 8.03066 34.5516 8.13225 34.5655 8.13269C34.6205 8.13262 34.6553 8.11633 34.6751 8.09081L34.4104 8.34797C34.346 8.4213 34.2575 8.61219 34.2581 8.79398C34.2554 8.97473 34.2908 9.09247 34.3045 9.17495C34.3361 9.33704 34.3372 9.42182 34.3247 9.46612C34.3054 9.53101 34.226 9.4058 34.1707 9.29201C34.1373 9.22281 34.1141 9.15448 34.1075 9.12188C34.0614 8.8967 34.2432 9.11234 34.2551 9.09857C34.2712 9.08585 34.2841 9.0737 34.2943 9.0622C34.3133 9.04102 34.323 9.02184 34.3255 9.00418C34.3376 8.92887 34.2128 8.87962 34.118 8.80919C34.1969 8.64766 34.1786 8.54802 34.1302 8.53462C34.0926 8.52548 34.0314 8.57843 33.9875 8.71061C33.9846 8.7198 33.9917 8.72902 34.0037 8.73815C34.0383 8.7639 34.1038 8.78854 34.118 8.80919C34.042 8.86542 33.9683 8.89902 33.8979 8.90836C33.7282 8.94825 33.6019 8.82359 33.5768 8.54222C33.5602 8.36155 33.7372 8.28075 33.422 8.14482C33.2789 8.08231 33.2024 8.3045 33.0538 8.2791C32.7168 8.2221 32.503 7.81637 32.2242 7.66091C32.1222 7.60384 32.1435 7.77032 32.0718 7.73513C31.882 7.64223 31.7839 7.45865 31.586 7.3758C31.5679 7.36835 31.5311 7.50097 31.4768 7.46422C31.0656 7.18856 30.7662 6.87056 30.3515 6.57071C30.1503 6.42515 29.7518 6.22785 29.5519 6.0694C29.2061 5.79526 28.8665 5.33372 28.5303 5.16113C28.3117 5.04832 28.2853 5.18453 28.1508 5.19876C27.8917 5.22712 27.7607 4.78101 27.7449 4.71575C27.7445 4.71352 27.9361 4.80276 27.8781 4.6869C27.8974 4.53713 27.7472 4.71651 27.7449 4.71575C27.7352 4.6729 27.399 4.42315 27.316 4.40033C27.2709 4.38767 27.2286 4.50304 27.2064 4.49456C26.6797 4.29079 26.1947 4.03655 25.7369 3.72171C25.7294 3.7149 25.8061 3.60458 25.7877 3.58999C25.5328 3.38352 25.274 3.43337 24.9987 3.40354C24.7231 3.37405 24.5545 3.25928 24.5079 2.98778C24.3743 2.94896 24.2294 2.83855 24.1084 2.73567C24.056 2.69103 24.0103 2.64393 23.9732 2.60439C23.8503 2.47365 23.7419 2.69019 23.7283 2.68723C23.6348 2.66633 23.5558 2.6334 23.4836 2.59609C23.3837 2.53382 23.2962 2.4544 23.232 2.42802C23.2145 2.41975 23.1999 2.41449 23.2131 2.4064C23.2336 2.37942 23.249 2.45001 23.5097 2.20938C23.5734 2.13917 23.6618 2.00636 23.6881 1.8282C23.716 1.65137 23.6688 1.49054 23.6246 1.40321C23.532 1.23123 23.483 1.21993 23.4709 1.20307C23.6534 1.3252 23.8823 1.4629 24.0326 1.55072C24.2083 1.65291 24.2799 1.76513 24.453 1.8531C24.4764 1.86512 24.5111 1.7738 24.5196 1.7756C24.7606 1.81421 24.5397 1.93683 24.5507 1.99622C24.5904 2.21351 24.619 2.33313 24.8802 2.45506C24.9392 2.48213 25.3004 2.35341 25.4087 2.42476C25.5471 2.51662 25.4212 2.56148 25.5661 2.65881C25.5784 2.66752 25.6268 2.61168 25.7022 2.69033C25.9794 2.97961 26.2515 3.33968 26.4855 3.73382C26.5465 3.83624 26.605 3.94079 26.6609 4.0463C26.6975 4.11692 26.7549 3.97235 26.8098 4.0764C26.8938 4.23814 26.9693 4.41339 27.0301 4.59632C27.1217 4.87137 27.2041 5.18047 27.2486 5.45258C27.2656 5.55608 27.1682 5.51677 27.1515 5.54525C27.0525 5.72572 27.3082 5.83703 27.3219 5.86846C27.6355 6.56644 27.5998 7.1658 27.8943 7.87012C27.9099 7.90646 28.2274 8.16134 28.0673 8.34302C28.057 8.35559 27.8918 8.54134 28.0633 8.62483C28.0741 8.63003 28.1548 8.51883 28.1854 8.66843C28.2161 8.81969 28.3524 9.03541 28.2926 9.2652C28.274 9.33801 28.1099 9.54153 28.3275 9.69088C28.3416 9.70007 28.7978 9.89356 28.5693 10.0648C28.5316 10.0927 28.2522 10.1454 28.4564 10.336C28.4959 10.3724 28.535 10.2777 28.6058 10.3821C28.7144 10.5404 28.705 10.7885 28.8909 10.9701C28.9234 11.0016 29.1602 11.1111 29.0525 11.2746C29.0355 11.3004 28.9307 11.2873 28.9396 11.3569C28.9808 11.688 29.1418 12.0049 29.1706 12.3442C29.1808 12.4645 29.0084 12.4477 29.0013 12.578C28.9942 12.7081 29.0234 12.9596 29.1319 13.0646C29.2407 13.1694 29.4511 12.9656 29.5275 13.1455C29.862 13.9284 29.961 14.7569 30.2016 15.5577C30.2372 15.6751 30.2983 15.5476 30.3589 15.7209C30.5779 16.3556 31.061 17.3898 31.0723 17.9834C31.0763 18.4545 30.7393 17.9899 30.8016 18.3295C30.8362 18.5046 31.2199 18.5371 31.2452 18.5668C31.5004 18.87 31.4759 19.1643 31.6715 19.4227C31.7107 19.4725 31.8036 19.3536 31.835 19.3952C31.9483 19.5441 31.9836 19.7145 32.079 19.8216C32.1184 19.8637 32.1977 19.7906 32.2175 19.827C32.2655 19.9152 32.2767 19.9619 32.1452 19.9967C32.1366 20.0023 32.1051 20.1399 32.0563 20.1171C32.0064 20.0912 31.8225 20.0609 31.6498 20.1151C31.4856 20.1671 31.4407 20.2265 31.4091 20.181C31.3936 20.1502 31.1943 20.0044 31.3607 20.0659C31.3982 20.0733 31.6306 20.269 31.4779 20.0236C31.472 20.0142 31.4576 19.9875 31.442 19.9508C31.2742 20.2181 31.2658 20.2816 31.2297 20.2893C31.1991 20.3069 31.1761 20.2878 31.1604 20.2679C31.13 20.2178 31.1328 20.1509 31.2198 20.0927C31.2793 20.048 31.5241 19.9595 31.4837 19.8543C31.4773 19.8418 31.3445 19.8946 31.3299 19.8176C31.3292 19.8139 31.3285 19.8102 31.3278 19.8065C31.2802 19.5318 31.2796 19.2411 31.2207 18.9422C31.2044 18.8607 31.0732 18.9872 31.0537 18.8728C30.9995 18.5523 31.0039 18.1286 31.0214 17.8074C31.0277 17.6847 31.1487 17.7591 31.1604 17.7493C31.3506 17.5865 31.0713 17.532 31.0514 17.4868C30.9316 17.205 31.04 16.9751 30.9808 16.7075C30.9648 16.633 30.8401 16.699 30.8271 16.6851C30.6994 16.54 30.9432 16.633 30.9598 16.535C31.0073 16.2631 30.9659 15.9543 30.9214 15.6855C30.9047 15.5849 30.7666 15.7149 30.7533 15.6243C30.6721 15.0932 30.6253 14.5363 30.6466 14.0031C30.651 13.9036 30.7729 13.9511 30.7967 13.9276C30.9635 13.765 30.6886 13.5862 30.6591 13.5407C30.5245 13.3374 30.616 13.2438 30.5734 13.0537C30.3653 12.1313 30.2789 10.9692 30.1936 10.0826C30.0823 8.92686 30.0517 8.01966 29.8464 6.93149C29.8334 6.86238 29.6974 6.95727 29.6844 6.89803C29.5229 6.1307 29.451 5.36405 29.2707 4.59922C29.2562 4.53674 29.1345 4.65321 29.1067 4.55381C29.0487 4.35035 29.0082 4.08408 29.0134 3.86567C29.0157 3.75947 29.1589 3.87407 29.1587 3.76755C29.1585 3.51938 29.1197 3.25941 29.0504 3.01589C29.0208 2.91317 28.9111 3.09849 28.8835 2.96289C28.8286 2.69701 28.7722 2.43191 28.7191 2.16569C28.7022 2.07814 28.6805 1.98555 28.6819 1.98528C28.6842 1.98868 28.6869 1.99864 28.7186 2.06253C28.7742 2.12718 28.7309 2.23832 29.1935 2.5901C29.4356 2.77374 29.9627 2.87974 30.271 2.79075C30.6009 2.71064 30.7209 2.60023 30.8002 2.54233C30.9557 2.41024 30.9576 2.37379 30.972 2.34653C30.9786 2.27512 30.8462 2.38549 30.7419 2.45921C30.5169 2.62821 30.2533 2.82729 30.0184 3.02872C29.9677 3.07246 29.7873 3.02783 29.7147 3.12529C29.7078 3.13446 29.7018 3.14491 29.6971 3.15683C29.7372 3.19316 29.7921 3.22505 29.8388 3.25825C29.8001 3.31145 29.7637 3.36552 29.7301 3.4208C29.0417 4.55306 28.2881 5.63081 27.5792 6.756C27.5478 6.80564 27.6779 6.76443 27.6175 6.86039C27.268 7.41748 26.9503 7.97034 26.5332 8.50271C26.4916 8.55624 26.3862 8.44993 26.3027 8.6336C26.2864 8.66887 26.1582 8.92325 26.1434 9.00986C26.1422 9.02112 26.2276 9.00696 26.1805 9.09052C25.9094 9.57051 25.6096 10.0617 25.3246 10.5207C25.2798 10.5925 25.2615 10.4812 25.2283 10.534C24.9949 10.9081 24.8233 11.3742 24.6897 11.666C24.6185 11.8312 24.5159 11.7444 24.4086 11.8341C24.4037 11.8381 24.4024 11.8493 24.4007 11.8588C24.4006 11.8595 24.4005 11.8601 24.4004 11.8608C24.4013 11.8691 24.4051 11.8793 24.3943 11.8707C24.3807 11.8675 24.402 11.8478 24.2829 11.8152C24.0918 11.815 24.0952 11.9326 24.0906 11.9287C24.0905 11.9682 24.1134 11.9325 24.1322 11.9372C24.2153 11.9346 24.3017 11.9497 24.3868 11.9808C24.4729 12.007 24.5487 12.0809 24.6471 12.0383C24.6888 11.985 24.6696 11.8197 24.7024 11.8254C24.7024 11.8254 24.7025 11.8254 24.7025 11.8254C24.7121 11.8257 24.7262 11.8366 24.7469 11.8736C24.749 11.8819 24.7599 11.9125 24.7624 12.0086C24.7612 12.037 24.765 12.0625 24.7434 12.1455C24.7169 12.1907 24.754 12.2573 24.5277 12.4337C24.4017 12.5261 24.172 12.5278 24.0778 12.4842C23.9785 12.4471 23.9382 12.4102 23.9071 12.3855C23.7403 12.2206 23.7734 12.229 23.7402 12.196C23.736 12.1903 23.732 12.185 23.7283 12.1801C23.724 12.1744 23.7201 12.1693 23.7165 12.1649C23.6638 12.0925 23.6599 12.2721 23.5692 12.1031C23.4894 11.9334 23.5418 11.771 23.5294 11.6026C23.5221 11.4382 23.4306 11.4773 23.4945 11.2084ZM23.4432 2.04944C23.3409 1.91392 23.2794 2.28136 23.3967 2.22903C23.4026 2.22637 23.4481 2.05649 23.4432 2.04944ZM29.5911 9.87422C29.8519 10.0119 29.8995 9.6729 29.7082 9.5628C29.5174 9.45301 29.5108 9.83298 29.5911 9.87422ZM27.5795 10.6964C27.8639 10.7751 27.6874 10.1244 27.4814 10.3371C27.4692 10.3494 27.5631 10.6918 27.5795 10.6964ZM24.5031 11.2647C24.4982 11.2676 24.4549 11.3765 24.4564 11.3832C24.5052 11.4673 24.5927 11.2451 24.5031 11.2647ZM25.6018 11.5433C25.7027 11.6046 25.8767 11.4344 25.7507 11.3584C25.6491 11.2973 25.4759 11.4673 25.6018 11.5433ZM26.8505 7.81214C26.8457 7.81591 26.8639 7.90505 26.8947 7.89512C26.9936 7.86253 26.9327 7.74799 26.8505 7.81214ZM22.1601 12.7394C22.6767 12.5867 23.1654 13.0003 22.591 13.1329C22.4871 13.157 22.7497 12.8925 22.6058 12.8898C22.3429 12.8852 22.3006 13.2649 22.0016 13.1727C21.9474 13.1557 22.1303 12.747 22.1607 12.7384C22.1605 12.7387 22.1603 12.7391 22.1601 12.7394ZM23.4515 1.58323C23.4494 1.57659 23.3228 1.55601 23.3189 1.56192C23.2458 1.67149 23.4809 1.71202 23.4515 1.58323ZM27.9641 13.0947C27.9543 13.1047 28.0199 13.3955 28.0332 13.4018C28.2885 13.4931 28.1537 12.9069 27.9641 13.0947ZM31.1068 5.53241C31.3067 5.49142 31.4541 5.57428 31.4356 5.7913C31.3285 5.70293 31.2149 5.62035 31.1068 5.53241Z" fill="black"/>
<path d="M24.648 64.1678C24.4983 64.5228 24.3244 64.9438 24.1131 65.4107C24.0932 65.4534 24.0755 65.4917 24.0409 65.5582C23.9708 65.6863 23.9075 65.7954 23.8506 65.888C23.7612 66.0313 23.7589 65.9335 23.6773 66.059C23.5877 66.1868 23.565 66.2636 23.3699 66.4898C23.3356 66.5238 23.3477 66.5195 23.2506 66.5988C23.1894 66.6445 23.108 66.7035 22.957 66.7485C22.8125 66.7944 22.5571 66.8017 22.3471 66.6876C22.2437 66.6339 22.1606 66.5615 22.1019 66.4927C22.0444 66.4232 22.0361 66.4054 22.0117 66.365C21.9708 66.2935 21.9485 66.233 21.9331 66.182C21.9033 66.0799 21.8981 66.0115 21.8946 65.9527C21.8906 65.8201 21.8978 65.8004 21.9022 65.7531C21.9075 65.7102 21.9146 65.6687 21.9235 65.6265C21.9483 65.5145 22.0031 65.667 22.0284 65.5501C22.1586 65.0385 22.2448 64.6772 22.3889 64.2177C23.0839 62.0993 23.7982 60.0477 24.54 57.9355C24.7857 57.2386 25.1439 56.4134 25.3594 55.6832C25.3846 55.5973 25.2988 55.6239 25.2986 55.6059C25.2981 55.3236 25.4081 55.4556 25.4828 55.2981C25.7775 54.6769 26.0381 53.9492 26.2277 53.321C26.3089 53.0516 26.076 53.2692 26.2491 53.0261C26.261 53.0092 26.3116 53.104 26.3454 53.0331C26.4225 52.871 26.5175 52.5594 26.5688 52.4334C26.67 52.1856 26.6838 52.1444 26.7667 51.9143C26.8806 51.6003 27.0546 51.2345 27.1629 50.8826C27.186 50.8069 27.0725 50.8762 27.1019 50.7534C27.1324 50.6278 27.2449 50.3394 27.306 50.2305C27.3635 50.1312 27.4085 50.1997 27.4295 50.1862C27.6041 50.0805 27.5707 49.6657 27.5855 49.614C27.7089 49.18 27.8698 48.7666 28.069 48.3703C28.0998 48.3092 28.1547 48.2109 28.2947 48.136C28.4377 48.0564 28.6216 48.0809 28.6864 48.1085C28.848 48.1699 28.899 48.2513 28.9262 48.2798C28.9677 48.3317 28.9924 48.3757 29.0138 48.4157C29.0416 48.469 29.0746 48.5452 29.0902 48.5864C29.1319 48.6924 29.1625 48.7835 29.1977 48.8888C29.2587 49.0749 29.3207 49.2754 29.3831 49.4641C29.5207 49.8815 29.6694 50.3128 29.8038 50.7326C29.8638 50.9199 29.9239 51.1152 29.9748 51.2942C30.1713 51.9865 30.2913 52.5836 30.4886 53.2518C30.5094 53.3227 30.5889 53.2112 30.6148 53.2979C30.8889 54.2179 31.1335 55.1262 31.3117 56.062C31.3293 56.1556 31.2 56.0628 31.2116 56.158C31.2875 56.7416 31.3196 57.682 31.8518 57.9028C31.9378 58.2876 32.0444 58.7527 32.044 59.1197C32.0431 59.3543 31.8727 59.1701 31.992 59.4267C32.0188 59.4847 32.0983 59.3802 32.1311 59.4691C32.2703 59.8464 32.3469 60.2716 32.5001 60.6414C32.5313 60.7155 32.618 60.6713 32.6404 60.689C32.8238 60.8382 32.6814 61.2023 32.6823 61.274C32.6922 61.8122 32.8355 62.1746 32.9536 62.6505C32.981 62.7614 33.0752 62.5988 33.1063 62.7044C33.1163 62.739 33.1263 62.7738 33.1362 62.8086C33.2792 63.3571 33.4212 63.8878 33.3302 64.5972C33.2951 64.7805 33.2038 64.5963 33.18 64.6803C33.1337 64.8275 33.1208 64.9576 33.0465 65.1177C32.9816 65.2734 32.7732 65.4696 32.525 65.4909C32.414 65.5036 32.3088 65.4877 32.218 65.4526C32.121 65.4126 32.2092 65.3381 32.1951 65.3225C32.0373 65.0862 31.8179 65.2009 31.7647 65.174C31.6151 65.0917 31.5127 64.996 31.4286 64.898C31.2295 64.6593 31.1203 64.3932 30.856 64.1714C30.8122 64.1346 30.8222 64.3109 30.7039 64.2017C30.4424 63.9601 30.1856 63.7057 29.9332 63.4458C29.4242 62.9215 28.9411 62.3671 28.4981 61.8216C28.3946 61.6944 28.5376 61.7178 28.5381 61.703C28.5414 61.4675 28.3062 61.5455 28.2631 61.5132C27.9288 61.2556 27.787 60.8468 27.4002 60.8314C26.2708 59.5695 24.9689 58.5225 23.7748 57.3518C23.7187 57.2971 23.6633 57.2425 23.6087 57.1879C23.5926 57.1721 23.689 57.1122 23.6566 57.0812C23.2711 56.7128 23.2461 56.9021 22.8463 56.8577C22.7482 56.8482 22.6696 56.4915 22.6598 56.463C22.6266 56.3586 22.7922 56.2827 22.7757 56.2553C22.7494 56.2137 22.7187 56.1956 22.6845 56.1925C22.5343 56.1784 22.3218 56.4506 22.101 56.2989C22.0931 56.2924 22.1828 56.2374 22.1656 56.214C22.1122 56.141 22.0216 56.1257 21.9725 56.0527C21.8617 55.8864 21.9361 55.6303 21.6151 55.5988C21.5739 55.5955 21.4622 55.8746 21.2232 55.7074C21.1313 55.6411 20.6913 55.3805 20.5805 55.2959C20.4649 55.2068 20.5988 55.1735 20.592 55.1647C20.3176 54.8618 20.4769 54.8926 20.3935 54.6309C20.3089 54.3708 20.1443 54.7907 20.0519 54.7976C19.9635 54.8061 19.755 54.5798 19.7115 54.5176C19.6667 54.4541 19.7707 54.4378 19.7254 54.3919C19.4107 54.0855 19.4636 54.5113 19.3121 54.5172C18.9566 54.5359 18.8702 54.1338 18.6109 53.9929C18.5401 53.9549 18.5719 54.0498 18.504 54.0305C18.2414 53.9572 18.1132 53.7979 17.7877 53.7945C17.7306 53.7921 17.4356 53.9149 17.3223 53.7326C17.3055 53.706 17.3917 53.641 17.2802 53.5931C17.1215 53.5225 16.8092 53.4385 16.6194 53.4409C16.4826 53.4428 16.6178 53.6018 16.4526 53.5369C16.3803 53.509 16.5288 53.4435 16.3911 53.3982C16.2504 53.3497 15.88 53.3388 15.7397 53.3547C15.6023 53.3672 15.6864 53.4687 15.6758 53.4765C15.6503 53.4957 15.5971 53.5196 15.539 53.5443C15.5293 53.5486 15.5243 53.5527 15.5297 53.5543C15.5378 53.5529 15.5205 53.562 15.5648 53.5463C15.5862 53.5328 15.6378 53.5304 15.708 53.412C15.7411 53.3533 15.7521 53.2519 15.7265 53.1814C15.7075 53.1248 15.6836 53.0948 15.663 53.0711C15.5064 52.9426 15.5521 53.0018 15.5426 52.9859C15.543 52.9838 15.5483 52.9829 15.5555 52.9823C15.5823 52.9794 15.6075 52.9779 15.6148 52.9789C15.939 53.0109 16.2875 53.0383 16.6231 53.0731C17.4696 53.1566 18.2904 53.2617 19.1521 53.2355C19.2473 53.2326 19.1868 53.1129 19.2014 53.1112C19.5215 53.067 19.2614 53.378 19.4848 53.4889C19.4571 53.2465 19.592 53.2931 19.8173 53.2702C19.9272 53.259 19.8694 53.1636 19.8796 53.1541C20.0468 53.0128 20.1545 53.1995 20.1828 53.2382C20.287 53.3801 20.4079 53.2157 20.4804 53.3108C20.5522 53.4055 20.3825 53.5414 20.5986 53.5435C20.6607 53.4557 20.504 53.2224 20.6689 53.1867C21.2942 53.0502 22.459 53.237 22.9607 53.258C23.4597 53.2779 23.6226 53.2599 23.9147 53.2931C24.442 53.3532 24.2483 53.17 24.5761 53.0826C24.9029 52.9946 24.7456 53.453 24.793 53.5508C24.8398 53.6489 24.8901 53.5476 24.9481 53.6015C25.006 53.6554 24.8814 53.7226 25.0172 53.7427C25.1533 53.763 25.5218 53.5854 25.5693 53.481C25.6691 53.2604 25.501 53.0316 25.8585 53.1082C25.8791 53.1128 25.8136 53.2352 25.8924 53.2466C25.9893 53.2599 26.087 53.2711 26.1851 53.2808C26.6172 53.3236 27.0573 53.3339 27.4904 53.3654C27.5926 53.3728 27.6942 53.3814 27.795 53.3919C27.8812 53.401 27.8084 53.5396 27.8588 53.5464C28.3828 53.6173 28.19 53.3932 28.4657 53.1287C28.4133 53.4702 28.5788 53.6727 28.9751 53.6593C29.2126 53.6513 29.1667 53.5049 29.316 53.3946C29.3606 53.3614 29.5333 53.456 29.5608 53.3853C29.6521 53.1542 29.4826 52.9067 29.8944 52.9913C29.9125 52.9954 29.8609 53.1218 29.9229 53.1268C30.3244 53.1593 30.3617 52.9205 30.7925 52.8743C31.1301 52.8381 31.7389 52.9572 32.126 52.966C32.1332 53.3415 32.4933 53.2413 32.6324 52.9786C32.8839 52.9807 33.1542 52.958 33.3983 52.9874C33.4822 52.9974 33.4302 53.1067 33.441 53.118C33.6061 53.2967 33.71 53.0445 33.7638 53.0337C34.3508 52.9271 34.83 53.1117 35.3947 52.9355C35.4145 52.9292 35.4514 52.6727 35.5996 52.8632C35.6089 52.8763 35.421 52.9892 35.6853 53.0039C35.6946 53.0044 35.7041 53.0051 35.7139 53.0059C35.9924 53.0128 36.0718 53.3475 35.8256 53.478C35.6415 53.5593 35.3052 53.6605 35.0557 53.847C34.9949 53.8927 34.9381 53.9446 34.8899 54.0033C34.8258 54.0783 34.7647 54.3664 34.5227 54.333C34.4912 54.3275 34.4713 54.2523 34.4207 54.237C34.2571 54.1898 34.3531 54.4379 34.1186 54.3315C33.8893 54.2218 33.5645 54.2452 33.353 54.5839C33.3459 54.5944 33.3931 54.8136 33.2997 54.8773C33.1478 54.9806 32.9102 55.102 32.7564 55.2184C32.6821 55.2747 32.8064 55.3415 32.7949 55.3531C32.3425 55.7814 31.9243 55.9599 31.3708 56.3345C31.2706 56.4018 31.1041 56.7591 30.8357 56.7987C30.5391 56.8444 30.3446 56.1874 29.9771 56.6824C29.8249 56.8851 30.1077 57.6935 29.5095 57.6545C28.9367 58.2749 28.2106 58.6253 27.6843 59.3C27.6605 59.3302 27.7237 59.5779 27.656 59.6354C27.5549 59.7208 27.4306 59.6912 27.3566 59.7497C27.044 59.9931 26.842 60.3054 26.556 60.5567C26.4479 60.6522 26.4089 60.5378 26.2798 60.6523C26.1509 60.767 26.1679 60.9509 25.952 61.0626C25.7887 61.1467 25.4552 61.0584 25.2631 61.1988C25.4618 61.4132 25.3426 61.5216 25.1949 61.7781C25.1667 61.8275 25.2803 61.8579 25.2706 61.8849C25.2332 61.9966 25.1046 62.0063 25.0747 62.1177C25.0673 62.1447 25.1375 62.2157 25.1356 62.2417C25.1217 62.4649 24.767 62.5065 24.7054 62.5139C24.4707 62.542 24.5046 62.6942 24.3649 62.7552C24.2251 62.8165 24.3181 62.6135 24.1784 62.7081C23.8888 62.9041 23.5991 63.2367 23.3618 63.489C23.267 63.5907 23.4297 63.6109 23.4184 63.6276C23.3027 63.7885 23.1259 63.8952 23.0569 64.042C23.0415 64.0768 23.0322 64.1132 23.031 64.1523C23.0293 64.1911 23.0352 64.2327 23.0508 64.2778C22.4004 63.9835 22.9879 64.4529 22.6202 64.6722C22.5911 64.689 22.3301 64.5336 22.3703 64.4021C22.4102 64.2701 22.6041 64.1858 22.6576 64.0067C22.6636 63.9876 22.6498 63.9061 22.6348 63.8161C22.6252 63.7636 22.6148 63.7082 22.6069 63.6616C22.609 63.659 22.6155 63.6516 22.6177 63.6491C22.6101 63.5942 22.6053 63.5517 22.6077 63.5407C22.6687 63.2568 23.0537 63.5573 23.0822 63.5656C23.3962 63.6484 23.3465 63.2171 23.3816 63.1461C23.5403 62.8219 23.7913 62.6563 23.9376 62.3963C24.0339 62.2269 23.8176 61.9928 23.9286 61.8925C24.299 61.5588 24.7333 61.7504 24.7918 61.1501C24.805 61.0219 24.4899 60.8446 24.9377 60.7871C24.966 60.7833 25.3304 60.7758 25.3308 60.5561C25.3308 60.5285 25.26 60.4564 25.2725 60.4326C25.3572 60.2745 25.4951 60.2537 25.6033 60.0973C25.7116 59.9409 25.8343 59.7462 26.0135 59.6253C26.1212 59.5525 26.3694 59.578 26.4453 59.5702C26.6612 59.5502 26.651 59.2652 26.8379 59.3109C27.0258 59.3569 27.0369 59.6777 27.3135 59.5653C27.1449 59.3657 26.9817 59.1519 26.8171 58.9468C27.2836 58.5353 27.7961 58.1932 28.2578 57.7781C28.3151 57.7263 28.1636 57.6727 28.2231 57.6142C28.4743 57.3683 28.7709 57.246 29.0219 56.9832C29.2169 56.7785 29.3572 56.4706 29.5633 56.2538C29.8896 56.3681 30.1652 56.0143 30.4269 55.84C30.5203 55.7772 30.5637 55.8434 30.6416 55.8141C30.9334 55.7036 30.6622 55.5867 30.7005 55.5041C30.8678 55.1501 31.2551 55.5943 31.5711 55.3312C31.5882 55.3171 31.6083 54.9067 31.6254 54.8694C31.7355 54.6259 31.7224 54.9325 31.854 54.8617C32.0927 54.7343 32.2873 54.6817 32.4834 54.4235C32.5387 54.349 32.6076 54.0572 32.8373 54.0778C32.8675 54.0804 32.9176 54.1716 32.9361 54.1657C33.2781 54.0448 33.0883 53.7824 33.1919 53.5754C33.2915 53.3714 33.6718 53.3832 33.7588 53.4027C33.9852 53.4514 33.6968 53.5305 33.6978 53.55C33.7218 53.7697 33.8882 53.6151 34.034 53.5378C34.2325 53.7873 34.4175 53.6424 34.1909 53.4527C34.166 53.432 34.0713 53.5302 34.034 53.5378C33.9869 53.1941 34.1893 53.0125 34.5873 53.1074C34.5897 53.108 34.592 53.1086 34.5943 53.1093C34.7768 53.156 34.7548 53.3475 35.0715 53.0906C35.2225 52.9717 35.0421 52.823 35.166 52.6841C35.2148 52.6299 35.2705 52.5841 35.3301 52.5452L35.689 54.0618C35.3698 54.0849 35 53.9474 34.6936 53.9764C34.5595 53.9892 34.6906 54.1084 34.5995 54.1214C34.3569 54.1565 34.1416 54.07 33.8973 54.1222C33.8752 54.1271 33.932 54.2521 33.8558 54.2556C33.2808 54.2853 32.7739 54.2241 32.1661 54.2486C31.873 54.2605 31.35 54.3562 31.0443 54.357C30.5143 54.3592 29.8528 54.2031 29.4005 54.2682C29.1057 54.3102 29.175 54.4367 29.0516 54.5303C28.812 54.7119 28.3655 54.4217 28.3055 54.3759C28.3039 54.3745 28.5581 54.3347 28.4196 54.273C28.3357 54.1372 28.3084 54.3752 28.3055 54.3759C28.2657 54.3469 27.7536 54.3339 27.6526 54.3612C27.5977 54.3763 27.632 54.4984 27.6033 54.504C27.5758 54.5092 27.5483 54.5142 27.5209 54.5191C27.0841 54.597 26.6439 54.6377 26.2 54.6379C25.9786 54.638 25.758 54.6285 25.5351 54.6094C25.5229 54.6069 25.5403 54.4708 25.5116 54.4667C25.1106 54.4051 24.8541 54.5691 24.5243 54.662C24.1925 54.7548 23.9311 54.7157 23.7352 54.4844C23.4874 54.5085 23.1276 54.4007 22.9238 54.3363C22.7173 54.272 22.6875 54.5249 22.6693 54.5293C22.1032 54.6738 21.7779 54.5183 21.1919 54.4774C20.9175 54.4574 20.358 54.4725 20.0594 54.4865C19.8172 54.4979 19.6805 54.4363 19.4564 54.4626C19.4264 54.4661 19.4542 54.573 19.445 54.5767C19.196 54.6918 19.3207 54.4395 19.2712 54.3914C19.0956 54.2167 18.9792 54.1247 18.6652 54.1898C18.5891 54.205 18.3759 54.561 18.2371 54.5751C18.063 54.5935 18.1331 54.4667 17.9535 54.4894C17.9377 54.4912 17.9376 54.5714 17.8254 54.5622C17.4206 54.5295 16.987 54.476 16.5547 54.4416C16.4408 54.4324 16.3135 54.4237 16.2017 54.4178C16.1263 54.4134 16.2171 54.5445 16.1042 54.5397C15.9666 54.5338 15.8299 54.526 15.6702 54.5114C15.5998 54.5048 15.5159 54.4963 15.4149 54.4818C15.3569 54.4723 15.323 54.4712 15.1773 54.4359C15.1391 54.4184 15.1261 54.4489 14.8394 54.2974C14.7664 54.2524 14.6676 54.1919 14.54 54.0458C14.4772 53.9722 14.4075 53.8737 14.3505 53.7404C14.2878 53.6093 14.2268 53.3203 14.2699 53.0916C14.3598 52.5994 14.6361 52.3996 14.7606 52.3057C14.9007 52.2099 14.9824 52.1823 15.0456 52.158C15.2496 52.0919 15.2655 52.1028 15.3348 52.0904C15.6766 52.0522 15.9895 52.0721 16.2619 52.1176C16.4101 52.1435 16.3108 52.2221 16.3399 52.25C16.5123 52.4181 16.7949 52.2342 16.8393 52.2379C17.8769 52.3126 18.5164 52.7616 19.43 53.0556C19.4775 53.0691 19.9488 53.0282 20.0184 53.2886C20.0232 53.3058 20.0943 53.5702 20.2908 53.5137C20.3036 53.5105 20.254 53.3655 20.419 53.4633C20.5884 53.5635 20.8895 53.6468 21.0586 53.8769C21.1101 53.9483 21.1837 54.2254 21.4692 54.2073C21.4864 54.2035 22.0063 54.0908 21.9839 54.3767C21.9807 54.4243 21.8172 54.6362 22.1387 54.6792C22.1986 54.6862 22.1479 54.5822 22.2886 54.6289C22.5056 54.7012 22.7154 54.9269 23.0076 54.9834C23.059 54.9931 23.334 54.9627 23.386 55.1681C23.3921 55.1915 23.3459 55.2216 23.3446 55.2584C23.3441 55.2723 23.3501 55.2872 23.3678 55.3031C23.6789 55.5822 24.0589 55.788 24.3459 56.084C24.4495 56.1903 24.3018 56.2591 24.4 56.3834C24.4183 56.4066 24.4411 56.4332 24.467 56.4614C24.579 56.5836 24.7475 56.7355 24.8829 56.7753C25.0491 56.8242 25.0579 56.5348 25.2571 56.6722C26.1247 57.2734 26.8066 58.066 27.5401 58.7899C27.649 58.8977 27.6154 58.7498 27.7796 58.9043C28.3877 59.4733 29.4498 60.4277 29.8141 61.0575C30.1062 61.5618 29.5283 61.1319 29.7886 61.4815C29.9145 61.6504 30.2719 61.6167 30.3134 61.6459C30.6388 61.8744 30.7996 62.1272 31.0223 62.3625C31.0789 62.4222 31.1402 62.481 31.2085 62.5365C31.2782 62.593 31.2956 62.4513 31.3542 62.5001C31.5565 62.6668 31.719 62.8865 31.9086 63.0441C31.9929 63.1136 32.0396 63.0364 32.1103 63.1078C32.2789 63.2767 32.4145 63.4424 32.5332 63.6534C32.5332 63.6535 32.5333 63.6537 32.5334 63.6539C32.5348 63.6567 32.5315 63.6592 32.5255 63.662C32.4983 63.6724 32.4167 63.6815 32.4551 63.7413C32.4611 63.7516 32.471 63.7633 32.4858 63.7763C32.5543 63.8361 32.6208 63.9041 32.6644 63.9442C32.687 63.9934 32.7934 63.9589 32.4352 63.9321C32.2207 63.9122 31.8608 64.1501 31.7913 64.278C31.7272 64.3622 31.6699 64.3641 31.6215 64.3911C31.5761 64.4102 31.5558 64.4508 31.6304 64.4312C31.6601 64.4162 31.9148 64.4669 31.6944 64.3163C31.6611 64.2958 31.3401 64.0214 31.4878 63.8043C31.5287 63.7513 31.7037 63.5818 31.6484 63.4781C31.6401 63.4639 31.5447 63.5495 31.514 63.4586C31.489 63.3844 31.4662 63.3107 31.4424 63.2292C31.3637 62.9587 31.2989 62.6811 31.2093 62.4131C31.1776 62.3188 31.1008 62.4902 31.0573 62.3488C30.938 61.9613 30.8528 61.4606 30.7986 61.0685C30.7788 60.9237 30.8906 60.9991 30.898 60.9864C31.017 60.779 30.7812 60.7343 30.7563 60.6821C30.604 60.3586 30.6427 60.07 30.5442 59.761C30.5174 59.6757 30.4323 59.7626 30.4195 59.7476C30.2927 59.5902 30.5008 59.6785 30.4944 59.5602C30.4754 59.2219 30.3866 58.8741 30.2987 58.55C30.2667 58.4324 30.1855 58.5946 30.1583 58.4888C29.9955 57.8633 29.8572 57.2043 29.7722 56.5735C29.7564 56.4547 29.8553 56.5062 29.8683 56.4771C29.9596 56.2774 29.724 56.0816 29.6939 56.0286C29.5564 55.7913 29.6062 55.6808 29.538 55.4551C29.2107 54.3715 28.9247 53.0133 28.6725 51.9779C28.6001 51.6791 28.5319 51.3957 28.4656 51.1252C28.3633 50.71 28.2662 50.3198 28.1597 49.9375C28.1083 49.7525 28.0515 49.5594 27.9919 49.3794C27.9614 49.2879 27.9332 49.2068 27.9015 49.1276C27.8892 49.0961 27.8715 49.0569 27.8695 49.0525C27.8687 49.049 27.8695 49.0563 27.9059 49.1037C27.9194 49.1105 27.9513 49.201 28.1828 49.3188C28.2428 49.3465 28.3202 49.3735 28.4149 49.3862C28.5174 49.4029 28.6936 49.3913 28.8252 49.3354C29.1059 49.2183 29.2082 49.0279 29.2539 48.9372C29.2211 49.0022 29.1553 49.1566 29.1095 49.2713C29.0783 49.3487 29.2021 49.3072 29.1759 49.376C28.8529 50.2231 28.4892 51.0838 28.1866 51.9691C28.1612 52.043 28.286 51.9682 28.2478 52.0883C28.1686 52.3391 28.0579 52.6214 27.9386 52.8613C27.8812 52.9768 27.8683 52.7894 27.8119 52.9064C27.6856 53.1653 27.5705 53.4613 27.4798 53.7517C27.4423 53.8724 27.5935 53.7238 27.538 53.8784C27.157 54.9479 26.7926 56.003 26.3034 57.0471C26.2697 57.1189 26.0779 57.1257 26.055 57.2948C26.0977 57.3228 26.153 57.3411 26.2012 57.3634C25.6806 58.9311 25.0889 60.4663 24.5692 62.029C24.5477 62.0938 24.6712 62.0093 24.6298 62.1353C24.385 62.8836 24.1788 63.6122 23.8686 64.3451C23.8382 64.4178 23.6956 64.3389 23.6567 64.56C23.6534 64.5855 23.5716 64.9547 23.5861 65.0357C23.5883 65.0478 23.6747 65.0107 23.6501 65.1108C23.6097 65.2731 23.5724 65.4237 23.5379 65.5724C23.5188 65.6549 23.5034 65.7258 23.4922 65.7812C23.477 65.8485 23.4715 65.9346 23.4703 65.8732C23.4647 65.842 23.4767 65.7835 23.3972 65.6137C23.3696 65.5646 23.3655 65.5444 23.2824 65.4485C23.1998 65.3554 23.0539 65.2582 22.8968 65.2242C22.5657 65.1583 22.3882 65.2873 22.3171 65.3312C22.1625 65.4554 22.2213 65.4255 22.215 65.4263C22.2447 65.3895 22.2691 65.3563 22.3119 65.2902C22.4062 65.1396 22.4602 65.0547 22.5551 64.8918C22.6105 64.7964 22.6265 64.9219 22.6642 64.875C22.6651 64.8749 22.666 64.8744 22.6669 64.8733C22.6746 64.8631 22.6871 64.8402 22.6997 64.8148C22.9043 64.3841 23.0732 63.813 23.3609 63.3841C23.5693 63.0767 23.6294 63.2604 23.8376 63.1566C23.8661 63.142 23.9823 62.9509 24.0553 62.9828C24.2355 63.0627 24.3653 63.2599 24.5642 63.3339C24.5968 63.3457 24.662 63.2048 24.6943 63.2273C24.6944 63.2273 24.6944 63.2273 24.6944 63.2273C24.7038 63.2336 24.7103 63.2535 24.7127 63.295C24.7124 63.307 24.647 63.4815 24.657 63.5399C24.6634 63.5799 24.7598 63.5703 24.7567 63.6415C24.7542 63.7122 24.6619 63.7424 24.646 63.8566C24.6314 63.9713 24.7323 63.9671 24.648 64.1678ZM22.0004 54.0501C21.8117 53.9265 21.7783 54.3638 21.9859 54.2643C21.9958 54.259 22.0101 54.0562 22.0004 54.0501ZM28.0255 58.4595C28.3481 58.4471 28.2791 58.1095 28.0422 58.1073C27.8045 58.1061 27.9275 58.4635 28.0255 58.4595ZM26.2176 60.3138C26.5399 60.232 26.1213 59.7194 25.9846 60.0316C25.9766 60.0496 26.1988 60.3187 26.2176 60.3138ZM23.4865 63.9568C23.4908 63.9557 23.558 63.8145 23.5564 63.8097C23.5109 63.6968 23.3754 63.9812 23.4865 63.9568ZM24.5068 62.2278C24.6344 62.2255 24.7434 61.9667 24.5848 61.9688C24.4567 61.9706 24.3476 62.231 24.5068 62.2278ZM18.6739 53.8155C18.6746 53.8218 18.7768 53.8693 18.786 53.8381C18.8215 53.7395 18.6621 53.7064 18.6739 53.8155ZM21.8846 65.7043C21.9213 65.3593 22.1574 65.1627 22.2934 65.1519C22.4362 65.1394 22.4597 65.2439 22.2713 65.4867C22.2072 65.585 22.2879 65.2237 22.1813 65.3361C22.0096 65.5797 22.1194 65.7865 21.9941 66.0658C21.9884 66.122 21.8853 65.7512 21.8844 65.703C21.8844 65.7034 21.8845 65.7039 21.8846 65.7043ZM21.8965 53.5208C21.8926 53.5149 21.7396 53.5078 21.736 53.5135C21.6516 53.6512 21.9598 53.6666 21.8965 53.5208ZM23.9944 57.3564C23.9947 57.3696 24.2625 57.5963 24.2773 57.5963C24.5455 57.5579 24.0001 57.0957 23.9944 57.3564ZM32.1325 52.9758C32.2936 52.8218 32.4924 52.7979 32.6316 52.9785C32.4658 52.9742 32.2997 52.9787 32.1325 52.9758Z" fill="black"/>
<path d="M8.47448 15.7392C8.40278 15.5738 8.39552 15.3472 8.41406 15.1707C8.41964 15.1151 8.49479 15.128 8.50188 15.0892C8.51614 15.0157 8.46902 14.9542 8.48904 14.8803C8.49594 14.8553 8.61238 14.8634 8.61708 14.8377C8.64205 14.6968 8.59187 14.5788 8.59253 14.4406C8.59774 13.7644 8.54498 13.1142 8.53427 12.425C8.53078 12.1969 8.61458 11.9151 8.56393 11.676C8.55788 11.6475 8.4591 11.6669 8.45079 11.6616C8.3238 11.5773 8.52471 11.6023 8.55064 11.5469C8.55236 11.5432 8.55406 11.5396 8.55573 11.5359C8.60202 11.4321 8.62992 11.3233 8.64564 11.2152C8.66631 11.0633 8.66716 10.9338 8.70058 10.7431C8.74574 10.5658 8.48269 10.6846 8.6847 10.5066C8.69911 10.4954 8.76485 10.5974 8.80492 10.5461C8.84516 10.5006 8.92493 10.3648 9.0896 10.2638C9.25112 10.1582 9.47258 10.147 9.55984 10.1675C9.8394 10.2421 9.84241 10.2805 9.96297 10.3561C10.1143 10.4721 10.1681 10.6152 10.2713 10.6978C10.294 10.7163 10.3538 10.6167 10.3986 10.6412C10.4431 10.6651 10.5028 10.7556 10.5055 10.8027C10.5078 10.8488 10.4279 10.8868 10.416 10.9039C10.3136 11.0468 10.5684 11.0036 10.5841 11.016C10.8296 11.1945 10.8423 11.4654 10.9729 11.6795C11.074 11.8447 11.2152 11.9957 11.3006 12.1561C11.4008 12.3452 11.4334 12.5322 11.5439 12.7098C11.5555 12.7287 11.6654 12.6419 11.6798 12.6645C11.8314 12.9032 11.9549 13.1585 12.0012 13.4488C12.0057 13.478 11.877 13.5025 11.8747 13.535C11.8643 13.7333 11.7606 14.0865 12.3053 13.9293C12.3402 14.0421 12.3858 14.1771 12.3315 14.319C12.2967 14.4107 12.1407 14.4152 12.232 14.462C12.2525 14.4726 12.3523 14.3965 12.3747 14.4165C12.4694 14.5012 12.4904 14.6304 12.6018 14.7063C12.6247 14.7214 12.7224 14.6663 12.7436 14.6633C12.9166 14.6412 12.7162 14.8427 12.7074 14.8693C12.6453 15.0712 12.749 15.148 12.8101 15.2758C12.8246 15.3064 12.9439 15.2034 12.9629 15.2303C13.0594 15.3705 13.1253 15.5274 13.1376 15.7027C13.1398 15.7414 13.0066 15.7705 13.0015 15.792C12.9802 15.8857 13.212 15.7905 13.1973 15.8803C13.1944 15.899 13.0888 15.9416 13.0789 15.9496C12.9238 16.0761 13.1892 15.9866 13.1998 15.9937C13.3369 16.0775 13.123 16.2975 13.2196 16.3957C13.2316 16.4077 13.3436 16.3093 13.3702 16.3482C13.4963 16.5302 13.5892 16.7328 13.6455 16.9375C13.6755 17.0162 13.6876 17.0567 13.716 17.1865C13.7236 17.2426 13.7427 17.3105 13.7243 17.4573C13.7139 17.5203 13.6909 17.6225 13.6112 17.7275C13.5338 17.8306 13.422 17.8904 13.3489 17.9115C13.0499 17.9618 13.2494 17.8059 13.2196 17.8003C13.1658 17.765 13.1476 17.741 13.1287 17.7322C13.0634 17.6961 12.9892 17.861 12.9659 17.8646C12.7346 17.878 12.7412 17.6073 12.5007 17.8641C12.0399 17.4892 11.5217 17.355 11.2476 16.8143C11.2439 16.8076 11.3298 16.7008 11.3222 16.6882C11.2352 16.5371 11.1418 16.73 10.9098 16.8842C10.8509 16.9222 10.9606 16.6192 10.9673 16.5962C10.9932 16.512 11.1285 16.3599 11.1305 16.3416C11.1432 16.1958 10.7785 16.7546 10.698 16.6986C10.6961 16.696 10.7756 16.602 10.7757 16.5872C10.7762 16.5411 10.7288 16.5674 10.7323 16.5186C10.7409 16.4059 10.9063 16.1284 10.7292 16.2343C10.7066 16.2482 10.5075 16.5678 10.4472 16.5039C10.4235 16.4783 10.2951 16.3961 10.2735 16.3513C10.2523 16.3069 10.3444 16.2245 10.3448 16.2184C10.3413 16.022 10.414 15.9924 10.5 15.7661C10.5852 15.5408 10.2822 16.0099 10.2277 16.0478C10.1733 16.0855 10.1782 15.9296 10.1871 15.8806C10.1959 15.8315 10.26 15.7835 10.2595 15.7519C10.2545 15.545 10.0593 15.9489 9.97656 15.9987C9.78104 16.1161 9.95374 15.7352 9.9053 15.6532C9.89222 15.6309 9.85506 15.7187 9.83302 15.714C9.74652 15.6943 9.77785 15.561 9.63471 15.6038C9.61126 15.6108 9.41078 15.7692 9.47212 15.5932C9.48104 15.5679 9.55453 15.4956 9.53851 15.4569C9.51467 15.399 9.44894 15.327 9.38358 15.323C9.33529 15.32 9.28074 15.4843 9.2669 15.4119C9.26079 15.3797 9.35099 15.3239 9.33489 15.2701C9.31911 15.2166 9.2242 15.1568 9.18756 15.1359C9.15082 15.1149 9.0994 15.2317 9.09183 15.2367C9.04753 15.2651 8.94763 15.2697 8.94148 15.2652C8.63666 15.0738 8.47753 14.7142 8.14597 14.5808C8.11972 14.57 8.06461 14.6894 8.05988 14.6889C7.95093 14.6831 8.20119 14.433 8.20801 14.2996C8.07332 14.5269 8.06622 14.4654 7.99574 14.4546C7.96173 14.4496 7.92126 14.545 7.91322 14.5522C7.89372 14.5691 7.87941 14.5786 7.86919 14.5825C7.7748 14.577 7.82204 14.4177 7.84002 14.3863C7.90943 14.2464 7.72205 14.2699 7.79873 14.1777C7.88729 14.1199 8.03997 14.1299 8.03048 14.083C7.9354 14.0525 7.69157 14.1831 7.65035 14.0493C7.601 13.7379 7.80642 13.5742 7.94537 13.4943C8.08063 13.4185 8.20859 13.3847 8.27733 13.3478C8.41476 13.2753 8.45369 13.2329 8.54246 13.216C8.54647 13.2153 8.55059 13.2147 8.55483 13.2142C8.72529 13.1965 8.58324 13.0394 8.63002 12.8968C8.67855 12.7529 8.8557 13.2657 8.91595 13.3632C8.97566 13.4626 8.94041 13.3486 8.98186 13.3999C9.02312 13.4519 9.02215 13.5371 9.06771 13.5449C9.11266 13.5541 9.1281 13.3219 9.09397 13.2009C9.02527 12.9629 8.88664 12.7417 8.98319 12.7517C8.98987 12.7525 8.99766 12.7543 9.00666 12.7574C9.01467 12.7603 9.05068 12.903 9.07843 12.9074C9.29589 12.9392 9.48071 12.8779 9.68891 12.9124C9.71747 12.9174 9.74836 13.0794 9.76541 13.0842C9.9423 13.1356 9.80341 12.8915 9.79214 12.5726C9.89805 12.9673 10.018 13.1905 10.1262 13.1606C10.1918 13.1427 10.1294 12.9749 10.1373 12.8412C10.1398 12.8009 10.2213 12.9052 10.2067 12.8218C10.1602 12.5491 10.0299 12.2656 10.1838 12.3495C10.1906 12.3536 10.2139 12.5037 10.2343 12.5074C10.3662 12.5333 10.3064 12.2506 10.4287 12.183C10.525 12.1298 10.7466 12.2593 10.8674 12.2641C10.9588 12.7192 11.0399 12.5948 11.0266 12.2712C11.1042 12.2698 11.1836 12.2375 11.2638 12.2697C11.2915 12.2807 11.2955 12.4166 11.3009 12.4305C11.3479 12.5546 11.3625 12.5073 11.3701 12.4403C11.4572 12.4264 11.5378 12.4846 11.5577 12.5705C11.6095 12.5753 11.6725 12.5784 11.6793 12.5873C11.7944 12.7607 11.6748 12.8968 11.6862 13.0272C11.6899 13.075 11.709 13.1285 11.7589 13.1901C11.7659 13.1972 12.0803 13.2823 11.8372 13.2794C11.8207 13.278 11.6907 13.1863 11.6597 13.266C11.6275 13.3508 11.4181 13.4428 11.5238 13.5971C11.5496 13.6339 11.774 13.7927 11.5604 13.7734C11.5315 13.7704 11.4469 13.7297 11.3945 13.7212C11.2276 13.6937 11.5283 13.8299 11.2533 13.7639C10.978 13.6983 10.7571 13.6845 10.8929 13.8572C10.8968 13.8623 11.1267 13.9899 11.1088 14.02C11.0798 14.0687 10.9992 14.1139 10.9762 14.1669C10.9657 14.1914 11.1202 14.2452 11.1209 14.2507C11.1238 14.4585 10.9348 14.5123 10.7884 14.6561C10.7614 14.6821 10.9094 14.8787 10.7209 14.8567C10.5145 14.8321 9.848 14.3793 9.93399 14.6176C9.96891 14.7113 10.8113 15.2939 10.2899 15.1402C10.2804 15.4183 9.9319 15.4715 9.96242 15.7773C9.96371 15.791 10.1875 15.9719 10.1701 15.9924C10.1439 16.0223 10.0198 15.9689 9.99765 15.9875C9.90178 16.0641 9.94124 16.2145 9.86515 16.2993C9.83671 16.3312 9.7289 16.2435 9.69495 16.2815C9.66118 16.3193 9.79454 16.4479 9.68366 16.4564C9.61277 16.4617 9.36252 16.3478 9.2407 16.3302L9.25012 16.3166C9.22711 16.3123 9.20866 16.3116 9.1968 16.3161C9.41894 16.4804 9.45528 16.5393 9.47119 16.6122C9.47644 16.6361 9.47968 16.6612 9.48662 16.692C9.49193 16.7163 9.60473 16.7786 9.61247 16.7941C9.6459 16.8591 9.54436 16.818 9.58281 16.8853C9.59199 16.9015 9.69118 16.9775 9.70417 16.9951C9.81818 17.1476 9.54162 17.0427 9.49514 17.0235C9.31654 16.9514 9.42537 17.072 9.34242 17.0586C9.26014 17.0452 9.23053 16.9402 9.16666 16.9497C9.03604 16.9686 8.97338 17.0758 8.90405 17.1435C8.87741 17.1706 9.00488 17.2598 9.00366 17.2662C8.96913 17.3544 8.8075 17.292 8.95945 17.5449C8.43315 17.0044 8.96844 17.6355 8.76381 17.5911C8.74714 17.5872 8.55521 17.3124 8.54716 17.2523C8.53698 17.193 8.63575 17.2483 8.61362 17.1553C8.61125 17.1332 8.41979 16.8387 8.40635 16.8184C8.31924 16.6569 8.70999 17.0472 8.73453 17.0664C8.99427 17.272 8.7771 16.9464 8.76524 16.9137C8.72838 16.7606 8.83402 16.753 8.80957 16.6332C8.79364 16.5554 8.49101 16.3048 8.51998 16.2817C8.6162 16.2052 9.0904 16.4998 8.77741 16.1106C8.76819 16.0992 8.75328 16.0849 8.73529 16.0689C8.62292 15.9691 8.38905 15.8092 8.67584 15.9176C8.68081 15.9194 8.70117 15.9279 8.7276 15.9378L8.70359 15.9723C8.79049 15.9999 8.94153 16.038 8.83337 15.9271C8.81549 15.9088 8.7094 15.839 8.70439 15.8272C8.67287 15.7497 8.7748 15.779 8.76275 15.709C8.75069 15.639 8.72334 15.5487 8.79175 15.5224C8.83265 15.5066 9.05642 15.5961 9.11447 15.6128C9.281 15.6622 9.07854 15.4711 9.26512 15.554C9.45305 15.6366 9.68146 15.8521 9.83567 15.8535C9.55824 15.6754 9.27541 15.4895 8.99717 15.3092C9.09888 15.1703 9.27796 15.0835 9.35447 14.9285C9.36354 14.9093 9.20051 14.8371 9.20621 14.8144C9.23139 14.7182 9.38213 14.7113 9.38864 14.6007C9.39242 14.5159 9.27171 14.3511 9.26844 14.2616C9.62034 14.4025 9.56602 14.2384 9.63614 14.1812C9.66059 14.161 9.74785 14.2101 9.78685 14.2067C9.93171 14.1922 9.62078 14.0711 9.58484 14.0279C9.42985 13.846 10.0999 14.1817 10.1341 14.0739C10.1365 14.0677 9.81152 13.8264 9.79306 13.8078C9.6744 13.6832 9.92216 13.86 9.96543 13.8391C10.0451 13.7995 10.152 13.7968 10.0809 13.6736C10.0598 13.6373 9.85635 13.4867 10.0498 13.524C10.0752 13.5287 10.1943 13.5846 10.2033 13.5833C10.3558 13.5557 9.97758 13.3893 9.86597 13.2952C9.75426 13.2015 10.044 13.2447 10.126 13.2601C10.3381 13.3005 10.1999 13.3199 10.2185 13.3291C10.44 13.4427 10.4203 13.3775 10.4549 13.3454C10.8354 13.4822 10.8343 13.4152 10.4888 13.3126C10.4512 13.3012 10.4753 13.344 10.4549 13.3454C10.0971 13.1709 10.067 13.1087 10.4386 13.165C10.613 13.1898 10.7973 13.2795 10.756 13.163C10.7368 13.1107 10.4653 13.0496 10.4014 12.998C10.2883 12.9076 10.4227 12.8813 10.4745 12.8401C10.4895 12.829 10.4973 12.817 10.4893 12.8065C10.4763 12.7907 10.3239 12.7889 10.3095 12.7802C10.2706 12.7652 10.382 12.7612 10.3279 12.7957C10.323 12.8004 10.1641 12.8079 10.1645 12.8252C10.1647 12.8384 10.1668 12.8537 10.1709 12.8707L11.5746 13.8445C11.4511 13.8586 11.3209 13.7958 11.1816 13.8198C11.1071 13.8326 10.9939 13.9449 10.9136 13.9454C10.7754 13.9461 10.5489 13.7686 10.4475 13.8544C10.382 13.9093 10.4433 14.0546 10.4426 14.1654C10.4432 14.3791 10.2272 14.0582 10.1936 14.0091C10.1925 14.0075 10.2454 13.9529 10.1867 13.8872C10.1154 13.7347 10.194 14.0083 10.1936 14.0091C10.1727 13.9767 10.0335 13.9837 10.018 14.0203C10.0096 14.0402 10.0654 14.1768 10.0602 14.1844C9.95294 14.3396 9.82943 14.4281 9.67779 14.4481C9.65462 14.4512 9.63072 14.4515 9.60533 14.4496C9.60126 14.4477 9.54258 14.2963 9.53372 14.2939C9.40756 14.2567 9.42106 14.4493 9.3857 14.5577C9.35791 14.6424 9.30181 14.6366 9.20162 14.5277C9.17658 14.4952 9.14713 14.4549 9.11291 14.4062C9.0788 14.4345 8.95319 14.35 8.87932 14.3105C8.8048 14.271 8.94873 14.4926 8.94879 14.4972C8.95046 14.5809 8.92803 14.5904 8.903 14.5834C8.88215 14.5728 8.84798 14.5594 8.88105 14.4955C8.89031 14.4568 8.9781 14.4077 9.0137 14.1014C9.02765 13.9523 8.98263 13.7533 8.9124 13.6258C8.84187 13.4934 8.777 13.4278 8.73481 13.3829C8.70865 13.3557 8.68727 13.3395 8.66721 13.3273C8.70799 13.3557 8.72256 13.4037 8.78458 13.4061C8.79501 13.4065 8.84969 13.3046 8.85442 13.3023C8.99259 13.2262 8.8093 13.4442 8.79501 13.4947C8.74358 13.6791 8.71707 13.7781 8.84308 13.7564C8.87185 13.7514 9.14849 13.4451 9.19587 13.447C9.2558 13.4493 9.15892 13.5608 9.22349 13.5601C9.22894 13.5602 9.27782 13.4844 9.3036 13.5056C9.42529 13.6039 9.53549 13.7376 9.67441 13.8167C9.69304 13.8276 9.75028 13.6931 9.77862 13.707C9.91209 13.7726 10.0443 13.8641 10.1261 13.998C10.146 14.0314 10.0702 14.1034 10.0596 14.1325C9.9956 14.309 10.2005 14.1255 10.2127 14.1272C10.504 14.1633 10.533 14.4713 10.8191 14.5195C10.8348 14.5218 11.092 14.3429 10.9921 14.5745C10.9856 14.59 10.8818 14.8266 11.0164 14.7063C11.0248 14.6987 11.074 14.5741 11.1105 14.6137C11.1474 14.6536 11.2688 14.6271 11.2472 14.7858C11.2405 14.8358 11.1405 15.0765 11.3137 14.9455C11.3255 14.9365 11.6757 14.6113 11.5263 14.8952C11.5017 14.942 11.3047 15.2178 11.4711 15.119C11.5032 15.0996 11.5221 15.0218 11.5833 15.0051C11.6773 14.979 11.6952 15.099 11.8445 15.0145C11.8709 14.9997 12.0493 14.8388 11.9887 15.0087C11.9793 15.0353 11.9039 15.1224 11.9169 15.1459C11.9772 15.2573 12.1228 15.2597 12.1737 15.386C12.192 15.4307 12.0718 15.5741 12.0803 15.6387C12.0891 15.7034 12.1346 15.7897 12.2182 15.7421C12.3019 15.6944 12.4249 15.421 12.4944 15.4366C12.7912 15.5003 12.9329 15.7933 13.1436 15.9449C13.1743 15.967 13.2026 15.8595 13.2498 15.8839C13.3181 15.9189 13.4158 15.952 13.4788 15.9757C13.5119 15.9886 13.5353 15.9979 13.526 16.0004C13.5 16.006 13.5275 15.9865 13.1876 15.9799C13.0737 15.9932 12.4314 15.9665 11.9803 16.6834C11.7941 17.0264 11.8084 17.2084 11.8068 17.3561C11.8119 17.496 11.8453 17.6122 11.8638 17.6421C11.9487 17.8034 11.9989 17.7797 12.0389 17.7787C12.0781 17.7684 12.1101 17.7496 12.1369 17.726C12.1882 17.671 12.2396 17.659 12.2912 17.6855C12.3108 17.6895 12.2538 17.7157 12.1866 17.7487C12.0929 17.7654 11.9866 17.7943 11.9771 17.7894C11.8003 17.6965 11.892 17.5353 11.785 17.4283C11.7642 17.4086 11.6505 17.4973 11.6342 17.4796C11.5771 17.4198 11.5949 17.3128 11.5498 17.2461C11.5304 17.2184 11.4371 17.2725 11.431 17.2406C11.4154 17.1648 11.4268 17.0832 11.4842 16.9697C11.4896 16.9596 11.6283 16.941 11.6089 16.8885C11.5786 16.8064 11.6191 16.6609 11.4839 16.6117C11.4438 16.5982 11.2253 16.7049 11.3488 16.5717C11.3746 16.5437 11.6436 16.4309 11.3856 16.4731C11.3428 16.4807 10.9843 16.5103 11.1556 16.3593C11.2005 16.3191 11.3961 16.1767 11.3475 16.1601C11.3401 16.1582 11.232 16.2332 11.2082 16.2113C11.1261 16.1321 11.0933 16.0254 11.013 15.944C10.9913 15.9223 10.8896 16.0203 10.8612 15.986C10.7824 15.8903 10.7545 15.7419 10.7445 15.617C10.7411 15.5709 10.8506 15.5502 10.8599 15.5421C11.0121 15.4116 10.767 15.4984 10.7471 15.4902C10.625 15.4363 10.7024 15.3111 10.6354 15.2382C10.6172 15.2179 10.515 15.2891 10.5031 15.2891C10.386 15.2865 10.599 15.2264 10.6069 15.1843C10.6301 15.0669 10.578 14.9739 10.5252 14.8924C10.5056 14.8626 10.3961 14.9614 10.3801 14.9338C10.2834 14.7723 10.2182 14.588 10.2117 14.3871C10.2107 14.3492 10.3138 14.3213 10.3324 14.3038C10.4625 14.1827 10.2276 14.2209 10.2016 14.2157C10.0818 14.1917 10.1525 14.1227 10.1096 14.0699C9.90003 13.8127 9.78862 13.4244 9.68779 13.1366C9.55778 12.764 9.49916 12.449 9.30264 12.1609C9.29021 12.1426 9.19254 12.2311 9.18064 12.2165C9.04257 12.0365 8.92917 11.789 8.86691 11.7749C8.86536 11.7765 8.77978 11.8619 8.77783 11.8705C8.78776 11.8818 8.77771 11.9563 9.20765 12.0414C9.41576 12.0591 9.15162 11.9145 9.37124 11.9275C9.51878 11.9319 9.71278 11.9007 9.88057 11.8173C10.0373 11.7412 10.1582 11.6309 10.2323 11.5378C10.3591 11.3716 10.3727 11.295 10.3964 11.26C10.412 11.2349 10.5174 11.3118 10.5287 11.2744C10.5465 11.2087 10.5385 11.2473 10.5372 11.2986C10.5339 11.3659 10.5288 11.4412 10.5174 11.5202C10.501 11.6324 10.4707 11.7523 10.4127 11.8807C10.4031 11.9023 10.1578 11.9345 10.2079 11.9769C10.2764 11.9758 10.3568 11.9704 10.4299 11.9672C10.498 12.401 10.4673 12.8642 10.5208 13.3287C10.5231 13.3483 10.6476 13.2959 10.6527 13.3336C10.6825 13.5516 10.7516 13.7569 10.6612 14.0023C10.6524 14.0266 10.4237 14.0538 10.4692 14.1134C10.4772 14.1232 10.5249 14.2188 10.5785 14.235C10.5865 14.2371 10.6891 14.2008 10.6977 14.2316C10.7463 14.4136 10.7579 14.6103 10.7293 14.8061C10.7246 14.8385 10.6061 14.8282 10.6018 14.8515C10.5717 15.0131 10.6902 15.159 10.6191 15.3193C10.5711 15.4265 10.3709 15.4358 10.1923 15.528C10.1677 15.5437 10.1759 15.5977 10.0673 15.6299C9.79288 15.7058 9.48185 15.745 9.19013 15.8294C9.14177 15.8444 9.18516 15.8934 9.13053 15.9064C9.13052 15.9064 9.13051 15.9064 9.13049 15.9064C9.11441 15.9104 9.08989 15.9118 9.0519 15.9079C9.04059 15.9066 8.97296 15.8494 8.91734 15.8462C8.87856 15.8429 8.77138 15.8903 8.71957 15.8766C8.66729 15.8606 8.75679 15.8192 8.69356 15.7915C8.62982 15.7644 8.50627 15.8126 8.47448 15.7392ZM8.55783 14.169C8.53998 14.1569 8.53315 14.1566 8.53419 14.1639C8.53839 14.195 8.68688 14.3546 8.70391 14.357C8.70729 14.3572 8.70639 14.352 8.70001 14.3389C8.69715 14.3338 8.56312 14.1725 8.55783 14.169ZM9.65471 15.3131C9.91241 15.3868 9.6126 15.1485 9.41592 15.088C9.2197 15.027 9.57677 15.2903 9.65471 15.3131ZM9.42043 16.0379C9.63736 16.0786 8.94502 15.6165 9.0385 15.7815C9.04371 15.7909 9.40784 16.0355 9.42043 16.0379ZM10.0865 15.3035C10.0814 15.3056 10.0855 15.35 10.0909 15.3497C10.2208 15.3458 10.2127 15.2579 10.0865 15.3035ZM9.17453 16.7454C9.27801 16.794 9.22147 16.6548 9.09173 16.5955C8.98824 16.5474 9.04685 16.6848 9.17453 16.7454ZM10.0337 15.4623C10.0305 15.4685 10.0535 15.492 10.0754 15.4589C10.1461 15.3522 10.0886 15.3567 10.0337 15.4623ZM8.35357 17.5206C8.45974 17.4981 8.88475 17.9213 8.5753 17.9492C8.52634 17.9515 8.61963 17.7666 8.54527 17.739C8.43952 17.6897 8.41706 18.0028 8.28315 17.8379C8.27356 17.8135 8.35794 17.5254 8.3537 17.5199C8.35365 17.5201 8.35361 17.5204 8.35357 17.5206ZM8.18026 13.774C8.17538 13.77 8.13849 13.7964 8.14198 13.8016C8.22635 13.92 8.29213 13.8747 8.18026 13.774ZM11.4222 16.771C11.4168 16.784 11.4955 16.8521 11.5051 16.8432C11.6897 16.6609 11.5318 16.5241 11.4222 16.771ZM10.8717 12.2759C10.8852 12.0863 10.9443 12.0524 11.0263 12.271C10.9742 12.2684 10.924 12.2765 10.8717 12.2759Z" fill="black"/>
</svg>
