<svg width="13" height="12" viewBox="0 0 13 12" fill="none" xmlns="http://www.w3.org/2000/svg">
<path d="M7.49528 9.63847C7.67076 9.42468 7.96165 9.06225 8.18427 8.78497C8.2536 8.69871 8.26021 8.77005 8.3103 8.71012C8.4079 8.59278 8.46549 8.46116 8.56324 8.34344C8.59604 8.30412 8.62311 8.39521 8.65621 8.35289C8.83536 8.12307 8.96096 7.87664 9.12246 7.62776C9.7295 6.68904 10.2727 5.71642 10.7889 4.71669C10.8049 4.68562 10.8206 4.6548 10.8361 4.62426C10.9495 4.40316 11.0059 4.16517 11.0037 3.91994C11.0092 3.54399 10.8754 3.03292 10.5932 2.66359C10.5611 2.62111 10.5194 2.68489 10.509 2.67952C10.3746 2.61027 10.453 2.57539 10.4577 2.50899C10.4586 2.49559 10.4559 2.4804 10.4482 2.46407C10.4388 2.44389 10.4271 2.42106 10.4168 2.40062C10.3677 2.18909 9.97978 2.07472 9.62229 2.13772C9.46177 2.16388 9.63679 2.28706 9.4681 2.22749C9.45598 2.22373 9.48842 2.14351 9.44226 2.14161C9.43386 2.14131 9.42481 2.14133 9.4153 2.14164C9.3777 2.14285 9.33219 2.14882 9.28604 2.15718C9.20615 2.17135 9.1274 2.19718 9.08413 2.20736C8.9454 2.24158 8.92319 2.25225 8.80085 2.31194C8.63545 2.39424 8.42574 2.49785 8.2852 2.65945C8.25599 2.69379 8.3534 2.71383 8.31409 2.7735C8.27428 2.83201 8.14833 2.9674 8.09417 3.00613C8.0394 3.04376 8.00423 2.97956 7.98527 2.97881C7.82149 2.97281 7.83529 3.2753 7.82704 3.30149C7.61178 3.7963 7.3343 4.18491 7.15171 4.68871C7.1472 4.70142 7.1427 4.7143 7.13807 4.7277C7.12034 4.77915 7.09894 4.83078 7.07696 4.8805C7.05371 4.9121 7.02473 4.99518 7.0313 5.06726C7.03267 5.08417 7.03496 5.10066 7.03685 5.11C7.03767 5.11437 7.03869 5.11745 7.03728 5.11211C7.02472 5.09553 7.06919 5.12913 6.95957 4.97919C6.93201 4.95504 6.90183 4.89713 6.74096 4.85699C6.5622 4.8151 6.39114 4.93296 6.35975 4.97622C6.28044 5.07086 6.29843 5.07373 6.29208 5.08018C6.29102 5.08496 6.29885 5.05548 6.30347 5.0273C6.31387 4.96778 6.32212 4.8936 6.32904 4.822C6.34179 4.6892 6.35034 4.55592 6.35303 4.43153C6.35375 4.39634 6.35399 4.3617 6.35365 4.32913C6.35459 4.14483 6.2984 3.94285 6.17402 3.74117C6.15205 3.70578 6.10105 3.79416 6.07473 3.75263C5.78693 3.30992 5.33405 2.90516 4.86704 2.51545C4.81974 2.47627 4.92675 2.45888 4.88143 2.41586C4.80387 2.34315 4.71344 2.25671 4.61416 2.1746C4.57159 2.13932 4.52681 2.10448 4.48164 2.07227C4.30514 1.93943 4.01189 1.9323 3.88166 2.12201C3.65498 2.09268 3.35586 2.09798 3.1254 2.05617C2.97577 2.02972 3.10775 1.92845 2.93159 1.98711C2.8919 2.0006 2.9539 2.06682 2.8945 2.08167C2.83821 2.0958 2.78083 2.10815 2.72276 2.11987C2.65521 2.13348 2.58714 2.14622 2.51844 2.16004C2.41915 2.18074 2.33004 2.22095 2.26437 2.28735C2.23883 2.31386 2.28535 2.36467 2.2847 2.37995C2.287 2.49559 2.08204 2.4797 2.04578 2.50824C1.80658 2.67474 1.73823 2.92442 1.63326 3.21332C1.60867 3.28222 1.72518 3.23267 1.70526 3.29957C1.69076 3.34804 1.67625 3.39679 1.66088 3.44723C1.64 3.51576 1.61807 3.58604 1.59293 3.65958C1.5292 3.84771 1.49277 4.05012 1.47114 4.262C1.46421 4.33217 1.3778 4.2697 1.37031 4.30426C1.34084 4.46319 1.50405 4.48086 1.49434 4.62918C1.49293 4.6608 1.41798 4.65564 1.41113 4.66258C1.30382 4.77605 1.49806 4.82121 1.5075 4.84146C1.63379 5.11186 1.52136 5.35714 1.66585 5.62971C1.6836 5.66148 1.73962 5.55004 1.78423 5.64069C2.05698 6.18789 2.38997 6.75493 2.69641 7.31597C2.72704 7.37188 2.7564 7.42616 2.78655 7.48195C2.83824 7.57734 2.72864 7.55944 2.72455 7.57046C2.71485 7.5984 2.71187 7.62053 2.71382 7.63802C2.72369 7.73084 2.87424 7.68609 2.89639 7.70382C3.09692 7.87036 3.14729 8.17237 3.4515 8.10655C3.96983 8.65421 4.69663 8.95211 5.42238 9.29839C5.5243 9.34785 5.61422 9.42936 5.71068 9.49913C5.75729 9.52992 5.79921 9.55938 5.84003 9.58471C5.88716 9.61403 5.93459 9.64586 5.96409 9.66674C5.97044 9.67155 5.97736 9.67585 5.96903 9.67424C5.96241 9.67367 5.96149 9.66947 5.90787 9.66347C5.87923 9.67069 5.79987 9.62311 5.64853 9.77451C5.53116 9.95358 5.5935 10.0164 5.59159 10.0447C5.64453 10.1644 5.6164 10.0845 5.61267 10.0829C5.55866 9.99165 5.50456 9.89721 5.45272 9.80199C5.4453 9.78882 5.5343 9.7519 5.51912 9.72588C5.33458 9.41008 5.26594 9.55551 4.98302 9.47598C4.91244 9.45585 4.96044 9.1816 4.96152 9.15928C4.96773 9.07769 5.11033 9.04109 5.10625 9.01876C5.06807 8.83771 4.74317 9.13835 4.60564 8.96432C4.60187 8.95843 4.68246 8.93028 4.67705 8.91064C4.66056 8.84977 4.6003 8.8255 4.58638 8.76395C4.55511 8.62244 4.688 8.45433 4.46937 8.37817C4.44154 8.36871 4.27695 8.55244 4.16304 8.3905C4.11771 8.32593 3.89728 8.05517 3.84831 7.96883C3.79933 7.88261 3.90001 7.88708 3.89825 7.87951C3.81126 7.61058 3.90584 7.6623 3.93705 7.46709C3.96706 7.27273 3.71966 7.52101 3.65595 7.50343C3.59231 7.48565 3.53506 7.28366 3.52697 7.22898C3.51909 7.17435 3.59262 7.19097 3.57852 7.14818C3.48372 6.86627 3.36988 7.15933 3.27031 7.1208C3.03643 7.02927 3.12712 6.73862 3.02329 6.56869C2.99496 6.52205 2.97817 6.59167 2.94436 6.55695C2.81183 6.41925 2.80106 6.2819 2.61527 6.1537C2.58485 6.13311 2.36341 6.08007 2.38023 5.92609C2.38259 5.90393 2.45766 5.90447 2.41904 5.83114C2.36173 5.72207 2.24147 5.53946 2.14942 5.4467C2.08153 5.3783 2.06864 5.52472 2.02094 5.40785C1.99994 5.35602 2.1043 5.40402 2.0612 5.30977C2.01901 5.21735 1.8676 5.00856 1.81104 4.92955C1.75332 4.84952 1.72476 4.93496 1.71621 4.93117C1.66565 4.90729 1.53241 4.77122 1.52276 4.75601C1.26314 4.36954 1.05458 3.97167 0.897518 3.5371C0.84412 3.38384 0.797527 3.2307 0.776594 3.05867C0.759828 2.9138 0.789122 2.77848 0.830694 2.6574C0.864919 2.55872 0.908224 2.46703 0.955004 2.37814C0.987429 2.31797 0.89907 2.31734 0.903344 2.30775C0.996025 2.10865 1.06039 2.31244 1.17857 2.28305C1.19066 2.28035 1.20331 2.27552 1.21674 2.26805C1.07927 2.19582 1.15501 2.12868 1.26162 2.00036C1.31389 1.93894 1.24183 1.92506 1.24279 1.91555C1.27432 1.76238 1.42 1.80251 1.44929 1.81054C1.56294 1.83648 1.57376 1.70481 1.6501 1.72769C1.72374 1.7522 1.67115 1.88443 1.79626 1.80976C1.80595 1.74045 1.6342 1.67064 1.72594 1.59206C1.90219 1.44204 2.20365 1.32124 2.4952 1.24525C2.67888 1.19642 2.85914 1.16039 3.00839 1.13095C3.10312 1.11155 3.18789 1.10197 3.25599 1.09541C3.63002 1.07131 3.75303 1.10217 3.95357 1.17044C4.23833 1.29002 4.22628 1.2232 4.34718 1.20931C4.37506 1.20697 4.40975 1.20872 4.45589 1.21953C4.69893 1.28104 4.45004 1.48758 4.44957 1.55863C4.44556 1.62919 4.50714 1.58897 4.52256 1.63893C4.53697 1.68856 4.44527 1.68367 4.51356 1.7407C4.54064 1.76353 4.59845 1.78255 4.66285 1.79665C4.75864 1.8165 4.86946 1.83043 4.91059 1.81147C5.05485 1.74611 5.06148 1.548 5.22733 1.76629C5.23618 1.77893 5.146 1.80331 5.18218 1.84848C5.46752 2.20295 5.69761 2.60421 5.80648 3.02219C5.82115 3.07955 5.71651 3.06505 5.72374 3.09841C5.79037 3.44431 5.89079 3.27416 6.1178 3.41034C5.88436 3.43744 5.78459 3.5797 5.85062 3.83217C5.89022 3.98579 5.98084 3.93424 6.07568 4.01711C6.10187 4.0398 6.0708 4.14973 6.10535 4.17262C6.10838 4.17473 6.11191 4.17618 6.11601 4.17685C6.28385 4.20302 6.42446 4.06076 6.42701 4.33272C6.42695 4.34451 6.33522 4.3331 6.34106 4.37227C6.36104 4.5025 6.41689 4.55893 6.47781 4.60084C6.54052 4.64759 6.61168 4.68779 6.65764 4.72395C6.70973 4.74836 6.62531 4.75788 6.70931 4.77161C6.78875 4.77412 6.93507 4.69843 7.02012 4.62658C7.19393 4.81848 7.32738 4.59618 7.25132 4.4106C7.3616 4.29273 7.46161 4.14634 7.57588 4.03098C7.6148 3.99161 7.65277 4.06338 7.66323 4.06245C7.82696 4.04716 7.73156 3.88879 7.74645 3.85638C7.91802 3.50049 8.19779 3.30147 8.30617 2.92003C8.30993 2.90647 8.18046 2.79364 8.34052 2.77888C8.3512 2.7783 8.34604 2.92444 8.45008 2.78092C8.55575 2.63544 8.81864 2.41109 8.90753 2.16568C8.92735 2.10797 8.91806 1.89811 9.082 1.86956C9.10403 1.86587 9.12856 1.91091 9.16456 1.90981C9.2785 1.90768 9.18078 1.76355 9.34908 1.79479C9.51747 1.83265 9.69474 1.77954 9.83165 1.62086C9.83456 1.61826 9.83524 1.5703 9.85592 1.52791C9.87086 1.49635 9.90496 1.46939 9.94199 1.47593C9.98864 1.48381 10.0366 1.50769 10.0786 1.53949C10.1602 1.60127 10.2232 1.68766 10.2789 1.75247C10.3189 1.80001 10.3585 1.71639 10.3666 1.72378C10.4218 1.77766 10.4686 1.83251 10.5106 1.88671C10.561 1.95216 10.5998 2.02107 10.6309 2.09152C10.7279 2.31589 10.7538 2.54716 10.7809 2.82792C10.7884 2.90811 10.9509 3.13308 10.8589 3.30293C10.7546 3.48518 10.2743 3.33668 10.3865 3.71012C10.4263 3.85651 11.0641 4.07633 10.7175 4.35573C10.7237 4.42131 10.7262 4.4864 10.7256 4.55107L10.7307 4.52745C10.7137 4.58076 10.6946 4.63288 10.6739 4.68418C10.5142 5.08234 10.2592 5.41635 10.1484 5.8527C10.142 5.8775 10.279 6.03786 10.2493 6.09054C10.2048 6.16833 10.1009 6.16909 10.0659 6.22234C9.91695 6.44424 9.86948 6.69565 9.73247 6.91364C9.68054 6.99619 9.61215 6.91799 9.54959 7.01581C9.48704 7.11315 9.56124 7.24579 9.42758 7.34988C9.3261 7.42862 9.03388 7.39351 8.92549 7.51191C9.15214 7.65277 9.0922 7.74288 9.05473 7.94446C9.04772 7.98318 9.14828 7.99698 9.14912 8.01777C9.15445 8.10351 9.05393 8.12084 9.0648 8.20566C9.06728 8.22626 9.146 8.27404 9.15252 8.29357C9.21106 8.46158 8.93715 8.51716 8.88937 8.52648C8.70798 8.5627 8.78174 8.6742 8.68693 8.72803C8.59194 8.78211 8.60588 8.62535 8.52102 8.70418C8.5143 8.71044 8.50762 8.71686 8.501 8.72341C8.48702 8.73537 8.4719 8.75023 8.45701 8.76567C8.30646 8.92172 8.17889 9.13697 8.06349 9.30457C8.01139 9.38127 8.14517 9.39578 8.14002 9.40832C8.05502 9.58383 7.84717 9.67567 7.96783 9.89081C7.42237 9.6707 7.94654 10.0179 7.68845 10.1734C7.66781 10.1854 7.45101 10.0643 7.46476 9.97231C7.47777 9.87993 7.61242 9.82129 7.62401 9.68907C7.62816 9.65848 7.4961 9.37711 7.49219 9.34922C7.47032 9.13418 7.83561 9.3572 7.86033 9.36325C8.12635 9.42417 7.98854 9.09993 7.99627 9.04609C8.03008 8.85524 8.1316 8.73561 8.19622 8.59898C8.20501 8.58035 8.21306 8.5614 8.22009 8.54194L8.21308 8.55337C8.22024 8.53178 8.22625 8.50964 8.23077 8.48671C8.25704 8.35545 8.01033 8.19418 8.06923 8.11367C8.26605 7.84607 8.67609 7.95646 8.53355 7.51191C8.50334 7.41718 8.19592 7.31082 8.53488 7.23698C8.55643 7.23255 8.84377 7.1979 8.77273 7.03915C8.76379 7.01919 8.68452 6.97328 8.68665 6.95517C8.70237 6.835 8.80421 6.8081 8.83745 6.68714C8.87056 6.56647 8.90183 6.41738 8.999 6.31497C9.05761 6.25328 9.2567 6.24227 9.31201 6.22719C9.47046 6.18559 9.36272 5.99103 9.51995 5.99673C9.67775 6.00069 9.79981 6.22297 9.96803 6.10023C9.77043 5.98866 9.57183 5.86688 9.37524 5.75203C9.57761 5.4114 9.82196 5.09923 9.97743 4.73878C9.99645 4.69416 9.86917 4.69389 9.88676 4.64535C9.91679 4.56289 9.95909 4.49064 10.0023 4.41882C10.0295 4.37369 10.0573 4.32888 10.0827 4.28208L10.034 4.50821C10.0482 4.43664 10.0574 4.36342 10.0534 4.28566C10.0436 4.1096 9.94192 3.91889 9.92421 3.74561C10.1607 3.63507 10.0886 3.37201 10.1014 3.19023C10.1056 3.12563 10.1634 3.12337 10.179 3.07513C10.2333 2.89404 10.0522 3.00372 10.0193 2.96373C9.87784 2.80652 10.29 2.69729 10.2152 2.47918C10.2106 2.46479 9.99395 2.4284 9.9586 2.42776C9.95642 2.42737 9.95483 2.42698 9.95388 2.42657C9.84442 2.38675 10.0142 2.37728 10.0031 2.31687C9.99914 2.297 9.99569 2.27801 9.99228 2.26046C9.95001 2.14532 9.90389 2.03647 9.81337 2.01333C9.80082 2.01118 9.76944 2.02267 9.76478 2.04546C9.74883 2.07137 9.84135 2.13192 9.93491 2.065C9.95341 2.04988 9.93317 1.98517 9.94451 1.97932C9.94571 1.9787 9.9469 1.97807 9.94806 1.97745C9.92556 1.92212 9.97921 2.12657 9.98858 2.2146C9.9883 2.30505 9.77444 2.3237 9.7208 2.32276C9.58033 2.31939 9.73001 2.24108 9.72662 2.23036C9.67299 2.10188 9.60525 2.20551 9.53114 2.2793C9.36262 2.15719 9.27939 2.28115 9.4571 2.35454C9.47686 2.36185 9.51019 2.28944 9.53114 2.2793C9.63107 2.47679 9.563 2.60802 9.30314 2.64319C9.18223 2.65914 9.14181 2.53242 9.02404 2.7696C8.97059 2.87848 9.11509 2.92271 9.08979 3.03138C9.03147 3.28134 8.74747 3.47283 8.62621 3.69849C8.58228 3.78051 8.69855 3.74927 8.67075 3.80711C8.59722 3.96087 8.46497 4.05212 8.39406 4.21322C8.38766 4.22798 8.4793 4.24438 8.44989 4.29001C8.22289 4.63672 7.98455 4.90264 7.61825 5.26647C7.52548 5.35238 7.40036 5.49255 7.169 5.62293C7.04655 5.68941 6.88775 5.75089 6.69573 5.75944C6.4976 5.76993 6.29876 5.70798 6.16876 5.62863C5.82759 5.41122 5.74325 5.15849 5.67088 4.95487C5.58775 4.67951 5.58178 4.4869 5.5389 4.31797C5.52878 4.27552 5.51668 4.23327 5.50333 4.19701C5.43577 4.0115 5.36089 4.07629 5.28241 4.01285C5.13203 3.89179 5.25965 3.58685 5.27738 3.54153C5.27819 3.53928 5.34379 3.68193 5.36237 3.58874C5.4373 3.51301 5.27817 3.54285 5.27738 3.54153C5.29188 3.51134 5.20876 3.21954 5.16854 3.17466C5.14796 3.14928 5.07941 3.19892 5.07025 3.18545C4.85255 2.86454 4.66093 2.60998 4.43504 2.37252C4.43152 2.36752 4.49308 2.30333 4.48362 2.29217C4.45385 2.25655 4.42174 2.23081 4.38704 2.21121C4.25105 2.13333 4.11149 2.13668 3.97787 2.12229C3.96303 2.12075 3.94873 2.11894 3.93513 2.11689C3.79032 2.09535 3.72004 2.03594 3.67056 1.88427C3.56141 1.87045 3.42107 1.79133 3.32166 1.76391C3.22152 1.73632 3.24474 1.89524 3.23928 1.89841C3.23325 1.90255 3.22729 1.90658 3.22139 1.91051C3.05073 1.99753 2.91183 2.02954 2.76631 2.06048C2.64767 2.08593 2.52334 2.10821 2.38417 2.15988C2.22859 2.21366 1.97172 2.37681 1.88279 2.47534C1.80958 2.55095 1.74417 2.56784 1.71463 2.64298C1.71108 2.65281 1.77152 2.68485 1.77184 2.68878C1.77297 2.69456 1.77382 2.69957 1.77438 2.70392C1.76296 2.81201 1.66795 2.68751 1.63101 2.69218C1.50032 2.70753 1.41125 2.74249 1.40548 2.86148C1.40544 2.86762 1.40571 2.87396 1.40639 2.88022C1.40404 2.9202 1.63529 3.00593 1.64712 2.95048C1.64824 2.94633 1.64829 2.9423 1.64755 2.93875C1.64946 2.96356 1.5813 2.96659 1.61151 3.02048C1.61481 3.02638 1.66288 3.009 1.67326 3.05492C1.68329 3.0972 1.69791 3.14718 1.71562 3.19809C1.78747 3.40471 1.90607 3.65373 2.05059 3.876C2.07558 3.9147 2.11397 3.82161 2.15144 3.8767C2.32504 4.13109 2.52371 4.41428 2.67993 4.68788C2.71755 4.7545 2.64118 4.75081 2.63694 4.77427C2.61217 4.91814 2.82748 4.94606 2.84397 4.96204C3.25807 5.37236 3.42927 5.80449 3.86985 6.2185C3.8942 6.24192 4.19481 6.3198 4.14964 6.50066C4.14684 6.51262 4.0964 6.69543 4.24427 6.70235C4.25356 6.7027 4.27129 6.59927 4.34408 6.69583C4.41631 6.79213 4.58737 6.90393 4.62602 7.08656C4.6386 7.14412 4.59437 7.34111 4.79791 7.37789C4.81098 7.38042 5.20103 7.37518 5.09994 7.57012C5.08315 7.60211 4.9047 7.72884 5.11475 7.80023C5.15526 7.81359 5.15005 7.7334 5.23619 7.78545C5.36845 7.86448 5.44962 8.04776 5.64445 8.11896C5.67862 8.13155 5.88567 8.13495 5.86581 8.28836C5.86265 8.31245 5.78319 8.33621 5.81364 8.38403C5.95888 8.61318 6.18181 8.79248 6.31861 9.0361C6.36648 9.12175 6.23564 9.162 6.27465 9.26137C6.29663 9.3175 6.33951 9.39849 6.39231 9.46593C6.41011 9.48888 6.42744 9.5094 6.45897 9.55461C6.47716 9.58367 6.49375 9.59888 6.53681 9.69729C6.54714 9.7235 6.55934 9.7519 6.57402 9.81634C6.58325 9.87183 6.61207 9.96845 6.56507 10.1559C6.5357 10.3518 6.25666 10.6112 6.11384 10.6366C5.94033 10.6894 5.89627 10.6746 5.83182 10.6747C5.53649 10.6319 5.59659 10.618 5.54297 10.6091C5.51302 10.6004 5.49315 10.5965 5.4761 10.5953C5.34607 10.5944 5.34559 10.8068 5.23319 10.7851C5.22958 10.7846 5.22602 10.7841 5.22229 10.7835C5.19722 10.7796 5.17368 10.7872 5.15837 10.8034C5.03269 10.8181 4.88816 10.8665 4.77896 10.8203C4.27342 10.6073 3.76445 10.2604 3.25977 9.89229C3.16323 9.82086 3.19864 9.94961 3.05237 9.84487C2.62022 9.54786 1.94945 8.94911 1.66686 8.36325C1.6206 8.26578 1.58219 8.17133 1.5552 8.08353C1.54878 8.06256 1.54316 8.04217 1.53814 8.02204C1.43604 7.60791 1.78409 7.98164 1.66801 7.69375C1.61195 7.55632 1.32189 7.54937 1.29712 7.52097C1.05383 7.25308 1.02954 6.97721 0.859504 6.69755C0.824553 6.63911 0.76733 6.74351 0.738577 6.69265C0.639612 6.51822 0.594768 6.3039 0.518176 6.12359C0.483722 6.04235 0.423283 6.08501 0.400535 6.0049C0.346441 5.81416 0.321431 5.63261 0.334789 5.42337C0.336109 5.4048 0.449542 5.49546 0.415754 5.35223C0.361672 5.11796 0.367696 4.813 0.286017 4.5274C0.262514 4.44339 0.1048 4.4454 0.213002 4.24616C0.237482 4.20331 0.414483 4.26226 0.271277 4.02983C0.241419 4.00018 0.0897145 3.55382 0.292103 3.38524C0.323506 3.35883 0.406611 3.31521 0.469883 3.26205C0.502687 3.2448 0.528224 3.22011 0.530457 3.18933C0.53083 3.17786 0.439753 3.19305 0.455877 3.12771C0.462849 3.10007 0.470758 3.07116 0.479131 3.04221C0.541295 2.82822 0.634364 2.59014 0.738147 2.33432C0.770584 2.25579 0.639312 2.3341 0.692343 2.21591C0.833748 1.89439 1.17087 1.45278 1.60247 1.22734C1.75815 1.14729 1.68603 1.26526 1.70105 1.26454C1.92435 1.27231 1.96725 1.09663 2.0326 1.06471C2.12582 1.02055 2.21851 0.993153 2.30897 0.976862C2.38882 0.962376 2.46556 0.958187 2.54306 0.954412C2.63402 0.950062 2.72553 0.946405 2.82281 0.928582C2.88868 0.916872 2.83283 0.848839 2.84531 0.841032C2.97765 0.764891 2.88858 0.904809 2.97776 0.911633C3.22829 0.931969 3.50567 0.915264 3.77732 0.919772C3.87733 0.921869 3.76718 0.832397 3.85902 0.83603C4.19178 0.857835 4.56226 0.88306 5.02263 1.15287C5.07416 1.18632 5.12595 1.22094 5.17641 1.25583C5.2793 1.32694 5.37941 1.40106 5.47515 1.4778C5.54388 1.53325 5.4626 1.55503 5.46985 1.57698C5.51733 1.72832 5.74623 1.72111 5.78981 1.73636C5.98455 1.80253 6.01254 1.89376 6.15691 1.99471C6.72802 2.41164 7.50397 3.09799 7.61878 4.2245C7.62282 4.27762 7.62536 4.32773 7.62707 4.37606C7.63048 4.47422 7.63114 4.5661 7.63028 4.65545C7.62854 4.80479 7.62286 4.94695 7.60565 5.10771C7.596 5.19019 7.58687 5.27066 7.55647 5.39575C7.53577 5.46445 7.5326 5.5235 7.4345 5.702C7.36971 5.77274 7.33043 6.00035 6.82188 6.13784C6.57568 6.18903 6.32233 6.10141 6.21274 6.03234C6.07543 5.94835 6.03985 5.90335 5.98634 5.84721C5.83367 5.65919 5.84509 5.6248 5.81785 5.57215C5.7993 5.52498 5.79076 5.49618 5.78286 5.46914C5.7679 5.41639 5.76031 5.37932 5.75366 5.34412C5.74102 5.27535 5.73471 5.21929 5.73025 5.1639C5.71527 4.93618 5.68644 4.72343 5.75631 4.43833C5.76655 4.37794 5.78163 4.31599 5.80512 4.25763C5.95343 3.89069 6.12364 3.52275 6.33944 3.12722C6.37101 3.07023 6.24524 3.07821 6.27201 3.0279C6.62862 2.3829 7.15355 1.78684 7.87793 1.32142C7.93834 1.28396 7.80076 1.26077 7.89902 1.1979C8.10052 1.06817 8.39437 0.949421 8.64074 0.909399C8.75949 0.890044 8.62813 1.00257 8.74501 0.982942C8.85276 0.965773 8.96117 0.950444 9.07225 0.937061C9.12965 0.930635 9.18818 0.923713 9.24694 0.916653C9.33954 0.905521 9.43367 0.894031 9.529 0.883222C9.63988 0.871331 9.465 0.793522 9.61262 0.785663C10.1399 0.759039 11.0125 0.835512 11.5409 1.59978C11.5643 1.63583 11.5889 1.67441 11.6135 1.71429C11.791 2.00159 11.9452 2.33602 12.0335 2.70203C12.0492 2.76877 11.9121 2.88025 11.9808 3.00129C12.0276 2.99735 12.0792 2.98051 12.1275 2.97027C12.3432 3.65466 12.2749 4.50287 11.9273 5.15284C11.9111 5.18406 11.8949 5.21562 11.8785 5.24753C11.6385 5.71483 11.391 6.175 11.1436 6.64113C11.1213 6.6832 11.2316 6.64797 11.1887 6.72976C10.939 7.20441 10.7115 7.67431 10.3693 8.11417C10.3353 8.15789 10.2246 8.06147 10.1634 8.21237C10.153 8.23901 10.0483 8.45838 10.0433 8.52837C10.0431 8.53811 10.1235 8.53412 10.0857 8.60252C9.86311 9.00121 9.59791 9.40375 9.30083 9.76682C9.25331 9.82434 9.23872 9.71815 9.20413 9.75897C8.95513 10.0511 8.75713 10.4209 8.40851 10.6747C8.16362 10.841 8.15574 10.6772 7.96444 10.6662C7.95168 10.6652 7.90927 10.6875 7.86328 10.7002C7.85728 10.7019 7.85122 10.7034 7.84515 10.7048C7.83621 10.7075 7.82765 10.7099 7.81278 10.7139C7.78156 10.7102 7.83426 10.7485 7.64255 10.7093C7.5652 10.6891 7.502 10.5541 7.51348 10.5139C7.51546 10.4647 7.52409 10.4517 7.52952 10.4364C7.54012 10.4128 7.54689 10.4052 7.55279 10.3975C7.5636 10.3847 7.57095 10.3794 7.57734 10.3754C7.60242 10.3607 7.61877 10.3633 7.6334 10.3726C7.7702 10.4891 7.90223 10.6358 8.05369 10.7537C8.05577 10.7978 8.11473 10.7088 8.14245 10.732C8.14245 10.732 8.14246 10.732 8.14246 10.732C8.15 10.7393 8.15288 10.7579 8.15271 10.7902C8.15303 10.7934 8.14237 10.8128 8.13945 10.8284C8.14059 10.8323 8.13291 10.8526 8.16936 10.8124C8.18167 10.7898 8.19376 10.8065 8.2457 10.6592C8.25301 10.6217 8.28658 10.5511 8.25064 10.3824C8.2277 10.1972 7.96734 9.99634 7.87312 9.99056C7.65027 9.94428 7.64622 9.98102 7.60421 9.98142C7.50125 10.007 7.51689 10.0061 7.50203 10.0079C7.50101 10.006 7.5001 10.004 7.49926 10.002C7.4969 9.9963 7.49505 9.99011 7.49274 9.98411C7.48379 9.96227 7.443 9.90208 7.43105 9.87434C7.41861 9.84692 7.47334 9.88352 7.48551 9.82625C7.50055 9.76417 7.42246 9.72702 7.49528 9.63847ZM2.75394 1.73254C2.70076 1.71964 2.67748 1.7503 2.67534 1.78694C2.67368 1.81447 2.68374 1.84544 2.70118 1.86464C2.7215 1.88697 2.75149 1.89346 2.78628 1.86027C2.7912 1.85517 2.76106 1.73412 2.75394 1.73254ZM10.0817 5.22232C10.3082 5.14634 10.1249 4.94327 9.95636 4.99212C9.78723 5.0383 10.0127 5.24425 10.0817 5.22232ZM9.38848 6.7788C9.61112 6.68182 9.1146 6.36874 9.11316 6.60311C9.11289 6.6166 9.37547 6.78438 9.38848 6.7788ZM8.39921 10.205C8.39522 10.205 8.32364 10.2819 8.32275 10.2874C8.34417 10.3854 8.494 10.2243 8.39921 10.205ZM8.64058 8.32654C8.74299 8.31685 8.7509 8.11696 8.62342 8.12927C8.52063 8.13919 8.5128 8.33889 8.64058 8.32654ZM3.12863 6.47839C3.12674 6.48283 3.16941 6.54268 3.18734 6.52665C3.24478 6.47477 3.16355 6.40809 3.12863 6.47839ZM7.06339 10.7691C7.29706 10.4063 7.79412 10.4414 7.44712 10.7716C7.3873 10.8335 7.4734 10.5639 7.37853 10.6291C7.2169 10.7568 7.29015 10.9728 7.07906 11.0694C7.04697 11.0913 7.05366 10.7924 7.06346 10.7682C7.06344 10.7685 7.06342 10.7688 7.06339 10.7691ZM2.58566 1.44634C2.58463 1.44559 2.57572 1.44745 2.5635 1.45064C2.53334 1.45843 2.48353 1.47452 2.48268 1.47751C2.46682 1.54266 2.54632 1.53843 2.58279 1.50865C2.60165 1.49319 2.60918 1.47055 2.58566 1.44634ZM5.69293 9.96051C5.69186 9.9633 5.70132 9.97941 5.71578 10.0013C5.72353 10.0133 5.73527 10.0323 5.73335 10.0317C5.73231 10.029 5.72985 10.0318 5.72123 10.0004C5.72194 9.98709 5.69568 9.94404 5.7566 9.85949C5.82741 9.78717 5.87377 9.8036 5.88792 9.80068C5.93976 9.80686 5.91742 9.80616 5.9175 9.80396C5.8953 9.79333 5.86094 9.77571 5.85836 9.77804C5.70566 9.82892 5.97201 10.0195 5.81355 9.92396C5.76803 9.89494 5.71909 9.89498 5.69293 9.96051ZM7.02757 4.62894C7.03043 4.48737 7.09935 4.39445 7.2509 4.41089C7.17741 4.4865 7.10491 4.56401 7.02757 4.62894Z" fill="black"/>
</svg>
