<svg width="15" height="15" viewBox="0 0 15 15" fill="none" xmlns="http://www.w3.org/2000/svg">
<path d="M7.5856 12.8998C7.8615 12.5437 8.25581 12.1087 8.56454 11.7806C8.66119 11.6778 8.65382 11.7642 8.72247 11.694C8.85589 11.5575 8.94787 11.4032 9.08146 11.2693C9.12594 11.225 9.13833 11.3335 9.18374 11.2858C9.432 11.0237 9.62484 10.7409 9.85732 10.4608C10.1735 10.0798 10.4844 9.69031 10.7868 9.30035C10.8247 9.25146 10.8628 9.20204 10.901 9.15207C11.6343 8.18812 12.2899 7.17102 12.5811 6.06776C12.7254 5.54335 12.8476 4.86995 12.8007 4.26111C12.7954 4.19115 12.7168 4.23262 12.7101 4.21932C12.6052 4.00912 12.767 4.07943 12.7847 3.94009C12.7956 3.85084 12.8042 3.76209 12.8106 3.66943C12.82 3.5372 12.8195 3.40209 12.8135 3.26418C12.8021 3.04494 12.6816 2.86987 12.5212 2.70665C12.5127 2.69799 12.504 2.68914 12.4953 2.68046C12.3714 2.55745 12.3538 2.8198 12.3123 2.61233C12.3083 2.59751 12.4076 2.56338 12.3799 2.51707C12.3621 2.48806 12.3355 2.45471 12.303 2.41912C12.2432 2.3459 12.1582 2.29365 12.1162 2.26853C12.1146 2.26744 12.1129 2.26638 12.1113 2.26535C12.0003 2.20111 11.9798 2.19639 11.8258 2.16604C11.8184 2.1647 11.8106 2.16331 11.8028 2.1619C11.7422 2.13239 11.4523 2.16372 11.2416 2.29748C11.1946 2.32635 11.3009 2.37433 11.2312 2.42767C11.1621 2.47904 10.9526 2.5957 10.8715 2.62509C10.7905 2.65293 10.78 2.57482 10.7585 2.56949C10.6858 2.55082 10.6189 2.5948 10.5658 2.65519C10.4877 2.74336 10.4385 2.86709 10.4226 2.88295C10.3581 2.94566 10.2946 3.00549 10.2302 3.0644C9.84396 3.42674 9.48914 3.76894 9.24135 4.2521C9.0281 4.67195 8.90765 5.17213 8.80109 5.61389C8.71999 5.94651 8.64532 6.24937 8.59187 6.56438C8.57064 6.69068 8.51513 6.81486 8.50216 6.94669C8.49635 7.00619 8.49171 7.06819 8.48864 7.13207C8.48649 7.17606 8.56259 7.14689 8.59152 7.1673C8.59896 7.16721 8.60358 7.16638 8.60347 7.16622C8.60289 7.16583 8.60334 7.18104 8.60758 7.20102C8.60962 7.21103 8.61251 7.22244 8.61568 7.23315C8.61724 7.23848 8.61892 7.24373 8.62017 7.2476C8.62074 7.24941 8.62134 7.25116 8.62099 7.25071C8.6209 7.25059 8.62068 7.25017 8.62031 7.24943C8.62025 7.24931 8.62004 7.24886 8.61994 7.24867C8.61989 7.24856 8.61985 7.24849 8.61986 7.24853C8.61994 7.24869 8.61966 7.24809 8.62043 7.2498C8.62108 7.25129 8.6208 7.25047 8.62525 7.26078C8.62663 7.26406 8.6281 7.26728 8.6329 7.27952C8.63554 7.28661 8.63855 7.29327 8.64694 7.31982C8.65121 7.33529 8.65759 7.34993 8.66717 7.4084C8.67026 7.44211 8.68237 7.47724 8.66568 7.59694C8.65507 7.6535 8.63644 7.75118 8.54504 7.87045C8.45417 8.00065 8.23235 8.108 8.07812 8.10088C7.75601 8.07891 7.72092 7.97672 7.66832 7.94685C7.6257 7.90784 7.61138 7.88832 7.59803 7.87208C7.57443 7.8418 7.56749 7.82974 7.5608 7.81948C7.54905 7.80065 7.54587 7.79441 7.54267 7.78873C7.53712 7.77859 7.53522 7.77474 7.53427 7.77292C7.52159 7.74745 7.53024 7.76474 7.52838 7.76097C7.52866 7.76139 7.52817 7.76024 7.52745 7.75865C7.31903 7.40371 6.81473 6.81881 6.42405 6.3314C6.37585 6.27201 6.50832 6.27706 6.46363 6.21392C6.18927 5.82467 5.74499 5.18593 5.28309 5.28874C5.24856 5.25533 5.21309 5.22132 5.17698 5.18672C4.99899 5.01603 4.80369 4.82996 4.65838 4.65098C4.63791 4.62471 4.61877 4.59923 4.60096 4.57428C4.49773 4.43652 4.686 4.45135 4.491 4.36784C4.4471 4.3505 4.45088 4.45273 4.39027 4.42336C4.13672 4.30064 3.86735 4.17391 3.59815 4.18775C3.54397 4.19084 3.54994 4.26971 3.53401 4.28214C3.48396 4.32078 3.42872 4.31768 3.37201 4.29963C3.28078 4.26993 3.18081 4.20234 3.14956 4.19666C2.97068 4.16457 2.80414 4.1783 2.64133 4.20824C2.53558 4.22971 2.47659 4.28104 2.39966 4.38155C2.36738 4.42702 2.49263 4.441 2.46924 4.48378C2.4462 4.52761 2.42272 4.58115 2.40031 4.64206C2.33076 4.82907 2.28035 5.07328 2.21782 5.34118C2.19917 5.41641 2.18307 5.49055 2.16874 5.56593C2.15366 5.64725 2.05317 5.56414 2.04063 5.60396C1.98894 5.78867 2.1902 5.82382 2.16857 5.99203C2.16487 6.0284 2.07142 6.01866 2.06242 6.02633C1.92084 6.15435 2.16298 6.21449 2.17407 6.23654C2.32268 6.54537 2.18122 6.83867 2.37645 7.15165C2.40031 7.18722 2.46667 7.0485 2.52702 7.14996C2.91786 7.79531 3.43706 8.4432 3.92145 9.10014C3.94302 9.12929 3.96444 9.15833 3.98568 9.18723C4.06482 9.29396 3.92741 9.29526 3.92413 9.30975C3.87856 9.54161 4.12688 9.42533 4.16335 9.44882C4.3185 9.55368 4.41144 9.71183 4.52408 9.82754C4.61974 9.92585 4.72836 9.98858 4.90075 9.95666C5.3847 10.4896 5.9631 10.9216 6.56259 11.2315C6.84526 11.374 7.08624 11.4792 7.40991 11.5573C7.49656 11.5818 7.55709 11.5987 7.61754 11.6121C7.67687 11.6295 7.73299 11.6157 7.66344 11.6544C7.61782 11.6737 7.53393 11.7936 7.5404 11.8581C7.54053 11.9268 7.55784 11.9205 7.55836 11.9084C7.56216 11.8763 7.53491 11.7993 7.50853 11.7346C7.5022 11.7204 7.61613 11.6738 7.60194 11.6445C7.39889 11.275 7.29704 11.4598 6.94806 11.4122C6.86381 11.4041 6.90135 11.0597 6.89719 11.0292C6.89588 10.9267 7.06967 10.8521 7.0621 10.8253C6.9975 10.612 6.6234 11.0489 6.43363 10.8707C6.4283 10.8645 6.524 10.8099 6.51504 10.7873C6.48718 10.7169 6.40858 10.7014 6.3814 10.6281C6.31812 10.4582 6.46305 10.2203 6.17335 10.1792C6.13642 10.1745 5.96354 10.4462 5.79561 10.2788C5.72731 10.2102 5.40645 9.9407 5.32664 9.84701C5.24968 9.75523 5.37525 9.73039 5.37163 9.72156C5.21227 9.41511 5.33905 9.45027 5.33776 9.19736C5.33471 8.94575 5.07846 9.33111 4.99574 9.32913C4.91347 9.32713 4.79929 9.09399 4.77764 9.02887C4.75622 8.96359 4.85111 8.96071 4.82441 8.91205C4.64489 8.59162 4.56724 8.99286 4.43556 8.97769C4.12542 8.94114 4.17481 8.55276 4.00387 8.37554C3.95803 8.32761 3.95336 8.41947 3.90354 8.38824C3.70874 8.2648 3.65951 8.09633 3.3996 8.00529C3.35696 7.9907 3.06963 8.00394 3.05189 7.80918C3.04939 7.78129 3.14136 7.75399 3.0762 7.67896C2.97362 7.56251 2.78323 7.38794 2.63979 7.30519C2.53714 7.24663 2.56081 7.42986 2.47263 7.30694C2.43398 7.25273 2.57243 7.26963 2.49616 7.1731C2.4129 7.07125 2.17345 6.88 2.07724 6.8032C1.98543 6.73036 1.97492 6.84404 1.96351 6.84287C1.90176 6.83908 1.68663 6.71541 1.67563 6.70521C1.45703 6.51445 1.26147 6.35411 1.05987 6.0782C0.990412 5.97017 0.942083 5.85395 0.910422 5.73927C0.792958 5.27911 0.877165 4.87332 0.930733 4.47996C0.945405 4.37956 0.973355 4.28264 1.01065 4.19106C1.06866 4.04877 1.1465 3.91802 1.23716 3.79673C1.29049 3.72743 1.18383 3.70938 1.19125 3.69816C1.35508 3.46601 1.38068 3.72732 1.52358 3.73399C1.54133 3.73569 1.56082 3.73416 1.58256 3.7286C1.46273 3.62026 1.51489 3.56388 1.62862 3.47615C1.65268 3.45782 1.67961 3.43817 1.70856 3.41644C1.78875 3.35748 1.7054 3.31725 1.70912 3.30587C1.79197 3.12527 1.96026 3.22288 1.99288 3.24338C2.12179 3.3153 2.18015 3.15723 2.26453 3.21523C2.34295 3.27516 2.23429 3.41495 2.40668 3.37594C2.44523 3.29508 2.26637 3.13772 2.40907 3.07944C2.58911 3.00823 2.83842 2.98104 3.09362 3.00618C3.16597 3.01302 3.23798 3.02557 3.3085 3.04274C3.79109 3.16377 4.1463 3.46305 4.35064 3.6075C4.69538 3.86288 4.80557 3.9441 4.97606 4.12244C5.27555 4.45175 5.25556 4.2303 5.51004 4.36501C5.76316 4.50318 5.39338 4.68882 5.36398 4.77574C5.33276 4.86194 5.42279 4.82999 5.42386 4.89589C5.4246 4.96175 5.31289 4.93032 5.37832 5.02065C5.44331 5.11034 5.76073 5.22305 5.85256 5.19078C6.04645 5.12157 6.09401 4.8847 6.24974 5.14837C6.25847 5.16361 6.14444 5.1947 6.18167 5.24943C6.25234 5.35204 6.32577 5.45287 6.40077 5.55298C6.41617 5.57324 6.43105 5.59332 6.44584 5.61369C6.68587 5.93784 6.84297 6.30162 6.99744 6.62137C7.02925 6.68183 6.89979 6.70121 6.9194 6.7391C6.98098 6.85642 7.05976 6.91458 7.1204 6.9241C7.1431 6.92777 7.16248 6.92623 7.17978 6.92116C7.26316 6.88965 7.33317 6.78712 7.4153 6.66918C7.3904 6.80913 7.37635 6.92891 7.45551 7.00691C7.52702 7.08643 7.72641 7.09104 7.8795 6.94852C8.04929 6.77779 7.91683 6.72401 7.91508 6.57635C7.9143 6.53172 8.05159 6.45263 8.01171 6.40186C7.87641 6.24867 7.64135 6.2782 7.83671 6.02986C7.84557 6.01811 7.92307 6.09633 7.94685 6.05265C8.09454 5.77069 7.92294 5.67404 8.0045 5.33831C8.06794 5.0746 8.30904 4.62264 8.42129 4.31852C8.68969 4.40407 8.7123 4.10132 8.57601 3.92181C8.65422 3.72411 8.7317 3.50267 8.85355 3.32454C8.89541 3.26389 8.94181 3.34274 8.95358 3.33843C9.13249 3.28187 9.02843 3.11581 9.05351 3.06785C9.11406 2.95172 9.20141 2.84443 9.30514 2.76256C9.444 2.65307 9.59124 2.56822 9.73779 2.483C9.88444 2.39788 10.0304 2.31212 10.1812 2.19739C10.1944 2.18735 10.1564 2.00179 10.3279 2.08294C10.3381 2.08955 10.216 2.2212 10.4325 2.15272C10.653 2.08126 11.0794 2.09081 11.3743 1.97113C11.4443 1.94131 11.625 1.7624 11.7837 1.87827C11.8046 1.8941 11.7855 1.95221 11.8157 1.98228C11.9121 2.07903 11.9563 1.87426 12.0694 2.04348C12.1747 2.20097 12.3765 2.33099 12.6539 2.2385C12.6674 2.23216 12.6816 2.22545 12.6971 2.21846C12.6993 2.21558 12.7868 2.04956 12.8894 2.08766C12.9425 2.1081 12.9986 2.14151 13.0512 2.18205C13.1473 2.25555 13.2305 2.35142 13.3014 2.42465C13.3539 2.47969 13.4011 2.36992 13.4117 2.37826C13.6581 2.59134 13.7857 2.82819 13.8934 3.08309C13.9433 3.20077 13.9775 3.32757 13.9967 3.46365C14.0069 3.53632 14.013 3.61155 14.015 3.68987C14.0209 3.78256 14.2003 4.10669 14.0197 4.28561C13.8179 4.46557 13.2282 4.12244 13.2405 4.54842C13.2393 4.70722 13.9877 5.29735 13.4017 5.4251C13.3961 5.44519 13.3901 5.46516 13.3837 5.48503C13.3521 5.56939 13.3081 5.65863 13.259 5.74468C12.9846 6.2227 12.5701 6.57947 12.3571 7.12201C12.3457 7.15115 12.4974 7.38273 12.452 7.43926C12.3837 7.52396 12.2505 7.50241 12.199 7.55964C11.9786 7.80034 11.8825 8.09947 11.6798 8.33946C11.6034 8.43026 11.5309 8.32312 11.4394 8.43176C11.3489 8.53923 11.4178 8.71306 11.239 8.81697C11.103 8.89543 10.757 8.80928 10.6109 8.93615C10.8581 9.14016 10.7719 9.23988 10.6915 9.47624C10.676 9.52189 10.793 9.5528 10.7901 9.57796C10.7804 9.68135 10.6586 9.68672 10.6549 9.79008C10.6538 9.8151 10.7376 9.88348 10.7414 9.90775C10.7777 10.1155 10.442 10.1428 10.385 10.1467C10.1653 10.1639 10.2289 10.3064 10.1067 10.3568C9.98479 10.4072 10.0341 10.2233 9.9191 10.3045C9.68181 10.4721 9.46704 10.7613 9.28145 10.9774C9.20819 11.0637 9.36476 11.0937 9.35677 11.1082C9.23304 11.3113 8.96781 11.3985 9.09401 11.6755C8.67793 11.4611 8.78022 11.5846 8.81994 11.7441C8.82624 11.7687 8.83134 11.794 8.83313 11.8189C8.83835 11.8848 8.81839 11.9495 8.73475 11.995C8.70941 12.0077 8.42877 11.8318 8.45348 11.7179C8.46315 11.6698 8.50441 11.6293 8.54825 11.5893C8.5604 11.5781 8.57297 11.5666 8.58546 11.5545C8.63585 11.507 8.67882 11.4583 8.69265 11.3885C8.70045 11.3515 8.58028 11.0012 8.5817 10.9687C8.5949 10.7153 9.00164 11.0179 9.03002 11.0275C9.33903 11.1262 9.22421 10.7264 9.24397 10.6637C9.33716 10.3766 9.54239 10.2374 9.62793 10.0047C9.68438 9.85254 9.42885 9.62674 9.51119 9.53859C9.78188 9.24691 10.2456 9.43768 10.1479 8.88023C10.1269 8.76091 9.78003 8.58945 10.1889 8.54552C10.2139 8.54334 10.5609 8.54174 10.4973 8.33719C10.4893 8.31127 10.4009 8.24308 10.4058 8.22094C10.4402 8.07396 10.5646 8.05654 10.6197 7.91079C10.674 7.76612 10.7283 7.58397 10.8589 7.47013C10.9365 7.40272 11.1836 7.42245 11.2537 7.41434C11.4553 7.39165 11.3437 7.12721 11.5405 7.16418C11.7385 7.20168 11.8627 7.50273 12.0919 7.38786C11.8566 7.20658 11.6213 7.0116 11.3873 6.82524C11.6788 6.43121 12.0316 6.08965 12.2794 5.67869C12.3097 5.62762 12.1415 5.59125 12.1699 5.53505C12.2305 5.41536 12.3157 5.32145 12.3955 5.22718C12.4539 5.15778 12.5112 5.08826 12.5546 5.01096L12.5233 5.07117C12.5379 5.04108 12.5505 5.0103 12.561 4.9777C12.6229 4.78284 12.5685 4.53433 12.6095 4.37005C12.9682 4.37672 12.9649 4.09667 13.0253 3.96876C13.047 3.92102 13.1257 3.92785 13.1576 3.89166C13.2684 3.75285 13.0009 3.83376 12.9653 3.80881C12.9108 3.77754 12.9454 3.75634 13.0081 3.71759C13.1167 3.65458 13.3122 3.53897 13.2858 3.42146C13.2818 3.40929 13.2767 3.39721 13.2704 3.38527C13.2606 3.36856 12.933 3.34847 12.9106 3.33964C12.7493 3.26824 12.9823 3.26266 12.9546 3.16699C12.9056 2.99994 12.8739 2.84619 12.7266 2.80774C12.7096 2.80427 12.6719 2.81602 12.6458 2.82905C12.6063 2.8456 12.608 2.87024 12.6409 2.80023C12.6474 2.78427 12.6636 2.70139 12.6648 2.69603C12.6686 2.67847 12.6703 2.67428 12.6732 2.67923C12.5109 2.70685 12.4849 2.88929 12.3562 2.95594C12.1968 3.03687 11.9656 2.85292 11.9173 2.80399C11.7903 2.67413 12.0081 2.7487 12.0153 2.73652C12.09 2.58454 11.9192 2.609 11.7911 2.59921C11.7601 2.35367 11.577 2.3784 11.6585 2.59108C11.6671 2.61426 11.7649 2.58839 11.7911 2.59921C11.6892 2.84288 11.5171 2.86976 11.2829 2.67605C11.1721 2.58807 11.2431 2.45243 10.9527 2.54851C10.8229 2.59527 10.9109 2.74001 10.812 2.80779C10.6106 2.94787 10.3007 2.94166 10.082 3.06943C10.0623 3.08075 10.0434 3.09302 10.0257 3.10633C9.95102 3.16371 10.0733 3.18688 10.0257 3.22813C9.95539 3.29043 9.87869 3.32954 9.8041 3.37909C9.77868 3.39127 9.7466 3.41862 9.72684 3.46949C9.72323 3.47975 9.80836 3.51587 9.79008 3.54362C9.64217 3.77768 9.46038 4.14455 9.34183 4.59925C9.28278 4.82123 9.24205 5.25266 9.17243 5.50301C9.04987 5.93735 8.7791 6.44022 8.5589 6.90927C8.39136 7.22679 8.50905 7.22781 8.42124 7.43682C8.33712 7.63802 7.93668 7.88171 7.55109 7.85347C7.17478 7.83117 6.99578 7.65695 6.96494 7.6302C6.94319 7.63798 7.42008 7.70826 7.18314 7.60587C7.07609 7.46283 6.97416 7.63152 6.96494 7.6302C6.95669 7.62253 6.92832 7.6077 6.88804 7.58594C6.86463 7.57329 6.83723 7.55825 6.80735 7.54091C6.38228 7.28342 6.29114 6.98693 6.22795 6.94441C6.18965 6.90525 6.11658 6.98557 6.09858 6.96436C5.86907 6.68675 5.72757 6.51023 5.58533 6.36184C5.57496 6.35091 5.56476 6.34025 5.55449 6.32958C5.40477 6.17146 5.26463 6.00607 5.13219 5.83401C5.1272 5.82551 5.22103 5.75544 5.20815 5.73645C5.0297 5.46898 4.78973 5.42302 4.55789 5.30373C4.32508 5.18434 4.21009 5.03309 4.22426 4.79006C4.0728 4.68404 3.92528 4.45532 3.83375 4.33034C3.7413 4.20423 3.61556 4.37326 3.60434 4.37C3.33527 4.30656 3.21636 4.21094 3.08141 4.13952C3.0546 4.12564 3.02837 4.11365 3.00276 4.10476C2.96485 4.09579 2.92471 4.08871 2.88237 4.08465C2.71862 4.06211 2.42881 4.13559 2.31721 4.21175C2.25904 4.24656 2.20925 4.25695 2.16153 4.2797C2.13284 4.29349 2.10482 4.31027 2.07919 4.33818C2.07007 4.34806 2.13619 4.40666 2.13481 4.41123C2.13322 4.41972 2.13137 4.42679 2.12927 4.43264C2.10721 4.50832 2.01517 4.35917 1.97427 4.34554C1.81759 4.29664 1.69481 4.31387 1.68836 4.45699C1.68844 4.46025 1.69093 4.46514 1.69549 4.47119C1.72514 4.51682 1.86637 4.59663 1.9366 4.60475C1.95108 4.62691 1.96056 4.64707 1.96204 4.6644C1.97386 4.7893 1.87543 4.73403 1.89486 4.86023C1.89675 4.87051 1.95871 4.87447 1.95596 4.94547C1.94797 5.13809 1.96411 5.3103 1.98518 5.37434C1.99231 5.39926 1.99794 5.40836 2.00037 5.4101C1.96501 5.36369 2.01786 5.4249 2.06265 5.4612C2.09976 5.4935 2.12853 5.37787 2.1795 5.41863C2.43963 5.62604 2.79848 5.90363 3.07201 6.17573C3.14072 6.24412 3.04389 6.26783 3.04619 6.2984C3.06599 6.48908 3.3308 6.43486 3.35958 6.4512C3.99938 6.8063 4.32501 7.283 4.97564 7.65716C5.01059 7.67731 5.40803 7.6809 5.39247 7.92219C5.39188 7.93826 5.37067 8.18343 5.55699 8.14655C5.5687 8.14419 5.56754 8.00847 5.68063 8.10803C5.79358 8.20788 6.03154 8.29735 6.12018 8.51798C6.14867 8.58752 6.13243 8.84599 6.39694 8.83792C6.41404 8.83712 6.90264 8.72634 6.81589 9.00186C6.80074 9.04664 6.60243 9.25322 6.87794 9.28887C6.93134 9.29568 6.90868 9.1944 7.02911 9.24118C7.21375 9.31209 7.34882 9.52557 7.61046 9.57908C7.65292 9.58524 7.92554 9.55702 7.9259 9.76026C7.92573 9.79198 7.82783 9.83618 7.87415 9.89262C8.10347 10.175 8.41956 10.3709 8.66384 10.7859C8.75367 10.946 8.55514 10.9445 8.63714 11.1478C8.65726 11.2007 8.68357 11.2665 8.7119 11.3461C8.7494 11.449 8.79452 11.5685 8.816 11.7615C8.85049 11.9926 8.77123 12.394 8.5121 12.6386C8.23628 12.8878 8.11486 12.8961 7.99537 12.9539C7.7684 13.0363 7.81818 13.103 7.80434 13.1854C7.80054 13.2619 7.7601 13.346 7.53456 13.3492C7.31527 13.3475 7.20689 13.3359 7.04463 13.3106C7.05618 13.3202 6.8381 13.2835 6.73353 13.2574C6.60978 13.2283 6.49085 13.1924 6.37819 13.1525C6.15458 13.0732 5.94718 12.9752 5.75611 12.87C5.32091 12.6296 4.95141 12.3459 4.5951 12.0715C4.48139 11.9826 4.5189 12.1339 4.34892 12.0065C4.03477 11.7703 3.61954 11.4433 3.26473 11.0847C3.01878 10.8378 2.77996 10.5681 2.62726 10.3185C2.58702 10.2532 2.55367 10.1903 2.52641 10.1287C2.31689 9.64231 2.82939 10.0255 2.6282 9.696C2.53316 9.53939 2.16319 9.59099 2.1265 9.56047C1.76904 9.27377 1.69443 8.92649 1.44061 8.59135C1.38837 8.52081 1.32799 8.66333 1.28449 8.60114C1.13503 8.38763 1.05447 8.11126 0.942088 7.87828C0.89186 7.77354 0.81698 7.83247 0.782587 7.72731C0.700719 7.47519 0.66239 7.23105 0.679882 6.95132C0.681655 6.92674 0.824916 7.04885 0.782866 6.85791C0.716192 6.54478 0.742039 6.14109 0.676981 5.76382C0.658529 5.65332 0.463353 5.63592 0.625581 5.39605C0.66218 5.34567 0.869761 5.43842 0.729774 5.1335C0.725558 5.12337 0.716198 5.0961 0.706362 5.05653C0.654818 4.93836 0.591705 4.61019 0.780225 4.4617C0.840919 4.41387 1.05808 4.32166 1.08751 4.18215C1.09158 4.16191 0.968879 4.20183 1.01042 4.08413C1.0148 4.07226 1.01933 4.06035 1.02401 4.04839C1.15972 3.65951 1.61354 3.07266 2.2678 2.90774C2.42422 2.8672 2.19297 2.82923 2.3711 2.77723C2.37771 2.77495 2.38555 2.77287 2.39481 2.77102C2.66237 2.71713 3.03548 2.68431 3.40572 2.71616C3.53836 2.72721 3.66897 2.74692 3.78991 2.77288C3.95815 2.81125 3.82878 2.86593 3.84039 2.87601C4.00798 3.03956 4.15433 2.89816 4.22425 2.90768C4.64264 2.97173 4.88887 3.19891 5.18846 3.37717C5.27103 3.42802 5.26223 3.31991 5.28229 3.32493C5.49013 3.38689 5.28027 3.41798 5.37027 3.507C5.41352 3.55071 5.45451 3.59224 5.49828 3.63583C5.66433 3.809 5.85978 3.96888 6.04152 4.11499C6.10955 4.16957 6.10248 4.07256 6.14156 4.07612C6.14883 4.07679 6.1577 4.08093 6.16892 4.09016C6.59517 4.43885 7.02389 4.82068 7.38827 5.22426C7.45626 5.30007 7.35508 5.31186 7.35844 5.33859C7.38041 5.52543 7.65399 5.55106 7.70385 5.57518C7.9225 5.67877 7.936 5.78743 8.09064 5.92104C8.23452 6.04521 8.38311 6.18333 8.5326 6.338C8.68975 6.51247 8.81302 6.60564 9.03905 6.99085C9.04332 6.99887 9.0468 7.00536 9.05274 7.01709C9.05296 7.01749 9.05526 7.02218 9.05348 7.01846C9.05123 7.01406 9.05628 7.02344 9.03969 6.99114C9.03173 6.97752 9.03793 6.98245 8.98775 6.9023C8.96968 6.87699 8.95979 6.85196 8.87269 6.75461C8.81541 6.70584 8.7881 6.62462 8.47775 6.48311C8.32512 6.42403 8.02898 6.33545 7.64621 6.49044C7.28447 6.64231 7.10581 6.94501 7.04393 7.12272C6.93641 7.46752 6.98587 7.55298 6.9856 7.63059C6.99489 7.70293 7.00379 7.73635 7.0103 7.76365C7.0237 7.81594 7.03105 7.83571 7.03676 7.85295C7.0717 7.94847 7.06455 7.92366 7.06958 7.93708C7.07406 7.94725 7.07404 7.9471 7.07458 7.94833C7.07504 7.94937 7.07448 7.94816 7.07423 7.94763C7.07264 7.94422 7.07092 7.94049 7.06961 7.93764C7.06624 7.93026 7.06456 7.9266 7.06184 7.92051C7.05265 7.89997 7.04571 7.88377 7.03862 7.86668C7.02492 7.83362 7.01294 7.80237 7.0017 7.77092C6.97928 7.70802 6.95997 7.64476 6.94318 7.57679C6.91029 7.44122 6.88542 7.2886 6.89061 7.09879C6.89188 7.01219 6.89525 6.91987 6.89985 6.83451C6.90789 6.67643 6.84001 6.51195 6.86371 6.35746C6.91105 6.04143 6.98014 5.73981 7.05794 5.46481C7.43547 4.20537 7.99532 3.26448 8.92999 2.31838C8.99119 2.2591 8.85293 2.24234 8.90609 2.18973C9.02249 2.07665 9.14555 1.96968 9.27454 1.86881C9.42826 1.74907 9.58513 1.63268 9.74906 1.5167C10.1838 1.22618 10.5709 0.917604 11.3262 0.691332C11.4397 0.664241 11.2487 0.599418 11.4421 0.554459C11.5952 0.522793 11.7929 0.499006 12.0387 0.531637C12.2384 0.555024 12.5181 0.625205 12.7389 0.741196C12.7785 0.76151 12.794 0.77686 12.7971 0.788592C12.7994 0.797581 12.7943 0.804586 12.7867 0.810921C12.7665 0.827469 12.7297 0.839836 12.7597 0.869078C12.7683 0.877605 12.7826 0.887628 12.8046 0.89998C12.9911 1.00457 13.174 1.12386 13.3358 1.25131C13.4575 1.3422 13.6006 1.45101 13.7339 1.58292C13.8386 1.69008 13.7799 1.46963 13.8884 1.57516C13.8954 1.58223 13.903 1.59081 13.9114 1.60119C14.2466 1.9981 14.4577 2.64297 14.4138 3.21957C14.3975 3.35907 14.3843 3.49725 14.3801 3.63644C14.3651 4.117 14.3257 4.61892 14.208 5.14011C14.1915 5.21165 13.9955 5.25602 14.0116 5.40948C14.0623 5.42676 14.1238 5.43327 14.1789 5.44477C14.0016 7.02118 13.1303 8.34064 12.3273 9.47411C12.2931 9.52231 12.4254 9.48883 12.359 9.58285C12.26 9.72295 12.1663 9.85587 12.0666 9.99434C12.0292 10.0463 11.9921 10.0978 11.9551 10.1486C11.7088 10.4877 11.4521 10.8195 11.1464 11.1312C11.0994 11.1793 10.9946 11.0595 10.8969 11.2279C10.8795 11.2582 10.7193 11.5034 10.699 11.5853C10.6968 11.5966 10.7871 11.5984 10.7313 11.6747C10.4049 12.1186 10.0345 12.5623 9.65188 12.9619C9.59011 13.0262 9.58962 12.904 9.5453 12.9491C9.2302 13.2706 8.96126 13.6826 8.62699 13.9609C8.40345 14.1462 8.37149 13.9784 8.17314 14.0049C8.1438 14.0102 8.02754 14.138 7.96285 14.0954C7.80234 13.9857 7.70021 13.7817 7.5228 13.672C7.4926 13.6545 7.41434 13.7749 7.38628 13.7492C7.38628 13.7492 7.38627 13.7491 7.38626 13.7491C7.37787 13.7417 7.37309 13.7223 7.37602 13.682C7.37807 13.6688 7.46333 13.518 7.46318 13.463C7.46342 13.4247 7.37012 13.4127 7.38526 13.3467C7.40003 13.2811 7.49119 13.2763 7.52759 13.177C7.5614 13.0797 7.46734 13.053 7.5856 12.8998ZM3.38529 3.82388C3.29584 3.68635 3.17905 4.02293 3.31665 3.98431C3.32347 3.98219 3.38952 3.83075 3.38529 3.82388ZM12.3565 6.31761C12.6639 6.28209 12.4482 5.97939 12.2215 5.99355C11.9949 6.00781 12.2641 6.32728 12.3565 6.31761ZM11.2767 8.11355C11.5636 8.0345 10.9937 7.55765 10.9638 7.84986C10.9619 7.86668 11.26 8.11822 11.2767 8.11355ZM8.60343 13.4496C8.59996 13.4481 8.51356 13.5439 8.51503 13.5476C8.53692 13.6556 8.70753 13.4666 8.60343 13.4496ZM10.1338 9.87338C10.2552 9.87675 10.3024 9.6389 10.1507 9.63559C10.0291 9.63315 9.98295 9.86983 10.1338 9.87338ZM4.11333 8.22763C4.11175 8.23353 4.17968 8.29402 4.19812 8.26803C4.25713 8.18402 4.13992 8.12835 4.11333 8.22763ZM7.94939 12.7231C8.22722 12.2245 8.86929 12.3498 8.47051 12.7264C8.40198 12.8008 8.47042 12.4663 8.35568 12.5425C8.15067 12.7043 8.31909 12.9483 8.10447 13.099C8.06297 13.1364 7.92407 12.7621 7.94928 12.7218C7.94932 12.7223 7.94935 12.7227 7.94939 12.7231ZM3.45268 3.39174C3.45195 3.38552 3.33253 3.34559 3.32808 3.35031C3.23862 3.44146 3.46372 3.51732 3.45268 3.39174ZM7.71794 11.8817C7.71784 11.889 7.68887 11.8934 7.72983 11.8298C7.77194 11.797 7.72073 11.8231 7.71841 11.8247C7.67115 11.9382 7.78271 12.0099 7.8546 11.9611C7.91821 11.9 7.81883 11.8175 7.71794 11.8817ZM8.42999 4.31581C8.36447 4.15183 8.40891 3.98351 8.57567 3.92237C8.52213 4.05153 8.47763 4.18501 8.42999 4.31581Z" fill="black"/>
</svg>
