<svg width="15" height="14" viewBox="0 0 15 14" fill="none" xmlns="http://www.w3.org/2000/svg">
<path d="M9.16747 10.9877C9.38037 10.5591 9.7068 10.0349 9.96362 9.64435C10.0446 9.52097 10.0518 9.60791 10.1085 9.52571C10.2206 9.36228 10.2884 9.1897 10.4021 9.0284C10.4396 8.9758 10.4688 9.08278 10.5066 9.02663C10.7147 8.71598 10.8643 8.39595 11.0536 8.07151C11.7014 6.95971 12.2912 5.83339 12.8128 4.66977C12.8278 4.63634 12.8424 4.60281 12.8567 4.56919C13.0161 4.19004 12.9548 3.86142 12.7741 3.4546C12.7584 3.41854 12.7416 3.3804 12.7241 3.34027C12.7094 3.30671 12.6936 3.27116 12.6772 3.23393C12.6397 3.05394 12.2724 2.7938 11.841 2.71711C11.7998 2.7087 11.7582 2.70139 11.7166 2.69521C11.6878 2.69102 11.6593 2.6878 11.631 2.68551C11.5707 2.68113 11.5976 2.76012 11.5857 2.76466C11.4073 2.83925 11.4763 2.69604 11.3581 2.67179C11.0952 2.62266 10.7942 2.65283 10.5132 2.74994C10.4675 2.76557 10.4223 2.78284 10.3777 2.80156C10.2299 2.86352 10.0917 2.95812 9.97253 3.06681C9.82828 3.20512 10.0732 3.18576 9.8734 3.25684C9.85932 3.26255 9.84324 3.16854 9.79697 3.20116C9.69055 3.27382 9.53778 3.47316 9.47192 3.55232C9.34269 3.70384 9.32447 3.73307 9.22118 3.89426C9.08124 4.11505 8.89777 4.37887 8.80216 4.65182C8.78228 4.70994 8.89374 4.67172 8.87058 4.76668C8.85891 4.81512 8.82711 4.89984 8.79396 4.98121C8.76587 5.04987 8.73692 5.11641 8.71491 5.1561C8.71251 5.15975 8.71021 5.16302 8.70801 5.16589C8.67222 5.21352 8.61122 5.17112 8.59277 5.1768C8.42622 5.24131 8.61652 5.48475 8.63163 5.49445C8.70496 5.71567 8.82809 5.93512 8.99045 6.14048C9.02089 6.1787 9.05262 6.21874 9.0778 6.25112C9.04638 6.23019 9.00084 6.18497 8.86297 6.16221C8.72432 6.13571 8.55075 6.21901 8.50559 6.27166C8.40232 6.38214 8.4324 6.3904 8.43057 6.39466C8.4427 6.39463 8.46647 6.3449 8.48376 6.2963C8.51997 6.19429 8.54679 6.06842 8.55766 5.9419C8.56266 5.88278 8.5645 5.8227 8.5623 5.76387C8.56093 5.72727 8.55882 5.69124 8.55592 5.6572C8.53576 5.39311 8.28874 5.03282 8.05748 4.7448C7.70355 4.30551 7.35571 3.93551 6.91126 3.56768C6.86414 3.52895 6.86878 3.63578 6.81121 3.5887C6.5636 3.38665 6.31042 3.18964 6.05489 2.99493C6.01201 2.96226 5.96906 2.92963 5.92607 2.89703C5.61006 2.65725 5.28097 2.44595 4.93524 2.28375C4.86887 2.25304 4.98191 2.22152 4.91594 2.1869C4.83176 2.14369 4.73623 2.09709 4.6327 2.05629C4.57785 2.03466 4.52082 2.01467 4.46248 1.99755C4.13802 1.89307 3.71125 2.03508 3.62601 2.29086C3.39871 2.36672 3.13267 2.49319 2.89524 2.59469C2.83759 2.61916 2.78138 2.64229 2.72796 2.66226C2.71439 2.66736 2.70247 2.67119 2.69198 2.67395C2.5817 2.70101 2.64179 2.57579 2.50945 2.71757C2.47878 2.75336 2.56643 2.76599 2.52 2.81503C2.32794 3.02075 2.13308 3.2899 2.03856 3.5861C2.01974 3.64622 2.08593 3.65989 2.08957 3.68105C2.1197 3.85344 1.88952 4.02336 1.85884 4.0738C1.69758 4.34313 1.62747 4.59132 1.56083 4.85705C1.54081 4.93692 1.52129 5.01864 1.4997 5.10415C1.49538 5.12147 1.49115 5.13888 1.48697 5.15639C1.46815 5.23837 1.58718 5.16658 1.57415 5.24489C1.5086 5.64797 1.52468 6.06092 1.57653 6.47106C1.58814 6.56256 1.47493 6.50142 1.47598 6.54712C1.48518 6.75389 1.67314 6.74422 1.70118 6.9336C1.70795 6.97414 1.6219 6.9811 1.61598 6.99116C1.53652 7.1295 1.69688 7.16718 1.75286 7.18846C1.76196 7.19206 1.76835 7.1954 1.77065 7.19909C1.82041 7.27631 1.85516 7.35172 1.88188 7.42756C1.95543 7.6417 1.96789 7.88127 2.16913 8.08105C2.20065 8.11102 2.22029 7.96852 2.30264 8.05435C2.86121 8.62463 3.6268 9.11017 4.3612 9.5677C4.47605 9.63847 4.35085 9.67723 4.35359 9.69063C4.40467 9.90485 4.58648 9.73531 4.6293 9.74496C4.96976 9.8297 5.19883 10.1344 5.5232 9.96207C5.94112 10.1579 6.37381 10.3164 6.8179 10.4769C6.91236 10.5113 7.00618 10.5626 7.09446 10.6161C7.28455 10.7173 7.40322 10.8434 7.52707 10.954C7.56426 10.9878 7.6003 11.0232 7.63523 11.0607C7.6531 11.0799 7.67045 11.0993 7.68938 11.122C7.69861 11.1332 7.70864 11.1454 7.72202 11.1634C7.73288 11.181 7.72606 11.1596 7.76978 11.2422C7.77343 11.2502 7.77567 11.2547 7.78211 11.2718C7.78596 11.3076 7.83713 11.3394 7.78079 11.5375C7.75642 11.6369 7.5976 11.7603 7.52665 11.767C7.44069 11.789 7.38309 11.7784 7.34516 11.7706C7.2705 11.7517 7.2487 11.7337 7.2285 11.7225C7.19065 11.6979 7.18844 11.6935 7.17729 11.6845C7.16362 11.6724 7.15944 11.668 7.15281 11.6614C6.66914 11.1674 6.14158 10.7033 5.63337 10.2019C5.61969 10.1887 5.7015 10.1356 5.67387 10.1097C5.33967 9.79832 5.32458 9.96531 4.98297 9.93261C4.89772 9.92461 4.82914 9.62277 4.8202 9.5985C4.79085 9.51009 4.93045 9.44294 4.91609 9.41985C4.79367 9.23302 4.5716 9.6188 4.34348 9.46429C4.33672 9.45885 4.41205 9.41137 4.39731 9.39168C4.35182 9.33045 4.27408 9.31737 4.23073 9.25497C4.13211 9.11183 4.19935 8.90025 3.92394 8.87C3.88875 8.8665 3.79382 9.1012 3.59278 8.9572C3.5139 8.90005 3.14138 8.66741 3.04663 8.58886C2.95043 8.50915 3.06431 8.48747 3.05864 8.47981C2.83373 8.21442 2.96348 8.24503 2.90435 8.02584C2.88273 7.94194 2.84322 7.93944 2.80179 7.9697C2.73586 8.01691 2.65911 8.1418 2.61109 8.14097C2.55787 8.13912 2.46978 8.04977 2.40794 7.97354C2.37254 7.93207 2.34621 7.89364 2.33458 7.87312C2.301 7.81278 2.39241 7.81712 2.35819 7.77191C2.14728 7.46993 2.12089 7.814 1.9878 7.77679C1.66838 7.66805 1.7167 7.30556 1.59274 7.0892C1.55843 7.02851 1.54184 7.10972 1.50166 7.06165C1.34469 6.86779 1.34002 6.70021 1.14178 6.49465C1.10927 6.46181 0.866035 6.33485 0.903745 6.15415C0.909319 6.12859 0.992749 6.15058 0.959597 6.05278C0.913523 5.91661 0.815984 5.68915 0.727038 5.55012C0.720499 5.53988 0.714019 5.53012 0.707624 5.52092C0.638551 5.42212 0.608065 5.59191 0.567903 5.44444C0.54968 5.37883 0.662136 5.45891 0.622876 5.3378C0.613616 5.30938 0.597634 5.27171 0.577862 5.23024C0.502303 5.08391 0.444884 4.86651 0.43068 4.7689C0.410754 4.64148 0.341779 4.7203 0.334833 4.71091C0.292228 4.64983 0.249434 4.38909 0.253405 4.3665C0.259089 4.15886 0.291261 3.96108 0.335557 3.7719C0.366125 3.64185 0.402726 3.51565 0.442862 3.39236C0.759622 2.559 1.52996 2.31551 2.1774 2.02408C2.25373 1.99294 2.17324 1.92894 2.18459 1.92334C2.44278 1.79536 2.30472 2.088 2.51179 2.10408C2.43244 1.942 2.55141 1.93657 2.73634 1.86593C2.82564 1.83202 2.75824 1.77771 2.76479 1.76854C2.87697 1.62853 3.00653 1.73992 3.03671 1.76211C3.14955 1.843 3.2229 1.70166 3.29934 1.75787C3.37388 1.81446 3.25281 1.94209 3.43403 1.90713C3.47421 1.83277 3.30539 1.68882 3.4422 1.6351C3.51265 1.60764 3.59287 1.58379 3.68085 1.56376C3.7977 1.53714 3.9261 1.51739 4.06116 1.50498C4.78515 1.49114 5.16839 2.01183 5.39681 2.19514C5.71759 2.49966 5.8184 2.59834 5.97092 2.80177C6.23596 3.17551 6.23649 2.9552 6.47484 3.13094C6.71154 3.31058 6.32867 3.43136 6.29119 3.51225C6.25184 3.59239 6.34318 3.57585 6.33757 3.64168C6.33137 3.70723 6.22511 3.65651 6.27964 3.75763C6.33364 3.85779 6.632 4.02591 6.72639 4.01026C6.92571 3.97602 7.0006 3.748 7.12439 4.03994C7.1312 4.05679 7.01439 4.06694 7.04458 4.12847C7.06569 4.17101 7.08735 4.21379 7.10911 4.2563C7.1688 4.37293 7.23107 4.48992 7.29274 4.60585C7.46871 4.93516 7.63106 5.27612 7.72327 5.62994C7.74153 5.702 7.60669 5.68519 7.61574 5.72746C7.69596 6.16378 7.82814 5.94526 8.11858 6.12828C7.81328 6.15492 7.68397 6.33214 7.73749 6.64411C7.76645 6.83347 7.89059 6.78313 7.9973 6.9035C8.00933 6.91674 8.00587 6.94873 7.9998 6.98158C7.99019 7.03685 7.97376 7.0982 8.01284 7.11198C8.21405 7.17437 8.42874 7.08491 8.36839 7.34081C8.36743 7.34793 8.36634 7.35493 8.3651 7.36171C8.36261 7.37503 8.24789 7.34924 8.24745 7.3947C8.24613 7.42579 8.2528 7.45882 8.25448 7.45751C8.24825 7.4527 8.2736 7.45417 8.19836 7.38445C8.09123 7.29229 7.92075 7.37701 7.9186 7.39116C7.8676 7.43204 7.89069 7.361 7.87567 7.32386C7.859 7.23388 7.83476 7.12804 7.87522 6.95757C7.94014 6.68876 8.19552 6.22869 8.30321 5.91532C8.59902 6.00024 8.60746 5.68362 8.44606 5.50791C8.51411 5.30464 8.57095 5.07902 8.66146 4.8882C8.69236 4.82299 8.75646 4.89215 8.76775 4.88621C8.94215 4.79635 8.79099 4.65224 8.80055 4.60382C8.8745 4.25524 9.02333 3.9866 9.2158 3.69077C9.26163 3.62446 9.30754 3.5588 9.35193 3.49002C9.38863 3.43317 9.42453 3.37391 9.45838 3.31107C9.46686 3.29559 9.35256 3.14083 9.54438 3.14313C9.5568 3.1446 9.50202 3.31895 9.67081 3.16227C9.84054 3.0028 10.2306 2.80804 10.4245 2.54487C10.4708 2.48138 10.5285 2.22737 10.7308 2.24437C10.7578 2.24713 10.7734 2.30889 10.8164 2.3191C10.9433 2.34889 10.89 2.18008 11.0299 2.21832C11.0428 2.22159 11.0572 2.22668 11.0731 2.23397C11.1427 2.26589 11.22 2.28744 11.2975 2.29518C11.4377 2.30851 11.5695 2.27851 11.7325 2.16366C11.7392 2.15875 11.7794 1.97846 11.8825 1.97082C12.0433 1.95721 12.2664 2.00164 12.4274 2.02502C12.505 2.03586 12.4712 1.9261 12.485 1.92623C12.5368 1.92871 12.5868 1.93352 12.6354 1.94013C12.701 1.94947 12.7641 1.96782 12.8225 1.99368C13.2379 2.19724 13.3326 2.59713 13.4246 3.02529C13.431 3.05706 13.4571 3.1032 13.4874 3.15891C13.5127 3.20533 13.5391 3.26375 13.5565 3.32444C13.5856 3.42508 13.5905 3.53761 13.538 3.62533C13.3969 3.8476 12.8469 3.61185 12.9347 4.0718C12.9633 4.24916 13.6697 4.63409 13.2094 4.91964C13.1581 5.63482 12.7615 6.19855 12.6553 6.90893C12.6504 6.94076 12.8321 7.11816 12.8018 7.18879C12.7563 7.29275 12.6315 7.30924 12.5945 7.38051C12.4644 7.62571 12.4145 7.88448 12.3115 8.12873C12.3105 8.13076 12.3071 8.13637 12.3059 8.13824C12.2885 8.16661 12.2703 8.19466 12.2511 8.22227C12.2382 8.24095 12.2248 8.25942 12.2108 8.27765C12.1362 8.37551 12.0657 8.27357 11.9763 8.38946C11.887 8.50487 11.9563 8.67374 11.7806 8.7919C11.6474 8.88096 11.3029 8.81657 11.1559 8.9533C11.4053 9.14379 11.32 9.25016 11.2437 9.4944C11.229 9.54165 11.3472 9.56638 11.3448 9.59212C11.3371 9.69863 11.2149 9.71065 11.2136 9.81656C11.2131 9.84214 11.2995 9.90745 11.3041 9.93203C11.3468 10.1437 11.0087 10.1895 10.9501 10.1961C10.727 10.2236 10.7963 10.367 10.6725 10.4246C10.5492 10.4812 10.5935 10.2905 10.4782 10.3778C10.2396 10.5582 10.0251 10.8641 9.84083 11.0905C9.76659 11.1828 9.93256 11.2103 9.92462 11.2256C9.80401 11.4403 9.52862 11.5329 9.6737 11.8229C8.9745 11.4743 9.64105 11.9834 9.29923 12.1566C9.27269 12.169 8.97389 11.9634 8.99892 11.8507C9.02367 11.7384 9.2109 11.688 9.23773 11.5235C9.24403 11.485 9.10283 11.1219 9.10377 11.0881C9.10872 10.827 9.54812 11.1377 9.57855 11.1468C9.90678 11.2454 9.77061 10.8311 9.7892 10.7671C9.87664 10.4698 10.0864 10.3216 10.169 10.0809C10.2243 9.92286 9.95526 9.7029 10.0398 9.61082C10.3177 9.30905 10.7902 9.47773 10.6881 8.9224C10.6666 8.80364 10.3157 8.64972 10.7307 8.58572C10.7568 8.58227 11.105 8.56153 11.0432 8.36058C11.0354 8.33535 10.9473 8.27292 10.9524 8.25076C10.9884 8.10364 11.1139 8.07777 11.1706 7.93044C11.2129 7.82084 11.2556 7.69151 11.3289 7.58252C11.3472 7.55534 11.3673 7.5295 11.3898 7.50561L11.3105 7.64132C11.3171 7.63204 11.324 7.62293 11.3314 7.61403C11.3948 7.53768 11.6293 7.50627 11.694 7.48163C11.8789 7.41456 11.7313 7.19082 11.9193 7.17756C12.1081 7.16133 12.2759 7.41892 12.4655 7.24316C12.2176 7.13371 11.9675 7.01202 11.7201 6.89906C11.9222 6.45881 12.1753 6.03212 12.3152 5.56007C12.3322 5.50176 12.1809 5.52352 12.1957 5.46081C12.2587 5.19744 12.4192 4.99083 12.4498 4.71339C12.4726 4.49867 12.3864 4.25069 12.3868 4.04756C12.6797 3.95438 12.6223 3.628 12.6365 3.47456C12.6379 3.46259 12.6422 3.45296 12.6484 3.44492C12.6701 3.41733 12.7155 3.40698 12.7299 3.37722C12.7368 3.36345 12.7407 3.35324 12.7424 3.34563C12.737 3.19896 12.5706 3.32378 12.5303 3.28301C12.3461 3.12156 12.8254 2.92729 12.7053 2.72164C12.6912 2.69772 12.4436 2.79085 12.4463 2.81771C12.3844 2.89359 12.5 2.74508 12.5008 2.72109C12.5008 2.71651 12.5009 2.71188 12.5008 2.70725C12.5004 2.69554 12.4981 2.68277 12.4901 2.67259C12.3954 2.63511 12.2959 2.61412 12.1755 2.65293C12.1123 2.67105 12.006 2.82933 11.9083 2.72146C11.8943 2.70734 11.8883 2.62309 11.8774 2.61984C11.6726 2.57619 11.7437 2.84204 11.7095 2.95244C11.7018 2.97692 11.6882 2.99104 11.6699 2.99876C11.6404 3.01118 11.5972 3.00707 11.5512 2.99973C11.4691 3.00547 11.3927 2.99668 11.3616 2.98913C11.1785 2.94643 11.4108 2.88833 11.4089 2.87383C11.3887 2.69778 11.2567 2.81574 11.137 2.87917C10.9735 2.67921 10.8248 2.80125 11.0139 2.94611C11.0346 2.96195 11.1076 2.88451 11.137 2.87917C11.1828 3.15211 11.0347 3.2773 10.7123 3.22772C10.5617 3.20671 10.5634 3.04795 10.3357 3.28304C10.2345 3.39045 10.3856 3.4799 10.3186 3.59227C10.2267 3.74835 10.0565 3.85797 9.91556 3.9775C9.86594 4.01933 9.81992 4.06157 9.78359 4.1037C9.76508 4.12256 9.74217 4.1582 9.72767 4.19448C9.69494 4.27692 9.81105 4.24243 9.79346 4.29836C9.7481 4.4507 9.62878 4.58619 9.60334 4.78334C9.60138 4.801 9.70284 4.79175 9.68699 4.84898C9.56956 5.29137 9.42222 5.68953 9.31517 6.19053C9.26325 6.43358 9.23322 6.88746 9.1594 7.15232C9.11653 7.30508 9.05831 7.45905 8.96823 7.65218C8.94611 7.69836 8.91821 7.75704 8.88371 7.81956C8.86545 7.85299 8.83931 7.90055 8.80649 7.94983C8.79325 7.96947 8.7594 8.02076 8.71972 8.06687C8.66962 8.1167 8.65634 8.16493 8.44939 8.28462C8.35285 8.33512 8.21217 8.38158 8.04949 8.37683C7.87759 8.37405 7.7076 8.30507 7.60019 8.22598C7.3658 8.03353 7.39185 7.99748 7.34247 7.92246C7.27569 7.77848 7.27991 7.75052 7.26573 7.69364C7.2449 7.58325 7.24708 7.54918 7.24203 7.4795C7.23536 7.21464 7.25086 7.1609 7.23111 7.04478C7.22943 7.03498 7.22754 7.02518 7.22542 7.01542C7.17866 6.81173 7.06754 6.87355 6.97879 6.80299C6.80997 6.67804 7.00285 6.33941 7.02647 6.28057C7.02807 6.27839 7.1014 6.44413 7.13238 6.33513C7.23384 6.24464 7.02735 6.28207 7.02647 6.28057C7.04883 6.2474 6.95236 5.89182 6.90004 5.83257C6.87393 5.80044 6.7851 5.86446 6.77345 5.8472C6.63162 5.63628 6.49085 5.42623 6.34859 5.20774C6.28215 5.10559 6.21682 5.00095 6.15367 4.89575C6.08026 4.77351 6.00985 4.64937 5.94152 4.52273C5.93784 4.51342 6.03813 4.46028 6.02817 4.43914C5.88977 4.14176 5.66088 4.05462 5.44874 3.89514C5.23554 3.73585 5.13799 3.56445 5.17366 3.32713C5.0353 3.19534 4.90879 2.9433 4.82832 2.80597C4.74683 2.66719 4.61014 2.80987 4.59889 2.80428C4.29418 2.67263 4.13917 2.54654 4.15809 2.51474C4.11628 2.5139 4.06849 2.5148 4.02188 2.51714C3.96663 2.51994 3.89829 2.52703 3.82283 2.53799C3.60363 2.56896 3.32943 2.63463 3.16433 2.68467C2.98921 2.73766 2.87142 2.72401 2.71866 2.79379C2.69813 2.80322 2.74294 2.8717 2.73727 2.87642C2.59133 3.01508 2.61645 2.81046 2.5692 2.78906C2.39891 2.71379 2.28648 2.68101 2.09162 2.82414C2.04447 2.85814 2.02395 3.16234 1.96057 3.21357C1.87489 3.28202 1.86014 3.18022 1.77706 3.25767C1.77047 3.26427 1.80277 3.31238 1.7492 3.34512C1.56051 3.4606 1.4386 3.58409 1.41178 3.66087C1.38074 3.7606 1.35485 3.85905 1.33635 3.95426C1.33337 3.96927 1.34047 3.97571 1.35151 3.97928C1.3577 3.98129 1.36513 3.9824 1.37274 3.98362C1.37921 3.98465 1.38581 3.98576 1.39191 3.98753C1.40894 3.99247 1.4219 4.00264 1.41744 4.03043C1.35823 4.36423 1.37673 4.66554 1.39061 4.76097C1.39271 4.78774 1.32854 4.80477 1.31458 4.81915C1.31353 4.82035 1.31253 4.82154 1.31158 4.82271C1.28912 5.00099 1.52453 5.0958 1.54252 5.12325C1.54378 5.12515 1.54503 5.12704 1.54628 5.12893C1.97173 5.77128 2.06466 6.33596 2.51129 6.73945C2.53917 6.76805 2.8255 6.79028 2.79186 6.96551C2.78763 6.97605 2.76571 7.17127 2.90342 7.12384C2.91099 7.12029 2.91201 7.02662 2.98201 7.07283C2.98579 7.07526 2.98976 7.07793 2.99393 7.08085C3.05974 7.12704 3.1637 7.1727 3.26299 7.23444C3.34599 7.28609 3.42619 7.34864 3.48334 7.43358C3.52518 7.49406 3.56921 7.71862 3.81216 7.70992C3.82657 7.708 4.25602 7.61277 4.23679 7.84957C4.23307 7.88828 4.09805 8.06752 4.36261 8.09809C4.41375 8.10393 4.37001 8.01723 4.4898 8.05567C4.67389 8.11445 4.84848 8.29754 5.09766 8.33958C5.14115 8.34665 5.37119 8.31259 5.42085 8.48618C5.42844 8.51328 5.35162 8.5533 5.40719 8.6006C5.67127 8.82621 6.00056 8.99166 6.25623 9.24279C6.3466 9.33173 6.22049 9.3936 6.30513 9.49763C6.39 9.60158 6.57845 9.78555 6.72193 9.82555C6.86584 9.86565 6.87202 9.6157 7.04609 9.73271C7.44023 9.9994 7.7974 10.3238 8.13046 10.6838C8.12075 10.6745 8.11485 10.6681 8.08522 10.6421C8.05974 10.6217 8.05681 10.6127 7.95873 10.5489C7.90611 10.5199 7.84903 10.4724 7.64957 10.4223C7.5483 10.4014 7.39394 10.3734 7.16391 10.4332C7.05589 10.4631 6.91281 10.5198 6.76777 10.6456C6.6291 10.7653 6.5354 10.9199 6.48792 11.0487C6.34063 11.5748 6.47585 11.6572 6.48565 11.7509C6.50214 11.7945 6.50811 11.8064 6.51738 11.8268C6.62554 12.0298 6.59705 11.9589 6.61489 11.9899C6.62971 12.0088 6.63195 12.0102 6.63432 12.0125C6.63806 12.0154 6.63575 12.0113 6.6331 12.0072C6.62741 11.9984 6.61776 11.9862 6.60891 11.9756C6.58035 11.9384 6.49756 11.9766 6.5443 12.0561C6.45099 12.0641 6.34732 12.0628 6.25835 12.025C6.17277 11.9887 6.08644 11.9534 5.99608 11.9181C5.87804 11.8716 5.94592 11.9927 5.76695 11.9286C5.10267 11.7025 3.88461 11.2611 3.39447 10.7628C3.00628 10.3746 3.63197 10.6002 3.31538 10.3519C3.16546 10.2341 2.8463 10.3619 2.8006 10.3421C2.36046 10.1611 2.15939 9.8617 1.80475 9.59915C1.73132 9.54347 1.72801 9.68693 1.66578 9.6374C1.45055 9.46593 1.27894 9.2177 1.09933 9.00876C1.01814 8.91358 0.969355 8.98289 0.903811 8.88439C0.747479 8.64675 0.639607 8.40424 0.58406 8.11156C0.579665 8.08623 0.738347 8.1949 0.656339 8.00736C0.655934 8.00638 0.655521 8.00538 0.655099 8.00438C0.616041 7.91167 0.581957 7.80535 0.547636 7.69317C0.483999 7.48561 0.422456 7.25957 0.321159 7.04958C0.275773 6.95404 0.10118 6.99144 0.177307 6.73345C0.195109 6.67858 0.403834 6.70486 0.193672 6.46769C0.153575 6.43654 -0.11049 5.97018 0.0664501 5.73028C0.11046 5.66788 0.286019 5.52573 0.281206 5.39565C0.280216 5.37731 0.180999 5.43893 0.190971 5.32849C0.209861 5.1414 0.252201 4.95246 0.308353 4.76824C0.334645 4.68339 0.361663 4.5979 0.38818 4.51144C0.412189 4.43316 0.436259 4.35417 0.459387 4.27469C0.484586 4.18888 0.35524 4.28863 0.396748 4.16072C0.511128 3.80928 0.734075 3.37463 0.962108 3.03911C1.04659 2.91568 1.04953 3.0332 1.06131 3.02696C1.24683 2.93313 1.17531 2.77486 1.20357 2.71992C1.37812 2.38707 1.63526 2.19445 1.93046 1.9458C2.01465 1.87777 1.9128 1.87056 1.92669 1.85298C2.08415 1.6743 2.0105 1.86699 2.1376 1.80126C2.13781 1.80116 2.13802 1.80107 2.13823 1.80097C2.21131 1.76775 2.28459 1.7316 2.35915 1.69298C2.57027 1.58359 2.78989 1.4615 3.01054 1.35726C3.12071 1.30591 2.96398 1.29057 3.06547 1.24517C3.48336 1.06753 3.99743 0.887511 4.64732 1.01418C4.72774 1.03208 4.80655 1.05294 4.88345 1.07637C5.00578 1.11364 5.12329 1.15754 5.23498 1.20629C5.34728 1.25638 5.25442 1.28422 5.27355 1.30556C5.40051 1.45159 5.67191 1.44113 5.72969 1.45808C5.98582 1.52872 6.04672 1.62591 6.23964 1.73695C6.36225 1.80866 6.48435 1.8874 6.60489 1.97168C6.65068 2.00356 6.69672 2.03601 6.74293 2.06896C7.44448 2.57005 8.19466 3.1767 8.7571 3.78186C9.16569 4.2542 9.59284 4.68318 9.71172 5.56161C9.71596 5.6155 9.71867 5.66653 9.72056 5.71694C9.72743 5.922 9.7513 6.11168 9.76206 6.33384C9.7658 6.44746 9.77108 6.56075 9.74267 6.73207C9.72072 6.82398 9.72167 6.91365 9.58269 7.13875C9.50824 7.23965 9.34708 7.48803 8.91021 7.55752C8.47084 7.59954 8.25395 7.40619 8.1493 7.32744C8.0619 7.26087 7.98999 7.19518 7.92378 7.12377C7.81743 7.00849 7.72077 6.88661 7.62984 6.75004C7.57235 6.66137 7.53818 6.81184 7.4867 6.73249C7.12844 6.20055 6.97877 5.32433 7.26744 4.63865C7.29707 4.56478 7.32774 4.4911 7.35924 4.4177C7.49443 4.10321 7.64899 3.79787 7.82182 3.49394C7.86006 3.42783 7.71929 3.47537 7.77944 3.36695C7.9026 3.14401 8.10033 2.87859 8.29681 2.69151C8.39212 2.60074 8.34074 2.78184 8.43467 2.69087C8.6544 2.48035 8.89208 2.25179 9.15124 2.03789C9.26313 1.94715 9.03064 2.00563 9.18517 1.89206C9.38168 1.75087 9.60082 1.62156 9.84456 1.52008C9.90903 1.49324 9.97448 1.46761 10.0409 1.44336C10.6233 1.22736 11.3104 1.12994 11.9684 1.27242C12.0236 1.28441 12.0793 1.29761 12.1355 1.31223C12.3637 1.372 12.6008 1.45145 12.8442 1.57575C12.9298 1.62095 12.9217 1.81803 13.114 1.88673C13.1545 1.84964 13.186 1.79657 13.2216 1.75239C13.5108 1.91765 13.8227 2.19346 14.0095 2.56943C14.0284 2.6067 14.0489 2.64765 14.0695 2.69019C14.4102 3.29595 14.4519 4.3793 14.08 5.0823C14.064 5.1169 14.0481 5.15162 14.0326 5.1865C13.8154 5.67339 13.587 6.15348 13.3561 6.63341C13.3298 6.68785 13.455 6.63155 13.4045 6.73722C13.1118 7.34938 12.8394 7.9467 12.4415 8.51862C12.4021 8.57537 12.2803 8.47121 12.2076 8.66052C12.1946 8.69485 12.0722 8.97051 12.0646 9.0566C12.0641 9.06839 12.1545 9.05402 12.1104 9.14113C11.8534 9.6456 11.5519 10.1597 11.2377 10.6303C11.1867 10.7065 11.1662 10.5837 11.1294 10.6375C10.8705 11.0164 10.6748 11.4802 10.403 11.8228C10.2226 12.0507 10.1552 11.8947 9.96696 11.965C9.9382 11.9781 9.86052 12.1223 9.78649 12.1012C9.59965 12.043 9.45206 11.8617 9.24918 11.8071C9.21576 11.8208 9.15198 11.891 9.09662 12.1483C9.09661 12.1483 9.0966 12.1483 9.0966 12.1483C9.07788 12.1506 9.08992 11.956 9.09085 11.9077C9.10233 11.8498 9.15689 11.6622 9.14765 11.6029C9.14007 11.5632 9.04382 11.5779 9.04609 11.5045C9.05131 11.426 9.14038 11.3993 9.15845 11.2879C9.17474 11.1792 9.07601 11.1731 9.16747 10.9877ZM4.42662 2.25625C4.34827 2.12079 4.22809 2.42871 4.35174 2.39999C4.35809 2.39852 4.43036 2.26312 4.42662 2.25625ZM12.5001 6.13955C12.7607 6.00674 12.5164 5.7873 12.3218 5.87651C12.1259 5.96228 12.4205 6.17817 12.5001 6.13955ZM11.8174 8.08457C11.8817 8.06149 11.9026 8.02081 11.896 7.97591C11.8789 7.85954 11.6787 7.71387 11.574 7.75253C11.542 7.76438 11.5189 7.7935 11.5125 7.84629C11.5103 7.86303 11.801 8.09048 11.8174 8.08457ZM10.281 11.3206C10.2779 11.3188 10.209 11.4341 10.2111 11.4377C10.2527 11.5412 10.3875 11.3158 10.281 11.3206ZM10.6864 9.92756C10.8111 9.92452 10.8528 9.68108 10.6985 9.68464C10.5744 9.68718 10.5315 9.93051 10.6864 9.92756ZM1.70961 6.99729C1.70716 7.00207 1.7586 7.07923 1.7782 7.06216C1.84024 7.00785 1.7477 6.91984 1.70961 6.99729ZM8.44239 12.8364C8.73792 12.3836 9.4726 12.5362 9.01269 12.924C8.93119 12.9976 9.02344 12.6392 8.89057 12.7102C8.67091 12.855 8.78739 13.1655 8.47152 13.2399C8.43484 13.268 8.43862 12.8713 8.44237 12.8352C8.44238 12.8356 8.44238 12.836 8.44239 12.8364ZM4.51072 1.85773C4.50945 1.85085 4.38825 1.80577 4.38332 1.81068C4.29499 1.89119 4.51802 1.97451 4.51072 1.85773ZM5.95981 10.3382C5.96016 10.3495 6.18814 10.5403 6.20058 10.5401C6.43045 10.5031 5.96479 10.1141 5.95981 10.3382ZM8.31255 5.91237C8.23401 5.74619 8.27187 5.57844 8.44573 5.50849C8.39847 5.64206 8.3581 5.77882 8.31255 5.91237Z" fill="black"/>
</svg>
