<svg width="24" height="18" viewBox="0 0 24 18" fill="none" xmlns="http://www.w3.org/2000/svg">
<path d="M0.428395 11.8741C0.223202 11.6253 0.238762 11.449 0.242239 11.3386C0.245523 11.3037 0.284241 11.3158 0.288542 11.2922C0.29761 11.2499 0.276235 11.2117 0.290838 11.1744C0.295851 11.1617 0.354742 11.1733 0.358709 11.1603C0.380226 11.0892 0.364693 11.0309 0.377727 10.9665C0.444067 10.6617 0.501079 10.4 0.568842 10.1293C0.591585 10.0391 0.661609 9.94088 0.655398 9.84546C0.654643 9.83417 0.603335 9.83157 0.599572 9.82877C0.542158 9.78495 0.641538 9.8135 0.658693 9.79566C0.726742 9.72364 0.748784 9.63397 0.745453 9.55037C0.743816 9.5152 0.637863 9.52873 0.700276 9.50656C0.704505 9.505 0.755857 9.52409 0.763342 9.51617C0.780193 9.49826 0.778767 9.45694 0.786336 9.44152C0.801159 9.41198 0.801782 9.40633 0.808395 9.37777C0.817946 9.33863 0.854498 9.29616 0.851833 9.25056C0.851067 9.24098 0.794266 9.24116 0.788163 9.22477C0.782063 9.2084 0.795073 9.17094 0.810734 9.16067C0.826388 9.15043 0.867739 9.16539 0.878007 9.16523C0.964495 9.16468 0.860617 9.09373 0.858965 9.08793C0.846495 9.03123 0.861701 8.98357 0.882982 8.93755C0.883694 8.93446 0.886059 8.92526 0.886926 8.92221C0.892989 8.91075 0.899454 8.89944 0.905954 8.88813C0.924654 8.85557 0.943481 8.82325 0.953808 8.78724C0.974815 8.71353 0.976407 8.62893 0.999647 8.55975C1.02735 8.47797 1.0772 8.41638 1.0957 8.3348C1.09772 8.32616 1.03115 8.31595 1.03346 8.30532C1.05792 8.19258 1.09581 8.08507 1.17179 7.99005C1.17947 7.98063 1.23288 8.01346 1.24404 8.00519C1.31059 7.95371 1.46056 7.88721 1.21561 7.76293C1.23865 7.72093 1.26475 7.66921 1.32925 7.64627C1.37089 7.63137 1.42868 7.6785 1.41055 7.63713C1.40651 7.62783 1.34629 7.61809 1.34447 7.60568C1.33666 7.55354 1.37044 7.50927 1.35325 7.45458C1.34963 7.44333 1.29643 7.42836 1.28772 7.42261C1.2171 7.37523 1.35436 7.38054 1.36605 7.37599C1.45267 7.33909 1.43885 7.28561 1.45681 7.23029C1.46105 7.21739 1.38395 7.20865 1.38534 7.19533C1.39344 7.12653 1.41849 7.06079 1.46964 7.00851C1.48124 6.99687 1.54105 7.03095 1.54989 7.02647C1.58833 7.00653 1.46973 6.95981 1.50401 6.93978C1.51109 6.93557 1.56503 6.95712 1.57137 6.95802C1.67125 6.97234 1.54132 6.913 1.53952 6.90757C1.51479 6.83798 1.66713 6.84916 1.66343 6.78866C1.66278 6.78134 1.58742 6.77257 1.58985 6.7534C1.60531 6.6262 1.66155 6.50382 1.75628 6.40402C1.77097 6.3883 1.82273 6.41966 1.82993 6.4207C1.94325 6.43624 1.80302 6.37746 1.7993 6.36969C1.77407 6.30966 1.91001 6.30371 1.74577 6.21566C1.86622 6.03285 1.82509 5.8004 2.04705 5.65018C2.0497 5.6482 2.12296 5.67585 2.12793 5.6718C2.18874 5.62306 2.06895 5.59934 1.93889 5.51533C1.9062 5.49426 2.0874 5.51594 2.10087 5.517C2.15035 5.52118 2.25859 5.56569 2.26861 5.56508C2.33581 5.55973 2.0793 5.48096 2.0072 5.43431C1.99436 5.42608 1.98734 5.41887 1.98903 5.41327C1.99 5.4123 2.05638 5.43785 2.06407 5.4368C2.07032 5.43597 2.07334 5.43416 2.07484 5.43189C2.07913 5.4254 2.07095 5.41516 2.09041 5.41339C2.15109 5.4081 2.33269 5.45468 2.23853 5.38953C2.22628 5.38119 2.01507 5.32434 2.03511 5.29384C2.04327 5.28177 2.05734 5.22235 2.0759 5.20984C2.09442 5.19743 2.15845 5.22895 2.16173 5.22866C2.26432 5.2108 2.29621 5.23874 2.43497 5.25567C2.57319 5.27245 2.25758 5.18522 2.22528 5.16574C2.19307 5.14633 2.27636 5.13571 2.30433 5.13523C2.3323 5.1348 2.37218 5.15752 2.38878 5.15466C2.49744 5.13518 2.23926 5.08776 2.19413 5.05746C2.0873 4.98578 2.32824 5.02614 2.36091 4.99905C2.36974 4.99175 2.31461 4.98368 2.31205 4.97413C2.3026 4.93659 2.38083 4.93812 2.32507 4.88228C2.31597 4.87316 2.185 4.80349 2.29302 4.81403C2.30858 4.81559 2.36419 4.83998 2.38113 4.83003C2.40652 4.8152 2.42986 4.78178 2.41694 4.75407C2.40732 4.73382 2.30676 4.72512 2.34222 4.71327C2.35804 4.70801 2.40888 4.74067 2.43394 4.72941C2.45896 4.71826 2.46894 4.67409 2.47176 4.65693C2.47452 4.63981 2.39984 4.6285 2.39536 4.62579C2.36985 4.60984 2.34424 4.5683 2.34514 4.56553C2.37683 4.42322 2.53447 4.32525 2.53214 4.17711C2.5321 4.16548 2.45493 4.15253 2.45415 4.15055C2.4329 4.10516 2.62469 4.18784 2.69854 4.17965C2.5451 4.14275 2.5769 4.13464 2.56727 4.10419C2.5625 4.0895 2.50172 4.08068 2.496 4.07794C2.41162 4.03572 2.53073 4.05343 2.55523 4.05631C2.64544 4.06691 2.54644 4.02641 2.60673 4.03328C2.66654 4.03998 2.74678 4.08189 2.75229 4.05638C2.69985 4.03507 2.55289 4.01641 2.53503 3.99138C2.46777 3.89698 2.61471 3.79246 2.64092 3.73754C2.66737 3.6829 2.66231 3.66172 2.69032 3.63282C2.74076 3.58076 2.63153 3.5774 2.59408 3.52829C2.55674 3.47913 2.80564 3.55956 2.86157 3.56749C2.91739 3.57546 2.86272 3.55584 2.89429 3.55645C2.92582 3.55706 2.95941 3.58064 2.97439 3.56759C2.98929 3.55449 2.90287 3.48766 2.84751 3.4686C2.73019 3.42789 2.59923 3.4166 2.65403 3.38631C2.65725 3.38458 2.72158 3.40817 2.73055 3.40072C2.79952 3.34085 2.82096 3.26622 2.88258 3.20414C2.89114 3.1956 2.96176 3.22135 2.96754 3.21654C3.02783 3.1664 2.9004 3.15981 2.77278 3.09586C2.95141 3.14445 3.06598 3.15137 3.07697 3.10522C3.0837 3.07752 3.00428 3.06465 2.95317 3.03436C2.93779 3.02528 2.99584 3.01765 2.95991 3.00589C2.84258 2.96743 2.70399 2.9559 2.76877 2.92071C2.77179 2.91921 2.83575 2.94027 2.84139 2.93403C2.87802 2.89363 2.7545 2.86069 2.75151 2.80784C2.74924 2.76638 2.84096 2.71327 2.86311 2.6712C3.05938 2.71355 3.02306 2.66131 2.89226 2.61623C2.90428 2.58828 2.90365 2.55559 2.92828 2.53135C2.93669 2.523 2.9914 2.54076 2.99773 2.54078C3.09667 2.54135 2.96949 2.50229 2.96583 2.49504C2.93146 2.41719 3.04009 2.38095 2.95922 2.29762C2.95627 2.29464 2.82554 2.26554 2.92532 2.26678C2.93214 2.2669 2.9875 2.29991 2.99846 2.2702C3.00964 2.24049 3.09079 2.196 3.03909 2.14218C3.02658 2.12913 2.92731 2.08395 3.01326 2.0781C3.02489 2.07735 3.06119 2.08716 3.0825 2.08688C3.15031 2.08575 3.02201 2.055 3.13498 2.05972C3.24797 2.06444 3.33489 2.04668 3.26685 1.98976C3.26487 1.98797 3.16514 1.95975 3.16923 1.94646C3.17578 1.92524 3.20219 1.89795 3.2054 1.87521C3.20691 1.86429 3.14345 1.86053 3.14263 1.85846C3.12099 1.77995 3.18558 1.73729 3.22177 1.66288C3.22838 1.64917 3.15319 1.59495 3.22255 1.57744C3.29807 1.55797 3.5876 1.63572 3.52599 1.55317C3.50062 1.51957 3.13947 1.42838 3.33635 1.40566C3.30431 1.29977 3.41045 1.2209 3.35844 1.11238C3.35612 1.1075 3.2612 1.08057 3.26408 1.07031C3.26846 1.05507 3.31458 1.05238 3.31898 1.04161C3.33847 0.996589 3.30599 0.9491 3.3177 0.904927C3.32199 0.888115 3.36643 0.899576 3.37132 0.879426C3.37607 0.859246 3.31885 0.838688 3.35054 0.814379C3.37473 0.796046 3.49589 0.788766 3.51183 0.762205C3.39534 0.747968 3.3997 0.729123 3.37291 0.691877C3.36773 0.684721 3.32683 0.687296 3.32232 0.683689C3.3032 0.668956 3.3377 0.660995 3.31674 0.646718C3.31171 0.643257 3.27268 0.638927 3.26641 0.635874C3.21176 0.609826 3.30347 0.5862 3.31902 0.582036C3.37878 0.566221 3.32987 0.550885 3.35415 0.536479C3.37823 0.522025 3.40363 0.54985 3.41906 0.531643C3.45079 0.493839 3.4489 0.440795 3.45397 0.399656C3.45574 0.383208 3.4056 0.38993 3.4047 0.38747C3.39558 0.352451 3.44982 0.322493 3.35542 0.295336C3.60555 0.29317 3.33322 0.272789 3.38739 0.228602C3.39176 0.225129 3.50738 0.229672 3.52356 0.24592C3.53981 0.262195 3.50204 0.281589 3.5276 0.304456C3.53344 0.309811 3.64266 0.347532 3.64944 0.352036C3.70137 0.386939 3.52305 0.375102 3.51307 0.375761C3.40588 0.383948 3.5242 0.428944 3.5324 0.438876C3.56865 0.483741 3.54085 0.516277 3.56683 0.553546C3.58364 0.577913 3.70558 0.592621 3.70126 0.610151C3.68743 0.66862 3.51133 0.670123 3.65973 0.742524C3.69148 0.758078 3.83013 0.761618 3.71977 0.792592C3.71299 0.794613 3.61098 0.814927 3.67345 0.840722C3.68135 0.843974 3.72218 0.848647 3.72548 0.852118C3.7468 0.875306 3.71349 0.885179 3.7281 0.909437C3.74272 0.933703 3.76526 0.963609 3.74987 0.987469C3.74073 1.00188 3.66127 1.01181 3.64146 1.01668C3.58444 1.03035 3.67406 1.06417 3.6055 1.06831C3.53622 1.07235 3.4356 1.03412 3.38768 1.06172C3.49845 1.07737 3.61209 1.09506 3.72365 1.11165C3.71538 1.18594 3.67344 1.25434 3.67231 1.32971C3.67231 1.33908 3.73493 1.33839 3.73661 1.34869C3.74357 1.39222 3.69613 1.42241 3.71033 1.46864C3.72157 1.50443 3.78593 1.55168 3.80046 1.5898C3.66252 1.59037 3.70373 1.64979 3.68762 1.68581C3.68197 1.69841 3.64504 1.69161 3.63197 1.69908C3.58339 1.72736 3.70806 1.73055 3.72649 1.74347C3.80557 1.79908 3.52549 1.75688 3.52599 1.80684C3.5258 1.80941 3.6727 1.86645 3.68178 1.87252C3.74019 1.9109 3.6287 1.8683 3.61553 1.88387C3.59144 1.91231 3.55214 1.92796 3.59231 1.973C3.60413 1.98615 3.69693 2.02923 3.62018 2.03739C3.61011 2.03846 3.55935 2.02793 3.55608 2.02964C3.50089 2.06119 3.66133 2.09079 3.71334 2.12395C3.76545 2.15718 3.64958 2.17288 3.61615 2.17425C3.52999 2.17805 3.58238 2.15311 3.5743 2.15061C3.47851 2.12085 3.49165 2.14983 3.4805 2.16815C3.32054 2.14177 3.32554 2.1709 3.46956 2.18721C3.48528 2.18894 3.47263 2.17078 3.4805 2.16815C3.63445 2.21419 3.6515 2.24919 3.49907 2.25523C3.42754 2.25798 3.34907 2.22803 3.37097 2.28094C3.38086 2.30496 3.49374 2.31778 3.52137 2.34279C3.58469 2.40013 3.47143 2.43689 3.48074 2.48496C3.48423 2.50248 3.54878 2.49882 3.55336 2.51125C3.56582 2.5443 3.51495 2.56139 3.53429 2.59606C3.53614 2.59923 3.60267 2.6058 3.60211 2.6153C3.59924 2.68762 3.54733 2.74032 3.53394 2.81361C3.52751 2.84899 3.55398 2.92021 3.54025 2.9556C3.51707 3.01697 3.40401 3.07282 3.41776 3.13241C3.42659 3.17117 3.49658 3.17885 3.54057 3.2046C3.62611 3.25458 3.45393 3.26934 3.42709 3.27048C3.42621 3.27049 3.41582 3.23636 3.3773 3.24448C3.30167 3.23702 3.42682 3.27005 3.42709 3.27048C3.40993 3.27136 3.38232 3.32838 3.39317 3.34344C3.39912 3.35165 3.46556 3.36327 3.46744 3.36727C3.51069 3.46187 3.51193 3.54842 3.46414 3.62284C3.4625 3.62396 3.38839 3.60377 3.38545 3.60661C3.34231 3.64614 3.42722 3.6988 3.47362 3.75152C3.51996 3.80419 3.49543 3.83098 3.36098 3.82197C3.37086 3.85566 3.30425 3.88357 3.26387 3.89888C3.22348 3.91418 3.3702 3.95498 3.37265 3.95787C3.45121 4.04861 3.35803 4.06601 3.3288 4.1313C3.31464 4.1625 3.32086 4.2335 3.32878 4.27325C3.33529 4.30478 3.29625 4.31225 3.31239 4.34425C3.31453 4.34857 3.38199 4.3628 3.3843 4.36456C3.45711 4.41492 3.29752 4.35739 3.26698 4.35557C3.15589 4.34886 3.09607 4.34685 3.13675 4.3969C3.146 4.40839 3.37516 4.49664 3.38517 4.51606C3.39767 4.54117 3.31513 4.51053 3.33033 4.53733C3.33155 4.5396 3.38376 4.55343 3.37823 4.56591C3.35328 4.62403 3.30629 4.68132 3.29528 4.74579C3.29359 4.75452 3.37946 4.76668 3.3784 4.77969C3.37342 4.84048 3.35366 4.90394 3.29966 4.94929C3.2861 4.96037 3.23007 4.93505 3.21195 4.93313C3.10215 4.92171 3.24747 4.99112 3.2492 4.99642C3.2945 5.1214 3.13456 5.1601 3.17073 5.2838C3.17303 5.2904 3.32434 5.38304 3.17815 5.36112C3.16841 5.35973 3.01902 5.33649 3.11241 5.38269C3.11826 5.38558 3.19578 5.39551 3.18217 5.41428C3.16855 5.43307 3.20829 5.48132 3.11836 5.4862C3.09003 5.48775 2.94017 5.46633 3.04651 5.52779C3.05397 5.5319 3.30016 5.65175 3.11728 5.6128C3.08719 5.60635 2.89914 5.54684 2.98617 5.60863C3.00306 5.62052 3.04857 5.62198 3.06994 5.64632C3.10025 5.68068 3.05152 5.69844 3.10154 5.74464C3.10593 5.7487 3.11108 5.75298 3.11711 5.75751C3.12264 5.76162 3.14692 5.77474 3.1659 5.78781C3.19239 5.80624 3.20848 5.82463 3.14848 5.81801C3.13237 5.81623 3.0711 5.79152 3.06104 5.79904C3.01285 5.83486 3.03991 5.8945 2.98105 5.92804C2.9604 5.93976 2.8617 5.90002 2.82895 5.90868C2.79621 5.91736 2.75895 5.94341 2.7993 5.97538C2.83962 6.00742 3.00735 6.0381 3.01105 6.06896C3.02681 6.20272 2.89132 6.28667 2.83496 6.39734C2.82658 6.41359 2.88829 6.41756 2.87987 6.44272C2.84927 6.53703 2.83711 6.71044 2.68852 6.75265C2.57052 6.78581 2.5312 6.68322 2.47477 6.71936C2.44815 6.73668 2.61423 6.81983 2.61738 6.82719C2.65108 6.90073 2.55814 6.91328 2.56152 6.97075C2.5622 6.98256 2.63641 6.99552 2.63615 7.0053C2.6358 7.03881 2.59161 7.05952 2.5853 7.08986C2.58263 7.10345 2.63645 7.1185 2.62735 7.1288C2.60622 7.15367 2.57359 7.17053 2.51303 7.18187C2.50756 7.18289 2.4495 7.14463 2.43853 7.16458C2.42079 7.19702 2.35636 7.22201 2.38951 7.2772C2.3996 7.29353 2.51656 7.33286 2.42531 7.33042C2.40623 7.32991 2.26876 7.27692 2.37807 7.34544C2.39659 7.35672 2.53787 7.45877 2.42345 7.44734C2.39333 7.44438 2.27363 7.42252 2.28585 7.44203C2.2879 7.4448 2.35269 7.45796 2.35395 7.47118C2.35705 7.518 2.33285 7.55728 2.33443 7.60443C2.3349 7.61711 2.40467 7.6217 2.40327 7.63989C2.39946 7.68983 2.35912 7.73978 2.32105 7.77699C2.30691 7.79058 2.26088 7.76261 2.25483 7.76193C2.15704 7.7508 2.27368 7.80211 2.27794 7.81073C2.30326 7.86379 2.23417 7.87425 2.23397 7.91486C2.2337 7.92608 2.2935 7.93792 2.29773 7.94158C2.33832 7.97837 2.24297 7.92934 2.22624 7.93853C2.17915 7.96418 2.16714 8.00565 2.15899 8.04471C2.1561 8.059 2.22718 8.06539 2.22377 8.07793C2.20482 8.15225 2.16728 8.22401 2.10436 8.2818C2.09242 8.2926 2.04717 8.26856 2.03499 8.26764C1.95007 8.261 2.04482 8.3234 2.05225 8.33288C2.08651 8.37659 2.03953 8.37352 2.03744 8.40174C2.02771 8.53853 1.94215 8.68251 1.88518 8.79492C1.82404 8.91524 1.75865 9.00864 1.72086 9.12184C1.71711 9.13313 1.71362 9.14458 1.71044 9.15624L1.71727 9.12971C1.71413 9.144 1.71143 9.15853 1.70921 9.17337C1.70768 9.1832 1.77259 9.18776 1.77208 9.1964C1.76297 9.30609 1.71537 9.40496 1.71066 9.51645C1.71018 9.52548 1.77247 9.52558 1.77373 9.54045C1.77669 9.57117 1.7661 9.60554 1.74087 9.63147C1.72874 9.64387 1.68147 9.61411 1.6703 9.62682C1.64416 9.65649 1.63276 9.69079 1.63557 9.72661C1.63683 9.74222 1.7024 9.73219 1.69929 9.75145C1.67986 9.88072 1.66693 10.0081 1.56551 10.1225C1.55853 10.1304 1.43226 10.1172 1.45304 10.1402C1.48748 10.1474 1.52829 10.1541 1.56526 10.1609C1.55453 10.3483 1.48491 10.5248 1.46138 10.7011C1.4604 10.7087 1.52845 10.7019 1.52692 10.7165C1.5184 10.7983 1.53169 10.8771 1.46312 10.9521C1.45644 10.9595 1.33837 10.953 1.35589 10.9764C1.35902 10.981 1.37464 11.0157 1.40044 11.0233C1.40432 11.0243 1.45937 11.0182 1.46109 11.0281C1.47007 11.0871 1.46195 11.1415 1.43421 11.1753C1.42959 11.1807 1.37101 11.1869 1.36732 11.1913C1.33838 11.2268 1.40455 11.2113 1.28609 11.1527C1.19798 11.1225 1.15492 11.2251 1.09388 11.3041C1.08605 11.3153 1.06684 11.313 1.06066 11.3713C1.04747 11.5172 0.996084 11.6708 0.97977 11.8261C0.978698 11.8539 1.06064 11.845 1.0602 11.8723C1.0602 11.8723 1.0602 11.8723 1.0602 11.8723C1.0601 11.8808 1.05347 11.8935 1.03253 11.911C1.02802 11.9188 0.909828 11.9286 0.86803 11.9396C0.839367 11.9495 0.862262 12.021 0.804101 12.0251C0.74408 12.0271 0.713372 11.9567 0.635888 11.9333C0.561641 11.9084 0.526916 11.9764 0.428395 11.8741ZM3.08232 3.96775C3.00583 3.97168 3.26561 4.0421 3.20894 4.00183C3.20589 3.99981 3.08609 3.9675 3.08232 3.96775ZM3.52059 1.23277C3.42794 1.25009 3.5577 1.28891 3.62899 1.27749C3.69972 1.26584 3.54844 1.22737 3.52059 1.23277ZM3.48742 0.916126C3.41688 0.942512 3.69054 0.981869 3.63767 0.937435C3.63467 0.934858 3.49149 0.914565 3.48742 0.916126ZM1.09383 11.334C1.09156 11.3357 1.0921 11.3417 1.09428 11.34C1.1489 11.3035 1.15364 11.301 1.09383 11.334ZM3.45014 0.603639C3.41439 0.610768 3.45171 0.646113 3.49637 0.637289C3.53209 0.630098 3.49436 0.594645 3.45014 0.603639ZM2.49174 5.03638C2.48766 5.03555 2.48039 5.04708 2.50299 5.05343C2.57582 5.07386 2.56045 5.0503 2.49174 5.03638ZM3.48561 0.0852759C3.47368 0.161643 3.27543 0.191961 3.30627 0.111524C3.3116 0.0968765 3.36373 0.148324 3.38275 0.130623C3.41657 0.0979595 3.30086 0.0662207 3.36704 0.0352167C3.37876 0.0294961 3.48646 0.0808707 3.48587 0.0854315C3.48578 0.085379 3.4857 0.0853278 3.48561 0.0852759ZM2.7664 3.90009C2.76285 3.89964 2.75504 3.91638 2.75835 3.91768C2.83868 3.94859 2.85432 3.91473 2.7664 3.90009ZM2.10575 5.71907C2.09795 5.71772 2.07874 5.75553 2.08525 5.75894C2.21667 5.82268 2.25638 5.74631 2.10575 5.71907ZM2.86851 2.6716C2.79554 2.63614 2.79209 2.61156 2.89215 2.61629C2.88273 2.63436 2.87763 2.65342 2.86851 2.6716Z" fill="black"/>
<path d="M7.72205 10.2719C7.72538 10.1931 7.78177 10.1227 7.84255 10.0699C7.86082 10.055 7.90363 10.0838 7.91836 10.0743C7.94711 10.0559 7.93427 10.022 7.96675 10.0048C7.97774 9.99924 8.04712 10.0407 8.05693 10.0342C8.11057 9.99737 8.11069 9.94481 8.14719 9.90278C8.32749 9.69521 8.45896 9.47859 8.60167 9.2588C8.64752 9.18875 8.75909 9.12232 8.76694 9.03191C8.76788 9.02113 8.70187 8.99644 8.69748 8.99221C8.63053 8.92671 8.75419 8.99674 8.77973 8.9869C8.88094 8.94738 8.92499 8.87057 8.93326 8.79115C8.93673 8.75698 8.79706 8.72548 8.88172 8.7302C8.88747 8.73046 8.95102 8.77031 8.96205 8.76579C8.9869 8.75547 8.99165 8.71511 9.00385 8.7035C9.02773 8.68124 9.02919 8.67653 9.04218 8.65176C9.06056 8.61813 9.11397 8.5932 9.1171 8.54835C9.11758 8.53867 9.04374 8.51567 9.0383 8.49719C9.03288 8.47871 9.05535 8.4476 9.07717 8.44405C9.09898 8.4405 9.15052 8.47186 9.16387 8.4759C9.27656 8.51008 9.15067 8.4013 9.14963 8.39441C9.133 8.27457 9.25534 8.23409 9.29655 8.15052C9.32809 8.08613 9.33586 8.00269 9.37041 7.94284C9.41137 7.87262 9.47949 7.82917 9.50912 7.75436C9.51233 7.7465 9.42758 7.715 9.43134 7.70531C9.47082 7.6035 9.52818 7.51159 9.63161 7.44163C9.64198 7.43479 9.7061 7.48283 9.72066 7.47814C9.80828 7.44863 9.99468 7.42557 9.70644 7.23448C9.73904 7.19995 9.77598 7.15793 9.8559 7.15362C9.90736 7.15081 9.97253 7.21223 9.95429 7.16725C9.95026 7.15715 9.87896 7.13127 9.878 7.1187C9.87404 7.06579 9.91844 7.03263 9.90436 6.9747C9.90134 6.96284 9.84013 6.93438 9.8305 6.92653C9.75297 6.86207 9.91403 6.90426 9.92815 6.90259C10.0338 6.88945 10.0229 6.83465 10.0504 6.7857C10.0569 6.77436 9.96921 6.74674 9.97249 6.73433C9.9907 6.67033 10.0282 6.61435 10.0929 6.57639C10.1075 6.56804 10.1702 6.61483 10.1807 6.61265C10.2261 6.60258 10.0994 6.53008 10.1405 6.51908C10.149 6.51668 10.2062 6.5499 10.2132 6.55224C10.3223 6.58905 10.1856 6.50195 10.1845 6.49638C10.1668 6.42426 10.333 6.46948 10.3364 6.41086C10.3367 6.40376 10.2557 6.37838 10.261 6.36074C10.2956 6.24304 10.375 6.13928 10.4891 6.06412C10.5068 6.05233 10.5565 6.09294 10.5639 6.09546C10.6801 6.13405 10.5418 6.04868 10.5391 6.04049C10.5221 5.9778 10.6634 6.00045 10.5069 5.88281C10.6592 5.7341 10.6558 5.505 10.9018 5.40625C10.9048 5.4049 10.9735 5.44571 10.9791 5.44286C11.0472 5.40903 10.9316 5.36243 10.8156 5.25657C10.7864 5.22996 10.9634 5.28671 10.9766 5.29045C11.0251 5.30434 11.1257 5.36825 11.1358 5.36968C11.2153 5.37968 10.8646 5.20287 10.8818 5.16955C10.8829 5.16881 10.9448 5.20646 10.9526 5.20698C10.9772 5.2087 10.9561 5.18687 10.9826 5.18984C11.0438 5.19693 11.2168 5.2779 11.1336 5.19707C11.1228 5.18668 10.922 5.08982 10.9468 5.06495C10.9568 5.05511 10.9806 5.001 11.0011 4.99296C11.0215 4.98494 11.08 5.02807 11.0833 5.02846C11.188 5.03268 11.2152 5.06578 11.3502 5.11071C11.4847 5.15541 11.1855 5.00709 11.1566 4.98185C11.1278 4.95665 11.2123 4.96376 11.2402 4.96918C11.2681 4.97461 11.304 5.0045 11.3209 5.00527C11.4321 5.00971 11.1833 4.91051 11.1435 4.87228C11.049 4.78188 11.282 4.87058 11.319 4.8519C11.329 4.84685 11.2755 4.82746 11.2746 4.81784C11.2715 4.78008 11.349 4.79855 11.3029 4.73352C11.2954 4.72291 11.1768 4.62815 11.2826 4.66153C11.2978 4.66639 11.349 4.70163 11.3676 4.69587C11.3954 4.6873 11.4243 4.66087 11.4161 4.6319C11.41 4.6105 11.3112 4.58015 11.3486 4.5766C11.3653 4.57506 11.4104 4.61735 11.4374 4.61217C11.4643 4.60706 11.4819 4.56734 11.4877 4.55176C11.4934 4.53618 11.4208 4.50866 11.4168 4.50509C11.3941 4.48423 11.3756 4.43907 11.377 4.43664C11.4334 4.30746 11.6086 4.25196 11.6333 4.11056C11.6354 4.09953 11.5599 4.06847 11.5594 4.0664C11.5461 4.01809 11.7248 4.14327 11.8009 4.15376C11.6526 4.08116 11.6861 4.08144 11.6819 4.05014C11.6798 4.035 11.6199 4.01165 11.6146 4.00763C11.5369 3.94663 11.6542 3.99272 11.6785 4.00156C11.768 4.03401 11.6751 3.97088 11.735 3.99243C11.7944 4.01378 11.868 4.07352 11.8784 4.05084C11.8291 4.01748 11.6835 3.96294 11.6699 3.93465C11.6187 3.82769 11.7871 3.76573 11.8246 3.7205C11.8621 3.67533 11.8609 3.65393 11.8952 3.63411C11.9571 3.59837 11.8452 3.56541 11.8156 3.50824C11.7862 3.45099 12.0284 3.59636 12.0847 3.61936C12.1409 3.64244 12.0882 3.60874 12.1208 3.61817C12.1533 3.62762 12.1835 3.65908 12.2016 3.65114C12.2198 3.64319 12.1433 3.55646 12.0895 3.52246C11.9755 3.45065 11.8415 3.40306 11.9043 3.38934C11.908 3.38859 11.9704 3.42933 11.9812 3.42475C12.0647 3.38723 12.1018 3.32294 12.1791 3.28289C12.1898 3.27744 12.2592 3.3229 12.2662 3.32015C12.3402 3.29161 12.207 3.24669 12.0845 3.1471C12.264 3.24756 12.3841 3.28889 12.4059 3.2492C12.419 3.22538 12.337 3.18855 12.2887 3.14405C12.2742 3.13066 12.3378 3.14173 12.3018 3.11936C12.1842 3.04619 12.0386 2.99171 12.1144 2.97853C12.118 2.97806 12.1822 3.01829 12.1895 3.01412C12.2332 2.98945 12.1293 2.92739 12.1183 2.87751L12.1114 2.89195C12.1113 2.89171 12.1113 2.89147 12.1112 2.89123C12.1102 2.88735 12.1098 2.88352 12.11 2.87976C12.113 2.83956 12.2214 2.81398 12.2525 2.77985C12.4626 2.87205 12.4307 2.81243 12.2932 2.7357C12.3107 2.71269 12.3153 2.68168 12.3464 2.6651C12.3571 2.65936 12.4145 2.6902 12.4215 2.69184C12.5303 2.71762 12.3964 2.64838 12.3936 2.64061C12.3686 2.55906 12.493 2.55127 12.4191 2.45378C12.4163 2.45023 12.2798 2.39205 12.3876 2.41703C12.395 2.41873 12.4492 2.46287 12.4661 2.43751C12.4833 2.41277 12.5772 2.38883 12.531 2.327C12.5198 2.31177 12.4228 2.24818 12.5145 2.26147C12.5269 2.26328 12.5635 2.28031 12.586 2.28463C12.6574 2.29802 12.5278 2.24192 12.6453 2.2703C12.763 2.29854 12.855 2.29885 12.7926 2.23095C12.7908 2.22881 12.6922 2.18198 12.6985 2.17031C12.7085 2.15175 12.7397 2.13111 12.7464 2.11012C12.7496 2.10006 12.6855 2.0843 12.685 2.08218C12.6756 2.00409 12.7477 1.97654 12.7952 1.91259C12.8039 1.90078 12.7372 1.83602 12.8091 1.83206C12.8875 1.82735 13.164 1.95306 13.1155 1.8643C13.0959 1.82838 12.7487 1.67574 12.9496 1.69094C12.9468 1.67226 12.9484 1.65527 12.9526 1.63932C12.9526 1.63921 12.9526 1.63911 12.9527 1.639C12.9725 1.56457 13.0503 1.51277 13.0214 1.42007C13.0199 1.41502 12.9246 1.36889 12.9291 1.35973C12.9361 1.34621 12.9853 1.3539 12.9917 1.34473C13.02 1.30673 12.9931 1.25441 13.0131 1.21533C13.0205 1.20046 13.0668 1.22197 13.0757 1.20423C13.0846 1.18649 13.0253 1.15295 13.0644 1.13792C13.094 1.12664 13.23 1.15078 13.2535 1.13052C13.126 1.08695 13.1344 1.07046 13.111 1.02834C13.1064 1.02022 13.0598 1.01176 13.0554 1.00715C13.0363 0.988086 13.0766 0.989797 13.0553 0.970628C13.0502 0.965992 13.0066 0.951319 12.9999 0.946707C12.9418 0.906937 13.05 0.909434 13.0689 0.90994C13.1404 0.911674 13.0867 0.883468 13.1174 0.876722C13.148 0.870001 13.1724 0.903438 13.1938 0.89081C13.2382 0.86461 13.247 0.814865 13.2615 0.778064C13.267 0.763291 13.2053 0.754071 13.2048 0.751506C13.2003 0.715662 13.2727 0.705063 13.1623 0.649239C13.4695 0.727812 13.1395 0.6209 13.2142 0.596731C13.2203 0.59487 13.3636 0.637742 13.38 0.658045C13.3964 0.678338 13.3453 0.683827 13.3716 0.713187C13.3777 0.720124 13.5023 0.789588 13.5092 0.795705C13.5632 0.843578 13.3499 0.776695 13.3378 0.774237C13.2067 0.748478 13.3397 0.826948 13.3469 0.838348C13.3799 0.890484 13.3396 0.912015 13.3617 0.953765C13.3758 0.981 13.5141 1.02927 13.5045 1.04376C13.4728 1.09194 13.2729 1.04582 13.4243 1.15164C13.4566 1.17427 13.6119 1.21425 13.4798 1.21274C13.4715 1.21264 13.3528 1.20466 13.4164 1.2441C13.4244 1.24907 13.4687 1.26375 13.4715 1.26771C13.4895 1.29395 13.4502 1.29436 13.4604 1.31984C13.4707 1.34532 13.4879 1.37758 13.4653 1.39525C13.4518 1.40592 13.3635 1.39597 13.3412 1.39578C13.2769 1.39487 13.3656 1.44645 13.2914 1.43442C13.2168 1.42237 13.1169 1.364 13.0611 1.37901C13.1756 1.41845 13.2927 1.46035 13.4077 1.50068C13.3816 1.56562 13.3227 1.61847 13.3056 1.68668C13.3036 1.69517 13.3682 1.70734 13.3676 1.71697C13.3663 1.73748 13.3516 1.75218 13.3381 1.76747C13.338 1.76755 13.3379 1.76764 13.3378 1.76773C13.3246 1.78262 13.3126 1.79817 13.3153 1.82029C13.3197 1.85519 13.3757 1.9107 13.3838 1.94886C13.2457 1.92399 13.2777 1.98726 13.2567 2.01853C13.2494 2.02948 13.2135 2.01641 13.1995 2.02113C13.1472 2.03925 13.2711 2.06483 13.2878 2.08049C13.3598 2.14808 13.0857 2.05714 13.0796 2.10501C13.079 2.10734 13.2196 2.1892 13.2282 2.1969C13.2827 2.24494 13.1754 2.18306 13.1604 2.19572C13.1331 2.21896 13.0914 2.22669 13.1274 2.27821C13.1379 2.29319 13.2283 2.35333 13.1493 2.34657C13.1389 2.34568 13.0882 2.32549 13.0846 2.32653C13.0247 2.34647 13.1863 2.40713 13.237 2.45046C13.2881 2.49386 13.1674 2.48663 13.1324 2.4809C13.0426 2.46692 13.0994 2.45315 13.0912 2.44904C12.9949 2.4003 13.0056 2.43119 12.9919 2.44688C12.8279 2.38782 12.8294 2.41664 12.9784 2.46316C12.9947 2.46813 12.9833 2.44791 12.9919 2.44688C13.1474 2.52381 13.1631 2.56319 13.0021 2.5361C12.9264 2.52328 12.8468 2.47712 12.8635 2.53315C12.8711 2.55873 12.9896 2.59668 13.0164 2.62733C13.0781 2.69823 12.9531 2.7085 12.9571 2.7579C12.9588 2.77595 13.0291 2.78773 13.0327 2.80104C13.0426 2.83667 12.9853 2.84115 13.0021 2.87991C13.0037 2.8835 13.0755 2.90622 13.0737 2.91551C13.062 2.98626 12.9977 3.02485 12.9711 3.09221C12.9584 3.12476 12.9747 3.20068 12.9525 3.23008C12.9461 3.23877 12.9369 3.24672 12.926 3.25421C12.9258 3.25435 12.9256 3.25448 12.9254 3.25462C12.9227 3.26052 12.9144 3.27799 12.9114 3.28375C12.8566 3.31519 12.7636 3.33316 12.7644 3.38185C12.7648 3.42001 12.8381 3.44929 12.879 3.48662C12.9585 3.55889 12.7706 3.51818 12.7419 3.51098C12.741 3.51072 12.7379 3.4763 12.6949 3.47173C12.616 3.4414 12.7418 3.51052 12.7419 3.51098C12.7233 3.50654 12.6811 3.54977 12.6892 3.56684C12.6936 3.57614 12.7614 3.60706 12.7624 3.61127C12.7863 3.71052 12.7674 3.78839 12.7003 3.84275C12.6983 3.84329 12.6253 3.8033 12.6216 3.80507C12.5678 3.82859 12.645 3.90097 12.6815 3.96205C12.718 4.0231 12.6864 4.04032 12.5492 3.99455C12.5522 4.02801 12.4774 4.03524 12.4325 4.0385C12.3877 4.04176 12.5301 4.11902 12.532 4.12231C12.5937 4.22621 12.4943 4.21656 12.4509 4.26908C12.43 4.29392 12.422 4.36058 12.4219 4.39926C12.4221 4.4299 12.381 4.42684 12.3911 4.46014C12.3924 4.46462 12.458 4.49476 12.46 4.49696C12.5239 4.56134 12.3734 4.46838 12.3428 4.459C12.2315 4.42482 12.1715 4.40818 12.2029 4.46461C12.2101 4.47759 12.4245 4.61566 12.4308 4.63581C12.4385 4.66181 12.3611 4.6134 12.3713 4.64168C12.3721 4.64407 12.4221 4.66957 12.4141 4.67964C12.3776 4.72677 12.3193 4.76818 12.2963 4.82469C12.293 4.83231 12.377 4.86386 12.3735 4.87554C12.3569 4.93033 12.3256 4.98359 12.2633 5.0131C12.2478 5.02024 12.1963 4.98401 12.1785 4.97809C12.0708 4.94247 12.2036 5.04001 12.2044 5.04518C12.2276 5.17019 12.0615 5.17051 12.0767 5.29357C12.0778 5.3004 12.2129 5.41878 12.0713 5.36681C12.0619 5.36339 11.9172 5.30964 12.0025 5.37269C12.0078 5.37663 12.0832 5.40248 12.0666 5.41702C12.05 5.43157 12.0815 5.48518 11.9916 5.47036C11.9633 5.46573 11.818 5.41414 11.9138 5.49389C11.9205 5.49935 12.1459 5.66267 11.9705 5.58823C11.9417 5.57595 11.7644 5.48117 11.8412 5.55691C11.8562 5.57151 11.901 5.58235 11.9185 5.60947C11.9455 5.65115 11.8827 5.65524 11.9483 5.72326C11.96 5.73523 12.0707 5.81793 11.9706 5.78619C11.9549 5.78122 11.8978 5.74558 11.8867 5.75054C11.834 5.77401 11.8521 5.83653 11.7898 5.85582C11.7679 5.86274 11.6754 5.80543 11.6418 5.80708C11.6082 5.80874 11.5677 5.82616 11.6035 5.8647C11.6394 5.90324 11.8018 5.96564 11.8019 5.99555C11.8022 6.12548 11.6597 6.18012 11.5936 6.27554C11.5838 6.28967 11.6452 6.30556 11.6347 6.3284C11.5963 6.41251 11.5742 6.5817 11.4206 6.59258C11.2976 6.60139 11.2635 6.49273 11.2029 6.51673C11.1738 6.52842 11.3407 6.64337 11.3437 6.65134C11.3751 6.73069 11.278 6.7246 11.2792 6.78192C11.2795 6.79377 11.3566 6.82202 11.356 6.83169C11.3547 6.86505 11.3078 6.8766 11.3006 6.90526C11.2975 6.9182 11.3539 6.94457 11.3442 6.95294C11.3216 6.97325 11.2868 6.98365 11.2221 6.98187C11.2163 6.9817 11.1553 6.93102 11.143 6.94856C11.1234 6.97703 11.0528 6.98855 11.0877 7.05066C11.0982 7.0692 11.2245 7.13459 11.1257 7.11198C11.1051 7.10727 10.9562 7.02331 11.0742 7.11662C11.0937 7.13221 11.2485 7.26651 11.1234 7.22923C11.0905 7.2195 10.9587 7.17023 10.9718 7.19279C10.9741 7.19609 11.0455 7.22414 11.0468 7.23792C11.0502 7.2859 11.0234 7.32044 11.0255 7.36872C11.0262 7.38168 11.1042 7.40284 11.103 7.421C11.0998 7.47112 11.0562 7.51222 11.0135 7.5415C10.9976 7.55212 10.9445 7.51208 10.9376 7.50992C10.8256 7.47458 10.9596 7.55599 10.9648 7.56588C10.9952 7.6265 10.9159 7.62027 10.9165 7.66191C10.9165 7.67331 10.9862 7.70076 10.9912 7.70559C11.0396 7.75376 10.9273 7.67904 10.9082 7.68415C10.854 7.69841 10.8409 7.73732 10.832 7.7758C10.8289 7.78985 10.9131 7.8151 10.9094 7.82726C10.8892 7.89992 10.8473 7.96419 10.7727 8.00609C10.7585 8.01391 10.7028 7.97631 10.688 7.97193C10.5845 7.94084 10.7009 8.03224 10.7103 8.04428C10.7531 8.09948 10.6954 8.08325 10.6933 8.1117C10.6845 8.25041 10.5783 8.37491 10.5031 8.47144C10.4046 8.5991 10.2946 8.67791 10.242 8.82152C10.2387 8.8305 10.3224 8.8611 10.3205 8.86934C10.2931 8.9731 10.2157 9.05215 10.1925 9.15816C10.1904 9.16677 10.2714 9.19242 10.2707 9.20744C10.2696 9.23872 10.2504 9.26788 10.2132 9.28299C10.1954 9.29017 10.1389 9.2415 10.1222 9.24938C10.0833 9.26765 10.0624 9.2971 10.0598 9.3334C10.0589 9.34893 10.1457 9.36675 10.1385 9.38399C10.0918 9.50036 10.0503 9.62148 9.8952 9.68941C9.8845 9.69418 9.72325 9.62681 9.74548 9.65818C9.78871 9.6801 9.84031 9.70431 9.8869 9.72693C9.83482 9.90304 9.70164 10.047 9.61936 10.2079C9.61595 10.2146 9.70567 10.2405 9.69952 10.2537C9.66167 10.335 9.6543 10.4153 9.53394 10.4622C9.52225 10.4667 9.37449 10.3983 9.38698 10.4316C9.38928 10.4376 9.39423 10.4813 9.42301 10.504C9.42741 10.5072 9.49998 10.5307 9.49733 10.5426C9.47994 10.6132 9.43578 10.6744 9.36655 10.7221C9.35514 10.73 9.2847 10.6883 9.27591 10.6937C9.21379 10.7332 9.25006 10.8093 9.16146 10.836C9.10241 10.8526 8.97621 10.7909 8.84031 10.7615C8.82111 10.7574 8.81039 10.7777 8.73478 10.7513C8.54454 10.6852 8.3415 10.5984 8.13829 10.5292C8.10447 10.5177 8.11779 10.5441 8.08039 10.5306C8.08039 10.5306 8.08038 10.5306 8.08037 10.5306C8.06934 10.5266 8.0539 10.5191 8.03158 10.5061C8.02501 10.5023 7.99873 10.4662 7.96538 10.4471C7.94231 10.4339 7.86315 10.4132 7.83482 10.3931C7.80654 10.373 7.87399 10.3874 7.84239 10.3594C7.8104 10.3311 7.72124 10.3049 7.72205 10.2719ZM12.2321 4.05325C12.153 4.03671 12.4047 4.17042 12.3549 4.11834C12.3522 4.11566 12.236 4.05401 12.2321 4.05325ZM13.1686 1.56668C13.0694 1.56344 13.1959 1.62598 13.2719 1.63029C13.3478 1.63457 13.1986 1.56762 13.1686 1.56668ZM13.1954 1.26668C13.1138 1.27431 13.4022 1.3759 13.3547 1.3228C13.3521 1.31974 13.2001 1.26622 13.1954 1.26668ZM8.83707 10.6592C8.83342 10.6582 8.82368 10.6733 8.82705 10.675C8.90826 10.7159 8.92752 10.6861 8.83707 10.6592ZM13.2157 0.966858C13.1732 0.963563 13.2091 1.00683 13.2619 1.01093C13.3044 1.01422 13.2685 0.970941 13.2157 0.966858ZM11.4429 4.91516C11.439 4.91351 11.4298 4.92288 11.4512 4.93371C11.5202 4.96856 11.5089 4.94302 11.4429 4.91516ZM13.3687 0.496776C13.3347 0.562437 13.0811 0.524592 13.1333 0.458149C13.1428 0.446114 13.1999 0.513069 13.2273 0.502871C13.2772 0.484161 13.1339 0.412911 13.2253 0.407285C13.242 0.406324 13.3711 0.493221 13.369 0.497011C13.3689 0.496932 13.3688 0.496854 13.3687 0.496776ZM11.9223 3.90711C11.9188 3.90577 11.9077 3.91952 11.9108 3.92161C11.9868 3.9715 12.0093 3.9438 11.9223 3.90711ZM10.9496 5.4834C10.942 5.48055 10.9168 5.51289 10.9228 5.51745C11.0444 5.6042 11.0958 5.53905 10.9496 5.4834ZM12.2584 2.78166C12.1832 2.72911 12.1834 2.70477 12.2931 2.73573C12.2799 2.75009 12.2711 2.7672 12.2584 2.78166Z" fill="black"/>
<path d="M13.0689 15.5939C13.1166 15.5481 13.1997 15.5504 13.2705 15.5684C13.2924 15.574 13.3029 15.6307 13.319 15.6369C13.3505 15.6489 13.3633 15.6145 13.3963 15.6304C13.4073 15.6359 13.4287 15.724 13.4396 15.7278C13.4995 15.748 13.5342 15.7104 13.5875 15.7105C13.8498 15.7111 14.0881 15.6492 14.3353 15.5853C14.417 15.5642 14.5429 15.5972 14.6069 15.5285C14.6143 15.5205 14.5759 15.4511 14.575 15.4444C14.5605 15.3413 14.618 15.4905 14.6447 15.5015C14.7507 15.5448 14.8329 15.5143 14.888 15.4542C14.9114 15.4285 14.8146 15.3007 14.8818 15.3663C14.8864 15.3707 14.9152 15.4499 14.927 15.4542C14.9537 15.4638 14.9813 15.4338 14.9981 15.4331C15.0307 15.432 15.0348 15.4291 15.0607 15.4175C15.0966 15.4023 15.1559 15.4197 15.1848 15.3842C15.1909 15.3764 15.1422 15.3045 15.1484 15.2851C15.1545 15.2658 15.1912 15.2557 15.2115 15.2682C15.2319 15.2808 15.2573 15.3437 15.2662 15.3565C15.3411 15.4654 15.2987 15.2839 15.3016 15.2774C15.3579 15.1636 15.4816 15.2163 15.5668 15.1718C15.6306 15.1382 15.684 15.0717 15.7467 15.0437C15.8219 15.0106 15.9057 15.0185 15.9721 14.9735C15.9792 14.9688 15.9223 14.8846 15.9308 14.8787C16.0214 14.8161 16.1214 14.7737 16.2498 14.7803C16.2627 14.781 16.2936 14.8655 16.3092 14.8708C16.4032 14.902 16.5831 15.0018 16.4269 14.6458C16.4738 14.6365 16.5294 14.6227 16.6033 14.6702C16.6511 14.7006 16.6771 14.7972 16.6846 14.7453C16.6863 14.7337 16.6359 14.665 16.6416 14.6531C16.666 14.6033 16.7234 14.6019 16.7405 14.5414C16.7438 14.5289 16.7035 14.4645 16.6989 14.4514C16.662 14.3447 16.7857 14.4844 16.7994 14.4918C16.9022 14.5466 16.9206 14.4905 16.9706 14.4637C16.9822 14.4575 16.9169 14.3777 16.9263 14.3686C16.9754 14.3226 17.0378 14.2956 17.1162 14.3013C17.1337 14.3028 17.1671 14.3841 17.1778 14.3886C17.2245 14.4075 17.1457 14.2635 17.1888 14.2789C17.1978 14.282 17.2332 14.3474 17.2384 14.3539C17.3195 14.4547 17.2386 14.2913 17.2403 14.2856C17.2603 14.2095 17.3896 14.3528 17.4227 14.3012C17.4266 14.2949 17.365 14.2222 17.3787 14.2094C17.4696 14.1236 17.5934 14.0776 17.7366 14.077C17.7589 14.0768 17.7848 14.1439 17.7904 14.1507C17.879 14.2559 17.793 14.0945 17.7946 14.0854C17.8095 14.0178 17.9295 14.1231 17.8419 13.9215C17.9982 13.8881 18.0975 13.7658 18.2473 13.722C18.2502 13.7201 18.2591 13.7147 18.2621 13.713C18.2622 13.713 18.2624 13.7129 18.2626 13.7129C18.3204 13.6987 18.3844 13.6963 18.4595 13.7145C18.463 13.7152 18.5027 13.796 18.5093 13.797C18.5892 13.8102 18.5106 13.6941 18.4653 13.5235C18.4541 13.4805 18.5819 13.6459 18.5916 13.6579C18.6275 13.7018 18.6823 13.8246 18.6905 13.8324C18.7562 13.8933 18.5402 13.5063 18.5747 13.4871C18.5762 13.4872 18.6105 13.5615 18.6172 13.567C18.6383 13.5845 18.6317 13.5512 18.6539 13.5711C18.7049 13.6174 18.8137 13.8038 18.7849 13.6768C18.7811 13.6603 18.6566 13.4411 18.6932 13.4349C18.7079 13.4326 18.7606 13.3994 18.7834 13.4057C18.8064 13.4121 18.8335 13.4899 18.8362 13.4924C18.9271 13.5663 18.9321 13.6141 19.0258 13.7453C19.1191 13.8762 18.9394 13.542 18.9283 13.4999C18.9173 13.458 18.9883 13.5215 19.0097 13.5453C19.0312 13.5691 19.0456 13.6201 19.0602 13.6324C19.1554 13.7125 18.9935 13.4544 18.9806 13.3931C18.9501 13.2477 19.1041 13.4861 19.1473 13.4956C19.159 13.4981 19.1234 13.4438 19.1282 13.4347C19.1478 13.3989 19.2048 13.4693 19.2028 13.3796C19.2024 13.3651 19.1551 13.1976 19.2279 13.3015C19.2384 13.3165 19.2622 13.3838 19.2819 13.3919C19.3112 13.404 19.3522 13.4013 19.3624 13.37C19.3699 13.3468 19.302 13.2495 19.3368 13.273C19.3522 13.2836 19.3661 13.3531 19.3927 13.3679C19.419 13.3827 19.4583 13.3606 19.4726 13.3512C19.4869 13.3417 19.4406 13.2649 19.4393 13.2589C19.4321 13.2241 19.4436 13.1709 19.4463 13.1697C19.5749 13.0958 19.7597 13.1783 19.8695 13.075C19.8782 13.067 19.8334 12.9821 19.8343 12.98C19.8536 12.9276 19.9268 13.1736 19.9848 13.2414C19.9045 13.0642 19.9328 13.0903 19.9491 13.06C19.9569 13.0452 19.9209 12.9786 19.919 12.971C19.8919 12.8579 19.9621 12.9887 19.9771 13.0153C20.0322 13.1129 19.9938 12.9861 20.0307 13.0514C20.0673 13.1163 20.0916 13.2251 20.1145 13.214C20.0942 13.1467 20.0059 12.9857 20.0125 12.9507C20.038 12.8175 20.2212 12.8969 20.2818 12.8891C20.3425 12.8808 20.3556 12.8617 20.3971 12.8728C20.472 12.8931 20.4012 12.7735 20.4152 12.7005C20.4297 12.6274 20.5319 12.9504 20.5629 13.0164C20.5938 13.0824 20.5728 13.0103 20.5932 13.0453C20.6136 13.0803 20.6176 13.1316 20.6375 13.1402C20.6573 13.1488 20.6522 13.0126 20.631 12.9393C20.586 12.7839 20.5085 12.6321 20.5691 12.6729C20.5727 12.6753 20.5961 12.7617 20.608 12.7669C20.7015 12.8052 20.7749 12.7833 20.8647 12.8162C20.8771 12.8208 20.9015 12.9177 20.909 12.9215C20.9872 12.9616 20.9115 12.8104 20.8828 12.6231C20.9565 12.86 21.0232 12.9975 21.067 12.9841C21.0934 12.9762 21.0542 12.8751 21.0469 12.797C21.046 12.7873 21.0526 12.7925 21.0598 12.7985C21.0601 12.7987 21.0603 12.799 21.0606 12.7992C21.0708 12.8076 21.0816 12.8166 21.0743 12.7883C21.0329 12.6265 20.9561 12.4555 21.026 12.5107C21.0291 12.5134 21.0512 12.602 21.0599 12.605C21.1162 12.6246 21.0678 12.4572 21.1113 12.4214C21.1457 12.3933 21.247 12.4733 21.2962 12.4768C21.3757 12.7428 21.3977 12.6697 21.3609 12.4816C21.3919 12.4809 21.4203 12.4618 21.4555 12.4795C21.4676 12.4855 21.483 12.5641 21.4865 12.572C21.5415 12.6972 21.5039 12.5157 21.5083 12.5071C21.5578 12.4213 21.6481 12.5417 21.6797 12.3948C21.6807 12.3895 21.6384 12.2053 21.6897 12.3351C21.6931 12.3441 21.6924 12.4325 21.7247 12.4317C21.7574 12.4311 21.8377 12.5155 21.8604 12.4219C21.8658 12.3993 21.8589 12.2465 21.9061 12.3573C21.9124 12.3724 21.921 12.425 21.9314 12.4531C21.9647 12.5424 21.9314 12.358 21.9807 12.5102C22.03 12.6623 22.0845 12.7706 22.1035 12.6549C22.1042 12.6515 22.0843 12.5056 22.0983 12.5052C22.1203 12.5047 22.1562 12.5285 22.1783 12.5232C22.1889 12.5206 22.1648 12.4335 22.1663 12.4315C22.2288 12.369 22.2957 12.4388 22.3781 12.4589C22.3928 12.4626 22.4147 12.3389 22.4571 12.427C22.5037 12.5229 22.5423 12.9474 22.5925 12.8327C22.6113 12.7858 22.5661 12.2582 22.6571 12.5201C22.7447 12.439 22.8511 12.5584 22.9363 12.453C22.94 12.4483 22.9359 12.3101 22.9466 12.311C22.9624 12.3124 22.979 12.3746 22.9905 12.3773C23.0393 12.3903 23.0735 12.3323 23.1198 12.3357C23.1368 12.3368 23.1385 12.4004 23.1587 12.4013C23.1789 12.4021 23.1826 12.3189 23.2147 12.3552C23.2393 12.3829 23.2776 12.5444 23.3066 12.5583C23.2894 12.3978 23.3082 12.3985 23.3372 12.353C23.3428 12.3442 23.3297 12.29 23.332 12.2831C23.3415 12.2538 23.3575 12.298 23.3658 12.2665C23.3679 12.2589 23.3622 12.2057 23.3635 12.1966C23.3748 12.1175 23.4208 12.2345 23.4286 12.2541C23.4586 12.3297 23.4615 12.2611 23.4809 12.29C23.5003 12.3185 23.48 12.3587 23.5009 12.3747C23.5439 12.4076 23.5951 12.3922 23.6346 12.3896C23.6506 12.3882 23.6331 12.3246 23.6353 12.3228C23.6667 12.3035 23.7078 12.3667 23.7137 12.2399C23.7682 12.5606 23.7303 12.2068 23.7844 12.2678C23.7887 12.2728 23.8077 12.4204 23.7956 12.4446C23.7834 12.4689 23.7573 12.425 23.7412 12.4629C23.7375 12.4714 23.7248 12.6209 23.7221 12.631C23.7004 12.707 23.6731 12.4736 23.6702 12.4608C23.6389 12.3237 23.6223 12.4877 23.6152 12.501C23.5811 12.5595 23.5436 12.5314 23.5153 12.5753C23.4966 12.6038 23.5123 12.7691 23.4949 12.7684C23.4375 12.7673 23.3929 12.5319 23.3631 12.7511C23.3568 12.7981 23.3892 12.985 23.3327 12.8464C23.3292 12.838 23.2842 12.7067 23.2772 12.7985C23.2763 12.8101 23.2829 12.8666 23.2806 12.8721C23.2651 12.908 23.2472 12.8661 23.2294 12.8933C23.2115 12.9205 23.1916 12.9604 23.1656 12.9472C23.15 12.9394 23.1185 12.8346 23.1084 12.8092C23.0795 12.7359 23.0757 12.8685 23.0514 12.7765C23.0271 12.6833 23.0327 12.5342 22.9923 12.4773C23.0111 12.6333 23.029 12.794 23.0474 12.9515C22.9795 12.9644 22.9062 12.9298 22.8389 12.9541C22.8307 12.9573 22.8517 13.0429 22.8433 13.0487C22.8086 13.0732 22.7655 13.0189 22.731 13.0547C22.7043 13.0827 22.686 13.188 22.6599 13.2217C22.6099 13.0331 22.5741 13.1113 22.538 13.1028C22.5252 13.0998 22.517 13.0469 22.5056 13.0319C22.463 12.9763 22.5082 13.1476 22.5045 13.1776C22.4896 13.3063 22.4151 12.9088 22.3724 12.9291C22.3699 12.9299 22.3816 13.1516 22.3804 13.1663C22.3725 13.2606 22.3623 13.0927 22.3439 13.081C22.3105 13.0596 22.2806 13.0128 22.2603 13.0853C22.2542 13.1067 22.2598 13.249 22.2197 13.1491C22.2144 13.136 22.2009 13.0635 22.198 13.0598C22.1474 12.9989 22.1943 13.2264 22.1915 13.3096C22.1885 13.393 22.1241 13.2446 22.1075 13.2007C22.0649 13.0876 22.109 13.1468 22.1073 13.1349C22.0877 12.9945 22.0699 13.0244 22.0498 13.0176C21.9968 12.7935 21.9742 12.8133 22.0289 13.0114C22.0349 13.033 22.0439 13.0083 22.0498 13.0176C22.0835 13.2423 22.0654 13.2791 21.9876 13.0804C21.9508 12.9872 21.9372 12.8703 21.904 12.9233C21.8889 12.9474 21.9343 13.1013 21.928 13.1487C21.9141 13.2572 21.8283 13.1261 21.7946 13.1609C21.7826 13.1735 21.8191 13.2553 21.8118 13.2669C21.7926 13.2982 21.7527 13.2406 21.7361 13.2818C21.7347 13.2856 21.7652 13.3739 21.7576 13.3776C21.7013 13.4072 21.6327 13.3663 21.5692 13.3852C21.5386 13.3944 21.4997 13.4622 21.4651 13.4626C21.4078 13.4639 21.3033 13.3644 21.2614 13.3986C21.2612 13.3988 21.2611 13.3989 21.2609 13.399C21.2594 13.4004 21.2579 13.4019 21.2565 13.4037C21.2322 13.4345 21.2693 13.522 21.2768 13.5876C21.2917 13.7147 21.1743 13.5177 21.1565 13.4872C21.1559 13.4862 21.1755 13.4559 21.1453 13.4148C21.1038 13.3219 21.1567 13.4867 21.1565 13.4872C21.1451 13.4674 21.0845 13.4654 21.0799 13.4862C21.0774 13.4975 21.1105 13.581 21.1086 13.5853C21.0644 13.6855 21.0019 13.7312 20.9158 13.7174C20.9139 13.7162 20.8809 13.6218 20.8769 13.6201C20.8192 13.5935 20.8358 13.7175 20.8275 13.7974C20.8195 13.8773 20.784 13.8641 20.7017 13.7124C20.6838 13.7418 20.6189 13.6855 20.5806 13.6511C20.5422 13.6167 20.6108 13.7973 20.6104 13.8015C20.5975 13.9366 20.5228 13.8467 20.4558 13.8541C20.4237 13.8574 20.3776 13.9051 20.3547 13.9366C20.3369 13.9616 20.3046 13.9262 20.2933 13.9615C20.2917 13.9662 20.3283 14.043 20.3287 14.0464C20.3438 14.1496 20.2737 13.9542 20.2538 13.9222C20.1817 13.8059 20.1412 13.7451 20.134 13.8165C20.1321 13.833 20.2302 14.1146 20.2239 14.1357C20.2154 14.1629 20.1789 14.0627 20.1711 14.0937C20.1703 14.0963 20.1973 14.1563 20.1849 14.1581C20.1277 14.1676 20.055 14.1563 20.0035 14.185C19.9964 14.1887 20.0491 14.2788 20.0395 14.2856C19.9949 14.3174 19.939 14.3367 19.8698 14.3142C19.8527 14.3084 19.8293 14.2401 19.8175 14.222C19.746 14.1123 19.8042 14.2918 19.8021 14.2965C19.7528 14.4163 19.6107 14.2952 19.5568 14.409C19.5539 14.4156 19.6065 14.6105 19.5128 14.4662C19.5065 14.4566 19.4108 14.3092 19.4503 14.4224C19.4528 14.4295 19.5039 14.5044 19.4819 14.5048C19.4597 14.5054 19.4588 14.5721 19.3889 14.4968C19.367 14.4731 19.2682 14.3288 19.309 14.4626C19.3118 14.4721 19.4219 14.7654 19.3088 14.5816C19.2902 14.5514 19.1857 14.3493 19.2128 14.4664C19.2182 14.489 19.2515 14.5289 19.2526 14.5639C19.2545 14.6176 19.1976 14.5786 19.22 14.6808C19.2239 14.699 19.2785 14.8441 19.2074 14.7494C19.1962 14.7346 19.1646 14.6657 19.1524 14.6625C19.0944 14.6472 19.0787 14.7131 19.0144 14.6886C18.9917 14.6801 18.9392 14.5695 18.9087 14.549C18.8783 14.5284 18.8334 14.5174 18.8459 14.5744C18.8584 14.6315 18.9707 14.7916 18.9561 14.8176C18.9463 14.8354 18.9343 14.8492 18.9206 14.8602C18.9205 14.8603 18.9204 14.8604 18.9202 14.8605L18.963 14.8345C18.885 14.9019 18.7556 14.8859 18.662 14.9286C18.6455 14.9361 18.6954 14.9869 18.6737 15.0022C18.5947 15.0585 18.4862 15.2036 18.336 15.1226C18.216 15.0577 18.2407 14.9362 18.1714 14.9224C18.1383 14.9159 18.2345 15.1224 18.2331 15.1316C18.2213 15.2239 18.1335 15.1603 18.1045 15.2142C18.0985 15.2253 18.1556 15.2979 18.15 15.3065C18.1311 15.3368 18.0812 15.3193 18.0591 15.3415C18.0493 15.3517 18.0879 15.4102 18.0743 15.4121C18.0421 15.4175 18.004 15.4062 17.9449 15.3652C17.9395 15.3615 17.9098 15.2777 17.8891 15.2864C17.8557 15.3008 17.7845 15.2682 17.7833 15.3469C17.7831 15.3704 17.865 15.508 17.7854 15.4268C17.7688 15.4098 17.6761 15.2413 17.7351 15.3996C17.7449 15.4259 17.8151 15.6448 17.7194 15.5338C17.6943 15.5045 17.5991 15.3781 17.599 15.4069C17.5993 15.4113 17.6501 15.4811 17.6439 15.4946C17.6209 15.5409 17.5772 15.556 17.5527 15.6017C17.5462 15.6141 17.6065 15.6818 17.5954 15.6978C17.5647 15.7419 17.5003 15.7533 17.4451 15.7532C17.4247 15.753 17.3981 15.6832 17.393 15.6769C17.3098 15.5744 17.3877 15.7327 17.387 15.745C17.381 15.8196 17.3114 15.7643 17.2884 15.8027C17.2819 15.8132 17.3304 15.8821 17.3323 15.8897C17.3493 15.9643 17.2886 15.8252 17.2681 15.8179C17.2104 15.7967 17.1756 15.8244 17.1459 15.8536C17.1351 15.8644 17.1977 15.9408 17.1874 15.9496C17.1275 16.0029 17.0518 16.0349 16.9587 16.0254C16.9411 16.0234 16.9125 15.9536 16.9016 15.9401C16.8253 15.8455 16.8784 16.0029 16.8799 16.0199C16.8868 16.0973 16.8436 16.0454 16.8251 16.0698C16.7349 16.19 16.5649 16.2322 16.4374 16.2692C16.272 16.3176 16.1227 16.3148 15.9881 16.4042C15.9795 16.4098 16.0339 16.494 16.027 16.5C15.9355 16.5734 15.8172 16.5889 15.7268 16.6653C15.7193 16.6714 15.7731 16.7503 15.7624 16.763C15.7407 16.7896 15.7026 16.8024 15.661 16.789C15.6408 16.7826 15.6241 16.7006 15.6046 16.6956C15.5589 16.6839 15.5218 16.6942 15.4947 16.7239C15.4833 16.7367 15.5464 16.8138 15.5283 16.8236C15.4064 16.8922 15.288 16.9655 15.1071 16.9097C15.0947 16.9058 15.0065 16.7301 15.0034 16.7728C15.0243 16.8232 15.0506 16.8817 15.0738 16.9352C14.9004 17.0472 14.6873 17.0646 14.4937 17.1322C14.4854 17.135 14.5387 17.2258 14.5229 17.2319C14.4323 17.2671 14.3537 17.3293 14.2236 17.2686C14.2106 17.2628 14.1495 17.0901 14.1324 17.1263C14.1295 17.1328 14.0975 17.1712 14.101 17.2123C14.1017 17.2185 14.1395 17.2956 14.1271 17.3029C14.0552 17.344 13.9663 17.356 13.8715 17.3345C13.8561 17.3309 13.8387 17.2404 13.8275 17.2371C13.7485 17.2141 13.7035 17.3032 13.6161 17.2456C13.558 17.2067 13.5222 17.0526 13.4518 16.9129C13.4418 16.8932 13.4166 16.898 13.3867 16.813C13.3117 16.5991 13.2441 16.36 13.1627 16.1325C13.1492 16.0947 13.1388 16.1238 13.1246 16.0813C13.1246 16.0813 13.1246 16.0812 13.1246 16.0812C13.1204 16.0687 13.1159 16.05 13.1109 16.0215C13.1095 16.0131 13.1179 15.9663 13.1096 15.9241C13.1038 15.8949 13.068 15.8102 13.0634 15.7719C13.0588 15.7337 13.0916 15.8037 13.0897 15.7575C13.0876 15.7108 13.0485 15.614 13.0689 15.5939ZM20.4074 13.499C20.3524 13.4213 20.4773 13.736 20.4682 13.6527C20.4676 13.6483 20.4101 13.5028 20.4074 13.499ZM22.8764 12.7136C22.8314 12.5924 22.8377 12.7833 22.8712 12.877C22.9041 12.9698 22.89 12.75 22.8764 12.7136ZM23.157 12.5694C23.1125 12.4812 23.1539 12.8649 23.1795 12.7795C23.1809 12.7746 23.1596 12.5744 23.157 12.5694ZM13.5338 16.8382C13.5321 16.8343 13.5133 16.8364 13.5143 16.8405C13.5382 16.94 13.5759 16.9357 13.5338 16.8382ZM23.44 12.4337C23.4243 12.3879 23.4002 12.4466 23.4195 12.5038C23.435 12.5495 23.4593 12.4901 23.44 12.4337ZM19.2191 13.6374C19.2167 13.6333 19.2032 13.6351 19.2157 13.6595C19.256 13.7381 19.2608 13.7079 19.2191 13.6374ZM23.9416 12.3633C23.8664 12.3646 23.7982 12.1188 23.8822 12.1449C23.8974 12.1491 23.8576 12.2229 23.8784 12.2438C23.9161 12.2798 23.9255 12.1313 23.9685 12.2081C23.9762 12.2213 23.9458 12.3632 23.9415 12.3636C23.9415 12.3635 23.9415 12.3634 23.9416 12.3633ZM20.2424 13.1267C20.2403 13.1227 20.2222 13.1255 20.2235 13.1298C20.2552 13.2329 20.2916 13.2275 20.2424 13.1267ZM18.4604 13.8147C18.4551 13.8073 18.4145 13.8205 18.4175 13.8285C18.4808 13.9839 18.5621 13.9582 18.4604 13.8147ZM21.2991 12.4837C21.2867 12.3734 21.3068 12.3545 21.3607 12.4815C21.3397 12.48 21.3202 12.4845 21.2991 12.4837Z" fill="black"/>
</svg>
