<svg width="28" height="29" viewBox="0 0 28 29" fill="none" xmlns="http://www.w3.org/2000/svg">
<path d="M1.63903 5.35529C1.78918 5.42331 2.02339 5.54848 2.22493 5.64727C2.28581 5.67759 2.23959 5.70978 2.28254 5.73268C2.36852 5.77766 2.46187 5.7812 2.54788 5.82515C2.577 5.84006 2.52048 5.89877 2.5518 5.91288C2.73 5.99094 2.90397 6.01018 3.092 6.0613C4.02217 6.31013 4.99591 6.40546 6.00212 6.46531C6.33129 6.48466 6.73766 6.55241 7.0818 6.5214C7.12171 6.51773 7.0974 6.45559 7.10495 6.45039C7.22342 6.37068 7.18498 6.49686 7.26358 6.51267C7.57797 6.5749 7.92432 6.57171 8.22159 6.53666C8.34846 6.52148 8.21607 6.40263 8.34698 6.4671C8.3561 6.47144 8.3263 6.53886 8.36162 6.54453C8.44135 6.55731 8.59402 6.5388 8.65416 6.54118C8.77239 6.54606 8.79196 6.54441 8.90413 6.53939C9.05806 6.53301 9.2425 6.55539 9.40535 6.53009C9.4402 6.52449 9.38952 6.45971 9.44467 6.44464C9.49979 6.42963 9.64868 6.42548 9.70014 6.43789C9.75159 6.45037 9.73374 6.50506 9.74348 6.51664C9.82291 6.61461 9.98372 6.4595 10.0054 6.45425C10.4043 6.3637 10.7538 6.41485 11.1303 6.37816C11.4167 6.35004 11.7188 6.29108 11.9913 6.26387C12.3156 6.23172 12.5945 6.23475 12.9073 6.18783C12.9403 6.18294 12.8913 6.10887 12.9315 6.10274C13.36 6.03743 13.7866 5.98555 14.221 5.97324C14.2646 5.97207 14.2201 6.04979 14.2643 6.05274C14.5349 6.06964 14.9733 6.13787 15.0775 5.81053C15.2565 5.79231 15.4725 5.76697 15.6415 5.79899C15.7505 5.81953 15.665 5.91256 15.7846 5.85776C15.8115 5.84547 15.7628 5.78643 15.8041 5.77297C15.8234 5.76667 15.843 5.76089 15.8628 5.75549C15.874 5.75247 15.8853 5.74959 15.8967 5.74682C16.0518 5.70893 16.2175 5.69171 16.3659 5.64017C16.4022 5.62736 16.384 5.56885 16.3932 5.55642C16.4719 5.45451 16.6399 5.57921 16.6729 5.58636C16.9286 5.63493 17.1053 5.58625 17.3382 5.57112C17.3922 5.56787 17.3249 5.48531 17.3771 5.47881C17.6481 5.44616 17.9347 5.44229 18.202 5.49018C18.2612 5.5012 18.201 5.5805 18.2287 5.59009C18.3505 5.63301 18.3912 5.47988 18.5105 5.52086C18.5354 5.52952 18.5132 5.59948 18.517 5.6076C18.5744 5.73593 18.6583 5.56828 18.6782 5.56587C18.9262 5.53594 19.0442 5.74565 19.2725 5.76873C19.3005 5.7714 19.2623 5.66367 19.3405 5.67699C19.8591 5.76282 20.4227 6.02301 20.7827 6.45948C20.838 6.52659 20.739 6.54344 20.7368 6.55446C20.723 6.61361 20.7343 6.63764 20.7573 6.64564C20.7787 6.66625 20.8095 6.72612 20.8142 6.75545C20.8229 6.7676 20.84 6.77705 20.8587 6.78488C20.8927 6.79914 20.9322 6.80805 20.9369 6.81776C21.0209 7.00201 20.8763 7.20503 21.1333 7.30693C21.1544 8.13778 21.3454 8.95328 21.1519 9.77622C21.1497 9.78667 21.0496 9.77092 21.0456 9.79169C20.996 10.0425 21.1494 9.98908 21.3412 10.1511C21.3894 10.1922 21.1624 10.3215 21.1458 10.3326C21.0845 10.3738 20.9362 10.3332 20.9244 10.3469C20.8316 10.4594 21.3207 10.4375 21.321 10.5912C21.3202 10.596 21.2302 10.5761 21.2213 10.5889C21.1933 10.6291 21.229 10.6677 21.1979 10.7064C21.1259 10.7949 20.8887 10.8245 21.0255 10.9602C21.0432 10.9775 21.3205 10.9536 21.3055 11.0899C21.2995 11.1442 21.2995 11.3851 21.2797 11.4512C21.2601 11.5177 21.1723 11.4696 21.1684 11.4743C21.046 11.6511 20.999 11.5817 20.8225 11.6663C20.6466 11.7505 21.0605 11.7384 21.1054 11.7768C21.1502 11.8152 21.0486 11.9443 21.0136 11.9754C20.9787 12.0065 20.9239 11.9642 20.9038 11.992C20.772 12.1762 21.1051 12.0834 21.1679 12.1488C21.3162 12.3041 21.005 12.406 20.9681 12.5397C20.9581 12.5761 21.0292 12.5497 21.0339 12.5828C21.0515 12.7146 20.9522 12.7854 21.0299 12.9377C21.0427 12.9625 21.2175 13.0935 21.0782 13.162C21.0581 13.1716 20.9846 13.1355 20.9639 13.1895C20.9329 13.2702 20.9057 13.4172 20.9241 13.5069C20.9378 13.5734 21.0678 13.5082 21.0228 13.5873C21.0027 13.6224 20.9354 13.5493 20.9037 13.6157C20.8722 13.6816 20.8611 13.8559 20.8579 13.9225C20.8547 13.9889 20.9517 13.9607 20.9576 13.9665C20.991 14.0021 21.0248 14.1335 21.0237 14.1445C20.9829 14.7125 20.7695 15.2173 20.7536 15.7713C20.7522 15.8148 20.853 15.7981 20.8538 15.8048C20.8759 15.9575 20.6321 15.8093 20.5329 15.9012C20.7318 15.911 20.6886 15.9672 20.6967 16.0738C20.7008 16.1252 20.7805 16.1077 20.7877 16.1133C20.8936 16.2026 20.7374 16.2349 20.7051 16.2441C20.5864 16.2784 20.7118 16.3493 20.6324 16.3727C20.5535 16.396 20.4535 16.3048 20.4417 16.404C20.5081 16.4413 20.7015 16.3921 20.7209 16.4716C20.7945 16.7723 20.5726 17.2838 20.5222 17.5093C20.4721 17.7349 20.4729 17.8105 20.4266 17.9391C20.3427 18.1712 20.4904 18.1051 20.5266 18.2639C20.5623 18.4233 20.2472 18.2963 20.1732 18.306C20.0994 18.3153 20.168 18.3503 20.125 18.3699C20.0821 18.3894 20.0436 18.3252 20.019 18.3838C19.9944 18.4424 20.0909 18.6305 20.1603 18.6649C20.3075 18.7374 20.4836 18.69 20.3978 18.8424C20.3928 18.8511 20.3125 18.806 20.2976 18.8402C20.182 19.1117 20.1243 19.4058 20.0137 19.6765C19.9984 19.7137 19.9108 19.6615 19.9008 19.6829C19.7966 19.9067 19.9709 19.8524 20.1216 20.0151C19.8935 19.9414 19.737 19.9854 19.7015 20.1626C19.68 20.2691 19.7852 20.2706 19.8432 20.3537C19.8607 20.3786 19.776 20.4407 19.821 20.4639C19.9677 20.5402 20.1567 20.5034 20.0498 20.6738C20.0449 20.6812 19.9649 20.6384 19.9541 20.6653C19.8838 20.8385 20.0417 20.893 20.0206 21.0914C20.0039 21.2472 19.8475 21.4987 19.7941 21.6678C19.5378 21.6093 19.562 21.784 19.7238 21.8894C19.6918 22.0006 19.6748 22.1242 19.6262 22.2272C19.6095 22.2626 19.5412 22.2217 19.5322 22.2247C19.3911 22.2689 19.5511 22.3554 19.5523 22.3811C19.5578 22.6579 19.3797 22.8434 19.4467 23.1208C19.4491 23.1307 19.6207 23.1855 19.477 23.223C19.4672 23.2253 19.4073 23.1238 19.3732 23.2404C19.339 23.3572 19.1931 23.5564 19.2342 23.7376C19.2442 23.781 19.3601 23.9156 19.2306 23.9692C19.2131 23.9763 19.1664 23.9525 19.135 23.9612C19.0349 23.9896 19.2028 24.0595 19.0402 24.0816C18.8776 24.1036 18.7376 24.1972 18.7991 24.3849C18.8008 24.3908 18.9286 24.4643 18.9134 24.5155C18.889 24.5973 18.831 24.7069 18.8101 24.7927C18.8002 24.8338 18.8918 24.8292 18.8915 24.8367C18.869 25.1223 18.7413 25.3038 18.6317 25.5879C18.6117 25.6393 18.6843 25.8264 18.5659 25.9073C18.4364 25.9958 18.0575 25.7685 18.0857 26.0569C18.0973 26.1717 18.5777 26.4496 18.2573 26.5673C18.2223 26.953 17.9903 27.2582 17.9773 27.6556C17.9767 27.6735 18.1033 27.7672 18.0899 27.8058C18.0699 27.863 17.9946 27.8755 17.9782 27.9154C17.9613 27.9555 17.9492 27.996 17.9396 28.0366C17.9381 28.0429 17.9367 28.0492 17.9353 28.0555L17.9227 28.037C18.028 28.0084 18.0886 27.8812 18.1777 27.7998C18.2245 27.7528 18.2604 27.8171 18.3155 27.7581C18.3689 27.6995 18.3342 27.6019 18.4328 27.546C18.5087 27.5027 18.6954 27.544 18.7724 27.4636C18.6402 27.3608 18.687 27.3019 18.7291 27.1716C18.7376 27.1463 18.6768 27.1359 18.6786 27.1224C18.6851 27.0671 18.7476 27.0585 18.7513 27.0035C18.7523 26.9903 18.7104 26.9599 18.7089 26.9478C18.6956 26.8445 18.8669 26.8092 18.8941 26.8011C19.002 26.7733 18.9744 26.707 19.0346 26.6695C19.0928 26.632 19.0649 26.7292 19.12 26.6761C19.2334 26.5641 19.3357 26.3899 19.4229 26.2576C19.4576 26.204 19.3972 26.2156 19.4013 26.2074C19.467 26.0942 19.572 26.005 19.5538 25.9048C19.7551 25.9314 19.584 25.8295 19.7213 25.6968C19.7323 25.6864 19.7995 25.7088 19.7795 25.7637C19.7603 25.8187 19.6954 25.8792 19.6714 25.9574C19.6646 25.9748 19.6836 26.1172 19.683 26.134C19.669 26.262 19.5345 26.1912 19.5238 26.1911C19.4109 26.1964 19.4307 26.3685 19.4229 26.4042C19.3756 26.5629 19.287 26.6638 19.2467 26.7964C19.2205 26.883 19.3364 26.9752 19.3024 27.0336C19.1897 27.232 18.954 27.1603 19.0124 27.4681C19.0255 27.5336 19.2063 27.6119 18.9979 27.6653C18.9851 27.67 18.802 27.6874 18.8362 27.8045C18.8407 27.8192 18.8886 27.8564 18.8858 27.87C18.8667 27.9605 18.7979 27.9755 18.7619 28.0661C18.7266 28.1557 18.6831 28.2739 18.5788 28.354C18.5153 28.4043 18.3468 28.3929 18.2801 28.4014C18.1872 28.4048 18.1733 28.4861 17.8795 28.4977C17.5777 28.4738 17.4105 28.2175 17.4912 27.9257C17.4911 27.9188 17.4909 27.912 17.4907 27.9054C17.49 27.8694 17.4924 27.838 17.5465 27.8299C17.6603 27.8126 17.7865 27.9481 17.8868 27.8447C17.7248 27.7928 17.5602 27.7337 17.398 27.6788C17.48 27.4112 17.6066 27.163 17.6738 26.8896C17.682 26.8555 17.5837 26.8651 17.5902 26.828C17.6181 26.6697 17.7162 26.5594 17.7334 26.3941C17.746 26.2671 17.6873 26.1047 17.696 25.973C17.9075 25.9476 17.8922 25.7411 17.9454 25.6071C17.964 25.5602 18.0146 25.5771 18.0403 25.5469C18.1356 25.4347 17.9497 25.45 17.9319 25.4077C17.8558 25.2264 18.2455 25.3148 18.2822 25.1319C18.2843 25.1223 18.1071 24.9518 18.0981 24.9323C18.0396 24.8083 18.1745 24.9337 18.2057 24.8742C18.2625 24.7658 18.3324 24.6977 18.3052 24.5455C18.297 24.501 18.1904 24.3725 18.31 24.3198C18.3257 24.3128 18.3934 24.3358 18.3994 24.3285C18.5031 24.1968 18.2866 24.1394 18.233 24.0366C18.1794 23.934 18.3609 23.8399 18.4108 23.8236C18.5399 23.7811 18.4461 23.8891 18.4562 23.8955C18.5767 23.9721 18.5771 23.8708 18.6057 23.8C18.8226 23.8416 18.8346 23.7353 18.6345 23.7263C18.6127 23.7255 18.6191 23.7876 18.6057 23.8C18.4109 23.6841 18.4098 23.5654 18.636 23.4891C18.7421 23.4532 18.8373 23.5342 18.8392 23.3478C18.8402 23.2631 18.6842 23.259 18.66 23.1784C18.6047 22.9937 18.7912 22.8174 18.8066 22.645C18.8121 22.5826 18.7168 22.6228 18.7177 22.5795C18.7197 22.4646 18.803 22.3807 18.7953 22.2634C18.7945 22.2528 18.7029 22.2577 18.7092 22.2233C18.7549 21.9624 18.859 21.7458 18.9168 21.475C18.9448 21.344 18.9443 21.0986 18.9812 20.9638C19.0445 20.7317 19.23 20.4665 19.2374 20.2572C19.2424 20.1216 19.148 20.133 19.0979 20.0648C19.0006 19.9333 19.2469 19.781 19.2845 19.761C19.2858 19.7604 19.2858 19.8782 19.3429 19.8262C19.445 19.8091 19.2847 19.7624 19.2845 19.761C19.3088 19.748 19.3706 19.5242 19.3614 19.4762C19.3564 19.45 19.269 19.4479 19.268 19.4345C19.2458 19.1174 19.2756 18.8095 19.3662 18.5088C19.3688 18.5037 19.4637 18.5284 19.4687 18.5161C19.5409 18.3449 19.4414 18.2102 19.394 18.0518C19.3467 17.8933 19.3877 17.7809 19.5678 17.7202C19.5637 17.6057 19.6612 17.4577 19.7197 17.3725C19.7782 17.2873 19.5898 17.2458 19.5872 17.2372C19.5026 16.9673 19.6316 16.8385 19.6836 16.5789C19.7087 16.4556 19.7124 16.2052 19.7077 16.0681C19.7037 15.9594 19.7567 15.901 19.7394 15.7992C19.7371 15.7855 19.6494 15.7881 19.6465 15.7837C19.5562 15.6616 19.7607 15.7402 19.801 15.7223C19.9474 15.6572 20.0266 15.6149 19.978 15.4668C19.9669 15.4326 19.6728 15.3027 19.6612 15.242C19.6467 15.1629 19.753 15.2042 19.7349 15.121C19.7335 15.1139 19.6658 15.1077 19.6739 15.0587C19.7104 14.831 19.7741 14.5852 19.7885 14.3457C19.7907 14.313 19.6791 14.3444 19.6805 14.2972C19.687 14.076 19.7102 13.8351 19.7766 13.6243C19.7933 13.5725 19.867 13.6116 19.8904 13.6019C20.0323 13.542 19.8406 13.4266 19.8379 13.41C19.7687 13.0095 19.9663 12.722 19.8975 12.3146C19.8935 12.2922 19.6848 12.1157 19.872 12.0491C19.8844 12.0445 20.0762 11.9784 19.9489 11.9076C19.9409 11.9032 19.8421 11.9459 19.8545 11.8655C19.8669 11.7851 19.8052 11.6538 19.9148 11.5465C19.9493 11.5127 20.1405 11.434 19.9912 11.3266C19.9809 11.3196 19.6414 11.1526 19.8776 11.0989C19.9164 11.0902 20.1661 11.103 20.039 10.9765C20.0143 10.9525 19.9584 10.9951 19.9239 10.9322C19.8707 10.8359 19.9376 10.7099 19.8254 10.5926C19.8056 10.5719 19.635 10.4856 19.7631 10.415C19.7831 10.4039 19.867 10.4241 19.8758 10.387C19.9185 10.2099 19.8587 10.0304 19.9111 9.84903C19.9295 9.78515 20.0659 9.81373 20.1 9.74633C20.1342 9.67893 20.1641 9.54404 20.0992 9.47765C20.0343 9.41144 19.8217 9.49505 19.7998 9.39384C19.7037 8.95127 19.799 8.50524 19.7732 8.06326C19.7693 7.99725 19.6978 8.05933 19.6862 7.96317C19.6547 7.70016 19.5631 7.30239 19.5609 6.98624C19.5608 6.9748 19.5609 6.96346 19.5611 6.95223L19.8739 7.55583C19.848 7.50733 19.8269 7.45466 19.8157 7.39661C19.7652 7.18937 19.9937 7.23982 19.9151 7.11297C19.8704 7.04911 19.6783 7.2217 19.6635 7.22101C19.4995 7.20843 19.4465 7.05666 19.2915 7.02224C19.2599 7.0154 19.256 7.12015 19.2304 7.11347C19.1437 7.09168 19.0638 7.01298 18.9747 6.98891C18.9345 6.97832 18.9246 7.05069 18.8904 7.03252C18.8073 6.99005 18.7346 6.93549 18.6539 6.84636C18.6463 6.83836 18.7177 6.76794 18.6474 6.74652C18.5338 6.71181 18.3917 6.61939 18.2461 6.65886C18.2028 6.67101 18.191 6.81918 18.1095 6.70205C18.0923 6.67772 18.1259 6.50379 18.0124 6.64229C17.9922 6.66602 17.8135 6.84325 17.7278 6.7061C17.7053 6.66981 17.6451 6.52657 17.5926 6.54551C17.5857 6.54849 17.6148 6.62544 17.572 6.62989C17.4217 6.64424 17.2618 6.63133 17.1063 6.65467C17.0649 6.66097 17.1324 6.73441 17.071 6.74124C16.9022 6.75973 16.6872 6.75164 16.5165 6.74718C16.4535 6.74534 16.4881 6.68284 16.4828 6.67695C16.3951 6.58231 16.3721 6.72654 16.3496 6.73753C16.2556 6.78234 16.1703 6.7779 16.084 6.78264C16.0734 6.78323 16.0629 6.78393 16.0523 6.78487C16.0158 6.7884 15.9791 6.79408 15.9417 6.8054C15.9015 6.81738 15.9424 6.87724 15.9353 6.88453C15.8608 6.95667 15.9028 6.82822 15.8468 6.825C15.69 6.81556 15.5237 6.85022 15.3731 6.88463C15.3177 6.89737 15.3935 6.96229 15.3436 6.97284C15.0485 7.03669 14.7382 7.07967 14.441 7.08277C14.385 7.0832 14.4104 7.01946 14.397 7.00787C14.3043 6.92659 14.2089 7.07133 14.1842 7.08744C14.0721 7.16091 14.0172 7.11614 13.9121 7.1413C13.4002 7.26529 12.7484 7.31508 12.2549 7.35016C11.6077 7.39683 11.1049 7.39018 10.4916 7.45644C10.4528 7.46051 10.4985 7.53565 10.4651 7.54016C10.0299 7.59511 9.59832 7.59456 9.16362 7.64186C9.12752 7.64561 9.1839 7.71714 9.12605 7.72565C9.00742 7.74363 8.85691 7.74731 8.73674 7.72911C8.67816 7.72037 8.75297 7.65282 8.69415 7.64531C8.5571 7.62766 8.40784 7.62857 8.2685 7.64564C8.20903 7.65306 8.30184 7.726 8.22427 7.72968C7.69251 7.7561 7.17186 7.77848 6.63139 7.67696C6.59461 7.66996 6.56349 7.51482 6.48595 7.54382C6.47971 7.58677 6.47953 7.63737 6.47653 7.68331C5.70223 7.70005 4.92769 7.6138 4.14517 7.52709C4.11232 7.52342 4.16094 7.61092 4.09718 7.60418C3.72359 7.56432 3.35641 7.53936 2.98453 7.39086C2.94778 7.37613 2.99221 7.23769 2.87827 7.23867C2.85928 7.23946 2.68708 7.22517 2.63577 7.246C2.62878 7.24934 2.6461 7.32197 2.59053 7.31217C2.27545 7.25543 1.93246 7.15036 1.62627 6.99739C1.57575 6.97206 1.65605 6.92463 1.62075 6.90609C1.38346 6.78012 1.06316 6.69733 0.852668 6.48182C0.712195 6.33379 0.847729 6.27484 0.84412 6.11898C0.842934 6.09722 0.758632 6.02119 0.804029 5.96517C0.916758 5.82607 1.07946 5.70941 1.19446 5.5565C1.21339 5.53136 1.16178 5.50848 1.18748 5.48375C1.18749 5.48374 1.18749 5.48374 1.1875 5.48373C1.1949 5.47639 1.20869 5.46888 1.23218 5.46028C1.23863 5.45794 1.30557 5.4745 1.33949 5.45818C1.36231 5.44683 1.39433 5.37963 1.42859 5.36913C1.46292 5.35854 1.44232 5.41932 1.49188 5.41144C1.54183 5.40257 1.57265 5.32544 1.63903 5.35529ZM19.981 16.9877C20.0849 16.9155 19.7504 16.8545 19.818 16.9582C19.8217 16.9633 19.9759 16.9915 19.981 16.9877ZM17.8269 27.2261C17.9865 27.1541 17.8172 27.0255 17.6959 27.0743C17.575 27.1228 17.7785 27.248 17.8269 27.2261ZM18.3955 27.9446C18.2276 27.9794 18.5143 28.293 18.5604 28.1073C18.5627 28.0969 18.4051 27.9424 18.3955 27.9446ZM1.22144 6.32264C1.22159 6.31916 1.15748 6.27977 1.15455 6.28165C1.07864 6.33128 1.21045 6.41227 1.22144 6.32264ZM19.0112 26.9207C18.9525 26.9296 18.9274 27.0592 19.0021 27.0485C19.0615 27.0382 19.0828 26.908 19.0112 26.9207ZM20.7968 12.5345C20.8021 12.5334 20.8094 12.4832 20.7798 12.4827C20.6844 12.4813 20.7077 12.5526 20.7968 12.5345ZM20.0737 25.2375C19.9218 25.4892 19.7281 25.5741 19.9316 25.3253C19.9669 25.2793 19.8797 25.4408 19.9293 25.3852C20.0149 25.2803 20.0334 25.185 20.1303 25.0841C20.1458 25.0645 20.0811 25.2224 20.0735 25.238C20.0736 25.2378 20.0736 25.2377 20.0737 25.2375ZM20.3916 16.9969C20.3963 16.9958 20.4105 16.9274 20.4063 16.9251C20.3049 16.8725 20.2765 17.0101 20.3916 16.9969ZM21.0488 9.59103C21.0588 9.58677 21.0622 9.42395 21.0526 9.41911C20.8647 9.34251 20.8576 9.66933 21.0488 9.59103ZM19.7867 21.669C19.8717 21.7651 19.8638 21.8568 19.724 21.8891C19.7471 21.816 19.7643 21.7421 19.7867 21.669Z" fill="black"/>
<path d="M11.5388 0.10172C11.7176 0.0692024 11.9398 0.106062 12.116 0.156405C12.169 0.171998 12.1413 0.238894 12.1783 0.252704C12.2513 0.279645 12.324 0.247601 12.3925 0.27966C12.416 0.290626 12.3851 0.396637 12.4098 0.405701C12.5494 0.454688 12.675 0.429604 12.8175 0.454836C13.4979 0.578999 14.1747 0.638521 14.8614 0.712997C15.0922 0.737609 15.3598 0.845247 15.6009 0.813667C15.6281 0.809841 15.6162 0.715805 15.6217 0.708341C15.7078 0.594194 15.6725 0.781395 15.7244 0.808819C15.9327 0.917268 16.1673 0.937177 16.374 0.911587C16.4625 0.900468 16.3839 0.710658 16.4672 0.819215C16.473 0.82656 16.4455 0.924477 16.4692 0.936289C16.5244 0.962953 16.6242 0.950436 16.6659 0.960534C16.7452 0.980435 16.7586 0.98016 16.835 0.985454C16.9398 0.993578 17.063 1.04986 17.174 1.03372C17.198 1.02999 17.1724 0.926663 17.2113 0.911565C17.2501 0.896486 17.3506 0.910984 17.3834 0.936949C17.4163 0.962914 17.397 1.04184 17.4019 1.06049C17.4422 1.21775 17.5746 1.01118 17.5884 1.00672C17.8628 0.932983 18.0973 1.07024 18.3497 1.08675C18.5448 1.09925 18.7572 1.07361 18.9408 1.09229C19.1621 1.11513 19.3452 1.18396 19.5595 1.19084C19.5822 1.19169 19.5648 1.07044 19.5926 1.07125C19.892 1.08026 20.1757 1.1161 20.4661 1.22139C20.4943 1.23199 20.4483 1.33347 20.476 1.35031C20.6458 1.45104 20.9111 1.68208 21.0592 1.23639C21.179 1.26489 21.323 1.29637 21.4236 1.39809C21.4882 1.46356 21.4097 1.57119 21.5003 1.53052C21.5207 1.52148 21.5046 1.41942 21.5346 1.41342C21.6615 1.3883 21.792 1.43325 21.917 1.39319C21.9426 1.38481 21.9444 1.29484 21.9529 1.27942C22.0238 1.15472 22.1009 1.37951 22.1207 1.39723C22.2718 1.52967 22.3961 1.4956 22.5451 1.51342C22.5798 1.51763 22.5507 1.39355 22.5846 1.3933C22.7601 1.39359 22.9426 1.42277 23.1078 1.49389C23.1442 1.50997 23.0988 1.60844 23.1157 1.62136C23.1902 1.67706 23.2283 1.48607 23.3006 1.53589C23.3158 1.54615 23.2974 1.63259 23.2993 1.6425C23.3293 1.7981 23.3923 1.58891 23.4048 1.58547C23.562 1.53723 23.6364 1.77084 23.7838 1.75518C23.8015 1.75309 23.7748 1.63824 23.8238 1.63913C24.1506 1.64443 24.4946 1.71472 24.8043 1.84119C24.8527 1.86074 24.8071 1.93945 24.809 1.95005C24.8413 2.11596 24.9001 1.90585 24.9175 1.89975C25.0539 1.85725 25.1523 2.05141 25.2702 1.80714C25.4225 1.85157 25.5776 1.87736 25.7339 1.8987C25.7686 1.90344 25.8034 1.90796 25.8382 1.9124C25.8625 1.91549 25.9295 1.93378 25.9521 1.94342C26.3076 2.09488 26.6885 2.30598 26.8742 2.70441C26.8778 2.71183 26.7926 2.7772 26.7997 2.79134C26.8791 2.96198 26.9745 2.82256 27.2197 2.80465C27.2832 2.8028 27.1431 3.03009 27.1304 3.04456C27.0918 3.10642 26.9417 3.16704 26.9364 3.18236C26.8906 3.29856 27.3336 3.01227 27.3971 3.12747C27.3981 3.13125 27.305 3.16227 27.3013 3.17584C27.2892 3.21752 27.3375 3.22799 27.3207 3.27016C27.2813 3.36847 27.053 3.48268 27.2255 3.51807C27.2476 3.5236 27.5226 3.40014 27.5447 3.51141C27.5547 3.55538 27.6082 3.74049 27.5976 3.79607C27.5887 3.85113 27.4869 3.8337 27.4835 3.83837C27.3816 3.99237 27.3199 3.95123 27.1415 4.03764C26.9618 4.11812 27.406 4.04809 27.4591 4.0694C27.5123 4.09122 27.4155 4.1973 27.3798 4.22056C27.3446 4.24522 27.2815 4.22132 27.2619 4.24206C27.1326 4.37649 27.4881 4.28966 27.5615 4.33291C27.7343 4.43907 27.3988 4.52749 27.3626 4.61466C27.3528 4.63954 27.4299 4.62193 27.4361 4.64505C27.4592 4.73861 27.3514 4.78296 27.4384 4.89332C27.4526 4.91114 27.6458 5.01525 27.4923 5.05288C27.4702 5.05798 27.3893 5.02737 27.3664 5.06295C27.332 5.11704 27.301 5.21307 27.3202 5.27722C27.3343 5.32469 27.4787 5.29334 27.4279 5.3438C27.4052 5.36609 27.332 5.30784 27.296 5.35021C27.2605 5.39086 27.2452 5.50809 27.2401 5.55383C27.2355 5.59809 27.3433 5.59204 27.3497 5.59677C27.3861 5.62503 27.4211 5.71965 27.4195 5.72738C27.3635 6.11408 27.1149 6.42094 27.0963 6.79533C27.0948 6.82458 27.2083 6.82902 27.2092 6.83372C27.2346 6.94066 26.9595 6.802 26.8475 6.84947C27.0721 6.88663 27.0231 6.91918 27.0332 6.99239C27.0382 7.02764 27.1282 7.02802 27.1364 7.03287C27.2572 7.109 27.081 7.10739 27.0445 7.10893C26.9103 7.11463 27.0535 7.18161 26.9637 7.18606C26.8745 7.19063 26.7597 7.11356 26.7476 7.17983C26.8237 7.21466 27.0423 7.20975 27.066 7.26607C27.1551 7.47951 26.9224 7.79545 26.8778 7.94375C26.8328 8.0919 26.8396 8.14183 26.795 8.22544C26.7856 8.24322 26.7796 8.25851 26.7764 8.2718C26.7683 8.30549 26.7792 8.3261 26.7988 8.3425C26.8361 8.37364 26.905 8.38976 26.9371 8.45308C26.9928 8.56297 26.6153 8.45367 26.5302 8.45469C26.4452 8.45573 26.5279 8.4848 26.4796 8.49535C26.4314 8.5059 26.381 8.45872 26.3574 8.49768C26.3339 8.53632 26.4642 8.67203 26.5487 8.6994C26.7276 8.75752 26.9277 8.73544 26.8439 8.83362C26.839 8.83929 26.7406 8.80429 26.7269 8.82678C26.6212 9.00413 26.5896 9.20145 26.4972 9.38428C26.4844 9.40951 26.3752 9.37221 26.3665 9.38677C26.2758 9.53737 26.4716 9.50336 26.6702 9.61439C26.3942 9.56247 26.2179 9.5916 26.2035 9.71344C26.1947 9.78642 26.3171 9.7871 26.3972 9.84335C26.4213 9.86018 26.3329 9.90304 26.3887 9.9184C26.5708 9.96859 26.7836 9.94211 26.687 10.0573C26.6824 10.0623 26.5831 10.0347 26.575 10.0529C26.5218 10.1704 26.7131 10.204 26.7217 10.3374C26.7284 10.4409 26.593 10.6146 26.5633 10.7301C26.2614 10.7022 26.3219 10.8203 26.5243 10.8819C26.5088 10.9579 26.5129 11.0408 26.4782 11.1127C26.4664 11.1375 26.3821 11.1144 26.3726 11.1169C26.2236 11.1556 26.4192 11.2036 26.4254 11.2206C26.485 11.4046 26.3269 11.5415 26.4564 11.7214C26.4612 11.7278 26.6582 11.7497 26.51 11.7865C26.4999 11.7889 26.4142 11.7269 26.4012 11.807C26.3878 11.8871 26.2739 12.0333 26.356 12.1502C26.3759 12.1785 26.5254 12.2549 26.4009 12.3036C26.384 12.3101 26.3301 12.2993 26.2992 12.3084C26.2011 12.3378 26.3906 12.3659 26.2266 12.3982C26.0625 12.4305 25.9412 12.5093 26.047 12.628C26.0501 12.6318 26.1962 12.6653 26.1921 12.7008C26.1855 12.7574 26.1518 12.8369 26.1504 12.8965C26.1497 12.9249 26.2395 12.9104 26.2409 12.9154C26.2808 13.1081 26.1953 13.2413 26.1559 13.4449C26.149 13.4825 26.2569 13.594 26.1657 13.6638C26.0673 13.7408 25.6695 13.6464 25.7677 13.8343C25.8095 13.9104 26.2912 14.0157 26.0394 14.1433C26.094 14.4024 25.975 14.6399 26.0526 14.9003C26.0562 14.912 26.1709 14.9501 26.1683 14.9778C26.1644 15.0186 26.111 15.0402 26.1071 15.0692C26.0898 15.1905 26.1313 15.3023 26.1221 15.4196C26.119 15.4639 26.0694 15.4479 26.0664 15.5007C26.0638 15.5531 26.1266 15.5901 26.0953 15.6617C26.0712 15.7159 25.9475 15.7687 25.9366 15.8407C26.0561 15.8444 26.054 15.8945 26.0839 15.9826C26.0896 15.9996 26.1296 15.9817 26.1343 15.9897C26.1539 16.0224 26.1208 16.0521 26.1419 16.083C26.1469 16.0904 26.1847 16.091 26.1909 16.0972C26.2436 16.1498 26.1565 16.236 26.1429 16.2506C26.0886 16.307 26.1344 16.3335 26.1132 16.3765C26.0927 16.4198 26.0679 16.3545 26.0558 16.4056C26.0316 16.5123 26.0398 16.6445 26.0398 16.7532C26.0401 16.7959 26.0789 16.7668 26.0799 16.7729C26.0886 16.8612 26.0515 16.9491 26.1213 16.999C25.9413 17.0599 26.1384 17.0527 26.1005 17.1773C26.0974 17.1873 26.0207 17.1995 26.0076 17.1619C25.9941 17.1242 26.0176 17.0668 25.9963 17.0137C25.992 17.0012 25.9056 16.9286 25.8989 16.9188C25.8513 16.8429 25.9889 16.8321 25.9967 16.8281C26.0788 16.7826 25.9811 16.6942 25.9718 16.6708C25.9346 16.5658 25.9519 16.4764 25.9224 16.3869C25.9032 16.3295 25.7911 16.3234 25.7899 16.2781C25.7844 16.1268 25.9548 16.0754 25.7943 15.9321C25.7596 15.9012 25.622 15.9308 25.7218 15.8214C25.7275 15.8147 25.8258 15.7349 25.7557 15.6873C25.7468 15.6813 25.7037 15.6811 25.6993 15.6733C25.6708 15.6209 25.7025 15.5861 25.6805 15.5289C25.6583 15.4724 25.6252 15.4039 25.6349 15.3389C25.6404 15.2999 25.7251 15.2502 25.7461 15.232C25.8066 15.1803 25.6979 15.1224 25.7744 15.0907C25.8527 15.0588 25.974 15.125 26.0253 15.0393C25.895 15.0342 25.7609 15.0248 25.629 15.0177C25.6176 14.8277 25.6498 14.6411 25.6326 14.4506C25.6302 14.4268 25.5536 14.4495 25.5487 14.424C25.5281 14.3158 25.5794 14.2246 25.5497 14.1125C25.5264 14.0255 25.4311 13.9295 25.4014 13.8384C25.5801 13.7882 25.5123 13.653 25.5245 13.5564C25.529 13.5225 25.5799 13.5264 25.5957 13.5027C25.6544 13.4134 25.4862 13.4507 25.4583 13.4247C25.3376 13.3132 25.7262 13.3175 25.7161 13.191C25.7161 13.1844 25.502 13.0944 25.4879 13.0825C25.3985 13.0074 25.5619 13.0735 25.5766 13.0292C25.6036 12.9484 25.6555 12.8937 25.5899 12.7947C25.5708 12.7658 25.4307 12.6925 25.5372 12.6426C25.5512 12.6361 25.6251 12.6433 25.6294 12.6377C25.7014 12.5367 25.4679 12.5232 25.3865 12.4594C25.3048 12.3955 25.4668 12.3109 25.5148 12.2945C25.6378 12.2516 25.5674 12.3348 25.5795 12.3381C25.7226 12.3764 25.6983 12.308 25.7111 12.2573C25.9465 12.2619 25.9348 12.1898 25.7235 12.2047C25.7005 12.2065 25.722 12.2476 25.7111 12.2573C25.481 12.2006 25.4482 12.1191 25.6687 12.0438C25.7723 12.0087 25.8917 12.0539 25.8514 11.9279C25.8331 11.8707 25.6656 11.8828 25.6208 11.8304C25.5178 11.7103 25.6783 11.5723 25.6574 11.4536C25.6495 11.4105 25.5542 11.4457 25.5454 11.4159C25.5216 11.3368 25.5946 11.2735 25.5606 11.1934C25.5574 11.1861 25.457 11.1962 25.4564 11.1719C25.4495 10.987 25.5202 10.8323 25.5316 10.6407C25.537 10.5487 25.4891 10.377 25.5065 10.2822C25.5357 10.1167 25.7042 9.92826 25.6797 9.78197C25.664 9.68681 25.5563 9.69562 25.4876 9.64785C25.3538 9.55553 25.6181 9.44634 25.6593 9.43328C25.6606 9.43288 25.6777 9.51565 25.7366 9.4794C25.853 9.46799 25.6597 9.43428 25.6593 9.43328C25.6855 9.42408 25.7265 9.26836 25.7098 9.23367C25.7006 9.21502 25.5983 9.21206 25.5954 9.20254C25.5282 8.97716 25.5287 8.75747 25.6076 8.54559C25.6102 8.54206 25.7232 8.56483 25.7279 8.55634C25.7967 8.4387 25.67 8.33683 25.6043 8.21841C25.5882 8.18938 25.5785 8.16274 25.5763 8.13867C25.5739 8.11311 25.5797 8.09046 25.5949 8.07094C25.6235 8.03342 25.6852 8.00725 25.7865 7.99377C25.7757 7.91079 25.8819 7.81615 25.9462 7.76116C26.0103 7.70698 25.7917 7.65676 25.7885 7.65025C25.6826 7.44945 25.8293 7.37031 25.8858 7.19503C25.9133 7.11085 25.917 6.93647 25.913 6.83947C25.9094 6.76321 25.9698 6.73134 25.9517 6.6574C25.9493 6.64748 25.8501 6.63593 25.847 6.63239C25.7469 6.53359 25.9767 6.61973 26.0224 6.61348C26.1888 6.59084 26.2779 6.57609 26.2261 6.46539C26.2142 6.44 25.8864 6.30454 25.875 6.26165C25.8607 6.20582 25.9788 6.25121 25.9609 6.19123C25.9595 6.18616 25.8838 6.17115 25.8943 6.13904C25.9418 5.99087 26.0205 5.83727 26.0441 5.68202C26.0475 5.66102 25.9225 5.66456 25.9256 5.63406C25.9396 5.49212 25.9728 5.34253 26.051 5.22053C26.0705 5.19081 26.1511 5.22395 26.1771 5.22088C26.335 5.20143 26.1256 5.10582 26.1228 5.09619C26.0525 4.84993 26.2706 4.69487 26.1816 4.48195C26.1765 4.46737 25.9418 4.39387 26.1425 4.35298C26.156 4.35114 26.3611 4.30323 26.2184 4.28149C26.2095 4.28056 26.1047 4.3076 26.1134 4.27212C26.1218 4.23393 26.0471 4.19322 26.1559 4.13229C26.1906 4.1147 26.3863 4.03828 26.2175 4.03154C26.2044 4.02538 25.8366 4.07378 26.0766 3.98716C26.116 3.97283 26.3744 3.89297 26.2286 3.89277C26.2007 3.89413 26.1486 3.92743 26.1069 3.92175C26.0438 3.91602 26.0942 3.85032 25.9741 3.87852C25.9519 3.88184 25.7866 3.9588 25.8981 3.87513C25.9152 3.86146 25.9941 3.81855 25.9976 3.80488C26.0124 3.73712 25.9347 3.73341 25.9415 3.65065C25.9425 3.6203 26.0534 3.52645 26.0613 3.47971C26.0699 3.43341 26.0495 3.36521 25.983 3.39659C25.9187 3.42968 25.7987 3.62872 25.7585 3.62048C25.6169 3.59349 25.5196 3.44616 25.3573 3.33127L25.647 3.41018C25.6133 3.40022 25.5796 3.39098 25.5458 3.38291C25.5257 3.37813 25.5056 3.37376 25.4854 3.3699C25.4402 3.36122 25.4677 3.44764 25.4004 3.44075C25.1527 3.41562 24.7181 3.44056 24.524 3.2417C24.3689 3.0824 24.5972 3.00188 24.4727 2.92985C24.4125 2.89541 24.3134 3.1531 24.2973 3.1597C24.1382 3.22734 24.0462 3.0976 23.9077 3.11853C23.8791 3.12289 23.8942 3.23366 23.87 3.23619C23.7872 3.24578 23.708 3.18826 23.6304 3.18858C23.5956 3.18897 23.5928 3.27196 23.562 3.26212C23.4872 3.23947 23.4228 3.19743 23.3566 3.11221C23.3505 3.10445 23.4075 3.00704 23.3512 2.9971C23.2602 2.9813 23.1548 2.89304 23.0418 2.96059C23.0083 2.98096 22.9872 3.16898 22.9344 3.03205C22.9231 3.00343 22.9653 2.77942 22.8662 2.96644C22.8494 2.99747 22.6902 3.24713 22.6432 3.07078C22.6307 3.02435 22.6061 2.83496 22.5656 2.8602C22.56 2.86433 22.5701 2.9675 22.538 2.9742C22.4249 2.99605 22.3127 2.97391 22.1969 2.99445C22.1657 3.00011 22.2005 3.10922 22.1544 3.11432C22.0275 3.12852 21.8761 3.08695 21.7593 3.04276C21.7163 3.02628 21.7551 2.94247 21.7528 2.93272C21.7156 2.7743 21.6654 2.97861 21.6472 2.98908C21.535 3.05149 21.4594 2.94626 21.3582 2.96292C21.3302 2.96725 21.3405 3.06785 21.3342 3.07616C21.2699 3.15708 21.3282 2.98347 21.2942 2.96063C21.1992 2.89607 21.0874 2.89399 20.9861 2.89771C20.9489 2.89922 20.98 3.01751 20.9468 3.01755C20.7461 3.01963 20.5415 2.99094 20.3564 2.91175C20.3216 2.89663 20.3515 2.81023 20.3457 2.78944C20.3055 2.64398 20.2118 2.82999 20.1927 2.84688C20.1054 2.92396 20.0807 2.84333 20.0089 2.85217C19.6616 2.89695 19.2392 2.81256 18.9136 2.75698C18.4943 2.68541 18.1707 2.57911 17.7613 2.57519C17.7354 2.57485 17.754 2.69412 17.7316 2.69534C17.4473 2.70598 17.1626 2.64298 16.8766 2.66115C16.8526 2.66241 16.8808 2.77589 16.8421 2.78165C16.7627 2.79427 16.6647 2.78286 16.5889 2.74309C16.5519 2.7239 16.6078 2.63086 16.5705 2.61351C16.4842 2.57292 16.3881 2.55995 16.2938 2.5731C16.254 2.57896 16.3077 2.69611 16.2564 2.69483C15.9105 2.68872 15.5731 2.6928 15.2236 2.53011C15.2001 2.51896 15.1887 2.28601 15.1363 2.32845C15.1299 2.39271 15.127 2.46848 15.1225 2.53725C14.6149 2.55372 14.1179 2.45618 13.6117 2.43012C13.5906 2.42905 13.6238 2.55305 13.5829 2.55163C13.3455 2.5435 13.1097 2.57214 12.8705 2.44517C12.8464 2.43274 12.8661 2.21655 12.7905 2.2479C12.777 2.25361 12.6674 2.28055 12.6396 2.3271C12.6358 2.33413 12.6534 2.43549 12.6192 2.43787C12.418 2.44987 12.2042 2.42399 12.007 2.36041C11.9735 2.34994 12.0102 2.24266 11.9864 2.23427C11.8252 2.17565 11.6413 2.2564 11.4892 2.15834C11.3787 2.09231 11.4201 1.90638 11.3665 1.7232C11.3634 1.69736 11.2886 1.69323 11.2877 1.5867C11.279 1.3188 11.3109 1.02545 11.2978 0.739893C11.2948 0.692388 11.2452 0.721084 11.2461 0.668146C11.2461 0.668135 11.2461 0.668124 11.2461 0.668112C11.2461 0.652506 11.25 0.629812 11.2607 0.595996C11.2628 0.586046 11.3262 0.536725 11.3456 0.486321C11.3575 0.451469 11.3374 0.343104 11.3595 0.298496C11.3801 0.25393 11.4032 0.344776 11.4421 0.292415C11.4807 0.239415 11.4684 0.11611 11.5388 0.10172ZM26.2338 7.52054C26.3509 7.48308 25.9662 7.39793 26.046 7.47967C26.0504 7.48372 26.2281 7.52254 26.2338 7.52054ZM25.8392 14.6457C25.9485 14.5715 25.7825 14.5158 25.6982 14.5682C25.6157 14.6206 25.8069 14.6684 25.8392 14.6457ZM25.9358 15.4416C26.0089 15.3532 25.701 15.3354 25.7693 15.4321C25.7733 15.4377 25.9317 15.4468 25.9358 15.4416ZM11.6273 1.67174C11.6262 1.66669 11.5772 1.66159 11.5764 1.66658C11.55 1.78688 11.6474 1.79699 11.6273 1.67174ZM26.0197 16.2295C26.0521 16.2018 26.0129 16.1207 25.972 16.1554C25.9399 16.1834 25.9804 16.2641 26.0197 16.2295ZM27.1745 4.6099C27.1803 4.60921 27.1866 4.57606 27.1541 4.57577C27.0496 4.57475 27.0773 4.62084 27.1745 4.6099ZM26.0494 17.5666C26.0449 17.3668 26.1745 17.2502 26.1498 17.4639C26.1463 17.5031 26.1171 17.3797 26.1053 17.4291C26.0873 17.521 26.1494 17.5814 26.1132 17.6726C26.1081 17.6892 26.0505 17.5781 26.0493 17.5662C26.0493 17.5663 26.0494 17.5665 26.0494 17.5666ZM26.7047 7.57852C26.7101 7.57835 26.724 7.53333 26.7192 7.53125C26.6015 7.48188 26.5732 7.5729 26.7047 7.57852ZM26.7012 2.68424C26.7072 2.67424 26.6216 2.58915 26.612 2.59504C26.4452 2.71239 26.601 2.87027 26.7012 2.68424ZM26.5551 10.7313C26.6692 10.7918 26.6764 10.853 26.5245 10.8817C26.537 10.8318 26.5429 10.7812 26.5551 10.7313Z" fill="black"/>
</svg>
