<svg width="30" height="26" viewBox="0 0 30 26" fill="none" xmlns="http://www.w3.org/2000/svg">
<path d="M13.594 10.4313C13.3539 10.2737 13.0885 10.0158 12.9126 9.80578C12.8571 9.73993 12.9096 9.74937 12.8727 9.70276C12.7998 9.61033 12.7187 9.54482 12.6533 9.4502C12.632 9.41892 12.6993 9.42151 12.6763 9.38954C12.552 9.21641 12.415 9.06908 12.2929 8.89389C11.6941 8.02804 11.2115 7.13352 10.8015 6.17425C10.6664 5.85734 10.5501 5.45639 10.411 5.12911C10.3947 5.0912 10.363 5.12881 10.357 5.12264C10.2646 5.02479 10.3593 5.0336 10.3433 4.95366C10.2803 4.63783 10.1784 4.29637 10.0834 4.00209C10.0431 3.87675 9.99418 4.02543 10.0073 3.88561C10.0082 3.876 10.0602 3.89686 10.0561 3.86109C10.0465 3.78003 10.0024 3.62837 9.99281 3.5671C9.97369 3.44647 9.96871 3.42453 9.94715 3.31186C9.91796 3.15552 9.90958 2.96649 9.87857 2.79646C9.87192 2.76072 9.83147 2.81404 9.81684 2.75734C9.80187 2.70158 9.79092 2.54017 9.79902 2.48908C9.80653 2.43669 9.84443 2.45569 9.85218 2.44603C9.85644 2.44065 9.85998 2.43489 9.86287 2.42881C9.90377 2.34111 9.81555 2.18905 9.81394 2.16267C9.80185 2.03352 9.80504 1.90305 9.82061 1.78223C9.8399 1.63158 9.86368 1.50193 9.88613 1.38655C9.9089 1.26796 9.93876 1.10749 9.95644 1.00005C9.97226 0.905341 9.98333 0.837834 9.99925 0.763496C10.0064 0.732813 10.0134 0.7055 10.0225 0.677877C10.0271 0.663996 10.0322 0.649985 10.0391 0.634323C10.068 0.607754 9.9778 0.643503 10.1732 0.492123C10.3073 0.41163 10.4953 0.539983 10.5063 0.586506C10.5439 0.651365 10.5276 0.626268 10.5365 0.644394C10.5445 0.664028 10.5494 0.680187 10.5537 0.695746C10.562 0.726591 10.5673 0.755288 10.5722 0.787281C10.5961 0.940796 10.6051 1.08924 10.6097 1.24095C10.6173 1.56117 10.5934 1.85241 10.6007 2.16776C10.6014 2.20055 10.66 2.16221 10.6611 2.20244C10.6721 2.65436 10.6689 3.07103 10.6279 3.50763C10.6237 3.55207 10.5684 3.49402 10.5607 3.53841C10.5164 3.80385 10.3977 4.22552 10.6504 4.38526C10.6414 4.56147 10.6323 4.78124 10.5799 4.94576C10.5461 5.04856 10.4806 4.94754 10.5083 5.07359C10.5145 5.10204 10.5721 5.06595 10.5772 5.10859C10.5988 5.28819 10.5801 5.48745 10.6115 5.67117C10.618 5.7072 10.6716 5.69813 10.6813 5.70845C10.7606 5.79508 10.6321 5.93727 10.6223 5.96872C10.5523 6.20695 10.5803 6.38897 10.5799 6.60906C10.5798 6.66077 10.6554 6.60055 10.6582 6.65037C10.6715 6.9084 10.6685 7.18131 10.6358 7.43229C10.6283 7.48857 10.5598 7.43605 10.5526 7.46291C10.5214 7.5815 10.6513 7.60918 10.6245 7.72333C10.619 7.74741 10.5596 7.73326 10.5531 7.73761C10.4511 7.8056 10.5967 7.86693 10.6003 7.88471C10.6473 8.10849 10.4938 8.2494 10.5169 8.46582C10.5199 8.49168 10.5975 8.43391 10.6015 8.5066C10.6289 8.99102 10.6167 9.5013 10.5561 9.98036C10.5468 10.0546 10.4821 10.0017 10.4743 10.0063C10.3519 10.0827 10.5177 10.1316 10.5245 10.1558C10.5731 10.3458 10.4336 10.528 10.6388 10.6563C10.5838 11.4693 10.7316 12.2632 10.5646 13.0743C10.5626 13.0843 10.4688 13.0692 10.4653 13.0893C10.4217 13.3335 10.5652 13.2872 10.7526 13.4422C10.8001 13.4814 10.5889 13.6128 10.5733 13.6242C10.5162 13.6661 10.3729 13.6308 10.3621 13.6445C10.2768 13.7587 10.7446 13.7178 10.7538 13.8677C10.7532 13.8725 10.6653 13.8562 10.6574 13.8695C10.6325 13.9108 10.6693 13.9486 10.6415 13.9887C10.5774 14.0801 10.3478 14.1239 10.4898 14.2491C10.5083 14.2646 10.777 14.2257 10.7733 14.3554C10.7709 14.4012 10.7936 14.6475 10.7811 14.7114C10.7686 14.7777 10.6766 14.7391 10.6732 14.744C10.5697 14.9269 10.516 14.8639 10.3486 14.9637C10.1816 15.0629 10.5937 15.0074 10.6431 15.0408C10.6925 15.0752 10.6072 15.2155 10.5763 15.2502C10.5453 15.2852 10.4847 15.2505 10.4681 15.2807C10.3599 15.4793 10.6828 15.3427 10.7552 15.3962C10.9264 15.5102 10.6316 15.6755 10.6172 15.8072C10.6135 15.8433 10.6807 15.8057 10.6915 15.8357C10.7326 15.9469 10.6479 16.0508 10.7611 16.175C10.7758 16.1916 10.9103 16.2424 10.9017 16.3042L10.7421 16.0822C10.7536 16.0948 10.7601 16.1153 10.7589 16.1472C10.7581 16.1698 10.6938 16.225 10.7313 16.2655C10.7871 16.3265 10.9085 16.4054 10.9973 16.4145C11.0625 16.4212 11.0494 16.273 11.1041 16.3403C11.1288 16.3701 11.0398 16.4167 11.0898 16.4673C11.1394 16.5185 11.3007 16.5735 11.3626 16.5897C11.4246 16.6067 11.4212 16.5004 11.4283 16.4956C11.4695 16.4686 11.5967 16.4548 11.6064 16.4571C11.6793 16.4751 11.753 16.495 11.8239 16.5151C12.2484 16.6349 12.6798 16.7871 13.1392 16.7342C13.1812 16.7294 13.1519 16.6224 13.1583 16.6206C13.2999 16.5729 13.1925 16.8607 13.2971 16.9538C13.2766 16.7362 13.3365 16.7744 13.4374 16.7458C13.486 16.7317 13.4551 16.6485 13.4591 16.6397C13.5246 16.5077 13.5828 16.67 13.5983 16.703C13.6544 16.8246 13.6965 16.6734 13.7356 16.754C13.7755 16.834 13.708 16.9629 13.8082 16.9531C13.8293 16.8727 13.7392 16.6751 13.8105 16.6355C14.0728 16.4891 14.6056 16.5744 14.8331 16.5487C15.0597 16.5249 15.1261 16.4959 15.2621 16.4972C15.5062 16.4984 15.3882 16.3667 15.5166 16.2662C15.6454 16.1648 15.6595 16.5486 15.6986 16.6229C15.7374 16.6972 15.741 16.6106 15.7768 16.6481C15.8126 16.6855 15.7696 16.7522 15.8339 16.7543C15.8983 16.7566 16.0316 16.5754 16.0308 16.4878C16.0316 16.302 15.9127 16.1374 16.0847 16.162C16.0947 16.1635 16.0901 16.2673 16.1272 16.2682C16.4218 16.2713 16.7065 16.1969 17.0002 16.181C17.0403 16.1791 17.0382 16.2954 17.062 16.2954C17.3104 16.2955 17.1757 16.1404 17.2395 15.9036C17.2924 16.1767 17.4108 16.318 17.5849 16.2653C17.6897 16.2335 17.6354 16.1238 17.6769 16.0211C17.6889 15.9903 17.7872 16.046 17.783 15.9876C17.7695 15.7964 17.6368 15.6207 17.8383 15.6421C17.8473 15.6433 17.8543 15.7483 17.883 15.7453C18.0691 15.7266 18.0268 15.5355 18.2054 15.4502C18.3441 15.3838 18.6421 15.4064 18.8131 15.3664C18.9131 15.6622 19.0472 15.5389 19.0379 15.3136C19.1476 15.2837 19.2592 15.2305 19.3735 15.2205C19.4126 15.2171 19.4201 15.3106 19.428 15.3181C19.5492 15.4371 19.5239 15.2232 19.5441 15.2071C19.734 15.0651 19.9483 15.0967 20.1228 14.9647C20.1273 14.963 20.141 14.9587 20.1457 14.9575C20.1795 14.9375 20.2127 14.9125 20.2452 14.8805C20.2527 14.873 20.2166 14.6582 20.3217 14.7961C20.3284 14.8057 20.2679 14.9215 20.3885 14.9009C20.4789 14.8855 20.6404 14.9174 20.7764 14.8813C20.8226 14.8689 20.8662 14.8486 20.9037 14.8155C20.9387 14.7841 21.0104 14.5916 21.1169 14.713C21.131 14.7295 21.1297 14.7929 21.1513 14.8243C21.2201 14.9245 21.212 14.7035 21.3018 14.8776C21.3912 15.0519 21.532 15.1703 21.6784 15.0207C21.6829 15.0163 21.6998 14.8391 21.7526 14.8351C21.8364 14.8287 21.9609 14.8501 22.0477 14.8394C22.0897 14.8341 22.0511 14.7305 22.0582 14.7278C22.3361 14.6378 22.5484 14.7155 22.8548 14.7347C22.9097 14.7384 23.0629 14.5844 23.1767 14.692C23.3023 14.8093 23.2113 15.3314 23.4712 15.1921C23.5778 15.1356 23.6879 14.4822 23.8981 14.8094C24.2774 14.7128 24.635 14.8704 25.0163 14.7476C25.0333 14.7421 25.0847 14.5685 25.1256 14.5705C25.1862 14.5737 25.2219 14.6535 25.2646 14.6582C25.4423 14.6797 25.6096 14.6101 25.7824 14.6196C25.8489 14.6229 25.8262 14.7037 25.9063 14.7074C25.9839 14.7108 26.0346 14.6054 26.1422 14.6554C26.2243 14.6936 26.3055 14.9047 26.4115 14.9268C26.4145 14.7191 26.4871 14.7225 26.6197 14.6676C26.6446 14.657 26.6176 14.5857 26.6293 14.5771C26.6766 14.5405 26.721 14.5994 26.7665 14.5597C26.7776 14.5502 26.7778 14.4809 26.7869 14.4693C26.8635 14.3683 26.9946 14.5247 27.016 14.5511C27.099 14.6528 27.1379 14.5643 27.2025 14.6042C27.2671 14.6436 27.1707 14.6932 27.2462 14.7168C27.4062 14.7652 27.5997 14.7523 27.7618 14.7541C27.826 14.7544 27.7821 14.6685 27.7913 14.6665C27.9202 14.6451 28.0519 14.734 28.1252 14.5669C28.2171 14.9983 28.2054 14.5252 28.3903 14.6126C28.4049 14.6196 28.4235 14.8187 28.3674 14.849C28.311 14.8796 28.2282 14.8177 28.1476 14.8656C28.1287 14.8764 28.022 15.0717 28.0076 15.0843C27.8945 15.1808 27.8788 14.8698 27.8727 14.8526C27.8072 14.668 27.6734 14.8811 27.6398 14.8974C27.4834 14.9687 27.3523 14.9265 27.22 14.9793C27.1345 15.0135 27.1269 15.2298 27.0606 15.2259C26.8366 15.2144 26.7589 14.9056 26.5493 15.182C26.5043 15.2412 26.5498 15.4852 26.3879 15.2987C26.3773 15.2873 26.2597 15.1128 26.189 15.2286C26.1803 15.2432 26.181 15.316 26.1695 15.3226C26.0925 15.3656 26.041 15.3095 25.9589 15.341C25.8771 15.3726 25.7738 15.4196 25.6797 15.3986C25.6229 15.3862 25.5483 15.2495 25.5195 15.216C25.4396 15.1197 25.359 15.2857 25.31 15.1668C25.2601 15.0467 25.3524 14.8601 25.2238 14.784C25.2219 14.9821 25.214 15.1857 25.2093 15.3853C24.9318 15.3912 24.6564 15.3382 24.3806 15.3607C24.3467 15.3637 24.3847 15.4719 24.3476 15.4781C24.1911 15.5042 24.0548 15.4326 23.8955 15.4736C23.773 15.5058 23.6426 15.6333 23.5153 15.6728C23.4251 15.4385 23.2367 15.5331 23.0994 15.5221C23.0501 15.5183 23.0491 15.4534 23.013 15.4351C22.8775 15.3674 22.9533 15.5768 22.9204 15.6135C22.7798 15.7712 22.7308 15.2858 22.5499 15.3144C22.5397 15.3156 22.4477 15.5872 22.4341 15.6052C22.343 15.7217 22.4087 15.5163 22.3434 15.5038C22.2256 15.4811 22.1366 15.4279 22.0123 15.5209C21.9748 15.5485 21.9026 15.7232 21.8114 15.6079C21.7992 15.5928 21.7933 15.5057 21.7846 15.5018C21.6266 15.4381 21.6622 15.7099 21.5945 15.8142C21.5281 15.9183 21.374 15.7524 21.3388 15.7032C21.2481 15.5756 21.3802 15.6348 21.3817 15.6207C21.3983 15.4508 21.3093 15.4942 21.2362 15.4931C21.1797 15.2298 21.0804 15.2641 21.1598 15.4932C21.1685 15.5181 21.2197 15.4835 21.2362 15.4931C21.2181 15.7642 21.1219 15.8162 20.954 15.5981C20.9286 15.565 20.914 15.5277 20.9006 15.4952C20.8725 15.4273 20.8489 15.3797 20.7389 15.4372C20.6654 15.4759 20.7352 15.6504 20.6786 15.7147C20.5981 15.8067 20.4761 15.7939 20.3567 15.7893L20.4248 15.7679C20.3495 15.7745 20.2766 15.7827 20.2195 15.8149C20.1641 15.8461 20.2568 15.9198 20.2202 15.9444C20.1233 16.0098 20.0021 15.9735 19.9078 16.0496C19.8993 16.0566 19.9598 16.1475 19.9267 16.161C19.6773 16.2655 19.4322 16.2816 19.1633 16.3741C19.0348 16.4185 18.8206 16.5545 18.6827 16.5886C18.4416 16.6497 18.1049 16.5981 17.9164 16.6971C17.7921 16.7616 17.8526 16.8533 17.8176 16.9399C17.7496 17.1076 17.4816 16.9274 17.4443 16.8981C17.4431 16.8972 17.5502 16.8387 17.4734 16.8053C17.4051 16.7078 17.4455 16.8973 17.4443 16.8981C17.4193 16.8798 17.1865 16.9237 17.1456 16.9563C17.1239 16.974 17.1658 17.0661 17.1539 17.0736C16.8725 17.2478 16.5643 17.3571 16.2351 17.3898C16.2291 17.3892 16.2105 17.2789 16.1967 17.2788C15.9995 17.2759 15.9167 17.435 15.7776 17.5484C15.6404 17.6613 15.51 17.66 15.3801 17.4911C15.2682 17.5379 15.0834 17.4861 14.978 17.4522C14.8731 17.4183 14.8957 17.6332 14.8877 17.6389C14.6379 17.8171 14.4601 17.7173 14.1744 17.7294C14.0374 17.7353 13.7686 17.7889 13.6204 17.8195C13.5019 17.8447 13.4273 17.7972 13.319 17.8319C13.3043 17.8365 13.3219 17.9314 13.3175 17.9352C13.1947 18.0513 13.2499 17.8174 13.2236 17.7762C13.1279 17.6259 13.0761 17.5464 12.9188 17.6143C12.8835 17.6299 12.7665 17.9605 12.6958 17.9761C12.6048 17.9959 12.6446 17.8785 12.5493 17.901C12.5412 17.9028 12.538 17.9767 12.4798 17.9688C12.2092 17.933 11.9177 17.8504 11.632 17.7967C11.5928 17.789 11.6195 17.9137 11.5618 17.9041C11.5473 17.9016 11.5328 17.899 11.5183 17.8963C11.2586 17.8486 10.9797 17.7562 10.7549 17.612C10.6968 17.5742 10.7655 17.5147 10.7607 17.4869C10.7333 17.3204 10.5389 17.4637 10.5165 17.4574C10.3458 17.4168 10.2019 17.3411 10.0724 17.2521C9.87782 17.1349 9.61847 16.7898 9.57928 16.566C9.5534 16.305 9.58167 16.0393 9.49716 15.7603C9.48896 15.7347 9.25551 15.5732 9.4375 15.4781C9.44964 15.4712 9.63481 15.3759 9.49969 15.317C9.49128 15.3132 9.39624 15.3722 9.40076 15.2836C9.40503 15.1941 9.33235 15.0569 9.43439 14.9369C9.46659 14.8977 9.65022 14.7993 9.49604 14.6975C9.48486 14.6932 9.1421 14.532 9.37294 14.4631C9.41089 14.4512 9.65594 14.448 9.52669 14.3269C9.50176 14.3036 9.44841 14.3514 9.41282 14.2882C9.35825 14.191 9.42039 14.0535 9.31118 13.9307C9.29159 13.9076 9.12797 13.8258 9.25146 13.7481C9.27074 13.7359 9.35095 13.7542 9.35962 13.7156C9.40105 13.5333 9.34756 13.3352 9.40265 13.148C9.42193 13.0826 9.54851 13.1119 9.58227 13.0432C9.61605 12.9746 9.64794 12.8361 9.59096 12.7653C9.53414 12.6943 9.33444 12.7787 9.31996 12.67C9.25876 12.203 9.38567 11.7357 9.41469 11.2718C9.41919 11.2023 9.35052 11.2606 9.35272 11.1581C9.35911 10.7835 9.32935 10.135 9.47623 9.81158C9.59217 9.55138 9.66048 9.87891 9.71003 9.68013C9.73296 9.5843 9.53732 9.47973 9.53233 9.45677C9.47884 9.23103 9.57282 9.07425 9.55526 8.87094C9.55174 8.82894 9.47192 8.86972 9.46992 8.83397C9.46262 8.71196 9.50351 8.58359 9.50306 8.46691C9.50272 8.41456 9.44417 8.42381 9.45125 8.3757C9.46747 8.2606 9.49729 8.15908 9.55619 8.04764C9.56148 8.03749 9.62907 8.10679 9.63558 8.02194C9.64616 7.88542 9.70505 7.71264 9.65942 7.55407C9.64563 7.50693 9.52023 7.50376 9.61198 7.40383C9.63118 7.38291 9.7796 7.41131 9.6558 7.29284C9.63465 7.27318 9.47337 7.07403 9.58924 6.97709C9.61971 6.95168 9.74223 6.88744 9.72596 6.83067C9.72336 6.82296 9.65687 6.85292 9.65288 6.80598C9.64009 6.63975 9.65571 6.47173 9.64477 6.29946C9.6418 6.25366 9.57304 6.32091 9.5709 6.25272C9.5651 6.06516 9.59492 5.83459 9.62431 5.65693C9.63531 5.58895 9.68457 5.63672 9.6905 5.63184C9.78592 5.5535 9.6648 5.50512 9.65919 5.4788C9.62519 5.3153 9.68884 5.19366 9.68137 5.04703C9.67953 5.00662 9.62108 5.03442 9.61643 5.02632C9.57159 4.9425 9.67022 5.00582 9.68422 4.95348C9.72374 4.80021 9.72712 4.63096 9.72747 4.48077C9.72753 4.42562 9.66051 4.48662 9.66143 4.4372C9.66583 4.1457 9.6881 3.83161 9.73451 3.54572C9.74337 3.49002 9.7885 3.5257 9.79966 3.51421C9.87725 3.43493 9.78039 3.31913 9.77211 3.29306C9.73345 3.17328 9.776 3.13198 9.77256 3.02606C9.75594 2.50544 9.80415 1.86591 9.81957 1.39001C9.82481 1.24993 9.82961 1.09359 9.82847 0.961348C9.82822 0.929478 9.82781 0.904198 9.82783 0.887725C9.82711 0.872917 9.82622 0.864308 9.82885 0.871725C9.83028 0.875562 9.83253 0.883378 9.83831 0.898971C9.84125 0.906808 9.84512 0.916651 9.851 0.929481C9.8585 0.928138 9.84608 0.985499 10.0029 1.1153C10.0798 1.17702 10.2449 1.22965 10.3807 1.19747C10.5167 1.16837 10.5893 1.10172 10.6291 1.06147C10.7116 0.965035 10.6892 0.977307 10.6994 0.964176C10.7085 0.9461 10.7121 0.93564 10.7141 0.929223C10.7178 0.916722 10.7151 0.919827 10.7115 0.930073C10.7021 0.9588 10.6982 0.969034 10.6904 0.997794C10.6284 1.24372 10.5865 1.4984 10.55 1.81378C10.5451 1.85592 10.6042 1.82003 10.6007 1.85667C10.6 1.86375 10.5993 1.87087 10.5985 1.87802C10.584 2.03303 10.5804 2.20855 10.589 2.38714C10.5983 2.57992 10.622 2.78576 10.6636 2.98538C10.6703 3.01767 10.7126 2.96238 10.7251 3.01378C10.7516 3.1221 10.7744 3.25174 10.7829 3.36614C10.7867 3.41973 10.7285 3.35938 10.7333 3.41343C10.7446 3.53978 10.7744 3.67642 10.816 3.80079C10.834 3.85428 10.8624 3.75879 10.882 3.82922C11.0172 4.30822 11.1828 4.76561 11.3082 5.26277C11.3168 5.29677 11.2298 5.36503 11.2771 5.42683C11.3065 5.42082 11.3384 5.40736 11.3684 5.39764C11.6624 6.06642 11.9535 6.73374 12.3285 7.36277C12.3443 7.38916 12.3647 7.31464 12.3954 7.36538C12.5749 7.65969 12.7712 7.9253 12.9354 8.23799C12.9517 8.2687 12.8617 8.31419 12.9365 8.38735C12.9497 8.40051 13.0555 8.51394 13.097 8.53062C13.1029 8.53277 13.1212 8.48206 13.1533 8.51953C13.3395 8.7378 13.5304 8.96527 13.7119 9.1796C13.7416 9.21466 13.6723 9.21624 13.6934 9.24167C13.844 9.42222 14.0552 9.55197 14.2054 9.71482C14.3049 9.82208 14.214 9.86161 14.234 9.97583C14.237 9.9923 14.3148 10.0441 14.2935 10.0878C14.2403 10.1988 14.1285 10.2871 14.0763 10.4082C14.0676 10.4286 14.1459 10.461 14.1336 10.4816C14.1336 10.4816 14.1336 10.4816 14.1335 10.4816C14.1299 10.4877 14.1183 10.4929 14.0942 10.4963C14.0868 10.4975 13.9879 10.4626 13.9539 10.4676C13.9301 10.4711 13.9305 10.5304 13.8884 10.5273C13.8462 10.524 13.8346 10.4665 13.7714 10.4516C13.7082 10.4366 13.6971 10.4988 13.594 10.4313ZM14.5083 17.2949C14.405 17.2048 14.4425 17.5821 14.5287 17.4788C14.5327 17.4734 14.5136 17.2993 14.5083 17.2949ZM24.6536 15.0667C24.5357 14.9113 24.4648 15.149 24.5472 15.269C24.6299 15.3881 24.6887 15.1134 24.6536 15.0667ZM25.8213 14.9202C25.6872 14.8031 25.6717 15.2931 25.8123 15.1892C25.8205 15.1833 25.8292 14.9269 25.8213 14.9202ZM13.9159 9.77493C13.9149 9.77719 13.9682 9.82144 13.9709 9.82046C14.0328 9.79893 13.9283 9.71226 13.9159 9.77493ZM26.9864 14.785C26.9439 14.7238 26.8244 14.7963 26.8764 14.8728C26.918 14.9339 27.039 14.8607 26.9864 14.785ZM10.4427 15.8329C10.4479 15.831 10.4466 15.7808 10.4165 15.7854C10.3198 15.8009 10.3557 15.8668 10.4427 15.8329ZM28.9662 14.7605C28.673 14.7516 28.5003 14.4155 28.8148 14.4595C28.872 14.4669 28.6916 14.5615 28.7643 14.5918C28.8975 14.645 28.9871 14.4457 29.1267 14.5544C29.1518 14.5732 28.9827 14.7611 28.9657 14.761C28.9658 14.7608 28.966 14.7607 28.9662 14.7605ZM14.3941 16.8511C14.3916 16.8465 14.3217 16.8512 14.3207 16.8563C14.2987 16.9806 14.441 16.9711 14.3941 16.8511ZM10.4672 12.8933C10.4764 12.8894 10.4797 12.7279 10.471 12.7226C10.2985 12.6425 10.2889 12.9701 10.4672 12.8933ZM18.8185 15.3734C18.8487 15.2324 18.9291 15.1883 19.0376 15.3135C18.9642 15.331 18.892 15.3554 18.8185 15.3734Z" fill="black"/>
<path d="M2.08829 16.3709C2.12856 16.5125 2.12257 16.722 2.10493 16.8909C2.09949 16.9437 2.03538 16.9275 2.02919 16.9653C2.01704 17.0377 2.05795 17.0991 2.04269 17.1723C2.03739 17.1967 1.93746 17.1857 1.93412 17.2112C1.91731 17.3544 1.96663 17.4746 1.97614 17.6153C2.0237 18.3086 2.18061 18.9887 2.36435 19.6804C2.42535 19.9097 2.43775 20.2095 2.55848 20.427C2.57257 20.4522 2.64604 20.4071 2.65445 20.4097C2.78386 20.4525 2.61404 20.4851 2.61232 20.5455C2.60543 20.7837 2.68771 21.0176 2.79769 21.2041C2.84449 21.2827 2.96635 21.1359 2.91301 21.2555C2.90949 21.2638 2.81764 21.2761 2.81811 21.3028C2.81927 21.3632 2.87535 21.4578 2.88519 21.5001C2.90428 21.5832 2.91052 21.5958 2.94067 21.6704C2.98141 21.773 2.99062 21.9082 3.05675 22.0094C3.07102 22.0307 3.14224 21.9638 3.17239 21.9938C3.20242 22.0237 3.23754 22.1231 3.23223 22.1646C3.22685 22.206 3.1546 22.2215 3.14201 22.234C3.03551 22.3391 3.26246 22.3716 3.2732 22.3836C3.32303 22.4426 3.36033 22.5046 3.3904 22.5686C3.39163 22.5712 3.39285 22.5738 3.39406 22.5765C3.45944 22.7183 3.48691 22.8756 3.58822 23.0022C3.69344 23.1334 3.84885 23.2293 3.97399 23.3286C4.12294 23.4471 4.24558 23.5757 4.43085 23.6513C4.45023 23.6592 4.47462 23.5491 4.49781 23.5582C4.74409 23.6532 4.99649 23.7415 5.25697 23.8747C5.28319 23.8882 5.22558 23.9767 5.25094 23.996C5.4032 24.1128 5.67435 24.3528 5.83331 23.9331C5.95052 23.9637 6.09477 23.9937 6.19831 24.0886C6.26548 24.1497 6.18868 24.2544 6.28016 24.2133C6.30069 24.2041 6.28087 24.1071 6.31092 24.1004C6.43744 24.0722 6.57262 24.108 6.69774 24.0603C6.72302 24.0504 6.71768 23.9641 6.725 23.9487C6.76483 23.8681 6.81825 23.9263 6.85786 23.9817L6.76367 23.9891C6.77478 23.9998 6.78511 24.0106 6.79404 24.0198C6.80683 24.0331 6.81673 24.0431 6.82183 24.0455C7.00849 24.1285 7.12522 24.0634 7.28346 24.0382C7.32039 24.0323 7.25688 23.9257 7.29166 23.9159C7.47005 23.8672 7.66081 23.8421 7.84887 23.8594C7.891 23.8634 7.8723 23.9679 7.89338 23.9748C7.98675 24.0041 7.96936 23.8166 8.05725 23.8411C8.0757 23.846 8.0819 23.9314 8.08671 23.94C8.16228 24.0749 8.1661 23.8626 8.17772 23.8556C8.3233 23.7637 8.46474 23.9575 8.61149 23.8974C8.62884 23.89 8.56747 23.7921 8.61749 23.7778C8.95367 23.6813 9.31829 23.6377 9.67352 23.6542C9.72867 23.6566 9.70727 23.7442 9.71255 23.7534C9.79747 23.8965 9.79102 23.683 9.80667 23.6717C9.93112 23.588 10.091 23.736 10.1339 23.4706C10.7242 23.439 11.2653 23.1821 11.8795 23.2897C11.8873 23.2909 11.8949 23.3964 11.9103 23.3982C12.0967 23.4208 12.0305 23.2677 12.1062 23.0486C12.1252 22.9935 12.2606 23.2124 12.2719 23.2282C12.3131 23.2865 12.3141 23.4459 12.3261 23.4564C12.4242 23.538 12.3116 23.0326 12.417 23.0112C12.4205 23.0114 12.4252 23.1077 12.4359 23.1152C12.4692 23.1389 12.4892 23.0963 12.5226 23.1231C12.5993 23.1852 12.6701 23.4281 12.7369 23.2654C12.7452 23.2443 12.6701 22.9593 12.7681 22.954C12.8066 22.9522 12.9728 22.9142 13.0238 22.9236C13.0745 22.9331 13.0604 23.0326 13.0645 23.036C13.2154 23.1344 13.1778 23.1949 13.276 23.3653C13.3741 23.5352 13.2726 23.1044 13.2889 23.051C13.3053 22.9976 13.4176 23.0815 13.4472 23.1125C13.4769 23.1435 13.4599 23.2084 13.484 23.2246C13.6438 23.3298 13.5016 22.9974 13.5328 22.9198C13.6061 22.736 13.7481 23.0432 13.8498 23.0567C13.8773 23.0603 13.8422 22.9908 13.864 22.9795C13.9505 22.9357 14.0248 23.0262 14.1104 22.9141C14.1244 22.8959 14.1717 22.6854 14.2529 22.818C14.2645 22.8372 14.2576 22.922 14.3 22.9327C14.3635 22.9489 14.4715 22.947 14.5284 22.9085C14.5707 22.88 14.4934 22.7566 14.5589 22.7873C14.5881 22.801 14.5547 22.8877 14.6083 22.907C14.6616 22.9263 14.7845 22.9001 14.8313 22.8888C14.8777 22.8774 14.8335 22.781 14.8361 22.7735C14.8517 22.7302 14.9323 22.6651 14.9403 22.6637C15.3413 22.5776 15.738 22.6839 16.1209 22.5596C16.1509 22.55 16.112 22.4462 16.1164 22.4436C16.2132 22.3807 16.1796 22.6803 16.2688 22.7634C16.2211 22.5473 16.2709 22.5794 16.3408 22.5429C16.3744 22.5252 16.3408 22.444 16.3425 22.4348C16.3738 22.2976 16.4388 22.457 16.454 22.4893C16.5101 22.6081 16.5237 22.4543 16.5616 22.5336C16.5994 22.6124 16.5651 22.7443 16.6357 22.7309C16.6424 22.6494 16.556 22.454 16.6041 22.4119C16.7856 22.2526 17.1932 22.3507 17.3595 22.3415C17.5268 22.3319 17.576 22.3094 17.6757 22.3228C17.8557 22.3472 17.769 22.205 17.8657 22.1187C17.963 22.0324 17.968 22.4149 17.9958 22.4931C18.0232 22.5712 18.0268 22.4859 18.0523 22.5273C18.0776 22.5687 18.0457 22.6295 18.092 22.6395C18.1382 22.6494 18.2366 22.488 18.2397 22.4014C18.2459 22.218 18.1631 22.0389 18.2903 22.0871C18.2977 22.09 18.2905 22.1918 18.3178 22.1979C18.5284 22.2416 18.7321 22.2185 18.9413 22.2513C18.947 22.2512 18.9488 22.2516 18.9505 22.252C18.9553 22.253 18.9601 22.2541 18.9649 22.2552C18.994 22.2621 18.9789 22.3748 18.9959 22.38C19.1729 22.4352 19.095 22.2546 19.1715 22.0394C19.1742 22.3166 19.2406 22.4804 19.3697 22.4714C19.4475 22.4662 19.4245 22.347 19.4684 22.2582C19.4816 22.2315 19.5432 22.3098 19.5489 22.2525C19.5681 22.0651 19.5 21.8618 19.6417 21.9344C19.6479 21.9379 19.6363 22.0405 19.6572 22.0452C19.7924 22.076 19.7947 21.8814 19.9377 21.849C20.0496 21.8236 20.2573 21.9308 20.3861 21.9445C20.3977 22.2542 20.514 22.178 20.5549 21.9629C20.6384 21.9685 20.7284 21.9536 20.8096 21.9809C20.8375 21.9903 20.8217 22.0803 20.8255 22.0898C20.8826 22.2401 20.9133 22.032 20.9313 22.0235C21.125 21.9406 21.2844 22.0961 21.4705 21.9438C21.477 21.9384 21.489 21.7244 21.5382 21.8811C21.5413 21.8919 21.4791 21.9887 21.5667 21.997C21.6543 22.0054 21.8167 22.1227 21.9401 22.0276C21.9699 22.0046 22.0507 21.8342 22.1059 21.9717C22.1132 21.9904 22.1022 22.0511 22.1123 22.0855C22.1448 22.1952 22.174 21.981 22.2094 22.1656C22.2449 22.3502 22.326 22.4904 22.4527 22.3716C22.4567 22.3682 22.4954 22.2001 22.5335 22.2052C22.5943 22.2135 22.6781 22.2549 22.7414 22.2587C22.7717 22.2604 22.7605 22.1539 22.7659 22.1524C22.9764 22.1102 23.1149 22.2176 23.3279 22.2826C23.3665 22.2946 23.5 22.1673 23.5629 22.2893C23.6313 22.4227 23.4773 22.9182 23.6824 22.8229C23.763 22.7845 23.9633 22.1604 24.0498 22.5144C24.336 22.4788 24.5502 22.6941 24.8434 22.6407C24.8564 22.6384 24.935 22.474 24.9633 22.4833C25.005 22.4974 25.0089 22.5837 25.0377 22.5964C25.1585 22.6517 25.2905 22.613 25.4099 22.6574C25.4547 22.6739 25.4159 22.7515 25.4689 22.7713C25.5218 22.791 25.5894 22.6941 25.6483 22.7679C25.6928 22.8241 25.6809 23.0583 25.7448 23.1056C25.8145 22.8924 25.8635 22.9123 25.9711 22.8852C25.9918 22.88 25.9976 22.8 26.0087 22.7937C26.0544 22.7665 26.0648 22.8379 26.1102 22.8073C26.1212 22.7999 26.1458 22.7279 26.1562 22.7178C26.2462 22.6301 26.2796 22.8233 26.2844 22.8565C26.3041 22.9832 26.3638 22.8999 26.3927 22.9577C26.4213 23.0153 26.3371 23.0436 26.3787 23.0873C26.4652 23.1779 26.6019 23.2166 26.7065 23.2619C26.7483 23.2795 26.7568 23.1752 26.7637 23.1756C26.861 23.1874 26.9069 23.3211 27.0325 23.1591C26.8922 23.6563 27.1052 23.1356 27.1883 23.2843C27.1948 23.2962 27.1093 23.522 27.0585 23.5386C27.0079 23.5553 26.9821 23.4621 26.9088 23.4915C26.8913 23.4981 26.7344 23.6796 26.7201 23.6889C26.6064 23.7596 26.7334 23.4191 26.7368 23.3988C26.773 23.1807 26.5943 23.3748 26.5662 23.3826C26.4352 23.4161 26.366 23.3358 26.2599 23.3576C26.1908 23.3715 26.1041 23.5968 26.0632 23.5752C25.9274 23.5042 25.9809 23.1651 25.7508 23.401C25.7016 23.4516 25.6507 23.714 25.6081 23.4829C25.6057 23.4685 25.5825 23.2614 25.5016 23.3646C25.4914 23.3776 25.4693 23.4523 25.4598 23.4564C25.3972 23.4827 25.3809 23.4137 25.3174 23.4274C25.254 23.4411 25.1766 23.4669 25.1202 23.4252C25.0865 23.4003 25.0745 23.2466 25.0649 23.2073C25.0383 23.0942 24.9408 23.2451 24.9384 23.1158C24.9352 22.9855 25.0469 22.8156 24.9774 22.715C24.9259 22.9133 24.8691 23.116 24.8158 23.3152C24.6324 23.2663 24.4615 23.1633 24.2697 23.1374C24.246 23.1345 24.2489 23.2481 24.2231 23.2478C24.1152 23.2466 24.036 23.1527 23.9208 23.1668C23.8314 23.1782 23.7196 23.2819 23.6275 23.3C23.608 23.0563 23.4624 23.1192 23.3691 23.0867C23.3361 23.0753 23.3462 23.012 23.3243 22.9885C23.2416 22.9015 23.2599 23.1171 23.2311 23.1476C23.1091 23.2786 23.1523 22.7994 23.0212 22.7989C23.014 22.7985 22.907 23.0472 22.8946 23.0624C22.8136 23.1606 22.8908 22.9722 22.8473 22.9496C22.7676 22.9085 22.714 22.8427 22.6113 22.9117C22.581 22.9321 22.5027 23.0887 22.4557 22.9614C22.4495 22.9447 22.4587 22.8597 22.4532 22.8544C22.3517 22.7653 22.3338 23.0336 22.2695 23.1219C22.2055 23.2103 22.1217 23.0216 22.1045 22.9674C22.0603 22.8273 22.1451 22.9095 22.1483 22.8961C22.187 22.7357 22.1173 22.7608 22.0651 22.7455C22.0673 22.4812 21.9917 22.4947 22.0108 22.7307C22.013 22.7564 22.0549 22.7331 22.0651 22.7455C22.0089 23.0029 21.93 23.0343 21.847 22.79C21.808 22.6755 21.8507 22.5434 21.7211 22.5899C21.6624 22.611 21.6821 22.7937 21.6307 22.843C21.514 22.9556 21.3642 22.7855 21.2437 22.8138C21.2002 22.8241 21.2435 22.9237 21.2139 22.9342C21.1357 22.9625 21.0655 22.8886 20.9868 22.9291C20.9798 22.9329 20.9994 23.0374 20.9749 23.0394C20.79 23.0565 20.626 22.9952 20.4308 23.0027C20.3366 23.0063 20.1712 23.0736 20.0732 23.0682C19.9033 23.0589 19.683 22.921 19.54 22.9697C19.4469 23.0011 19.4761 23.1047 19.4414 23.1797C19.3749 23.325 19.2156 23.0881 19.193 23.0513C19.1923 23.0501 19.2721 23.0181 19.2237 22.9679C19.1884 22.8576 19.1939 23.0507 19.193 23.0513C19.1819 23.0331 19.0822 23.0234 19.0223 23.0303C19.0206 23.0305 19.019 23.0307 19.0174 23.0309L19.0524 23.0268C19.0362 23.0299 19.0235 23.034 19.0171 23.0393C19.0008 23.0528 19.025 23.1504 19.0163 23.1555C18.8081 23.2759 18.5947 23.333 18.3641 23.3203C18.3599 23.3188 18.3491 23.2073 18.3394 23.2054C18.2029 23.1756 18.1426 23.3232 18.0477 23.4199C17.9536 23.5165 17.8657 23.5025 17.7733 23.3226C17.6976 23.3589 17.5691 23.2932 17.4945 23.2529C17.42 23.2126 17.4452 23.4288 17.4401 23.434C17.281 23.5986 17.1565 23.4925 16.9648 23.5041C16.8739 23.5092 16.7025 23.5693 16.609 23.6089C16.5356 23.6405 16.4811 23.5981 16.4163 23.6419C16.4076 23.6478 16.4334 23.7414 16.4311 23.7455C16.3724 23.8726 16.3702 23.6335 16.347 23.5946C16.263 23.4532 16.2115 23.3791 16.1229 23.4674C16.1023 23.4877 16.0926 23.834 16.0539 23.8608C16.0035 23.8949 16.0032 23.7715 15.951 23.8103C15.9465 23.8136 15.9604 23.8874 15.9246 23.8901C15.7561 23.9045 15.5701 23.8925 15.3996 23.9301C15.3763 23.9349 15.4274 24.0467 15.394 24.0556C15.2371 24.0975 15.0647 24.1235 14.8989 24.0969C14.8583 24.0899 14.8672 24.0039 14.8544 23.9811C14.7766 23.8435 14.7442 24.0697 14.7332 24.0759C14.4693 24.2293 14.2172 24.0765 13.9457 24.2218C13.9308 24.2301 13.8549 24.4796 13.7627 24.295C13.7566 24.2827 13.6646 24.0935 13.6436 24.2386C13.6423 24.2477 13.6953 24.344 13.6353 24.3444C13.5751 24.3449 13.4962 24.4307 13.3943 24.3333C13.362 24.3026 13.2632 24.1158 13.2187 24.2882C13.2159 24.3002 13.1699 24.6793 13.0804 24.4408C13.0656 24.4016 13.0223 24.1395 12.9578 24.2905C12.9456 24.3197 12.9884 24.3718 12.9501 24.4168C12.8914 24.486 12.7858 24.434 12.724 24.5661C12.7134 24.5895 12.6853 24.778 12.6075 24.654C12.5953 24.6345 12.5933 24.5449 12.5644 24.5404C12.4267 24.5186 12.3073 24.602 12.1641 24.5676C12.1139 24.5556 12.1093 24.4111 12.0539 24.383C11.9985 24.3549 11.8952 24.3379 11.8584 24.4115C11.8207 24.4852 11.9206 24.697 11.8487 24.7295C11.5386 24.8703 11.1878 24.8037 10.858 24.849C10.8093 24.8556 10.8656 24.9268 10.794 24.9424C10.5319 25.0001 10.0905 25.1631 9.82817 25.0402C9.61716 24.9421 9.829 24.7948 9.67686 24.7679C9.60356 24.7553 9.58139 25.0251 9.56665 25.0362C9.42495 25.1485 9.28773 25.0575 9.15206 25.1194C9.12389 25.1322 9.17332 25.23 9.14894 25.2398C9.06482 25.2744 8.9644 25.2456 8.88353 25.2695C8.84723 25.2805 8.86964 25.358 8.83401 25.3584C8.74844 25.3602 8.66917 25.3406 8.57535 25.2816C8.56681 25.2762 8.59701 25.1691 8.53592 25.1767C8.43719 25.1892 8.29948 25.1393 8.20144 25.2347C8.17253 25.2633 8.20392 25.4435 8.10807 25.3324C8.088 25.3092 8.06756 25.0899 8.01743 25.2915C8.00885 25.3252 7.91361 25.6015 7.81312 25.4518C7.78685 25.4123 7.70812 25.2441 7.67258 25.2789C7.66787 25.2842 7.70709 25.3769 7.67512 25.3921C7.56349 25.4438 7.4334 25.4552 7.3174 25.5053C7.28609 25.5189 7.35222 25.6106 7.30424 25.6278C7.23197 25.6538 7.14749 25.666 7.06391 25.6698C7.05513 25.6702 7.04636 25.6705 7.03762 25.6707C6.99979 25.6766 6.88767 25.6859 6.84939 25.6855C6.78559 25.6769 6.72214 25.6641 6.66581 25.6501C6.6132 25.6367 6.65158 25.5542 6.64789 25.545C6.59022 25.3954 6.54849 25.5935 6.52735 25.6043C6.39674 25.6686 6.30229 25.5693 6.18208 25.5852C6.14877 25.5893 6.16591 25.6857 6.15879 25.6936C6.08446 25.7705 6.14715 25.6048 6.10531 25.5826C5.98842 25.5196 5.85396 25.5135 5.72935 25.5099C5.68358 25.5086 5.72219 25.6238 5.68084 25.6213C5.43541 25.6081 5.17785 25.5516 4.94915 25.4365C4.90623 25.4146 4.95278 25.3401 4.94749 25.3193C4.9132 25.1748 4.77831 25.327 4.75127 25.3373C4.63144 25.3862 4.61098 25.3037 4.51886 25.2896C4.0656 25.2243 3.52793 24.9261 3.16111 24.6168C2.67905 24.2147 2.4054 23.7721 2.12453 23.2524C2.10689 23.2187 2.02774 23.3001 2.01104 23.2708C2.00245 23.2552 1.99406 23.2395 1.98586 23.2237C1.98441 23.221 1.98297 23.2183 1.98154 23.2156C1.83775 22.9463 1.75085 22.6609 1.60417 22.3912C1.59178 22.368 1.51352 22.4423 1.49048 22.4064C1.44274 22.3334 1.40436 22.2276 1.40094 22.1349C1.39904 22.0896 1.501 22.1091 1.49751 22.0644C1.48982 21.9605 1.45529 21.8566 1.40243 21.7683C1.37967 21.7306 1.30806 21.8299 1.28594 21.7779C1.13229 21.4209 0.979667 21.0673 0.974877 20.652C0.974655 20.6237 1.16512 20.532 1.10815 20.4911C1.05166 20.5063 0.98696 20.5291 0.927475 20.5478C0.709196 20.0233 0.609788 19.4648 0.470846 18.9093C0.465051 18.8862 0.368338 18.9551 0.356565 18.9103C0.287382 18.6469 0.192725 18.3948 0.239424 18.0964C0.243931 18.0667 0.438478 18.0398 0.391925 17.9655C0.383346 17.952 0.332502 17.8385 0.284557 17.8158C0.277384 17.8127 0.19246 17.8538 0.181669 17.8144C0.121492 17.5895 0.0979057 17.3421 0.118645 17.098C0.122128 17.0581 0.224426 17.085 0.227803 17.0568C0.25164 16.8606 0.153515 16.6565 0.228772 16.4556C0.280387 16.3251 0.451293 16.3596 0.613939 16.2882C0.636795 16.2791 0.638468 16.2013 0.734987 16.1963C0.977192 16.1839 1.24311 16.2115 1.50119 16.1937C1.54402 16.1905 1.51766 16.1455 1.56565 16.146C1.56566 16.146 1.56567 16.146 1.56568 16.146C1.57981 16.146 1.60032 16.1497 1.63097 16.1591C1.63984 16.1612 1.68537 16.2156 1.73154 16.2272C1.76335 16.2351 1.8608 16.2162 1.90175 16.2324C1.94268 16.2482 1.86143 16.2728 1.91058 16.302C1.96041 16.3303 2.07049 16.3083 2.08829 16.3709ZM17.1602 23.0734C17.0821 22.9803 17.1344 23.3592 17.1861 23.2582C17.1885 23.2528 17.1642 23.0779 17.1602 23.0734ZM24.5186 22.8938C24.4734 22.7193 24.3725 22.9427 24.4024 23.0759C24.4313 23.2087 24.5318 22.9465 24.5186 22.8938ZM25.3499 22.9703C25.2923 22.8242 25.1447 23.3167 25.2665 23.2414C25.2735 23.2371 25.3532 22.9787 25.3499 22.9703ZM0.680943 16.5813C0.685325 16.5798 0.685052 16.5265 0.680515 16.5258C0.569441 16.5064 0.570168 16.6146 0.680943 16.5813ZM26.1779 23.0942C26.1723 23.0199 26.0659 23.0671 26.0732 23.1594C26.0786 23.2332 26.1845 23.1863 26.1779 23.0942ZM13.8869 23.2376C13.8849 23.2323 13.8483 23.2341 13.855 23.2652C13.8766 23.3656 13.9207 23.3278 13.8869 23.2376ZM27.4875 23.6244C27.3081 23.52 27.3571 23.0959 27.5498 23.2371C27.5843 23.2625 27.4133 23.3153 27.4463 23.3711C27.5055 23.472 27.6737 23.2722 27.7051 23.4388C27.7101 23.4686 27.497 23.6307 27.4869 23.6248C27.4871 23.6247 27.4873 23.6245 27.4875 23.6244ZM17.0511 22.6258C17.049 22.621 16.9985 22.6243 16.9981 22.6295C16.9907 22.7537 17.0924 22.747 17.0511 22.6258ZM11.7682 23.4167C11.7632 23.4069 11.6483 23.4201 11.646 23.4305C11.6252 23.6328 11.8588 23.6068 11.7682 23.4167ZM20.3885 21.9527C20.4382 21.8283 20.5049 21.8113 20.5547 21.9627C20.4996 21.9567 20.4441 21.9577 20.3885 21.9527Z" fill="black"/>
</svg>
