<svg width="13" height="24" viewBox="0 0 13 24" fill="none" xmlns="http://www.w3.org/2000/svg">
<path d="M12.177 16.2575C12.1356 16.3781 11.962 16.4608 11.7803 16.5066C11.7237 16.5209 11.6695 16.4156 11.6269 16.4212C11.5441 16.4319 11.5235 16.5207 11.4251 16.5273C11.3924 16.5287 11.3106 16.362 11.2797 16.3661C11.1123 16.3879 11.0046 16.5161 10.7913 16.5756C10.3965 16.7068 9.58679 16.7569 9.07817 16.4319C8.57808 16.1304 8.41422 15.8156 8.27845 15.5729C8.24196 15.5196 8.15701 15.3547 8.13471 15.294C8.13247 15.2787 8.13022 15.2633 8.12796 15.2479C8.12036 15.196 8.11274 15.1438 8.10537 15.091C8.08637 14.9569 8.19095 14.7532 8.07946 14.6499C8.06631 14.6379 7.91787 14.699 7.90444 14.7005C7.69842 14.7219 8.00909 14.6313 8.03999 14.5885C8.16152 14.4178 8.13396 14.2876 8.03972 14.1961C7.99919 14.1572 7.71343 14.3044 7.86708 14.2006C7.87743 14.1935 8.04221 14.1523 8.05521 14.1337C8.08422 14.0911 8.03818 14.0463 8.04374 14.0194C8.05537 13.9676 8.05148 13.961 8.04034 13.9191C8.02652 13.8613 8.08534 13.7679 8.03052 13.7199C8.01831 13.7097 7.8588 13.7795 7.82448 13.7679C7.7902 13.7562 7.78758 13.6969 7.82081 13.6661C7.85404 13.6353 7.98581 13.6021 8.01447 13.5894C8.25657 13.4835 7.8907 13.5296 7.87979 13.524C7.69002 13.4229 7.84926 13.2316 7.80886 13.0943C7.77755 12.9891 7.68067 12.8949 7.66171 12.7919C7.63952 12.6682 7.69967 12.5405 7.65293 12.4287C7.64819 12.4168 7.46145 12.4869 7.45532 12.4724C7.39006 12.3173 7.37037 12.1532 7.45648 11.9568C7.46531 11.9373 7.63633 11.9108 7.65501 11.8885C7.76624 11.7528 8.04891 11.5092 7.31831 11.6504C7.32978 11.5766 7.33881 11.488 7.4675 11.3893C7.55026 11.3257 7.73776 11.3139 7.64976 11.2879C7.63014 11.282 7.47777 11.3384 7.46019 11.3263C7.38648 11.2749 7.41906 11.1889 7.32278 11.1443C7.30286 11.1353 7.16497 11.1765 7.13907 11.1795C6.92922 11.2019 7.25078 11.0579 7.27204 11.0399C7.43126 10.9025 7.34441 10.8579 7.32907 10.774C7.32558 10.7546 7.14641 10.8263 7.1365 10.8093C7.08758 10.7201 7.08095 10.6167 7.14045 10.5018C7.15411 10.4761 7.31426 10.4546 7.32871 10.4403C7.39034 10.3777 7.09448 10.4445 7.14821 10.3857C7.15913 10.3735 7.29311 10.344 7.30732 10.3386C7.53019 10.2538 7.20072 10.316 7.19215 10.3112C7.07582 10.2542 7.40062 10.1148 7.33402 10.0478C7.32578 10.0399 7.1642 10.1041 7.15131 10.079C7.06452 9.91206 7.06888 9.71131 7.15962 9.50266C7.17351 9.47029 7.30045 9.45927 7.31519 9.45378C7.54456 9.36704 7.22428 9.42766 7.21047 9.42164C7.10932 9.3723 7.35735 9.24151 6.97331 9.28557C7.03603 8.95569 6.76933 8.70524 7.02947 8.33248C7.03237 8.32783 7.18263 8.29939 7.18776 8.2903C7.25092 8.18047 7.02369 8.2524 6.73015 8.2583C6.65668 8.25967 6.98603 8.13421 7.00978 8.12443C7.09796 8.08828 7.32067 8.05219 7.33728 8.04311C7.46663 7.97004 6.7436 8.14615 6.73236 8.09058C6.7332 8.08856 6.86771 8.06482 6.87997 8.05708C6.91843 8.03298 6.86263 8.03097 6.90537 8.00621C7.00443 7.94921 7.35125 7.85668 7.13693 7.85477C7.10923 7.85464 6.70373 7.95868 6.71305 7.90456C6.71704 7.88295 6.69255 7.79714 6.71382 7.7666C6.73504 7.73612 6.86861 7.723 6.87391 7.71995C7.03208 7.61476 7.10856 7.62332 7.35525 7.5324C7.6005 7.44192 6.99952 7.58901 6.92944 7.59097C6.85959 7.59285 6.99058 7.51245 7.03689 7.48952C7.08329 7.46657 7.16857 7.46256 7.19394 7.44578C7.35911 7.33533 6.88952 7.48308 6.78961 7.48173C6.55386 7.47844 6.98848 7.3356 7.02057 7.27659C7.02934 7.26058 6.93123 7.29419 6.91931 7.28437C6.8736 7.24513 7.00453 7.18593 6.86769 7.16032C6.84522 7.15618 6.57355 7.17139 6.76066 7.10002C6.78761 7.08982 6.89881 7.07681 6.91891 7.05123C6.94912 7.01298 6.96113 6.9536 6.91811 6.92932C6.88634 6.91139 6.71392 6.97836 6.76308 6.93595C6.785 6.91709 6.8943 6.91874 6.92668 6.8853C6.95904 6.852 6.9408 6.78932 6.93208 6.76584C6.92327 6.74245 6.79198 6.78528 6.78252 6.78532C6.72827 6.78488 6.65439 6.75238 6.65376 6.74821C6.59703 6.54316 6.78017 6.30332 6.66627 6.11696C6.6576 6.10227 6.52271 6.14216 6.51997 6.14022C6.4521 6.098 6.82447 6.06309 6.93819 5.99924C6.66194 6.06395 6.7076 6.03082 6.66955 5.99898C6.65102 5.98368 6.54598 6.01652 6.53468 6.01717C6.36689 6.02428 6.5731 5.96052 6.6149 5.94654C6.76889 5.89496 6.57882 5.91473 6.68157 5.88009C6.78336 5.8457 6.94402 5.84115 6.93423 5.80506C6.83375 5.81561 6.58201 5.89731 6.53489 5.87821C6.35753 5.80608 6.52093 5.56636 6.52446 5.47782C6.52863 5.38915 6.50563 5.36542 6.53073 5.30896C6.57596 5.20707 6.39679 5.27791 6.30199 5.23983C6.20741 5.20153 6.66635 5.13554 6.76244 5.10757C6.85836 5.07982 6.75622 5.0919 6.8078 5.07127C6.85931 5.0507 6.93002 5.05794 6.94527 5.03124C6.96034 5.00458 6.7744 4.97815 6.6715 4.99058C6.45332 5.01721 6.23322 5.09127 6.30128 5.0145C6.30532 5.01007 6.42582 4.99732 6.43526 4.98157C6.49625 4.87472 6.49315 4.77802 6.52872 4.67617C6.52953 4.66501 6.53154 4.66026 6.53364 4.65551C6.53883 4.64377 6.54461 4.632 6.55114 4.62019C6.56031 4.60392 6.69306 4.59839 6.69985 4.58876C6.77075 4.48886 6.55472 4.55158 6.30448 4.53616C6.63079 4.50257 6.82575 4.44824 6.81784 4.38174C6.81334 4.34168 6.67318 4.36722 6.57048 4.35412C6.53959 4.35023 6.63252 4.30902 6.56571 4.31233C6.34753 4.32281 6.1087 4.38105 6.19759 4.29796C6.20183 4.2943 6.32085 4.28931 6.32683 4.27776C6.36591 4.20334 6.14029 4.2226 6.10653 4.15027C6.0802 4.09381 6.2067 3.97298 6.22265 3.90447C6.57604 3.86758 6.48798 3.81448 6.24395 3.81403C6.25021 3.76979 6.23291 3.72442 6.2628 3.67922C6.27297 3.66372 6.37443 3.66333 6.38518 3.66045C6.55325 3.61626 6.31859 3.62024 6.30888 3.61171C6.21306 3.5186 6.38094 3.42137 6.20561 3.33902C6.19925 3.33615 5.96345 3.34992 6.13404 3.30989C6.14571 3.30731 6.25477 3.33031 6.26022 3.28439C6.26601 3.23785 6.38503 3.14362 6.27401 3.08847C6.24711 3.07522 6.05855 3.04957 6.20309 3.0084C6.22267 3.00291 6.28877 3.00285 6.32509 2.9944C6.44055 2.96737 6.20855 2.97248 6.40368 2.93673C6.59886 2.90091 6.74026 2.84594 6.60136 2.79186C6.59727 2.79013 6.4154 2.78631 6.41724 2.76624C6.4202 2.73422 6.45505 2.68741 6.45199 2.6544C6.45048 2.63861 6.34024 2.65489 6.33806 2.65225C6.27157 2.54874 6.36715 2.46742 6.40374 2.35174C6.41037 2.33056 6.26266 2.27652 6.37634 2.23127C6.50001 2.18183 7.02381 2.2065 6.89113 2.11113C6.83674 2.07322 6.18526 2.04284 6.51829 1.95806C6.43104 1.81716 6.59282 1.68085 6.4745 1.53988C6.46921 1.53358 6.29736 1.51638 6.29973 1.50105C6.30342 1.4783 6.38294 1.46445 6.38789 1.44824C6.41055 1.38038 6.3425 1.31938 6.3526 1.25407C6.35619 1.22924 6.43645 1.23687 6.44041 1.20733C6.44417 1.17783 6.33939 1.15934 6.38952 1.11884C6.42781 1.08821 6.6388 1.05604 6.66146 1.01602C6.45386 1.01631 6.45757 0.988855 6.40282 0.940349C6.39224 0.931024 6.32076 0.941638 6.31208 0.937251C6.27535 0.919388 6.33451 0.902206 6.29466 0.885272C6.28511 0.881149 6.2154 0.881406 6.20371 0.878056C6.10191 0.849548 6.25901 0.800588 6.28579 0.792248C6.38842 0.760172 6.29894 0.74589 6.33924 0.721513C6.37925 0.697206 6.42945 0.733062 6.45349 0.704789C6.50295 0.64621 6.49059 0.571283 6.49296 0.511993C6.49345 0.488337 6.40477 0.504663 6.40277 0.501282C6.38045 0.452357 6.47336 0.40274 6.29903 0.375809C6.74937 0.341365 6.2554 0.34634 6.34611 0.276218C6.35345 0.270702 6.56366 0.263568 6.59516 0.28469C6.62673 0.305813 6.56122 0.337935 6.61062 0.367204C6.62199 0.37415 6.82389 0.413618 6.83661 0.418999C6.93453 0.461266 6.61281 0.467849 6.59504 0.470141C6.4042 0.496026 6.6234 0.544189 6.6395 0.556897C6.7113 0.615188 6.66712 0.664991 6.71966 0.713636C6.7537 0.745446 6.97241 0.747517 6.96763 0.772533C6.95269 0.855592 6.64259 0.886886 6.91779 0.963189C6.97669 0.979519 7.22126 0.960819 7.033 1.02235C7.02138 1.02617 6.84625 1.07245 6.96116 1.09708C6.97569 1.10016 7.04826 1.09931 7.05474 1.1035C7.09682 1.13155 7.04046 1.15116 7.07113 1.18185C7.10186 1.21253 7.14765 1.24919 7.12606 1.28479C7.11326 1.30623 6.9769 1.33563 6.9435 1.34641C6.84727 1.37687 7.01143 1.40514 6.89306 1.42502C6.77347 1.4452 6.58892 1.41283 6.51242 1.46193C6.70899 1.46019 6.91104 1.4606 7.10917 1.45982C7.1128 1.56297 7.0579 1.66562 7.07699 1.76859C7.07962 1.78135 7.18781 1.76537 7.1936 1.77893C7.21784 1.83595 7.14458 1.88855 7.18296 1.94726C7.2131 1.99256 7.3387 2.03905 7.37585 2.08563C7.13821 2.12364 7.22842 2.19242 7.21283 2.24483C7.20734 2.26327 7.14153 2.26485 7.12157 2.27871C7.04764 2.33104 7.26317 2.29856 7.29927 2.31035C7.45446 2.36068 6.95834 2.38819 6.977 2.45599C6.97757 2.45967 7.2504 2.49016 7.26823 2.49508C7.38252 2.52737 7.17558 2.50618 7.1587 2.53109C7.12787 2.57651 7.06632 2.61094 7.15239 2.65752C7.17767 2.67117 7.3533 2.69655 7.22509 2.73338C7.20827 2.73823 7.11723 2.74165 7.11229 2.74505C7.03023 2.80646 7.31668 2.78975 7.41902 2.81476C7.52156 2.83957 7.32997 2.90123 7.2734 2.91522C7.12771 2.95137 7.20694 2.89968 7.19211 2.89921C7.01611 2.89425 7.05047 2.92824 7.03903 2.95655C6.75467 2.98027 6.77539 3.01798 7.0283 2.98595C7.05587 2.9824 7.02667 2.96296 7.03903 2.95655C7.32127 2.96128 7.36512 2.99924 7.10755 3.06529C6.98667 3.0962 6.83974 3.08642 6.9001 3.14897C6.92748 3.17735 7.12561 3.15012 7.18374 3.17216C7.317 3.22217 7.14078 3.31529 7.17899 3.37494C7.19308 3.39637 7.30115 3.36472 7.31473 3.37895C7.35135 3.41651 7.27298 3.46008 7.32243 3.49669C7.32709 3.49995 7.44319 3.47994 7.44679 3.49229C7.47667 3.58576 7.41475 3.67597 7.42946 3.77587C7.43652 3.82365 7.51828 3.90227 7.51383 3.95276C7.50707 4.04073 7.3475 4.16869 7.40381 4.23732C7.44017 4.28152 7.56177 4.25477 7.64983 4.26391C7.82094 4.28096 7.54147 4.39014 7.49735 4.40607C7.49587 4.40658 7.45907 4.36958 7.39933 4.40027C7.26875 4.43141 7.49666 4.40572 7.49735 4.40607C7.4691 4.41621 7.45596 4.5026 7.4829 4.51564C7.485 4.51665 7.48918 4.51706 7.49483 4.51704C7.52881 4.51692 7.61578 4.5012 7.62047 4.50459C7.62311 4.50656 7.62573 4.50853 7.62831 4.5105L7.6192 4.45763C7.74622 4.54699 7.80299 4.65059 7.77721 4.77281C7.77532 4.7753 7.64129 4.79943 7.63848 4.80496C7.59558 4.8827 7.76958 4.89138 7.88152 4.92526C7.99334 4.95917 7.97274 5.00842 7.74893 5.08844C7.78877 5.12332 7.70107 5.20302 7.64684 5.24985C7.59259 5.29667 7.85907 5.24614 7.86512 5.24799C8.05774 5.30511 7.92022 5.39018 7.92152 5.49101C7.92177 5.53896 7.98498 5.62089 8.02807 5.66375C8.06259 5.69752 8.0053 5.73452 8.05584 5.76165C8.06262 5.76533 8.18249 5.73455 8.18757 5.73503C8.34396 5.74387 8.04192 5.78812 7.99118 5.8077C7.80655 5.87882 7.70803 5.91961 7.81244 5.95147C7.8362 5.95892 8.27553 5.90081 8.30711 5.91668C8.34711 5.9376 8.18952 5.96044 8.23523 5.98155C8.239 5.98339 8.33434 5.96225 8.33533 5.98113C8.3412 6.06854 8.31129 6.1717 8.34593 6.25633C8.35032 6.26796 8.49945 6.21918 8.50842 6.23539C8.55041 6.31145 8.57134 6.40024 8.52175 6.49432C8.50905 6.51759 8.39653 6.5297 8.36541 6.54104C8.17689 6.61017 8.4721 6.58341 8.47947 6.58811C8.65965 6.70012 8.43156 6.86791 8.59943 6.98535C8.60885 6.99174 8.94031 6.98139 8.6802 7.06951C8.66301 7.07537 8.39577 7.16502 8.59107 7.14594C8.60332 7.14471 8.74002 7.09565 8.73449 7.12813C8.72885 7.16067 8.83859 7.18573 8.69409 7.26179C8.64873 7.28575 8.38033 7.37968 8.61266 7.3668C8.62844 7.36591 9.14806 7.30841 8.80835 7.40918C8.7524 7.42572 8.38446 7.50706 8.58603 7.50894C8.62515 7.50914 8.70235 7.47444 8.76049 7.48535C8.85021 7.50186 8.76547 7.57108 8.94346 7.57541C8.97482 7.57613 9.23648 7.54893 9.05367 7.6189C9.025 7.62988 8.89881 7.65129 8.88912 7.66797C8.84229 7.74745 8.94639 7.79491 8.88017 7.88024C8.85687 7.91044 8.65112 7.94645 8.60402 7.9834C8.55698 8.02034 8.51869 8.08151 8.61899 8.08466C8.71946 8.08774 9.03511 7.98323 9.07292 8.01448C9.2381 8.15036 9.09829 8.35675 9.12082 8.52699C9.12422 8.55216 9.23646 8.50324 9.25015 8.53814C9.30048 8.66672 9.48827 8.86354 9.26761 9.04073C9.09012 9.18328 8.89744 9.10788 8.83481 9.19887C8.8047 9.24299 9.21074 9.18025 9.2259 9.18513C9.37769 9.23237 9.21967 9.33161 9.29619 9.38894C9.3121 9.40072 9.46895 9.34528 9.48078 9.35572C9.52274 9.39102 9.46519 9.45442 9.49166 9.4917C9.50393 9.50833 9.62684 9.47315 9.62283 9.49234C9.61463 9.53789 9.57418 9.58665 9.4701 9.65588C9.46058 9.66221 9.29794 9.67814 9.30162 9.70939C9.30809 9.75957 9.2113 9.85015 9.34854 9.87456C9.38973 9.88169 9.67679 9.80742 9.49014 9.89444C9.45118 9.91264 9.10326 9.99348 9.41441 9.95664C9.46588 9.9508 9.89168 9.91343 9.64284 10.0154C9.57734 10.0423 9.30104 10.1402 9.35188 10.1483C9.35987 10.1491 9.51159 10.0973 9.53204 10.1097C9.60148 10.1541 9.60457 10.2188 9.67278 10.2647C9.69134 10.2768 9.84515 10.2103 9.86775 10.2297C9.93012 10.2825 9.91627 10.3743 9.88637 10.4509C9.87506 10.4793 9.73488 10.4998 9.72078 10.5054C9.49102 10.5973 9.81851 10.5261 9.8404 10.5299C9.97183 10.5553 9.83418 10.6386 9.89169 10.6797C9.90717 10.6911 10.0583 10.6386 10.073 10.6377C10.2177 10.6301 9.93268 10.6843 9.90832 10.7114C9.8391 10.7874 9.87071 10.8423 9.90811 10.8893C9.92208 10.9065 10.0949 10.8349 10.1054 10.8509C10.1711 10.9441 10.1908 11.0559 10.1243 11.1834C10.1115 11.2075 9.96764 11.2353 9.93702 11.2483C9.72239 11.3385 10.0406 11.2921 10.0729 11.2928C10.2198 11.2966 10.1013 11.348 10.1368 11.378C10.3126 11.5227 10.3055 11.7655 10.3114 11.9492C10.3197 12.1865 10.2412 12.3976 10.3478 12.5956C10.3544 12.6081 10.5403 12.5356 10.5484 12.5456C10.6445 12.676 10.6204 12.8447 10.7261 12.9716C10.7345 12.9823 10.9096 12.9065 10.9291 12.9215C10.9706 12.9518 10.9782 13.0043 10.9342 13.0625C10.9131 13.0908 10.7485 13.116 10.7304 13.1435C10.6879 13.2076 10.692 13.2604 10.7375 13.2977C10.7573 13.3133 10.9322 13.2218 10.9434 13.2468C11.0234 13.4146 11.1154 13.5714 10.9387 13.8305C10.9265 13.8482 10.5543 13.9911 10.6356 13.9914C10.7406 13.9565 10.8633 13.9131 10.9751 13.8746C11.0338 13.9635 11.0642 14.0654 11.0824 14.1676C11.0848 14.1813 11.0871 14.1949 11.0892 14.2086L10.8768 13.7965C10.8348 13.8038 10.7736 13.721 10.4171 13.5527C10.3883 13.5406 10.5284 13.3716 10.4668 13.345C10.1048 13.161 9.47339 13.1781 9.38486 13.4646C9.3748 13.4909 9.52214 13.8318 9.47167 13.7931C9.46082 13.7866 9.40587 13.7593 9.35979 13.6931C9.35244 13.6833 9.27152 13.5295 9.25808 13.5316C9.18411 13.5462 9.22169 13.5748 9.33154 13.6181C9.34969 13.6253 9.46525 13.7699 9.47974 13.7758C9.5845 13.8139 9.54266 13.6594 9.71549 13.7244C9.83268 13.7673 10.0441 14.0076 10.2874 14.2091C10.3217 14.2375 10.3521 14.2171 10.4828 14.3451C10.8116 14.667 11.1551 15.0359 11.5069 15.3775C11.5655 15.4343 11.5517 15.3784 11.6159 15.4428C11.6159 15.4428 11.6159 15.4428 11.616 15.4428C11.6349 15.4618 11.6607 15.4911 11.697 15.5369C11.7077 15.5503 11.742 15.6358 11.7966 15.7037C11.8343 15.7506 11.974 15.8741 12.0188 15.9377C12.0634 16.0013 11.9429 15.9012 11.9901 15.9812C12.0377 16.0624 12.1946 16.205 12.177 16.2575ZM7.40325 5.46096C7.28247 5.51932 7.75357 5.4254 7.63262 5.4151C7.62622 5.41472 7.40915 5.45802 7.40325 5.46096ZM6.7876 1.6714C6.63172 1.71718 6.86724 1.74012 6.98757 1.70759C7.10696 1.6753 6.83444 1.65757 6.7876 1.6714ZM6.65164 1.23675C6.53447 1.28777 7.02115 1.28868 6.91897 1.23754C6.91318 1.23457 6.65839 1.23377 6.65164 1.23675ZM10.2519 14.3699C10.2582 14.3759 10.2817 14.3647 10.2761 14.3581C10.1406 14.2015 10.0947 14.2229 10.2519 14.3699ZM6.52183 0.80235C6.45993 0.818174 6.53266 0.862286 6.60985 0.842607C6.67163 0.826808 6.59843 0.782692 6.52183 0.80235ZM7.26806 7.2193C7.26062 7.22151 7.258 7.24139 7.30071 7.23135C7.43827 7.19895 7.39334 7.18229 7.26806 7.2193ZM6.50508 0.060394C6.49209 0.170018 6.13731 0.236755 6.1804 0.117171C6.1879 0.0955371 6.29093 0.163783 6.32294 0.13624C6.38022 0.0858711 6.16329 0.0524128 6.2804 0.000944481C6.30137 -0.00836799 6.50627 0.0541434 6.50556 0.0605886C6.5054 0.0605235 6.50524 0.0604591 6.50508 0.060394ZM6.8435 5.5973C6.83742 5.59923 6.83688 5.62601 6.84317 5.62533C6.99545 5.60779 6.99625 5.55399 6.8435 5.5973ZM7.19001 8.36638C7.17533 8.37135 7.17453 8.43386 7.18883 8.43249C7.4734 8.39722 7.4743 8.27139 7.19001 8.36638ZM6.23198 3.90241C6.09042 3.88857 6.07206 3.85511 6.24378 3.81418C6.23694 3.84368 6.23803 3.87266 6.23198 3.90241Z" fill="black"/>
<path d="M8.34221 22.0218C8.39308 22.092 8.33708 22.2013 8.25689 22.3003C8.232 22.3309 8.12884 22.3094 8.10685 22.3305C8.06389 22.3713 8.11159 22.4198 8.05847 22.4675C8.04032 22.4833 7.87831 22.4455 7.86308 22.4617C7.77994 22.5495 7.81058 22.6566 7.73223 22.8174C7.63367 22.9747 7.59053 23.2463 7.08688 23.6317C6.83526 23.8153 6.4434 23.9069 6.19211 23.8797C5.93654 23.8598 5.7715 23.7854 5.66593 23.7308C5.26131 23.4909 5.22106 23.3506 5.11281 23.2158C5.10422 23.2029 5.09579 23.1901 5.08747 23.1772C5.06412 23.1415 5.04433 23.108 5.02557 23.0744C4.97165 22.9783 5.01236 22.7919 4.9075 22.7607C4.89488 22.7568 4.78831 22.8535 4.77793 22.8593C4.61802 22.947 4.84847 22.7724 4.8658 22.7314C4.93399 22.5686 4.89274 22.4888 4.80837 22.4598C4.77181 22.4471 4.56906 22.6456 4.67492 22.5218C4.68203 22.5134 4.80458 22.4291 4.81222 22.4119C4.8289 22.3727 4.78795 22.3584 4.78885 22.3381C4.79135 22.2991 4.78748 22.2959 4.77354 22.271C4.75642 22.2371 4.79052 22.1556 4.7424 22.1405C4.732 22.1377 4.6185 22.2363 4.59125 22.2396C4.56404 22.2429 4.55583 22.2036 4.57754 22.1722C4.59927 22.1408 4.69508 22.0765 4.71532 22.0589C4.88587 21.9107 4.61498 22.0587 4.6066 22.0582C4.45328 22.0488 4.55278 21.8724 4.50745 21.7938C4.47294 21.7335 4.39381 21.7 4.36918 21.6367C4.341 21.5618 4.36821 21.4609 4.32343 21.4015C4.31884 21.3951 4.19795 21.4909 4.19226 21.483C4.13159 21.3985 4.1028 21.2941 4.13683 21.1469C4.14025 21.1321 4.24953 21.0728 4.25894 21.0539C4.31557 20.9377 4.45829 20.7226 4.011 20.9828C4.00935 20.933 4.00436 20.8742 4.07089 20.7828C4.11351 20.7241 4.22886 20.6742 4.16986 20.6782C4.15675 20.679 4.07011 20.7486 4.05751 20.745C4.00488 20.7296 4.0123 20.6682 3.9473 20.6611C3.93392 20.6597 3.85631 20.7152 3.8411 20.7226C3.71821 20.7814 3.89227 20.6224 3.902 20.6069C3.97733 20.4879 3.91731 20.4784 3.89561 20.4301C3.89053 20.4189 3.79667 20.4996 3.78838 20.4911C3.74682 20.4457 3.72794 20.3824 3.74325 20.3005C3.74684 20.2821 3.83437 20.2379 3.84019 20.2264C3.8643 20.1765 3.70787 20.2743 3.72853 20.228C3.73266 20.2185 3.80317 20.1749 3.81027 20.1689C3.9212 20.0751 3.74619 20.1759 3.74075 20.1746C3.6662 20.1618 3.82218 20.0166 3.77212 19.9895C3.7661 19.9863 3.68854 20.0546 3.67693 20.042C3.59923 19.9581 3.56461 19.8372 3.57015 19.699C3.57092 19.6776 3.63641 19.6487 3.64316 19.6429C3.74751 19.5518 3.58904 19.6438 3.58052 19.6427C3.51661 19.6316 3.62005 19.5121 3.42628 19.6051C3.39686 19.4403 3.26068 19.3479 3.23608 19.1814C3.23511 19.1749 3.23431 19.1683 3.23369 19.1615C3.23059 19.1277 3.23221 19.0907 3.24019 19.0496C3.24065 19.0464 3.31421 19.0025 3.31483 18.9963C3.32302 18.922 3.21849 19.0049 3.06213 19.0636C3.02285 19.0783 3.1701 18.9452 3.18065 18.9351C3.21959 18.8979 3.33089 18.8353 3.33769 18.827C3.39041 18.7607 3.0425 18.9977 3.02296 18.9687C3.02294 18.9674 3.08996 18.9282 3.09474 18.9215C3.1098 18.9005 3.07916 18.91 3.0964 18.8878C3.13641 18.8366 3.30256 18.717 3.18618 18.7571C3.17113 18.7624 2.9758 18.8998 2.96785 18.8676C2.96484 18.8546 2.93084 18.811 2.93514 18.7895C2.93944 18.7681 3.00934 18.7342 3.01151 18.7315C3.07308 18.6404 3.11692 18.6301 3.2307 18.5292C3.344 18.4286 3.04939 18.632 3.01143 18.6471C2.97356 18.6621 3.02649 18.5902 3.04662 18.5677C3.06676 18.5453 3.11262 18.526 3.12267 18.5113C3.18799 18.4146 2.96409 18.5937 2.90875 18.6131C2.77779 18.6591 2.98382 18.4896 2.98804 18.4491C2.98917 18.4381 2.94271 18.4774 2.93381 18.4743C2.89921 18.4613 2.95813 18.4003 2.87602 18.4141C2.86263 18.4163 2.71454 18.4819 2.80209 18.4021C2.81474 18.3906 2.87377 18.3599 2.87901 18.341C2.88692 18.3128 2.87988 18.2762 2.8501 18.2714C2.82809 18.2679 2.74702 18.3428 2.76462 18.3081C2.7725 18.2927 2.83427 18.2704 2.84465 18.2443C2.85506 18.2183 2.83027 18.1862 2.81989 18.1746C2.80949 18.1631 2.74536 18.2159 2.74004 18.218C2.70932 18.2294 2.65978 18.227 2.65841 18.2248C2.57703 18.1209 2.6257 17.9426 2.51627 17.8616C2.50778 17.8552 2.43895 17.9092 2.4369 17.9087C2.38742 17.9003 2.59535 17.7943 2.64657 17.7313C2.50129 17.8323 2.52007 17.8027 2.49048 17.7933C2.4761 17.7888 2.42263 17.8321 2.4162 17.8351C2.32001 17.8785 2.42515 17.7939 2.4463 17.776C2.52409 17.7104 2.41773 17.7663 2.46965 17.7223C2.52115 17.6786 2.61388 17.6383 2.59992 17.6197C2.54361 17.6494 2.41547 17.7556 2.38336 17.7558C2.26199 17.7566 2.30109 17.5812 2.28261 17.5291C2.26418 17.4772 2.24488 17.4693 2.24665 17.4307C2.24989 17.361 2.15915 17.4462 2.09301 17.4483C2.02681 17.4504 2.28766 17.2969 2.33891 17.2567C2.39018 17.2166 2.33158 17.2492 2.35787 17.2243C2.38416 17.1994 2.42826 17.1859 2.43141 17.1665C2.43455 17.1471 2.31658 17.1783 2.25723 17.2117C2.13152 17.2826 2.01573 17.3811 2.03871 17.3199C2.04012 17.3164 2.11017 17.2782 2.11219 17.2668C2.12605 17.1773 2.09075 17.1175 2.09877 17.032C2.09998 17.0202 2.17807 16.978 2.1796 16.9706C2.19581 16.893 2.08283 16.9922 1.9282 17.0587C2.1153 16.9421 2.21811 16.8534 2.1958 16.8176C2.18245 16.796 2.10482 16.853 2.03929 16.877C2.01956 16.8842 2.06458 16.8326 2.02512 16.855C1.8961 16.9282 1.7677 17.0341 1.79844 16.9613C1.79999 16.958 1.87073 16.9181 1.87115 16.9099C1.87423 16.8567 1.74267 16.9383 1.70153 16.9103C1.66927 16.8884 1.71216 16.7827 1.70213 16.74C1.9087 16.6033 1.83997 16.6025 1.68914 16.6841C1.68015 16.658 1.65614 16.6394 1.66148 16.6049C1.66326 16.593 1.72616 16.5581 1.73199 16.5529C1.8236 16.4712 1.67893 16.5537 1.67032 16.5525C1.58301 16.5357 1.65959 16.4235 1.52416 16.4422C1.5193 16.4429 1.37424 16.5355 1.46993 16.4526C1.47657 16.4469 1.55261 16.4199 1.54211 16.3932C1.5316 16.3665 1.57906 16.2714 1.49114 16.2833C1.46995 16.2861 1.34053 16.3438 1.42072 16.2673C1.43164 16.257 1.47424 16.2319 1.49505 16.2136C1.56126 16.1552 1.41296 16.2463 1.52814 16.1527C1.64332 16.0592 1.71927 15.9736 1.6127 15.9975C1.60954 15.9981 1.48971 16.0669 1.48468 16.0554C1.47675 16.037 1.48511 15.9978 1.47297 15.9812C1.46711 15.9733 1.39939 16.026 1.39714 16.0254C1.32053 15.997 1.35785 15.9154 1.34608 15.838C1.34406 15.8238 1.22623 15.8574 1.28904 15.7853C1.35775 15.7063 1.72312 15.4968 1.60458 15.4995C1.55706 15.5004 1.09553 15.7691 1.29978 15.5776C1.19329 15.5412 1.2651 15.3941 1.13413 15.3738C1.12829 15.3729 0.997439 15.4448 0.993872 15.4358C0.988818 15.4223 1.0424 15.3773 1.04064 15.3664C1.03473 15.3198 0.963881 15.3208 0.949103 15.2819C0.943363 15.2672 1.00617 15.2318 0.999334 15.2143C0.992443 15.1969 0.906879 15.2392 0.931127 15.1931C0.949702 15.1582 1.10031 15.0352 1.10526 15.002C0.945906 15.1071 0.939687 15.0906 0.880883 15.0933C0.869503 15.0938 0.817703 15.1359 0.809468 15.1381C0.774731 15.1477 0.814765 15.1085 0.777818 15.1203C0.768926 15.1231 0.714618 15.1591 0.704287 15.1635C0.614377 15.2017 0.719844 15.0955 0.73826 15.0771C0.80807 15.007 0.732444 15.0464 0.755875 15.0127C0.779315 14.9791 0.831475 14.9713 0.841026 14.9438C0.860743 14.887 0.826041 14.8539 0.808064 14.8216C0.800557 14.8089 0.733726 14.8655 0.730971 14.8648C0.69572 14.8517 0.755648 14.7748 0.602057 14.8568C0.963238 14.5907 0.555698 14.8657 0.606176 14.7796C0.61031 14.7728 0.784229 14.6516 0.817428 14.6453C0.850602 14.639 0.806563 14.6924 0.857055 14.6807C0.868927 14.678 1.04792 14.5884 1.0598 14.5846C1.15272 14.5544 0.891285 14.7332 0.877589 14.7441C0.730207 14.8614 0.925004 14.7679 0.941741 14.7664C1.01836 14.7592 0.998495 14.8097 1.05565 14.8082C1.09272 14.8075 1.26642 14.694 1.26982 14.7106C1.28125 14.7656 1.05056 14.9413 1.28658 14.8429C1.33695 14.822 1.51981 14.6875 1.39237 14.8178C1.38434 14.826 1.26414 14.9397 1.35897 14.896C1.37092 14.8905 1.42587 14.8538 1.43198 14.8529C1.47182 14.848 1.43467 14.8871 1.4665 14.8894C1.49833 14.8917 1.54265 14.8904 1.53639 14.9215C1.5327 14.9401 1.43983 15.0227 1.41833 15.0448C1.35618 15.1081 1.48547 15.0454 1.40424 15.1131C1.32261 15.1812 1.17675 15.2517 1.13647 15.3144C1.27993 15.2201 1.42796 15.1245 1.57261 15.0302C1.6038 15.0879 1.59328 15.1722 1.63595 15.2225C1.64138 15.2286 1.71357 15.1705 1.72137 15.1758C1.75395 15.1982 1.71702 15.2614 1.75997 15.2786C1.7935 15.2917 1.89276 15.2644 1.93035 15.2764C1.77733 15.4011 1.85824 15.4022 1.86174 15.4398C1.86305 15.453 1.81896 15.4814 1.80931 15.4978C1.77397 15.5589 1.91029 15.4504 1.93778 15.4424C2.05518 15.4083 1.72997 15.6289 1.7621 15.6596C1.76369 15.6613 1.95354 15.5685 1.96654 15.5644C2.05094 15.5377 1.90814 15.6083 1.90379 15.6296C1.89582 15.6687 1.86501 15.7126 1.93433 15.706C1.95478 15.7039 2.07618 15.6507 2.00251 15.7222C1.99287 15.7316 1.93451 15.7689 1.93223 15.7727C1.89582 15.84 2.07735 15.7201 2.14998 15.6962C2.22259 15.6723 2.11514 15.7819 2.08269 15.8112C1.99885 15.8873 2.03573 15.8271 2.02609 15.8324C1.91136 15.896 1.94286 15.9027 1.94342 15.9235C1.76736 16.0439 1.79165 16.0573 1.94472 15.9445C1.96141 15.9322 1.93727 15.9318 1.94342 15.9235C2.12612 15.8202 2.16341 15.8278 2.01724 15.9612C1.94872 16.0236 1.85248 16.0719 1.90854 16.0855C1.9339 16.0918 2.05198 16.0041 2.09473 15.996C2.19229 15.9777 2.10628 16.0957 2.14644 16.117C2.16102 16.1247 2.22007 16.0684 2.23233 16.0721C2.2651 16.0819 2.22781 16.1347 2.2682 16.1396C2.27195 16.14 2.33872 16.0885 2.34418 16.0947C2.38692 16.1412 2.3722 16.2163 2.40709 16.2713C2.42398 16.2979 2.49381 16.319 2.50414 16.3513C2.52244 16.407 2.45917 16.5327 2.51069 16.5564C2.54399 16.572 2.61019 16.5196 2.6654 16.499C2.77234 16.459 2.63221 16.6078 2.60999 16.6301C2.60925 16.6308 2.57771 16.6193 2.54978 16.6552C2.47953 16.7122 2.6095 16.63 2.60999 16.6301C2.59568 16.6445 2.60981 16.7001 2.62916 16.7002C2.63971 16.7001 2.70426 16.6532 2.70851 16.654C2.80803 16.6746 2.86511 16.7237 2.8748 16.8055C2.87418 16.8074 2.79887 16.8553 2.79833 16.8593C2.7889 16.9167 2.8948 16.8788 2.96815 16.872C3.04147 16.8652 3.03883 16.9004 2.92292 17.0026C2.95363 17.0139 2.91834 17.083 2.89626 17.124C2.87419 17.1649 3.02036 17.0711 3.02429 17.0708C3.14893 17.0597 3.08544 17.1437 3.10705 17.204C3.11707 17.2328 3.17054 17.2676 3.20408 17.2837C3.23084 17.2962 3.20542 17.3315 3.24 17.3364C3.24464 17.3371 3.3072 17.2916 3.31021 17.2907C3.4016 17.261 3.23741 17.3555 3.2123 17.3787C3.12095 17.463 3.07322 17.5092 3.13974 17.5049C3.155 17.504 3.39386 17.3716 3.41486 17.3744C3.44176 17.3784 3.35679 17.4268 3.38702 17.4295C3.38953 17.4298 3.43942 17.3961 3.44373 17.4074C3.46444 17.4592 3.46831 17.5282 3.5048 17.572C3.5096 17.5782 3.58351 17.5169 3.59174 17.5249C3.63031 17.5624 3.65931 17.6122 3.65053 17.6796C3.64812 17.6964 3.58813 17.7269 3.57313 17.7402C3.48254 17.8207 3.64091 17.7438 3.64586 17.7452C3.7676 17.7767 3.67602 17.9239 3.79156 17.9617C3.79811 17.9636 3.97595 17.8932 3.85238 17.997C3.84418 18.0039 3.71743 18.1097 3.81946 18.0604C3.82583 18.0573 3.89003 18.0013 3.89352 18.0221C3.89702 18.0428 3.96112 18.0373 3.89854 18.1107C3.87884 18.1339 3.7536 18.2412 3.87601 18.1895C3.88449 18.1858 4.15135 18.0542 3.98959 18.1785C3.96294 18.199 3.78239 18.3165 3.89081 18.28C3.91178 18.2729 3.94604 18.2376 3.97932 18.2335C4.03053 18.2269 3.9994 18.2842 4.0949 18.2545C4.11176 18.2492 4.24505 18.1855 4.16203 18.261C4.14902 18.2728 4.08641 18.3086 4.08463 18.3204C4.07591 18.377 4.14047 18.3871 4.12282 18.4503C4.11669 18.4726 4.01564 18.5307 3.99849 18.5611C3.98135 18.5916 3.9741 18.6347 4.0275 18.619C4.06652 18.6075 4.15395 18.5416 4.20843 18.5117C4.22853 18.5006 4.24414 18.4945 4.25119 18.4979C4.25318 18.4988 4.25513 18.4998 4.25704 18.5008C4.36409 18.5568 4.33935 18.6994 4.39191 18.7912C4.39989 18.8051 4.44767 18.7573 4.46368 18.7749C4.52184 18.8404 4.67823 18.9156 4.60565 19.0541C4.54632 19.1663 4.41928 19.16 4.40881 19.2224C4.40345 19.2527 4.61237 19.1419 4.62238 19.1416C4.72072 19.1387 4.65968 19.223 4.71957 19.2397C4.73207 19.243 4.80578 19.1822 4.81565 19.1855C4.85025 19.1963 4.83569 19.2417 4.86206 19.2564C4.87411 19.2628 4.93523 19.2191 4.93876 19.2301C4.94789 19.2561 4.9392 19.2903 4.89845 19.3489C4.89466 19.3543 4.80363 19.3962 4.81486 19.4124C4.83354 19.4382 4.8013 19.5072 4.89057 19.4916C4.91725 19.4868 5.0683 19.3856 4.98173 19.472C4.9637 19.4901 4.77701 19.6082 4.95436 19.5216C4.98323 19.5078 5.23328 19.3939 5.11189 19.5028C5.07992 19.5315 4.93869 19.645 4.97217 19.6382C4.97735 19.6369 5.05569 19.5755 5.07207 19.5775C5.1285 19.5855 5.14992 19.6188 5.20722 19.6272C5.22282 19.6293 5.29968 19.5585 5.32034 19.5633C5.37751 19.5764 5.39812 19.6265 5.40274 19.6735C5.40436 19.6911 5.3191 19.7361 5.3117 19.7425C5.1899 19.847 5.38177 19.7296 5.39756 19.7261C5.49219 19.7067 5.42762 19.7847 5.47814 19.7913C5.49196 19.7932 5.57675 19.7274 5.58631 19.7231C5.68128 19.6821 5.50699 19.7832 5.49911 19.8036C5.47628 19.8611 5.51386 19.882 5.55373 19.8967C5.56852 19.9019 5.66459 19.8189 5.67683 19.8243C5.75213 19.8555 5.80124 19.9056 5.7938 19.9915C5.79212 20.0077 5.69859 20.0627 5.68082 20.0781C5.55551 20.1863 5.76665 20.0723 5.7902 20.0633C5.89609 20.0232 5.82661 20.0836 5.86102 20.0895C6.03133 20.1143 6.09921 20.2423 6.15198 20.3384C6.22332 20.4624 6.21368 20.6046 6.34042 20.6765C6.34848 20.6812 6.47701 20.5771 6.48577 20.5797C6.59305 20.6176 6.6092 20.7162 6.71887 20.7472C6.72758 20.7498 6.85122 20.6437 6.8697 20.6442C6.90832 20.6443 6.92519 20.6695 6.90126 20.7174C6.88982 20.7407 6.76412 20.8171 6.75485 20.8389C6.73277 20.8899 6.74523 20.9177 6.7872 20.9201C6.80529 20.9208 6.92814 20.8032 6.94106 20.812C7.03223 20.8704 7.12379 20.9109 7.00899 21.116C7.00101 21.1299 6.73341 21.3681 6.79415 21.332C6.86987 21.2672 6.95812 21.1901 7.03861 21.1204C7.08475 21.1355 7.10612 21.1614 7.10736 21.183C7.10745 21.1862 7.10701 21.1892 7.10603 21.1919C7.07487 21.2169 7.13155 21.2485 6.75641 21.0823C6.72211 21.0698 6.85501 20.9163 6.781 20.8889C6.66254 20.8481 6.49526 20.7928 6.22975 20.7885C5.97356 20.7799 5.58985 20.87 5.32017 21.0546C4.76597 21.451 4.74619 21.7905 4.78026 21.9344C4.7898 21.9644 5.10956 22.0644 5.04975 22.0891C5.0377 22.0967 4.9842 22.1297 4.91177 22.1225C4.90072 22.1218 4.74809 22.0858 4.74133 22.0972C4.70677 22.1609 4.74762 22.1487 4.84386 22.1185C4.85981 22.1133 5.02627 22.1259 5.03909 22.1218C5.12885 22.0909 5.0027 22.0399 5.1543 21.9918C5.25637 21.9588 5.54467 21.9715 5.82853 21.953C5.86858 21.9504 5.87493 21.928 6.04006 21.9268C6.45532 21.9238 6.91001 21.9349 7.35263 21.9305C7.42626 21.9297 7.38178 21.9112 7.46384 21.9112C7.46386 21.9112 7.46387 21.9112 7.46389 21.9112C7.48808 21.9112 7.52326 21.9128 7.57567 21.9169C7.59109 21.9181 7.66755 21.9406 7.7457 21.9465C7.79974 21.9505 7.96769 21.9434 8.03685 21.9516C8.10595 21.9598 7.96516 21.9688 8.0464 21.9831C8.12863 21.9977 8.31973 21.9914 8.34221 22.0218ZM2.798 17.3076C2.73983 17.3707 2.99562 17.2037 2.92269 17.2261C2.91886 17.2274 2.80083 17.3045 2.798 17.3076ZM1.40138 15.2996C1.30396 15.3964 1.4788 15.3015 1.55503 15.2283C1.63116 15.1551 1.43089 15.2703 1.40138 15.2996ZM1.16756 15.1262C1.09631 15.2108 1.45938 14.9746 1.36818 14.9957C1.363 14.9968 1.17169 15.1213 1.16756 15.1262ZM5.909 22.0397C5.91681 22.0396 5.92453 22.0243 5.91679 22.0239C5.73023 22.0147 5.71493 22.0444 5.909 22.0397ZM0.92763 14.9594C0.88423 14.9999 0.955914 14.9855 1.00988 14.9351C1.05329 14.8945 0.981612 14.9089 0.92763 14.9594ZM3.11162 18.3657C3.10801 18.3685 3.1111 18.3805 3.13237 18.366C3.20088 18.3194 3.17237 18.3188 3.11162 18.3657ZM0.667154 14.5776C0.691477 14.6435 0.416742 14.8764 0.409096 14.7921C0.407703 14.7769 0.520122 14.753 0.537453 14.7208C0.568952 14.6621 0.370489 14.7694 0.45288 14.676C0.467996 14.659 0.666428 14.5734 0.667636 14.5774C0.667475 14.5775 0.667314 14.5776 0.667154 14.5776ZM2.49921 17.5208C2.49608 17.5234 2.50189 17.539 2.50544 17.5371C2.59099 17.4906 2.57933 17.4591 2.49921 17.5208ZM3.33376 19.0393C3.32709 19.0449 3.34128 19.0807 3.34856 19.0773C3.49139 19.0057 3.46309 18.933 3.33376 19.0393ZM1.70727 16.7358C1.61629 16.7752 1.59498 16.7639 1.68908 16.6842C1.69343 16.7025 1.70245 16.7177 1.70727 16.7358Z" fill="black"/>
</svg>
