<svg width="11" height="9" viewBox="0 0 11 9" fill="none" xmlns="http://www.w3.org/2000/svg">
<path d="M3.97608 6.52013C3.97608 6.36777 3.91556 6.22164 3.80782 6.1139C3.70008 6.00616 3.55395 5.94563 3.40159 5.94563C3.24922 5.94563 3.1031 6.00616 2.99536 6.1139C2.88762 6.22164 2.82709 6.36777 2.82709 6.52013C2.82715 6.56452 2.82686 6.61092 2.8286 6.67002C2.82986 6.7011 2.83006 6.73 2.83737 6.7909C2.85218 6.83768 2.81176 6.81628 2.92098 7.04258C2.94515 7.08074 2.96766 7.12167 3.04565 7.19053C3.10573 7.24841 3.27788 7.33797 3.43463 7.32857C3.76691 7.29244 3.79847 7.17603 3.85191 7.13816C3.92759 7.05031 3.93048 7.02891 3.94786 6.99952C3.9523 6.99092 3.95651 6.98252 3.96063 6.97413C4.23592 6.3507 4.43241 5.84154 4.67634 5.2864C5.15941 4.17194 5.68068 3.07416 6.22077 1.99301C6.24252 1.94947 6.2654 1.90628 6.28919 1.86332C6.35495 1.74067 6.4787 1.60291 6.4676 1.65347C6.45608 1.66858 6.4305 1.71282 6.30345 1.76417C6.18307 1.8235 5.91157 1.80027 5.80141 1.72606C5.58367 1.58285 5.64137 1.58109 5.64 1.60954C5.64851 1.62986 5.6624 1.66657 5.67656 1.70951C6.37636 3.70505 7.37101 5.50403 8.5315 7.2012C8.60446 7.30638 8.67742 7.4088 8.7542 7.51341C8.7488 7.48776 8.75512 7.57379 8.66061 7.29121C8.65164 7.245 8.64031 7.23484 8.6352 7.08754C8.63356 6.96262 8.66476 6.76627 8.79012 6.58459C9.08587 6.1997 9.3613 6.2157 9.49298 6.20126C9.7224 6.20827 9.70217 6.22868 9.74631 6.23686C9.81273 6.2628 9.7483 6.23918 9.71583 6.22179C9.63115 6.17984 9.52679 6.12233 9.42174 6.06369C9.21126 5.94588 8.99078 5.81951 8.76932 5.69477C8.32433 5.44355 7.87274 5.19591 7.41374 4.95457C6.49347 4.47317 5.56045 4.00858 4.56118 3.60118C4.55525 3.59879 4.54932 3.59641 4.5434 3.59403C3.46047 3.11783 1.9337 3.03691 0.974238 3.34026C0.983459 3.3393 0.99794 3.33784 1.02223 3.33767C1.0076 3.33883 0.991887 3.33275 1.04829 3.34383C1.06829 3.35143 1.1415 3.35463 1.27309 3.45966C1.34739 3.51659 1.46003 3.66883 1.4827 3.82647C1.5074 3.97465 1.47733 4.08454 1.44912 4.15637C1.34457 4.36603 1.33557 4.3173 1.33516 4.32998C1.33575 4.32929 1.35612 4.3144 1.37411 4.30306C1.45972 4.24794 1.59816 4.1776 1.72837 4.11778C1.99997 3.99308 2.29029 3.88059 2.58708 3.77417C3.18296 3.56154 3.79462 3.37886 4.41358 3.21281C5.65254 2.88177 6.91565 2.6212 8.18567 2.40449C8.28256 2.388 8.37803 2.3725 8.47244 2.35823C8.66415 2.32934 8.85437 2.29812 9.02491 2.27917C9.1077 2.26976 9.19044 2.26435 9.2372 2.26425C9.25872 2.26327 9.27464 2.26723 9.24106 2.25621C9.22363 2.24918 9.19022 2.24036 9.12381 2.19497C9.06153 2.15454 8.94434 2.0363 8.90322 1.88098L8.96626 1.35443C8.94231 1.40073 8.91079 1.44951 8.87091 1.5008C8.44346 2.01397 7.69638 2.58031 7.06229 3.13312L7.05082 3.14321C7.00523 3.18394 6.95544 3.22867 6.90999 3.26973C5.9029 4.18064 4.95073 5.1488 4.05837 6.17728C3.60067 6.70546 3.1588 7.25023 2.73981 7.81309C2.69229 7.87719 2.66498 7.95617 2.66859 8.03713C2.67216 8.11805 2.70572 8.19372 2.76294 8.2485C2.82016 8.30328 2.89722 8.33351 2.97822 8.33355C3.05926 8.33362 3.13697 8.30291 3.19895 8.25263C3.73676 7.81639 4.27355 7.38038 4.80504 6.94028C5.8406 6.08384 6.85737 5.20812 7.84993 4.31035C7.89468 4.26993 7.94353 4.22576 7.98808 4.18543L7.97661 4.19552C8.62836 3.61072 9.26009 3.13407 9.9422 2.33329C10.0131 2.24205 10.0851 2.1408 10.1505 2.0303L10.2907 1.79752L10.2136 1.50376C10.1586 1.29851 10.0051 1.13852 9.90063 1.06944C9.79188 0.994914 9.70921 0.966162 9.64311 0.944157C9.51106 0.903369 9.42351 0.894089 9.34204 0.885044C9.1835 0.869877 9.05747 0.871313 8.93593 0.874527C8.69315 0.882529 8.4739 0.905226 8.25767 0.937547C8.15185 0.953549 8.04723 0.970721 7.94239 0.988887C6.62936 1.21703 5.32851 1.51431 4.04328 1.88646C3.40033 2.07345 2.76431 2.27721 2.12568 2.51606C1.80608 2.6364 1.49261 2.7615 1.16656 2.91454C1.00602 2.9912 0.84107 3.07146 0.653757 3.19156C0.613104 3.21789 0.54976 3.26149 0.495952 3.30594C0.427025 3.37618 0.357263 3.38173 0.220561 3.6639C0.183876 3.75716 0.150837 3.88573 0.178674 4.05275C0.204423 4.23007 0.329672 4.40139 0.419921 4.4714C0.576031 4.59867 0.701615 4.61963 0.753528 4.63393C0.898117 4.66351 0.948029 4.65938 1.02882 4.66089C1.0654 4.66065 1.09375 4.65828 1.11842 4.65562C2.29257 4.34709 3.08657 4.45299 4.04508 4.82802C4.04986 4.82997 4.05464 4.83193 4.05943 4.83391C4.94138 5.20031 5.78848 5.73481 6.6163 6.29151C7.03127 6.57128 7.44068 6.85919 7.86119 7.14891C8.07137 7.29346 8.28251 7.43784 8.50643 7.58232C8.62092 7.65564 8.73141 7.72597 8.87388 7.80547C8.94769 7.84411 9.00766 7.88495 9.18655 7.94872C9.26929 7.96881 9.26911 7.99563 9.53509 8.00339C9.68561 7.98809 9.97277 8.00101 10.2778 7.60384C10.4073 7.41612 10.4406 7.21202 10.4389 7.0776C10.4334 6.9186 10.4208 6.90464 10.4103 6.85165C10.2956 6.50462 10.2718 6.54993 10.2221 6.46042C10.1545 6.36366 10.0877 6.26741 10.0196 6.16916C8.92757 4.5762 7.87042 2.91112 7.1732 1.16306C7.14443 1.08861 7.11186 1.00883 7.06595 0.916925C6.98489 0.78635 6.95182 0.618517 6.57868 0.379924C6.39177 0.259252 6.0219 0.225883 5.81746 0.315392C5.60528 0.395697 5.50659 0.495981 5.43034 0.572884C5.16467 0.880696 5.12672 1.06841 5.03488 1.27073C5.01633 1.31738 4.99715 1.36352 4.97708 1.40902C4.47868 2.53909 4.02359 3.68919 3.57848 4.8353C3.36279 5.38469 3.13645 5.99585 2.92937 6.46748C2.92806 6.47015 2.9271 6.47204 2.92663 6.47295C2.93856 6.45393 2.93656 6.44135 3.00472 6.36199C3.05418 6.32832 3.08161 6.21568 3.40819 6.17988C3.56232 6.17061 3.73157 6.25883 3.78977 6.31505C3.86555 6.38198 3.88665 6.42093 3.90929 6.45656C4.00824 6.66326 3.96534 6.61959 3.97702 6.64465C3.97891 6.66196 3.97723 6.64665 3.97703 6.63399C3.97612 6.6052 3.97608 6.56366 3.97608 6.52013Z" fill="black"/>
</svg>
