<svg width="10" height="10" viewBox="0 0 10 10" fill="none" xmlns="http://www.w3.org/2000/svg">
<path d="M2.26635 8.71947C2.36648 8.71947 2.4625 8.6797 2.5333 8.6089C2.6041 8.5381 2.64387 8.44208 2.64387 8.34195C2.64387 8.24183 2.6041 8.1458 2.5333 8.07501C2.4625 8.00421 2.36648 7.96443 2.26635 7.96443C2.23402 7.96998 2.23054 7.94351 2.34797 7.9967C2.48902 8.07383 2.50329 8.22644 2.50012 8.2295C2.50013 8.23009 2.50014 8.23064 2.50014 8.23117C2.50707 7.81481 2.76983 7.25184 3.00396 6.74244C3.52663 5.64204 4.09774 4.51116 4.4847 3.29541C4.49913 3.25052 4.51375 3.20548 4.5285 3.16027C4.66107 2.76159 4.86801 2.38949 5.09084 2.01904C5.1214 1.96808 5.15417 1.91786 5.18817 1.86774C5.24294 1.78706 5.31121 1.70468 5.31923 1.72023C5.31331 1.72351 5.31476 1.80469 5.06304 1.8871C4.93849 1.92263 4.77883 1.89935 4.69757 1.86265C4.61208 1.8267 4.57743 1.79454 4.55769 1.77805C4.512 1.73362 4.53947 1.76003 4.5559 1.7937C5.68973 3.7136 5.80653 5.79647 6.05749 8.2774C6.07977 8.415 6.1476 8.55411 6.21905 8.68965C6.25393 8.76208 6.28337 8.83221 6.35652 8.96474C6.37776 9.00192 6.40198 9.04399 6.44708 9.10304C6.50554 9.16416 6.54554 9.26997 6.82998 9.37752C6.97389 9.42891 7.19404 9.41753 7.32958 9.35352C7.47419 9.28962 7.5425 9.21658 7.5898 9.16515C7.68276 9.05526 7.70217 8.99831 7.72702 8.94551C7.81623 8.71146 7.8056 8.62963 7.81633 8.51485C7.82124 8.40794 7.81732 8.30971 7.80682 8.20999C7.56511 6.54831 6.22618 5.77382 5.15799 5.22236C4.02808 4.67859 2.85799 4.34176 1.64733 4.12909C1.4726 4.09944 1.29284 4.07205 1.1165 4.0493C1.08309 4.04495 1.05873 4.04058 1.04703 4.03779C1.04074 4.03641 1.03564 4.03453 1.04607 4.03721C1.06261 4.04836 1.05076 4.01554 1.20375 4.12424C1.23971 4.15404 1.28531 4.19798 1.32812 4.26906C1.37727 4.33583 1.43514 4.54307 1.39647 4.68238C1.36409 4.82799 1.29535 4.91 1.25159 4.95643C1.22507 4.98365 1.20815 4.99713 1.19151 5.00999C1.12749 5.05651 1.11299 5.05677 1.11196 5.0588C1.10538 5.06183 1.13188 5.05319 1.15233 5.04839C1.25547 5.02247 1.39686 4.99773 1.53522 4.97643C1.81355 4.93399 2.10521 4.90048 2.39776 4.87044C2.97862 4.81155 3.57071 4.76689 4.16146 4.72488C5.34347 4.64086 6.52848 4.57116 7.71469 4.44819L6.99812 3.07916C6.95619 3.12651 6.90667 3.17957 6.85817 3.22951C5.5849 4.46798 3.88687 5.56029 2.30386 6.77985C2.08867 6.9462 1.87293 7.11659 1.65513 7.30481L1.6342 7.3234C1.6241 7.3328 1.61412 7.34212 1.60426 7.35137C1.31957 7.61428 0.971876 7.9832 0.751195 8.34033C0.637249 8.5127 0.596475 8.72368 0.637456 8.9266C0.67846 9.12953 0.797862 9.30778 0.96978 9.4224C1.1417 9.53701 1.35216 9.57867 1.55526 9.53847C1.75833 9.49825 1.93739 9.37947 2.05268 9.20799C2.23245 8.92857 2.40863 8.74989 2.67382 8.50456C2.6823 8.49679 2.69093 8.48893 2.69969 8.48096L2.67876 8.49955C2.85851 8.34781 3.05895 8.19315 3.26257 8.04064C4.80951 6.87581 6.48728 5.89185 8.04913 4.38491C8.11398 4.31811 8.18335 4.24316 8.24686 4.16965L9.64589 2.55648L7.53029 2.80061C6.36234 2.93527 5.1728 3.11353 3.99431 3.30865C3.40365 3.40641 2.81149 3.50762 2.21988 3.61416C1.92088 3.66825 1.62301 3.72284 1.31739 3.78662C1.16071 3.82012 1.01415 3.85049 0.827094 3.90524C0.786557 3.91762 0.724356 3.93675 0.658037 3.96491C0.634555 3.97579 0.565309 4.00177 0.479177 4.06624C0.456071 4.08402 0.434159 4.10175 0.402323 4.13441C0.349541 4.19016 0.275284 4.28129 0.240995 4.43584C0.200175 4.58367 0.260838 4.80138 0.313852 4.87412C0.360001 4.95079 0.410534 5.00023 0.453066 5.03544C0.637681 5.16853 0.66342 5.14663 0.710365 5.16732C0.751679 5.17949 0.800236 5.18959 0.824446 5.1939C0.874399 5.20298 0.92436 5.20974 0.978552 5.21576C1.13354 5.23215 1.29452 5.25467 1.4519 5.28138C3.51767 5.64968 6.22972 6.71369 6.45056 8.33993C6.46362 8.38608 6.41969 8.55566 6.46543 8.39852C6.47959 8.37001 6.48754 8.3351 6.56304 8.24511C6.60195 8.203 6.66034 8.13859 6.79278 8.07986C6.91669 8.02089 7.12327 8.0102 7.25479 8.05747C7.51446 8.15643 7.53722 8.24283 7.57969 8.2824C7.61043 8.32156 7.62214 8.34107 7.6317 8.35394C7.66182 8.39501 7.66273 8.36245 7.67312 8.3357C7.68618 8.23159 7.7061 8.11967 7.68885 8.01312C7.48156 5.88326 7.17826 3.15165 5.80513 1.05307C5.74488 0.9588 5.69022 0.860616 5.53641 0.714834C5.47636 0.661293 5.39643 0.595354 5.26039 0.537868C5.12879 0.479358 4.91193 0.448746 4.73369 0.497462C4.37356 0.607079 4.29453 0.774303 4.22102 0.862723C4.09522 1.05361 4.06558 1.17002 4.02102 1.2859C3.99939 1.34737 3.97702 1.40929 3.95333 1.47092C3.77917 1.9221 3.64202 2.39956 3.52886 2.88051C3.51893 2.92352 3.50851 2.96627 3.49756 3.00875C3.20464 4.1606 2.75318 5.27702 2.27245 6.42103C2.06159 6.97518 1.7793 7.48542 1.74514 8.23879C1.74517 8.24118 1.74521 8.24357 1.74526 8.24598C1.74275 8.31628 1.77687 8.54662 1.98181 8.65702C2.16126 8.74312 2.23031 8.71322 2.26635 8.71947Z" fill="black"/>
</svg>
