<svg width="11" height="11" viewBox="0 0 11 11" fill="none" xmlns="http://www.w3.org/2000/svg">
<path d="M2.79443 8.93062C2.97663 8.9199 3.14711 8.83725 3.26836 8.70083C3.38962 8.56442 3.45172 8.38543 3.441 8.20323C3.43028 8.02103 3.34763 7.85055 3.21121 7.72929C3.0748 7.60804 2.89581 7.54594 2.71361 7.55666C2.84458 7.54554 3.03142 7.59006 3.15972 7.6884C3.29038 7.78496 3.35403 7.89883 3.38692 7.97724C3.44841 8.13776 3.43696 8.2033 3.43904 8.25126C3.43659 8.31247 3.43505 8.30771 3.43289 8.32711C3.42881 8.35481 3.42573 8.36671 3.42404 8.37406C3.42154 8.38415 3.42177 8.38257 3.42264 8.3798C3.42534 8.37092 3.4289 8.36002 3.43494 8.34249C3.44526 8.31252 3.46029 8.2716 3.47324 8.23733C3.5026 8.1596 3.53252 8.08399 3.56441 8.00478C3.62792 7.84725 3.69414 7.68884 3.76258 7.52794C3.89719 7.21169 4.03981 6.88796 4.18197 6.57194C4.80577 5.1885 5.47421 3.81705 6.18557 2.47773C6.20066 2.44936 6.21612 2.42117 6.23193 2.39316C6.28665 2.29548 6.35995 2.21303 6.38863 2.20753C6.40011 2.20436 6.39719 2.23135 6.31993 2.27114C6.24683 2.31411 6.07835 2.32149 5.9963 2.29114C5.8339 2.22779 5.89166 2.25525 5.91389 2.33058C5.94564 2.40431 5.98858 2.50936 6.03506 2.62017C6.04783 2.65049 6.06043 2.6816 6.07296 2.7136C6.87591 4.75775 7.50497 6.86287 7.99235 9.00596C8.01206 9.09196 8.03276 9.18042 8.05312 9.26532C8.0589 9.28412 8.05941 9.30732 8.05533 9.24472C8.05504 9.23383 8.0527 9.19116 8.05997 9.13C8.06534 9.09303 8.06496 9.07717 8.08853 8.99356C8.1148 8.9086 8.16399 8.78271 8.29032 8.65018C8.3926 8.52616 8.68043 8.38336 8.873 8.38851C8.97116 8.38436 9.05689 8.39873 9.11471 8.41349C9.15626 8.42403 9.191 8.43612 9.2206 8.44803C9.33671 8.49623 9.38541 8.53961 9.40244 8.55177C9.52157 8.66073 9.41866 8.56928 9.39092 8.52913C9.3063 8.42654 9.20598 8.29313 9.10718 8.16202C8.90755 7.8961 8.70179 7.62105 8.49102 7.34726C8.06478 6.7971 7.63763 6.24789 7.12098 5.69577C7.06795 5.63977 7.01445 5.58624 6.95893 5.53346C5.52904 4.21393 3.66512 4.22906 2.16399 4.18093C2.09996 4.17924 2.03783 4.18069 1.9769 4.18458C1.87631 4.19114 1.77837 4.18602 1.67141 4.18386C1.61704 4.18326 1.56442 4.18165 1.49018 4.19094C1.47097 4.19362 1.45162 4.19636 1.41937 4.20513C1.405 4.20898 1.38547 4.21466 1.3533 4.22799C1.3316 4.2379 1.32487 4.2386 1.27264 4.26907C1.24387 4.28794 1.23533 4.28788 1.16202 4.35095C1.12265 4.38806 1.068 4.4373 1.00504 4.55186C0.989522 4.58114 0.974695 4.61289 0.960028 4.6544C0.93668 4.72085 0.917981 4.8054 0.918425 4.90203C0.91368 5.09813 1.02128 5.31465 1.1323 5.4188C1.26651 5.54234 1.27625 5.52963 1.32835 5.5608C1.37156 5.58232 1.40746 5.59545 1.43803 5.60514C1.49697 5.6238 1.54659 5.63092 1.56629 5.63364C1.60421 5.63877 1.63073 5.64009 1.65273 5.64084C1.69946 5.64177 1.70648 5.64123 1.72671 5.64071C1.76014 5.63949 1.77406 5.63884 1.79065 5.63801C1.81894 5.6368 1.8376 5.63615 1.85648 5.63525C1.91976 5.64257 1.9823 5.64493 2.04263 5.63403C4.33362 5.225 6.68169 5.04497 9.07846 4.81145C9.08745 4.81053 9.09627 4.80965 9.105 4.80882C9.18577 4.80085 9.26687 4.80308 9.29711 4.81107C9.30748 4.81292 9.31756 4.82596 9.22515 4.80472C9.1775 4.78692 9.08757 4.78076 8.91308 4.61859C8.71798 4.46264 8.63291 4.02228 8.69211 3.87347C8.69087 3.87813 8.68967 3.88271 8.68852 3.88726C8.69174 4.14469 7.91901 4.64712 7.12148 4.99642C6.31226 5.37097 5.42706 5.74822 4.5755 6.24143L4.49565 6.29301C4.47911 6.30523 4.46261 6.31742 4.44616 6.32956C4.06142 6.61354 3.67863 6.89548 3.29785 7.16426C2.93135 7.42229 2.56348 7.67211 2.20982 7.87278C2.20977 7.87281 2.20973 7.87283 2.20968 7.87286L2.2408 7.85641C2.14616 7.91463 2.06202 7.9695 1.814 8.26487C1.68049 8.39576 1.5375 8.84888 1.65222 9.06437C1.73952 9.27809 1.84036 9.33875 1.917 9.40411C1.99942 9.45001 2.11848 9.46476 2.22964 9.45854C2.34186 9.45155 2.43703 9.42412 2.51256 9.36888C2.5881 9.31364 2.64307 9.23126 2.68375 9.12643C2.72336 9.02238 2.74538 8.90445 2.72662 8.812C2.73153 8.77794 2.76652 8.73383 2.82824 8.82757C2.91347 8.92211 2.82414 9.24802 2.7821 9.29915C2.71873 9.43293 2.86759 9.4001 2.98846 9.34617L3.01958 9.32972C3.01965 9.32969 3.01971 9.32965 3.01977 9.32962C3.47169 9.07996 3.8696 8.81145 4.26045 8.54199C4.66441 8.26203 5.05538 7.97907 5.4444 7.69961C5.46102 7.68767 5.47768 7.67569 5.49438 7.66369L5.41454 7.71527C6.16027 7.29579 6.97779 6.96588 7.84297 6.58662C8.64222 6.15964 9.86481 5.91987 10.4122 4.32425C10.4181 4.30129 10.4234 4.27816 10.4283 4.25491C10.5 4.0557 10.4027 3.55899 10.1697 3.36721C9.95837 3.1686 9.81871 3.14217 9.7223 3.10983C9.53094 3.06035 9.4368 3.06584 9.3447 3.06451C9.1688 3.0676 9.04432 3.08668 8.92021 3.10047C8.90721 3.10199 8.89435 3.10354 8.88149 3.10514C6.5474 3.38193 4.13677 3.6037 1.74498 4.08193C1.68151 4.09477 1.62093 4.12116 1.56183 4.15281C1.562 4.15561 1.56371 4.15804 1.57503 4.15932C1.58221 4.15985 1.5884 4.1602 1.61226 4.15974C1.62742 4.15959 1.6319 4.15923 1.67297 4.16014C1.69255 4.16086 1.71698 4.16204 1.75315 4.16695C1.77189 4.16955 1.81977 4.17637 1.87775 4.1947C1.90779 4.20423 1.94323 4.21718 1.98604 4.23851C2.03771 4.26944 2.04727 4.25668 2.18087 4.37967C2.29144 4.48336 2.39882 4.69937 2.39408 4.8949C2.39452 4.99124 2.37587 5.07549 2.35263 5.14163C2.33804 5.18295 2.32329 5.21452 2.30788 5.2436C2.24532 5.35739 2.19139 5.4058 2.15302 5.442C2.08176 5.50327 2.07428 5.50255 2.04764 5.52007C2.00028 5.54761 1.99589 5.54719 1.97885 5.55486C1.95442 5.56453 1.9442 5.56648 1.93725 5.56751C1.92239 5.5697 1.91938 5.56707 1.91683 5.56455C1.91044 5.55294 1.92725 5.53496 1.94221 5.52023C1.97455 5.48997 2.01767 5.46632 2.05866 5.46376C2.0836 5.46216 2.10758 5.46172 2.12954 5.46234C3.63731 5.48727 5.14984 5.63388 6.00391 6.51412C6.03868 6.54931 6.07174 6.58519 6.10413 6.62286C6.49725 7.08225 6.84351 7.65768 7.18247 8.23208C7.35241 8.52083 7.51974 8.81286 7.70239 9.11277C7.79474 9.26336 7.88685 9.41238 8.00474 9.57862C8.08314 9.67573 8.08245 9.72313 8.3311 9.93983C8.36011 9.96154 8.43467 10.0225 8.56744 10.0769C8.60149 10.0906 8.64049 10.1041 8.68613 10.1156C8.74972 10.1319 8.84179 10.147 8.94534 10.1426C9.14866 10.1476 9.44678 9.99941 9.55476 9.86913C9.68752 9.72993 9.74181 9.59452 9.77182 9.49709C9.79897 9.40073 9.79923 9.37958 9.80597 9.33197C9.81564 9.25335 9.81302 9.17711 9.81174 9.15168C9.80249 9.00625 9.78779 8.95209 9.77284 8.87732C9.75453 8.79081 9.73455 8.69985 9.71426 8.61133C9.20829 6.38622 8.50636 4.19929 7.63838 2.08461C7.62036 2.0406 7.60172 1.99649 7.58208 1.9518C7.50924 1.78741 7.42025 1.62152 7.28967 1.44263C7.14884 1.27033 7.01331 1.04567 6.57169 0.863786C6.35081 0.775464 6.02201 0.780103 5.8091 0.87628C5.59075 0.968054 5.46631 1.08961 5.37226 1.19173C5.18898 1.40126 5.10417 1.57605 5.01582 1.74378C5.00098 1.77317 4.98585 1.80239 4.97041 1.83142C4.24241 3.20223 3.56377 4.59473 2.92681 6.00724C2.78152 6.33024 2.63558 6.66144 2.49613 6.98904C2.42515 7.15595 2.35618 7.32081 2.28779 7.49044C2.2533 7.57614 2.22069 7.65837 2.1855 7.75148C2.16986 7.79294 2.15101 7.84391 2.13393 7.89339C2.1234 7.92421 2.11765 7.94071 2.1047 7.98314C2.09854 8.00389 2.09419 8.01832 2.08632 8.05033C2.0813 8.07142 2.07589 8.09486 2.07047 8.13185C2.06763 8.1565 2.06576 8.15319 2.06302 8.22175C2.065 8.27456 2.05399 8.34373 2.11647 8.50664C2.14987 8.58624 2.21414 8.701 2.34557 8.79812C2.47465 8.89703 2.6624 8.9418 2.79443 8.93062Z" fill="black"/>
</svg>
