<svg width="11" height="9" viewBox="0 0 11 9" fill="none" xmlns="http://www.w3.org/2000/svg">
<path d="M2.93073 7.47177C3.01449 7.34613 3.04491 7.19236 3.01529 7.04429C2.98568 6.89622 2.89846 6.76598 2.77282 6.68222C2.64717 6.59846 2.49341 6.56804 2.34534 6.59765C2.19726 6.62726 2.06702 6.71449 1.98326 6.84013C1.93966 6.90551 1.89702 6.96959 1.86087 7.01999C1.84517 7.0426 1.82109 7.07148 1.83432 7.05619C1.84068 7.05023 1.84413 7.04313 1.88631 7.01032C1.91102 6.99509 1.93222 6.96617 2.05871 6.92531C2.12671 6.90788 2.24561 6.87796 2.42046 6.94438C2.5899 7.01012 2.68647 7.15501 2.71434 7.21691C2.81169 7.48129 2.75852 7.45233 2.76797 7.48887C2.76609 7.5086 2.7648 7.51348 2.76444 7.5158C2.76558 7.50984 2.76673 7.50388 2.76789 7.49792C2.87057 6.96956 3.03764 6.44379 3.24558 5.93067C3.89266 4.36288 4.88349 2.85691 6.01864 1.62036C6.05429 1.58353 6.09393 1.54402 6.12491 1.51519C6.14268 1.49195 6.2474 1.42571 6.1179 1.50663C6.21998 1.47754 6.18012 1.46313 6.3595 1.59383C6.51101 1.72413 6.68075 1.96061 6.82544 2.2119C7.1185 2.72189 7.36013 3.31732 7.58508 3.9162C8.03892 5.12484 8.40287 6.37644 8.93038 7.65471C8.97805 7.76797 9.03269 7.89168 9.08608 8.00486C9.08074 7.9706 9.05315 8.00477 9.04025 7.75192C9.04393 7.69011 9.04267 7.6182 9.10419 7.47545C9.15895 7.34574 9.29012 7.21049 9.39601 7.15366C9.60136 7.03884 9.75004 7.06093 9.78257 7.06044C9.96919 7.08662 9.89345 7.08687 9.88565 7.07752C9.83783 7.05868 9.75148 7.01559 9.67072 6.97295C9.50306 6.88427 9.32485 6.78359 9.14641 6.68351C8.78837 6.4821 8.4194 6.27566 8.04508 6.07566C7.29573 5.67688 6.52892 5.29118 5.69947 4.96945C5.62534 4.94098 5.55113 4.91348 5.47707 4.88717C4.20401 4.47515 3.05179 4.2968 1.98482 3.89988C1.85609 3.85299 1.72982 3.80334 1.60683 3.75046C1.52438 3.71484 1.47009 3.68699 1.42456 3.6591C1.37954 3.6357 1.36643 3.59899 1.42354 3.68226C1.45245 3.72478 1.49455 3.8466 1.47801 3.95657C1.46368 4.06975 1.41558 4.13404 1.40096 4.15259C1.36281 4.19406 1.39973 4.15332 1.44761 4.12852C1.66553 4.00446 2.0465 3.88573 2.4003 3.79378C3.13023 3.60626 3.8988 3.47266 4.66711 3.35488C6.17488 3.1312 7.89131 2.93439 9.22571 2.89121C9.27133 2.88551 9.29743 2.95388 9.2094 2.83259C9.19027 2.79849 9.16337 2.7417 9.15604 2.66289C9.15397 2.44524 9.21833 2.40157 9.17357 2.4173C9.14179 2.42825 9.08453 2.46253 9.03025 2.50595C8.70102 2.76585 8.27404 3.04299 7.87244 3.31691C7.76228 3.39155 7.64674 3.47024 7.53655 3.54613C6.31144 4.38738 5.10329 5.2785 3.94681 6.23821C3.36712 6.71887 2.79897 7.2165 2.24641 7.73264C2.18095 7.79396 2.13513 7.87593 2.12317 7.96619C2.11119 8.05641 2.13348 8.14676 2.18609 8.21864C2.2387 8.29052 2.31808 8.33909 2.4077 8.35494C2.49736 8.37084 2.58934 8.35195 2.66758 8.30809C3.3219 7.941 3.97179 7.56964 4.61584 7.1906C5.90156 6.43316 7.1645 5.64978 8.40066 4.80096C8.51215 4.72419 8.62841 4.64275 8.73926 4.56374C9.15114 4.26696 9.54193 3.98665 9.97466 3.61227C10.0532 3.54186 10.1244 3.46074 10.2092 3.34201C10.2769 3.22963 10.4572 3.0354 10.4509 2.63963C10.442 2.46921 10.3866 2.3226 10.3228 2.209C10.0417 1.76112 9.68492 1.66945 9.3655 1.62253C7.54436 1.65471 6.10056 1.8556 4.47612 2.07697C3.68069 2.19569 2.88833 2.3277 2.07492 2.53309C1.66605 2.64376 1.26964 2.74041 0.79743 2.99638C0.674089 3.07239 0.555024 3.13112 0.378821 3.33934C0.307206 3.42832 0.206016 3.58951 0.181149 3.79832C0.151959 4.00201 0.221724 4.22658 0.302778 4.35415C0.648174 4.82102 0.842809 4.81961 1.08993 4.95138C1.23858 5.01541 1.38785 5.07406 1.53722 5.12848C2.75279 5.57516 4.03409 5.70787 5.07075 6.04271C5.13331 6.06443 5.19673 6.08766 5.26066 6.1122C5.98037 6.39057 6.67954 6.80358 7.36428 7.24023C7.7082 7.45979 8.04929 7.68809 8.39902 7.91634C8.57475 8.03058 8.75101 8.14474 8.94834 8.2614C9.04761 8.31928 9.14764 8.37776 9.2872 8.44186C9.37858 8.47441 9.3922 8.51462 9.68717 8.55202C9.73853 8.55338 9.92515 8.57304 10.148 8.44653C10.2643 8.3838 10.405 8.23865 10.4652 8.09683C10.5326 7.94052 10.5324 7.85784 10.5365 7.7842C10.5216 7.47241 10.4781 7.4716 10.4473 7.37891C10.4043 7.28253 10.3573 7.17347 10.3145 7.0717C9.83126 5.90463 9.40362 4.64141 8.87095 3.39987C8.60213 2.77809 8.31826 2.15365 7.92798 1.53652C7.72721 1.22901 7.50839 0.913642 7.15236 0.623193C6.84203 0.323386 6.05819 0.105932 5.56231 0.416032C5.32925 0.558243 5.35623 0.570299 5.28016 0.634849C5.23085 0.682986 5.18023 0.735562 5.13643 0.782442C3.87323 2.21257 2.89794 3.75774 2.18303 5.50429C1.95717 6.07315 1.76992 6.66497 1.65004 7.28093C1.6487 7.28788 1.64736 7.29483 1.64602 7.30178C1.64176 7.32465 1.63739 7.34874 1.63378 7.38755C1.6418 7.44398 1.58682 7.43568 1.69193 7.71823C1.7217 7.78416 1.82182 7.93348 1.99583 8.00095C2.17549 8.06925 2.29921 8.03885 2.37215 8.02004C2.50791 7.97646 2.53799 7.94163 2.57021 7.92079C2.62834 7.87585 2.64555 7.85492 2.66557 7.83445C2.73225 7.76116 2.75545 7.72523 2.78576 7.68425C2.84176 7.60593 2.88644 7.53801 2.93073 7.47177Z" fill="black"/>
</svg>
