<svg width="10" height="10" viewBox="0 0 10 10" fill="none" xmlns="http://www.w3.org/2000/svg">
<path d="M2.25302 8.53984C2.36424 8.42863 2.42672 8.27779 2.42672 8.1205C2.42672 7.96322 2.36424 7.81238 2.25302 7.70117C2.14181 7.58995 1.99097 7.52747 1.83368 7.52747C1.6764 7.52747 1.52556 7.58995 1.41435 7.70117C1.39167 7.7241 1.37032 7.74423 1.37523 7.7396C1.38622 7.73473 1.36703 7.7308 1.49023 7.6718C1.52659 7.65831 1.57714 7.63303 1.69822 7.62878C1.8118 7.61586 2.05214 7.70161 2.14889 7.83397C2.3269 8.08816 2.26855 8.13968 2.28294 8.18378C2.28306 8.19206 2.28296 8.19924 2.28276 8.20556C2.26913 8.3224 2.28886 8.19748 2.30735 8.15548C2.32734 8.09573 2.351 8.03165 2.3755 7.96782C2.4257 7.83727 2.48096 7.70341 2.53854 7.56778C2.65216 7.30059 2.77516 7.02643 2.89834 6.7578C3.49539 5.46113 4.13861 4.17555 4.77319 2.8884C4.80263 2.82879 4.83432 2.76987 4.86775 2.71139C4.92336 2.61624 4.98562 2.52836 5.0452 2.46238C5.09788 2.39985 5.18606 2.34043 5.13277 2.41792C5.10967 2.44977 4.95128 2.58052 4.69199 2.55745C4.44444 2.52527 4.37232 2.43302 4.34658 2.42312C4.30359 2.39207 4.35568 2.47242 4.39558 2.5502C4.43962 2.63069 4.48857 2.72966 4.53792 2.83232C5.3601 4.5371 6.179 6.2186 7.05717 7.91685C7.15392 8.09815 7.23114 8.25023 7.37519 8.4788C7.3962 8.50871 7.41448 8.5427 7.40085 8.51124C7.39909 8.50567 7.38528 8.47778 7.36961 8.41654C7.36311 8.37461 7.34895 8.3812 7.34786 8.20508C7.34436 8.06343 7.4403 7.70444 7.77033 7.53544C8.07341 7.38518 8.27914 7.46202 8.3131 7.46469C8.36527 7.4774 8.39729 7.49011 8.4208 7.49994C8.46948 7.5214 8.47231 7.52562 8.48059 7.53036C8.49914 7.54731 8.39673 7.47795 8.33123 7.42864C8.18413 7.3196 8.02622 7.19627 7.8667 7.07318C7.54974 6.8282 7.22151 6.57771 6.88652 6.33396C6.20855 5.85027 5.54165 5.36253 4.67604 4.98125C4.66435 4.97637 4.65266 4.97155 4.64096 4.96679C3.40487 4.44942 1.93785 4.38585 0.680096 4.76965C0.653943 4.77741 0.604093 4.78835 0.646074 4.77973C0.633418 4.78184 0.626285 4.7826 0.629097 4.78221C0.631456 4.78207 0.630724 4.7815 0.65423 4.78064C0.692663 4.78631 0.664058 4.75899 0.866454 4.8166C0.95262 4.84464 1.21412 4.97424 1.27847 5.30222C1.30685 5.45259 1.27549 5.58223 1.24247 5.66261C1.20102 5.75566 1.20426 5.73942 1.18608 5.77058C1.12941 5.8548 1.09207 5.88319 1.06693 5.90563C1.01451 5.94769 1.01356 5.94418 1.00676 5.94923C0.995371 5.95595 1.00324 5.9514 1.0092 5.94867C1.04227 5.93258 1.10699 5.90514 1.16411 5.8823C1.28912 5.83224 1.41247 5.78662 1.54821 5.73764C1.80943 5.64376 2.07871 5.55269 2.34874 5.46406C2.88515 5.28833 3.43171 5.12023 3.97753 4.95927C5.0676 4.63992 6.17285 4.33429 7.25255 4.09273C7.36146 4.06874 7.46827 4.04388 7.56581 4.0223C7.71535 3.98861 7.83022 3.96904 7.88507 3.97008C7.90702 3.96857 7.93443 3.97834 7.90074 3.96734C7.8871 3.95426 7.72063 3.93644 7.61088 3.63688L7.6146 3.22276C7.67097 3.04851 7.66645 3.08934 7.65742 3.08444C7.64711 3.09085 7.6256 3.11166 7.60485 3.13367C6.18946 4.45054 4.31037 5.75162 2.62513 7.054C2.62508 7.05403 2.62503 7.05407 2.62498 7.05411L2.60936 7.0663C2.5909 7.08102 2.57268 7.09559 2.55468 7.11003C2.29479 7.31918 2.04532 7.54272 1.79981 7.8118C1.67598 7.94914 1.55378 8.09317 1.42616 8.28909C1.30884 8.46904 1.12187 8.81283 1.15559 9.19105C1.18537 9.35465 1.25966 9.51223 1.38171 9.6294C1.50362 9.74657 1.66113 9.8137 1.82464 9.81611C1.98814 9.81851 2.14756 9.75604 2.27287 9.64251C2.39831 9.52897 2.4772 9.37365 2.51178 9.211C2.51542 9.38616 2.67458 9.17295 2.91466 9.01577C3.14457 8.84661 3.39606 8.66053 3.64056 8.4641C3.65757 8.45046 3.67482 8.43665 3.69232 8.42267L3.67669 8.43485C3.67674 8.43482 3.6768 8.43478 3.67684 8.43474C5.4084 7.08446 7.06739 5.87274 8.77972 4.19347C8.81889 4.14902 8.86104 4.09577 8.90665 4.02819C8.95251 3.94927 9.00428 3.91178 9.08816 3.65014L9.13799 3.35095L9.09187 3.23601C8.93623 2.76793 8.60958 2.64611 8.44091 2.57305C8.2231 2.49182 8.05203 2.47609 7.87763 2.47493C7.60628 2.47755 7.40072 2.52855 7.2335 2.56625C7.12181 2.59255 7.0203 2.61787 6.91963 2.64187C5.76647 2.92149 4.66387 3.27473 3.56267 3.64046C3.01262 3.82442 2.46309 4.0143 1.91825 4.2092C1.6436 4.30757 1.36917 4.40739 1.09442 4.51166C0.950713 4.56635 0.820632 4.6166 0.671419 4.67833C0.600028 4.70829 0.527068 4.73852 0.43343 4.78463C0.416359 4.79311 0.374708 4.81431 0.339332 4.83574C0.320636 4.84802 0.302583 4.85477 0.23352 4.91054C0.201088 4.93909 0.158497 4.97296 0.0986797 5.06201C0.0795742 5.09469 0.0827704 5.07824 0.0399121 5.17443C0.00585693 5.25737 -0.0258376 5.38935 0.00293982 5.54182C0.0680829 5.87403 0.333268 6.00696 0.426082 6.03739C0.645109 6.09994 0.627209 6.07235 0.687368 6.07783C0.734608 6.07625 0.750409 6.0739 0.767189 6.07228C0.800912 6.06858 0.831105 6.064 0.862414 6.05868C0.972285 6.03741 0.983093 6.03031 1.02596 6.01933C2.07713 5.69915 3.15989 5.75617 4.15455 6.16335C4.16228 6.1665 4.17007 6.16971 4.17793 6.17299C4.78887 6.4367 5.41441 6.94189 5.99659 7.44967C6.29058 7.70742 6.58029 7.97649 6.87392 8.24796C7.02335 8.38552 7.16965 8.52133 7.33662 8.66568C7.42927 8.74202 7.48494 8.80179 7.67531 8.92241C7.70443 8.93905 7.72589 8.95379 7.80226 8.98703C7.83798 9.00194 7.88096 9.01836 7.9428 9.03335C7.98608 9.03869 8.21258 9.11729 8.52381 8.96157C8.86362 8.78719 8.96378 8.419 8.96092 8.26291C8.95982 8.06877 8.94326 8.06834 8.93419 8.01524C8.91423 7.93515 8.88494 7.86873 8.87608 7.84801C8.82146 7.72757 8.79211 7.68243 8.75273 7.61526C8.69927 7.51869 8.60533 7.32941 8.52497 7.16718C7.71376 5.501 6.9216 3.78011 6.10745 2.08051C6.05215 1.96504 5.99423 1.84576 5.92265 1.71454C5.84445 1.57955 5.77204 1.44347 5.55953 1.23521C5.44837 1.13871 5.27433 0.967637 4.903 0.918971C4.5197 0.878914 4.24321 1.06898 4.12593 1.17798C3.88438 1.41378 3.83986 1.56445 3.76636 1.71344C3.70293 1.85802 3.65522 1.98961 3.60577 2.11716C3.58193 2.18032 3.55665 2.24243 3.52943 2.30326C2.94216 3.61758 2.36305 4.9344 1.79077 6.26728C1.67245 6.54422 1.55256 6.82691 1.43722 7.10954C1.37859 7.25346 1.32134 7.39639 1.26488 7.54659C1.23715 7.62068 1.20948 7.69636 1.18109 7.78221C1.15381 7.88409 1.12295 7.90194 1.09731 8.16762C1.09696 8.17833 1.09682 8.18973 1.09701 8.20202C1.11188 8.26262 1.05474 8.33243 1.24332 8.59992C1.34538 8.73885 1.59431 8.82791 1.71626 8.8147C1.84576 8.81029 1.90459 8.78239 1.94858 8.76572C2.10281 8.69293 2.10973 8.6672 2.14632 8.64081C2.20221 8.59223 2.22807 8.56437 2.25302 8.53984Z" fill="black"/>
</svg>
