<svg width="9" height="10" viewBox="0 0 9 10" fill="none" xmlns="http://www.w3.org/2000/svg">
<path d="M2.87132 5.71433C2.93223 5.85503 3.04653 5.96577 3.18909 6.02219C3.33165 6.07861 3.49078 6.07609 3.63148 6.01518C3.77218 5.95427 3.88292 5.83996 3.93934 5.69741C3.99576 5.55485 3.99323 5.39572 3.93233 5.25502C3.92464 5.26264 3.89598 4.94958 3.91336 4.73529C3.92565 4.49977 3.9542 4.25573 3.99222 4.01201C4.09878 3.34467 4.26945 2.6688 4.51966 2.0692C4.5367 2.02886 4.55445 1.98861 4.57226 1.95C4.59207 1.87827 4.63176 1.97491 4.37025 2.03585C4.13164 2.03306 4.19503 1.98746 4.23235 2.04634C4.33081 2.14649 4.46385 2.34773 4.57525 2.54435C4.80381 2.94731 5.01086 3.40175 5.21552 3.85684C5.66363 4.78643 5.8943 5.66648 6.76582 6.72602C6.78166 6.74227 6.79187 6.75361 6.79187 6.75395C6.78851 6.74898 6.79201 6.75897 6.74949 6.69769C6.73731 6.67831 6.73182 6.67294 6.70369 6.61759C6.68358 6.5741 6.65371 6.51523 6.63374 6.39267C6.61579 6.27804 6.6108 6.04372 6.77391 5.816C6.94503 5.5767 7.20316 5.50453 7.32627 5.49391C7.45985 5.48122 7.52668 5.49765 7.5754 5.50696C7.63133 5.51984 7.64498 5.52582 7.66629 5.53305C7.81241 5.59653 7.68914 5.54004 7.66925 5.52343C6.80552 4.97764 5.90093 4.34536 4.73839 3.92467C4.49208 3.84172 4.23991 3.77801 3.98383 3.734C2.99463 3.54801 1.95069 3.75975 1.20259 3.89708C1.24247 3.8929 1.3032 3.87956 1.43739 3.9107C1.56455 3.93092 1.81562 4.09233 1.89526 4.29437C2.03011 4.68975 1.91625 4.73303 1.91747 4.78171C1.88346 4.85199 1.89509 4.81791 1.91524 4.8013C1.92746 4.78894 1.94863 4.77887 1.97353 4.7723C2.11709 4.70346 2.28319 4.67835 2.41039 4.59679C3.77782 3.70228 5.6886 3.56615 7.64741 3.0799L6.86159 1.51323C6.75643 1.59925 6.6606 1.68594 6.56968 1.77312C5.15925 3.22469 4.29953 4.76231 3.36617 6.32244C3.35623 6.33917 3.34213 6.3628 3.32785 6.38667C3.24125 6.53143 3.16832 6.69006 3.10424 6.86272C2.90986 7.37691 2.80233 8.05479 2.81908 8.6503C2.82206 8.73066 2.86199 8.8154 2.91924 8.88364C2.97712 8.952 3.0476 8.99827 3.12601 9.01451C3.20443 9.03076 3.28749 9.01628 3.36776 8.97652C3.4474 8.93664 3.5177 8.87472 3.55236 8.80217C3.77335 8.36214 4.17006 8.09726 4.52067 7.71802C4.63686 7.5923 4.74745 7.45423 4.84113 7.30024C4.85657 7.27487 4.87193 7.24954 4.88756 7.22364C5.78424 5.72924 6.7316 4.16883 7.81332 3.06914C7.8766 3.0084 7.93922 2.95224 7.99841 2.90385L7.21259 1.33718C5.46458 1.79979 3.36827 1.87712 1.44384 3.09189C1.26882 3.20446 1.14438 3.38573 1.00508 3.53897C0.946764 3.59776 0.888183 3.65774 0.825842 3.72052C0.718475 3.83363 0.612439 3.94346 0.505102 4.18138C0.472605 4.31215 0.328873 4.452 0.499933 4.93363C0.597915 5.17785 0.89015 5.36826 1.06153 5.39885C1.23994 5.44097 1.34712 5.42569 1.43241 5.41475C2.35052 5.24668 3.01943 5.1269 3.71874 5.25576C3.89528 5.2871 4.06745 5.33226 4.2371 5.39149C5.06557 5.69696 5.92291 6.28483 6.83655 6.87088C6.86725 6.88979 6.88861 6.90288 6.92761 6.92548C6.97197 6.94806 6.96358 6.95562 7.12861 7.02214C7.15628 7.03164 7.17408 7.03898 7.23646 7.05334C7.29037 7.06378 7.36147 7.08062 7.49835 7.06756C7.62476 7.05659 7.88525 6.98328 8.05773 6.74209C8.22215 6.51255 8.21758 6.27569 8.19914 6.1578C8.17869 6.03198 8.14741 5.9691 8.12497 5.92086C8.09343 5.85875 8.08608 5.85054 8.07026 5.82554C8.01151 5.74024 7.99793 5.7307 7.97695 5.70563C7.93202 5.65584 7.91814 5.64285 7.88672 5.61127C7.45512 5.12828 6.92234 4.08789 6.42841 3.23914C6.17348 2.7955 5.91672 2.34694 5.61369 1.89444C5.45633 1.66707 5.30626 1.43944 5.03945 1.18767C4.89502 1.08021 4.74021 0.859998 4.24241 0.878889C3.99929 0.902479 3.80015 1.05946 3.71522 1.16058C3.60736 1.2862 3.56827 1.36747 3.51937 1.47084C3.49737 1.51967 3.47557 1.56971 3.45468 1.61916C3.15165 2.34963 2.97167 3.08035 2.84996 3.83328C2.80714 4.10867 2.77402 4.38551 2.75872 4.67601C2.75804 4.98314 2.69905 5.21097 2.87132 5.71433Z" fill="black"/>
</svg>
