<svg width="31" height="39" viewBox="0 0 31 39" fill="none" xmlns="http://www.w3.org/2000/svg">
<path d="M20.0953 6.85613C20.0862 7.18441 19.9985 7.59683 19.9083 7.90804C19.8805 8.0035 19.8305 7.94516 19.8084 8.0116C19.7652 8.14176 19.7734 8.27083 19.7252 8.39632C19.7088 8.43848 19.6267 8.36892 19.6116 8.41349C19.5298 8.65519 19.5114 8.894 19.4451 9.14248C19.1985 10.0631 18.9578 10.9701 18.6875 11.8802C18.6654 11.9545 18.6431 12.0294 18.6206 12.1049C18.5509 12.3398 18.4723 12.5698 18.3824 12.7986C18.2202 13.2184 17.9187 13.6699 17.7245 14.0859C17.702 14.1348 17.7911 14.1511 17.7921 14.1637C17.8041 14.3606 17.6834 14.2228 17.6102 14.3001C17.32 14.6057 17.0496 14.9641 16.8262 15.2912C16.731 15.4303 16.9752 15.421 16.7895 15.4841C16.7767 15.4884 16.7315 15.391 16.6941 15.4189C16.6102 15.4818 16.4912 15.641 16.4312 15.6937C16.3138 15.7966 16.2983 15.814 16.1944 15.9181C16.0534 16.0578 15.8465 16.1836 15.7038 16.3414C15.673 16.3759 15.7873 16.4168 15.7441 16.4796C15.7013 16.5426 15.5482 16.6627 15.4824 16.6839C15.4168 16.7053 15.3854 16.6205 15.3646 16.6124C15.1903 16.5422 15.1578 16.8593 15.1373 16.8826C14.8289 17.2296 14.4456 17.383 14.0842 17.5788C14.0296 17.6085 13.9771 17.6382 13.9249 17.6699C13.8404 17.7213 13.7562 17.7751 13.6744 17.8282C13.6834 17.8237 13.6928 17.8216 13.731 17.7913C13.7604 17.7588 13.8573 17.7106 13.9109 17.4709C13.9601 17.1885 13.7839 16.9952 13.7493 16.9652C13.6887 16.909 13.6742 16.9053 13.6597 16.8947C13.6254 16.8737 13.6853 16.8941 13.7307 16.9018C13.8328 16.9229 13.96 16.9475 14.0802 16.9791C14.4785 17.086 14.8212 17.2331 15.2587 17.433C15.3057 17.4556 15.3144 17.3029 15.3742 17.3319C15.4274 17.3581 15.4814 17.3871 15.5359 17.4195C15.6378 17.4801 15.7434 17.5536 15.8463 17.6466C16.1972 17.9619 16.4844 18.3431 16.6722 18.7623C16.6966 18.8174 16.5484 18.8218 16.5656 18.8802C16.6824 19.2413 16.6741 19.8144 17.2725 19.7936C17.3484 20.0243 17.4284 20.3069 17.3834 20.5403C17.3541 20.6906 17.1784 20.6086 17.285 20.7462C17.3088 20.7775 17.4149 20.696 17.4416 20.7462C17.5544 20.9589 17.5802 21.2157 17.6972 21.4247C17.7214 21.4672 17.8294 21.4298 17.8524 21.4384C18.0413 21.5132 17.8127 21.7528 17.8007 21.7953C17.7167 22.1235 17.8132 22.3281 17.8565 22.6056C17.8663 22.6699 18.0071 22.5695 18.0221 22.6307C18.098 22.9488 18.1338 23.282 18.1083 23.6007C18.1022 23.6717 17.9608 23.6263 17.9511 23.6611C17.9096 23.814 18.1647 23.8126 18.1296 23.9581C18.1225 23.9886 18.0065 23.9875 17.9947 23.9945C17.8099 24.1036 18.0977 24.1389 18.1068 24.1592C18.208 24.3747 18.0381 24.5578 18.0259 24.7596C18.0236 24.7992 18.0273 24.8396 18.0403 24.8807C18.0501 24.9106 18.1837 24.8201 18.2023 24.9052C18.2232 24.9996 18.2427 25.0969 18.2603 25.1924C18.3577 25.725 18.3444 26.2901 18.2266 26.8059C18.2046 26.9024 18.1004 26.8284 18.0868 26.8342C17.8757 26.9219 18.1481 26.9984 18.1561 27.0315C18.2124 27.2891 17.9546 27.4844 18.2484 27.7062C18.2197 27.8087 18.1913 27.9115 18.1613 28.0157C18.0911 28.239 18.0623 28.4129 17.8924 28.7288C17.8601 28.7815 17.8361 28.8193 17.797 28.8746C17.7439 28.9359 17.7512 28.9763 17.5495 29.1182C17.4631 29.1603 17.3531 29.2486 17.0747 29.174C16.9438 29.1313 16.8455 29.0389 16.7948 28.9646C16.7434 28.8872 16.7402 28.8682 16.7239 28.8281C16.6764 28.6798 16.6874 28.6445 16.6833 28.5923C16.6827 28.4957 16.6903 28.4425 16.6972 28.3866C16.7278 28.1703 16.7733 27.9971 16.8264 27.8187C16.932 27.4729 17.0749 27.1414 17.2717 26.8358C17.2785 26.8248 17.3944 26.8833 17.4074 26.8611C17.5662 26.5917 17.3586 26.591 17.1922 26.3248C17.1508 26.2582 17.4767 26.1996 17.5007 26.1942C17.5907 26.1718 17.753 26.279 17.7726 26.268C17.9279 26.1766 17.3326 26.0014 17.3941 25.8251C17.397 25.82 17.4966 25.8796 17.5125 25.8684C17.562 25.834 17.5352 25.774 17.5879 25.7418C17.7097 25.6686 18.0033 25.7316 17.8951 25.5187C17.8811 25.4915 17.5424 25.405 17.6158 25.254C17.645 25.1937 17.7439 24.9156 17.7952 24.8464C17.8458 24.7777 17.929 24.87 17.9356 24.8662C18.1529 24.7125 18.1793 24.8123 18.4206 24.7906C18.6609 24.7696 18.1724 24.6062 18.1362 24.5428C18.1001 24.4791 18.2737 24.3747 18.3279 24.3541C18.3819 24.3338 18.4273 24.4064 18.4627 24.3833C18.6953 24.2318 18.2691 24.1888 18.2255 24.0848C18.1282 23.8516 18.4931 23.8569 18.6202 23.747C18.6269 23.7413 18.6329 23.7352 18.6382 23.7288C18.641 23.7254 18.6426 23.7223 18.6433 23.7194C18.6503 23.6912 18.5744 23.6836 18.5848 23.6468C18.6335 23.4847 18.7833 23.4585 18.787 23.2436C18.7866 23.2097 18.6781 22.9538 18.8737 22.965C18.9014 22.9673 18.9577 23.0526 19.0143 23.0076C19.0988 22.9401 19.224 22.8045 19.267 22.6985C19.2988 22.6198 19.1178 22.597 19.2204 22.5455C19.266 22.5232 19.2845 22.6464 19.3638 22.6005C19.4422 22.5549 19.5782 22.3882 19.6306 22.325C19.6824 22.2617 19.5641 22.216 19.5624 22.2058C19.5547 22.1449 19.6201 21.9879 19.6301 21.9777C20.106 21.4427 20.7217 21.1624 21.1571 20.6528C21.1912 20.613 21.0783 20.5452 21.0826 20.5382C21.174 20.3761 21.3069 20.7176 21.4759 20.7116C21.2831 20.5389 21.3693 20.5209 21.4383 20.4128C21.4714 20.3603 21.3775 20.3126 21.3743 20.3014C21.3299 20.1311 21.5113 20.2264 21.5515 20.2427C21.6988 20.3038 21.618 20.1359 21.7168 20.1755C21.8158 20.2138 21.856 20.3827 21.9391 20.2924C21.8948 20.2044 21.6582 20.1026 21.6911 20.0103C21.7721 19.7816 22.0306 19.56 22.2341 19.3604C22.2807 19.3151 22.325 19.271 22.3639 19.2299C22.4201 19.1673 22.4694 19.115 22.5061 19.0712C22.7004 18.8439 22.7581 18.7617 22.9013 18.6599C23.1666 18.4842 22.9611 18.435 23.0625 18.239C23.1723 18.0452 23.3653 18.4553 23.4457 18.5119C23.5239 18.5707 23.487 18.4765 23.5437 18.4991C23.5994 18.5225 23.5843 18.6133 23.6533 18.5869C23.7193 18.5607 23.7935 18.3128 23.7689 18.2143C23.712 18.0062 23.5134 17.8657 23.7441 17.8249C23.7572 17.8231 23.7774 17.9429 23.8241 17.9308C24.193 17.832 24.5493 17.7072 24.9139 17.6908C24.9634 17.6889 24.9537 17.8221 24.9828 17.8225C25.2821 17.8312 25.1311 17.65 25.2438 17.3848C25.2718 17.6997 25.3966 17.868 25.6097 17.8312C25.7398 17.8091 25.695 17.6786 25.7619 17.5692C25.7741 17.5493 25.8199 17.5689 25.8533 17.573C25.8768 17.5754 25.8949 17.5712 25.8966 17.5451C25.9016 17.3295 25.8042 17.1153 25.9786 17.1672C25.9855 17.1697 26.0007 17.2818 26.0229 17.2848C26.0233 17.2848 26.0237 17.2848 26.0241 17.2847C26.2165 17.2789 26.0445 17.0053 25.9673 17.2057C25.9935 17.3129 25.9492 16.9405 25.8182 16.7929C26.0748 16.5592 25.8709 16.4648 25.6518 16.5866C25.561 16.4868 25.4435 16.4001 25.364 16.2885C25.3371 16.2507 25.4241 16.1943 25.4267 16.1824C25.4687 15.9966 25.2719 16.1324 25.2437 16.1205C24.9404 15.9814 24.8413 15.6824 24.4917 15.622C24.4792 15.62 24.3199 15.7948 24.3603 15.6073C24.3633 15.5946 24.5108 15.574 24.4 15.4764C24.2904 15.3796 24.149 15.1094 23.9214 15.0678C23.8664 15.0578 23.6503 15.1285 23.6634 14.9489C23.6655 14.9248 23.7187 14.8816 23.7268 14.8404C23.7522 14.7086 23.5779 14.8711 23.6464 14.669C23.7143 14.4662 23.693 14.2579 23.4473 14.2323C23.4399 14.2313 23.283 14.3425 23.2358 14.2985C23.1589 14.227 23.0749 14.1032 22.9927 14.0313C22.9536 13.9972 22.9017 14.1049 22.8936 14.1004C22.5905 13.9117 22.4751 13.663 22.2654 13.3497C22.2293 13.2954 21.9784 13.2271 22.0069 13.0408C22.0287 12.9196 22.2504 12.8164 22.3565 12.7146C22.3532 12.7088 22.343 12.6916 22.3392 12.6861C22.3971 12.6123 22.4075 12.5379 22.2957 12.4613C22.2792 12.4499 22.2516 12.445 22.2168 12.4437C22.0053 12.438 21.5208 12.559 21.6771 12.2184C21.3566 11.8647 21.3184 11.404 21.0225 11.0302C21.0093 11.0136 20.8062 11.0253 20.7897 10.977C20.766 10.9059 20.8348 10.8352 20.8217 10.7841C20.7689 10.5681 20.6333 10.4009 20.5843 10.1909C20.5658 10.1113 20.6616 10.1142 20.6407 10.0201C20.6213 9.93117 20.4991 9.89765 20.5109 9.77032C20.5117 9.76248 20.5131 9.75691 20.5149 9.75117C20.5278 9.7104 20.5724 9.66503 20.6226 9.6193C20.6979 9.5491 20.785 9.47658 20.7946 9.40052C20.5574 9.41411 20.5536 9.32549 20.4844 9.16941C20.4712 9.13945 20.3915 9.1758 20.3812 9.16171C20.3376 9.10353 20.403 9.04605 20.3576 8.99022C20.3467 8.97657 20.2688 8.97731 20.2557 8.9662C20.1424 8.86968 20.3221 8.70743 20.3515 8.68214C20.4661 8.58047 20.3721 8.52941 20.42 8.45162C20.4668 8.37474 20.5129 8.49536 20.5428 8.40521C20.6033 8.22001 20.6104 7.97923 20.6403 7.79054C20.6516 7.71528 20.5636 7.75321 20.5633 7.74214C20.5713 7.5801 20.6804 7.44133 20.5618 7.32033C20.9495 7.30444 20.5484 7.21699 20.6924 7.01567C20.7041 6.99994 20.8593 7.02761 20.8652 7.09941C20.8721 7.17089 20.798 7.25565 20.8185 7.35685C20.8212 7.38122 20.9686 7.54217 20.9796 7.56022C21.0518 7.70559 20.7687 7.67032 20.7509 7.67482C20.5674 7.72464 20.7458 7.91335 20.761 7.95382C20.8154 8.14546 20.7673 8.29647 20.8206 8.45274C20.8558 8.55467 21.0904 8.57285 21.0896 8.64736C21.0909 8.89314 20.7442 8.99824 21.0743 9.22406C21.1454 9.27111 21.4199 9.20248 21.2215 9.3963C21.212 9.40519 21.1007 9.49575 21.1099 9.56898C21.1127 9.59146 21.1273 9.61147 21.1603 9.62676C21.1778 9.63473 21.2604 9.62508 21.2691 9.63691C21.2782 9.64984 21.2844 9.6622 21.2885 9.67425L21.2727 9.58653C21.3015 9.64788 21.2743 9.70895 21.3218 9.7781C21.3785 9.86008 21.457 9.95312 21.4627 10.0616C21.466 10.1266 21.3433 10.2538 21.3171 10.2958C21.241 10.4161 21.4461 10.4439 21.3387 10.541C21.2318 10.6418 20.9979 10.6079 20.9706 10.7823C21.1789 10.7082 21.395 10.6379 21.6054 10.5651C21.7135 10.8536 21.7796 11.16 21.9411 11.4342C21.9613 11.4679 22.0478 11.3758 22.072 11.4098C22.1739 11.5532 22.1787 11.7295 22.3075 11.871C22.4007 11.9725 22.5769 12.0358 22.6924 12.1333C22.7009 12.1406 22.7091 12.1479 22.7169 12.1555C22.6316 12.2702 22.6463 12.3653 22.6913 12.4521C22.699 12.4632 22.7197 12.498 22.7264 12.5098C22.7396 12.5543 22.7896 12.6032 22.8145 12.6553C22.834 12.695 22.7771 12.7348 22.7806 12.7759C22.796 12.9283 22.9373 12.7362 22.9872 12.7393C23.2029 12.7496 22.8249 13.1115 22.9811 13.2519C22.9895 13.2602 23.2833 13.1555 23.3072 13.1535C23.4698 13.1499 23.2533 13.2368 23.2932 13.3022C23.368 13.4226 23.3946 13.5365 23.5731 13.5815C23.6249 13.594 23.828 13.5356 23.8108 13.6978C23.8087 13.7192 23.7434 13.7863 23.7475 13.7968C23.8286 13.9822 24.0209 13.7593 24.1635 13.746C24.3065 13.7329 24.3047 13.9902 24.2941 14.0567C24.267 14.2287 24.2016 14.0665 24.1888 14.0753C24.0348 14.1794 24.1463 14.229 24.2086 14.297C24.0385 14.5318 24.1499 14.5976 24.2739 14.3666C24.2873 14.3413 24.2147 14.3187 24.2086 14.297C24.4485 14.1243 24.58 14.1795 24.5385 14.4844C24.5189 14.6272 24.3745 14.7 24.5825 14.7937C24.6773 14.8366 24.7701 14.6545 24.8745 14.6657C25.112 14.6905 25.2097 15.0028 25.3946 15.1105C25.4628 15.1504 25.4718 15.0165 25.5211 15.041C25.6521 15.1057 25.6977 15.2483 25.8371 15.3066C25.8498 15.3117 25.8992 15.2018 25.9349 15.2289C26.2124 15.4396 26.3953 15.6867 26.6829 15.9866C26.8141 16.137 27.1475 16.3552 27.2897 16.8435C27.3705 17.0587 27.3367 17.6365 27.0326 17.9248C26.7474 18.2112 26.5303 18.2378 26.3516 18.2841C26.1751 18.3199 26.084 18.3199 25.9957 18.3412C25.973 18.3463 25.9519 18.3523 25.9312 18.3596C25.7672 18.4171 25.8284 18.5271 25.7732 18.6203C25.6734 18.799 25.4166 18.5651 25.3765 18.5297C25.3754 18.5282 25.4925 18.4733 25.4141 18.4276C25.3484 18.3107 25.3775 18.5289 25.3765 18.5297C25.3518 18.505 25.1054 18.54 25.0667 18.5773C25.0452 18.5969 25.0909 18.7024 25.0796 18.7104C24.8093 18.9002 24.5722 19.0383 24.3083 19.1406C24.3029 19.1413 24.2417 19.027 24.2294 19.0301C24.0541 19.0739 24.0574 19.2718 24.0233 19.4259C23.9888 19.5812 23.9061 19.6225 23.6874 19.5299C23.6388 19.6239 23.4707 19.6757 23.3678 19.7169C23.2658 19.7564 23.4696 19.9109 23.4698 19.9194C23.4699 19.9317 23.4697 19.9435 23.4692 19.9549C23.4485 20.0436 23.4169 20.1173 23.3791 20.1802C23.2581 20.3796 23.0761 20.478 22.8879 20.6687C22.7645 20.7947 22.5589 21.0651 22.4505 21.2111C22.3653 21.3277 22.2631 21.3442 22.197 21.4604C22.1881 21.476 22.2792 21.5449 22.2784 21.5517C22.2684 21.7477 22.127 21.5016 22.0717 21.4864C21.8709 21.4303 21.7589 21.4054 21.6875 21.5873C21.671 21.6293 21.8554 21.9982 21.8173 22.0649C21.7673 22.1511 21.6967 22.0234 21.6475 22.1158C21.6433 22.1236 21.7043 22.1861 21.6571 22.2246C21.4394 22.4037 21.1874 22.5709 20.9994 22.771C20.9736 22.798 21.1054 22.8609 21.0701 22.9012C20.9045 23.09 20.722 23.2775 20.5263 23.41C20.4778 23.4425 20.4264 23.3546 20.3966 23.3458C20.2137 23.2956 20.3422 23.5362 20.3364 23.5516C20.2062 23.8841 19.9427 24.0213 19.8189 24.306C19.8152 24.3146 19.8115 24.3235 19.808 24.3326C19.7902 24.3783 19.773 24.4337 19.7627 24.4886C19.758 24.5127 19.9274 24.7896 19.6839 24.7778C19.6674 24.7776 19.4184 24.7627 19.5377 24.8964C19.5453 24.9047 19.6772 24.9013 19.6307 24.9838C19.5847 25.065 19.6053 25.2365 19.4356 25.3099C19.382 25.3337 19.127 25.3413 19.2608 25.5264C19.2693 25.5401 19.6078 25.8672 19.3086 25.8318C19.2594 25.8257 18.9688 25.7078 19.0716 25.9047C19.0918 25.9423 19.1741 25.9165 19.1915 26.0027C19.2188 26.1346 19.0919 26.2528 19.1831 26.4336C19.1991 26.4654 19.3726 26.6336 19.1936 26.6628C19.1655 26.6673 19.0721 26.61 19.048 26.649C18.9324 26.835 18.9394 27.0693 18.8116 27.2549C18.7665 27.3203 18.6103 27.2323 18.5445 27.2953C18.478 27.3605 18.393 27.5016 18.4492 27.6045C18.5061 27.7057 18.7974 27.6946 18.7899 27.819C18.7767 28.0627 18.7145 28.2953 18.6562 28.4823C18.6268 28.5517 18.6037 28.7273 18.5952 28.5428C18.5895 28.4955 18.5969 28.4897 18.56 28.3198C18.5401 28.2418 18.5105 28.1373 18.4318 27.9935C18.3565 27.8264 17.9957 27.3991 17.4999 27.3224C16.6521 27.2312 16.4563 27.607 16.4119 27.6038C16.3351 27.6706 16.2973 27.7185 16.2816 27.7391C16.2277 27.8159 16.2573 27.7915 16.2752 27.7662C16.2327 27.8463 16.2425 27.8415 16.2433 27.8393C16.2519 27.8216 16.1482 27.8096 16.1586 27.7629C16.1679 27.7219 16.178 27.6561 16.187 27.5792C16.2272 27.2718 16.2215 26.8239 16.3951 26.5711C16.5707 26.3084 16.7157 26.6433 16.7848 26.4349C16.8176 26.3311 16.4649 26.2362 16.4522 26.2147C16.3257 25.9957 16.4608 25.8253 16.3832 25.626C16.3671 25.5859 16.2334 25.6468 16.2211 25.613C16.2109 25.5858 16.2053 25.5574 16.2022 25.5282C16.1877 25.4068 16.2024 25.2788 16.1768 25.1686C16.1615 25.1035 16.0561 25.1315 16.0555 25.0694C16.0553 25.0615 16.0553 25.0536 16.0553 25.046C16.056 24.9081 16.0848 24.7803 16.1625 24.6366C16.17 24.6227 16.3147 24.6893 16.3057 24.5838C16.2908 24.4134 16.3632 24.1922 16.237 24.0149C16.1991 23.9626 15.9546 23.9932 16.1081 23.8495C16.1402 23.8195 16.4372 23.8115 16.1664 23.706C16.1211 23.6875 15.7517 23.5022 15.9563 23.358C16.0101 23.32 16.2381 23.2085 16.1917 23.148C16.1845 23.1399 16.0593 23.1951 16.0393 23.1426C15.9712 22.9576 15.9569 22.7574 15.887 22.5736C15.8681 22.5247 15.747 22.6237 15.7233 22.5506C15.658 22.35 15.6486 22.0927 15.6505 21.8902C15.6515 21.8156 15.7687 21.8399 15.7794 21.8321C15.9521 21.7035 15.685 21.7143 15.6645 21.6912C15.539 21.5443 15.6274 21.3864 15.556 21.2442C15.5367 21.2053 15.4259 21.2705 15.4131 21.2655C15.2875 21.2136 15.517 21.2107 15.5256 21.1497C15.5498 20.9786 15.4881 20.8164 15.4223 20.6787C15.398 20.6285 15.287 20.7392 15.2672 20.6945C15.1469 20.4315 15.0451 20.1702 14.9793 19.9045C14.967 19.8542 15.0725 19.8235 15.0879 19.8014C15.193 19.6446 14.941 19.6835 14.9113 19.6787C14.7705 19.6495 14.822 19.5609 14.7515 19.4973C14.6439 19.4023 14.5381 19.3003 14.4277 19.1973C14.4424 19.2096 14.4418 19.2047 14.428 19.1929C14.354 19.1234 14.0455 18.9762 13.7632 18.8783C13.6173 18.826 13.4705 18.7759 13.286 18.7088C13.1871 18.6708 13.105 18.6474 12.8928 18.5463C12.8369 18.5177 12.7666 18.4834 12.6575 18.4058C12.6086 18.3705 12.5186 18.3009 12.4328 18.2033C12.3466 18.1065 12.1967 17.9046 12.1406 17.6146C12.0268 16.9006 12.4361 16.5583 12.5166 16.4735C12.6699 16.3381 12.7181 16.3216 12.7962 16.2762C12.9303 16.2195 13.0606 16.1617 13.1909 16.0982C13.383 16.0047 13.572 15.9003 13.7618 15.7734C13.7971 15.7499 13.6879 15.6651 13.7172 15.6437C14.1023 15.3713 14.5135 15.1471 14.8522 14.8283C14.88 14.8024 14.7597 14.752 14.8015 14.7081C14.8862 14.6181 15.0098 14.5232 15.1287 14.4652C15.1868 14.4364 15.1941 14.5588 15.2513 14.5277C15.3837 14.4559 15.502 14.3519 15.5924 14.2339C15.6303 14.1839 15.4801 14.1785 15.5356 14.12C15.9116 13.7165 16.2232 13.293 16.61 12.8672C16.6365 12.838 16.8394 12.8994 16.8414 12.8074C16.7922 12.7774 16.7309 12.749 16.6765 12.7205C16.8313 12.3859 16.9721 12.0468 17.0819 11.694C17.1039 11.6219 17.1256 11.5502 17.1469 11.4788C17.2641 11.0856 17.3777 10.6912 17.474 10.2884C17.4829 10.2509 17.3641 10.2921 17.3807 10.2197C17.4763 9.80183 17.5312 9.39334 17.718 8.98167C17.7364 8.94092 17.9171 8.99728 17.9127 8.8669C17.9119 8.84317 17.9223 8.64834 17.8908 8.59212C17.8859 8.58431 17.7933 8.60375 17.8019 8.5415C17.8524 8.18337 17.9332 7.8144 18.0386 7.46679C18.0556 7.41175 18.1392 7.48557 18.1521 7.44598C18.2442 7.15945 18.2154 6.83509 18.3308 6.56843C18.4078 6.39041 18.561 6.47491 18.7291 6.39378C18.7532 6.37924 18.7671 6.2671 18.8596 6.26857C19.0928 6.27133 19.3416 6.35177 19.5906 6.34927C19.6323 6.34352 19.6158 6.25947 19.6617 6.20459C19.6618 6.20459 19.6618 6.20459 19.6618 6.20459C19.6757 6.2038 19.694 6.25424 19.7216 6.2759C19.7296 6.29304 19.7613 6.42374 19.8021 6.45486C19.8302 6.47919 19.9276 6.44885 19.9619 6.49746C19.9962 6.54382 19.9128 6.58529 19.9507 6.65818C19.9884 6.73725 20.099 6.7127 20.0953 6.85613ZM22.8472 19.9912C22.6808 20.0076 23.0215 20.2982 23.0164 20.1293C23.0157 20.1207 22.8556 19.9901 22.8472 19.9912ZM21.5164 11.289C21.4187 11.486 21.6906 11.4485 21.7685 11.3056C21.8479 11.1654 21.5467 11.2304 21.5164 11.289ZM20.8997 10.0544C20.8151 10.2448 21.3504 10.1044 21.1959 9.98282C21.1872 9.97582 20.9047 10.0435 20.8997 10.0544ZM18.7219 6.86206C18.7265 6.86027 18.7407 6.77961 18.7367 6.77583C18.6383 6.71925 18.6098 6.88387 18.7219 6.86206ZM20.6079 8.72332C20.5396 8.77257 20.6218 8.91581 20.7064 8.85368C20.7728 8.80523 20.6908 8.66354 20.6079 8.72332ZM18.831 23.8199C18.8279 23.8192 18.8194 23.8297 18.8146 23.8429C18.8091 23.8579 18.8085 23.8764 18.8264 23.8844C18.871 23.9043 18.8983 23.9008 18.9072 23.8885C18.92 23.8709 18.8955 23.8347 18.831 23.8199ZM21.0548 6.40674C20.9076 6.71926 20.5864 6.83966 20.7893 6.48542C20.8253 6.42239 20.7867 6.65517 20.8458 6.58067C20.946 6.44572 20.8833 6.28704 21.0334 6.17363C21.0566 6.15317 21.0603 6.38876 21.0547 6.40743C21.0547 6.4072 21.0548 6.40697 21.0548 6.40674ZM22.3818 19.7151C22.376 19.7132 22.319 19.7766 22.3221 19.7818C22.4039 19.9075 22.5216 19.7765 22.3818 19.7151ZM17.3248 27.0918C17.3113 27.0912 17.2427 27.282 17.2529 27.2905C17.4549 27.4548 17.5894 27.0777 17.3248 27.0918ZM25.8226 16.7842C25.6677 16.818 25.5835 16.757 25.652 16.587C25.707 16.6516 25.7723 16.7183 25.8226 16.7842Z" fill="black"/>
<path d="M27.3678 28.1238C27.3405 28.2154 27.2058 28.345 27.0866 28.43C27.0484 28.458 27.0043 28.3995 26.9758 28.4165C26.9201 28.4499 26.9163 28.5157 26.856 28.5468C26.8356 28.5571 26.759 28.4743 26.7396 28.4866C26.6352 28.5529 26.5966 28.6588 26.5103 28.7426C26.0857 29.1543 25.7148 29.6004 25.2978 30.0383C25.16 30.1835 24.9286 30.304 24.8243 30.4874C24.8121 30.509 24.8939 30.5623 24.8968 30.571C24.9393 30.7066 24.8098 30.5588 24.759 30.5765C24.5946 30.6343 24.4656 30.7405 24.3673 30.8616C24.3453 30.8887 24.3247 30.9173 24.3061 30.9463C24.2633 31.0137 24.4524 31.0948 24.3221 31.0746C24.3132 31.0733 24.255 30.9852 24.2326 30.9926C24.2226 30.9959 24.2127 31.0016 24.2029 31.0087C24.1633 31.0374 24.129 31.0891 24.1059 31.1042C24.0502 31.1398 24.0438 31.1482 24.0047 31.1905C23.9516 31.247 23.8572 31.2775 23.8373 31.3478C23.8339 31.3626 23.9298 31.4197 23.9337 31.4484C23.9371 31.4775 23.9094 31.508 23.8824 31.5032C23.8547 31.4992 23.7812 31.4472 23.7628 31.4383C23.6014 31.3718 23.7952 31.5264 23.8048 31.5223C23.8137 31.5317 23.8211 31.5373 23.8265 31.54C23.8464 31.5494 23.8388 31.525 23.8196 31.5226C23.8096 31.6154 23.7911 31.7082 23.8081 31.8011C23.8348 31.9454 23.9136 32.0883 23.9433 32.2247C23.9782 32.387 23.9612 32.5434 24.025 32.6978C24.0317 32.7141 24.1525 32.6511 24.1608 32.6706C24.2486 32.8775 24.3174 33.0921 24.3249 33.3434C24.3256 33.3687 24.2048 33.3869 24.1991 33.415C24.1657 33.586 24.0483 33.8969 24.5543 33.7668C24.5768 33.8663 24.6085 33.987 24.5514 34.1131C24.5146 34.1942 24.3737 34.1948 24.4534 34.2382C24.4712 34.2481 24.5655 34.1826 24.5845 34.201C24.6645 34.2788 24.6771 34.3978 24.772 34.4703C24.7915 34.485 24.882 34.4396 24.9011 34.438C25.0569 34.4268 24.8663 34.6014 24.8569 34.625C24.7898 34.8064 24.8762 34.8818 24.921 35.008C24.9313 35.0373 25.045 34.9547 25.0596 34.9815C25.1333 35.1214 25.1773 35.2834 25.1661 35.4514C25.1632 35.4888 25.0433 35.4921 25.0362 35.5115C25.0057 35.5955 25.2197 35.5498 25.1937 35.6314C25.1884 35.6484 25.0908 35.6667 25.081 35.6722C24.9276 35.7572 25.17 35.7292 25.1781 35.739C25.2837 35.8572 25.0574 36 25.117 36.1202C25.1244 36.135 25.2406 36.0759 25.254 36.1197C25.2633 36.1504 25.2716 36.181 25.279 36.2123C25.3158 36.3695 25.3264 36.5352 25.3095 36.7004C25.3021 36.7425 25.2956 36.778 25.2814 36.7789C25.2645 36.77 25.2933 36.7865 25.1839 36.6589C25.1478 36.6074 24.9431 36.5053 24.8067 36.5529C24.7033 36.5815 24.6655 36.6277 24.6531 36.6432C24.6294 36.6884 24.7226 36.7268 24.7262 36.7394C24.8624 36.8563 24.6888 36.6874 24.6808 36.682C24.6579 36.5983 24.8809 36.5932 24.6491 36.417C24.9101 36.0699 24.9269 35.5771 25.3216 35.2383C25.3263 35.2338 25.4275 35.283 25.4364 35.274C25.5451 35.1662 25.3728 35.1296 25.2097 34.9672C25.1691 34.926 25.4339 34.9513 25.4534 34.9525C25.526 34.9563 25.671 35.0384 25.6862 35.0362C25.8062 35.0164 25.295 34.826 25.3286 34.7446C25.3305 34.7425 25.4191 34.7903 25.4311 34.7872C25.4687 34.7779 25.4404 34.7425 25.4807 34.7352C25.5743 34.7177 25.8243 34.8016 25.7123 34.6733C25.6978 34.6567 25.4086 34.5517 25.4545 34.4835C25.4721 34.4577 25.527 34.3243 25.5621 34.2976C25.5973 34.2696 25.6743 34.3365 25.6794 34.3357C25.8438 34.2938 25.8745 34.3545 26.0686 34.3957C26.2616 34.438 25.8492 34.2421 25.8145 34.1985C25.7797 34.1549 25.9129 34.1351 25.9551 34.1371C25.997 34.1393 26.0388 34.1911 26.0653 34.1875C26.2373 34.1692 25.8987 34.0263 25.8607 33.9515C25.8147 33.8583 25.8946 33.8338 25.9842 33.8423C25.9898 33.8428 25.9954 33.8434 26.001 33.844C26.0786 33.853 26.1582 33.8802 26.1968 33.8664C26.221 33.8577 26.1561 33.8116 26.1693 33.7915C26.2259 33.7119 26.3238 33.774 26.3609 33.6441C26.3648 33.6236 26.3549 33.4018 26.4633 33.5185C26.478 33.5357 26.4931 33.6206 26.5316 33.6251C26.59 33.6314 26.6787 33.6198 26.7202 33.5779C26.7518 33.5465 26.6679 33.4266 26.7295 33.4533C26.756 33.4657 26.7399 33.5549 26.7868 33.5722C26.8334 33.5891 26.9304 33.5612 26.9675 33.5504C27.0041 33.5393 26.9613 33.4408 26.9627 33.4332C26.9725 33.3891 27.0376 33.3238 27.0441 33.3227C27.378 33.245 27.6941 33.3917 27.9961 33.2991C28.0198 33.292 27.9918 33.1824 27.9953 33.1802C28.0733 33.1246 28.0393 33.4277 28.1077 33.5207C28.0754 33.2955 28.1139 33.3328 28.1694 33.3018C28.1962 33.2867 28.1716 33.2007 28.1732 33.1915C28.2007 33.0539 28.2476 33.2227 28.2589 33.257C28.3002 33.3834 28.3137 33.2273 28.3417 33.3117C28.3698 33.3955 28.3406 33.5274 28.3963 33.5197C28.4029 33.4369 28.3384 33.2298 28.3767 33.1908C28.5206 33.0438 28.8308 33.1729 28.959 33.1699C29.017 33.169 29.0565 33.1636 29.0893 33.1598C29.1283 33.1552 29.1585 33.1528 29.2003 33.1613C29.2064 33.1626 29.2121 33.1635 29.2174 33.1641C29.3226 33.1761 29.2539 33.0391 29.2737 32.9603C29.2796 32.8801 29.4222 33.2421 29.4644 33.3152C29.5114 33.3858 29.486 33.3022 29.5204 33.3359C29.558 33.3676 29.5488 33.4383 29.5993 33.4294C29.6604 33.418 29.6587 33.2145 29.5862 33.1572C29.449 33.0315 29.2862 32.9224 29.3395 32.9673C29.3435 32.9682 29.4345 33.0157 29.4461 33.0152C29.5478 32.9991 29.5377 32.8243 29.539 32.6649C29.5399 32.642 29.652 32.6141 29.6533 32.5996C29.6608 32.441 29.5064 32.5679 29.288 32.6106C29.5461 32.4908 29.6798 32.3684 29.6253 32.2745C29.5926 32.2189 29.4927 32.2938 29.3974 32.3071C29.3684 32.3108 29.4167 32.2289 29.3636 32.2548C29.1907 32.3401 29.0361 32.4919 29.051 32.3636C29.0518 32.3577 29.1456 32.3095 29.142 32.2932C29.1183 32.1881 28.9509 32.2975 28.8681 32.2282C28.8053 32.1765 28.8076 31.9841 28.7602 31.8964C29.0078 31.6937 28.8911 31.6682 28.699 31.7828C28.665 31.7288 28.6105 31.6848 28.5935 31.619C28.5874 31.5963 28.6662 31.5457 28.672 31.5371C28.7629 31.4026 28.583 31.5232 28.5677 31.5185C28.4082 31.4617 28.4465 31.2618 28.2326 31.2638C28.2249 31.2639 28.0558 31.4084 28.1493 31.2704C28.1558 31.261 28.2622 31.2272 28.2224 31.1725C28.1828 31.118 28.183 30.9432 28.0437 30.9451C28.0101 30.9454 27.8393 31.027 27.9106 30.897C27.9204 30.8794 27.9714 30.8407 27.9912 30.8099C28.0539 30.7116 27.8795 30.854 27.9954 30.6987C28.1112 30.5432 28.1675 30.3944 28.0062 30.4153C28.0014 30.4157 27.8563 30.5214 27.8379 30.4977C27.8086 30.4598 27.7896 30.3855 27.7544 30.3497C27.7376 30.3327 27.6674 30.4196 27.6631 30.4179C27.5085 30.3437 27.5024 30.1929 27.417 30.037C27.4016 30.0083 27.2298 30.0441 27.2763 29.9176C27.3284 29.7804 27.7769 29.4674 27.5819 29.4432C27.5035 29.4327 26.9341 29.8291 27.1307 29.5093C26.9943 29.4405 26.9528 29.2901 26.8823 29.1785C26.8802 29.1756 26.8734 29.1678 26.871 29.1653C26.8411 29.1311 26.8068 29.101 26.7649 29.0791C26.7407 29.0665 26.7139 29.0566 26.6841 29.0501C26.6728 29.0475 26.5218 29.1707 26.5069 29.1542C26.4847 29.1291 26.5298 29.049 26.5153 29.0286C26.4561 28.9416 26.3347 28.9409 26.2677 28.8673C26.2423 28.8394 26.3138 28.7771 26.2843 28.744C26.2552 28.7112 26.1493 28.7834 26.1456 28.6978C26.1429 28.6325 26.2899 28.4196 26.2768 28.3622C26.0937 28.535 26.0698 28.5039 25.9719 28.492C25.9528 28.4896 25.8957 28.5581 25.8831 28.5597C25.8573 28.5632 25.8529 28.5488 25.8493 28.5345C25.8453 28.5192 25.8423 28.504 25.8133 28.5079C25.7997 28.5097 25.7307 28.5616 25.7155 28.5655C25.6948 28.571 25.6798 28.5709 25.6693 28.5667C25.6108 28.5424 25.6962 28.409 25.7159 28.3859C25.8005 28.2766 25.6921 28.3098 25.7203 28.2508C25.7509 28.1957 25.8303 28.2195 25.8421 28.1702C25.8681 28.0723 25.8327 27.9864 25.8286 27.9051C25.8265 27.8736 25.7157 27.9042 25.7127 27.9C25.6782 27.8247 25.7994 27.76 25.5803 27.7028C26.158 27.6975 25.5266 27.6528 25.6583 27.5523C25.6691 27.5448 25.9346 27.58 25.9702 27.6135C26.0061 27.6457 25.918 27.6775 25.978 27.7199C25.9914 27.7325 26.2469 27.7874 26.2633 27.7893C26.3873 27.8222 25.9777 27.8384 25.9551 27.8439C25.7127 27.8901 25.9983 27.9319 26.0199 27.9346C26.1181 27.9757 26.0768 28.0309 26.1538 28.0467C26.204 28.0562 26.4483 27.9304 26.4459 27.9427C26.4435 27.9618 26.3869 28.0191 26.3521 28.0705C26.3286 28.1047 26.3144 28.1355 26.3298 28.1461C26.3445 28.1562 26.386 28.1479 26.4689 28.1038C26.5341 28.0706 26.7404 27.8528 26.6087 28.0581C26.5991 28.0699 26.4832 28.2599 26.6006 28.1848C26.6152 28.1751 26.6749 28.112 26.6834 28.1102C26.7393 28.0993 26.7092 28.1664 26.7606 28.1695C26.8118 28.1725 26.8808 28.1695 26.8997 28.226C26.911 28.2599 26.8379 28.4094 26.8243 28.4496C26.784 28.5645 26.9409 28.4563 26.8735 28.5788C26.8054 28.7014 26.6283 28.823 26.6256 28.938C26.7735 28.7718 26.9281 28.6038 27.0786 28.4383C27.1262 28.4849 27.1692 28.5406 27.2122 28.5992C27.2436 28.6421 27.2747 28.6867 27.3076 28.7312C27.3229 28.7466 27.3647 28.7953 27.3776 28.8128C27.3944 28.8518 27.4173 28.8915 27.4499 28.9274C27.4613 28.9395 27.5443 28.8521 27.5589 28.863C27.6199 28.9092 27.6003 29.0189 27.6804 29.0608C27.7447 29.095 27.8853 29.0641 27.9561 29.0959C27.7952 29.2974 27.9283 29.3168 27.9645 29.391C27.9766 29.4161 27.9253 29.4605 27.922 29.4897C27.911 29.5988 28.0532 29.4219 28.0927 29.4128C28.262 29.3741 27.8941 29.7243 27.9735 29.7914C27.9776 29.7951 28.2213 29.6596 28.24 29.6548C28.3605 29.6228 28.1779 29.7264 28.1882 29.7667C28.207 29.8403 28.192 29.9188 28.3043 29.9226C28.3371 29.9232 28.4978 29.8478 28.4337 29.9701C28.4253 29.9861 28.3579 30.045 28.3574 30.0521C28.3532 30.175 28.5594 29.9841 28.6626 29.9548C28.7658 29.9256 28.6772 30.1147 28.6472 30.1644C28.5698 30.2933 28.5806 30.1838 28.5688 30.192C28.4279 30.2887 28.4874 30.3096 28.5063 30.3506C28.3096 30.5437 28.3625 30.5759 28.5267 30.3923C28.5445 30.3722 28.503 30.3655 28.5063 30.3506C28.7291 30.1929 28.7999 30.2178 28.665 30.4436C28.6018 30.5494 28.4788 30.6198 28.5863 30.6614C28.6351 30.6803 28.7618 30.5379 28.8281 30.5335C28.9795 30.5232 28.9344 30.7358 29.0211 30.7901C29.053 30.8103 29.1062 30.7143 29.1307 30.7258C29.1961 30.7562 29.1768 30.8514 29.2505 30.8743C29.2574 30.8764 29.3287 30.7931 29.3437 30.8079C29.4588 30.919 29.4972 31.0696 29.6035 31.2008C29.6555 31.2646 29.7953 31.3427 29.8399 31.4206C29.9181 31.5542 29.9027 31.8033 30.0077 31.8958C30.0788 31.9611 30.1595 31.8864 30.2446 31.8832C30.4091 31.8753 30.2638 32.1459 30.234 32.1773C30.2332 32.178 30.1704 32.114 30.1425 32.1805C30.0516 32.2573 30.233 32.1763 30.234 32.1773C30.2177 32.1984 30.2743 32.3779 30.3069 32.4109C30.3257 32.4282 30.4173 32.3796 30.4255 32.3899C30.5188 32.5134 30.6024 32.6675 30.6229 32.9237C30.6489 33.1616 30.5479 33.5518 30.3052 33.7842C30.2963 33.7914 30.2196 33.7042 30.2008 33.7204C29.9374 33.9247 29.8689 34.0882 29.7017 34.2426C29.6131 34.3282 29.5206 34.3579 29.4356 34.3225C29.404 34.2983 29.3718 34.2535 29.3385 34.1853C29.3179 34.1969 29.292 34.1981 29.2647 34.1927C29.2053 34.1811 29.1383 34.1385 29.0945 34.1084C29.0307 34.0645 29.0554 34.287 29.051 34.2922C28.9149 34.4546 28.8076 34.3387 28.6495 34.3368C28.574 34.3355 28.4323 34.3831 28.3569 34.4153C28.2972 34.4411 28.2548 34.3928 28.2023 34.4316C28.1952 34.4368 28.2133 34.5349 28.2114 34.5389C28.1615 34.6633 28.166 34.4188 28.1486 34.377C28.0857 34.2249 28.0475 34.1444 27.9772 34.2262C27.9607 34.245 27.9465 34.5976 27.9173 34.6211C27.8787 34.6513 27.88 34.5253 27.8402 34.5601C27.8368 34.563 27.8464 34.6395 27.8198 34.6391C27.6958 34.6379 27.561 34.6094 27.4479 34.6348C27.4326 34.6379 27.4718 34.7553 27.4505 34.7617C27.3501 34.792 27.2495 34.8069 27.1597 34.7709C27.1372 34.7617 27.127 34.6764 27.1163 34.653C27.0486 34.5124 27.0751 34.7364 27.0732 34.7415C27 34.8683 26.8677 34.7475 27.004 34.7446C27.0041 34.7446 27.0041 34.7446 27.0042 34.7445C27.0054 34.7441 27.0092 34.7448 27.0147 34.7463C27.0628 34.757 27.2156 34.8334 27.0545 34.7475C27.0436 34.7394 26.8563 34.645 26.9691 34.7363C26.9763 34.7418 27.0763 34.7829 27.0552 34.7989C27.0342 34.8147 27.0765 34.8913 26.9506 34.8818C26.9112 34.8783 26.7048 34.826 26.8367 34.9416C26.8452 34.9503 27.1615 35.1745 26.9121 35.0962C26.8709 35.0836 26.619 34.9687 26.725 35.0856C26.7458 35.108 26.8107 35.1114 26.8347 35.1559C26.8723 35.2238 26.7792 35.2599 26.8732 35.3643C26.8898 35.3827 27.05 35.4968 26.9041 35.4793C26.8812 35.4766 26.7982 35.4319 26.7819 35.447C26.7033 35.519 26.729 35.6382 26.6363 35.7104C26.6036 35.736 26.4668 35.6651 26.4165 35.6861C26.3662 35.7072 26.3046 35.7653 26.3576 35.8272C26.4108 35.8891 26.6535 35.9333 26.6536 35.9963C26.6545 36.2714 26.4404 36.4712 26.3279 36.7269C26.3108 36.7659 26.4064 36.7654 26.3872 36.8251C26.3509 36.9366 26.3206 37.092 26.238 37.2744C26.1906 37.374 26.1485 37.4583 26.0208 37.6185C25.9866 37.6598 25.9557 37.6958 25.8861 37.7667C25.8105 37.836 25.773 37.8889 25.5442 38.0255C25.4318 38.0853 25.3152 38.1415 25.099 38.1768C24.8669 38.2159 24.5706 38.1733 24.3532 38.0595C23.9655 37.8466 23.8826 37.6335 23.8142 37.5001C23.7146 37.2091 23.7705 37.1645 23.7936 37.1409C23.8231 37.1176 23.858 37.1278 23.8912 37.1409C23.9679 37.1976 24.0112 37.1984 24.007 37.0453C24.0086 36.9005 23.7092 36.8634 23.696 36.8304C23.6914 36.8215 23.6873 36.8127 23.6835 36.804C23.6011 36.7235 23.7141 36.6504 23.6636 36.5737C23.6526 36.5577 23.5344 36.5913 23.5265 36.578C23.5127 36.5557 23.5165 36.5304 23.5217 36.5046C23.5272 36.4778 23.5342 36.4505 23.5246 36.4272C23.5158 36.4068 23.4252 36.4286 23.4285 36.4083C23.435 36.3596 23.4643 36.3107 23.5378 36.2435C23.5445 36.2371 23.6644 36.2398 23.6596 36.2021C23.6518 36.1416 23.7143 36.0424 23.608 35.9967C23.576 35.9832 23.3723 36.0448 23.4993 35.9578C23.5257 35.9396 23.7735 35.8745 23.5461 35.8887C23.508 35.8897 23.1975 35.9001 23.3639 35.7949C23.4077 35.7672 23.5943 35.6672 23.5538 35.652C23.5476 35.6504 23.4451 35.7033 23.4269 35.6859C23.3646 35.6242 23.3455 35.5408 23.2806 35.4755C23.2631 35.4582 23.1658 35.5334 23.1432 35.5065C23.0813 35.4331 23.0635 35.3136 23.0596 35.2116C23.0584 35.174 23.158 35.1571 23.1668 35.1505C23.3095 35.0433 23.0847 35.1143 23.0667 35.1073C22.9571 35.0616 23.0307 34.9564 22.9706 34.8935C22.9543 34.8761 22.8588 34.9364 22.8479 34.9364C22.7399 34.9337 22.9373 34.8833 22.9453 34.8472C22.9683 34.7454 22.9213 34.6633 22.8725 34.5896C22.8544 34.5627 22.7509 34.6486 22.7361 34.6238C22.6458 34.4773 22.5825 34.3045 22.5792 34.1141C22.5788 34.0783 22.6789 34.0585 22.6972 34.0433C22.8257 33.9379 22.5982 33.9577 22.5727 33.9503C22.457 33.9182 22.5277 33.8577 22.4878 33.8024C22.2906 33.5337 22.2057 33.114 22.1555 32.791C22.0951 32.4126 22.1138 32.096 22.0668 31.7473C22.0541 31.649 22.0483 31.5463 22.0511 31.4417C22.0535 31.378 21.9166 31.4348 21.9179 31.3766C21.9234 31.2385 21.9474 31.1047 21.9825 30.984C22.1567 30.4332 22.4628 30.2144 22.6383 30.0143C22.6571 29.9946 22.5398 29.9364 22.5677 29.9021C22.6245 29.8312 22.7105 29.7742 22.7932 29.7581C22.8333 29.75 22.8665 29.8512 22.905 29.8417C22.954 29.8297 22.9957 29.8117 23.0287 29.7888C23.0542 29.7716 23.0756 29.7495 23.0922 29.7233C23.1077 29.6983 22.9926 29.6431 23.0189 29.6173C23.0336 29.6024 23.0481 29.587 23.062 29.5715C23.216 29.4 23.3672 29.2253 23.6343 29.1274C23.6542 29.1202 23.8484 29.2627 23.8391 29.2021C23.79 29.1569 23.7298 29.1067 23.676 29.0599C23.897 28.7364 24.2034 28.4723 24.4541 28.1476C24.4647 28.1339 24.3441 28.0835 24.3639 28.0567C24.4783 27.9014 24.5575 27.7276 24.7763 27.6341C24.7978 27.6246 24.9762 27.7604 24.9819 27.6926C24.9823 27.6812 25.0094 27.5893 24.9822 27.543C24.9779 27.5363 24.8826 27.4904 24.8964 27.4651C24.9786 27.3176 25.0985 27.1837 25.2511 27.0752C25.2756 27.0583 25.3503 27.1459 25.3684 27.1345C25.4992 27.05 25.5201 26.8706 25.7071 26.7947C25.8368 26.7414 25.9576 26.8983 26.1432 26.9733C26.1664 26.9858 26.2358 26.9217 26.315 27.0009C26.4968 27.2099 26.6939 27.4405 26.8945 27.6572C26.9092 27.6768 26.9111 27.6831 26.8873 27.7085C26.8664 27.7331 26.8019 27.7754 26.8115 27.8001C26.8115 27.8002 26.8115 27.8002 26.8115 27.8002C26.8172 27.8151 26.8609 27.8215 26.9243 27.8216C26.9797 27.7988 27.062 27.7875 27.0936 27.8292C27.1218 27.8518 27.1996 27.9327 27.2384 27.9587C27.2771 27.9847 27.2047 27.9244 27.2383 27.969C27.2714 28.0155 27.3786 28.0851 27.3678 28.1238ZM28.8131 33.9087C28.7494 33.8085 28.7914 34.1999 28.8346 34.0995C28.8366 34.0942 28.8164 33.9136 28.8131 33.9087ZM27.0805 28.9566C27.0804 28.9568 27.0803 28.957 27.0802 28.9573C27.0888 28.966 27.1124 28.9934 27.1196 29.0032C27.0146 29.1518 27.2431 29.0292 27.3254 28.9158C27.3763 28.8479 27.3027 28.8792 27.2286 28.9228C27.219 28.9097 27.1877 28.8733 27.1763 28.8618C27.1313 28.8951 27.0891 28.9358 27.0805 28.9566ZM26.4825 28.5895C26.4466 28.7426 26.8223 28.3207 26.6924 28.3574C26.6851 28.3594 26.4847 28.5806 26.4825 28.5895ZM26.0273 27.2063C26.032 27.2086 26.0616 27.1771 26.058 27.1734C25.9722 27.0802 25.9119 27.1446 26.0273 27.2063ZM25.9769 28.2476C25.922 28.307 26.0307 28.3064 26.0953 28.2303C26.149 28.1724 26.0476 28.1785 25.9769 28.2476ZM26.3218 34.0092C26.3175 34.0052 26.294 34.019 26.3167 34.0427C26.3892 34.1191 26.3927 34.0768 26.3218 34.0092ZM25.9266 27.2854C25.8712 27.4245 25.4052 27.4395 25.5085 27.2581C25.5267 27.2271 25.6242 27.3661 25.6749 27.3333C25.7638 27.2785 25.5181 27.1494 25.6845 27.1158C25.7129 27.1117 25.9294 27.2782 25.9271 27.2858C25.9269 27.2857 25.9267 27.2855 25.9266 27.2854ZM28.7241 33.4435C28.7224 33.4384 28.6829 33.4385 28.6826 33.4437C28.6769 33.5704 28.7573 33.5703 28.7241 33.4435ZM25.3863 35.3754C25.3749 35.3735 25.3325 35.4552 25.3413 35.4616C25.5207 35.579 25.6056 35.4141 25.3863 35.3754ZM28.7658 31.8897C28.6414 31.937 28.6002 31.9112 28.699 31.7831C28.7197 31.8204 28.7444 31.8517 28.7658 31.8897Z" fill="black"/>
<path d="M6.25482 1.73244C6.24109 1.88427 6.14725 2.07989 6.05411 2.22215C6.02487 2.2675 5.97217 2.2237 5.94962 2.25287C5.90537 2.31046 5.91493 2.38202 5.86555 2.43806C5.8488 2.45677 5.76228 2.39813 5.74692 2.41842C5.6644 2.52667 5.64836 2.65317 5.58455 2.76979C5.26832 3.34785 4.9876 3.92651 4.64141 4.4966C4.52704 4.68549 4.3183 4.87302 4.23451 5.08742C4.2248 5.11256 4.30838 5.1449 4.31196 5.15301C4.36506 5.27959 4.22708 5.16377 4.17967 5.19528C4.11205 5.24044 4.05208 5.29238 3.99832 5.34937C3.99081 5.35732 3.98344 5.36537 3.97619 5.3735C3.87753 5.48936 3.78976 5.60737 3.71402 5.72054C3.65917 5.80158 3.85341 5.85138 3.71358 5.85537C3.70415 5.85553 3.65388 5.77229 3.62849 5.78409C3.5717 5.81081 3.50346 5.89914 3.46518 5.92325C3.39151 5.96938 3.38166 5.97889 3.31992 6.029C3.23455 6.09678 3.10673 6.13452 3.02989 6.21586C3.01342 6.23364 3.09494 6.29542 3.07339 6.33126C3.05185 6.36723 2.96585 6.41699 2.9263 6.41586C2.88678 6.41484 2.8557 6.34263 2.84124 6.33108C2.7199 6.23287 2.74493 6.46507 2.73648 6.47716C2.60017 6.66163 2.38256 6.71626 2.37053 6.71967C2.37054 6.71923 2.37063 6.7187 2.3708 6.71809C2.40554 6.66464 2.46545 6.55725 2.44859 6.39259C2.42837 6.226 2.34026 6.13061 2.29543 6.08902C2.08856 5.94346 2.17544 6.01952 2.18377 6.00365C2.20951 6.00484 2.24869 6.00599 2.28914 6.00683C2.37098 6.00864 2.46342 6.01086 2.55186 6.02586C2.76229 6.06451 2.93491 6.13722 3.20272 6.23536C3.20803 6.23742 3.21335 6.23947 3.21868 6.24153C3.24564 6.25223 3.26239 6.1272 3.29695 6.14098C3.30799 6.14545 3.31895 6.15004 3.32984 6.15475C3.68828 6.30526 3.97893 6.61156 4.09331 6.93594C4.10525 6.96938 3.99187 6.99104 3.99766 7.02693C4.04055 7.25118 3.94876 7.5722 4.42275 7.51423C4.45209 7.64256 4.48035 7.79502 4.41903 7.92438C4.37932 8.0072 4.24922 7.97361 4.31902 8.04112C4.33455 8.05639 4.42702 8.00654 4.4429 8.03183C4.50985 8.13933 4.5067 8.27321 4.58241 8.37546C4.59805 8.39626 4.68631 8.3711 4.70384 8.37431C4.84651 8.40318 4.64849 8.53895 4.63645 8.56119C4.60946 8.61447 4.59682 8.66029 4.59301 8.70254C4.59161 8.72169 4.59172 8.74011 4.59291 8.75809C4.59794 8.83506 4.62348 8.90592 4.63302 8.98914C4.63688 9.0238 4.75329 8.96622 4.76135 8.99946C4.80141 9.17208 4.80521 9.35736 4.75704 9.5305C4.74601 9.56896 4.641 9.5387 4.63041 9.55706C4.58479 9.63601 4.78096 9.64907 4.73906 9.72615C4.73044 9.74231 4.6418 9.73441 4.63208 9.73745C4.47959 9.78412 4.69544 9.82156 4.69995 9.83382C4.76221 9.98484 4.53331 10.0719 4.55511 10.2121C4.55778 10.2294 4.67138 10.1981 4.67196 10.2467C4.67598 10.569 4.58986 10.9081 4.42275 11.1982C4.39686 11.2429 4.32811 11.1878 4.31765 11.1883C4.15412 11.1969 4.34626 11.2816 4.34851 11.3011C4.36261 11.4469 4.1634 11.4899 4.33843 11.6923C4.32211 11.7176 4.30384 11.7459 4.28285 11.7754C4.23927 11.8207 4.28096 11.8572 4.04293 11.968C3.72531 12.0588 3.56421 11.8255 3.54568 11.7951C3.48616 11.6957 3.49316 11.6785 3.48359 11.6494C3.45353 11.4209 3.48095 11.3903 3.48719 11.2821C3.49794 11.1895 3.51165 11.0992 3.5304 11.0088C3.56838 10.8288 3.62509 10.645 3.73913 10.4705C3.75497 10.4474 3.77131 10.4247 3.78822 10.4025C3.87755 10.2854 3.98451 10.1794 4.11583 10.0959C4.12167 10.0919 4.1972 10.1591 4.2084 10.1511C4.34446 10.0572 4.19997 9.99175 4.11405 9.78914C4.09333 9.73718 4.32514 9.81573 4.34243 9.82144C4.40709 9.84046 4.50647 9.95519 4.52122 9.95611C4.63772 9.96317 4.249 9.65726 4.31443 9.58009C4.31706 9.5783 4.37762 9.64741 4.38986 9.64704C4.42788 9.64634 4.4175 9.60321 4.45756 9.60517C4.55036 9.60988 4.73952 9.75845 4.69437 9.60202C4.6887 9.58173 4.47228 9.40165 4.544 9.34616C4.57216 9.32416 4.68038 9.20996 4.72509 9.19346C4.76931 9.17665 4.80945 9.2632 4.81446 9.26385C4.97986 9.2731 4.98183 9.3393 5.14134 9.43373C5.29897 9.52959 5.00837 9.22474 4.99495 9.17389C4.98168 9.12292 5.10994 9.14302 5.14731 9.15674C5.18484 9.17013 5.20253 9.23036 5.22861 9.2339C5.39921 9.25782 5.1359 9.03932 5.1248 8.96204C5.10145 8.77738 5.35318 8.97815 5.43792 8.95367C5.46129 8.94675 5.40399 8.90046 5.41667 8.88289C5.46826 8.81382 5.5635 8.86598 5.58978 8.73987C5.59356 8.7196 5.55379 8.51971 5.67081 8.60881C5.68738 8.62185 5.71324 8.69798 5.75179 8.69404C5.80946 8.68813 5.8965 8.65443 5.93078 8.60378C5.95612 8.56629 5.85 8.47948 5.91525 8.48743C5.94416 8.4912 5.94552 8.57763 5.99627 8.57958C6.04648 8.58164 6.13946 8.52562 6.17451 8.50388C6.2094 8.48196 6.14331 8.40661 6.14308 8.39924C6.14292 8.35632 6.19287 8.27663 6.1994 8.2735C6.51813 8.09483 6.88578 8.11771 7.18948 7.95009C7.2137 7.937 7.16184 7.84564 7.16518 7.84264C7.23943 7.77028 7.26151 8.05432 7.3519 8.12035C7.27448 7.92489 7.32255 7.94827 7.37714 7.90569C7.40348 7.88502 7.36161 7.81321 7.36171 7.80439C7.36805 7.67203 7.44906 7.81371 7.46674 7.84234C7.53253 7.94741 7.52169 7.80198 7.56583 7.87238C7.60925 7.94242 7.59895 8.06928 7.65692 8.04986C7.65158 7.97278 7.54957 7.79829 7.58594 7.75382C7.72509 7.58375 8.09448 7.64658 8.23677 7.6316C8.37998 7.61522 8.42345 7.59228 8.51012 7.60221C8.6682 7.62081 8.5849 7.48841 8.66604 7.40492C8.74835 7.32178 8.76625 7.68432 8.79334 7.75797C8.81974 7.83177 8.81967 7.75096 8.84287 7.79003C8.86585 7.82914 8.84117 7.88684 8.88053 7.89616C8.88445 7.89709 8.88874 7.89641 8.89328 7.89435C9.02836 7.87107 9.08159 7.74649 9.00511 7.63273C8.9968 7.62534 8.98177 7.61952 8.96282 7.61537C8.90438 7.6026 8.80843 7.60565 8.75774 7.62884C8.59991 7.70135 8.47713 7.84061 8.47326 7.72241C8.47316 7.7156 8.56178 7.6777 8.55743 7.6543C8.51941 7.46882 8.41898 7.31438 8.37344 7.13411C8.36714 7.10901 8.46615 7.06743 8.46345 7.05214C8.43568 6.89273 8.31967 7.03709 8.11177 7.08199C8.3382 6.94884 8.44511 6.82127 8.38369 6.72884C8.34709 6.67354 8.25907 6.74748 8.16813 6.75727C8.14075 6.76026 8.17888 6.6768 8.12958 6.69995C7.96839 6.77557 7.83048 6.92281 7.83108 6.78419C7.83134 6.77794 7.91989 6.73709 7.91496 6.71945C7.88356 6.60523 7.72316 6.69618 7.63701 6.60796C7.56893 6.53805 7.56758 6.33444 7.52242 6.23311C7.76818 6.0724 7.65615 6.02505 7.46415 6.10118C7.43223 6.03747 7.38079 5.97951 7.36715 5.90706C7.36236 5.88213 7.44196 5.8489 7.44804 5.84142C7.54412 5.72518 7.36245 5.80624 7.34766 5.79749C7.19508 5.6986 7.24875 5.5053 7.04213 5.44803C7.03476 5.44607 6.85741 5.54538 6.96105 5.43104C6.96832 5.42337 7.07429 5.4192 7.04125 5.35207C7.00813 5.28475 7.0283 5.1091 6.89493 5.06877C6.86278 5.0591 6.68887 5.08819 6.77362 4.97887C6.7852 4.96418 6.83897 4.94107 6.86187 4.91628C6.93471 4.83709 6.74948 4.92554 6.88087 4.80593C7.01224 4.68623 7.08704 4.55667 6.9324 4.52691C6.92778 4.52583 6.77487 4.58432 6.76108 4.55456C6.73919 4.50705 6.73294 4.42646 6.70603 4.3795C6.69304 4.35695 6.61301 4.41971 6.60922 4.41663C6.47574 4.28895 6.49578 4.13546 6.44632 3.95148C6.43743 3.91779 6.27094 3.8887 6.33915 3.78184C6.41404 3.66514 6.88737 3.51999 6.71335 3.42492C6.64473 3.38874 6.04172 3.56281 6.28828 3.3228C6.12201 3.13733 6.1978 2.88025 6.0177 2.69677C6.00976 2.6888 5.8355 2.70996 5.82993 2.68453C5.82211 2.64712 5.89295 2.60372 5.89036 2.57694C5.88193 2.46544 5.7883 2.38346 5.77358 2.27638C5.76782 2.23525 5.85179 2.23028 5.84567 2.18239C5.83975 2.13479 5.72623 2.12632 5.76532 2.05056C5.79533 1.99314 6.00657 1.90785 6.02326 1.84525C5.80577 1.87586 5.80298 1.83096 5.73618 1.75871C5.72325 1.7447 5.64922 1.76984 5.63919 1.76357C5.59661 1.73743 5.65685 1.70394 5.61155 1.67847C5.60068 1.67229 5.52601 1.67849 5.51291 1.67359C5.3983 1.63079 5.56192 1.53533 5.59086 1.52168C5.69996 1.46451 5.60228 1.44241 5.64581 1.40097C5.68954 1.36093 5.74435 1.41981 5.77094 1.37431C5.78266 1.35455 5.79158 1.33391 5.79855 1.31277L5.79189 1.34373C5.79415 1.34102 5.79637 1.33829 5.79855 1.33554C5.84618 1.27562 5.87762 1.20298 5.91643 1.14887C5.93645 1.12044 5.84706 1.08369 5.8481 1.07834C5.88149 0.996835 5.99574 1.01038 5.92171 0.85072C6.24041 1.15773 5.93135 0.781815 6.09877 0.793421C6.11232 0.79511 6.19781 0.956827 6.19093 0.997059C6.18618 1.03711 6.1215 1.01248 6.12538 1.07697C6.12208 1.09299 6.23558 1.27604 6.24713 1.28791C6.31118 1.38785 6.05252 1.17572 6.03483 1.16718C5.85565 1.07005 6.00415 1.2702 6.01715 1.28907C6.03786 1.35454 6.02195 1.38877 6.01134 1.42699C6.01063 1.42962 6.00996 1.43228 6.00936 1.43495L6.03429 1.31903C6.03726 1.34295 6.04374 1.36659 6.06213 1.38987C6.09835 1.43661 6.33669 1.43535 6.33057 1.46841C6.31138 1.57379 5.98472 1.65576 6.28518 1.73296C6.34961 1.74909 6.60412 1.68956 6.41352 1.79991C6.40128 1.8058 6.22642 1.89979 6.35055 1.91585C6.36615 1.91771 6.44098 1.90366 6.4484 1.90835C6.49673 1.94008 6.44252 1.9775 6.48048 2.01445C6.51838 2.05096 6.57313 2.09293 6.56054 2.14703C6.55303 2.17967 6.4262 2.25493 6.39683 2.27925C6.31193 2.34857 6.48324 2.34759 6.37442 2.40762C6.26553 2.46962 6.07122 2.46872 6.01804 2.56505C6.20872 2.50945 6.40539 2.45537 6.59742 2.40014C6.63668 2.54734 6.62798 2.71278 6.6953 2.85837C6.70383 2.87629 6.79611 2.81842 6.80773 2.83625C6.85589 2.91017 6.81589 3.01229 6.88092 3.08465C6.93167 3.14053 7.06849 3.16642 7.1258 3.22067C6.9371 3.35777 7.05692 3.42815 7.07442 3.50997C7.08074 3.53892 7.02494 3.56431 7.01629 3.59169C6.9853 3.69463 7.15027 3.57115 7.18841 3.57577C7.35126 3.59463 6.94528 3.80992 7.00698 3.90311C7.01019 3.9084 7.26042 3.8566 7.27834 3.8575C7.3953 3.86445 7.20777 3.90654 7.21014 3.94904C7.21454 4.02656 7.1873 4.09894 7.2908 4.13665C7.32136 4.14771 7.48344 4.12317 7.40353 4.22226C7.39309 4.23529 7.32061 4.27228 7.31896 4.27899C7.29526 4.39748 7.51845 4.27273 7.61925 4.27376C7.71994 4.27456 7.60785 4.43177 7.57238 4.47179C7.48062 4.57527 7.50713 4.4721 7.49481 4.4766C7.34816 4.53063 7.40093 4.56814 7.41279 4.6135C7.19994 4.74664 7.24565 4.79403 7.42603 4.66007C7.44569 4.64538 7.40755 4.62713 7.41279 4.6135C7.64516 4.52253 7.70695 4.56387 7.54939 4.74822C7.47561 4.83467 7.35001 4.87079 7.44677 4.94079C7.49064 4.97252 7.62829 4.86578 7.69147 4.8782C7.83554 4.90624 7.76719 5.10126 7.84443 5.17508C7.87242 5.20177 7.93304 5.12015 7.95491 5.13656C8.01318 5.17981 7.98539 5.26839 8.05325 5.3059C8.0595 5.30923 8.135 5.2427 8.14761 5.25979C8.2447 5.3879 8.2685 5.53988 8.36045 5.68089C8.40532 5.74969 8.53191 5.83919 8.5706 5.91602C8.63709 6.04743 8.619 6.27885 8.72005 6.36385C8.78537 6.41915 8.85773 6.34769 8.93393 6.33818C9.08119 6.31907 8.95506 6.55358 8.93377 6.5874C8.93307 6.58853 8.87335 6.54332 8.85243 6.60362C8.77657 6.68234 8.93293 6.587 8.93377 6.5874C8.91995 6.60912 8.9824 6.74008 9.01418 6.75251C9.03152 6.75925 9.10492 6.69849 9.11248 6.70302C9.29052 6.81205 9.4197 6.95746 9.49332 7.14532C9.49368 7.14928 9.40279 7.20449 9.40473 7.21304C9.41167 7.24675 9.42805 7.26995 9.4506 7.28664C9.46195 7.29503 9.47486 7.30178 9.4889 7.30739C9.82844 7.81241 9.5921 8.36549 8.99239 8.46888C8.9514 8.51184 8.91995 8.58114 8.87947 8.63428C8.81122 8.72546 8.74152 8.71319 8.65524 8.5449C8.59689 8.58037 8.48967 8.52148 8.42593 8.48611C8.36191 8.45077 8.40288 8.65356 8.39936 8.65856C8.29025 8.81924 8.18188 8.72504 8.0326 8.74784C7.96126 8.75831 7.8353 8.82751 7.77047 8.87232C7.71911 8.90796 7.66918 8.87365 7.6271 8.92069C7.62141 8.927 7.65856 9.01131 7.65758 9.01538C7.63659 9.13878 7.58979 8.91759 7.56445 8.88397C7.47208 8.76198 7.41686 8.69914 7.36507 8.79154C7.35254 8.81296 7.41849 9.13323 7.39624 9.16216C7.36618 9.19962 7.33804 9.08636 7.30737 9.12875C7.30472 9.13229 7.33224 9.19809 7.30605 9.20529C7.18545 9.23937 7.04322 9.25648 6.92969 9.31879C6.91414 9.32702 6.9836 9.41899 6.9623 9.43242C6.86227 9.49538 6.74876 9.5497 6.62386 9.55945C6.59289 9.56159 6.56895 9.48444 6.55199 9.4671C6.44781 9.36304 6.50491 9.56847 6.50001 9.57595C6.37508 9.76535 6.13968 9.69843 6.02424 9.89638C6.01725 9.90806 6.08744 10.1321 5.93963 10.0091C5.9301 10.0006 5.77658 9.87646 5.83503 9.99979C5.83884 10.0074 5.92082 10.0684 5.88295 10.0869C5.84461 10.106 5.84037 10.1975 5.72512 10.155C5.68924 10.1411 5.52453 10.0311 5.59134 10.1797C5.59467 10.1912 5.78286 10.4921 5.59296 10.3444C5.56171 10.3202 5.38318 10.1401 5.43143 10.2774C5.44123 10.3036 5.49743 10.3263 5.50113 10.3737C5.50794 10.4456 5.41375 10.4485 5.46058 10.5667C5.4686 10.5879 5.5731 10.7297 5.45127 10.6727C5.43206 10.6639 5.3734 10.6023 5.35431 10.6107C5.26281 10.6509 5.25154 10.7586 5.15246 10.7975C5.11722 10.8119 5.01498 10.7201 4.96496 10.7281C4.91478 10.7362 4.84582 10.7765 4.87852 10.8414C4.91165 10.9055 5.1159 10.9891 5.1033 11.0419C5.09457 11.0795 5.08198 11.1139 5.06611 11.1468C5.05737 11.1649 5.04771 11.1825 5.03729 11.1997C5.03371 11.1881 4.92552 11.2732 4.90553 11.3751C4.90151 11.3938 4.98006 11.3874 4.98073 11.4116C4.98125 11.4228 4.9835 11.4346 4.98671 11.4374C4.98401 11.4179 5.01404 11.5071 4.97108 11.2701C4.94999 11.2129 4.97146 11.1853 4.8266 10.9435C4.80446 10.9102 4.6987 10.7495 4.50438 10.6258C4.40072 10.5609 4.28711 10.5034 4.1055 10.4683C3.92507 10.4339 3.72499 10.4514 3.56812 10.5032C3.22537 10.6306 3.1723 10.7351 3.09514 10.8044C3.02647 10.879 2.98746 10.9387 2.9583 10.9869C2.9062 11.0665 2.94402 10.9779 2.96632 10.9302C2.99439 10.8737 3.03657 10.8148 3.1041 10.7771C3.25936 10.6853 3.33176 10.8632 3.40411 10.778C3.43945 10.7339 3.19109 10.6327 3.1842 10.6213C3.1168 10.4984 3.2394 10.4383 3.21181 10.3312C3.20589 10.3095 3.09798 10.3182 3.09398 10.3002C3.07925 10.2386 3.12972 10.1802 3.12249 10.1217C3.11896 10.0953 3.03649 10.0951 3.04317 10.0723C3.05816 10.017 3.0927 9.96938 3.16976 9.91497C3.17681 9.90985 3.28042 9.9472 3.28382 9.90398C3.28889 9.83388 3.36349 9.74443 3.27907 9.66506C3.25366 9.64141 3.06246 9.64886 3.19095 9.59275C3.21771 9.58118 3.44879 9.582 3.24546 9.53339C3.21184 9.52344 2.93464 9.44896 3.10182 9.38701C3.1459 9.37059 3.33042 9.31883 3.29724 9.29274C3.29204 9.28945 3.19111 9.31611 3.17813 9.29396C3.13419 9.2165 3.13233 9.13026 3.08608 9.05383C3.07354 9.03372 2.97341 9.08396 2.95817 9.05405C2.95753 9.0528 2.9569 9.05154 2.95628 9.05028C2.95053 9.03857 2.94571 9.02628 2.94169 9.01353C2.91461 8.92066 2.91781 8.81321 2.92841 8.72655C2.93325 8.68869 3.02531 8.69437 3.03424 8.68982C3.17907 8.61462 2.96616 8.6356 2.95119 8.62529C2.86036 8.559 2.94267 8.47523 2.89842 8.41077C2.88649 8.39316 2.79244 8.43328 2.78271 8.43178C2.68729 8.41643 2.87035 8.39726 2.88287 8.36711C2.91835 8.28216 2.88742 8.20926 2.85389 8.15261C2.84146 8.13201 2.7397 8.19598 2.73009 8.17793C2.67108 8.07224 2.64136 7.98367 2.66041 7.89244C2.66405 7.87498 2.7439 7.8327 2.75968 7.81913C2.86731 7.72 2.6887 7.80814 2.67261 7.81805C2.59221 7.8533 2.65019 7.79882 2.62873 7.79718C2.58087 7.79777 2.57285 7.80086 2.55962 7.78636C2.55802 7.78473 2.55633 7.78286 2.55444 7.78076C2.58907 7.78004 2.47051 7.72077 2.367 7.68558C2.27274 7.6526 2.17069 7.61783 2.04554 7.57797C1.98098 7.55723 1.9149 7.53762 1.8069 7.50261C1.74778 7.48181 1.69315 7.46933 1.54678 7.39969C1.46488 7.34892 1.36604 7.33799 1.1439 7.07092C1.04665 6.95572 0.91489 6.65795 0.936944 6.40112C0.956073 6.12416 1.04382 5.98266 1.11586 5.87101C1.12287 5.86148 1.1299 5.85216 1.13694 5.84306C1.3783 5.54992 1.5402 5.47345 1.67894 5.36344C1.70305 5.34588 1.61235 5.26812 1.63264 5.25165C1.89099 5.05217 2.10401 4.98502 2.24681 4.84254C2.25824 4.8314 2.17519 4.75942 2.19073 4.73919C2.2218 4.69734 2.27154 4.66709 2.32825 4.66422C2.35593 4.6625 2.39357 4.74974 2.42076 4.74596C2.4846 4.73679 2.53139 4.70339 2.55311 4.65627C2.56184 4.63636 2.46121 4.58512 2.47769 4.56604C2.51429 4.52201 2.54264 4.47929 2.57 4.44025C2.57492 4.43304 2.57986 4.42585 2.58483 4.41866C2.68285 4.27706 2.79468 4.14236 2.96064 4.02788C2.97867 4.01552 3.1786 4.10774 3.1629 4.04943C3.11125 4.01703 3.04854 3.98243 2.99232 3.94963C3.16339 3.569 3.411 3.2213 3.58705 2.82375C3.59438 2.80712 3.47498 2.79195 3.48851 2.75974C3.56703 2.57192 3.60719 2.37667 3.78707 2.21746C3.80465 2.20183 3.99384 2.28035 3.98571 2.21071C3.98417 2.19832 3.98935 2.10087 3.9554 2.06289C3.95013 2.05762 3.85434 2.04265 3.86151 2.01324C3.9047 1.84295 3.98233 1.67471 4.09087 1.52259C4.10887 1.49712 4.19651 1.55753 4.21016 1.53964C4.30565 1.41484 4.27714 1.24024 4.41045 1.12101C4.50011 1.04232 4.65789 1.12655 4.83884 1.12941C4.86444 1.12886 4.89174 1.06259 4.98809 1.09353C5.22641 1.17868 5.47791 1.29709 5.73391 1.38254C5.77864 1.39093 5.75094 1.38869 5.78663 1.42882C5.78664 1.42883 5.78665 1.42883 5.78666 1.42884C5.79951 1.43608 5.82439 1.43457 5.85846 1.4364C5.87426 1.42302 5.91112 1.45604 5.95245 1.48298C5.98162 1.4995 6.08211 1.52179 6.11803 1.54718C6.15359 1.57363 6.06747 1.56097 6.10551 1.60502C6.14493 1.64693 6.25969 1.6697 6.25482 1.73244ZM8.13631 8.33208C8.06174 8.24901 8.14798 8.60198 8.17772 8.5044C8.17905 8.49927 8.14006 8.33613 8.13631 8.33208ZM6.37898 2.80476C6.25546 2.92129 6.48701 2.88249 6.58338 2.79671C6.68027 2.71256 6.41668 2.77012 6.37898 2.80476ZM6.06955 2.18361C5.96899 2.28949 6.45653 2.17742 6.33984 2.12646C6.33324 2.12348 6.07544 2.1776 6.06955 2.18361ZM4.81265 1.37888C4.81748 1.37933 4.83401 1.34094 4.83012 1.33755C4.728 1.28248 4.69418 1.36206 4.81265 1.37888ZM5.84739 1.5283C5.78119 1.55623 5.86377 1.62187 5.94512 1.58568C6.01041 1.55783 5.92953 1.49518 5.84739 1.5283ZM5.54396 9.09374C5.54011 9.08989 5.51255 9.1043 5.53118 9.12824C5.59118 9.20523 5.60841 9.15829 5.54396 9.09374ZM6.45298 0.846331C6.32412 0.842143 6.09973 0.583412 6.36583 0.610702C6.40829 0.616988 6.2782 0.691149 6.33417 0.715132C6.41851 0.750331 6.50442 0.618066 6.57976 0.725798C6.58822 0.739116 6.45679 0.841525 6.45266 0.846637C6.45277 0.846535 6.45288 0.846433 6.45298 0.846331ZM7.99689 7.91746C7.99466 7.91306 7.95212 7.91966 7.95235 7.92455C7.96013 8.04182 8.04478 8.02887 7.99689 7.91746ZM4.12942 10.2499C4.11955 10.2461 4.05556 10.3272 4.06178 10.3352C4.1907 10.4782 4.31595 10.3212 4.12942 10.2499ZM7.528 6.22735C7.40568 6.25206 7.36346 6.21254 7.46414 6.10144C7.48333 6.14471 7.50802 6.18424 7.528 6.22735Z" fill="black"/>
</svg>
