<svg viewBox="0 0 115 30" xmlns="http://www.w3.org/2000/svg">
  <defs>
    <filter id="rough-paper-short-v3" x="-5%" y="-5%" width="110%" height="110%">
      <feTurbulence type="fractalNoise" baseFrequency="0.04" numOctaves="3" result="noise"/>
      <feDiffuseLighting in="noise" lighting-color="#fff" surfaceScale="2" result="light">
        <feDistantLight azimuth="45" elevation="60"/>
      </feDiffuseLighting>
      <feComposite in="light" in2="SourceAlpha" operator="in" result="textured"/>
      <feComposite in="SourceGraphic" in2="textured" operator="arithmetic" k1="1" k2="0" k3="0" k4="0"/>
    </filter>
  </defs>
  <path d="M 2 0 L 112 0 L 111.5 2 L 113.5 4 L 111 6 L 114 8 L 110.5 10 L 114.5 12 L 111 14 L 114 16 L 111.5 18 L 113.5 20 L 111 22 L 114 24 L 111.5 26 L 113.5 28 L 112 30 L 2 30 L 2.5 28 L 0.5 26 L 3 24 L 0 22 L 3.5 20 L 0.5 18 L 3 16 L 0.5 14 L 3.5 12 L 1 10 L 4 8 L 1.5 6 L 3.5 4 L 2.5 2 Z"
        fill="rgb(252, 231, 189)"
        stroke="rgb(255, 221, 126)"
        stroke-width="0.5"
        style="filter: url(#rough-paper-short-v3);"/>
</svg>